# This file uses centimeters as units for non-parametric coordinates.

mtllib PC2.mtl
g default
v 7.312403 4.401224 19.408526
v 8.476607 4.401224 19.408526
v 7.312403 6.533809 19.408526
v 8.476607 6.533809 19.408526
v 7.312403 6.533809 17.638255
v 8.476607 6.533809 17.638255
v 7.312403 4.401224 17.638255
v 8.476607 4.401224 17.638255
vt 0.375000 0.000000
vt 0.625000 0.000000
vt 0.375000 0.250000
vt 0.625000 0.250000
vt 0.375000 0.500000
vt 0.625000 0.500000
vt 0.375000 0.750000
vt 0.625000 0.750000
vt 0.375000 1.000000
vt 0.625000 1.000000
vt 0.875000 0.000000
vt 0.875000 0.250000
vt 0.125000 0.000000
vt 0.125000 0.250000
vt 0.059114 0.000000
vt 0.940887 0.000000
vt 0.940887 1.000000
vt 0.059114 1.000000
vn 0.000000 0.000000 1.000000
vn 0.000000 0.000000 1.000000
vn 0.000000 0.000000 1.000000
vn 0.000000 0.000000 1.000000
vn 0.000000 1.000000 0.000000
vn 0.000000 1.000000 0.000000
vn 0.000000 1.000000 0.000000
vn 0.000000 1.000000 0.000000
vn 0.000000 0.000000 -1.000000
vn 0.000000 0.000000 -1.000000
vn 0.000000 0.000000 -1.000000
vn 0.000000 0.000000 -1.000000
vn 0.000000 -1.000000 0.000000
vn 0.000000 -1.000000 0.000000
vn 0.000000 -1.000000 0.000000
vn 0.000000 -1.000000 0.000000
vn 1.000000 0.000000 0.000000
vn 1.000000 0.000000 0.000000
vn 1.000000 0.000000 0.000000
vn 1.000000 0.000000 0.000000
vn -1.000000 0.000000 0.000000
vn -1.000000 0.000000 0.000000
vn -1.000000 0.000000 0.000000
vn -1.000000 0.000000 0.000000
s 1
g oak_lab:oak_lab10:pCube41 oak_lab:group10
usemtl oak_lab:oak_lab14:oak_lab13:oak_lab12:oak_lab10:lambert2SG
f 1/15/1 2/16/2 3/18/3
f 3/18/3 2/16/2 4/17/4
s 2
usemtl oak_lab:oak_lab10:lambert1SG
f 3/3/5 4/4/6 5/5/7
f 5/5/7 4/4/6 6/6/8
s 3
f 5/5/9 6/6/10 7/7/11
f 7/7/11 6/6/10 8/8/12
s 4
usemtl initialShadingGroup
f 7/7/13 8/8/14 1/9/15
f 1/9/15 8/8/14 2/10/16
s 5
usemtl oak_lab:oak_lab10:lambert1SG
f 2/2/17 8/11/18 4/4/19
f 4/4/19 8/11/18 6/12/20
s 6
f 7/13/21 1/1/22 5/14/23
f 5/14/23 1/1/22 3/3/24
g default
v 4.647181 4.971150 18.268612
v 6.460312 4.971150 18.268612
v 4.647181 6.445519 18.268612
v 6.460312 6.445519 18.268612
v 4.647181 6.445519 18.080505
v 6.460312 6.445519 18.080505
v 4.647181 4.971150 18.080505
v 6.460312 4.971150 18.080505
vt 0.000000 0.000000
vt 1.000000 0.000000
vt 1.000000 1.000000
vt 0.000000 1.000000
vt 1.000000 1.000000
vt 0.000000 1.000000
vt 1.000000 0.000000
vt 0.000000 0.000000
vn 0.000000 0.000000 1.000000
vn 0.000000 0.000000 1.000000
vn 0.000000 0.000000 1.000000
vn 0.000000 0.000000 1.000000
vn 0.000000 1.000000 0.000000
vn 0.000000 1.000000 0.000000
vn 0.000000 1.000000 0.000000
vn 0.000000 1.000000 0.000000
vn 0.000000 0.000000 -1.000000
vn 0.000000 0.000000 -1.000000
vn 0.000000 0.000000 -1.000000
vn 0.000000 0.000000 -1.000000
vn 0.000000 -1.000000 0.000000
vn 0.000000 -1.000000 0.000000
vn 0.000000 -1.000000 0.000000
vn 0.000000 -1.000000 0.000000
vn 1.000000 0.000000 0.000000
vn 1.000000 0.000000 0.000000
vn 1.000000 0.000000 0.000000
vn 1.000000 0.000000 0.000000
vn -1.000000 0.000000 0.000000
vn -1.000000 0.000000 0.000000
vn -1.000000 0.000000 0.000000
vn -1.000000 0.000000 0.000000
s 1
g oak_lab:oak_lab14:oak_lab13:oak_lab12:oak_lab10:pCube41 oak_lab:oak_lab14:oak_lab13:oak_lab12:group10 oak_lab:oak_lab14:oak_lab13:group12 oak_lab:oak_lab14:group13 oak_lab:group14
usemtl oak_lab:phong1SG
f 9/19/25 10/20/26 11/22/27
f 11/22/27 10/20/26 12/21/28
s 2
f 11/22/29 12/21/30 13/24/31
f 13/24/31 12/21/30 14/23/32
s 3
f 13/24/33 14/23/34 15/26/35
f 15/26/35 14/23/34 16/25/36
s 4
f 15/26/37 16/25/38 9/19/39
f 9/19/39 16/25/38 10/20/40
s 5
f 10/20/41 16/25/42 12/21/43
f 12/21/43 16/25/42 14/23/44
s 6
f 15/26/45 9/19/46 13/24/47
f 13/24/47 9/19/46 11/22/48
g default
v 4.401310 4.838861 18.320587
v 4.647181 4.971150 18.320587
v 4.647181 6.445519 18.320587
v 6.460312 6.445519 18.320587
v 6.460312 4.971150 18.320587
v 6.706183 4.838861 18.320587
v 6.706183 6.577808 18.320587
v 4.401310 6.577808 18.320587
v 4.401310 4.838861 17.671066
v 4.401310 6.577808 17.671066
v 6.706183 4.838861 17.671066
v 6.706183 6.577808 17.671066
v 4.647181 6.445519 18.114632
v 6.460312 6.445519 18.114632
v 6.460312 4.971150 18.114632
v 4.647181 4.971150 18.114632
vt 0.375000 0.000000
vt 0.401669 0.019019
vt 0.401669 0.230981
vt 0.598331 0.230981
vt 0.598331 0.019019
vt 0.625000 0.000000
vt 0.625000 0.250000
vt 0.375000 0.250000
vt 0.125000 0.250000
vt 0.125000 0.000000
vt 0.375000 1.000000
vt 0.375000 0.750000
vt 0.625000 0.750000
vt 0.625000 1.000000
vt 0.875000 0.000000
vt 0.875000 0.250000
vt 0.625000 0.500000
vt 0.375000 0.500000
vt 0.375000 0.364592
vt 0.375000 0.500000
vt 0.625000 0.500000
vt 0.625000 0.364592
vt 0.739592 0.250000
vt 0.875000 0.250000
vt 0.875000 0.000000
vt 0.739592 0.000000
vt 0.375000 0.750000
vt 0.625000 0.750000
vt 0.260408 0.000000
vt 0.125000 0.000000
vt 0.125000 0.250000
vt 0.260408 0.250000
vt 0.375000 0.885408
vt 0.625000 0.885408
vn 0.000000 0.000000 1.000000
vn 0.000001 0.000000 1.000000
vn 0.000000 0.000000 1.000000
vn 0.000000 0.000000 1.000000
vn 0.000000 0.000000 1.000000
vn 0.000000 0.000000 1.000000
vn 0.000001 0.000000 1.000000
vn 0.000000 0.000000 1.000000
vn -1.000000 0.000000 0.000000
vn -1.000000 0.000000 0.000000
vn -1.000000 0.000000 0.000000
vn -1.000000 0.000000 0.000000
vn 0.000000 -1.000000 0.000000
vn 0.000000 -1.000000 0.000000
vn 0.000000 -1.000000 0.000000
vn 0.000000 -1.000000 0.000000
vn 1.000000 0.000000 0.000000
vn 1.000000 0.000000 0.000000
vn 1.000000 0.000000 0.000000
vn 1.000000 0.000000 0.000000
vn 0.000000 1.000000 0.000000
vn 0.000000 1.000000 0.000000
vn 0.000000 1.000000 0.000000
vn 0.000000 1.000000 0.000000
vn 0.000000 0.000000 -1.000000
vn 0.000000 0.000000 -1.000000
vn 0.000000 0.000000 -1.000000
vn 0.000000 0.000000 -1.000000
vn 0.000000 -1.000000 0.000000
vn 0.000000 -1.000000 0.000000
vn 0.000000 -1.000000 0.000000
vn 0.000000 -1.000000 0.000000
vn -1.000000 0.000000 0.000000
vn -1.000000 0.000000 0.000000
vn -1.000000 0.000000 0.000000
vn -1.000000 0.000000 0.000000
vn 0.000000 0.000000 1.000000
vn 0.000000 0.000000 1.000000
vn 0.000000 0.000000 1.000000
vn 0.000000 0.000000 1.000000
vn 1.000000 0.000000 0.000000
vn 1.000000 0.000000 0.000000
vn 1.000000 0.000000 0.000000
vn 1.000000 0.000000 0.000000
vn 0.000000 1.000000 0.000000
vn 0.000000 1.000000 0.000000
vn 0.000000 1.000000 0.000000
vn 0.000000 1.000000 0.000000
s 1
g oak_lab:polySurface10
usemtl oak_lab:oak_lab14:oak_lab13:oak_lab12:oak_lab10:lambert1SG
f 17/27/49 22/32/50 18/28/51
f 18/28/51 22/32/50 21/31/52
f 17/27/49 18/28/51 24/34/53
f 18/28/51 19/29/54 24/34/53
f 24/34/53 19/29/54 23/33/55
f 19/29/54 20/30/56 23/33/55
f 22/32/50 23/33/55 21/31/52
f 20/30/56 21/31/52 23/33/55
s 2
f 17/27/57 24/34/58 25/36/59
f 25/36/59 24/34/58 26/35/60
s 3
f 17/37/61 25/38/62 22/40/63
f 22/40/63 25/38/62 27/39/64
s 4
f 22/32/65 27/41/66 23/33/67
f 23/33/67 27/41/66 28/42/68
s 5
f 23/33/69 28/43/70 24/34/71
f 24/34/71 28/43/70 26/44/72
s 6
f 25/38/73 26/44/74 27/39/75
f 27/39/75 26/44/74 28/43/76
s 7
f 19/45/77 29/46/78 20/48/79
f 20/48/79 29/46/78 30/47/80
s 8
f 20/49/81 30/50/82 21/52/83
f 21/52/83 30/50/82 31/51/84
s 9
f 29/46/85 32/53/86 30/47/87
f 30/47/87 32/53/86 31/54/88
s 10
f 18/55/89 32/56/90 19/58/91
f 19/58/91 32/56/90 29/57/92
s 11
f 18/59/93 21/60/94 32/53/95
f 32/53/95 21/60/94 31/54/96
g default
v 4.736809 4.416597 18.481440
v 6.393734 4.416597 18.481440
v 5.364775 5.084893 18.181077
v 5.742718 5.084893 18.181077
v 5.364775 5.084893 17.877612
v 5.742718 5.084893 17.877612
v 4.736809 4.416597 17.564423
v 6.393734 4.416597 17.564423
vt 0.375000 0.000000
vt 0.625000 0.000000
vt 0.375000 0.250000
vt 0.625000 0.250000
vt 0.375000 0.500000
vt 0.625000 0.500000
vt 0.375000 0.750000
vt 0.625000 0.750000
vt 0.375000 1.000000
vt 0.625000 1.000000
vt 0.875000 0.000000
vt 0.875000 0.250000
vt 0.125000 0.000000
vt 0.125000 0.250000
vn 0.000000 0.409944 0.912111
vn 0.000000 0.409944 0.912111
vn 0.000000 0.409944 0.912111
vn 0.000000 0.409944 0.912111
vn 0.000000 1.000000 0.000000
vn 0.000000 1.000000 0.000000
vn 0.000000 1.000000 0.000000
vn 0.000000 1.000000 0.000000
vn 0.000000 0.424351 -0.905498
vn 0.000000 0.424351 -0.905498
vn 0.000000 0.424351 -0.905498
vn 0.000000 0.424351 -0.905498
vn 0.000000 -1.000000 0.000000
vn 0.000000 -1.000000 0.000000
vn 0.000000 -1.000000 0.000000
vn 0.000000 -1.000000 0.000000
vn 0.716307 0.697785 0.000000
vn 0.716307 0.697785 0.000000
vn 0.716307 0.697785 0.000000
vn 0.716307 0.697785 0.000000
vn -0.728754 0.684775 0.000000
vn -0.728754 0.684776 0.000000
vn -0.728754 0.684775 0.000000
vn -0.728754 0.684776 0.000000
s 1
g oak_lab:oak_lab16:oak_lab14:oak_lab13:oak_lab12:oak_lab10:pCube41 oak_lab:oak_lab16:oak_lab14:oak_lab13:oak_lab12:group10 oak_lab:oak_lab16:oak_lab14:oak_lab13:group12 oak_lab:oak_lab16:oak_lab14:group13 oak_lab:oak_lab16:group14 oak_lab:group16
usemtl oak_lab:oak_lab14:oak_lab13:oak_lab12:oak_lab10:lambert1SG
f 34/62/97 36/64/98 33/61/99
f 33/61/99 36/64/98 35/63/100
s 2
f 35/63/101 36/64/102 37/65/103
f 37/65/103 36/64/102 38/66/104
s 3
f 37/65/105 38/66/106 39/67/107
f 39/67/107 38/66/106 40/68/108
s 4
f 39/67/109 40/68/110 33/69/111
f 33/69/111 40/68/110 34/70/112
s 5
f 40/71/113 38/72/114 34/62/115
f 34/62/115 38/72/114 36/64/116
s 6
f 39/73/117 33/61/118 37/74/119
f 37/74/119 33/61/118 35/63/120
g default
v 7.312403 4.401224 19.408526
v 8.476607 4.401224 19.408526
v 7.312403 6.533809 19.408526
v 8.476607 6.533809 19.408526
v 7.312403 6.533809 17.638255
v 8.476607 6.533809 17.638255
v 7.312403 4.401224 17.638255
v 8.476607 4.401224 17.638255
vt 0.375000 0.000000
vt 0.625000 0.000000
vt 0.375000 0.250000
vt 0.625000 0.250000
vt 0.375000 0.500000
vt 0.625000 0.500000
vt 0.375000 0.750000
vt 0.625000 0.750000
vt 0.375000 1.000000
vt 0.625000 1.000000
vt 0.875000 0.000000
vt 0.875000 0.250000
vt 0.125000 0.000000
vt 0.125000 0.250000
vt 0.059114 0.000000
vt 0.940887 0.000000
vt 0.940887 1.000000
vt 0.059114 1.000000
vn 0.000000 0.000000 1.000000
vn 0.000000 0.000000 1.000000
vn 0.000000 0.000000 1.000000
vn 0.000000 0.000000 1.000000
vn 0.000000 1.000000 0.000000
vn 0.000000 1.000000 0.000000
vn 0.000000 1.000000 0.000000
vn 0.000000 1.000000 0.000000
vn 0.000000 0.000000 -1.000000
vn 0.000000 0.000000 -1.000000
vn 0.000000 0.000000 -1.000000
vn 0.000000 0.000000 -1.000000
vn 0.000000 -1.000000 0.000000
vn 0.000000 -1.000000 0.000000
vn 0.000000 -1.000000 0.000000
vn 0.000000 -1.000000 0.000000
vn 1.000000 0.000000 0.000000
vn 1.000000 0.000000 0.000000
vn 1.000000 0.000000 0.000000
vn 1.000000 0.000000 0.000000
vn -1.000000 0.000000 0.000000
vn -1.000000 0.000000 0.000000
vn -1.000000 0.000000 0.000000
vn -1.000000 0.000000 0.000000
s 1
g oak_lab:oak_lab10:pCube41 oak_lab:group10
f 41/89/121 42/90/122 43/92/123
f 43/92/123 42/90/122 44/91/124
s 2
f 43/77/125 44/78/126 45/79/127
f 45/79/127 44/78/126 46/80/128
s 3
f 45/79/129 46/80/130 47/81/131
f 47/81/131 46/80/130 48/82/132
s 4
f 47/81/133 48/82/134 41/83/135
f 41/83/135 48/82/134 42/84/136
s 5
f 42/76/137 48/85/138 44/78/139
f 44/78/139 48/85/138 46/86/140
s 6
f 47/87/141 41/75/142 45/88/143
f 45/88/143 41/75/142 43/77/144
g default
v 4.647181 4.971150 18.268612
v 6.460312 4.971150 18.268612
v 4.647181 6.445519 18.268612
v 6.460312 6.445519 18.268612
v 4.647181 6.445519 18.080505
v 6.460312 6.445519 18.080505
v 4.647181 4.971150 18.080505
v 6.460312 4.971150 18.080505
vt 0.000000 0.000000
vt 1.000000 0.000000
vt 1.000000 1.000000
vt 0.000000 1.000000
vt 1.000000 1.000000
vt 0.000000 1.000000
vt 1.000000 0.000000
vt 0.000000 0.000000
vn 0.000000 0.000000 1.000000
vn 0.000000 0.000000 1.000000
vn 0.000000 0.000000 1.000000
vn 0.000000 0.000000 1.000000
vn 0.000000 1.000000 0.000000
vn 0.000000 1.000000 0.000000
vn 0.000000 1.000000 0.000000
vn 0.000000 1.000000 0.000000
vn 0.000000 0.000000 -1.000000
vn 0.000000 0.000000 -1.000000
vn 0.000000 0.000000 -1.000000
vn 0.000000 0.000000 -1.000000
vn 0.000000 -1.000000 0.000000
vn 0.000000 -1.000000 0.000000
vn 0.000000 -1.000000 0.000000
vn 0.000000 -1.000000 0.000000
vn 1.000000 0.000000 0.000000
vn 1.000000 0.000000 0.000000
vn 1.000000 0.000000 0.000000
vn 1.000000 0.000000 0.000000
vn -1.000000 0.000000 0.000000
vn -1.000000 0.000000 0.000000
vn -1.000000 0.000000 0.000000
vn -1.000000 0.000000 0.000000
s 1
g oak_lab:oak_lab14:oak_lab13:oak_lab12:oak_lab10:pCube41 oak_lab:oak_lab14:oak_lab13:oak_lab12:group10 oak_lab:oak_lab14:oak_lab13:group12 oak_lab:oak_lab14:group13 oak_lab:group14
f 49/93/145 50/94/146 51/96/147
f 51/96/147 50/94/146 52/95/148
s 2
f 51/96/149 52/95/150 53/98/151
f 53/98/151 52/95/150 54/97/152
s 3
f 53/98/153 54/97/154 55/100/155
f 55/100/155 54/97/154 56/99/156
s 4
f 55/100/157 56/99/158 49/93/159
f 49/93/159 56/99/158 50/94/160
s 5
f 50/94/161 56/99/162 52/95/163
f 52/95/163 56/99/162 54/97/164
s 6
f 55/100/165 49/93/166 53/98/167
f 53/98/167 49/93/166 51/96/168
g default
v 4.401310 4.838861 18.320587
v 4.647181 4.971150 18.320587
v 4.647181 6.445519 18.320587
v 6.460312 6.445519 18.320587
v 6.460312 4.971150 18.320587
v 6.706183 4.838861 18.320587
v 6.706183 6.577808 18.320587
v 4.401310 6.577808 18.320587
v 4.401310 4.838861 17.671066
v 4.401310 6.577808 17.671066
v 6.706183 4.838861 17.671066
v 6.706183 6.577808 17.671066
v 4.647181 6.445519 18.114632
v 6.460312 6.445519 18.114632
v 6.460312 4.971150 18.114632
v 4.647181 4.971150 18.114632
vt 0.375000 0.000000
vt 0.401669 0.019019
vt 0.401669 0.230981
vt 0.598331 0.230981
vt 0.598331 0.019019
vt 0.625000 0.000000
vt 0.625000 0.250000
vt 0.375000 0.250000
vt 0.125000 0.250000
vt 0.125000 0.000000
vt 0.375000 1.000000
vt 0.375000 0.750000
vt 0.625000 0.750000
vt 0.625000 1.000000
vt 0.875000 0.000000
vt 0.875000 0.250000
vt 0.625000 0.500000
vt 0.375000 0.500000
vt 0.375000 0.364592
vt 0.375000 0.500000
vt 0.625000 0.500000
vt 0.625000 0.364592
vt 0.739592 0.250000
vt 0.875000 0.250000
vt 0.875000 0.000000
vt 0.739592 0.000000
vt 0.375000 0.750000
vt 0.625000 0.750000
vt 0.260408 0.000000
vt 0.125000 0.000000
vt 0.125000 0.250000
vt 0.260408 0.250000
vt 0.375000 0.885408
vt 0.625000 0.885408
vn 0.000000 0.000000 1.000000
vn 0.000001 0.000000 1.000000
vn 0.000000 0.000000 1.000000
vn 0.000000 0.000000 1.000000
vn 0.000000 0.000000 1.000000
vn 0.000000 0.000000 1.000000
vn 0.000001 0.000000 1.000000
vn 0.000000 0.000000 1.000000
vn -1.000000 0.000000 0.000000
vn -1.000000 0.000000 0.000000
vn -1.000000 0.000000 0.000000
vn -1.000000 0.000000 0.000000
vn 0.000000 -1.000000 0.000000
vn 0.000000 -1.000000 0.000000
vn 0.000000 -1.000000 0.000000
vn 0.000000 -1.000000 0.000000
vn 1.000000 0.000000 0.000000
vn 1.000000 0.000000 0.000000
vn 1.000000 0.000000 0.000000
vn 1.000000 0.000000 0.000000
vn 0.000000 1.000000 0.000000
vn 0.000000 1.000000 0.000000
vn 0.000000 1.000000 0.000000
vn 0.000000 1.000000 0.000000
vn 0.000000 0.000000 -1.000000
vn 0.000000 0.000000 -1.000000
vn 0.000000 0.000000 -1.000000
vn 0.000000 0.000000 -1.000000
vn 0.000000 -1.000000 0.000000
vn 0.000000 -1.000000 0.000000
vn 0.000000 -1.000000 0.000000
vn 0.000000 -1.000000 0.000000
vn -1.000000 0.000000 0.000000
vn -1.000000 0.000000 0.000000
vn -1.000000 0.000000 0.000000
vn -1.000000 0.000000 0.000000
vn 0.000000 0.000000 1.000000
vn 0.000000 0.000000 1.000000
vn 0.000000 0.000000 1.000000
vn 0.000000 0.000000 1.000000
vn 1.000000 0.000000 0.000000
vn 1.000000 0.000000 0.000000
vn 1.000000 0.000000 0.000000
vn 1.000000 0.000000 0.000000
vn 0.000000 1.000000 0.000000
vn 0.000000 1.000000 0.000000
vn 0.000000 1.000000 0.000000
vn 0.000000 1.000000 0.000000
s 1
g oak_lab:polySurface10
f 57/101/169 62/106/170 58/102/171
f 58/102/171 62/106/170 61/105/172
f 57/101/169 58/102/171 64/108/173
f 58/102/171 59/103/174 64/108/173
f 64/108/173 59/103/174 63/107/175
f 59/103/174 60/104/176 63/107/175
f 62/106/170 63/107/175 61/105/172
f 60/104/176 61/105/172 63/107/175
s 2
f 57/101/177 64/108/178 65/110/179
f 65/110/179 64/108/178 66/109/180
s 3
f 57/111/181 65/112/182 62/114/183
f 62/114/183 65/112/182 67/113/184
s 4
f 62/106/185 67/115/186 63/107/187
f 63/107/187 67/115/186 68/116/188
s 5
f 63/107/189 68/117/190 64/108/191
f 64/108/191 68/117/190 66/118/192
s 6
f 65/112/193 66/118/194 67/113/195
f 67/113/195 66/118/194 68/117/196
s 7
f 59/119/197 69/120/198 60/122/199
f 60/122/199 69/120/198 70/121/200
s 8
f 60/123/201 70/124/202 61/126/203
f 61/126/203 70/124/202 71/125/204
s 9
f 69/120/205 72/127/206 70/121/207
f 70/121/207 72/127/206 71/128/208
s 10
f 58/129/209 72/130/210 59/132/211
f 59/132/211 72/130/210 69/131/212
s 11
f 58/133/213 61/134/214 72/127/215
f 72/127/215 61/134/214 71/128/216
g default
v 4.736809 4.416597 18.481440
v 6.393734 4.416597 18.481440
v 5.364775 5.084893 18.181077
v 5.742718 5.084893 18.181077
v 5.364775 5.084893 17.877612
v 5.742718 5.084893 17.877612
v 4.736809 4.416597 17.564423
v 6.393734 4.416597 17.564423
vt 0.375000 0.000000
vt 0.625000 0.000000
vt 0.375000 0.250000
vt 0.625000 0.250000
vt 0.375000 0.500000
vt 0.625000 0.500000
vt 0.375000 0.750000
vt 0.625000 0.750000
vt 0.375000 1.000000
vt 0.625000 1.000000
vt 0.875000 0.000000
vt 0.875000 0.250000
vt 0.125000 0.000000
vt 0.125000 0.250000
vn 0.000000 0.409944 0.912111
vn 0.000000 0.409944 0.912111
vn 0.000000 0.409944 0.912111
vn 0.000000 0.409944 0.912111
vn 0.000000 1.000000 0.000000
vn 0.000000 1.000000 0.000000
vn 0.000000 1.000000 0.000000
vn 0.000000 1.000000 0.000000
vn 0.000000 0.424351 -0.905498
vn 0.000000 0.424351 -0.905498
vn 0.000000 0.424351 -0.905498
vn 0.000000 0.424351 -0.905498
vn 0.000000 -1.000000 0.000000
vn 0.000000 -1.000000 0.000000
vn 0.000000 -1.000000 0.000000
vn 0.000000 -1.000000 0.000000
vn 0.716307 0.697785 0.000000
vn 0.716307 0.697785 0.000000
vn 0.716307 0.697785 0.000000
vn 0.716307 0.697785 0.000000
vn -0.728754 0.684775 0.000000
vn -0.728754 0.684776 0.000000
vn -0.728754 0.684775 0.000000
vn -0.728754 0.684776 0.000000
s 1
g oak_lab:oak_lab16:oak_lab14:oak_lab13:oak_lab12:oak_lab10:pCube41 oak_lab:oak_lab16:oak_lab14:oak_lab13:oak_lab12:group10 oak_lab:oak_lab16:oak_lab14:oak_lab13:group12 oak_lab:oak_lab16:oak_lab14:group13 oak_lab:oak_lab16:group14 oak_lab:group16
f 74/136/217 76/138/218 73/135/219
f 73/135/219 76/138/218 75/137/220
s 2
f 75/137/221 76/138/222 77/139/223
f 77/139/223 76/138/222 78/140/224
s 3
f 77/139/225 78/140/226 79/141/227
f 79/141/227 78/140/226 80/142/228
s 4
f 79/141/229 80/142/230 73/143/231
f 73/143/231 80/142/230 74/144/232
s 5
f 80/145/233 78/146/234 74/136/235
f 74/136/235 78/146/234 76/138/236
s 6
f 79/147/237 73/135/238 77/148/239
f 77/148/239 73/135/238 75/137/240
