# This file uses centimeters as units for non-parametric coordinates.

mtllib V3.mtl
g default
v 35.460388 2.972616 15.910600
v 39.493790 2.972616 15.910600
v 35.460388 5.991046 15.910600
v 39.493790 5.991046 15.910600
v 35.460388 5.991046 15.263650
v 39.493790 5.991046 15.263650
v 35.460388 2.972616 15.263650
v 39.493790 2.972616 15.263650
v 36.375706 9.847318 15.192968
v 36.261951 10.070571 15.192968
v 36.084778 10.247746 15.192968
v 35.861523 10.361499 15.192968
v 35.614044 10.400696 15.192968
v 35.366566 10.361499 15.192968
v 35.143314 10.247746 15.192968
v 34.966137 10.070571 15.192968
v 34.852383 9.847318 15.192968
v 34.813187 9.599839 15.192968
v 34.852383 9.352361 15.192968
v 34.966137 9.129107 15.192968
v 35.143314 8.951933 15.192968
v 35.366566 8.838180 15.192968
v 35.614044 8.798983 15.192968
v 35.861523 8.838180 15.192968
v 36.084774 8.951933 15.192968
v 36.261951 9.129107 15.192968
v 36.375702 9.352361 15.192968
v 36.414902 9.599839 15.192968
v 36.375706 9.847318 15.962746
v 36.261951 10.070571 15.962746
v 36.084778 10.247746 15.962746
v 35.861523 10.361499 15.962746
v 35.614044 10.400696 15.962746
v 35.366566 10.361499 15.962746
v 35.143314 10.247746 15.962746
v 34.966137 10.070571 15.962746
v 34.852383 9.847318 15.962746
v 34.813187 9.599839 15.962746
v 34.852383 9.352361 15.962746
v 34.966137 9.129107 15.962746
v 35.143314 8.951933 15.962746
v 35.366566 8.838180 15.962746
v 35.614044 8.798983 15.962746
v 35.861523 8.838180 15.962746
v 36.084774 8.951933 15.962746
v 36.261951 9.129107 15.962746
v 36.375702 9.352361 15.962746
v 36.414902 9.599839 15.962746
v 35.614044 9.599839 15.192968
v 35.614044 9.599839 15.962746
v 40.276413 9.847318 15.192968
v 40.162659 10.070571 15.192968
v 39.985485 10.247746 15.192968
v 39.762230 10.361499 15.192968
v 39.514751 10.400696 15.192968
v 39.267273 10.361499 15.192968
v 39.044022 10.247746 15.192968
v 38.866844 10.070571 15.192968
v 38.753090 9.847318 15.192968
v 38.713894 9.599839 15.192968
v 38.753090 9.352361 15.192968
v 38.866844 9.129107 15.192968
v 39.044022 8.951933 15.192968
v 39.267273 8.838180 15.192968
v 39.514751 8.798983 15.192968
v 39.762230 8.838180 15.192968
v 39.985481 8.951933 15.192968
v 40.162659 9.129107 15.192968
v 40.276409 9.352361 15.192968
v 40.315609 9.599839 15.192968
v 40.276413 9.847318 15.962746
v 40.162659 10.070571 15.962746
v 39.985485 10.247746 15.962746
v 39.762230 10.361499 15.962746
v 39.514751 10.400696 15.962746
v 39.267273 10.361499 15.962746
v 39.044022 10.247746 15.962746
v 38.866844 10.070571 15.962746
v 38.753090 9.847318 15.962746
v 38.713894 9.599839 15.962746
v 38.753090 9.352361 15.962746
v 38.866844 9.129107 15.962746
v 39.044022 8.951933 15.962746
v 39.267273 8.838180 15.962746
v 39.514751 8.798983 15.962746
v 39.762230 8.838180 15.962746
v 39.985481 8.951933 15.962746
v 40.162659 9.129107 15.962746
v 40.276409 9.352361 15.962746
v 40.315609 9.599839 15.962746
v 39.514751 9.599839 15.192968
v 39.514751 9.599839 15.962746
v 31.361206 4.674835 15.172850
v 31.247454 4.898088 15.172850
v 31.070278 5.075263 15.172850
v 30.847025 5.189016 15.172850
v 30.599546 5.228213 15.172850
v 30.352068 5.189016 15.172850
v 30.128815 5.075263 15.172850
v 29.951639 4.898088 15.172850
v 29.837887 4.674834 15.172850
v 29.798691 4.427356 15.172850
v 29.837887 4.179878 15.172850
v 29.951639 3.956625 15.172850
v 30.128815 3.779450 15.172850
v 30.352068 3.665697 15.172850
v 30.599546 3.626500 15.172850
v 30.847025 3.665697 15.172850
v 31.070278 3.779450 15.172850
v 31.247452 3.956625 15.172850
v 31.361206 4.179878 15.172850
v 31.400402 4.427356 15.172850
v 31.361206 4.674835 15.942627
v 31.247454 4.898088 15.942627
v 31.070278 5.075263 15.942627
v 30.847025 5.189016 15.942627
v 30.599546 5.228213 15.942627
v 30.352068 5.189016 15.942627
v 30.128815 5.075263 15.942627
v 29.951639 4.898088 15.942627
v 29.837887 4.674834 15.942627
v 29.798691 4.427356 15.942627
v 29.837887 4.179878 15.942627
v 29.951639 3.956625 15.942627
v 30.128815 3.779450 15.942627
v 30.352068 3.665697 15.942627
v 30.599546 3.626500 15.942627
v 30.847025 3.665697 15.942627
v 31.070278 3.779450 15.942627
v 31.247452 3.956625 15.942627
v 31.361206 4.179878 15.942627
v 31.400402 4.427356 15.942627
v 30.599546 4.427356 15.172850
v 30.599546 4.427356 15.942627
v 25.960581 9.847318 15.192968
v 25.846828 10.070571 15.192968
v 25.669653 10.247746 15.192968
v 25.446400 10.361499 15.192968
v 25.198921 10.400696 15.192968
v 24.951443 10.361499 15.192968
v 24.728189 10.247746 15.192968
v 24.551014 10.070571 15.192968
v 24.437262 9.847318 15.192968
v 24.398066 9.599839 15.192968
v 24.437262 9.352361 15.192968
v 24.551014 9.129107 15.192968
v 24.728189 8.951933 15.192968
v 24.951443 8.838180 15.192968
v 25.198921 8.798983 15.192968
v 25.446400 8.838180 15.192968
v 25.669653 8.951933 15.192968
v 25.846828 9.129107 15.192968
v 25.960581 9.352361 15.192968
v 25.999777 9.599839 15.192968
v 25.960581 9.847318 15.962746
v 25.846828 10.070571 15.962746
v 25.669653 10.247746 15.962746
v 25.446400 10.361499 15.962746
v 25.198921 10.400696 15.962746
v 24.951443 10.361499 15.962746
v 24.728189 10.247746 15.962746
v 24.551014 10.070571 15.962746
v 24.437262 9.847318 15.962746
v 24.398066 9.599839 15.962746
v 24.437262 9.352361 15.962746
v 24.551014 9.129107 15.962746
v 24.728189 8.951933 15.962746
v 24.951443 8.838180 15.962746
v 25.198921 8.798983 15.962746
v 25.446400 8.838180 15.962746
v 25.669653 8.951933 15.962746
v 25.846828 9.129107 15.962746
v 25.960581 9.352361 15.962746
v 25.999777 9.599839 15.962746
v 25.198921 9.599839 15.192968
v 25.198921 9.599839 15.962746
v 21.152920 2.972616 15.910600
v 25.186321 2.972616 15.910600
v 21.152920 5.991046 15.910600
v 25.186321 5.991046 15.910600
v 21.152920 5.991046 15.263650
v 25.186321 5.991046 15.263650
v 21.152920 2.972616 15.263650
v 25.186321 2.972616 15.263650
v 32.733208 8.009367 -15.485715
v 35.533470 8.009367 -15.485715
v 32.733208 10.414352 -15.485715
v 35.533470 10.414352 -15.485715
v 32.733208 10.414352 -15.595319
v 35.533470 10.414352 -15.595319
v 32.733208 8.009367 -15.595319
v 35.533470 8.009367 -15.595319
v 32.733208 5.041683 -15.485715
v 35.533470 5.041683 -15.485715
v 32.733208 7.704668 -15.485715
v 35.533470 7.704668 -15.485715
v 32.733208 7.704668 -15.595319
v 35.533470 7.704668 -15.595319
v 32.733208 5.041683 -15.595319
v 35.533470 5.041683 -15.595319
vt 0.375000 0.000000
vt 0.625000 0.000000
vt 0.375000 0.250000
vt 0.625000 0.250000
vt 0.375000 0.500000
vt 0.625000 0.500000
vt 0.375000 0.750000
vt 0.625000 0.750000
vt 0.375000 1.000000
vt 0.625000 1.000000
vt 0.875000 0.000000
vt 0.875000 0.250000
vt 0.125000 0.000000
vt 0.125000 0.250000
vt 0.375000 0.312500
vt 0.387500 0.312500
vt 0.387500 0.687500
vt 0.375000 0.687500
vt 0.400000 0.312500
vt 0.400000 0.687500
vt 0.412500 0.312500
vt 0.412500 0.687500
vt 0.425000 0.312500
vt 0.425000 0.687500
vt 0.437500 0.312500
vt 0.437500 0.687500
vt 0.450000 0.312500
vt 0.450000 0.687500
vt 0.462500 0.312500
vt 0.462500 0.687500
vt 0.475000 0.312500
vt 0.475000 0.687500
vt 0.487500 0.312500
vt 0.487500 0.687500
vt 0.500000 0.312500
vt 0.500000 0.687500
vt 0.512500 0.312500
vt 0.512500 0.687500
vt 0.525000 0.312500
vt 0.525000 0.687500
vt 0.537500 0.312500
vt 0.537500 0.687500
vt 0.550000 0.312500
vt 0.550000 0.687500
vt 0.562500 0.312500
vt 0.562500 0.687500
vt 0.575000 0.312500
vt 0.575000 0.687500
vt 0.587500 0.312500
vt 0.587500 0.687500
vt 0.600000 0.312500
vt 0.600000 0.687500
vt 0.612500 0.312500
vt 0.612500 0.687500
vt 0.625000 0.312500
vt 0.625000 0.687500
vt 0.626409 0.064408
vt 0.648603 0.107966
vt 0.500000 0.156250
vt 0.591842 0.029841
vt 0.548284 0.007647
vt 0.500000 -0.000000
vt 0.451716 0.007647
vt 0.408159 0.029841
vt 0.373591 0.064409
vt 0.351397 0.107966
vt 0.343750 0.156250
vt 0.351397 0.204534
vt 0.373591 0.248091
vt 0.408159 0.282659
vt 0.451716 0.304853
vt 0.500000 0.312500
vt 0.548284 0.304853
vt 0.591841 0.282659
vt 0.626409 0.248091
vt 0.648603 0.204534
vt 0.656250 0.156250
vt 0.648603 0.892034
vt 0.626409 0.935591
vt 0.500000 0.843750
vt 0.591841 0.970159
vt 0.548284 0.992353
vt 0.500000 1.000000
vt 0.451716 0.992353
vt 0.408159 0.970159
vt 0.373591 0.935591
vt 0.351397 0.892034
vt 0.343750 0.843750
vt 0.351397 0.795466
vt 0.373591 0.751909
vt 0.408159 0.717341
vt 0.451716 0.695147
vt 0.500000 0.687500
vt 0.548284 0.695147
vt 0.591842 0.717341
vt 0.626409 0.751908
vt 0.648603 0.795466
vt 0.656250 0.843750
vt 0.375000 0.312500
vt 0.387500 0.312500
vt 0.387500 0.687500
vt 0.375000 0.687500
vt 0.400000 0.312500
vt 0.400000 0.687500
vt 0.412500 0.312500
vt 0.412500 0.687500
vt 0.425000 0.312500
vt 0.425000 0.687500
vt 0.437500 0.312500
vt 0.437500 0.687500
vt 0.450000 0.312500
vt 0.450000 0.687500
vt 0.462500 0.312500
vt 0.462500 0.687500
vt 0.475000 0.312500
vt 0.475000 0.687500
vt 0.487500 0.312500
vt 0.487500 0.687500
vt 0.500000 0.312500
vt 0.500000 0.687500
vt 0.512500 0.312500
vt 0.512500 0.687500
vt 0.525000 0.312500
vt 0.525000 0.687500
vt 0.537500 0.312500
vt 0.537500 0.687500
vt 0.550000 0.312500
vt 0.550000 0.687500
vt 0.562500 0.312500
vt 0.562500 0.687500
vt 0.575000 0.312500
vt 0.575000 0.687500
vt 0.587500 0.312500
vt 0.587500 0.687500
vt 0.600000 0.312500
vt 0.600000 0.687500
vt 0.612500 0.312500
vt 0.612500 0.687500
vt 0.625000 0.312500
vt 0.625000 0.687500
vt 0.626409 0.064408
vt 0.648603 0.107966
vt 0.500000 0.156250
vt 0.591842 0.029841
vt 0.548284 0.007647
vt 0.500000 -0.000000
vt 0.451716 0.007647
vt 0.408159 0.029841
vt 0.373591 0.064409
vt 0.351397 0.107966
vt 0.343750 0.156250
vt 0.351397 0.204534
vt 0.373591 0.248091
vt 0.408159 0.282659
vt 0.451716 0.304853
vt 0.500000 0.312500
vt 0.548284 0.304853
vt 0.591841 0.282659
vt 0.626409 0.248091
vt 0.648603 0.204534
vt 0.656250 0.156250
vt 0.648603 0.892034
vt 0.626409 0.935591
vt 0.500000 0.843750
vt 0.591841 0.970159
vt 0.548284 0.992353
vt 0.500000 1.000000
vt 0.451716 0.992353
vt 0.408159 0.970159
vt 0.373591 0.935591
vt 0.351397 0.892034
vt 0.343750 0.843750
vt 0.351397 0.795466
vt 0.373591 0.751909
vt 0.408159 0.717341
vt 0.451716 0.695147
vt 0.500000 0.687500
vt 0.548284 0.695147
vt 0.591842 0.717341
vt 0.626409 0.751908
vt 0.648603 0.795466
vt 0.656250 0.843750
vt 0.375000 0.312500
vt 0.387500 0.312500
vt 0.387500 0.687500
vt 0.375000 0.687500
vt 0.400000 0.312500
vt 0.400000 0.687500
vt 0.412500 0.312500
vt 0.412500 0.687500
vt 0.425000 0.312500
vt 0.425000 0.687500
vt 0.437500 0.312500
vt 0.437500 0.687500
vt 0.450000 0.312500
vt 0.450000 0.687500
vt 0.462500 0.312500
vt 0.462500 0.687500
vt 0.475000 0.312500
vt 0.475000 0.687500
vt 0.487500 0.312500
vt 0.487500 0.687500
vt 0.500000 0.312500
vt 0.500000 0.687500
vt 0.512500 0.312500
vt 0.512500 0.687500
vt 0.525000 0.312500
vt 0.525000 0.687500
vt 0.537500 0.312500
vt 0.537500 0.687500
vt 0.550000 0.312500
vt 0.550000 0.687500
vt 0.562500 0.312500
vt 0.562500 0.687500
vt 0.575000 0.312500
vt 0.575000 0.687500
vt 0.587500 0.312500
vt 0.587500 0.687500
vt 0.600000 0.312500
vt 0.600000 0.687500
vt 0.612500 0.312500
vt 0.612500 0.687500
vt 0.625000 0.312500
vt 0.625000 0.687500
vt 0.626409 0.064408
vt 0.648603 0.107966
vt 0.500000 0.156250
vt 0.591842 0.029841
vt 0.548284 0.007647
vt 0.500000 -0.000000
vt 0.451716 0.007647
vt 0.408159 0.029841
vt 0.373591 0.064409
vt 0.351397 0.107966
vt 0.343750 0.156250
vt 0.351397 0.204534
vt 0.373591 0.248091
vt 0.408159 0.282659
vt 0.451716 0.304853
vt 0.500000 0.312500
vt 0.548284 0.304853
vt 0.591841 0.282659
vt 0.626409 0.248091
vt 0.648603 0.204534
vt 0.656250 0.156250
vt 0.648603 0.892034
vt 0.626409 0.935591
vt 0.500000 0.843750
vt 0.591841 0.970159
vt 0.548284 0.992353
vt 0.500000 1.000000
vt 0.451716 0.992353
vt 0.408159 0.970159
vt 0.373591 0.935591
vt 0.351397 0.892034
vt 0.343750 0.843750
vt 0.351397 0.795466
vt 0.373591 0.751909
vt 0.408159 0.717341
vt 0.451716 0.695147
vt 0.500000 0.687500
vt 0.548284 0.695147
vt 0.591842 0.717341
vt 0.626409 0.751908
vt 0.648603 0.795466
vt 0.656250 0.843750
vt 0.375000 0.312500
vt 0.387500 0.312500
vt 0.387500 0.687500
vt 0.375000 0.687500
vt 0.400000 0.312500
vt 0.400000 0.687500
vt 0.412500 0.312500
vt 0.412500 0.687500
vt 0.425000 0.312500
vt 0.425000 0.687500
vt 0.437500 0.312500
vt 0.437500 0.687500
vt 0.450000 0.312500
vt 0.450000 0.687500
vt 0.462500 0.312500
vt 0.462500 0.687500
vt 0.475000 0.312500
vt 0.475000 0.687500
vt 0.487500 0.312500
vt 0.487500 0.687500
vt 0.500000 0.312500
vt 0.500000 0.687500
vt 0.512500 0.312500
vt 0.512500 0.687500
vt 0.525000 0.312500
vt 0.525000 0.687500
vt 0.537500 0.312500
vt 0.537500 0.687500
vt 0.550000 0.312500
vt 0.550000 0.687500
vt 0.562500 0.312500
vt 0.562500 0.687500
vt 0.575000 0.312500
vt 0.575000 0.687500
vt 0.587500 0.312500
vt 0.587500 0.687500
vt 0.600000 0.312500
vt 0.600000 0.687500
vt 0.612500 0.312500
vt 0.612500 0.687500
vt 0.625000 0.312500
vt 0.625000 0.687500
vt 0.626409 0.064408
vt 0.648603 0.107966
vt 0.500000 0.156250
vt 0.591842 0.029841
vt 0.548284 0.007647
vt 0.500000 -0.000000
vt 0.451716 0.007647
vt 0.408159 0.029841
vt 0.373591 0.064409
vt 0.351397 0.107966
vt 0.343750 0.156250
vt 0.351397 0.204534
vt 0.373591 0.248091
vt 0.408159 0.282659
vt 0.451716 0.304853
vt 0.500000 0.312500
vt 0.548284 0.304853
vt 0.591841 0.282659
vt 0.626409 0.248091
vt 0.648603 0.204534
vt 0.656250 0.156250
vt 0.648603 0.892034
vt 0.626409 0.935591
vt 0.500000 0.843750
vt 0.591841 0.970159
vt 0.548284 0.992353
vt 0.500000 1.000000
vt 0.451716 0.992353
vt 0.408159 0.970159
vt 0.373591 0.935591
vt 0.351397 0.892034
vt 0.343750 0.843750
vt 0.351397 0.795466
vt 0.373591 0.751909
vt 0.408159 0.717341
vt 0.451716 0.695147
vt 0.500000 0.687500
vt 0.548284 0.695147
vt 0.591842 0.717341
vt 0.626409 0.751908
vt 0.648603 0.795466
vt 0.656250 0.843750
vt 0.375000 0.000000
vt 0.625000 0.000000
vt 0.625000 0.250000
vt 0.375000 0.250000
vt 0.625000 0.500000
vt 0.375000 0.500000
vt 0.625000 0.750000
vt 0.375000 0.750000
vt 0.625000 1.000000
vt 0.375000 1.000000
vt 0.875000 0.000000
vt 0.875000 0.250000
vt 0.125000 0.000000
vt 0.125000 0.250000
vt 0.375000 0.000000
vt 0.625000 0.000000
vt 0.625000 0.250000
vt 0.375000 0.250000
vt 0.625000 0.500000
vt 0.375000 0.500000
vt 0.625000 0.750000
vt 0.375000 0.750000
vt 0.625000 1.000000
vt 0.375000 1.000000
vt 0.875000 0.000000
vt 0.875000 0.250000
vt 0.125000 0.000000
vt 0.125000 0.250000
vt 0.375000 0.000000
vt 0.625000 0.000000
vt 0.625000 0.250000
vt 0.375000 0.250000
vt 0.625000 0.500000
vt 0.375000 0.500000
vt 0.625000 0.750000
vt 0.375000 0.750000
vt 0.625000 1.000000
vt 0.375000 1.000000
vt 0.875000 0.000000
vt 0.875000 0.250000
vt 0.125000 0.000000
vt 0.125000 0.250000
vn 0.000000 0.000000 1.000000
vn 0.000000 0.000000 1.000000
vn 0.000000 0.000000 1.000000
vn 0.000000 0.000000 1.000000
vn 0.000000 1.000000 0.000000
vn 0.000000 1.000000 0.000000
vn 0.000000 1.000000 0.000000
vn 0.000000 1.000000 0.000000
vn 0.000000 0.000000 -1.000000
vn 0.000000 0.000000 -1.000000
vn 0.000000 0.000000 -1.000000
vn 0.000000 0.000000 -1.000000
vn 0.000000 -1.000000 0.000000
vn 0.000000 -1.000000 0.000000
vn 0.000000 -1.000000 0.000000
vn 0.000000 -1.000000 0.000000
vn 1.000000 0.000000 0.000000
vn 1.000000 0.000000 0.000000
vn 1.000000 0.000000 0.000000
vn 1.000000 0.000000 0.000000
vn -1.000000 0.000000 0.000000
vn -1.000000 0.000000 0.000000
vn -1.000000 0.000000 0.000000
vn -1.000000 0.000000 0.000000
vn 0.951055 0.309022 0.000000
vn 0.809014 0.587790 0.000000
vn 0.951059 0.309009 0.000000
vn 0.809021 0.587780 0.000000
vn 0.587788 0.809015 0.000000
vn 0.587784 0.809018 0.000000
vn 0.309020 0.951056 0.000000
vn 0.309013 0.951058 0.000000
vn 0.000000 1.000000 0.000000
vn 0.000000 1.000000 0.000000
vn -0.309018 0.951056 0.000000
vn -0.309021 0.951055 0.000000
vn -0.587782 0.809019 0.000000
vn -0.587786 0.809017 0.000000
vn -0.809014 0.587790 0.000000
vn -0.809013 0.587790 0.000000
vn -0.951060 0.309008 0.000000
vn -0.951055 0.309023 0.000000
vn -1.000000 -0.000008 0.000000
vn -1.000000 0.000008 0.000000
vn -0.951055 -0.309022 0.000000
vn -0.951059 -0.309009 0.000000
vn -0.809014 -0.587790 0.000000
vn -0.809013 -0.587790 0.000000
vn -0.587786 -0.809017 0.000000
vn -0.587782 -0.809019 0.000000
vn -0.309021 -0.951055 0.000000
vn -0.309018 -0.951056 0.000000
vn 0.000000 -1.000000 0.000000
vn 0.000000 -1.000000 0.000000
vn 0.309018 -0.951056 0.000000
vn 0.309018 -0.951056 0.000000
vn 0.587786 -0.809017 0.000000
vn 0.587782 -0.809019 0.000000
vn 0.809022 -0.587778 0.000000
vn 0.809014 -0.587789 0.000000
vn 0.951059 -0.309010 0.000000
vn 0.951054 -0.309025 0.000000
vn 1.000000 0.000000 0.000000
vn 1.000000 -0.000008 0.000000
vn 0.000000 0.000000 -1.000000
vn 0.000000 0.000000 -1.000000
vn 0.000000 0.000000 -1.000000
vn 0.000000 0.000000 -1.000000
vn 0.000000 0.000000 -1.000000
vn 0.000000 0.000000 -1.000000
vn 0.000000 0.000000 -1.000000
vn 0.000000 0.000000 -1.000000
vn 0.000001 0.000000 -1.000000
vn 0.000001 0.000000 -1.000000
vn 0.000000 0.000000 -1.000000
vn 0.000000 0.000000 -1.000000
vn 0.000000 0.000000 -1.000000
vn 0.000000 0.000000 -1.000000
vn 0.000000 0.000000 -1.000000
vn 0.000000 0.000000 -1.000000
vn 0.000000 0.000000 -1.000000
vn 0.000000 0.000000 -1.000000
vn -0.000001 0.000000 -1.000000
vn -0.000001 0.000000 -1.000000
vn 0.000000 0.000000 -1.000000
vn 0.000001 0.000000 1.000000
vn -0.000001 0.000000 1.000000
vn 0.000000 0.000000 1.000000
vn 0.000002 0.000000 1.000000
vn -0.000000 0.000000 1.000000
vn 0.000000 0.000000 1.000000
vn 0.000000 0.000000 1.000000
vn -0.000005 0.000000 1.000000
vn -0.000002 0.000000 1.000000
vn -0.000002 0.000000 1.000000
vn 0.000000 0.000000 1.000000
vn -0.000001 0.000000 1.000000
vn 0.000001 0.000000 1.000000
vn -0.000002 0.000000 1.000000
vn 0.000000 0.000000 1.000000
vn 0.000000 0.000000 1.000000
vn -0.000000 0.000000 1.000000
vn 0.000005 0.000000 1.000000
vn 0.000002 0.000000 1.000000
vn 0.000002 0.000000 1.000000
vn 0.000000 0.000000 1.000000
vn 0.951056 0.309017 0.000000
vn 0.809018 0.587784 0.000000
vn 0.951056 0.309018 0.000000
vn 0.809018 0.587784 0.000000
vn 0.587781 0.809020 0.000000
vn 0.587785 0.809017 0.000000
vn 0.309010 0.951059 0.000000
vn 0.309022 0.951055 0.000000
vn -0.000000 1.000000 0.000000
vn 0.000000 1.000000 0.000000
vn -0.309020 0.951055 0.000000
vn -0.309016 0.951057 0.000000
vn -0.587786 0.809017 0.000000
vn -0.587782 0.809019 0.000000
vn -0.809017 0.587785 0.000000
vn -0.809013 0.587790 0.000000
vn -0.951057 0.309017 0.000000
vn -0.951056 0.309018 0.000000
vn -1.000000 0.000008 0.000000
vn -1.000000 -0.000008 0.000000
vn -0.951056 -0.309017 0.000000
vn -0.951056 -0.309018 0.000000
vn -0.809014 -0.587790 0.000000
vn -0.809017 -0.587785 0.000000
vn -0.587782 -0.809019 0.000000
vn -0.587786 -0.809017 0.000000
vn -0.309016 -0.951057 0.000000
vn -0.309020 -0.951055 0.000000
vn 0.000000 -1.000000 0.000000
vn -0.000000 -1.000000 0.000000
vn 0.309022 -0.951055 0.000000
vn 0.309015 -0.951057 0.000000
vn 0.587782 -0.809019 0.000000
vn 0.587786 -0.809017 0.000000
vn 0.809014 -0.587790 0.000000
vn 0.809017 -0.587785 0.000000
vn 0.951057 -0.309015 0.000000
vn 0.951057 -0.309016 0.000000
vn 1.000000 -0.000010 0.000000
vn 1.000000 -0.000002 0.000000
vn 0.000000 0.000000 -1.000000
vn 0.000000 0.000000 -1.000000
vn 0.000000 0.000000 -1.000000
vn 0.000000 0.000000 -1.000000
vn 0.000000 0.000000 -1.000000
vn 0.000000 0.000000 -1.000000
vn 0.000000 0.000000 -1.000000
vn 0.000000 0.000000 -1.000000
vn 0.000001 0.000000 -1.000000
vn 0.000001 0.000000 -1.000000
vn 0.000000 0.000000 -1.000000
vn 0.000000 0.000000 -1.000000
vn 0.000000 0.000000 -1.000000
vn 0.000000 0.000000 -1.000000
vn 0.000000 0.000000 -1.000000
vn 0.000000 0.000000 -1.000000
vn 0.000000 0.000000 -1.000000
vn 0.000000 0.000000 -1.000000
vn -0.000001 0.000000 -1.000000
vn -0.000001 0.000000 -1.000000
vn 0.000000 0.000000 -1.000000
vn 0.000001 0.000000 1.000000
vn -0.000001 0.000000 1.000000
vn 0.000000 0.000000 1.000000
vn 0.000002 0.000000 1.000000
vn -0.000000 0.000000 1.000000
vn 0.000000 0.000000 1.000000
vn 0.000000 0.000000 1.000000
vn -0.000005 0.000000 1.000000
vn -0.000002 0.000000 1.000000
vn -0.000002 0.000000 1.000000
vn 0.000000 0.000000 1.000000
vn -0.000001 0.000000 1.000000
vn 0.000001 0.000000 1.000000
vn -0.000002 0.000000 1.000000
vn 0.000000 0.000000 1.000000
vn 0.000000 0.000000 1.000000
vn -0.000000 0.000000 1.000000
vn 0.000005 0.000000 1.000000
vn 0.000002 0.000000 1.000000
vn 0.000002 0.000000 1.000000
vn 0.000000 0.000000 1.000000
vn 0.951059 0.309008 0.000000
vn 0.809018 0.587784 0.000000
vn 0.951057 0.309015 0.000000
vn 0.809017 0.587785 0.000000
vn 0.587788 0.809015 0.000000
vn 0.587784 0.809018 0.000000
vn 0.309016 0.951057 0.000000
vn 0.309016 0.951057 0.000000
vn 0.000000 1.000000 0.000000
vn 0.000000 1.000000 0.000000
vn -0.309016 0.951057 0.000000
vn -0.309016 0.951057 0.000000
vn -0.587784 0.809018 0.000000
vn -0.587788 0.809015 0.000000
vn -0.809018 0.587784 0.000000
vn -0.809018 0.587784 0.000000
vn -0.951057 0.309016 0.000000
vn -0.951059 0.309008 0.000000
vn -1.000000 0.000008 0.000000
vn -1.000000 -0.000008 0.000000
vn -0.951059 -0.309009 0.000000
vn -0.951057 -0.309016 0.000000
vn -0.809017 -0.587785 0.000000
vn -0.809018 -0.587784 0.000000
vn -0.587787 -0.809016 0.000000
vn -0.587784 -0.809018 0.000000
vn -0.309017 -0.951057 0.000000
vn -0.309017 -0.951057 0.000000
vn -0.000000 -1.000000 0.000000
vn -0.000000 -1.000000 0.000000
vn 0.309017 -0.951057 0.000000
vn 0.309017 -0.951057 0.000000
vn 0.587783 -0.809019 0.000000
vn 0.587791 -0.809013 0.000000
vn 0.809014 -0.587790 0.000000
vn 0.809022 -0.587779 0.000000
vn 0.951055 -0.309023 0.000000
vn 0.951059 -0.309008 0.000000
vn 1.000000 -0.000008 0.000000
vn 1.000000 0.000008 0.000000
vn 0.000000 0.000000 -1.000000
vn 0.000000 0.000000 -1.000000
vn -0.000001 0.000000 -1.000000
vn 0.000000 0.000000 -1.000000
vn 0.000000 0.000000 -1.000000
vn 0.000000 0.000000 -1.000000
vn 0.000000 0.000000 -1.000000
vn 0.000000 0.000000 -1.000000
vn -0.000001 0.000000 -1.000000
vn -0.000001 0.000000 -1.000000
vn 0.000000 0.000000 -1.000000
vn 0.000000 0.000000 -1.000000
vn -0.000005 0.000000 -1.000000
vn -0.000000 0.000000 -1.000000
vn 0.000000 0.000000 -1.000000
vn -0.000005 0.000000 -1.000000
vn -0.000005 0.000000 -1.000000
vn -0.000002 0.000000 -1.000000
vn 0.000002 0.000000 -1.000000
vn 0.000000 0.000000 -1.000000
vn 0.000000 0.000000 -1.000000
vn 0.000001 0.000000 1.000000
vn 0.000001 0.000000 1.000000
vn -0.000000 0.000000 1.000000
vn 0.000000 0.000000 1.000000
vn -0.000005 0.000000 1.000000
vn 0.000000 0.000000 1.000000
vn 0.000005 0.000000 1.000000
vn 0.000000 0.000000 1.000000
vn 0.000000 0.000000 1.000000
vn 0.000000 0.000000 1.000000
vn 0.000000 0.000000 1.000000
vn -0.000001 0.000000 1.000000
vn -0.000001 0.000000 1.000000
vn 0.000000 0.000000 1.000000
vn 0.000005 0.000000 1.000000
vn 0.000000 0.000000 1.000000
vn -0.000005 0.000000 1.000000
vn 0.000000 0.000000 1.000000
vn 0.000000 0.000000 1.000000
vn 0.000000 0.000000 1.000000
vn 0.000000 0.000000 1.000000
vn 0.951058 0.309013 0.000000
vn 0.809016 0.587786 0.000000
vn 0.951058 0.309014 0.000000
vn 0.809016 0.587787 0.000000
vn 0.587783 0.809019 0.000000
vn 0.587787 0.809016 0.000000
vn 0.309018 0.951056 0.000000
vn 0.309018 0.951056 0.000000
vn 0.000000 1.000000 0.000000
vn 0.000000 1.000000 0.000000
vn -0.309018 0.951056 0.000000
vn -0.309016 0.951057 0.000000
vn -0.587790 0.809014 0.000000
vn -0.587778 0.809022 0.000000
vn -0.809017 0.587786 0.000000
vn -0.809016 0.587786 0.000000
vn -0.951058 0.309013 0.000000
vn -0.951057 0.309014 0.000000
vn -1.000000 -0.000008 0.000000
vn -1.000000 0.000008 0.000000
vn -0.951058 -0.309013 0.000000
vn -0.951057 -0.309014 0.000000
vn -0.809016 -0.587786 0.000000
vn -0.809016 -0.587787 0.000000
vn -0.587778 -0.809022 0.000000
vn -0.587790 -0.809014 0.000000
vn -0.309016 -0.951057 0.000000
vn -0.309018 -0.951056 0.000000
vn 0.000000 -1.000000 0.000000
vn 0.000000 -1.000000 0.000000
vn 0.309018 -0.951056 0.000000
vn 0.309018 -0.951056 0.000000
vn 0.587787 -0.809016 0.000000
vn 0.587783 -0.809019 0.000000
vn 0.809017 -0.587786 0.000000
vn 0.809016 -0.587786 0.000000
vn 0.951058 -0.309013 0.000000
vn 0.951057 -0.309014 0.000000
vn 1.000000 0.000008 0.000000
vn 1.000000 -0.000008 0.000000
vn 0.000000 0.000000 -1.000000
vn 0.000000 0.000000 -1.000000
vn 0.000000 0.000000 -1.000000
vn 0.000000 0.000000 -1.000000
vn 0.000000 0.000000 -1.000000
vn 0.000000 0.000000 -1.000000
vn 0.000000 0.000000 -1.000000
vn 0.000000 0.000000 -1.000000
vn 0.000001 0.000000 -1.000000
vn 0.000001 0.000000 -1.000000
vn 0.000000 0.000000 -1.000000
vn 0.000000 0.000000 -1.000000
vn 0.000000 0.000000 -1.000000
vn 0.000000 0.000000 -1.000000
vn 0.000000 0.000000 -1.000000
vn 0.000000 0.000000 -1.000000
vn 0.000000 0.000000 -1.000000
vn 0.000000 0.000000 -1.000000
vn -0.000001 0.000000 -1.000000
vn -0.000001 0.000000 -1.000000
vn 0.000000 0.000000 -1.000000
vn 0.000001 0.000000 1.000000
vn -0.000001 0.000000 1.000000
vn -0.000000 0.000000 1.000000
vn 0.000002 0.000000 1.000000
vn -0.000000 0.000000 1.000000
vn 0.000000 0.000000 1.000000
vn 0.000000 0.000000 1.000000
vn -0.000005 0.000000 1.000000
vn -0.000002 0.000000 1.000000
vn -0.000002 0.000000 1.000000
vn 0.000000 0.000000 1.000000
vn -0.000001 0.000000 1.000000
vn 0.000001 0.000000 1.000000
vn -0.000002 0.000000 1.000000
vn -0.000000 0.000000 1.000000
vn 0.000000 0.000000 1.000000
vn -0.000000 0.000000 1.000000
vn 0.000005 0.000000 1.000000
vn 0.000002 0.000000 1.000000
vn 0.000002 0.000000 1.000000
vn 0.000000 0.000000 1.000000
vn 0.000000 0.000000 1.000000
vn 0.000000 0.000000 1.000000
vn 0.000000 0.000000 1.000000
vn 0.000000 0.000000 1.000000
vn 0.000000 1.000000 0.000000
vn 0.000000 1.000000 0.000000
vn 0.000000 1.000000 0.000000
vn 0.000000 1.000000 0.000000
vn 0.000000 0.000000 -1.000000
vn 0.000000 0.000000 -1.000000
vn 0.000000 0.000000 -1.000000
vn 0.000000 0.000000 -1.000000
vn 0.000000 -1.000000 0.000000
vn 0.000000 -1.000000 0.000000
vn 0.000000 -1.000000 0.000000
vn 0.000000 -1.000000 0.000000
vn 1.000000 0.000000 0.000000
vn 1.000000 0.000000 0.000000
vn 1.000000 0.000000 0.000000
vn 1.000000 0.000000 0.000000
vn -1.000000 0.000000 0.000000
vn -1.000000 0.000000 0.000000
vn -1.000000 0.000000 0.000000
vn -1.000000 0.000000 0.000000
vn 0.000000 0.000000 1.000000
vn 0.000000 0.000000 1.000000
vn 0.000000 0.000000 1.000000
vn 0.000000 0.000000 1.000000
vn 0.000000 1.000000 0.000000
vn 0.000000 1.000000 0.000000
vn 0.000000 1.000000 0.000000
vn 0.000000 1.000000 0.000000
vn 0.000000 0.000000 -1.000000
vn 0.000000 0.000000 -1.000000
vn 0.000000 0.000000 -1.000000
vn 0.000000 0.000000 -1.000000
vn 0.000000 -1.000000 0.000000
vn 0.000000 -1.000000 0.000000
vn 0.000000 -1.000000 0.000000
vn 0.000000 -1.000000 0.000000
vn 1.000000 0.000000 0.000000
vn 1.000000 0.000000 0.000000
vn 1.000000 0.000000 0.000000
vn 1.000000 0.000000 0.000000
vn -1.000000 0.000000 0.000000
vn -1.000000 0.000000 0.000000
vn -1.000000 0.000000 0.000000
vn -1.000000 0.000000 0.000000
vn 0.000000 0.000000 1.000000
vn 0.000000 0.000000 1.000000
vn 0.000000 0.000000 1.000000
vn 0.000000 0.000000 1.000000
vn 0.000000 1.000000 0.000000
vn 0.000000 1.000000 0.000000
vn 0.000000 1.000000 0.000000
vn 0.000000 1.000000 0.000000
vn 0.000000 0.000000 -1.000000
vn 0.000000 0.000000 -1.000000
vn 0.000000 0.000000 -1.000000
vn 0.000000 0.000000 -1.000000
vn 0.000000 -1.000000 0.000000
vn 0.000000 -1.000000 0.000000
vn 0.000000 -1.000000 0.000000
vn 0.000000 -1.000000 0.000000
vn 1.000000 0.000000 0.000000
vn 1.000000 0.000000 0.000000
vn 1.000000 0.000000 0.000000
vn 1.000000 0.000000 0.000000
vn -1.000000 0.000000 0.000000
vn -1.000000 0.000000 0.000000
vn -1.000000 0.000000 0.000000
vn -1.000000 0.000000 0.000000
s 1
g oak_lab:oak_lab8:pasted__pasted__pasted__pasted__pCube6
usemtl phong1SG
f 1/1/1 2/2/2 3/3/3
f 3/3/3 2/2/2 4/4/4
s 2
f 3/3/5 4/4/6 5/5/7
f 5/5/7 4/4/6 6/6/8
s 3
f 5/5/9 6/6/10 7/7/11
f 7/7/11 6/6/10 8/8/12
s 4
f 7/7/13 8/8/14 1/9/15
f 1/9/15 8/8/14 2/10/16
s 5
f 2/2/17 8/11/18 4/4/19
f 4/4/19 8/11/18 6/12/20
s 6
f 7/13/21 1/1/22 5/14/23
f 5/14/23 1/1/22 3/3/24
s 7
f 9/15/25 10/16/26 29/18/27
f 29/18/27 10/16/26 30/17/28
f 10/16/26 11/19/29 30/17/28
f 30/17/28 11/19/29 31/20/30
f 11/19/29 12/21/31 31/20/30
f 31/20/30 12/21/31 32/22/32
f 12/21/31 13/23/33 32/22/32
f 32/22/32 13/23/33 33/24/34
f 13/23/33 14/25/35 33/24/34
f 33/24/34 14/25/35 34/26/36
f 14/25/35 15/27/37 34/26/36
f 34/26/36 15/27/37 35/28/38
f 15/27/37 16/29/39 35/28/38
f 35/28/38 16/29/39 36/30/40
f 16/29/39 17/31/41 36/30/40
f 36/30/40 17/31/41 37/32/42
f 17/31/41 18/33/43 37/32/42
f 37/32/42 18/33/43 38/34/44
f 18/33/43 19/35/45 38/34/44
f 38/34/44 19/35/45 39/36/46
f 19/35/45 20/37/47 39/36/46
f 39/36/46 20/37/47 40/38/48
f 20/37/47 21/39/49 40/38/48
f 40/38/48 21/39/49 41/40/50
f 21/39/49 22/41/51 41/40/50
f 41/40/50 22/41/51 42/42/52
f 22/41/51 23/43/53 42/42/52
f 42/42/52 23/43/53 43/44/54
f 23/43/53 24/45/55 43/44/54
f 43/44/54 24/45/55 44/46/56
f 24/45/55 25/47/57 44/46/56
f 44/46/56 25/47/57 45/48/58
f 25/47/57 26/49/59 45/48/58
f 45/48/58 26/49/59 46/50/60
f 26/49/59 27/51/61 46/50/60
f 46/50/60 27/51/61 47/52/62
f 27/51/61 28/53/63 47/52/62
f 47/52/62 28/53/63 48/54/64
f 28/53/63 9/55/25 48/54/64
f 48/54/64 9/55/25 29/56/27
s 8
f 10/57/65 9/58/66 49/59/67
f 11/60/68 10/57/65 49/59/67
f 12/61/69 11/60/68 49/59/67
f 13/62/70 12/61/69 49/59/67
f 14/63/71 13/62/70 49/59/67
f 15/64/72 14/63/71 49/59/67
f 16/65/73 15/64/72 49/59/67
f 17/66/74 16/65/73 49/59/67
f 18/67/75 17/66/74 49/59/67
f 19/68/76 18/67/75 49/59/67
f 20/69/77 19/68/76 49/59/67
f 21/70/78 20/69/77 49/59/67
f 22/71/79 21/70/78 49/59/67
f 23/72/80 22/71/79 49/59/67
f 24/73/81 23/72/80 49/59/67
f 25/74/82 24/73/81 49/59/67
f 26/75/83 25/74/82 49/59/67
f 27/76/84 26/75/83 49/59/67
f 28/77/85 27/76/84 49/59/67
f 9/58/66 28/77/85 49/59/67
s 9
f 29/78/86 30/79/87 50/80/88
f 30/79/87 31/81/89 50/80/88
f 31/81/89 32/82/90 50/80/88
f 32/82/90 33/83/91 50/80/88
f 33/83/91 34/84/92 50/80/88
f 34/84/92 35/85/93 50/80/88
f 35/85/93 36/86/94 50/80/88
f 36/86/94 37/87/95 50/80/88
f 37/87/95 38/88/96 50/80/88
f 38/88/96 39/89/97 50/80/88
f 39/89/97 40/90/98 50/80/88
f 40/90/98 41/91/99 50/80/88
f 41/91/99 42/92/100 50/80/88
f 42/92/100 43/93/101 50/80/88
f 43/93/101 44/94/102 50/80/88
f 44/94/102 45/95/103 50/80/88
f 45/95/103 46/96/104 50/80/88
f 46/96/104 47/97/105 50/80/88
f 47/97/105 48/98/106 50/80/88
f 48/98/106 29/78/86 50/80/88
s 10
f 51/99/107 52/100/108 71/102/109
f 71/102/109 52/100/108 72/101/110
f 52/100/108 53/103/111 72/101/110
f 72/101/110 53/103/111 73/104/112
f 53/103/111 54/105/113 73/104/112
f 73/104/112 54/105/113 74/106/114
f 54/105/113 55/107/115 74/106/114
f 74/106/114 55/107/115 75/108/116
f 55/107/115 56/109/117 75/108/116
f 75/108/116 56/109/117 76/110/118
f 56/109/117 57/111/119 76/110/118
f 76/110/118 57/111/119 77/112/120
f 57/111/119 58/113/121 77/112/120
f 77/112/120 58/113/121 78/114/122
f 58/113/121 59/115/123 78/114/122
f 78/114/122 59/115/123 79/116/124
f 59/115/123 60/117/125 79/116/124
f 79/116/124 60/117/125 80/118/126
f 60/117/125 61/119/127 80/118/126
f 80/118/126 61/119/127 81/120/128
f 61/119/127 62/121/129 81/120/128
f 81/120/128 62/121/129 82/122/130
f 62/121/129 63/123/131 82/122/130
f 82/122/130 63/123/131 83/124/132
f 63/123/131 64/125/133 83/124/132
f 83/124/132 64/125/133 84/126/134
f 64/125/133 65/127/135 84/126/134
f 84/126/134 65/127/135 85/128/136
f 65/127/135 66/129/137 85/128/136
f 85/128/136 66/129/137 86/130/138
f 66/129/137 67/131/139 86/130/138
f 86/130/138 67/131/139 87/132/140
f 67/131/139 68/133/141 87/132/140
f 87/132/140 68/133/141 88/134/142
f 68/133/141 69/135/143 88/134/142
f 88/134/142 69/135/143 89/136/144
f 69/135/143 70/137/145 89/136/144
f 89/136/144 70/137/145 90/138/146
f 70/137/145 51/139/107 90/138/146
f 90/138/146 51/139/107 71/140/109
s 11
f 52/141/147 51/142/148 91/143/149
f 53/144/150 52/141/147 91/143/149
f 54/145/151 53/144/150 91/143/149
f 55/146/152 54/145/151 91/143/149
f 56/147/153 55/146/152 91/143/149
f 57/148/154 56/147/153 91/143/149
f 58/149/155 57/148/154 91/143/149
f 59/150/156 58/149/155 91/143/149
f 60/151/157 59/150/156 91/143/149
f 61/152/158 60/151/157 91/143/149
f 62/153/159 61/152/158 91/143/149
f 63/154/160 62/153/159 91/143/149
f 64/155/161 63/154/160 91/143/149
f 65/156/162 64/155/161 91/143/149
f 66/157/163 65/156/162 91/143/149
f 67/158/164 66/157/163 91/143/149
f 68/159/165 67/158/164 91/143/149
f 69/160/166 68/159/165 91/143/149
f 70/161/167 69/160/166 91/143/149
f 51/142/148 70/161/167 91/143/149
s 12
f 71/162/168 72/163/169 92/164/170
f 72/163/169 73/165/171 92/164/170
f 73/165/171 74/166/172 92/164/170
f 74/166/172 75/167/173 92/164/170
f 75/167/173 76/168/174 92/164/170
f 76/168/174 77/169/175 92/164/170
f 77/169/175 78/170/176 92/164/170
f 78/170/176 79/171/177 92/164/170
f 79/171/177 80/172/178 92/164/170
f 80/172/178 81/173/179 92/164/170
f 81/173/179 82/174/180 92/164/170
f 82/174/180 83/175/181 92/164/170
f 83/175/181 84/176/182 92/164/170
f 84/176/182 85/177/183 92/164/170
f 85/177/183 86/178/184 92/164/170
f 86/178/184 87/179/185 92/164/170
f 87/179/185 88/180/186 92/164/170
f 88/180/186 89/181/187 92/164/170
f 89/181/187 90/182/188 92/164/170
f 90/182/188 71/162/168 92/164/170
s 13
f 93/183/189 94/184/190 113/186/191
f 113/186/191 94/184/190 114/185/192
f 94/184/190 95/187/193 114/185/192
f 114/185/192 95/187/193 115/188/194
f 95/187/193 96/189/195 115/188/194
f 115/188/194 96/189/195 116/190/196
f 96/189/195 97/191/197 116/190/196
f 116/190/196 97/191/197 117/192/198
f 97/191/197 98/193/199 117/192/198
f 117/192/198 98/193/199 118/194/200
f 98/193/199 99/195/201 118/194/200
f 118/194/200 99/195/201 119/196/202
f 99/195/201 100/197/203 119/196/202
f 119/196/202 100/197/203 120/198/204
f 100/197/203 101/199/205 120/198/204
f 120/198/204 101/199/205 121/200/206
f 101/199/205 102/201/207 121/200/206
f 121/200/206 102/201/207 122/202/208
f 102/201/207 103/203/209 122/202/208
f 122/202/208 103/203/209 123/204/210
f 103/203/209 104/205/211 123/204/210
f 123/204/210 104/205/211 124/206/212
f 104/205/211 105/207/213 124/206/212
f 124/206/212 105/207/213 125/208/214
f 105/207/213 106/209/215 125/208/214
f 125/208/214 106/209/215 126/210/216
f 106/209/215 107/211/217 126/210/216
f 126/210/216 107/211/217 127/212/218
f 107/211/217 108/213/219 127/212/218
f 127/212/218 108/213/219 128/214/220
f 108/213/219 109/215/221 128/214/220
f 128/214/220 109/215/221 129/216/222
f 109/215/221 110/217/223 129/216/222
f 129/216/222 110/217/223 130/218/224
f 110/217/223 111/219/225 130/218/224
f 130/218/224 111/219/225 131/220/226
f 111/219/225 112/221/227 131/220/226
f 131/220/226 112/221/227 132/222/228
f 112/221/227 93/223/189 132/222/228
f 132/222/228 93/223/189 113/224/191
s 14
f 94/225/229 93/226/230 133/227/231
f 95/228/232 94/225/229 133/227/231
f 96/229/233 95/228/232 133/227/231
f 97/230/234 96/229/233 133/227/231
f 98/231/235 97/230/234 133/227/231
f 99/232/236 98/231/235 133/227/231
f 100/233/237 99/232/236 133/227/231
f 101/234/238 100/233/237 133/227/231
f 102/235/239 101/234/238 133/227/231
f 103/236/240 102/235/239 133/227/231
f 104/237/241 103/236/240 133/227/231
f 105/238/242 104/237/241 133/227/231
f 106/239/243 105/238/242 133/227/231
f 107/240/244 106/239/243 133/227/231
f 108/241/245 107/240/244 133/227/231
f 109/242/246 108/241/245 133/227/231
f 110/243/247 109/242/246 133/227/231
f 111/244/248 110/243/247 133/227/231
f 112/245/249 111/244/248 133/227/231
f 93/226/230 112/245/249 133/227/231
s 15
f 113/246/250 114/247/251 134/248/252
f 114/247/251 115/249/253 134/248/252
f 115/249/253 116/250/254 134/248/252
f 116/250/254 117/251/255 134/248/252
f 117/251/255 118/252/256 134/248/252
f 118/252/256 119/253/257 134/248/252
f 119/253/257 120/254/258 134/248/252
f 120/254/258 121/255/259 134/248/252
f 121/255/259 122/256/260 134/248/252
f 122/256/260 123/257/261 134/248/252
f 123/257/261 124/258/262 134/248/252
f 124/258/262 125/259/263 134/248/252
f 125/259/263 126/260/264 134/248/252
f 126/260/264 127/261/265 134/248/252
f 127/261/265 128/262/266 134/248/252
f 128/262/266 129/263/267 134/248/252
f 129/263/267 130/264/268 134/248/252
f 130/264/268 131/265/269 134/248/252
f 131/265/269 132/266/270 134/248/252
f 132/266/270 113/246/250 134/248/252
s 16
f 135/267/271 136/268/272 155/270/273
f 155/270/273 136/268/272 156/269/274
f 136/268/272 137/271/275 156/269/274
f 156/269/274 137/271/275 157/272/276
f 137/271/275 138/273/277 157/272/276
f 157/272/276 138/273/277 158/274/278
f 138/273/277 139/275/279 158/274/278
f 158/274/278 139/275/279 159/276/280
f 139/275/279 140/277/281 159/276/280
f 159/276/280 140/277/281 160/278/282
f 140/277/281 141/279/283 160/278/282
f 160/278/282 141/279/283 161/280/284
f 141/279/283 142/281/285 161/280/284
f 161/280/284 142/281/285 162/282/286
f 142/281/285 143/283/287 162/282/286
f 162/282/286 143/283/287 163/284/288
f 143/283/287 144/285/289 163/284/288
f 163/284/288 144/285/289 164/286/290
f 144/285/289 145/287/291 164/286/290
f 164/286/290 145/287/291 165/288/292
f 145/287/291 146/289/293 165/288/292
f 165/288/292 146/289/293 166/290/294
f 146/289/293 147/291/295 166/290/294
f 166/290/294 147/291/295 167/292/296
f 147/291/295 148/293/297 167/292/296
f 167/292/296 148/293/297 168/294/298
f 148/293/297 149/295/299 168/294/298
f 168/294/298 149/295/299 169/296/300
f 149/295/299 150/297/301 169/296/300
f 169/296/300 150/297/301 170/298/302
f 150/297/301 151/299/303 170/298/302
f 170/298/302 151/299/303 171/300/304
f 151/299/303 152/301/305 171/300/304
f 171/300/304 152/301/305 172/302/306
f 152/301/305 153/303/307 172/302/306
f 172/302/306 153/303/307 173/304/308
f 153/303/307 154/305/309 173/304/308
f 173/304/308 154/305/309 174/306/310
f 154/305/309 135/307/271 174/306/310
f 174/306/310 135/307/271 155/308/273
s 17
f 136/309/311 135/310/312 175/311/313
f 137/312/314 136/309/311 175/311/313
f 138/313/315 137/312/314 175/311/313
f 139/314/316 138/313/315 175/311/313
f 140/315/317 139/314/316 175/311/313
f 141/316/318 140/315/317 175/311/313
f 142/317/319 141/316/318 175/311/313
f 143/318/320 142/317/319 175/311/313
f 144/319/321 143/318/320 175/311/313
f 145/320/322 144/319/321 175/311/313
f 146/321/323 145/320/322 175/311/313
f 147/322/324 146/321/323 175/311/313
f 148/323/325 147/322/324 175/311/313
f 149/324/326 148/323/325 175/311/313
f 150/325/327 149/324/326 175/311/313
f 151/326/328 150/325/327 175/311/313
f 152/327/329 151/326/328 175/311/313
f 153/328/330 152/327/329 175/311/313
f 154/329/331 153/328/330 175/311/313
f 135/310/312 154/329/331 175/311/313
s 18
f 155/330/332 156/331/333 176/332/334
f 156/331/333 157/333/335 176/332/334
f 157/333/335 158/334/336 176/332/334
f 158/334/336 159/335/337 176/332/334
f 159/335/337 160/336/338 176/332/334
f 160/336/338 161/337/339 176/332/334
f 161/337/339 162/338/340 176/332/334
f 162/338/340 163/339/341 176/332/334
f 163/339/341 164/340/342 176/332/334
f 164/340/342 165/341/343 176/332/334
f 165/341/343 166/342/344 176/332/334
f 166/342/344 167/343/345 176/332/334
f 167/343/345 168/344/346 176/332/334
f 168/344/346 169/345/347 176/332/334
f 169/345/347 170/346/348 176/332/334
f 170/346/348 171/347/349 176/332/334
f 171/347/349 172/348/350 176/332/334
f 172/348/350 173/349/351 176/332/334
f 173/349/351 174/350/352 176/332/334
f 174/350/352 155/330/332 176/332/334
s 19
f 177/351/353 178/352/354 179/354/355
f 179/354/355 178/352/354 180/353/356
s 20
f 179/354/357 180/353/358 181/356/359
f 181/356/359 180/353/358 182/355/360
s 21
f 181/356/361 182/355/362 183/358/363
f 183/358/363 182/355/362 184/357/364
s 22
f 183/358/365 184/357/366 177/360/367
f 177/360/367 184/357/366 178/359/368
s 23
f 178/352/369 184/361/370 180/353/371
f 180/353/371 184/361/370 182/362/372
s 24
f 183/363/373 177/351/374 181/364/375
f 181/364/375 177/351/374 179/354/376
s 25
usemtl oak_lab:oak_lab6:oak_lab5:oak_lab4:oak_lab2:pasted__phong1SG
f 185/365/377 186/366/378 187/368/379
f 187/368/379 186/366/378 188/367/380
s 26
f 187/368/381 188/367/382 189/370/383
f 189/370/383 188/367/382 190/369/384
s 27
f 189/370/385 190/369/386 191/372/387
f 191/372/387 190/369/386 192/371/388
s 28
f 191/372/389 192/371/390 185/374/391
f 185/374/391 192/371/390 186/373/392
s 29
f 186/366/393 192/375/394 188/367/395
f 188/367/395 192/375/394 190/376/396
s 30
f 191/377/397 185/365/398 189/378/399
f 189/378/399 185/365/398 187/368/400
s 31
usemtl oak_lab:oak_lab6:oak_lab4:oak_lab2:pasted__phong1SG
f 193/379/401 194/380/402 195/382/403
f 195/382/403 194/380/402 196/381/404
s 32
f 195/382/405 196/381/406 197/384/407
f 197/384/407 196/381/406 198/383/408
s 33
f 197/384/409 198/383/410 199/386/411
f 199/386/411 198/383/410 200/385/412
s 34
f 199/386/413 200/385/414 193/388/415
f 193/388/415 200/385/414 194/387/416
s 35
f 194/380/417 200/389/418 196/381/419
f 196/381/419 200/389/418 198/390/420
s 36
f 199/391/421 193/379/422 197/392/423
f 197/392/423 193/379/422 195/382/424
g default
v 35.460388 2.972616 15.910600
v 39.493790 2.972616 15.910600
v 35.460388 5.991046 15.910600
v 39.493790 5.991046 15.910600
v 35.460388 5.991046 15.263650
v 39.493790 5.991046 15.263650
v 35.460388 2.972616 15.263650
v 39.493790 2.972616 15.263650
v 36.375706 9.847318 15.192968
v 36.261951 10.070571 15.192968
v 36.084778 10.247746 15.192968
v 35.861523 10.361499 15.192968
v 35.614044 10.400696 15.192968
v 35.366566 10.361499 15.192968
v 35.143314 10.247746 15.192968
v 34.966137 10.070571 15.192968
v 34.852383 9.847318 15.192968
v 34.813187 9.599839 15.192968
v 34.852383 9.352361 15.192968
v 34.966137 9.129107 15.192968
v 35.143314 8.951933 15.192968
v 35.366566 8.838180 15.192968
v 35.614044 8.798983 15.192968
v 35.861523 8.838180 15.192968
v 36.084774 8.951933 15.192968
v 36.261951 9.129107 15.192968
v 36.375702 9.352361 15.192968
v 36.414902 9.599839 15.192968
v 36.375706 9.847318 15.962746
v 36.261951 10.070571 15.962746
v 36.084778 10.247746 15.962746
v 35.861523 10.361499 15.962746
v 35.614044 10.400696 15.962746
v 35.366566 10.361499 15.962746
v 35.143314 10.247746 15.962746
v 34.966137 10.070571 15.962746
v 34.852383 9.847318 15.962746
v 34.813187 9.599839 15.962746
v 34.852383 9.352361 15.962746
v 34.966137 9.129107 15.962746
v 35.143314 8.951933 15.962746
v 35.366566 8.838180 15.962746
v 35.614044 8.798983 15.962746
v 35.861523 8.838180 15.962746
v 36.084774 8.951933 15.962746
v 36.261951 9.129107 15.962746
v 36.375702 9.352361 15.962746
v 36.414902 9.599839 15.962746
v 35.614044 9.599839 15.192968
v 35.614044 9.599839 15.962746
v 40.276413 9.847318 15.192968
v 40.162659 10.070571 15.192968
v 39.985485 10.247746 15.192968
v 39.762230 10.361499 15.192968
v 39.514751 10.400696 15.192968
v 39.267273 10.361499 15.192968
v 39.044022 10.247746 15.192968
v 38.866844 10.070571 15.192968
v 38.753090 9.847318 15.192968
v 38.713894 9.599839 15.192968
v 38.753090 9.352361 15.192968
v 38.866844 9.129107 15.192968
v 39.044022 8.951933 15.192968
v 39.267273 8.838180 15.192968
v 39.514751 8.798983 15.192968
v 39.762230 8.838180 15.192968
v 39.985481 8.951933 15.192968
v 40.162659 9.129107 15.192968
v 40.276409 9.352361 15.192968
v 40.315609 9.599839 15.192968
v 40.276413 9.847318 15.962746
v 40.162659 10.070571 15.962746
v 39.985485 10.247746 15.962746
v 39.762230 10.361499 15.962746
v 39.514751 10.400696 15.962746
v 39.267273 10.361499 15.962746
v 39.044022 10.247746 15.962746
v 38.866844 10.070571 15.962746
v 38.753090 9.847318 15.962746
v 38.713894 9.599839 15.962746
v 38.753090 9.352361 15.962746
v 38.866844 9.129107 15.962746
v 39.044022 8.951933 15.962746
v 39.267273 8.838180 15.962746
v 39.514751 8.798983 15.962746
v 39.762230 8.838180 15.962746
v 39.985481 8.951933 15.962746
v 40.162659 9.129107 15.962746
v 40.276409 9.352361 15.962746
v 40.315609 9.599839 15.962746
v 39.514751 9.599839 15.192968
v 39.514751 9.599839 15.962746
v 31.361206 4.674835 15.172850
v 31.247454 4.898088 15.172850
v 31.070278 5.075263 15.172850
v 30.847025 5.189016 15.172850
v 30.599546 5.228213 15.172850
v 30.352068 5.189016 15.172850
v 30.128815 5.075263 15.172850
v 29.951639 4.898088 15.172850
v 29.837887 4.674834 15.172850
v 29.798691 4.427356 15.172850
v 29.837887 4.179878 15.172850
v 29.951639 3.956625 15.172850
v 30.128815 3.779450 15.172850
v 30.352068 3.665697 15.172850
v 30.599546 3.626500 15.172850
v 30.847025 3.665697 15.172850
v 31.070278 3.779450 15.172850
v 31.247452 3.956625 15.172850
v 31.361206 4.179878 15.172850
v 31.400402 4.427356 15.172850
v 31.361206 4.674835 15.942627
v 31.247454 4.898088 15.942627
v 31.070278 5.075263 15.942627
v 30.847025 5.189016 15.942627
v 30.599546 5.228213 15.942627
v 30.352068 5.189016 15.942627
v 30.128815 5.075263 15.942627
v 29.951639 4.898088 15.942627
v 29.837887 4.674834 15.942627
v 29.798691 4.427356 15.942627
v 29.837887 4.179878 15.942627
v 29.951639 3.956625 15.942627
v 30.128815 3.779450 15.942627
v 30.352068 3.665697 15.942627
v 30.599546 3.626500 15.942627
v 30.847025 3.665697 15.942627
v 31.070278 3.779450 15.942627
v 31.247452 3.956625 15.942627
v 31.361206 4.179878 15.942627
v 31.400402 4.427356 15.942627
v 30.599546 4.427356 15.172850
v 30.599546 4.427356 15.942627
v 25.960581 9.847318 15.192968
v 25.846828 10.070571 15.192968
v 25.669653 10.247746 15.192968
v 25.446400 10.361499 15.192968
v 25.198921 10.400696 15.192968
v 24.951443 10.361499 15.192968
v 24.728189 10.247746 15.192968
v 24.551014 10.070571 15.192968
v 24.437262 9.847318 15.192968
v 24.398066 9.599839 15.192968
v 24.437262 9.352361 15.192968
v 24.551014 9.129107 15.192968
v 24.728189 8.951933 15.192968
v 24.951443 8.838180 15.192968
v 25.198921 8.798983 15.192968
v 25.446400 8.838180 15.192968
v 25.669653 8.951933 15.192968
v 25.846828 9.129107 15.192968
v 25.960581 9.352361 15.192968
v 25.999777 9.599839 15.192968
v 25.960581 9.847318 15.962746
v 25.846828 10.070571 15.962746
v 25.669653 10.247746 15.962746
v 25.446400 10.361499 15.962746
v 25.198921 10.400696 15.962746
v 24.951443 10.361499 15.962746
v 24.728189 10.247746 15.962746
v 24.551014 10.070571 15.962746
v 24.437262 9.847318 15.962746
v 24.398066 9.599839 15.962746
v 24.437262 9.352361 15.962746
v 24.551014 9.129107 15.962746
v 24.728189 8.951933 15.962746
v 24.951443 8.838180 15.962746
v 25.198921 8.798983 15.962746
v 25.446400 8.838180 15.962746
v 25.669653 8.951933 15.962746
v 25.846828 9.129107 15.962746
v 25.960581 9.352361 15.962746
v 25.999777 9.599839 15.962746
v 25.198921 9.599839 15.192968
v 25.198921 9.599839 15.962746
v 21.152920 2.972616 15.910600
v 25.186321 2.972616 15.910600
v 21.152920 5.991046 15.910600
v 25.186321 5.991046 15.910600
v 21.152920 5.991046 15.263650
v 25.186321 5.991046 15.263650
v 21.152920 2.972616 15.263650
v 25.186321 2.972616 15.263650
v 32.733208 8.009367 -15.485715
v 35.533470 8.009367 -15.485715
v 32.733208 10.414352 -15.485715
v 35.533470 10.414352 -15.485715
v 32.733208 10.414352 -15.595319
v 35.533470 10.414352 -15.595319
v 32.733208 8.009367 -15.595319
v 35.533470 8.009367 -15.595319
v 32.733208 5.041683 -15.485715
v 35.533470 5.041683 -15.485715
v 32.733208 7.704668 -15.485715
v 35.533470 7.704668 -15.485715
v 32.733208 7.704668 -15.595319
v 35.533470 7.704668 -15.595319
v 32.733208 5.041683 -15.595319
v 35.533470 5.041683 -15.595319
vt 0.375000 0.000000
vt 0.625000 0.000000
vt 0.375000 0.250000
vt 0.625000 0.250000
vt 0.375000 0.500000
vt 0.625000 0.500000
vt 0.375000 0.750000
vt 0.625000 0.750000
vt 0.375000 1.000000
vt 0.625000 1.000000
vt 0.875000 0.000000
vt 0.875000 0.250000
vt 0.125000 0.000000
vt 0.125000 0.250000
vt 0.375000 0.312500
vt 0.387500 0.312500
vt 0.387500 0.687500
vt 0.375000 0.687500
vt 0.400000 0.312500
vt 0.400000 0.687500
vt 0.412500 0.312500
vt 0.412500 0.687500
vt 0.425000 0.312500
vt 0.425000 0.687500
vt 0.437500 0.312500
vt 0.437500 0.687500
vt 0.450000 0.312500
vt 0.450000 0.687500
vt 0.462500 0.312500
vt 0.462500 0.687500
vt 0.475000 0.312500
vt 0.475000 0.687500
vt 0.487500 0.312500
vt 0.487500 0.687500
vt 0.500000 0.312500
vt 0.500000 0.687500
vt 0.512500 0.312500
vt 0.512500 0.687500
vt 0.525000 0.312500
vt 0.525000 0.687500
vt 0.537500 0.312500
vt 0.537500 0.687500
vt 0.550000 0.312500
vt 0.550000 0.687500
vt 0.562500 0.312500
vt 0.562500 0.687500
vt 0.575000 0.312500
vt 0.575000 0.687500
vt 0.587500 0.312500
vt 0.587500 0.687500
vt 0.600000 0.312500
vt 0.600000 0.687500
vt 0.612500 0.312500
vt 0.612500 0.687500
vt 0.625000 0.312500
vt 0.625000 0.687500
vt 0.626409 0.064408
vt 0.648603 0.107966
vt 0.500000 0.156250
vt 0.591842 0.029841
vt 0.548284 0.007647
vt 0.500000 -0.000000
vt 0.451716 0.007647
vt 0.408159 0.029841
vt 0.373591 0.064409
vt 0.351397 0.107966
vt 0.343750 0.156250
vt 0.351397 0.204534
vt 0.373591 0.248091
vt 0.408159 0.282659
vt 0.451716 0.304853
vt 0.500000 0.312500
vt 0.548284 0.304853
vt 0.591841 0.282659
vt 0.626409 0.248091
vt 0.648603 0.204534
vt 0.656250 0.156250
vt 0.648603 0.892034
vt 0.626409 0.935591
vt 0.500000 0.843750
vt 0.591841 0.970159
vt 0.548284 0.992353
vt 0.500000 1.000000
vt 0.451716 0.992353
vt 0.408159 0.970159
vt 0.373591 0.935591
vt 0.351397 0.892034
vt 0.343750 0.843750
vt 0.351397 0.795466
vt 0.373591 0.751909
vt 0.408159 0.717341
vt 0.451716 0.695147
vt 0.500000 0.687500
vt 0.548284 0.695147
vt 0.591842 0.717341
vt 0.626409 0.751908
vt 0.648603 0.795466
vt 0.656250 0.843750
vt 0.375000 0.312500
vt 0.387500 0.312500
vt 0.387500 0.687500
vt 0.375000 0.687500
vt 0.400000 0.312500
vt 0.400000 0.687500
vt 0.412500 0.312500
vt 0.412500 0.687500
vt 0.425000 0.312500
vt 0.425000 0.687500
vt 0.437500 0.312500
vt 0.437500 0.687500
vt 0.450000 0.312500
vt 0.450000 0.687500
vt 0.462500 0.312500
vt 0.462500 0.687500
vt 0.475000 0.312500
vt 0.475000 0.687500
vt 0.487500 0.312500
vt 0.487500 0.687500
vt 0.500000 0.312500
vt 0.500000 0.687500
vt 0.512500 0.312500
vt 0.512500 0.687500
vt 0.525000 0.312500
vt 0.525000 0.687500
vt 0.537500 0.312500
vt 0.537500 0.687500
vt 0.550000 0.312500
vt 0.550000 0.687500
vt 0.562500 0.312500
vt 0.562500 0.687500
vt 0.575000 0.312500
vt 0.575000 0.687500
vt 0.587500 0.312500
vt 0.587500 0.687500
vt 0.600000 0.312500
vt 0.600000 0.687500
vt 0.612500 0.312500
vt 0.612500 0.687500
vt 0.625000 0.312500
vt 0.625000 0.687500
vt 0.626409 0.064408
vt 0.648603 0.107966
vt 0.500000 0.156250
vt 0.591842 0.029841
vt 0.548284 0.007647
vt 0.500000 -0.000000
vt 0.451716 0.007647
vt 0.408159 0.029841
vt 0.373591 0.064409
vt 0.351397 0.107966
vt 0.343750 0.156250
vt 0.351397 0.204534
vt 0.373591 0.248091
vt 0.408159 0.282659
vt 0.451716 0.304853
vt 0.500000 0.312500
vt 0.548284 0.304853
vt 0.591841 0.282659
vt 0.626409 0.248091
vt 0.648603 0.204534
vt 0.656250 0.156250
vt 0.648603 0.892034
vt 0.626409 0.935591
vt 0.500000 0.843750
vt 0.591841 0.970159
vt 0.548284 0.992353
vt 0.500000 1.000000
vt 0.451716 0.992353
vt 0.408159 0.970159
vt 0.373591 0.935591
vt 0.351397 0.892034
vt 0.343750 0.843750
vt 0.351397 0.795466
vt 0.373591 0.751909
vt 0.408159 0.717341
vt 0.451716 0.695147
vt 0.500000 0.687500
vt 0.548284 0.695147
vt 0.591842 0.717341
vt 0.626409 0.751908
vt 0.648603 0.795466
vt 0.656250 0.843750
vt 0.375000 0.312500
vt 0.387500 0.312500
vt 0.387500 0.687500
vt 0.375000 0.687500
vt 0.400000 0.312500
vt 0.400000 0.687500
vt 0.412500 0.312500
vt 0.412500 0.687500
vt 0.425000 0.312500
vt 0.425000 0.687500
vt 0.437500 0.312500
vt 0.437500 0.687500
vt 0.450000 0.312500
vt 0.450000 0.687500
vt 0.462500 0.312500
vt 0.462500 0.687500
vt 0.475000 0.312500
vt 0.475000 0.687500
vt 0.487500 0.312500
vt 0.487500 0.687500
vt 0.500000 0.312500
vt 0.500000 0.687500
vt 0.512500 0.312500
vt 0.512500 0.687500
vt 0.525000 0.312500
vt 0.525000 0.687500
vt 0.537500 0.312500
vt 0.537500 0.687500
vt 0.550000 0.312500
vt 0.550000 0.687500
vt 0.562500 0.312500
vt 0.562500 0.687500
vt 0.575000 0.312500
vt 0.575000 0.687500
vt 0.587500 0.312500
vt 0.587500 0.687500
vt 0.600000 0.312500
vt 0.600000 0.687500
vt 0.612500 0.312500
vt 0.612500 0.687500
vt 0.625000 0.312500
vt 0.625000 0.687500
vt 0.626409 0.064408
vt 0.648603 0.107966
vt 0.500000 0.156250
vt 0.591842 0.029841
vt 0.548284 0.007647
vt 0.500000 -0.000000
vt 0.451716 0.007647
vt 0.408159 0.029841
vt 0.373591 0.064409
vt 0.351397 0.107966
vt 0.343750 0.156250
vt 0.351397 0.204534
vt 0.373591 0.248091
vt 0.408159 0.282659
vt 0.451716 0.304853
vt 0.500000 0.312500
vt 0.548284 0.304853
vt 0.591841 0.282659
vt 0.626409 0.248091
vt 0.648603 0.204534
vt 0.656250 0.156250
vt 0.648603 0.892034
vt 0.626409 0.935591
vt 0.500000 0.843750
vt 0.591841 0.970159
vt 0.548284 0.992353
vt 0.500000 1.000000
vt 0.451716 0.992353
vt 0.408159 0.970159
vt 0.373591 0.935591
vt 0.351397 0.892034
vt 0.343750 0.843750
vt 0.351397 0.795466
vt 0.373591 0.751909
vt 0.408159 0.717341
vt 0.451716 0.695147
vt 0.500000 0.687500
vt 0.548284 0.695147
vt 0.591842 0.717341
vt 0.626409 0.751908
vt 0.648603 0.795466
vt 0.656250 0.843750
vt 0.375000 0.312500
vt 0.387500 0.312500
vt 0.387500 0.687500
vt 0.375000 0.687500
vt 0.400000 0.312500
vt 0.400000 0.687500
vt 0.412500 0.312500
vt 0.412500 0.687500
vt 0.425000 0.312500
vt 0.425000 0.687500
vt 0.437500 0.312500
vt 0.437500 0.687500
vt 0.450000 0.312500
vt 0.450000 0.687500
vt 0.462500 0.312500
vt 0.462500 0.687500
vt 0.475000 0.312500
vt 0.475000 0.687500
vt 0.487500 0.312500
vt 0.487500 0.687500
vt 0.500000 0.312500
vt 0.500000 0.687500
vt 0.512500 0.312500
vt 0.512500 0.687500
vt 0.525000 0.312500
vt 0.525000 0.687500
vt 0.537500 0.312500
vt 0.537500 0.687500
vt 0.550000 0.312500
vt 0.550000 0.687500
vt 0.562500 0.312500
vt 0.562500 0.687500
vt 0.575000 0.312500
vt 0.575000 0.687500
vt 0.587500 0.312500
vt 0.587500 0.687500
vt 0.600000 0.312500
vt 0.600000 0.687500
vt 0.612500 0.312500
vt 0.612500 0.687500
vt 0.625000 0.312500
vt 0.625000 0.687500
vt 0.626409 0.064408
vt 0.648603 0.107966
vt 0.500000 0.156250
vt 0.591842 0.029841
vt 0.548284 0.007647
vt 0.500000 -0.000000
vt 0.451716 0.007647
vt 0.408159 0.029841
vt 0.373591 0.064409
vt 0.351397 0.107966
vt 0.343750 0.156250
vt 0.351397 0.204534
vt 0.373591 0.248091
vt 0.408159 0.282659
vt 0.451716 0.304853
vt 0.500000 0.312500
vt 0.548284 0.304853
vt 0.591841 0.282659
vt 0.626409 0.248091
vt 0.648603 0.204534
vt 0.656250 0.156250
vt 0.648603 0.892034
vt 0.626409 0.935591
vt 0.500000 0.843750
vt 0.591841 0.970159
vt 0.548284 0.992353
vt 0.500000 1.000000
vt 0.451716 0.992353
vt 0.408159 0.970159
vt 0.373591 0.935591
vt 0.351397 0.892034
vt 0.343750 0.843750
vt 0.351397 0.795466
vt 0.373591 0.751909
vt 0.408159 0.717341
vt 0.451716 0.695147
vt 0.500000 0.687500
vt 0.548284 0.695147
vt 0.591842 0.717341
vt 0.626409 0.751908
vt 0.648603 0.795466
vt 0.656250 0.843750
vt 0.375000 0.000000
vt 0.625000 0.000000
vt 0.625000 0.250000
vt 0.375000 0.250000
vt 0.625000 0.500000
vt 0.375000 0.500000
vt 0.625000 0.750000
vt 0.375000 0.750000
vt 0.625000 1.000000
vt 0.375000 1.000000
vt 0.875000 0.000000
vt 0.875000 0.250000
vt 0.125000 0.000000
vt 0.125000 0.250000
vt 0.375000 0.000000
vt 0.625000 0.000000
vt 0.625000 0.250000
vt 0.375000 0.250000
vt 0.625000 0.500000
vt 0.375000 0.500000
vt 0.625000 0.750000
vt 0.375000 0.750000
vt 0.625000 1.000000
vt 0.375000 1.000000
vt 0.875000 0.000000
vt 0.875000 0.250000
vt 0.125000 0.000000
vt 0.125000 0.250000
vt 0.375000 0.000000
vt 0.625000 0.000000
vt 0.625000 0.250000
vt 0.375000 0.250000
vt 0.625000 0.500000
vt 0.375000 0.500000
vt 0.625000 0.750000
vt 0.375000 0.750000
vt 0.625000 1.000000
vt 0.375000 1.000000
vt 0.875000 0.000000
vt 0.875000 0.250000
vt 0.125000 0.000000
vt 0.125000 0.250000
vn 0.000000 0.000000 1.000000
vn 0.000000 0.000000 1.000000
vn 0.000000 0.000000 1.000000
vn 0.000000 0.000000 1.000000
vn 0.000000 1.000000 0.000000
vn 0.000000 1.000000 0.000000
vn 0.000000 1.000000 0.000000
vn 0.000000 1.000000 0.000000
vn 0.000000 0.000000 -1.000000
vn 0.000000 0.000000 -1.000000
vn 0.000000 0.000000 -1.000000
vn 0.000000 0.000000 -1.000000
vn 0.000000 -1.000000 0.000000
vn 0.000000 -1.000000 0.000000
vn 0.000000 -1.000000 0.000000
vn 0.000000 -1.000000 0.000000
vn 1.000000 0.000000 0.000000
vn 1.000000 0.000000 0.000000
vn 1.000000 0.000000 0.000000
vn 1.000000 0.000000 0.000000
vn -1.000000 0.000000 0.000000
vn -1.000000 0.000000 0.000000
vn -1.000000 0.000000 0.000000
vn -1.000000 0.000000 0.000000
vn 0.951055 0.309022 0.000000
vn 0.809014 0.587790 0.000000
vn 0.951059 0.309009 0.000000
vn 0.809021 0.587780 0.000000
vn 0.587788 0.809015 0.000000
vn 0.587784 0.809018 0.000000
vn 0.309020 0.951056 0.000000
vn 0.309013 0.951058 0.000000
vn 0.000000 1.000000 0.000000
vn 0.000000 1.000000 0.000000
vn -0.309018 0.951056 0.000000
vn -0.309021 0.951055 0.000000
vn -0.587782 0.809019 0.000000
vn -0.587786 0.809017 0.000000
vn -0.809014 0.587790 0.000000
vn -0.809013 0.587790 0.000000
vn -0.951060 0.309008 0.000000
vn -0.951055 0.309023 0.000000
vn -1.000000 -0.000008 0.000000
vn -1.000000 0.000008 0.000000
vn -0.951055 -0.309022 0.000000
vn -0.951059 -0.309009 0.000000
vn -0.809014 -0.587790 0.000000
vn -0.809013 -0.587790 0.000000
vn -0.587786 -0.809017 0.000000
vn -0.587782 -0.809019 0.000000
vn -0.309021 -0.951055 0.000000
vn -0.309018 -0.951056 0.000000
vn 0.000000 -1.000000 0.000000
vn 0.000000 -1.000000 0.000000
vn 0.309018 -0.951056 0.000000
vn 0.309018 -0.951056 0.000000
vn 0.587786 -0.809017 0.000000
vn 0.587782 -0.809019 0.000000
vn 0.809022 -0.587778 0.000000
vn 0.809014 -0.587789 0.000000
vn 0.951059 -0.309010 0.000000
vn 0.951054 -0.309025 0.000000
vn 1.000000 0.000000 0.000000
vn 1.000000 -0.000008 0.000000
vn 0.000000 0.000000 -1.000000
vn 0.000000 0.000000 -1.000000
vn 0.000000 0.000000 -1.000000
vn 0.000000 0.000000 -1.000000
vn 0.000000 0.000000 -1.000000
vn 0.000000 0.000000 -1.000000
vn 0.000000 0.000000 -1.000000
vn 0.000000 0.000000 -1.000000
vn 0.000001 0.000000 -1.000000
vn 0.000001 0.000000 -1.000000
vn 0.000000 0.000000 -1.000000
vn 0.000000 0.000000 -1.000000
vn 0.000000 0.000000 -1.000000
vn 0.000000 0.000000 -1.000000
vn 0.000000 0.000000 -1.000000
vn 0.000000 0.000000 -1.000000
vn 0.000000 0.000000 -1.000000
vn 0.000000 0.000000 -1.000000
vn -0.000001 0.000000 -1.000000
vn -0.000001 0.000000 -1.000000
vn 0.000000 0.000000 -1.000000
vn 0.000001 0.000000 1.000000
vn -0.000001 0.000000 1.000000
vn 0.000000 0.000000 1.000000
vn 0.000002 0.000000 1.000000
vn -0.000000 0.000000 1.000000
vn 0.000000 0.000000 1.000000
vn 0.000000 0.000000 1.000000
vn -0.000005 0.000000 1.000000
vn -0.000002 0.000000 1.000000
vn -0.000002 0.000000 1.000000
vn 0.000000 0.000000 1.000000
vn -0.000001 0.000000 1.000000
vn 0.000001 0.000000 1.000000
vn -0.000002 0.000000 1.000000
vn 0.000000 0.000000 1.000000
vn 0.000000 0.000000 1.000000
vn -0.000000 0.000000 1.000000
vn 0.000005 0.000000 1.000000
vn 0.000002 0.000000 1.000000
vn 0.000002 0.000000 1.000000
vn 0.000000 0.000000 1.000000
vn 0.951056 0.309017 0.000000
vn 0.809018 0.587784 0.000000
vn 0.951056 0.309018 0.000000
vn 0.809018 0.587784 0.000000
vn 0.587781 0.809020 0.000000
vn 0.587785 0.809017 0.000000
vn 0.309010 0.951059 0.000000
vn 0.309022 0.951055 0.000000
vn -0.000000 1.000000 0.000000
vn 0.000000 1.000000 0.000000
vn -0.309020 0.951055 0.000000
vn -0.309016 0.951057 0.000000
vn -0.587786 0.809017 0.000000
vn -0.587782 0.809019 0.000000
vn -0.809017 0.587785 0.000000
vn -0.809013 0.587790 0.000000
vn -0.951057 0.309017 0.000000
vn -0.951056 0.309018 0.000000
vn -1.000000 0.000008 0.000000
vn -1.000000 -0.000008 0.000000
vn -0.951056 -0.309017 0.000000
vn -0.951056 -0.309018 0.000000
vn -0.809014 -0.587790 0.000000
vn -0.809017 -0.587785 0.000000
vn -0.587782 -0.809019 0.000000
vn -0.587786 -0.809017 0.000000
vn -0.309016 -0.951057 0.000000
vn -0.309020 -0.951055 0.000000
vn 0.000000 -1.000000 0.000000
vn -0.000000 -1.000000 0.000000
vn 0.309022 -0.951055 0.000000
vn 0.309015 -0.951057 0.000000
vn 0.587782 -0.809019 0.000000
vn 0.587786 -0.809017 0.000000
vn 0.809014 -0.587790 0.000000
vn 0.809017 -0.587785 0.000000
vn 0.951057 -0.309015 0.000000
vn 0.951057 -0.309016 0.000000
vn 1.000000 -0.000010 0.000000
vn 1.000000 -0.000002 0.000000
vn 0.000000 0.000000 -1.000000
vn 0.000000 0.000000 -1.000000
vn 0.000000 0.000000 -1.000000
vn 0.000000 0.000000 -1.000000
vn 0.000000 0.000000 -1.000000
vn 0.000000 0.000000 -1.000000
vn 0.000000 0.000000 -1.000000
vn 0.000000 0.000000 -1.000000
vn 0.000001 0.000000 -1.000000
vn 0.000001 0.000000 -1.000000
vn 0.000000 0.000000 -1.000000
vn 0.000000 0.000000 -1.000000
vn 0.000000 0.000000 -1.000000
vn 0.000000 0.000000 -1.000000
vn 0.000000 0.000000 -1.000000
vn 0.000000 0.000000 -1.000000
vn 0.000000 0.000000 -1.000000
vn 0.000000 0.000000 -1.000000
vn -0.000001 0.000000 -1.000000
vn -0.000001 0.000000 -1.000000
vn 0.000000 0.000000 -1.000000
vn 0.000001 0.000000 1.000000
vn -0.000001 0.000000 1.000000
vn 0.000000 0.000000 1.000000
vn 0.000002 0.000000 1.000000
vn -0.000000 0.000000 1.000000
vn 0.000000 0.000000 1.000000
vn 0.000000 0.000000 1.000000
vn -0.000005 0.000000 1.000000
vn -0.000002 0.000000 1.000000
vn -0.000002 0.000000 1.000000
vn 0.000000 0.000000 1.000000
vn -0.000001 0.000000 1.000000
vn 0.000001 0.000000 1.000000
vn -0.000002 0.000000 1.000000
vn 0.000000 0.000000 1.000000
vn 0.000000 0.000000 1.000000
vn -0.000000 0.000000 1.000000
vn 0.000005 0.000000 1.000000
vn 0.000002 0.000000 1.000000
vn 0.000002 0.000000 1.000000
vn 0.000000 0.000000 1.000000
vn 0.951059 0.309008 0.000000
vn 0.809018 0.587784 0.000000
vn 0.951057 0.309015 0.000000
vn 0.809017 0.587785 0.000000
vn 0.587788 0.809015 0.000000
vn 0.587784 0.809018 0.000000
vn 0.309016 0.951057 0.000000
vn 0.309016 0.951057 0.000000
vn 0.000000 1.000000 0.000000
vn 0.000000 1.000000 0.000000
vn -0.309016 0.951057 0.000000
vn -0.309016 0.951057 0.000000
vn -0.587784 0.809018 0.000000
vn -0.587788 0.809015 0.000000
vn -0.809018 0.587784 0.000000
vn -0.809018 0.587784 0.000000
vn -0.951057 0.309016 0.000000
vn -0.951059 0.309008 0.000000
vn -1.000000 0.000008 0.000000
vn -1.000000 -0.000008 0.000000
vn -0.951059 -0.309009 0.000000
vn -0.951057 -0.309016 0.000000
vn -0.809017 -0.587785 0.000000
vn -0.809018 -0.587784 0.000000
vn -0.587787 -0.809016 0.000000
vn -0.587784 -0.809018 0.000000
vn -0.309017 -0.951057 0.000000
vn -0.309017 -0.951057 0.000000
vn -0.000000 -1.000000 0.000000
vn -0.000000 -1.000000 0.000000
vn 0.309017 -0.951057 0.000000
vn 0.309017 -0.951057 0.000000
vn 0.587783 -0.809019 0.000000
vn 0.587791 -0.809013 0.000000
vn 0.809014 -0.587790 0.000000
vn 0.809022 -0.587779 0.000000
vn 0.951055 -0.309023 0.000000
vn 0.951059 -0.309008 0.000000
vn 1.000000 -0.000008 0.000000
vn 1.000000 0.000008 0.000000
vn 0.000000 0.000000 -1.000000
vn 0.000000 0.000000 -1.000000
vn -0.000001 0.000000 -1.000000
vn 0.000000 0.000000 -1.000000
vn 0.000000 0.000000 -1.000000
vn 0.000000 0.000000 -1.000000
vn 0.000000 0.000000 -1.000000
vn 0.000000 0.000000 -1.000000
vn -0.000001 0.000000 -1.000000
vn -0.000001 0.000000 -1.000000
vn 0.000000 0.000000 -1.000000
vn 0.000000 0.000000 -1.000000
vn -0.000005 0.000000 -1.000000
vn -0.000000 0.000000 -1.000000
vn 0.000000 0.000000 -1.000000
vn -0.000005 0.000000 -1.000000
vn -0.000005 0.000000 -1.000000
vn -0.000002 0.000000 -1.000000
vn 0.000002 0.000000 -1.000000
vn 0.000000 0.000000 -1.000000
vn 0.000000 0.000000 -1.000000
vn 0.000001 0.000000 1.000000
vn 0.000001 0.000000 1.000000
vn -0.000000 0.000000 1.000000
vn 0.000000 0.000000 1.000000
vn -0.000005 0.000000 1.000000
vn 0.000000 0.000000 1.000000
vn 0.000005 0.000000 1.000000
vn 0.000000 0.000000 1.000000
vn 0.000000 0.000000 1.000000
vn 0.000000 0.000000 1.000000
vn 0.000000 0.000000 1.000000
vn -0.000001 0.000000 1.000000
vn -0.000001 0.000000 1.000000
vn 0.000000 0.000000 1.000000
vn 0.000005 0.000000 1.000000
vn 0.000000 0.000000 1.000000
vn -0.000005 0.000000 1.000000
vn 0.000000 0.000000 1.000000
vn 0.000000 0.000000 1.000000
vn 0.000000 0.000000 1.000000
vn 0.000000 0.000000 1.000000
vn 0.951058 0.309013 0.000000
vn 0.809016 0.587786 0.000000
vn 0.951058 0.309014 0.000000
vn 0.809016 0.587787 0.000000
vn 0.587783 0.809019 0.000000
vn 0.587787 0.809016 0.000000
vn 0.309018 0.951056 0.000000
vn 0.309018 0.951056 0.000000
vn 0.000000 1.000000 0.000000
vn 0.000000 1.000000 0.000000
vn -0.309018 0.951056 0.000000
vn -0.309016 0.951057 0.000000
vn -0.587790 0.809014 0.000000
vn -0.587778 0.809022 0.000000
vn -0.809017 0.587786 0.000000
vn -0.809016 0.587786 0.000000
vn -0.951058 0.309013 0.000000
vn -0.951057 0.309014 0.000000
vn -1.000000 -0.000008 0.000000
vn -1.000000 0.000008 0.000000
vn -0.951058 -0.309013 0.000000
vn -0.951057 -0.309014 0.000000
vn -0.809016 -0.587786 0.000000
vn -0.809016 -0.587787 0.000000
vn -0.587778 -0.809022 0.000000
vn -0.587790 -0.809014 0.000000
vn -0.309016 -0.951057 0.000000
vn -0.309018 -0.951056 0.000000
vn 0.000000 -1.000000 0.000000
vn 0.000000 -1.000000 0.000000
vn 0.309018 -0.951056 0.000000
vn 0.309018 -0.951056 0.000000
vn 0.587787 -0.809016 0.000000
vn 0.587783 -0.809019 0.000000
vn 0.809017 -0.587786 0.000000
vn 0.809016 -0.587786 0.000000
vn 0.951058 -0.309013 0.000000
vn 0.951057 -0.309014 0.000000
vn 1.000000 0.000008 0.000000
vn 1.000000 -0.000008 0.000000
vn 0.000000 0.000000 -1.000000
vn 0.000000 0.000000 -1.000000
vn 0.000000 0.000000 -1.000000
vn 0.000000 0.000000 -1.000000
vn 0.000000 0.000000 -1.000000
vn 0.000000 0.000000 -1.000000
vn 0.000000 0.000000 -1.000000
vn 0.000000 0.000000 -1.000000
vn 0.000001 0.000000 -1.000000
vn 0.000001 0.000000 -1.000000
vn 0.000000 0.000000 -1.000000
vn 0.000000 0.000000 -1.000000
vn 0.000000 0.000000 -1.000000
vn 0.000000 0.000000 -1.000000
vn 0.000000 0.000000 -1.000000
vn 0.000000 0.000000 -1.000000
vn 0.000000 0.000000 -1.000000
vn 0.000000 0.000000 -1.000000
vn -0.000001 0.000000 -1.000000
vn -0.000001 0.000000 -1.000000
vn 0.000000 0.000000 -1.000000
vn 0.000001 0.000000 1.000000
vn -0.000001 0.000000 1.000000
vn -0.000000 0.000000 1.000000
vn 0.000002 0.000000 1.000000
vn -0.000000 0.000000 1.000000
vn 0.000000 0.000000 1.000000
vn 0.000000 0.000000 1.000000
vn -0.000005 0.000000 1.000000
vn -0.000002 0.000000 1.000000
vn -0.000002 0.000000 1.000000
vn 0.000000 0.000000 1.000000
vn -0.000001 0.000000 1.000000
vn 0.000001 0.000000 1.000000
vn -0.000002 0.000000 1.000000
vn -0.000000 0.000000 1.000000
vn 0.000000 0.000000 1.000000
vn -0.000000 0.000000 1.000000
vn 0.000005 0.000000 1.000000
vn 0.000002 0.000000 1.000000
vn 0.000002 0.000000 1.000000
vn 0.000000 0.000000 1.000000
vn 0.000000 0.000000 1.000000
vn 0.000000 0.000000 1.000000
vn 0.000000 0.000000 1.000000
vn 0.000000 0.000000 1.000000
vn 0.000000 1.000000 0.000000
vn 0.000000 1.000000 0.000000
vn 0.000000 1.000000 0.000000
vn 0.000000 1.000000 0.000000
vn 0.000000 0.000000 -1.000000
vn 0.000000 0.000000 -1.000000
vn 0.000000 0.000000 -1.000000
vn 0.000000 0.000000 -1.000000
vn 0.000000 -1.000000 0.000000
vn 0.000000 -1.000000 0.000000
vn 0.000000 -1.000000 0.000000
vn 0.000000 -1.000000 0.000000
vn 1.000000 0.000000 0.000000
vn 1.000000 0.000000 0.000000
vn 1.000000 0.000000 0.000000
vn 1.000000 0.000000 0.000000
vn -1.000000 0.000000 0.000000
vn -1.000000 0.000000 0.000000
vn -1.000000 0.000000 0.000000
vn -1.000000 0.000000 0.000000
vn 0.000000 0.000000 1.000000
vn 0.000000 0.000000 1.000000
vn 0.000000 0.000000 1.000000
vn 0.000000 0.000000 1.000000
vn 0.000000 1.000000 0.000000
vn 0.000000 1.000000 0.000000
vn 0.000000 1.000000 0.000000
vn 0.000000 1.000000 0.000000
vn 0.000000 0.000000 -1.000000
vn 0.000000 0.000000 -1.000000
vn 0.000000 0.000000 -1.000000
vn 0.000000 0.000000 -1.000000
vn 0.000000 -1.000000 0.000000
vn 0.000000 -1.000000 0.000000
vn 0.000000 -1.000000 0.000000
vn 0.000000 -1.000000 0.000000
vn 1.000000 0.000000 0.000000
vn 1.000000 0.000000 0.000000
vn 1.000000 0.000000 0.000000
vn 1.000000 0.000000 0.000000
vn -1.000000 0.000000 0.000000
vn -1.000000 0.000000 0.000000
vn -1.000000 0.000000 0.000000
vn -1.000000 0.000000 0.000000
vn 0.000000 0.000000 1.000000
vn 0.000000 0.000000 1.000000
vn 0.000000 0.000000 1.000000
vn 0.000000 0.000000 1.000000
vn 0.000000 1.000000 0.000000
vn 0.000000 1.000000 0.000000
vn 0.000000 1.000000 0.000000
vn 0.000000 1.000000 0.000000
vn 0.000000 0.000000 -1.000000
vn 0.000000 0.000000 -1.000000
vn 0.000000 0.000000 -1.000000
vn 0.000000 0.000000 -1.000000
vn 0.000000 -1.000000 0.000000
vn 0.000000 -1.000000 0.000000
vn 0.000000 -1.000000 0.000000
vn 0.000000 -1.000000 0.000000
vn 1.000000 0.000000 0.000000
vn 1.000000 0.000000 0.000000
vn 1.000000 0.000000 0.000000
vn 1.000000 0.000000 0.000000
vn -1.000000 0.000000 0.000000
vn -1.000000 0.000000 0.000000
vn -1.000000 0.000000 0.000000
vn -1.000000 0.000000 0.000000
s 1
g oak_lab:oak_lab8:pasted__pasted__pasted__pasted__pCube6
f 201/393/425 202/394/426 203/395/427
f 203/395/427 202/394/426 204/396/428
s 2
f 203/395/429 204/396/430 205/397/431
f 205/397/431 204/396/430 206/398/432
s 3
f 205/397/433 206/398/434 207/399/435
f 207/399/435 206/398/434 208/400/436
s 4
f 207/399/437 208/400/438 201/401/439
f 201/401/439 208/400/438 202/402/440
s 5
f 202/394/441 208/403/442 204/396/443
f 204/396/443 208/403/442 206/404/444
s 6
f 207/405/445 201/393/446 205/406/447
f 205/406/447 201/393/446 203/395/448
s 7
f 209/407/449 210/408/450 229/410/451
f 229/410/451 210/408/450 230/409/452
f 210/408/450 211/411/453 230/409/452
f 230/409/452 211/411/453 231/412/454
f 211/411/453 212/413/455 231/412/454
f 231/412/454 212/413/455 232/414/456
f 212/413/455 213/415/457 232/414/456
f 232/414/456 213/415/457 233/416/458
f 213/415/457 214/417/459 233/416/458
f 233/416/458 214/417/459 234/418/460
f 214/417/459 215/419/461 234/418/460
f 234/418/460 215/419/461 235/420/462
f 215/419/461 216/421/463 235/420/462
f 235/420/462 216/421/463 236/422/464
f 216/421/463 217/423/465 236/422/464
f 236/422/464 217/423/465 237/424/466
f 217/423/465 218/425/467 237/424/466
f 237/424/466 218/425/467 238/426/468
f 218/425/467 219/427/469 238/426/468
f 238/426/468 219/427/469 239/428/470
f 219/427/469 220/429/471 239/428/470
f 239/428/470 220/429/471 240/430/472
f 220/429/471 221/431/473 240/430/472
f 240/430/472 221/431/473 241/432/474
f 221/431/473 222/433/475 241/432/474
f 241/432/474 222/433/475 242/434/476
f 222/433/475 223/435/477 242/434/476
f 242/434/476 223/435/477 243/436/478
f 223/435/477 224/437/479 243/436/478
f 243/436/478 224/437/479 244/438/480
f 224/437/479 225/439/481 244/438/480
f 244/438/480 225/439/481 245/440/482
f 225/439/481 226/441/483 245/440/482
f 245/440/482 226/441/483 246/442/484
f 226/441/483 227/443/485 246/442/484
f 246/442/484 227/443/485 247/444/486
f 227/443/485 228/445/487 247/444/486
f 247/444/486 228/445/487 248/446/488
f 228/445/487 209/447/449 248/446/488
f 248/446/488 209/447/449 229/448/451
s 8
f 210/449/489 209/450/490 249/451/491
f 211/452/492 210/449/489 249/451/491
f 212/453/493 211/452/492 249/451/491
f 213/454/494 212/453/493 249/451/491
f 214/455/495 213/454/494 249/451/491
f 215/456/496 214/455/495 249/451/491
f 216/457/497 215/456/496 249/451/491
f 217/458/498 216/457/497 249/451/491
f 218/459/499 217/458/498 249/451/491
f 219/460/500 218/459/499 249/451/491
f 220/461/501 219/460/500 249/451/491
f 221/462/502 220/461/501 249/451/491
f 222/463/503 221/462/502 249/451/491
f 223/464/504 222/463/503 249/451/491
f 224/465/505 223/464/504 249/451/491
f 225/466/506 224/465/505 249/451/491
f 226/467/507 225/466/506 249/451/491
f 227/468/508 226/467/507 249/451/491
f 228/469/509 227/468/508 249/451/491
f 209/450/490 228/469/509 249/451/491
s 9
f 229/470/510 230/471/511 250/472/512
f 230/471/511 231/473/513 250/472/512
f 231/473/513 232/474/514 250/472/512
f 232/474/514 233/475/515 250/472/512
f 233/475/515 234/476/516 250/472/512
f 234/476/516 235/477/517 250/472/512
f 235/477/517 236/478/518 250/472/512
f 236/478/518 237/479/519 250/472/512
f 237/479/519 238/480/520 250/472/512
f 238/480/520 239/481/521 250/472/512
f 239/481/521 240/482/522 250/472/512
f 240/482/522 241/483/523 250/472/512
f 241/483/523 242/484/524 250/472/512
f 242/484/524 243/485/525 250/472/512
f 243/485/525 244/486/526 250/472/512
f 244/486/526 245/487/527 250/472/512
f 245/487/527 246/488/528 250/472/512
f 246/488/528 247/489/529 250/472/512
f 247/489/529 248/490/530 250/472/512
f 248/490/530 229/470/510 250/472/512
s 10
f 251/491/531 252/492/532 271/494/533
f 271/494/533 252/492/532 272/493/534
f 252/492/532 253/495/535 272/493/534
f 272/493/534 253/495/535 273/496/536
f 253/495/535 254/497/537 273/496/536
f 273/496/536 254/497/537 274/498/538
f 254/497/537 255/499/539 274/498/538
f 274/498/538 255/499/539 275/500/540
f 255/499/539 256/501/541 275/500/540
f 275/500/540 256/501/541 276/502/542
f 256/501/541 257/503/543 276/502/542
f 276/502/542 257/503/543 277/504/544
f 257/503/543 258/505/545 277/504/544
f 277/504/544 258/505/545 278/506/546
f 258/505/545 259/507/547 278/506/546
f 278/506/546 259/507/547 279/508/548
f 259/507/547 260/509/549 279/508/548
f 279/508/548 260/509/549 280/510/550
f 260/509/549 261/511/551 280/510/550
f 280/510/550 261/511/551 281/512/552
f 261/511/551 262/513/553 281/512/552
f 281/512/552 262/513/553 282/514/554
f 262/513/553 263/515/555 282/514/554
f 282/514/554 263/515/555 283/516/556
f 263/515/555 264/517/557 283/516/556
f 283/516/556 264/517/557 284/518/558
f 264/517/557 265/519/559 284/518/558
f 284/518/558 265/519/559 285/520/560
f 265/519/559 266/521/561 285/520/560
f 285/520/560 266/521/561 286/522/562
f 266/521/561 267/523/563 286/522/562
f 286/522/562 267/523/563 287/524/564
f 267/523/563 268/525/565 287/524/564
f 287/524/564 268/525/565 288/526/566
f 268/525/565 269/527/567 288/526/566
f 288/526/566 269/527/567 289/528/568
f 269/527/567 270/529/569 289/528/568
f 289/528/568 270/529/569 290/530/570
f 270/529/569 251/531/531 290/530/570
f 290/530/570 251/531/531 271/532/533
s 11
f 252/533/571 251/534/572 291/535/573
f 253/536/574 252/533/571 291/535/573
f 254/537/575 253/536/574 291/535/573
f 255/538/576 254/537/575 291/535/573
f 256/539/577 255/538/576 291/535/573
f 257/540/578 256/539/577 291/535/573
f 258/541/579 257/540/578 291/535/573
f 259/542/580 258/541/579 291/535/573
f 260/543/581 259/542/580 291/535/573
f 261/544/582 260/543/581 291/535/573
f 262/545/583 261/544/582 291/535/573
f 263/546/584 262/545/583 291/535/573
f 264/547/585 263/546/584 291/535/573
f 265/548/586 264/547/585 291/535/573
f 266/549/587 265/548/586 291/535/573
f 267/550/588 266/549/587 291/535/573
f 268/551/589 267/550/588 291/535/573
f 269/552/590 268/551/589 291/535/573
f 270/553/591 269/552/590 291/535/573
f 251/534/572 270/553/591 291/535/573
s 12
f 271/554/592 272/555/593 292/556/594
f 272/555/593 273/557/595 292/556/594
f 273/557/595 274/558/596 292/556/594
f 274/558/596 275/559/597 292/556/594
f 275/559/597 276/560/598 292/556/594
f 276/560/598 277/561/599 292/556/594
f 277/561/599 278/562/600 292/556/594
f 278/562/600 279/563/601 292/556/594
f 279/563/601 280/564/602 292/556/594
f 280/564/602 281/565/603 292/556/594
f 281/565/603 282/566/604 292/556/594
f 282/566/604 283/567/605 292/556/594
f 283/567/605 284/568/606 292/556/594
f 284/568/606 285/569/607 292/556/594
f 285/569/607 286/570/608 292/556/594
f 286/570/608 287/571/609 292/556/594
f 287/571/609 288/572/610 292/556/594
f 288/572/610 289/573/611 292/556/594
f 289/573/611 290/574/612 292/556/594
f 290/574/612 271/554/592 292/556/594
s 13
f 293/575/613 294/576/614 313/578/615
f 313/578/615 294/576/614 314/577/616
f 294/576/614 295/579/617 314/577/616
f 314/577/616 295/579/617 315/580/618
f 295/579/617 296/581/619 315/580/618
f 315/580/618 296/581/619 316/582/620
f 296/581/619 297/583/621 316/582/620
f 316/582/620 297/583/621 317/584/622
f 297/583/621 298/585/623 317/584/622
f 317/584/622 298/585/623 318/586/624
f 298/585/623 299/587/625 318/586/624
f 318/586/624 299/587/625 319/588/626
f 299/587/625 300/589/627 319/588/626
f 319/588/626 300/589/627 320/590/628
f 300/589/627 301/591/629 320/590/628
f 320/590/628 301/591/629 321/592/630
f 301/591/629 302/593/631 321/592/630
f 321/592/630 302/593/631 322/594/632
f 302/593/631 303/595/633 322/594/632
f 322/594/632 303/595/633 323/596/634
f 303/595/633 304/597/635 323/596/634
f 323/596/634 304/597/635 324/598/636
f 304/597/635 305/599/637 324/598/636
f 324/598/636 305/599/637 325/600/638
f 305/599/637 306/601/639 325/600/638
f 325/600/638 306/601/639 326/602/640
f 306/601/639 307/603/641 326/602/640
f 326/602/640 307/603/641 327/604/642
f 307/603/641 308/605/643 327/604/642
f 327/604/642 308/605/643 328/606/644
f 308/605/643 309/607/645 328/606/644
f 328/606/644 309/607/645 329/608/646
f 309/607/645 310/609/647 329/608/646
f 329/608/646 310/609/647 330/610/648
f 310/609/647 311/611/649 330/610/648
f 330/610/648 311/611/649 331/612/650
f 311/611/649 312/613/651 331/612/650
f 331/612/650 312/613/651 332/614/652
f 312/613/651 293/615/613 332/614/652
f 332/614/652 293/615/613 313/616/615
s 14
f 294/617/653 293/618/654 333/619/655
f 295/620/656 294/617/653 333/619/655
f 296/621/657 295/620/656 333/619/655
f 297/622/658 296/621/657 333/619/655
f 298/623/659 297/622/658 333/619/655
f 299/624/660 298/623/659 333/619/655
f 300/625/661 299/624/660 333/619/655
f 301/626/662 300/625/661 333/619/655
f 302/627/663 301/626/662 333/619/655
f 303/628/664 302/627/663 333/619/655
f 304/629/665 303/628/664 333/619/655
f 305/630/666 304/629/665 333/619/655
f 306/631/667 305/630/666 333/619/655
f 307/632/668 306/631/667 333/619/655
f 308/633/669 307/632/668 333/619/655
f 309/634/670 308/633/669 333/619/655
f 310/635/671 309/634/670 333/619/655
f 311/636/672 310/635/671 333/619/655
f 312/637/673 311/636/672 333/619/655
f 293/618/654 312/637/673 333/619/655
s 15
f 313/638/674 314/639/675 334/640/676
f 314/639/675 315/641/677 334/640/676
f 315/641/677 316/642/678 334/640/676
f 316/642/678 317/643/679 334/640/676
f 317/643/679 318/644/680 334/640/676
f 318/644/680 319/645/681 334/640/676
f 319/645/681 320/646/682 334/640/676
f 320/646/682 321/647/683 334/640/676
f 321/647/683 322/648/684 334/640/676
f 322/648/684 323/649/685 334/640/676
f 323/649/685 324/650/686 334/640/676
f 324/650/686 325/651/687 334/640/676
f 325/651/687 326/652/688 334/640/676
f 326/652/688 327/653/689 334/640/676
f 327/653/689 328/654/690 334/640/676
f 328/654/690 329/655/691 334/640/676
f 329/655/691 330/656/692 334/640/676
f 330/656/692 331/657/693 334/640/676
f 331/657/693 332/658/694 334/640/676
f 332/658/694 313/638/674 334/640/676
s 16
f 335/659/695 336/660/696 355/662/697
f 355/662/697 336/660/696 356/661/698
f 336/660/696 337/663/699 356/661/698
f 356/661/698 337/663/699 357/664/700
f 337/663/699 338/665/701 357/664/700
f 357/664/700 338/665/701 358/666/702
f 338/665/701 339/667/703 358/666/702
f 358/666/702 339/667/703 359/668/704
f 339/667/703 340/669/705 359/668/704
f 359/668/704 340/669/705 360/670/706
f 340/669/705 341/671/707 360/670/706
f 360/670/706 341/671/707 361/672/708
f 341/671/707 342/673/709 361/672/708
f 361/672/708 342/673/709 362/674/710
f 342/673/709 343/675/711 362/674/710
f 362/674/710 343/675/711 363/676/712
f 343/675/711 344/677/713 363/676/712
f 363/676/712 344/677/713 364/678/714
f 344/677/713 345/679/715 364/678/714
f 364/678/714 345/679/715 365/680/716
f 345/679/715 346/681/717 365/680/716
f 365/680/716 346/681/717 366/682/718
f 346/681/717 347/683/719 366/682/718
f 366/682/718 347/683/719 367/684/720
f 347/683/719 348/685/721 367/684/720
f 367/684/720 348/685/721 368/686/722
f 348/685/721 349/687/723 368/686/722
f 368/686/722 349/687/723 369/688/724
f 349/687/723 350/689/725 369/688/724
f 369/688/724 350/689/725 370/690/726
f 350/689/725 351/691/727 370/690/726
f 370/690/726 351/691/727 371/692/728
f 351/691/727 352/693/729 371/692/728
f 371/692/728 352/693/729 372/694/730
f 352/693/729 353/695/731 372/694/730
f 372/694/730 353/695/731 373/696/732
f 353/695/731 354/697/733 373/696/732
f 373/696/732 354/697/733 374/698/734
f 354/697/733 335/699/695 374/698/734
f 374/698/734 335/699/695 355/700/697
s 17
f 336/701/735 335/702/736 375/703/737
f 337/704/738 336/701/735 375/703/737
f 338/705/739 337/704/738 375/703/737
f 339/706/740 338/705/739 375/703/737
f 340/707/741 339/706/740 375/703/737
f 341/708/742 340/707/741 375/703/737
f 342/709/743 341/708/742 375/703/737
f 343/710/744 342/709/743 375/703/737
f 344/711/745 343/710/744 375/703/737
f 345/712/746 344/711/745 375/703/737
f 346/713/747 345/712/746 375/703/737
f 347/714/748 346/713/747 375/703/737
f 348/715/749 347/714/748 375/703/737
f 349/716/750 348/715/749 375/703/737
f 350/717/751 349/716/750 375/703/737
f 351/718/752 350/717/751 375/703/737
f 352/719/753 351/718/752 375/703/737
f 353/720/754 352/719/753 375/703/737
f 354/721/755 353/720/754 375/703/737
f 335/702/736 354/721/755 375/703/737
s 18
f 355/722/756 356/723/757 376/724/758
f 356/723/757 357/725/759 376/724/758
f 357/725/759 358/726/760 376/724/758
f 358/726/760 359/727/761 376/724/758
f 359/727/761 360/728/762 376/724/758
f 360/728/762 361/729/763 376/724/758
f 361/729/763 362/730/764 376/724/758
f 362/730/764 363/731/765 376/724/758
f 363/731/765 364/732/766 376/724/758
f 364/732/766 365/733/767 376/724/758
f 365/733/767 366/734/768 376/724/758
f 366/734/768 367/735/769 376/724/758
f 367/735/769 368/736/770 376/724/758
f 368/736/770 369/737/771 376/724/758
f 369/737/771 370/738/772 376/724/758
f 370/738/772 371/739/773 376/724/758
f 371/739/773 372/740/774 376/724/758
f 372/740/774 373/741/775 376/724/758
f 373/741/775 374/742/776 376/724/758
f 374/742/776 355/722/756 376/724/758
s 19
f 377/743/777 378/744/778 379/746/779
f 379/746/779 378/744/778 380/745/780
s 20
f 379/746/781 380/745/782 381/748/783
f 381/748/783 380/745/782 382/747/784
s 21
f 381/748/785 382/747/786 383/750/787
f 383/750/787 382/747/786 384/749/788
s 22
f 383/750/789 384/749/790 377/752/791
f 377/752/791 384/749/790 378/751/792
s 23
f 378/744/793 384/753/794 380/745/795
f 380/745/795 384/753/794 382/754/796
s 24
f 383/755/797 377/743/798 381/756/799
f 381/756/799 377/743/798 379/746/800
s 25
f 385/757/801 386/758/802 387/760/803
f 387/760/803 386/758/802 388/759/804
s 26
f 387/760/805 388/759/806 389/762/807
f 389/762/807 388/759/806 390/761/808
s 27
f 389/762/809 390/761/810 391/764/811
f 391/764/811 390/761/810 392/763/812
s 28
f 391/764/813 392/763/814 385/766/815
f 385/766/815 392/763/814 386/765/816
s 29
f 386/758/817 392/767/818 388/759/819
f 388/759/819 392/767/818 390/768/820
s 30
f 391/769/821 385/757/822 389/770/823
f 389/770/823 385/757/822 387/760/824
s 31
f 393/771/825 394/772/826 395/774/827
f 395/774/827 394/772/826 396/773/828
s 32
f 395/774/829 396/773/830 397/776/831
f 397/776/831 396/773/830 398/775/832
s 33
f 397/776/833 398/775/834 399/778/835
f 399/778/835 398/775/834 400/777/836
s 34
f 399/778/837 400/777/838 393/780/839
f 393/780/839 400/777/838 394/779/840
s 35
f 394/772/841 400/781/842 396/773/843
f 396/773/843 400/781/842 398/782/844
s 36
f 399/783/845 393/771/846 397/784/847
f 397/784/847 393/771/846 395/774/848
