# This file uses centimeters as units for non-parametric coordinates.

mtllib V4.mtl
g default
v 22.059872 9.847318 15.192968
v 21.946119 10.070571 15.192968
v 21.768944 10.247746 15.192968
v 21.545691 10.361499 15.192968
v 21.298212 10.400696 15.192968
v 21.050734 10.361499 15.192968
v 20.827480 10.247746 15.192968
v 20.650305 10.070571 15.192968
v 20.536552 9.847318 15.192968
v 20.497356 9.599839 15.192968
v 20.536552 9.352361 15.192968
v 20.650305 9.129107 15.192968
v 20.827480 8.951933 15.192968
v 21.050734 8.838180 15.192968
v 21.298212 8.798983 15.192968
v 21.545691 8.838180 15.192968
v 21.768944 8.951933 15.192968
v 21.946117 9.129107 15.192968
v 22.059872 9.352361 15.192968
v 22.099068 9.599839 15.192968
v 22.059872 9.847318 15.962746
v 21.946119 10.070571 15.962746
v 21.768944 10.247746 15.962746
v 21.545691 10.361499 15.962746
v 21.298212 10.400696 15.962746
v 21.050734 10.361499 15.962746
v 20.827480 10.247746 15.962746
v 20.650305 10.070571 15.962746
v 20.536552 9.847318 15.962746
v 20.497356 9.599839 15.962746
v 20.536552 9.352361 15.962746
v 20.650305 9.129107 15.962746
v 20.827480 8.951933 15.962746
v 21.050734 8.838180 15.962746
v 21.298212 8.798983 15.962746
v 21.545691 8.838180 15.962746
v 21.768944 8.951933 15.962746
v 21.946117 9.129107 15.962746
v 22.059872 9.352361 15.962746
v 22.099068 9.599839 15.962746
v 21.298212 9.599839 15.192968
v 21.298212 9.599839 15.962746
v 35.460388 2.972616 15.910600
v 39.493790 2.972616 15.910600
v 35.460388 5.991046 15.910600
v 39.493790 5.991046 15.910600
v 35.460388 5.991046 15.263650
v 39.493790 5.991046 15.263650
v 35.460388 2.972616 15.263650
v 39.493790 2.972616 15.263650
v 36.375706 9.847318 15.192968
v 36.261951 10.070571 15.192968
v 36.084778 10.247746 15.192968
v 35.861523 10.361499 15.192968
v 35.614044 10.400696 15.192968
v 35.366566 10.361499 15.192968
v 35.143314 10.247746 15.192968
v 34.966137 10.070571 15.192968
v 34.852383 9.847318 15.192968
v 34.813187 9.599839 15.192968
v 34.852383 9.352361 15.192968
v 34.966137 9.129107 15.192968
v 35.143314 8.951933 15.192968
v 35.366566 8.838180 15.192968
v 35.614044 8.798983 15.192968
v 35.861523 8.838180 15.192968
v 36.084774 8.951933 15.192968
v 36.261951 9.129107 15.192968
v 36.375702 9.352361 15.192968
v 36.414902 9.599839 15.192968
v 36.375706 9.847318 15.962746
v 36.261951 10.070571 15.962746
v 36.084778 10.247746 15.962746
v 35.861523 10.361499 15.962746
v 35.614044 10.400696 15.962746
v 35.366566 10.361499 15.962746
v 35.143314 10.247746 15.962746
v 34.966137 10.070571 15.962746
v 34.852383 9.847318 15.962746
v 34.813187 9.599839 15.962746
v 34.852383 9.352361 15.962746
v 34.966137 9.129107 15.962746
v 35.143314 8.951933 15.962746
v 35.366566 8.838180 15.962746
v 35.614044 8.798983 15.962746
v 35.861523 8.838180 15.962746
v 36.084774 8.951933 15.962746
v 36.261951 9.129107 15.962746
v 36.375702 9.352361 15.962746
v 36.414902 9.599839 15.962746
v 35.614044 9.599839 15.192968
v 35.614044 9.599839 15.962746
v 40.276413 9.847318 15.192968
v 40.162659 10.070571 15.192968
v 39.985485 10.247746 15.192968
v 39.762230 10.361499 15.192968
v 39.514751 10.400696 15.192968
v 39.267273 10.361499 15.192968
v 39.044022 10.247746 15.192968
v 38.866844 10.070571 15.192968
v 38.753090 9.847318 15.192968
v 38.713894 9.599839 15.192968
v 38.753090 9.352361 15.192968
v 38.866844 9.129107 15.192968
v 39.044022 8.951933 15.192968
v 39.267273 8.838180 15.192968
v 39.514751 8.798983 15.192968
v 39.762230 8.838180 15.192968
v 39.985481 8.951933 15.192968
v 40.162659 9.129107 15.192968
v 40.276409 9.352361 15.192968
v 40.315609 9.599839 15.192968
v 40.276413 9.847318 15.962746
v 40.162659 10.070571 15.962746
v 39.985485 10.247746 15.962746
v 39.762230 10.361499 15.962746
v 39.514751 10.400696 15.962746
v 39.267273 10.361499 15.962746
v 39.044022 10.247746 15.962746
v 38.866844 10.070571 15.962746
v 38.753090 9.847318 15.962746
v 38.713894 9.599839 15.962746
v 38.753090 9.352361 15.962746
v 38.866844 9.129107 15.962746
v 39.044022 8.951933 15.962746
v 39.267273 8.838180 15.962746
v 39.514751 8.798983 15.962746
v 39.762230 8.838180 15.962746
v 39.985481 8.951933 15.962746
v 40.162659 9.129107 15.962746
v 40.276409 9.352361 15.962746
v 40.315609 9.599839 15.962746
v 39.514751 9.599839 15.192968
v 39.514751 9.599839 15.962746
v 31.361206 4.674835 15.172850
v 31.247454 4.898088 15.172850
v 31.070278 5.075263 15.172850
v 30.847025 5.189016 15.172850
v 30.599546 5.228213 15.172850
v 30.352068 5.189016 15.172850
v 30.128815 5.075263 15.172850
v 29.951639 4.898088 15.172850
v 29.837887 4.674834 15.172850
v 29.798691 4.427356 15.172850
v 29.837887 4.179878 15.172850
v 29.951639 3.956625 15.172850
v 30.128815 3.779450 15.172850
v 30.352068 3.665697 15.172850
v 30.599546 3.626500 15.172850
v 30.847025 3.665697 15.172850
v 31.070278 3.779450 15.172850
v 31.247452 3.956625 15.172850
v 31.361206 4.179878 15.172850
v 31.400402 4.427356 15.172850
v 31.361206 4.674835 15.942627
v 31.247454 4.898088 15.942627
v 31.070278 5.075263 15.942627
v 30.847025 5.189016 15.942627
v 30.599546 5.228213 15.942627
v 30.352068 5.189016 15.942627
v 30.128815 5.075263 15.942627
v 29.951639 4.898088 15.942627
v 29.837887 4.674834 15.942627
v 29.798691 4.427356 15.942627
v 29.837887 4.179878 15.942627
v 29.951639 3.956625 15.942627
v 30.128815 3.779450 15.942627
v 30.352068 3.665697 15.942627
v 30.599546 3.626500 15.942627
v 30.847025 3.665697 15.942627
v 31.070278 3.779450 15.942627
v 31.247452 3.956625 15.942627
v 31.361206 4.179878 15.942627
v 31.400402 4.427356 15.942627
v 30.599546 4.427356 15.172850
v 30.599546 4.427356 15.942627
v 25.960581 9.847318 15.192968
v 25.846828 10.070571 15.192968
v 25.669653 10.247746 15.192968
v 25.446400 10.361499 15.192968
v 25.198921 10.400696 15.192968
v 24.951443 10.361499 15.192968
v 24.728189 10.247746 15.192968
v 24.551014 10.070571 15.192968
v 24.437262 9.847318 15.192968
v 24.398066 9.599839 15.192968
v 24.437262 9.352361 15.192968
v 24.551014 9.129107 15.192968
v 24.728189 8.951933 15.192968
v 24.951443 8.838180 15.192968
v 25.198921 8.798983 15.192968
v 25.446400 8.838180 15.192968
v 25.669653 8.951933 15.192968
v 25.846828 9.129107 15.192968
v 25.960581 9.352361 15.192968
v 25.999777 9.599839 15.192968
v 25.960581 9.847318 15.962746
v 25.846828 10.070571 15.962746
v 25.669653 10.247746 15.962746
v 25.446400 10.361499 15.962746
v 25.198921 10.400696 15.962746
v 24.951443 10.361499 15.962746
v 24.728189 10.247746 15.962746
v 24.551014 10.070571 15.962746
v 24.437262 9.847318 15.962746
v 24.398066 9.599839 15.962746
v 24.437262 9.352361 15.962746
v 24.551014 9.129107 15.962746
v 24.728189 8.951933 15.962746
v 24.951443 8.838180 15.962746
v 25.198921 8.798983 15.962746
v 25.446400 8.838180 15.962746
v 25.669653 8.951933 15.962746
v 25.846828 9.129107 15.962746
v 25.960581 9.352361 15.962746
v 25.999777 9.599839 15.962746
v 25.198921 9.599839 15.192968
v 25.198921 9.599839 15.962746
v 21.152920 2.972616 15.910600
v 25.186321 2.972616 15.910600
v 21.152920 5.991046 15.910600
v 25.186321 5.991046 15.910600
v 21.152920 5.991046 15.263650
v 25.186321 5.991046 15.263650
v 21.152920 2.972616 15.263650
v 25.186321 2.972616 15.263650
v 32.733208 8.009367 -15.485715
v 35.533470 8.009367 -15.485715
v 32.733208 10.414352 -15.485715
v 35.533470 10.414352 -15.485715
v 32.733208 10.414352 -15.595319
v 35.533470 10.414352 -15.595319
v 32.733208 8.009367 -15.595319
v 35.533470 8.009367 -15.595319
v 32.733208 5.041683 -15.485715
v 35.533470 5.041683 -15.485715
v 32.733208 7.704668 -15.485715
v 35.533470 7.704668 -15.485715
v 32.733208 7.704668 -15.595319
v 35.533470 7.704668 -15.595319
v 32.733208 5.041683 -15.595319
v 35.533470 5.041683 -15.595319
vt 0.648603 0.107966
vt 0.626409 0.064408
vt 0.591842 0.029841
vt 0.548284 0.007647
vt 0.500000 -0.000000
vt 0.451716 0.007647
vt 0.408159 0.029841
vt 0.373591 0.064409
vt 0.351397 0.107966
vt 0.343750 0.156250
vt 0.351397 0.204534
vt 0.373591 0.248091
vt 0.408159 0.282659
vt 0.451716 0.304853
vt 0.500000 0.312500
vt 0.548284 0.304853
vt 0.591841 0.282659
vt 0.626409 0.248091
vt 0.648603 0.204534
vt 0.656250 0.156250
vt 0.375000 0.312500
vt 0.387500 0.312500
vt 0.400000 0.312500
vt 0.412500 0.312500
vt 0.425000 0.312500
vt 0.437500 0.312500
vt 0.450000 0.312500
vt 0.462500 0.312500
vt 0.475000 0.312500
vt 0.487500 0.312500
vt 0.500000 0.312500
vt 0.512500 0.312500
vt 0.525000 0.312500
vt 0.537500 0.312500
vt 0.550000 0.312500
vt 0.562500 0.312500
vt 0.575000 0.312500
vt 0.587500 0.312500
vt 0.600000 0.312500
vt 0.612500 0.312500
vt 0.625000 0.312500
vt 0.375000 0.687500
vt 0.387500 0.687500
vt 0.400000 0.687500
vt 0.412500 0.687500
vt 0.425000 0.687500
vt 0.437500 0.687500
vt 0.450000 0.687500
vt 0.462500 0.687500
vt 0.475000 0.687500
vt 0.487500 0.687500
vt 0.500000 0.687500
vt 0.512500 0.687500
vt 0.525000 0.687500
vt 0.537500 0.687500
vt 0.550000 0.687500
vt 0.562500 0.687500
vt 0.575000 0.687500
vt 0.587500 0.687500
vt 0.600000 0.687500
vt 0.612500 0.687500
vt 0.625000 0.687500
vt 0.648603 0.795466
vt 0.626409 0.751908
vt 0.591842 0.717341
vt 0.548284 0.695147
vt 0.500000 0.687500
vt 0.451716 0.695147
vt 0.408159 0.717341
vt 0.373591 0.751909
vt 0.351397 0.795466
vt 0.343750 0.843750
vt 0.351397 0.892034
vt 0.373591 0.935591
vt 0.408159 0.970159
vt 0.451716 0.992353
vt 0.500000 1.000000
vt 0.548284 0.992353
vt 0.591841 0.970159
vt 0.626409 0.935591
vt 0.648603 0.892034
vt 0.656250 0.843750
vt 0.500000 0.156250
vt 0.500000 0.843750
vt 0.375000 0.000000
vt 0.625000 0.000000
vt 0.375000 0.250000
vt 0.625000 0.250000
vt 0.375000 0.500000
vt 0.625000 0.500000
vt 0.375000 0.750000
vt 0.625000 0.750000
vt 0.375000 1.000000
vt 0.625000 1.000000
vt 0.875000 0.000000
vt 0.875000 0.250000
vt 0.125000 0.000000
vt 0.125000 0.250000
vt 0.375000 0.312500
vt 0.387500 0.312500
vt 0.375000 0.687500
vt 0.387500 0.687500
vt 0.400000 0.312500
vt 0.400000 0.687500
vt 0.412500 0.312500
vt 0.412500 0.687500
vt 0.425000 0.312500
vt 0.425000 0.687500
vt 0.437500 0.312500
vt 0.437500 0.687500
vt 0.450000 0.312500
vt 0.450000 0.687500
vt 0.462500 0.312500
vt 0.462500 0.687500
vt 0.475000 0.312500
vt 0.475000 0.687500
vt 0.487500 0.312500
vt 0.487500 0.687500
vt 0.500000 0.312500
vt 0.500000 0.687500
vt 0.512500 0.312500
vt 0.512500 0.687500
vt 0.525000 0.312500
vt 0.525000 0.687500
vt 0.537500 0.312500
vt 0.537500 0.687500
vt 0.550000 0.312500
vt 0.550000 0.687500
vt 0.562500 0.312500
vt 0.562500 0.687500
vt 0.575000 0.312500
vt 0.575000 0.687500
vt 0.587500 0.312500
vt 0.587500 0.687500
vt 0.600000 0.312500
vt 0.600000 0.687500
vt 0.612500 0.312500
vt 0.612500 0.687500
vt 0.625000 0.312500
vt 0.625000 0.687500
vt 0.626409 0.064408
vt 0.648603 0.107966
vt 0.500000 0.156250
vt 0.591842 0.029841
vt 0.548284 0.007647
vt 0.500000 -0.000000
vt 0.451716 0.007647
vt 0.408159 0.029841
vt 0.373591 0.064409
vt 0.351397 0.107966
vt 0.343750 0.156250
vt 0.351397 0.204534
vt 0.373591 0.248091
vt 0.408159 0.282659
vt 0.451716 0.304853
vt 0.500000 0.312500
vt 0.548284 0.304853
vt 0.591841 0.282659
vt 0.626409 0.248091
vt 0.648603 0.204534
vt 0.656250 0.156250
vt 0.648603 0.892034
vt 0.626409 0.935591
vt 0.500000 0.843750
vt 0.591841 0.970159
vt 0.548284 0.992353
vt 0.500000 1.000000
vt 0.451716 0.992353
vt 0.408159 0.970159
vt 0.373591 0.935591
vt 0.351397 0.892034
vt 0.343750 0.843750
vt 0.351397 0.795466
vt 0.373591 0.751909
vt 0.408159 0.717341
vt 0.451716 0.695147
vt 0.500000 0.687500
vt 0.548284 0.695147
vt 0.591842 0.717341
vt 0.626409 0.751908
vt 0.648603 0.795466
vt 0.656250 0.843750
vt 0.375000 0.312500
vt 0.387500 0.312500
vt 0.375000 0.687500
vt 0.387500 0.687500
vt 0.400000 0.312500
vt 0.400000 0.687500
vt 0.412500 0.312500
vt 0.412500 0.687500
vt 0.425000 0.312500
vt 0.425000 0.687500
vt 0.437500 0.312500
vt 0.437500 0.687500
vt 0.450000 0.312500
vt 0.450000 0.687500
vt 0.462500 0.312500
vt 0.462500 0.687500
vt 0.475000 0.312500
vt 0.475000 0.687500
vt 0.487500 0.312500
vt 0.487500 0.687500
vt 0.500000 0.312500
vt 0.500000 0.687500
vt 0.512500 0.312500
vt 0.512500 0.687500
vt 0.525000 0.312500
vt 0.525000 0.687500
vt 0.537500 0.312500
vt 0.537500 0.687500
vt 0.550000 0.312500
vt 0.550000 0.687500
vt 0.562500 0.312500
vt 0.562500 0.687500
vt 0.575000 0.312500
vt 0.575000 0.687500
vt 0.587500 0.312500
vt 0.587500 0.687500
vt 0.600000 0.312500
vt 0.600000 0.687500
vt 0.612500 0.312500
vt 0.612500 0.687500
vt 0.625000 0.312500
vt 0.625000 0.687500
vt 0.626409 0.064408
vt 0.648603 0.107966
vt 0.500000 0.156250
vt 0.591842 0.029841
vt 0.548284 0.007647
vt 0.500000 -0.000000
vt 0.451716 0.007647
vt 0.408159 0.029841
vt 0.373591 0.064409
vt 0.351397 0.107966
vt 0.343750 0.156250
vt 0.351397 0.204534
vt 0.373591 0.248091
vt 0.408159 0.282659
vt 0.451716 0.304853
vt 0.500000 0.312500
vt 0.548284 0.304853
vt 0.591841 0.282659
vt 0.626409 0.248091
vt 0.648603 0.204534
vt 0.656250 0.156250
vt 0.648603 0.892034
vt 0.626409 0.935591
vt 0.500000 0.843750
vt 0.591841 0.970159
vt 0.548284 0.992353
vt 0.500000 1.000000
vt 0.451716 0.992353
vt 0.408159 0.970159
vt 0.373591 0.935591
vt 0.351397 0.892034
vt 0.343750 0.843750
vt 0.351397 0.795466
vt 0.373591 0.751909
vt 0.408159 0.717341
vt 0.451716 0.695147
vt 0.500000 0.687500
vt 0.548284 0.695147
vt 0.591842 0.717341
vt 0.626409 0.751908
vt 0.648603 0.795466
vt 0.656250 0.843750
vt 0.375000 0.312500
vt 0.387500 0.312500
vt 0.375000 0.687500
vt 0.387500 0.687500
vt 0.400000 0.312500
vt 0.400000 0.687500
vt 0.412500 0.312500
vt 0.412500 0.687500
vt 0.425000 0.312500
vt 0.425000 0.687500
vt 0.437500 0.312500
vt 0.437500 0.687500
vt 0.450000 0.312500
vt 0.450000 0.687500
vt 0.462500 0.312500
vt 0.462500 0.687500
vt 0.475000 0.312500
vt 0.475000 0.687500
vt 0.487500 0.312500
vt 0.487500 0.687500
vt 0.500000 0.312500
vt 0.500000 0.687500
vt 0.512500 0.312500
vt 0.512500 0.687500
vt 0.525000 0.312500
vt 0.525000 0.687500
vt 0.537500 0.312500
vt 0.537500 0.687500
vt 0.550000 0.312500
vt 0.550000 0.687500
vt 0.562500 0.312500
vt 0.562500 0.687500
vt 0.575000 0.312500
vt 0.575000 0.687500
vt 0.587500 0.312500
vt 0.587500 0.687500
vt 0.600000 0.312500
vt 0.600000 0.687500
vt 0.612500 0.312500
vt 0.612500 0.687500
vt 0.625000 0.312500
vt 0.625000 0.687500
vt 0.626409 0.064408
vt 0.648603 0.107966
vt 0.500000 0.156250
vt 0.591842 0.029841
vt 0.548284 0.007647
vt 0.500000 -0.000000
vt 0.451716 0.007647
vt 0.408159 0.029841
vt 0.373591 0.064409
vt 0.351397 0.107966
vt 0.343750 0.156250
vt 0.351397 0.204534
vt 0.373591 0.248091
vt 0.408159 0.282659
vt 0.451716 0.304853
vt 0.500000 0.312500
vt 0.548284 0.304853
vt 0.591841 0.282659
vt 0.626409 0.248091
vt 0.648603 0.204534
vt 0.656250 0.156250
vt 0.648603 0.892034
vt 0.626409 0.935591
vt 0.500000 0.843750
vt 0.591841 0.970159
vt 0.548284 0.992353
vt 0.500000 1.000000
vt 0.451716 0.992353
vt 0.408159 0.970159
vt 0.373591 0.935591
vt 0.351397 0.892034
vt 0.343750 0.843750
vt 0.351397 0.795466
vt 0.373591 0.751909
vt 0.408159 0.717341
vt 0.451716 0.695147
vt 0.500000 0.687500
vt 0.548284 0.695147
vt 0.591842 0.717341
vt 0.626409 0.751908
vt 0.648603 0.795466
vt 0.656250 0.843750
vt 0.375000 0.312500
vt 0.387500 0.312500
vt 0.375000 0.687500
vt 0.387500 0.687500
vt 0.400000 0.312500
vt 0.400000 0.687500
vt 0.412500 0.312500
vt 0.412500 0.687500
vt 0.425000 0.312500
vt 0.425000 0.687500
vt 0.437500 0.312500
vt 0.437500 0.687500
vt 0.450000 0.312500
vt 0.450000 0.687500
vt 0.462500 0.312500
vt 0.462500 0.687500
vt 0.475000 0.312500
vt 0.475000 0.687500
vt 0.487500 0.312500
vt 0.487500 0.687500
vt 0.500000 0.312500
vt 0.500000 0.687500
vt 0.512500 0.312500
vt 0.512500 0.687500
vt 0.525000 0.312500
vt 0.525000 0.687500
vt 0.537500 0.312500
vt 0.537500 0.687500
vt 0.550000 0.312500
vt 0.550000 0.687500
vt 0.562500 0.312500
vt 0.562500 0.687500
vt 0.575000 0.312500
vt 0.575000 0.687500
vt 0.587500 0.312500
vt 0.587500 0.687500
vt 0.600000 0.312500
vt 0.600000 0.687500
vt 0.612500 0.312500
vt 0.612500 0.687500
vt 0.625000 0.312500
vt 0.625000 0.687500
vt 0.626409 0.064408
vt 0.648603 0.107966
vt 0.500000 0.156250
vt 0.591842 0.029841
vt 0.548284 0.007647
vt 0.500000 -0.000000
vt 0.451716 0.007647
vt 0.408159 0.029841
vt 0.373591 0.064409
vt 0.351397 0.107966
vt 0.343750 0.156250
vt 0.351397 0.204534
vt 0.373591 0.248091
vt 0.408159 0.282659
vt 0.451716 0.304853
vt 0.500000 0.312500
vt 0.548284 0.304853
vt 0.591841 0.282659
vt 0.626409 0.248091
vt 0.648603 0.204534
vt 0.656250 0.156250
vt 0.648603 0.892034
vt 0.626409 0.935591
vt 0.500000 0.843750
vt 0.591841 0.970159
vt 0.548284 0.992353
vt 0.500000 1.000000
vt 0.451716 0.992353
vt 0.408159 0.970159
vt 0.373591 0.935591
vt 0.351397 0.892034
vt 0.343750 0.843750
vt 0.351397 0.795466
vt 0.373591 0.751909
vt 0.408159 0.717341
vt 0.451716 0.695147
vt 0.500000 0.687500
vt 0.548284 0.695147
vt 0.591842 0.717341
vt 0.626409 0.751908
vt 0.648603 0.795466
vt 0.656250 0.843750
vt 0.375000 0.000000
vt 0.625000 0.000000
vt 0.375000 0.250000
vt 0.625000 0.250000
vt 0.375000 0.500000
vt 0.625000 0.500000
vt 0.375000 0.750000
vt 0.625000 0.750000
vt 0.375000 1.000000
vt 0.625000 1.000000
vt 0.875000 0.000000
vt 0.875000 0.250000
vt 0.125000 0.000000
vt 0.125000 0.250000
vt 0.375000 0.000000
vt 0.625000 0.000000
vt 0.375000 0.250000
vt 0.625000 0.250000
vt 0.375000 0.500000
vt 0.625000 0.500000
vt 0.375000 0.750000
vt 0.625000 0.750000
vt 0.375000 1.000000
vt 0.625000 1.000000
vt 0.875000 0.000000
vt 0.875000 0.250000
vt 0.125000 0.000000
vt 0.125000 0.250000
vt 0.375000 0.000000
vt 0.625000 0.000000
vt 0.375000 0.250000
vt 0.625000 0.250000
vt 0.375000 0.500000
vt 0.625000 0.500000
vt 0.375000 0.750000
vt 0.625000 0.750000
vt 0.375000 1.000000
vt 0.625000 1.000000
vt 0.875000 0.000000
vt 0.875000 0.250000
vt 0.125000 0.000000
vt 0.125000 0.250000
vn 0.951058 0.309011 0.000000
vn 0.809017 0.587785 0.000000
vn 0.809017 0.587785 0.000000
vn 0.951058 0.309011 0.000000
vn 0.587785 0.809018 0.000000
vn 0.587785 0.809018 0.000000
vn 0.309018 0.951056 0.000000
vn 0.309018 0.951056 0.000000
vn 0.000000 1.000000 0.000000
vn 0.000000 1.000000 0.000000
vn -0.309018 0.951056 0.000000
vn -0.309018 0.951056 0.000000
vn -0.587786 0.809017 0.000000
vn -0.587786 0.809017 0.000000
vn -0.809016 0.587787 0.000000
vn -0.809016 0.587787 0.000000
vn -0.951057 0.309016 0.000000
vn -0.951057 0.309016 0.000000
vn -1.000000 0.000000 0.000000
vn -1.000000 0.000000 0.000000
vn -0.951057 -0.309016 0.000000
vn -0.951057 -0.309016 0.000000
vn -0.809016 -0.587787 0.000000
vn -0.809016 -0.587787 0.000000
vn -0.587786 -0.809017 0.000000
vn -0.587786 -0.809017 0.000000
vn -0.309018 -0.951056 0.000000
vn -0.309018 -0.951056 0.000000
vn 0.000000 -1.000000 0.000000
vn 0.000000 -1.000000 0.000000
vn 0.309018 -0.951056 0.000000
vn 0.309018 -0.951056 0.000000
vn 0.587787 -0.809016 0.000000
vn 0.587787 -0.809016 0.000000
vn 0.809017 -0.587785 0.000000
vn 0.809017 -0.587785 0.000000
vn 0.951057 -0.309016 0.000000
vn 0.951057 -0.309016 0.000000
vn 1.000000 0.000000 0.000000
vn 1.000000 0.000000 0.000000
vn 0.000000 0.000000 -1.000000
vn 0.000000 0.000000 -1.000000
vn -0.000000 0.000000 -1.000000
vn 0.000000 0.000000 -1.000000
vn 0.000000 0.000000 -1.000000
vn 0.000000 0.000000 -1.000000
vn 0.000000 0.000000 -1.000000
vn 0.000000 0.000000 -1.000000
vn 0.000001 0.000000 -1.000000
vn 0.000001 0.000000 -1.000000
vn 0.000000 0.000000 -1.000000
vn 0.000000 0.000000 -1.000000
vn 0.000000 0.000000 -1.000000
vn 0.000000 0.000000 -1.000000
vn 0.000000 0.000000 -1.000000
vn 0.000000 0.000000 -1.000000
vn 0.000000 0.000000 -1.000000
vn 0.000000 0.000000 -1.000000
vn -0.000001 0.000000 -1.000000
vn -0.000001 0.000000 -1.000000
vn 0.000000 0.000000 -1.000000
vn 0.000001 0.000000 1.000000
vn -0.000001 0.000000 1.000000
vn -0.000000 0.000000 1.000000
vn 0.000002 0.000000 1.000000
vn -0.000000 0.000000 1.000000
vn 0.000000 0.000000 1.000000
vn 0.000000 0.000000 1.000000
vn -0.000005 0.000000 1.000000
vn -0.000002 0.000000 1.000000
vn -0.000002 0.000000 1.000000
vn 0.000000 0.000000 1.000000
vn -0.000001 0.000000 1.000000
vn 0.000001 0.000000 1.000000
vn -0.000002 0.000000 1.000000
vn -0.000000 0.000000 1.000000
vn 0.000000 0.000000 1.000000
vn -0.000000 0.000000 1.000000
vn 0.000005 0.000000 1.000000
vn 0.000002 0.000000 1.000000
vn 0.000002 0.000000 1.000000
vn 0.000000 0.000000 1.000000
vn 0.000000 0.000000 1.000000
vn 0.000000 0.000000 1.000000
vn 0.000000 0.000000 1.000000
vn 0.000000 0.000000 1.000000
vn 0.000000 1.000000 0.000000
vn 0.000000 1.000000 0.000000
vn 0.000000 1.000000 0.000000
vn 0.000000 1.000000 0.000000
vn 0.000000 0.000000 -1.000000
vn 0.000000 0.000000 -1.000000
vn 0.000000 0.000000 -1.000000
vn 0.000000 0.000000 -1.000000
vn 0.000000 -1.000000 0.000000
vn 0.000000 -1.000000 0.000000
vn 0.000000 -1.000000 0.000000
vn 0.000000 -1.000000 0.000000
vn 1.000000 0.000000 0.000000
vn 1.000000 0.000000 0.000000
vn 1.000000 0.000000 0.000000
vn 1.000000 0.000000 0.000000
vn -1.000000 0.000000 0.000000
vn -1.000000 0.000000 0.000000
vn -1.000000 0.000000 0.000000
vn -1.000000 0.000000 0.000000
vn 0.951055 0.309022 0.000000
vn 0.809014 0.587790 0.000000
vn 0.951059 0.309009 0.000000
vn 0.809021 0.587780 0.000000
vn 0.587788 0.809015 0.000000
vn 0.587784 0.809018 0.000000
vn 0.309020 0.951056 0.000000
vn 0.309013 0.951058 0.000000
vn 0.000000 1.000000 0.000000
vn 0.000000 1.000000 0.000000
vn -0.309018 0.951056 0.000000
vn -0.309021 0.951055 0.000000
vn -0.587782 0.809019 0.000000
vn -0.587786 0.809017 0.000000
vn -0.809014 0.587790 0.000000
vn -0.809013 0.587790 0.000000
vn -0.951060 0.309008 0.000000
vn -0.951055 0.309023 0.000000
vn -1.000000 -0.000008 0.000000
vn -1.000000 0.000008 0.000000
vn -0.951055 -0.309022 0.000000
vn -0.951059 -0.309009 0.000000
vn -0.809014 -0.587790 0.000000
vn -0.809013 -0.587790 0.000000
vn -0.587786 -0.809017 0.000000
vn -0.587782 -0.809019 0.000000
vn -0.309021 -0.951055 0.000000
vn -0.309018 -0.951056 0.000000
vn 0.000000 -1.000000 0.000000
vn 0.000000 -1.000000 0.000000
vn 0.309018 -0.951056 0.000000
vn 0.309018 -0.951056 0.000000
vn 0.587786 -0.809017 0.000000
vn 0.587782 -0.809019 0.000000
vn 0.809022 -0.587778 0.000000
vn 0.809014 -0.587789 0.000000
vn 0.951059 -0.309010 0.000000
vn 0.951054 -0.309025 0.000000
vn 1.000000 0.000000 0.000000
vn 1.000000 -0.000008 0.000000
vn 0.000000 0.000000 -1.000000
vn 0.000000 0.000000 -1.000000
vn 0.000000 0.000000 -1.000000
vn 0.000000 0.000000 -1.000000
vn 0.000000 0.000000 -1.000000
vn 0.000000 0.000000 -1.000000
vn 0.000000 0.000000 -1.000000
vn 0.000000 0.000000 -1.000000
vn 0.000001 0.000000 -1.000000
vn 0.000001 0.000000 -1.000000
vn 0.000000 0.000000 -1.000000
vn 0.000000 0.000000 -1.000000
vn 0.000000 0.000000 -1.000000
vn 0.000000 0.000000 -1.000000
vn 0.000000 0.000000 -1.000000
vn 0.000000 0.000000 -1.000000
vn 0.000000 0.000000 -1.000000
vn 0.000000 0.000000 -1.000000
vn -0.000001 0.000000 -1.000000
vn -0.000001 0.000000 -1.000000
vn 0.000000 0.000000 -1.000000
vn 0.000001 0.000000 1.000000
vn -0.000001 0.000000 1.000000
vn 0.000000 0.000000 1.000000
vn 0.000002 0.000000 1.000000
vn -0.000000 0.000000 1.000000
vn 0.000000 0.000000 1.000000
vn 0.000000 0.000000 1.000000
vn -0.000005 0.000000 1.000000
vn -0.000002 0.000000 1.000000
vn -0.000002 0.000000 1.000000
vn 0.000000 0.000000 1.000000
vn -0.000001 0.000000 1.000000
vn 0.000001 0.000000 1.000000
vn -0.000002 0.000000 1.000000
vn 0.000000 0.000000 1.000000
vn 0.000000 0.000000 1.000000
vn -0.000000 0.000000 1.000000
vn 0.000005 0.000000 1.000000
vn 0.000002 0.000000 1.000000
vn 0.000002 0.000000 1.000000
vn 0.000000 0.000000 1.000000
vn 0.951056 0.309017 0.000000
vn 0.809018 0.587784 0.000000
vn 0.951056 0.309018 0.000000
vn 0.809018 0.587784 0.000000
vn 0.587781 0.809020 0.000000
vn 0.587785 0.809017 0.000000
vn 0.309010 0.951059 0.000000
vn 0.309022 0.951055 0.000000
vn -0.000000 1.000000 0.000000
vn 0.000000 1.000000 0.000000
vn -0.309020 0.951055 0.000000
vn -0.309016 0.951057 0.000000
vn -0.587786 0.809017 0.000000
vn -0.587782 0.809019 0.000000
vn -0.809017 0.587785 0.000000
vn -0.809013 0.587790 0.000000
vn -0.951057 0.309017 0.000000
vn -0.951056 0.309018 0.000000
vn -1.000000 0.000008 0.000000
vn -1.000000 -0.000008 0.000000
vn -0.951056 -0.309017 0.000000
vn -0.951056 -0.309018 0.000000
vn -0.809014 -0.587790 0.000000
vn -0.809017 -0.587785 0.000000
vn -0.587782 -0.809019 0.000000
vn -0.587786 -0.809017 0.000000
vn -0.309016 -0.951057 0.000000
vn -0.309020 -0.951055 0.000000
vn 0.000000 -1.000000 0.000000
vn -0.000000 -1.000000 0.000000
vn 0.309022 -0.951055 0.000000
vn 0.309015 -0.951057 0.000000
vn 0.587782 -0.809019 0.000000
vn 0.587786 -0.809017 0.000000
vn 0.809014 -0.587790 0.000000
vn 0.809017 -0.587785 0.000000
vn 0.951057 -0.309015 0.000000
vn 0.951057 -0.309016 0.000000
vn 1.000000 -0.000010 0.000000
vn 1.000000 -0.000002 0.000000
vn 0.000000 0.000000 -1.000000
vn 0.000000 0.000000 -1.000000
vn 0.000000 0.000000 -1.000000
vn 0.000000 0.000000 -1.000000
vn 0.000000 0.000000 -1.000000
vn 0.000000 0.000000 -1.000000
vn 0.000000 0.000000 -1.000000
vn 0.000000 0.000000 -1.000000
vn 0.000001 0.000000 -1.000000
vn 0.000001 0.000000 -1.000000
vn 0.000000 0.000000 -1.000000
vn 0.000000 0.000000 -1.000000
vn 0.000000 0.000000 -1.000000
vn 0.000000 0.000000 -1.000000
vn 0.000000 0.000000 -1.000000
vn 0.000000 0.000000 -1.000000
vn 0.000000 0.000000 -1.000000
vn 0.000000 0.000000 -1.000000
vn -0.000001 0.000000 -1.000000
vn -0.000001 0.000000 -1.000000
vn 0.000000 0.000000 -1.000000
vn 0.000001 0.000000 1.000000
vn -0.000001 0.000000 1.000000
vn 0.000000 0.000000 1.000000
vn 0.000002 0.000000 1.000000
vn -0.000000 0.000000 1.000000
vn 0.000000 0.000000 1.000000
vn 0.000000 0.000000 1.000000
vn -0.000005 0.000000 1.000000
vn -0.000002 0.000000 1.000000
vn -0.000002 0.000000 1.000000
vn 0.000000 0.000000 1.000000
vn -0.000001 0.000000 1.000000
vn 0.000001 0.000000 1.000000
vn -0.000002 0.000000 1.000000
vn 0.000000 0.000000 1.000000
vn 0.000000 0.000000 1.000000
vn -0.000000 0.000000 1.000000
vn 0.000005 0.000000 1.000000
vn 0.000002 0.000000 1.000000
vn 0.000002 0.000000 1.000000
vn 0.000000 0.000000 1.000000
vn 0.951059 0.309008 0.000000
vn 0.809018 0.587784 0.000000
vn 0.951057 0.309015 0.000000
vn 0.809017 0.587785 0.000000
vn 0.587788 0.809015 0.000000
vn 0.587784 0.809018 0.000000
vn 0.309016 0.951057 0.000000
vn 0.309016 0.951057 0.000000
vn 0.000000 1.000000 0.000000
vn 0.000000 1.000000 0.000000
vn -0.309016 0.951057 0.000000
vn -0.309016 0.951057 0.000000
vn -0.587784 0.809018 0.000000
vn -0.587788 0.809015 0.000000
vn -0.809018 0.587784 0.000000
vn -0.809018 0.587784 0.000000
vn -0.951057 0.309016 0.000000
vn -0.951059 0.309008 0.000000
vn -1.000000 0.000008 0.000000
vn -1.000000 -0.000008 0.000000
vn -0.951059 -0.309009 0.000000
vn -0.951057 -0.309016 0.000000
vn -0.809017 -0.587785 0.000000
vn -0.809018 -0.587784 0.000000
vn -0.587787 -0.809016 0.000000
vn -0.587784 -0.809018 0.000000
vn -0.309017 -0.951057 0.000000
vn -0.309017 -0.951057 0.000000
vn -0.000000 -1.000000 0.000000
vn -0.000000 -1.000000 0.000000
vn 0.309017 -0.951057 0.000000
vn 0.309017 -0.951057 0.000000
vn 0.587783 -0.809019 0.000000
vn 0.587791 -0.809013 0.000000
vn 0.809014 -0.587790 0.000000
vn 0.809022 -0.587779 0.000000
vn 0.951055 -0.309023 0.000000
vn 0.951059 -0.309008 0.000000
vn 1.000000 -0.000008 0.000000
vn 1.000000 0.000008 0.000000
vn 0.000000 0.000000 -1.000000
vn 0.000000 0.000000 -1.000000
vn -0.000001 0.000000 -1.000000
vn 0.000000 0.000000 -1.000000
vn 0.000000 0.000000 -1.000000
vn 0.000000 0.000000 -1.000000
vn 0.000000 0.000000 -1.000000
vn 0.000000 0.000000 -1.000000
vn -0.000001 0.000000 -1.000000
vn -0.000001 0.000000 -1.000000
vn 0.000000 0.000000 -1.000000
vn 0.000000 0.000000 -1.000000
vn -0.000005 0.000000 -1.000000
vn -0.000000 0.000000 -1.000000
vn 0.000000 0.000000 -1.000000
vn -0.000005 0.000000 -1.000000
vn -0.000005 0.000000 -1.000000
vn -0.000002 0.000000 -1.000000
vn 0.000002 0.000000 -1.000000
vn 0.000000 0.000000 -1.000000
vn 0.000000 0.000000 -1.000000
vn 0.000001 0.000000 1.000000
vn 0.000001 0.000000 1.000000
vn -0.000000 0.000000 1.000000
vn 0.000000 0.000000 1.000000
vn -0.000005 0.000000 1.000000
vn 0.000000 0.000000 1.000000
vn 0.000005 0.000000 1.000000
vn 0.000000 0.000000 1.000000
vn 0.000000 0.000000 1.000000
vn 0.000000 0.000000 1.000000
vn 0.000000 0.000000 1.000000
vn -0.000001 0.000000 1.000000
vn -0.000001 0.000000 1.000000
vn 0.000000 0.000000 1.000000
vn 0.000005 0.000000 1.000000
vn 0.000000 0.000000 1.000000
vn -0.000005 0.000000 1.000000
vn 0.000000 0.000000 1.000000
vn 0.000000 0.000000 1.000000
vn 0.000000 0.000000 1.000000
vn 0.000000 0.000000 1.000000
vn 0.951058 0.309013 0.000000
vn 0.809016 0.587786 0.000000
vn 0.951058 0.309014 0.000000
vn 0.809016 0.587787 0.000000
vn 0.587783 0.809019 0.000000
vn 0.587787 0.809016 0.000000
vn 0.309018 0.951056 0.000000
vn 0.309018 0.951056 0.000000
vn 0.000000 1.000000 0.000000
vn 0.000000 1.000000 0.000000
vn -0.309018 0.951056 0.000000
vn -0.309016 0.951057 0.000000
vn -0.587790 0.809014 0.000000
vn -0.587778 0.809022 0.000000
vn -0.809017 0.587786 0.000000
vn -0.809016 0.587786 0.000000
vn -0.951058 0.309013 0.000000
vn -0.951057 0.309014 0.000000
vn -1.000000 -0.000008 0.000000
vn -1.000000 0.000008 0.000000
vn -0.951058 -0.309013 0.000000
vn -0.951057 -0.309014 0.000000
vn -0.809016 -0.587786 0.000000
vn -0.809016 -0.587787 0.000000
vn -0.587778 -0.809022 0.000000
vn -0.587790 -0.809014 0.000000
vn -0.309016 -0.951057 0.000000
vn -0.309018 -0.951056 0.000000
vn 0.000000 -1.000000 0.000000
vn 0.000000 -1.000000 0.000000
vn 0.309018 -0.951056 0.000000
vn 0.309018 -0.951056 0.000000
vn 0.587787 -0.809016 0.000000
vn 0.587783 -0.809019 0.000000
vn 0.809017 -0.587786 0.000000
vn 0.809016 -0.587786 0.000000
vn 0.951058 -0.309013 0.000000
vn 0.951057 -0.309014 0.000000
vn 1.000000 0.000008 0.000000
vn 1.000000 -0.000008 0.000000
vn 0.000000 0.000000 -1.000000
vn 0.000000 0.000000 -1.000000
vn 0.000000 0.000000 -1.000000
vn 0.000000 0.000000 -1.000000
vn 0.000000 0.000000 -1.000000
vn 0.000000 0.000000 -1.000000
vn 0.000000 0.000000 -1.000000
vn 0.000000 0.000000 -1.000000
vn 0.000001 0.000000 -1.000000
vn 0.000001 0.000000 -1.000000
vn 0.000000 0.000000 -1.000000
vn 0.000000 0.000000 -1.000000
vn 0.000000 0.000000 -1.000000
vn 0.000000 0.000000 -1.000000
vn 0.000000 0.000000 -1.000000
vn 0.000000 0.000000 -1.000000
vn 0.000000 0.000000 -1.000000
vn 0.000000 0.000000 -1.000000
vn -0.000001 0.000000 -1.000000
vn -0.000001 0.000000 -1.000000
vn 0.000000 0.000000 -1.000000
vn 0.000001 0.000000 1.000000
vn -0.000001 0.000000 1.000000
vn -0.000000 0.000000 1.000000
vn 0.000002 0.000000 1.000000
vn -0.000000 0.000000 1.000000
vn 0.000000 0.000000 1.000000
vn 0.000000 0.000000 1.000000
vn -0.000005 0.000000 1.000000
vn -0.000002 0.000000 1.000000
vn -0.000002 0.000000 1.000000
vn 0.000000 0.000000 1.000000
vn -0.000001 0.000000 1.000000
vn 0.000001 0.000000 1.000000
vn -0.000002 0.000000 1.000000
vn -0.000000 0.000000 1.000000
vn 0.000000 0.000000 1.000000
vn -0.000000 0.000000 1.000000
vn 0.000005 0.000000 1.000000
vn 0.000002 0.000000 1.000000
vn 0.000002 0.000000 1.000000
vn 0.000000 0.000000 1.000000
vn 0.000000 0.000000 1.000000
vn 0.000000 0.000000 1.000000
vn 0.000000 0.000000 1.000000
vn 0.000000 0.000000 1.000000
vn 0.000000 1.000000 0.000000
vn 0.000000 1.000000 0.000000
vn 0.000000 1.000000 0.000000
vn 0.000000 1.000000 0.000000
vn 0.000000 0.000000 -1.000000
vn 0.000000 0.000000 -1.000000
vn 0.000000 0.000000 -1.000000
vn 0.000000 0.000000 -1.000000
vn 0.000000 -1.000000 0.000000
vn 0.000000 -1.000000 0.000000
vn 0.000000 -1.000000 0.000000
vn 0.000000 -1.000000 0.000000
vn 1.000000 0.000000 0.000000
vn 1.000000 0.000000 0.000000
vn 1.000000 0.000000 0.000000
vn 1.000000 0.000000 0.000000
vn -1.000000 0.000000 0.000000
vn -1.000000 0.000000 0.000000
vn -1.000000 0.000000 0.000000
vn -1.000000 0.000000 0.000000
vn 0.000000 0.000000 1.000000
vn 0.000000 0.000000 1.000000
vn 0.000000 0.000000 1.000000
vn 0.000000 0.000000 1.000000
vn 0.000000 1.000000 0.000000
vn 0.000000 1.000000 0.000000
vn 0.000000 1.000000 0.000000
vn 0.000000 1.000000 0.000000
vn 0.000000 0.000000 -1.000000
vn 0.000000 0.000000 -1.000000
vn 0.000000 0.000000 -1.000000
vn 0.000000 0.000000 -1.000000
vn 0.000000 -1.000000 0.000000
vn 0.000000 -1.000000 0.000000
vn 0.000000 -1.000000 0.000000
vn 0.000000 -1.000000 0.000000
vn 1.000000 0.000000 0.000000
vn 1.000000 0.000000 0.000000
vn 1.000000 0.000000 0.000000
vn 1.000000 0.000000 0.000000
vn -1.000000 0.000000 0.000000
vn -1.000000 0.000000 0.000000
vn -1.000000 0.000000 0.000000
vn -1.000000 0.000000 0.000000
vn 0.000000 0.000000 1.000000
vn 0.000000 0.000000 1.000000
vn 0.000000 0.000000 1.000000
vn 0.000000 0.000000 1.000000
vn 0.000000 1.000000 0.000000
vn 0.000000 1.000000 0.000000
vn 0.000000 1.000000 0.000000
vn 0.000000 1.000000 0.000000
vn 0.000000 0.000000 -1.000000
vn 0.000000 0.000000 -1.000000
vn 0.000000 0.000000 -1.000000
vn 0.000000 0.000000 -1.000000
vn 0.000000 -1.000000 0.000000
vn 0.000000 -1.000000 0.000000
vn 0.000000 -1.000000 0.000000
vn 0.000000 -1.000000 0.000000
vn 1.000000 0.000000 0.000000
vn 1.000000 0.000000 0.000000
vn 1.000000 0.000000 0.000000
vn 1.000000 0.000000 0.000000
vn -1.000000 0.000000 0.000000
vn -1.000000 0.000000 0.000000
vn -1.000000 0.000000 0.000000
vn -1.000000 0.000000 0.000000
s 1
g pasted__pasted__pasted__pasted__pasted__pasted__pCylinder1
usemtl phong1SG
f 1/21/1 2/22/2 22/43/3 21/42/4
f 2/22/2 3/23/5 23/44/6 22/43/3
f 3/23/5 4/24/7 24/45/8 23/44/6
f 4/24/7 5/25/9 25/46/10 24/45/8
f 5/25/9 6/26/11 26/47/12 25/46/10
f 6/26/11 7/27/13 27/48/14 26/47/12
f 7/27/13 8/28/15 28/49/16 27/48/14
f 8/28/15 9/29/17 29/50/18 28/49/16
f 9/29/17 10/30/19 30/51/20 29/50/18
f 10/30/19 11/31/21 31/52/22 30/51/20
f 11/31/21 12/32/23 32/53/24 31/52/22
f 12/32/23 13/33/25 33/54/26 32/53/24
f 13/33/25 14/34/27 34/55/28 33/54/26
f 14/34/27 15/35/29 35/56/30 34/55/28
f 15/35/29 16/36/31 36/57/32 35/56/30
f 16/36/31 17/37/33 37/58/34 36/57/32
f 17/37/33 18/38/35 38/59/36 37/58/34
f 18/38/35 19/39/37 39/60/38 38/59/36
f 19/39/37 20/40/39 40/61/40 39/60/38
f 20/40/39 1/41/1 21/62/4 40/61/40
s 2
f 2/2/41 1/1/42 41/83/43
f 3/3/44 2/2/41 41/83/43
f 4/4/45 3/3/44 41/83/43
f 5/5/46 4/4/45 41/83/43
f 6/6/47 5/5/46 41/83/43
f 7/7/48 6/6/47 41/83/43
f 8/8/49 7/7/48 41/83/43
f 9/9/50 8/8/49 41/83/43
f 10/10/51 9/9/50 41/83/43
f 11/11/52 10/10/51 41/83/43
f 12/12/53 11/11/52 41/83/43
f 13/13/54 12/12/53 41/83/43
f 14/14/55 13/13/54 41/83/43
f 15/15/56 14/14/55 41/83/43
f 16/16/57 15/15/56 41/83/43
f 17/17/58 16/16/57 41/83/43
f 18/18/59 17/17/58 41/83/43
f 19/19/60 18/18/59 41/83/43
f 20/20/61 19/19/60 41/83/43
f 1/1/42 20/20/61 41/83/43
s 3
f 21/81/62 22/80/63 42/84/64
f 22/80/63 23/79/65 42/84/64
f 23/79/65 24/78/66 42/84/64
f 24/78/66 25/77/67 42/84/64
f 25/77/67 26/76/68 42/84/64
f 26/76/68 27/75/69 42/84/64
f 27/75/69 28/74/70 42/84/64
f 28/74/70 29/73/71 42/84/64
f 29/73/71 30/72/72 42/84/64
f 30/72/72 31/71/73 42/84/64
f 31/71/73 32/70/74 42/84/64
f 32/70/74 33/69/75 42/84/64
f 33/69/75 34/68/76 42/84/64
f 34/68/76 35/67/77 42/84/64
f 35/67/77 36/66/78 42/84/64
f 36/66/78 37/65/79 42/84/64
f 37/65/79 38/64/80 42/84/64
f 38/64/80 39/63/81 42/84/64
f 39/63/81 40/82/82 42/84/64
f 40/82/82 21/81/62 42/84/64
s 4
f 43/85/83 44/86/84 45/87/85
f 45/87/85 44/86/84 46/88/86
s 5
f 45/87/87 46/88/88 47/89/89
f 47/89/89 46/88/88 48/90/90
s 6
f 47/89/91 48/90/92 49/91/93
f 49/91/93 48/90/92 50/92/94
s 7
f 49/91/95 50/92/96 43/93/97
f 43/93/97 50/92/96 44/94/98
s 8
f 44/86/99 50/95/100 46/88/101
f 46/88/101 50/95/100 48/96/102
s 9
f 49/97/103 43/85/104 47/98/105
f 47/98/105 43/85/104 45/87/106
s 10
f 51/99/107 52/100/108 71/101/109
f 71/101/109 52/100/108 72/102/110
f 52/100/108 53/103/111 72/102/110
f 72/102/110 53/103/111 73/104/112
f 53/103/111 54/105/113 73/104/112
f 73/104/112 54/105/113 74/106/114
f 54/105/113 55/107/115 74/106/114
f 74/106/114 55/107/115 75/108/116
f 55/107/115 56/109/117 75/108/116
f 75/108/116 56/109/117 76/110/118
f 56/109/117 57/111/119 76/110/118
f 76/110/118 57/111/119 77/112/120
f 57/111/119 58/113/121 77/112/120
f 77/112/120 58/113/121 78/114/122
f 58/113/121 59/115/123 78/114/122
f 78/114/122 59/115/123 79/116/124
f 59/115/123 60/117/125 79/116/124
f 79/116/124 60/117/125 80/118/126
f 60/117/125 61/119/127 80/118/126
f 80/118/126 61/119/127 81/120/128
f 61/119/127 62/121/129 81/120/128
f 81/120/128 62/121/129 82/122/130
f 62/121/129 63/123/131 82/122/130
f 82/122/130 63/123/131 83/124/132
f 63/123/131 64/125/133 83/124/132
f 83/124/132 64/125/133 84/126/134
f 64/125/133 65/127/135 84/126/134
f 84/126/134 65/127/135 85/128/136
f 65/127/135 66/129/137 85/128/136
f 85/128/136 66/129/137 86/130/138
f 66/129/137 67/131/139 86/130/138
f 86/130/138 67/131/139 87/132/140
f 67/131/139 68/133/141 87/132/140
f 87/132/140 68/133/141 88/134/142
f 68/133/141 69/135/143 88/134/142
f 88/134/142 69/135/143 89/136/144
f 69/135/143 70/137/145 89/136/144
f 89/136/144 70/137/145 90/138/146
f 70/137/145 51/139/107 90/138/146
f 90/138/146 51/139/107 71/140/109
s 11
f 52/141/147 51/142/148 91/143/149
f 53/144/150 52/141/147 91/143/149
f 54/145/151 53/144/150 91/143/149
f 55/146/152 54/145/151 91/143/149
f 56/147/153 55/146/152 91/143/149
f 57/148/154 56/147/153 91/143/149
f 58/149/155 57/148/154 91/143/149
f 59/150/156 58/149/155 91/143/149
f 60/151/157 59/150/156 91/143/149
f 61/152/158 60/151/157 91/143/149
f 62/153/159 61/152/158 91/143/149
f 63/154/160 62/153/159 91/143/149
f 64/155/161 63/154/160 91/143/149
f 65/156/162 64/155/161 91/143/149
f 66/157/163 65/156/162 91/143/149
f 67/158/164 66/157/163 91/143/149
f 68/159/165 67/158/164 91/143/149
f 69/160/166 68/159/165 91/143/149
f 70/161/167 69/160/166 91/143/149
f 51/142/148 70/161/167 91/143/149
s 12
f 71/162/168 72/163/169 92/164/170
f 72/163/169 73/165/171 92/164/170
f 73/165/171 74/166/172 92/164/170
f 74/166/172 75/167/173 92/164/170
f 75/167/173 76/168/174 92/164/170
f 76/168/174 77/169/175 92/164/170
f 77/169/175 78/170/176 92/164/170
f 78/170/176 79/171/177 92/164/170
f 79/171/177 80/172/178 92/164/170
f 80/172/178 81/173/179 92/164/170
f 81/173/179 82/174/180 92/164/170
f 82/174/180 83/175/181 92/164/170
f 83/175/181 84/176/182 92/164/170
f 84/176/182 85/177/183 92/164/170
f 85/177/183 86/178/184 92/164/170
f 86/178/184 87/179/185 92/164/170
f 87/179/185 88/180/186 92/164/170
f 88/180/186 89/181/187 92/164/170
f 89/181/187 90/182/188 92/164/170
f 90/182/188 71/162/168 92/164/170
s 13
f 93/183/189 94/184/190 113/185/191
f 113/185/191 94/184/190 114/186/192
f 94/184/190 95/187/193 114/186/192
f 114/186/192 95/187/193 115/188/194
f 95/187/193 96/189/195 115/188/194
f 115/188/194 96/189/195 116/190/196
f 96/189/195 97/191/197 116/190/196
f 116/190/196 97/191/197 117/192/198
f 97/191/197 98/193/199 117/192/198
f 117/192/198 98/193/199 118/194/200
f 98/193/199 99/195/201 118/194/200
f 118/194/200 99/195/201 119/196/202
f 99/195/201 100/197/203 119/196/202
f 119/196/202 100/197/203 120/198/204
f 100/197/203 101/199/205 120/198/204
f 120/198/204 101/199/205 121/200/206
f 101/199/205 102/201/207 121/200/206
f 121/200/206 102/201/207 122/202/208
f 102/201/207 103/203/209 122/202/208
f 122/202/208 103/203/209 123/204/210
f 103/203/209 104/205/211 123/204/210
f 123/204/210 104/205/211 124/206/212
f 104/205/211 105/207/213 124/206/212
f 124/206/212 105/207/213 125/208/214
f 105/207/213 106/209/215 125/208/214
f 125/208/214 106/209/215 126/210/216
f 106/209/215 107/211/217 126/210/216
f 126/210/216 107/211/217 127/212/218
f 107/211/217 108/213/219 127/212/218
f 127/212/218 108/213/219 128/214/220
f 108/213/219 109/215/221 128/214/220
f 128/214/220 109/215/221 129/216/222
f 109/215/221 110/217/223 129/216/222
f 129/216/222 110/217/223 130/218/224
f 110/217/223 111/219/225 130/218/224
f 130/218/224 111/219/225 131/220/226
f 111/219/225 112/221/227 131/220/226
f 131/220/226 112/221/227 132/222/228
f 112/221/227 93/223/189 132/222/228
f 132/222/228 93/223/189 113/224/191
s 14
f 94/225/229 93/226/230 133/227/231
f 95/228/232 94/225/229 133/227/231
f 96/229/233 95/228/232 133/227/231
f 97/230/234 96/229/233 133/227/231
f 98/231/235 97/230/234 133/227/231
f 99/232/236 98/231/235 133/227/231
f 100/233/237 99/232/236 133/227/231
f 101/234/238 100/233/237 133/227/231
f 102/235/239 101/234/238 133/227/231
f 103/236/240 102/235/239 133/227/231
f 104/237/241 103/236/240 133/227/231
f 105/238/242 104/237/241 133/227/231
f 106/239/243 105/238/242 133/227/231
f 107/240/244 106/239/243 133/227/231
f 108/241/245 107/240/244 133/227/231
f 109/242/246 108/241/245 133/227/231
f 110/243/247 109/242/246 133/227/231
f 111/244/248 110/243/247 133/227/231
f 112/245/249 111/244/248 133/227/231
f 93/226/230 112/245/249 133/227/231
s 15
f 113/246/250 114/247/251 134/248/252
f 114/247/251 115/249/253 134/248/252
f 115/249/253 116/250/254 134/248/252
f 116/250/254 117/251/255 134/248/252
f 117/251/255 118/252/256 134/248/252
f 118/252/256 119/253/257 134/248/252
f 119/253/257 120/254/258 134/248/252
f 120/254/258 121/255/259 134/248/252
f 121/255/259 122/256/260 134/248/252
f 122/256/260 123/257/261 134/248/252
f 123/257/261 124/258/262 134/248/252
f 124/258/262 125/259/263 134/248/252
f 125/259/263 126/260/264 134/248/252
f 126/260/264 127/261/265 134/248/252
f 127/261/265 128/262/266 134/248/252
f 128/262/266 129/263/267 134/248/252
f 129/263/267 130/264/268 134/248/252
f 130/264/268 131/265/269 134/248/252
f 131/265/269 132/266/270 134/248/252
f 132/266/270 113/246/250 134/248/252
s 16
f 135/267/271 136/268/272 155/269/273
f 155/269/273 136/268/272 156/270/274
f 136/268/272 137/271/275 156/270/274
f 156/270/274 137/271/275 157/272/276
f 137/271/275 138/273/277 157/272/276
f 157/272/276 138/273/277 158/274/278
f 138/273/277 139/275/279 158/274/278
f 158/274/278 139/275/279 159/276/280
f 139/275/279 140/277/281 159/276/280
f 159/276/280 140/277/281 160/278/282
f 140/277/281 141/279/283 160/278/282
f 160/278/282 141/279/283 161/280/284
f 141/279/283 142/281/285 161/280/284
f 161/280/284 142/281/285 162/282/286
f 142/281/285 143/283/287 162/282/286
f 162/282/286 143/283/287 163/284/288
f 143/283/287 144/285/289 163/284/288
f 163/284/288 144/285/289 164/286/290
f 144/285/289 145/287/291 164/286/290
f 164/286/290 145/287/291 165/288/292
f 145/287/291 146/289/293 165/288/292
f 165/288/292 146/289/293 166/290/294
f 146/289/293 147/291/295 166/290/294
f 166/290/294 147/291/295 167/292/296
f 147/291/295 148/293/297 167/292/296
f 167/292/296 148/293/297 168/294/298
f 148/293/297 149/295/299 168/294/298
f 168/294/298 149/295/299 169/296/300
f 149/295/299 150/297/301 169/296/300
f 169/296/300 150/297/301 170/298/302
f 150/297/301 151/299/303 170/298/302
f 170/298/302 151/299/303 171/300/304
f 151/299/303 152/301/305 171/300/304
f 171/300/304 152/301/305 172/302/306
f 152/301/305 153/303/307 172/302/306
f 172/302/306 153/303/307 173/304/308
f 153/303/307 154/305/309 173/304/308
f 173/304/308 154/305/309 174/306/310
f 154/305/309 135/307/271 174/306/310
f 174/306/310 135/307/271 155/308/273
s 17
f 136/309/311 135/310/312 175/311/313
f 137/312/314 136/309/311 175/311/313
f 138/313/315 137/312/314 175/311/313
f 139/314/316 138/313/315 175/311/313
f 140/315/317 139/314/316 175/311/313
f 141/316/318 140/315/317 175/311/313
f 142/317/319 141/316/318 175/311/313
f 143/318/320 142/317/319 175/311/313
f 144/319/321 143/318/320 175/311/313
f 145/320/322 144/319/321 175/311/313
f 146/321/323 145/320/322 175/311/313
f 147/322/324 146/321/323 175/311/313
f 148/323/325 147/322/324 175/311/313
f 149/324/326 148/323/325 175/311/313
f 150/325/327 149/324/326 175/311/313
f 151/326/328 150/325/327 175/311/313
f 152/327/329 151/326/328 175/311/313
f 153/328/330 152/327/329 175/311/313
f 154/329/331 153/328/330 175/311/313
f 135/310/312 154/329/331 175/311/313
s 18
f 155/330/332 156/331/333 176/332/334
f 156/331/333 157/333/335 176/332/334
f 157/333/335 158/334/336 176/332/334
f 158/334/336 159/335/337 176/332/334
f 159/335/337 160/336/338 176/332/334
f 160/336/338 161/337/339 176/332/334
f 161/337/339 162/338/340 176/332/334
f 162/338/340 163/339/341 176/332/334
f 163/339/341 164/340/342 176/332/334
f 164/340/342 165/341/343 176/332/334
f 165/341/343 166/342/344 176/332/334
f 166/342/344 167/343/345 176/332/334
f 167/343/345 168/344/346 176/332/334
f 168/344/346 169/345/347 176/332/334
f 169/345/347 170/346/348 176/332/334
f 170/346/348 171/347/349 176/332/334
f 171/347/349 172/348/350 176/332/334
f 172/348/350 173/349/351 176/332/334
f 173/349/351 174/350/352 176/332/334
f 174/350/352 155/330/332 176/332/334
s 19
f 177/351/353 178/352/354 197/353/355
f 197/353/355 178/352/354 198/354/356
f 178/352/354 179/355/357 198/354/356
f 198/354/356 179/355/357 199/356/358
f 179/355/357 180/357/359 199/356/358
f 199/356/358 180/357/359 200/358/360
f 180/357/359 181/359/361 200/358/360
f 200/358/360 181/359/361 201/360/362
f 181/359/361 182/361/363 201/360/362
f 201/360/362 182/361/363 202/362/364
f 182/361/363 183/363/365 202/362/364
f 202/362/364 183/363/365 203/364/366
f 183/363/365 184/365/367 203/364/366
f 203/364/366 184/365/367 204/366/368
f 184/365/367 185/367/369 204/366/368
f 204/366/368 185/367/369 205/368/370
f 185/367/369 186/369/371 205/368/370
f 205/368/370 186/369/371 206/370/372
f 186/369/371 187/371/373 206/370/372
f 206/370/372 187/371/373 207/372/374
f 187/371/373 188/373/375 207/372/374
f 207/372/374 188/373/375 208/374/376
f 188/373/375 189/375/377 208/374/376
f 208/374/376 189/375/377 209/376/378
f 189/375/377 190/377/379 209/376/378
f 209/376/378 190/377/379 210/378/380
f 190/377/379 191/379/381 210/378/380
f 210/378/380 191/379/381 211/380/382
f 191/379/381 192/381/383 211/380/382
f 211/380/382 192/381/383 212/382/384
f 192/381/383 193/383/385 212/382/384
f 212/382/384 193/383/385 213/384/386
f 193/383/385 194/385/387 213/384/386
f 213/384/386 194/385/387 214/386/388
f 194/385/387 195/387/389 214/386/388
f 214/386/388 195/387/389 215/388/390
f 195/387/389 196/389/391 215/388/390
f 215/388/390 196/389/391 216/390/392
f 196/389/391 177/391/353 216/390/392
f 216/390/392 177/391/353 197/392/355
s 20
f 178/393/393 177/394/394 217/395/395
f 179/396/396 178/393/393 217/395/395
f 180/397/397 179/396/396 217/395/395
f 181/398/398 180/397/397 217/395/395
f 182/399/399 181/398/398 217/395/395
f 183/400/400 182/399/399 217/395/395
f 184/401/401 183/400/400 217/395/395
f 185/402/402 184/401/401 217/395/395
f 186/403/403 185/402/402 217/395/395
f 187/404/404 186/403/403 217/395/395
f 188/405/405 187/404/404 217/395/395
f 189/406/406 188/405/405 217/395/395
f 190/407/407 189/406/406 217/395/395
f 191/408/408 190/407/407 217/395/395
f 192/409/409 191/408/408 217/395/395
f 193/410/410 192/409/409 217/395/395
f 194/411/411 193/410/410 217/395/395
f 195/412/412 194/411/411 217/395/395
f 196/413/413 195/412/412 217/395/395
f 177/394/394 196/413/413 217/395/395
s 21
f 197/414/414 198/415/415 218/416/416
f 198/415/415 199/417/417 218/416/416
f 199/417/417 200/418/418 218/416/416
f 200/418/418 201/419/419 218/416/416
f 201/419/419 202/420/420 218/416/416
f 202/420/420 203/421/421 218/416/416
f 203/421/421 204/422/422 218/416/416
f 204/422/422 205/423/423 218/416/416
f 205/423/423 206/424/424 218/416/416
f 206/424/424 207/425/425 218/416/416
f 207/425/425 208/426/426 218/416/416
f 208/426/426 209/427/427 218/416/416
f 209/427/427 210/428/428 218/416/416
f 210/428/428 211/429/429 218/416/416
f 211/429/429 212/430/430 218/416/416
f 212/430/430 213/431/431 218/416/416
f 213/431/431 214/432/432 218/416/416
f 214/432/432 215/433/433 218/416/416
f 215/433/433 216/434/434 218/416/416
f 216/434/434 197/414/414 218/416/416
s 22
f 219/435/435 220/436/436 221/437/437
f 221/437/437 220/436/436 222/438/438
s 23
f 221/437/439 222/438/440 223/439/441
f 223/439/441 222/438/440 224/440/442
s 24
f 223/439/443 224/440/444 225/441/445
f 225/441/445 224/440/444 226/442/446
s 25
f 225/441/447 226/442/448 219/443/449
f 219/443/449 226/442/448 220/444/450
s 26
f 220/436/451 226/445/452 222/438/453
f 222/438/453 226/445/452 224/446/454
s 27
f 225/447/455 219/435/456 223/448/457
f 223/448/457 219/435/456 221/437/458
s 28
usemtl oak_lab:oak_lab6:oak_lab5:oak_lab4:oak_lab2:pasted__phong1SG
f 227/449/459 228/450/460 229/451/461
f 229/451/461 228/450/460 230/452/462
s 29
f 229/451/463 230/452/464 231/453/465
f 231/453/465 230/452/464 232/454/466
s 30
f 231/453/467 232/454/468 233/455/469
f 233/455/469 232/454/468 234/456/470
s 31
f 233/455/471 234/456/472 227/457/473
f 227/457/473 234/456/472 228/458/474
s 32
f 228/450/475 234/459/476 230/452/477
f 230/452/477 234/459/476 232/460/478
s 33
f 233/461/479 227/449/480 231/462/481
f 231/462/481 227/449/480 229/451/482
s 34
usemtl oak_lab:oak_lab6:oak_lab4:oak_lab2:pasted__phong1SG
f 235/463/483 236/464/484 237/465/485
f 237/465/485 236/464/484 238/466/486
s 35
f 237/465/487 238/466/488 239/467/489
f 239/467/489 238/466/488 240/468/490
s 36
f 239/467/491 240/468/492 241/469/493
f 241/469/493 240/468/492 242/470/494
s 37
f 241/469/495 242/470/496 235/471/497
f 235/471/497 242/470/496 236/472/498
s 38
f 236/464/499 242/473/500 238/466/501
f 238/466/501 242/473/500 240/474/502
s 39
f 241/475/503 235/463/504 239/476/505
f 239/476/505 235/463/504 237/465/506
