# This file uses centimeters as units for non-parametric coordinates.

mtllib Ventanas.mtl
g default
v 36.375704 9.847317 15.192968
v 36.261951 10.070571 15.192968
v 36.084776 10.247746 15.192968
v 35.861523 10.361499 15.192968
v 35.614044 10.400696 15.192968
v 35.366566 10.361499 15.192968
v 35.143313 10.247746 15.192968
v 34.966138 10.070571 15.192968
v 34.852385 9.847317 15.192968
v 34.813188 9.599839 15.192968
v 34.852385 9.352361 15.192968
v 34.966138 9.129108 15.192968
v 35.143313 8.951933 15.192968
v 35.366566 8.838179 15.192968
v 35.614044 8.798983 15.192968
v 35.861523 8.838180 15.192968
v 36.084776 8.951933 15.192968
v 36.261951 9.129108 15.192968
v 36.375704 9.352361 15.192968
v 36.414901 9.599839 15.192968
v 36.375704 9.847317 15.962745
v 36.261951 10.070571 15.962745
v 36.084776 10.247746 15.962745
v 35.861523 10.361499 15.962745
v 35.614044 10.400696 15.962745
v 35.366566 10.361499 15.962745
v 35.143313 10.247746 15.962745
v 34.966138 10.070571 15.962745
v 34.852385 9.847317 15.962745
v 34.813188 9.599839 15.962745
v 34.852385 9.352361 15.962745
v 34.966138 9.129108 15.962745
v 35.143313 8.951933 15.962745
v 35.366566 8.838179 15.962745
v 35.614044 8.798983 15.962745
v 35.861523 8.838180 15.962745
v 36.084776 8.951933 15.962745
v 36.261951 9.129108 15.962745
v 36.375704 9.352361 15.962745
v 36.414901 9.599839 15.962745
v 35.614044 9.599839 15.192968
v 35.614044 9.599839 15.962745
vt 0.648603 0.107966
vt 0.626409 0.064408
vt 0.591842 0.029841
vt 0.548284 0.007647
vt 0.500000 -0.000000
vt 0.451716 0.007647
vt 0.408159 0.029841
vt 0.373591 0.064409
vt 0.351397 0.107966
vt 0.343750 0.156250
vt 0.351397 0.204534
vt 0.373591 0.248091
vt 0.408159 0.282659
vt 0.451716 0.304853
vt 0.500000 0.312500
vt 0.548284 0.304853
vt 0.591841 0.282659
vt 0.626409 0.248091
vt 0.648603 0.204534
vt 0.656250 0.156250
vt 0.375000 0.312500
vt 0.387500 0.312500
vt 0.400000 0.312500
vt 0.412500 0.312500
vt 0.425000 0.312500
vt 0.437500 0.312500
vt 0.450000 0.312500
vt 0.462500 0.312500
vt 0.475000 0.312500
vt 0.487500 0.312500
vt 0.500000 0.312500
vt 0.512500 0.312500
vt 0.525000 0.312500
vt 0.537500 0.312500
vt 0.550000 0.312500
vt 0.562500 0.312500
vt 0.575000 0.312500
vt 0.587500 0.312500
vt 0.600000 0.312500
vt 0.612500 0.312500
vt 0.625000 0.312500
vt 0.375000 0.687500
vt 0.387500 0.687500
vt 0.400000 0.687500
vt 0.412500 0.687500
vt 0.425000 0.687500
vt 0.437500 0.687500
vt 0.450000 0.687500
vt 0.462500 0.687500
vt 0.475000 0.687500
vt 0.487500 0.687500
vt 0.500000 0.687500
vt 0.512500 0.687500
vt 0.525000 0.687500
vt 0.537500 0.687500
vt 0.550000 0.687500
vt 0.562500 0.687500
vt 0.575000 0.687500
vt 0.587500 0.687500
vt 0.600000 0.687500
vt 0.612500 0.687500
vt 0.625000 0.687500
vt 0.648603 0.795466
vt 0.626409 0.751908
vt 0.591842 0.717341
vt 0.548284 0.695147
vt 0.500000 0.687500
vt 0.451716 0.695147
vt 0.408159 0.717341
vt 0.373591 0.751909
vt 0.351397 0.795466
vt 0.343750 0.843750
vt 0.351397 0.892034
vt 0.373591 0.935591
vt 0.408159 0.970159
vt 0.451716 0.992353
vt 0.500000 1.000000
vt 0.548284 0.992353
vt 0.591841 0.970159
vt 0.626409 0.935591
vt 0.648603 0.892034
vt 0.656250 0.843750
vt 0.500000 0.156250
vt 0.500000 0.843750
vn 0.951057 0.309016 0.000000
vn 0.809017 0.587785 0.000000
vn 0.809017 0.587785 0.000000
vn 0.951057 0.309016 0.000000
vn 0.587785 0.809017 0.000000
vn 0.587785 0.809017 0.000000
vn 0.309017 0.951057 0.000000
vn 0.309017 0.951057 0.000000
vn -0.000000 1.000000 0.000000
vn -0.000000 1.000000 0.000000
vn -0.309017 0.951056 0.000000
vn -0.309017 0.951056 0.000000
vn -0.587785 0.809017 0.000000
vn -0.587785 0.809017 0.000000
vn -0.809017 0.587785 0.000000
vn -0.809017 0.587785 0.000000
vn -0.951057 0.309017 0.000000
vn -0.951057 0.309017 0.000000
vn -1.000000 0.000000 0.000000
vn -1.000000 0.000000 0.000000
vn -0.951056 -0.309017 0.000000
vn -0.951056 -0.309017 0.000000
vn -0.809017 -0.587785 0.000000
vn -0.809017 -0.587785 0.000000
vn -0.587785 -0.809017 0.000000
vn -0.587785 -0.809017 0.000000
vn -0.309017 -0.951057 0.000000
vn -0.309017 -0.951057 0.000000
vn 0.000000 -1.000000 0.000000
vn 0.000000 -1.000000 0.000000
vn 0.309017 -0.951056 0.000000
vn 0.309017 -0.951056 0.000000
vn 0.587785 -0.809017 0.000000
vn 0.587785 -0.809017 0.000000
vn 0.809017 -0.587785 0.000000
vn 0.809017 -0.587785 0.000000
vn 0.951056 -0.309017 0.000000
vn 0.951056 -0.309017 0.000000
vn 1.000000 -0.000001 0.000000
vn 1.000000 -0.000001 0.000000
vn 0.000000 -0.000000 -1.000000
vn 0.000000 -0.000000 -1.000000
vn 0.000000 -0.000000 -1.000000
vn 0.000000 -0.000000 -1.000000
vn 0.000000 -0.000000 -1.000000
vn 0.000000 -0.000000 -1.000000
vn 0.000000 -0.000000 -1.000000
vn 0.000000 -0.000000 -1.000000
vn 0.000000 -0.000000 -1.000000
vn 0.000000 -0.000000 -1.000000
vn 0.000000 -0.000000 -1.000000
vn 0.000000 -0.000000 -1.000000
vn 0.000000 -0.000000 -1.000000
vn 0.000000 -0.000000 -1.000000
vn 0.000000 -0.000000 -1.000000
vn 0.000000 -0.000000 -1.000000
vn 0.000000 -0.000000 -1.000000
vn 0.000000 -0.000000 -1.000000
vn 0.000000 -0.000000 -1.000000
vn 0.000000 -0.000000 -1.000000
vn 0.000000 -0.000000 -1.000000
vn 0.000000 0.000000 1.000000
vn 0.000000 0.000000 1.000000
vn 0.000000 0.000000 1.000000
vn 0.000000 0.000000 1.000000
vn 0.000000 0.000000 1.000000
vn 0.000000 0.000000 1.000000
vn 0.000000 0.000000 1.000000
vn 0.000000 0.000000 1.000000
vn 0.000000 0.000000 1.000000
vn 0.000000 0.000000 1.000000
vn 0.000000 0.000000 1.000000
vn 0.000000 0.000000 1.000000
vn 0.000000 0.000000 1.000000
vn 0.000000 0.000000 1.000000
vn 0.000000 0.000000 1.000000
vn 0.000000 0.000000 1.000000
vn 0.000000 0.000000 1.000000
vn 0.000000 0.000000 1.000000
vn 0.000000 0.000000 1.000000
vn 0.000000 0.000000 1.000000
vn 0.000000 0.000000 1.000000
s 1
g pasted__pasted__pasted__pasted__pasted__pasted__pasted__pCylinder1 pasted__pasted__pasted__pasted__pasted__pasted__group15 pasted__pasted__pasted__pasted__pasted__group16 pasted__pasted__pasted__pasted__group17 pasted__pasted__pasted__group27 pasted__pasted__group28 pasted__group29 group31
usemtl initialShadingGroup
f 1/21/1 2/22/2 22/43/3 21/42/4
f 2/22/2 3/23/5 23/44/6 22/43/3
f 3/23/5 4/24/7 24/45/8 23/44/6
f 4/24/7 5/25/9 25/46/10 24/45/8
f 5/25/9 6/26/11 26/47/12 25/46/10
f 6/26/11 7/27/13 27/48/14 26/47/12
f 7/27/13 8/28/15 28/49/16 27/48/14
f 8/28/15 9/29/17 29/50/18 28/49/16
f 9/29/17 10/30/19 30/51/20 29/50/18
f 10/30/19 11/31/21 31/52/22 30/51/20
f 11/31/21 12/32/23 32/53/24 31/52/22
f 12/32/23 13/33/25 33/54/26 32/53/24
f 13/33/25 14/34/27 34/55/28 33/54/26
f 14/34/27 15/35/29 35/56/30 34/55/28
f 15/35/29 16/36/31 36/57/32 35/56/30
f 16/36/31 17/37/33 37/58/34 36/57/32
f 17/37/33 18/38/35 38/59/36 37/58/34
f 18/38/35 19/39/37 39/60/38 38/59/36
f 19/39/37 20/40/39 40/61/40 39/60/38
f 20/40/39 1/41/1 21/62/4 40/61/40
s 2
f 2/2/41 1/1/42 41/83/43
f 3/3/44 2/2/41 41/83/43
f 4/4/45 3/3/44 41/83/43
f 5/5/46 4/4/45 41/83/43
f 6/6/47 5/5/46 41/83/43
f 7/7/48 6/6/47 41/83/43
f 8/8/49 7/7/48 41/83/43
f 9/9/50 8/8/49 41/83/43
f 10/10/51 9/9/50 41/83/43
f 11/11/52 10/10/51 41/83/43
f 12/12/53 11/11/52 41/83/43
f 13/13/54 12/12/53 41/83/43
f 14/14/55 13/13/54 41/83/43
f 15/15/56 14/14/55 41/83/43
f 16/16/57 15/15/56 41/83/43
f 17/17/58 16/16/57 41/83/43
f 18/18/59 17/17/58 41/83/43
f 19/19/60 18/18/59 41/83/43
f 20/20/61 19/19/60 41/83/43
f 1/1/42 20/20/61 41/83/43
s 3
f 21/81/62 22/80/63 42/84/64
f 22/80/63 23/79/65 42/84/64
f 23/79/65 24/78/66 42/84/64
f 24/78/66 25/77/67 42/84/64
f 25/77/67 26/76/68 42/84/64
f 26/76/68 27/75/69 42/84/64
f 27/75/69 28/74/70 42/84/64
f 28/74/70 29/73/71 42/84/64
f 29/73/71 30/72/72 42/84/64
f 30/72/72 31/71/73 42/84/64
f 31/71/73 32/70/74 42/84/64
f 32/70/74 33/69/75 42/84/64
f 33/69/75 34/68/76 42/84/64
f 34/68/76 35/67/77 42/84/64
f 35/67/77 36/66/78 42/84/64
f 36/66/78 37/65/79 42/84/64
f 37/65/79 38/64/80 42/84/64
f 38/64/80 39/63/81 42/84/64
f 39/63/81 40/82/82 42/84/64
f 40/82/82 21/81/62 42/84/64
g default
v 40.276413 9.847317 15.192968
v 40.162660 10.070571 15.192968
v 39.985485 10.247746 15.192968
v 39.762231 10.361499 15.192968
v 39.514753 10.400696 15.192968
v 39.267275 10.361499 15.192968
v 39.044021 10.247746 15.192968
v 38.866846 10.070571 15.192968
v 38.753093 9.847317 15.192968
v 38.713897 9.599839 15.192968
v 38.753093 9.352361 15.192968
v 38.866847 9.129108 15.192968
v 39.044021 8.951933 15.192968
v 39.267275 8.838179 15.192968
v 39.514753 8.798983 15.192968
v 39.762231 8.838180 15.192968
v 39.985484 8.951933 15.192968
v 40.162659 9.129108 15.192968
v 40.276413 9.352361 15.192968
v 40.315609 9.599839 15.192968
v 40.276413 9.847317 15.962745
v 40.162660 10.070571 15.962745
v 39.985485 10.247746 15.962745
v 39.762231 10.361499 15.962745
v 39.514753 10.400696 15.962745
v 39.267275 10.361499 15.962745
v 39.044021 10.247746 15.962745
v 38.866846 10.070571 15.962745
v 38.753093 9.847317 15.962745
v 38.713897 9.599839 15.962745
v 38.753093 9.352361 15.962745
v 38.866847 9.129108 15.962745
v 39.044021 8.951933 15.962745
v 39.267275 8.838179 15.962745
v 39.514753 8.798983 15.962745
v 39.762231 8.838180 15.962745
v 39.985484 8.951933 15.962745
v 40.162659 9.129108 15.962745
v 40.276413 9.352361 15.962745
v 40.315609 9.599839 15.962745
v 39.514753 9.599839 15.192968
v 39.514753 9.599839 15.962745
vt 0.648603 0.107966
vt 0.626409 0.064408
vt 0.591842 0.029841
vt 0.548284 0.007647
vt 0.500000 -0.000000
vt 0.451716 0.007647
vt 0.408159 0.029841
vt 0.373591 0.064409
vt 0.351397 0.107966
vt 0.343750 0.156250
vt 0.351397 0.204534
vt 0.373591 0.248091
vt 0.408159 0.282659
vt 0.451716 0.304853
vt 0.500000 0.312500
vt 0.548284 0.304853
vt 0.591841 0.282659
vt 0.626409 0.248091
vt 0.648603 0.204534
vt 0.656250 0.156250
vt 0.375000 0.312500
vt 0.387500 0.312500
vt 0.400000 0.312500
vt 0.412500 0.312500
vt 0.425000 0.312500
vt 0.437500 0.312500
vt 0.450000 0.312500
vt 0.462500 0.312500
vt 0.475000 0.312500
vt 0.487500 0.312500
vt 0.500000 0.312500
vt 0.512500 0.312500
vt 0.525000 0.312500
vt 0.537500 0.312500
vt 0.550000 0.312500
vt 0.562500 0.312500
vt 0.575000 0.312500
vt 0.587500 0.312500
vt 0.600000 0.312500
vt 0.612500 0.312500
vt 0.625000 0.312500
vt 0.375000 0.687500
vt 0.387500 0.687500
vt 0.400000 0.687500
vt 0.412500 0.687500
vt 0.425000 0.687500
vt 0.437500 0.687500
vt 0.450000 0.687500
vt 0.462500 0.687500
vt 0.475000 0.687500
vt 0.487500 0.687500
vt 0.500000 0.687500
vt 0.512500 0.687500
vt 0.525000 0.687500
vt 0.537500 0.687500
vt 0.550000 0.687500
vt 0.562500 0.687500
vt 0.575000 0.687500
vt 0.587500 0.687500
vt 0.600000 0.687500
vt 0.612500 0.687500
vt 0.625000 0.687500
vt 0.648603 0.795466
vt 0.626409 0.751908
vt 0.591842 0.717341
vt 0.548284 0.695147
vt 0.500000 0.687500
vt 0.451716 0.695147
vt 0.408159 0.717341
vt 0.373591 0.751909
vt 0.351397 0.795466
vt 0.343750 0.843750
vt 0.351397 0.892034
vt 0.373591 0.935591
vt 0.408159 0.970159
vt 0.451716 0.992353
vt 0.500000 1.000000
vt 0.548284 0.992353
vt 0.591841 0.970159
vt 0.626409 0.935591
vt 0.648603 0.892034
vt 0.656250 0.843750
vt 0.500000 0.156250
vt 0.500000 0.843750
vn 0.951057 0.309016 0.000000
vn 0.809017 0.587785 0.000000
vn 0.809017 0.587785 0.000000
vn 0.951057 0.309016 0.000000
vn 0.587785 0.809017 0.000000
vn 0.587785 0.809017 0.000000
vn 0.309017 0.951057 0.000000
vn 0.309017 0.951057 0.000000
vn -0.000000 1.000000 0.000000
vn -0.000000 1.000000 0.000000
vn -0.309017 0.951056 0.000000
vn -0.309017 0.951056 0.000000
vn -0.587785 0.809017 0.000000
vn -0.587785 0.809017 0.000000
vn -0.809017 0.587785 0.000000
vn -0.809017 0.587785 0.000000
vn -0.951057 0.309017 0.000000
vn -0.951057 0.309017 0.000000
vn -1.000000 0.000000 0.000000
vn -1.000000 0.000000 0.000000
vn -0.951056 -0.309017 0.000000
vn -0.951056 -0.309017 0.000000
vn -0.809017 -0.587785 0.000000
vn -0.809017 -0.587785 0.000000
vn -0.587785 -0.809017 0.000000
vn -0.587785 -0.809017 0.000000
vn -0.309017 -0.951057 0.000000
vn -0.309017 -0.951057 0.000000
vn 0.000000 -1.000000 0.000000
vn 0.000000 -1.000000 0.000000
vn 0.309017 -0.951056 0.000000
vn 0.309017 -0.951056 0.000000
vn 0.587785 -0.809017 0.000000
vn 0.587785 -0.809017 0.000000
vn 0.809017 -0.587785 0.000000
vn 0.809017 -0.587785 0.000000
vn 0.951056 -0.309017 0.000000
vn 0.951056 -0.309017 0.000000
vn 1.000000 -0.000001 0.000000
vn 1.000000 -0.000001 0.000000
vn 0.000000 -0.000000 -1.000000
vn 0.000000 -0.000000 -1.000000
vn 0.000000 -0.000000 -1.000000
vn 0.000000 -0.000000 -1.000000
vn 0.000000 -0.000000 -1.000000
vn 0.000000 -0.000000 -1.000000
vn 0.000000 -0.000000 -1.000000
vn 0.000000 -0.000000 -1.000000
vn 0.000000 -0.000000 -1.000000
vn 0.000000 -0.000000 -1.000000
vn 0.000000 -0.000000 -1.000000
vn 0.000000 -0.000000 -1.000000
vn 0.000000 -0.000000 -1.000000
vn 0.000000 -0.000000 -1.000000
vn 0.000000 -0.000000 -1.000000
vn 0.000000 -0.000000 -1.000000
vn 0.000000 -0.000000 -1.000000
vn 0.000000 -0.000000 -1.000000
vn 0.000000 -0.000000 -1.000000
vn 0.000000 -0.000000 -1.000000
vn 0.000000 -0.000000 -1.000000
vn 0.000000 0.000000 1.000000
vn 0.000000 0.000000 1.000000
vn 0.000000 0.000000 1.000000
vn 0.000000 0.000000 1.000000
vn 0.000000 0.000000 1.000000
vn 0.000000 0.000000 1.000000
vn 0.000000 0.000000 1.000000
vn 0.000000 0.000000 1.000000
vn 0.000000 0.000000 1.000000
vn 0.000000 0.000000 1.000000
vn 0.000000 0.000000 1.000000
vn 0.000000 0.000000 1.000000
vn 0.000000 0.000000 1.000000
vn 0.000000 0.000000 1.000000
vn 0.000000 0.000000 1.000000
vn 0.000000 0.000000 1.000000
vn 0.000000 0.000000 1.000000
vn 0.000000 0.000000 1.000000
vn 0.000000 0.000000 1.000000
vn 0.000000 0.000000 1.000000
vn 0.000000 0.000000 1.000000
s 1
g group31 pasted__pasted__pasted__pasted__pasted__pasted__pasted__pasted__pCylinder1 pasted__pasted__pasted__pasted__pasted__pasted__pasted__group15 pasted__pasted__pasted__pasted__pasted__pasted__group16 pasted__pasted__pasted__pasted__pasted__group17 pasted__pasted__pasted__pasted__group27 pasted__pasted__pasted__group28 pasted__pasted__group29 pasted__group30
usemtl initialShadingGroup
f 43/105/83 44/106/84 64/127/85 63/126/86
f 44/106/84 45/107/87 65/128/88 64/127/85
f 45/107/87 46/108/89 66/129/90 65/128/88
f 46/108/89 47/109/91 67/130/92 66/129/90
f 47/109/91 48/110/93 68/131/94 67/130/92
f 48/110/93 49/111/95 69/132/96 68/131/94
f 49/111/95 50/112/97 70/133/98 69/132/96
f 50/112/97 51/113/99 71/134/100 70/133/98
f 51/113/99 52/114/101 72/135/102 71/134/100
f 52/114/101 53/115/103 73/136/104 72/135/102
f 53/115/103 54/116/105 74/137/106 73/136/104
f 54/116/105 55/117/107 75/138/108 74/137/106
f 55/117/107 56/118/109 76/139/110 75/138/108
f 56/118/109 57/119/111 77/140/112 76/139/110
f 57/119/111 58/120/113 78/141/114 77/140/112
f 58/120/113 59/121/115 79/142/116 78/141/114
f 59/121/115 60/122/117 80/143/118 79/142/116
f 60/122/117 61/123/119 81/144/120 80/143/118
f 61/123/119 62/124/121 82/145/122 81/144/120
f 62/124/121 43/125/83 63/146/86 82/145/122
s 2
f 44/86/123 43/85/124 83/167/125
f 45/87/126 44/86/123 83/167/125
f 46/88/127 45/87/126 83/167/125
f 47/89/128 46/88/127 83/167/125
f 48/90/129 47/89/128 83/167/125
f 49/91/130 48/90/129 83/167/125
f 50/92/131 49/91/130 83/167/125
f 51/93/132 50/92/131 83/167/125
f 52/94/133 51/93/132 83/167/125
f 53/95/134 52/94/133 83/167/125
f 54/96/135 53/95/134 83/167/125
f 55/97/136 54/96/135 83/167/125
f 56/98/137 55/97/136 83/167/125
f 57/99/138 56/98/137 83/167/125
f 58/100/139 57/99/138 83/167/125
f 59/101/140 58/100/139 83/167/125
f 60/102/141 59/101/140 83/167/125
f 61/103/142 60/102/141 83/167/125
f 62/104/143 61/103/142 83/167/125
f 43/85/124 62/104/143 83/167/125
s 3
f 63/165/144 64/164/145 84/168/146
f 64/164/145 65/163/147 84/168/146
f 65/163/147 66/162/148 84/168/146
f 66/162/148 67/161/149 84/168/146
f 67/161/149 68/160/150 84/168/146
f 68/160/150 69/159/151 84/168/146
f 69/159/151 70/158/152 84/168/146
f 70/158/152 71/157/153 84/168/146
f 71/157/153 72/156/154 84/168/146
f 72/156/154 73/155/155 84/168/146
f 73/155/155 74/154/156 84/168/146
f 74/154/156 75/153/157 84/168/146
f 75/153/157 76/152/158 84/168/146
f 76/152/158 77/151/159 84/168/146
f 77/151/159 78/150/160 84/168/146
f 78/150/160 79/149/161 84/168/146
f 79/149/161 80/148/162 84/168/146
f 80/148/162 81/147/163 84/168/146
f 81/147/163 82/166/164 84/168/146
f 82/166/164 63/165/144 84/168/146
g default
v 35.460386 2.972616 15.910600
v 39.493788 2.972616 15.910600
v 35.460386 5.991046 15.910600
v 39.493788 5.991046 15.910600
v 35.460386 5.991046 15.263650
v 39.493788 5.991046 15.263650
v 35.460386 2.972616 15.263650
v 39.493788 2.972616 15.263650
vt 0.375000 0.000000
vt 0.625000 0.000000
vt 0.375000 0.250000
vt 0.625000 0.250000
vt 0.375000 0.500000
vt 0.625000 0.500000
vt 0.375000 0.750000
vt 0.625000 0.750000
vt 0.375000 1.000000
vt 0.625000 1.000000
vt 0.875000 0.000000
vt 0.875000 0.250000
vt 0.125000 0.000000
vt 0.125000 0.250000
vn 0.000000 0.000000 1.000000
vn 0.000000 0.000000 1.000000
vn 0.000000 0.000000 1.000000
vn 0.000000 0.000000 1.000000
vn 0.000000 1.000000 0.000000
vn 0.000000 1.000000 0.000000
vn 0.000000 1.000000 0.000000
vn 0.000000 1.000000 0.000000
vn 0.000000 0.000000 -1.000000
vn 0.000000 0.000000 -1.000000
vn 0.000000 0.000000 -1.000000
vn 0.000000 0.000000 -1.000000
vn 0.000000 -1.000000 0.000000
vn 0.000000 -1.000000 0.000000
vn 0.000000 -1.000000 0.000000
vn 0.000000 -1.000000 0.000000
vn 1.000000 0.000000 0.000000
vn 1.000000 0.000000 0.000000
vn 1.000000 0.000000 0.000000
vn 1.000000 0.000000 0.000000
vn -1.000000 0.000000 0.000000
vn -1.000000 0.000000 0.000000
vn -1.000000 0.000000 0.000000
vn -1.000000 0.000000 0.000000
s off
g pasted__pasted__pasted__pasted__pCube6 pasted__pasted__pasted__group20 pasted__pasted__group23 pasted__group24 group25
usemtl initialShadingGroup
f 85/169/165 86/170/166 88/172/167 87/171/168
f 87/171/169 88/172/170 90/174/171 89/173/172
f 89/173/173 90/174/174 92/176/175 91/175/176
f 91/175/177 92/176/178 86/178/179 85/177/180
f 86/170/181 92/179/182 90/180/183 88/172/184
f 91/181/185 85/169/186 87/171/187 89/182/188
g default
v 31.361206 4.674834 15.172850
v 31.247452 4.898088 15.172850
v 31.070277 5.075263 15.172850
v 30.847024 5.189016 15.172850
v 30.599546 5.228213 15.172850
v 30.352067 5.189016 15.172850
v 30.128814 5.075263 15.172850
v 29.951639 4.898088 15.172850
v 29.837886 4.674834 15.172850
v 29.798689 4.427356 15.172850
v 29.837886 4.179878 15.172850
v 29.951639 3.956624 15.172850
v 30.128814 3.779450 15.172850
v 30.352067 3.665696 15.172850
v 30.599546 3.626500 15.172850
v 30.847024 3.665696 15.172850
v 31.070277 3.779450 15.172850
v 31.247452 3.956625 15.172850
v 31.361205 4.179878 15.172850
v 31.400402 4.427356 15.172850
v 31.361206 4.674834 15.942627
v 31.247452 4.898088 15.942627
v 31.070277 5.075263 15.942627
v 30.847024 5.189016 15.942627
v 30.599546 5.228213 15.942627
v 30.352067 5.189016 15.942627
v 30.128814 5.075263 15.942627
v 29.951639 4.898088 15.942627
v 29.837886 4.674834 15.942627
v 29.798689 4.427356 15.942627
v 29.837886 4.179878 15.942627
v 29.951639 3.956624 15.942627
v 30.128814 3.779450 15.942627
v 30.352067 3.665696 15.942627
v 30.599546 3.626500 15.942627
v 30.847024 3.665696 15.942627
v 31.070277 3.779450 15.942627
v 31.247452 3.956625 15.942627
v 31.361205 4.179878 15.942627
v 31.400402 4.427356 15.942627
v 30.599546 4.427356 15.172850
v 30.599546 4.427356 15.942627
vt 0.648603 0.107966
vt 0.626409 0.064408
vt 0.591842 0.029841
vt 0.548284 0.007647
vt 0.500000 -0.000000
vt 0.451716 0.007647
vt 0.408159 0.029841
vt 0.373591 0.064409
vt 0.351397 0.107966
vt 0.343750 0.156250
vt 0.351397 0.204534
vt 0.373591 0.248091
vt 0.408159 0.282659
vt 0.451716 0.304853
vt 0.500000 0.312500
vt 0.548284 0.304853
vt 0.591841 0.282659
vt 0.626409 0.248091
vt 0.648603 0.204534
vt 0.656250 0.156250
vt 0.375000 0.312500
vt 0.387500 0.312500
vt 0.400000 0.312500
vt 0.412500 0.312500
vt 0.425000 0.312500
vt 0.437500 0.312500
vt 0.450000 0.312500
vt 0.462500 0.312500
vt 0.475000 0.312500
vt 0.487500 0.312500
vt 0.500000 0.312500
vt 0.512500 0.312500
vt 0.525000 0.312500
vt 0.537500 0.312500
vt 0.550000 0.312500
vt 0.562500 0.312500
vt 0.575000 0.312500
vt 0.587500 0.312500
vt 0.600000 0.312500
vt 0.612500 0.312500
vt 0.625000 0.312500
vt 0.375000 0.687500
vt 0.387500 0.687500
vt 0.400000 0.687500
vt 0.412500 0.687500
vt 0.425000 0.687500
vt 0.437500 0.687500
vt 0.450000 0.687500
vt 0.462500 0.687500
vt 0.475000 0.687500
vt 0.487500 0.687500
vt 0.500000 0.687500
vt 0.512500 0.687500
vt 0.525000 0.687500
vt 0.537500 0.687500
vt 0.550000 0.687500
vt 0.562500 0.687500
vt 0.575000 0.687500
vt 0.587500 0.687500
vt 0.600000 0.687500
vt 0.612500 0.687500
vt 0.625000 0.687500
vt 0.648603 0.795466
vt 0.626409 0.751908
vt 0.591842 0.717341
vt 0.548284 0.695147
vt 0.500000 0.687500
vt 0.451716 0.695147
vt 0.408159 0.717341
vt 0.373591 0.751909
vt 0.351397 0.795466
vt 0.343750 0.843750
vt 0.351397 0.892034
vt 0.373591 0.935591
vt 0.408159 0.970159
vt 0.451716 0.992353
vt 0.500000 1.000000
vt 0.548284 0.992353
vt 0.591841 0.970159
vt 0.626409 0.935591
vt 0.648603 0.892034
vt 0.656250 0.843750
vt 0.500000 0.156250
vt 0.500000 0.843750
vn 0.951057 0.309016 0.000000
vn 0.809017 0.587785 0.000000
vn 0.809017 0.587785 0.000000
vn 0.951057 0.309016 0.000000
vn 0.587785 0.809017 0.000000
vn 0.587785 0.809017 0.000000
vn 0.309017 0.951057 0.000000
vn 0.309017 0.951057 0.000000
vn -0.000000 1.000000 0.000000
vn -0.000000 1.000000 0.000000
vn -0.309017 0.951056 0.000000
vn -0.309017 0.951056 0.000000
vn -0.587785 0.809017 0.000000
vn -0.587785 0.809017 0.000000
vn -0.809017 0.587785 0.000000
vn -0.809017 0.587785 0.000000
vn -0.951057 0.309017 0.000000
vn -0.951057 0.309017 0.000000
vn -1.000000 0.000000 0.000000
vn -1.000000 0.000000 0.000000
vn -0.951056 -0.309017 0.000000
vn -0.951056 -0.309017 0.000000
vn -0.809017 -0.587785 0.000000
vn -0.809017 -0.587785 0.000000
vn -0.587785 -0.809017 0.000000
vn -0.587785 -0.809017 0.000000
vn -0.309017 -0.951057 0.000000
vn -0.309017 -0.951057 0.000000
vn 0.000000 -1.000000 0.000000
vn 0.000000 -1.000000 0.000000
vn 0.309017 -0.951056 0.000000
vn 0.309017 -0.951056 0.000000
vn 0.587785 -0.809017 0.000000
vn 0.587785 -0.809017 0.000000
vn 0.809017 -0.587785 0.000000
vn 0.809017 -0.587785 0.000000
vn 0.951056 -0.309017 0.000000
vn 0.951056 -0.309017 0.000000
vn 1.000000 -0.000001 0.000000
vn 1.000000 -0.000001 0.000000
vn 0.000000 -0.000000 -1.000000
vn 0.000000 -0.000000 -1.000000
vn 0.000000 -0.000000 -1.000000
vn 0.000000 -0.000000 -1.000000
vn 0.000000 -0.000000 -1.000000
vn 0.000000 -0.000000 -1.000000
vn 0.000000 -0.000000 -1.000000
vn 0.000000 -0.000000 -1.000000
vn 0.000000 -0.000000 -1.000000
vn 0.000000 -0.000000 -1.000000
vn 0.000000 -0.000000 -1.000000
vn 0.000000 -0.000000 -1.000000
vn 0.000000 -0.000000 -1.000000
vn 0.000000 -0.000000 -1.000000
vn 0.000000 -0.000000 -1.000000
vn 0.000000 -0.000000 -1.000000
vn 0.000000 -0.000000 -1.000000
vn 0.000000 -0.000000 -1.000000
vn 0.000000 -0.000000 -1.000000
vn 0.000000 -0.000000 -1.000000
vn 0.000000 -0.000000 -1.000000
vn 0.000000 0.000000 1.000000
vn 0.000000 0.000000 1.000000
vn 0.000000 0.000000 1.000000
vn 0.000000 0.000000 1.000000
vn 0.000000 0.000000 1.000000
vn 0.000000 0.000000 1.000000
vn 0.000000 0.000000 1.000000
vn 0.000000 0.000000 1.000000
vn 0.000000 0.000000 1.000000
vn 0.000000 0.000000 1.000000
vn 0.000000 0.000000 1.000000
vn 0.000000 0.000000 1.000000
vn 0.000000 0.000000 1.000000
vn 0.000000 0.000000 1.000000
vn 0.000000 0.000000 1.000000
vn 0.000000 0.000000 1.000000
vn 0.000000 0.000000 1.000000
vn 0.000000 0.000000 1.000000
vn 0.000000 0.000000 1.000000
vn 0.000000 0.000000 1.000000
vn 0.000000 0.000000 1.000000
s 1
g pasted__pasted__pasted__pasted__pasted__pasted__pasted__pasted__pCylinder1 pasted__pasted__pasted__pasted__pasted__pasted__pasted__group15 pasted__pasted__pasted__pasted__pasted__pasted__group16 pasted__pasted__pasted__pasted__pasted__group17 pasted__pasted__pasted__pasted__group27 pasted__pasted__pasted__group28 pasted__pasted__group29 pasted__group31 group35
usemtl initialShadingGroup
f 93/203/189 94/204/190 114/225/191 113/224/192
f 94/204/190 95/205/193 115/226/194 114/225/191
f 95/205/193 96/206/195 116/227/196 115/226/194
f 96/206/195 97/207/197 117/228/198 116/227/196
f 97/207/197 98/208/199 118/229/200 117/228/198
f 98/208/199 99/209/201 119/230/202 118/229/200
f 99/209/201 100/210/203 120/231/204 119/230/202
f 100/210/203 101/211/205 121/232/206 120/231/204
f 101/211/205 102/212/207 122/233/208 121/232/206
f 102/212/207 103/213/209 123/234/210 122/233/208
f 103/213/209 104/214/211 124/235/212 123/234/210
f 104/214/211 105/215/213 125/236/214 124/235/212
f 105/215/213 106/216/215 126/237/216 125/236/214
f 106/216/215 107/217/217 127/238/218 126/237/216
f 107/217/217 108/218/219 128/239/220 127/238/218
f 108/218/219 109/219/221 129/240/222 128/239/220
f 109/219/221 110/220/223 130/241/224 129/240/222
f 110/220/223 111/221/225 131/242/226 130/241/224
f 111/221/225 112/222/227 132/243/228 131/242/226
f 112/222/227 93/223/189 113/244/192 132/243/228
s 2
f 94/184/229 93/183/230 133/265/231
f 95/185/232 94/184/229 133/265/231
f 96/186/233 95/185/232 133/265/231
f 97/187/234 96/186/233 133/265/231
f 98/188/235 97/187/234 133/265/231
f 99/189/236 98/188/235 133/265/231
f 100/190/237 99/189/236 133/265/231
f 101/191/238 100/190/237 133/265/231
f 102/192/239 101/191/238 133/265/231
f 103/193/240 102/192/239 133/265/231
f 104/194/241 103/193/240 133/265/231
f 105/195/242 104/194/241 133/265/231
f 106/196/243 105/195/242 133/265/231
f 107/197/244 106/196/243 133/265/231
f 108/198/245 107/197/244 133/265/231
f 109/199/246 108/198/245 133/265/231
f 110/200/247 109/199/246 133/265/231
f 111/201/248 110/200/247 133/265/231
f 112/202/249 111/201/248 133/265/231
f 93/183/230 112/202/249 133/265/231
s 3
f 113/263/250 114/262/251 134/266/252
f 114/262/251 115/261/253 134/266/252
f 115/261/253 116/260/254 134/266/252
f 116/260/254 117/259/255 134/266/252
f 117/259/255 118/258/256 134/266/252
f 118/258/256 119/257/257 134/266/252
f 119/257/257 120/256/258 134/266/252
f 120/256/258 121/255/259 134/266/252
f 121/255/259 122/254/260 134/266/252
f 122/254/260 123/253/261 134/266/252
f 123/253/261 124/252/262 134/266/252
f 124/252/262 125/251/263 134/266/252
f 125/251/263 126/250/264 134/266/252
f 126/250/264 127/249/265 134/266/252
f 127/249/265 128/248/266 134/266/252
f 128/248/266 129/247/267 134/266/252
f 129/247/267 130/246/268 134/266/252
f 130/246/268 131/245/269 134/266/252
f 131/245/269 132/264/270 134/266/252
f 132/264/270 113/263/250 134/266/252
g default
v 21.152920 2.972616 15.910600
v 25.186322 2.972616 15.910600
v 21.152920 5.991046 15.910600
v 25.186322 5.991046 15.910600
v 21.152920 5.991046 15.263650
v 25.186322 5.991046 15.263650
v 21.152920 2.972616 15.263650
v 25.186322 2.972616 15.263650
vt 0.375000 0.000000
vt 0.625000 0.000000
vt 0.375000 0.250000
vt 0.625000 0.250000
vt 0.375000 0.500000
vt 0.625000 0.500000
vt 0.375000 0.750000
vt 0.625000 0.750000
vt 0.375000 1.000000
vt 0.625000 1.000000
vt 0.875000 0.000000
vt 0.875000 0.250000
vt 0.125000 0.000000
vt 0.125000 0.250000
vn 0.000000 0.000000 1.000000
vn 0.000000 0.000000 1.000000
vn 0.000000 0.000000 1.000000
vn 0.000000 0.000000 1.000000
vn 0.000000 1.000000 0.000000
vn 0.000000 1.000000 0.000000
vn 0.000000 1.000000 0.000000
vn 0.000000 1.000000 0.000000
vn 0.000000 0.000000 -1.000000
vn 0.000000 0.000000 -1.000000
vn 0.000000 0.000000 -1.000000
vn 0.000000 0.000000 -1.000000
vn 0.000000 -1.000000 0.000000
vn 0.000000 -1.000000 0.000000
vn 0.000000 -1.000000 0.000000
vn 0.000000 -1.000000 0.000000
vn 1.000000 0.000000 0.000000
vn 1.000000 0.000000 0.000000
vn 1.000000 0.000000 0.000000
vn 1.000000 0.000000 0.000000
vn -1.000000 0.000000 0.000000
vn -1.000000 0.000000 0.000000
vn -1.000000 0.000000 0.000000
vn -1.000000 0.000000 0.000000
s off
g pasted__pasted__pasted__pasted__pasted__pCube6 pasted__pasted__pasted__pasted__group20 pasted__pasted__pasted__group23 pasted__pasted__group24 pasted__group25 group26
usemtl initialShadingGroup
f 135/267/271 136/268/272 138/270/273 137/269/274
f 137/269/275 138/270/276 140/272/277 139/271/278
f 139/271/279 140/272/280 142/274/281 141/273/282
f 141/273/283 142/274/284 136/276/285 135/275/286
f 136/268/287 142/277/288 140/278/289 138/270/290
f 141/279/291 135/267/292 137/269/293 139/280/294
g default
v 25.960580 9.847317 15.192968
v 25.846827 10.070571 15.192968
v 25.669652 10.247746 15.192968
v 25.446399 10.361499 15.192968
v 25.198920 10.400696 15.192968
v 24.951442 10.361499 15.192968
v 24.728189 10.247746 15.192968
v 24.551014 10.070571 15.192968
v 24.437261 9.847317 15.192968
v 24.398064 9.599839 15.192968
v 24.437261 9.352361 15.192968
v 24.551014 9.129108 15.192968
v 24.728189 8.951933 15.192968
v 24.951442 8.838179 15.192968
v 25.198920 8.798983 15.192968
v 25.446398 8.838180 15.192968
v 25.669652 8.951933 15.192968
v 25.846827 9.129108 15.192968
v 25.960580 9.352361 15.192968
v 25.999777 9.599839 15.192968
v 25.960580 9.847317 15.962745
v 25.846827 10.070571 15.962745
v 25.669652 10.247746 15.962745
v 25.446399 10.361499 15.962745
v 25.198920 10.400696 15.962745
v 24.951442 10.361499 15.962745
v 24.728189 10.247746 15.962745
v 24.551014 10.070571 15.962745
v 24.437261 9.847317 15.962745
v 24.398064 9.599839 15.962745
v 24.437261 9.352361 15.962745
v 24.551014 9.129108 15.962745
v 24.728189 8.951933 15.962745
v 24.951442 8.838179 15.962745
v 25.198920 8.798983 15.962745
v 25.446398 8.838180 15.962745
v 25.669652 8.951933 15.962745
v 25.846827 9.129108 15.962745
v 25.960580 9.352361 15.962745
v 25.999777 9.599839 15.962745
v 25.198920 9.599839 15.192968
v 25.198920 9.599839 15.962745
vt 0.648603 0.107966
vt 0.626409 0.064408
vt 0.591842 0.029841
vt 0.548284 0.007647
vt 0.500000 -0.000000
vt 0.451716 0.007647
vt 0.408159 0.029841
vt 0.373591 0.064409
vt 0.351397 0.107966
vt 0.343750 0.156250
vt 0.351397 0.204534
vt 0.373591 0.248091
vt 0.408159 0.282659
vt 0.451716 0.304853
vt 0.500000 0.312500
vt 0.548284 0.304853
vt 0.591841 0.282659
vt 0.626409 0.248091
vt 0.648603 0.204534
vt 0.656250 0.156250
vt 0.375000 0.312500
vt 0.387500 0.312500
vt 0.400000 0.312500
vt 0.412500 0.312500
vt 0.425000 0.312500
vt 0.437500 0.312500
vt 0.450000 0.312500
vt 0.462500 0.312500
vt 0.475000 0.312500
vt 0.487500 0.312500
vt 0.500000 0.312500
vt 0.512500 0.312500
vt 0.525000 0.312500
vt 0.537500 0.312500
vt 0.550000 0.312500
vt 0.562500 0.312500
vt 0.575000 0.312500
vt 0.587500 0.312500
vt 0.600000 0.312500
vt 0.612500 0.312500
vt 0.625000 0.312500
vt 0.375000 0.687500
vt 0.387500 0.687500
vt 0.400000 0.687500
vt 0.412500 0.687500
vt 0.425000 0.687500
vt 0.437500 0.687500
vt 0.450000 0.687500
vt 0.462500 0.687500
vt 0.475000 0.687500
vt 0.487500 0.687500
vt 0.500000 0.687500
vt 0.512500 0.687500
vt 0.525000 0.687500
vt 0.537500 0.687500
vt 0.550000 0.687500
vt 0.562500 0.687500
vt 0.575000 0.687500
vt 0.587500 0.687500
vt 0.600000 0.687500
vt 0.612500 0.687500
vt 0.625000 0.687500
vt 0.648603 0.795466
vt 0.626409 0.751908
vt 0.591842 0.717341
vt 0.548284 0.695147
vt 0.500000 0.687500
vt 0.451716 0.695147
vt 0.408159 0.717341
vt 0.373591 0.751909
vt 0.351397 0.795466
vt 0.343750 0.843750
vt 0.351397 0.892034
vt 0.373591 0.935591
vt 0.408159 0.970159
vt 0.451716 0.992353
vt 0.500000 1.000000
vt 0.548284 0.992353
vt 0.591841 0.970159
vt 0.626409 0.935591
vt 0.648603 0.892034
vt 0.656250 0.843750
vt 0.500000 0.156250
vt 0.500000 0.843750
vn 0.951057 0.309016 0.000000
vn 0.809017 0.587785 0.000000
vn 0.809017 0.587785 0.000000
vn 0.951057 0.309016 0.000000
vn 0.587785 0.809017 0.000000
vn 0.587785 0.809017 0.000000
vn 0.309017 0.951057 0.000000
vn 0.309017 0.951057 0.000000
vn -0.000000 1.000000 0.000000
vn -0.000000 1.000000 0.000000
vn -0.309017 0.951056 0.000000
vn -0.309017 0.951056 0.000000
vn -0.587785 0.809017 0.000000
vn -0.587785 0.809017 0.000000
vn -0.809017 0.587785 0.000000
vn -0.809017 0.587785 0.000000
vn -0.951057 0.309017 0.000000
vn -0.951057 0.309017 0.000000
vn -1.000000 0.000000 0.000000
vn -1.000000 0.000000 0.000000
vn -0.951056 -0.309017 0.000000
vn -0.951056 -0.309017 0.000000
vn -0.809017 -0.587785 0.000000
vn -0.809017 -0.587785 0.000000
vn -0.587785 -0.809017 0.000000
vn -0.587785 -0.809017 0.000000
vn -0.309017 -0.951057 0.000000
vn -0.309017 -0.951057 0.000000
vn 0.000000 -1.000000 0.000000
vn 0.000000 -1.000000 0.000000
vn 0.309017 -0.951056 0.000000
vn 0.309017 -0.951056 0.000000
vn 0.587785 -0.809017 0.000000
vn 0.587785 -0.809017 0.000000
vn 0.809017 -0.587785 0.000000
vn 0.809017 -0.587785 0.000000
vn 0.951056 -0.309017 0.000000
vn 0.951056 -0.309017 0.000000
vn 1.000000 -0.000001 0.000000
vn 1.000000 -0.000001 0.000000
vn 0.000000 -0.000000 -1.000000
vn 0.000000 -0.000000 -1.000000
vn 0.000000 -0.000000 -1.000000
vn 0.000000 -0.000000 -1.000000
vn 0.000000 -0.000000 -1.000000
vn 0.000000 -0.000000 -1.000000
vn 0.000000 -0.000000 -1.000000
vn 0.000000 -0.000000 -1.000000
vn 0.000000 -0.000000 -1.000000
vn 0.000000 -0.000000 -1.000000
vn 0.000000 -0.000000 -1.000000
vn 0.000000 -0.000000 -1.000000
vn 0.000000 -0.000000 -1.000000
vn 0.000000 -0.000000 -1.000000
vn 0.000000 -0.000000 -1.000000
vn 0.000000 -0.000000 -1.000000
vn 0.000000 -0.000000 -1.000000
vn 0.000000 -0.000000 -1.000000
vn 0.000000 -0.000000 -1.000000
vn 0.000000 -0.000000 -1.000000
vn 0.000000 -0.000000 -1.000000
vn 0.000000 0.000000 1.000000
vn 0.000000 0.000000 1.000000
vn 0.000000 0.000000 1.000000
vn 0.000000 0.000000 1.000000
vn 0.000000 0.000000 1.000000
vn 0.000000 0.000000 1.000000
vn 0.000000 0.000000 1.000000
vn 0.000000 0.000000 1.000000
vn 0.000000 0.000000 1.000000
vn 0.000000 0.000000 1.000000
vn 0.000000 0.000000 1.000000
vn 0.000000 0.000000 1.000000
vn 0.000000 0.000000 1.000000
vn 0.000000 0.000000 1.000000
vn 0.000000 0.000000 1.000000
vn 0.000000 0.000000 1.000000
vn 0.000000 0.000000 1.000000
vn 0.000000 0.000000 1.000000
vn 0.000000 0.000000 1.000000
vn 0.000000 0.000000 1.000000
vn 0.000000 0.000000 1.000000
s 1
g pasted__pasted__pasted__pasted__pasted__pasted__pasted__pCylinder1 pasted__pasted__pasted__pasted__pasted__pasted__group15 pasted__pasted__pasted__pasted__pasted__group16 pasted__pasted__pasted__pasted__group17 pasted__pasted__pasted__group27 pasted__pasted__group28 pasted__group29 group30
usemtl initialShadingGroup
f 143/301/295 144/302/296 164/323/297 163/322/298
f 144/302/296 145/303/299 165/324/300 164/323/297
f 145/303/299 146/304/301 166/325/302 165/324/300
f 146/304/301 147/305/303 167/326/304 166/325/302
f 147/305/303 148/306/305 168/327/306 167/326/304
f 148/306/305 149/307/307 169/328/308 168/327/306
f 149/307/307 150/308/309 170/329/310 169/328/308
f 150/308/309 151/309/311 171/330/312 170/329/310
f 151/309/311 152/310/313 172/331/314 171/330/312
f 152/310/313 153/311/315 173/332/316 172/331/314
f 153/311/315 154/312/317 174/333/318 173/332/316
f 154/312/317 155/313/319 175/334/320 174/333/318
f 155/313/319 156/314/321 176/335/322 175/334/320
f 156/314/321 157/315/323 177/336/324 176/335/322
f 157/315/323 158/316/325 178/337/326 177/336/324
f 158/316/325 159/317/327 179/338/328 178/337/326
f 159/317/327 160/318/329 180/339/330 179/338/328
f 160/318/329 161/319/331 181/340/332 180/339/330
f 161/319/331 162/320/333 182/341/334 181/340/332
f 162/320/333 143/321/295 163/342/298 182/341/334
s 2
f 144/282/335 143/281/336 183/363/337
f 145/283/338 144/282/335 183/363/337
f 146/284/339 145/283/338 183/363/337
f 147/285/340 146/284/339 183/363/337
f 148/286/341 147/285/340 183/363/337
f 149/287/342 148/286/341 183/363/337
f 150/288/343 149/287/342 183/363/337
f 151/289/344 150/288/343 183/363/337
f 152/290/345 151/289/344 183/363/337
f 153/291/346 152/290/345 183/363/337
f 154/292/347 153/291/346 183/363/337
f 155/293/348 154/292/347 183/363/337
f 156/294/349 155/293/348 183/363/337
f 157/295/350 156/294/349 183/363/337
f 158/296/351 157/295/350 183/363/337
f 159/297/352 158/296/351 183/363/337
f 160/298/353 159/297/352 183/363/337
f 161/299/354 160/298/353 183/363/337
f 162/300/355 161/299/354 183/363/337
f 143/281/336 162/300/355 183/363/337
s 3
f 163/361/356 164/360/357 184/364/358
f 164/360/357 165/359/359 184/364/358
f 165/359/359 166/358/360 184/364/358
f 166/358/360 167/357/361 184/364/358
f 167/357/361 168/356/362 184/364/358
f 168/356/362 169/355/363 184/364/358
f 169/355/363 170/354/364 184/364/358
f 170/354/364 171/353/365 184/364/358
f 171/353/365 172/352/366 184/364/358
f 172/352/366 173/351/367 184/364/358
f 173/351/367 174/350/368 184/364/358
f 174/350/368 175/349/369 184/364/358
f 175/349/369 176/348/370 184/364/358
f 176/348/370 177/347/371 184/364/358
f 177/347/371 178/346/372 184/364/358
f 178/346/372 179/345/373 184/364/358
f 179/345/373 180/344/374 184/364/358
f 180/344/374 181/343/375 184/364/358
f 181/343/375 182/362/376 184/364/358
f 182/362/376 163/361/356 184/364/358
g default
v 22.059872 9.847317 15.192968
v 21.946118 10.070571 15.192968
v 21.768943 10.247746 15.192968
v 21.545690 10.361499 15.192968
v 21.298212 10.400696 15.192968
v 21.050733 10.361499 15.192968
v 20.827480 10.247746 15.192968
v 20.650305 10.070571 15.192968
v 20.536552 9.847317 15.192968
v 20.497355 9.599839 15.192968
v 20.536552 9.352361 15.192968
v 20.650305 9.129108 15.192968
v 20.827480 8.951933 15.192968
v 21.050733 8.838179 15.192968
v 21.298212 8.798983 15.192968
v 21.545690 8.838180 15.192968
v 21.768943 8.951933 15.192968
v 21.946118 9.129108 15.192968
v 22.059871 9.352361 15.192968
v 22.099068 9.599839 15.192968
v 22.059872 9.847317 15.962745
v 21.946118 10.070571 15.962745
v 21.768943 10.247746 15.962745
v 21.545690 10.361499 15.962745
v 21.298212 10.400696 15.962745
v 21.050733 10.361499 15.962745
v 20.827480 10.247746 15.962745
v 20.650305 10.070571 15.962745
v 20.536552 9.847317 15.962745
v 20.497355 9.599839 15.962745
v 20.536552 9.352361 15.962745
v 20.650305 9.129108 15.962745
v 20.827480 8.951933 15.962745
v 21.050733 8.838179 15.962745
v 21.298212 8.798983 15.962745
v 21.545690 8.838180 15.962745
v 21.768943 8.951933 15.962745
v 21.946118 9.129108 15.962745
v 22.059871 9.352361 15.962745
v 22.099068 9.599839 15.962745
v 21.298212 9.599839 15.192968
v 21.298212 9.599839 15.962745
vt 0.648603 0.107966
vt 0.626409 0.064408
vt 0.591842 0.029841
vt 0.548284 0.007647
vt 0.500000 -0.000000
vt 0.451716 0.007647
vt 0.408159 0.029841
vt 0.373591 0.064409
vt 0.351397 0.107966
vt 0.343750 0.156250
vt 0.351397 0.204534
vt 0.373591 0.248091
vt 0.408159 0.282659
vt 0.451716 0.304853
vt 0.500000 0.312500
vt 0.548284 0.304853
vt 0.591841 0.282659
vt 0.626409 0.248091
vt 0.648603 0.204534
vt 0.656250 0.156250
vt 0.375000 0.312500
vt 0.387500 0.312500
vt 0.400000 0.312500
vt 0.412500 0.312500
vt 0.425000 0.312500
vt 0.437500 0.312500
vt 0.450000 0.312500
vt 0.462500 0.312500
vt 0.475000 0.312500
vt 0.487500 0.312500
vt 0.500000 0.312500
vt 0.512500 0.312500
vt 0.525000 0.312500
vt 0.537500 0.312500
vt 0.550000 0.312500
vt 0.562500 0.312500
vt 0.575000 0.312500
vt 0.587500 0.312500
vt 0.600000 0.312500
vt 0.612500 0.312500
vt 0.625000 0.312500
vt 0.375000 0.687500
vt 0.387500 0.687500
vt 0.400000 0.687500
vt 0.412500 0.687500
vt 0.425000 0.687500
vt 0.437500 0.687500
vt 0.450000 0.687500
vt 0.462500 0.687500
vt 0.475000 0.687500
vt 0.487500 0.687500
vt 0.500000 0.687500
vt 0.512500 0.687500
vt 0.525000 0.687500
vt 0.537500 0.687500
vt 0.550000 0.687500
vt 0.562500 0.687500
vt 0.575000 0.687500
vt 0.587500 0.687500
vt 0.600000 0.687500
vt 0.612500 0.687500
vt 0.625000 0.687500
vt 0.648603 0.795466
vt 0.626409 0.751908
vt 0.591842 0.717341
vt 0.548284 0.695147
vt 0.500000 0.687500
vt 0.451716 0.695147
vt 0.408159 0.717341
vt 0.373591 0.751909
vt 0.351397 0.795466
vt 0.343750 0.843750
vt 0.351397 0.892034
vt 0.373591 0.935591
vt 0.408159 0.970159
vt 0.451716 0.992353
vt 0.500000 1.000000
vt 0.548284 0.992353
vt 0.591841 0.970159
vt 0.626409 0.935591
vt 0.648603 0.892034
vt 0.656250 0.843750
vt 0.500000 0.156250
vt 0.500000 0.843750
vn 0.951057 0.309016 0.000000
vn 0.809017 0.587785 0.000000
vn 0.809017 0.587785 0.000000
vn 0.951057 0.309016 0.000000
vn 0.587785 0.809017 0.000000
vn 0.587785 0.809017 0.000000
vn 0.309017 0.951057 0.000000
vn 0.309017 0.951057 0.000000
vn -0.000000 1.000000 0.000000
vn -0.000000 1.000000 0.000000
vn -0.309017 0.951056 0.000000
vn -0.309017 0.951056 0.000000
vn -0.587785 0.809017 0.000000
vn -0.587785 0.809017 0.000000
vn -0.809017 0.587785 0.000000
vn -0.809017 0.587785 0.000000
vn -0.951057 0.309017 0.000000
vn -0.951057 0.309017 0.000000
vn -1.000000 0.000000 0.000000
vn -1.000000 0.000000 0.000000
vn -0.951056 -0.309017 0.000000
vn -0.951056 -0.309017 0.000000
vn -0.809017 -0.587785 0.000000
vn -0.809017 -0.587785 0.000000
vn -0.587785 -0.809017 0.000000
vn -0.587785 -0.809017 0.000000
vn -0.309017 -0.951057 0.000000
vn -0.309017 -0.951057 0.000000
vn 0.000000 -1.000000 0.000000
vn 0.000000 -1.000000 0.000000
vn 0.309017 -0.951056 0.000000
vn 0.309017 -0.951056 0.000000
vn 0.587785 -0.809017 0.000000
vn 0.587785 -0.809017 0.000000
vn 0.809017 -0.587785 0.000000
vn 0.809017 -0.587785 0.000000
vn 0.951056 -0.309017 0.000000
vn 0.951056 -0.309017 0.000000
vn 1.000000 -0.000001 0.000000
vn 1.000000 -0.000001 0.000000
vn 0.000000 -0.000000 -1.000000
vn 0.000000 -0.000000 -1.000000
vn 0.000000 -0.000000 -1.000000
vn 0.000000 -0.000000 -1.000000
vn 0.000000 -0.000000 -1.000000
vn 0.000000 -0.000000 -1.000000
vn 0.000000 -0.000000 -1.000000
vn 0.000000 -0.000000 -1.000000
vn 0.000000 -0.000000 -1.000000
vn 0.000000 -0.000000 -1.000000
vn 0.000000 -0.000000 -1.000000
vn 0.000000 -0.000000 -1.000000
vn 0.000000 -0.000000 -1.000000
vn 0.000000 -0.000000 -1.000000
vn 0.000000 -0.000000 -1.000000
vn 0.000000 -0.000000 -1.000000
vn 0.000000 -0.000000 -1.000000
vn 0.000000 -0.000000 -1.000000
vn 0.000000 -0.000000 -1.000000
vn 0.000000 -0.000000 -1.000000
vn 0.000000 -0.000000 -1.000000
vn 0.000000 0.000000 1.000000
vn 0.000000 0.000000 1.000000
vn 0.000000 0.000000 1.000000
vn 0.000000 0.000000 1.000000
vn 0.000000 0.000000 1.000000
vn 0.000000 0.000000 1.000000
vn 0.000000 0.000000 1.000000
vn 0.000000 0.000000 1.000000
vn 0.000000 0.000000 1.000000
vn 0.000000 0.000000 1.000000
vn 0.000000 0.000000 1.000000
vn 0.000000 0.000000 1.000000
vn 0.000000 0.000000 1.000000
vn 0.000000 0.000000 1.000000
vn 0.000000 0.000000 1.000000
vn 0.000000 0.000000 1.000000
vn 0.000000 0.000000 1.000000
vn 0.000000 0.000000 1.000000
vn 0.000000 0.000000 1.000000
vn 0.000000 0.000000 1.000000
vn 0.000000 0.000000 1.000000
s 1
g pasted__pasted__pasted__pasted__pasted__pasted__pCylinder1 pasted__pasted__pasted__pasted__pasted__group15 pasted__pasted__pasted__pasted__group16 pasted__pasted__pasted__group17 pasted__pasted__group27 pasted__group28 group29
usemtl initialShadingGroup
f 185/385/377 186/386/378 206/407/379 205/406/380
f 186/386/378 187/387/381 207/408/382 206/407/379
f 187/387/381 188/388/383 208/409/384 207/408/382
f 188/388/383 189/389/385 209/410/386 208/409/384
f 189/389/385 190/390/387 210/411/388 209/410/386
f 190/390/387 191/391/389 211/412/390 210/411/388
f 191/391/389 192/392/391 212/413/392 211/412/390
f 192/392/391 193/393/393 213/414/394 212/413/392
f 193/393/393 194/394/395 214/415/396 213/414/394
f 194/394/395 195/395/397 215/416/398 214/415/396
f 195/395/397 196/396/399 216/417/400 215/416/398
f 196/396/399 197/397/401 217/418/402 216/417/400
f 197/397/401 198/398/403 218/419/404 217/418/402
f 198/398/403 199/399/405 219/420/406 218/419/404
f 199/399/405 200/400/407 220/421/408 219/420/406
f 200/400/407 201/401/409 221/422/410 220/421/408
f 201/401/409 202/402/411 222/423/412 221/422/410
f 202/402/411 203/403/413 223/424/414 222/423/412
f 203/403/413 204/404/415 224/425/416 223/424/414
f 204/404/415 185/405/377 205/426/380 224/425/416
s 2
f 186/366/417 185/365/418 225/447/419
f 187/367/420 186/366/417 225/447/419
f 188/368/421 187/367/420 225/447/419
f 189/369/422 188/368/421 225/447/419
f 190/370/423 189/369/422 225/447/419
f 191/371/424 190/370/423 225/447/419
f 192/372/425 191/371/424 225/447/419
f 193/373/426 192/372/425 225/447/419
f 194/374/427 193/373/426 225/447/419
f 195/375/428 194/374/427 225/447/419
f 196/376/429 195/375/428 225/447/419
f 197/377/430 196/376/429 225/447/419
f 198/378/431 197/377/430 225/447/419
f 199/379/432 198/378/431 225/447/419
f 200/380/433 199/379/432 225/447/419
f 201/381/434 200/380/433 225/447/419
f 202/382/435 201/381/434 225/447/419
f 203/383/436 202/382/435 225/447/419
f 204/384/437 203/383/436 225/447/419
f 185/365/418 204/384/437 225/447/419
s 3
f 205/445/438 206/444/439 226/448/440
f 206/444/439 207/443/441 226/448/440
f 207/443/441 208/442/442 226/448/440
f 208/442/442 209/441/443 226/448/440
f 209/441/443 210/440/444 226/448/440
f 210/440/444 211/439/445 226/448/440
f 211/439/445 212/438/446 226/448/440
f 212/438/446 213/437/447 226/448/440
f 213/437/447 214/436/448 226/448/440
f 214/436/448 215/435/449 226/448/440
f 215/435/449 216/434/450 226/448/440
f 216/434/450 217/433/451 226/448/440
f 217/433/451 218/432/452 226/448/440
f 218/432/452 219/431/453 226/448/440
f 219/431/453 220/430/454 226/448/440
f 220/430/454 221/429/455 226/448/440
f 221/429/455 222/428/456 226/448/440
f 222/428/456 223/427/457 226/448/440
f 223/427/457 224/446/458 226/448/440
f 224/446/458 205/445/438 226/448/440
g default
v 33.609456 4.308393 -15.268352
v 35.723489 4.308393 -15.268352
v 33.609456 7.326824 -15.268352
v 35.723489 7.326824 -15.268352
v 33.609456 7.326824 -15.915301
v 35.723489 7.326824 -15.915301
v 33.609456 4.308393 -15.915301
v 35.723489 4.308393 -15.915301
vt 0.375000 0.000000
vt 0.625000 0.000000
vt 0.375000 0.250000
vt 0.625000 0.250000
vt 0.375000 0.500000
vt 0.625000 0.500000
vt 0.375000 0.750000
vt 0.625000 0.750000
vt 0.375000 1.000000
vt 0.625000 1.000000
vt 0.875000 0.000000
vt 0.875000 0.250000
vt 0.125000 0.000000
vt 0.125000 0.250000
vn 0.000000 0.000000 1.000000
vn 0.000000 0.000000 1.000000
vn 0.000000 0.000000 1.000000
vn 0.000000 0.000000 1.000000
vn 0.000000 1.000000 0.000000
vn 0.000000 1.000000 0.000000
vn 0.000000 1.000000 0.000000
vn 0.000000 1.000000 0.000000
vn 0.000000 0.000000 -1.000000
vn 0.000000 0.000000 -1.000000
vn 0.000000 0.000000 -1.000000
vn 0.000000 0.000000 -1.000000
vn 0.000000 -1.000000 0.000000
vn 0.000000 -1.000000 0.000000
vn 0.000000 -1.000000 0.000000
vn 0.000000 -1.000000 0.000000
vn 1.000000 0.000000 0.000000
vn 1.000000 0.000000 0.000000
vn 1.000000 0.000000 0.000000
vn 1.000000 0.000000 0.000000
vn -1.000000 0.000000 0.000000
vn -1.000000 0.000000 0.000000
vn -1.000000 0.000000 0.000000
vn -1.000000 0.000000 0.000000
s off
g pasted__pasted__pasted__pasted__pasted__pCube6 pasted__pasted__pasted__pasted__group20 pasted__pasted__pasted__group23 pasted__pasted__group24 pasted__group25 group32
usemtl initialShadingGroup
f 227/449/459 228/450/460 230/452/461 229/451/462
f 229/451/463 230/452/464 232/454/465 231/453/466
f 231/453/467 232/454/468 234/456/469 233/455/470
f 233/455/471 234/456/472 228/458/473 227/457/474
f 228/450/475 234/459/476 232/460/477 230/452/478
f 233/461/479 227/449/480 229/451/481 231/462/482
