# This file uses centimeters as units for non-parametric coordinates.

mtllib Libreria3.mtl
g default
v -1.561985 0.513934 0.985582
v -1.395760 0.513934 0.985582
v -1.561985 1.835373 0.985582
v -1.395760 1.835372 0.985582
v -1.561985 1.835373 0.033585
v -1.395760 1.835372 0.033584
v -1.561985 0.513934 0.033585
v -1.395760 0.513934 0.033584
vt 0.000000 -0.000000
vt 0.000000 -0.000000
vt 0.625000 0.250000
vt 0.375000 0.250000
vt 0.625000 0.500000
vt 0.375000 0.500000
vt 0.000000 0.957093
vt 0.000000 0.957093
vt 0.999999 0.957093
vt 1.000000 0.957093
vt 1.000000 -0.000000
vt 0.999999 -0.000000
vt 0.000000 -0.000000
vt 0.055400 -0.000000
vt 0.055400 -0.000000
vt 0.000000 -0.000000
vt 0.000000 0.957093
vt 0.055400 0.957093
vt 0.055400 1.000000
vt 0.000000 0.999999
vt 0.055400 -0.000000
vt 0.000000 -0.000000
vn 0.000000 0.000000 1.000000
vn 0.000000 0.000000 1.000000
vn 0.000000 0.000000 1.000000
vn 0.000000 0.000000 1.000000
vn 0.000006 1.000000 0.000000
vn 0.000006 1.000000 0.000000
vn 0.000006 1.000000 0.000000
vn 0.000006 1.000000 0.000000
vn -0.000004 0.000000 -1.000000
vn -0.000004 0.000000 -1.000000
vn -0.000004 0.000000 -1.000000
vn -0.000004 0.000000 -1.000000
vn 0.000000 -1.000000 0.000000
vn 0.000000 -1.000000 0.000000
vn 0.000000 -1.000000 0.000000
vn 0.000000 -1.000000 0.000000
vn 1.000000 0.000000 0.000000
vn 1.000000 0.000000 0.000000
vn 1.000000 0.000000 0.000000
vn 1.000000 0.000000 0.000000
vn -1.000000 0.000000 0.000000
vn -1.000000 0.000000 0.000000
vn -1.000000 0.000000 0.000000
vn -1.000000 0.000000 0.000000
s 1
g Libreria:pasted__pCube1group3
usemtl Libreria:lambert15SG
f 1/13/1 2/14/2 3/16/3
f 3/16/3 2/14/2 4/15/4
s 2
usemtl Libreria:lambert22SG
f 3/4/5 4/3/6 5/6/7
f 5/6/7 4/3/6 6/5/8
s 3
usemtl Libreria:lambert15SG
f 5/17/9 6/18/10 7/22/11
f 7/22/11 6/18/10 8/21/12
s 4
f 7/20/13 8/19/14 1/13/15
f 1/13/15 8/19/14 2/14/16
s 5
f 2/2/17 8/11/18 4/7/19
f 4/7/19 8/11/18 6/10/20
s 6
f 7/12/21 1/1/22 5/9/23
f 5/9/23 1/1/22 3/8/24
g default
v 1.275719 1.831482 0.983232
v 1.440817 1.831482 0.983232
v 1.275719 1.981141 0.983232
v 1.440817 1.981141 0.983232
v 1.275719 1.981141 0.029232
v 1.440817 1.981141 0.029232
v 1.275719 1.831482 0.029232
v 1.440817 1.831482 0.029232
vt 0.375000 0.000000
vt 0.625000 0.000000
vt 0.625000 0.250000
vt 0.375000 0.250000
vt 0.625000 0.500000
vt 0.375000 0.500000
vt 0.625000 0.750000
vt 0.375000 0.750000
vt 0.625000 1.000000
vt 0.375000 1.000000
vt 0.875000 0.000000
vt 0.875000 0.250000
vt 0.125000 0.000000
vt 0.125000 0.250000
vn 0.000000 0.000000 1.000000
vn 0.000000 0.000000 1.000000
vn 0.000000 0.000000 1.000000
vn 0.000000 0.000000 1.000000
vn 0.000001 1.000000 0.000000
vn 0.000001 1.000000 0.000000
vn 0.000001 1.000000 0.000000
vn 0.000001 1.000000 0.000000
vn -0.000004 0.000000 -1.000000
vn -0.000004 0.000000 -1.000000
vn -0.000004 0.000000 -1.000000
vn -0.000004 0.000000 -1.000000
vn 0.000000 -1.000000 0.000000
vn 0.000000 -1.000000 0.000000
vn 0.000000 -1.000000 0.000000
vn 0.000000 -1.000000 0.000000
vn 1.000000 0.000000 0.000000
vn 1.000000 0.000000 0.000000
vn 1.000000 0.000000 0.000000
vn 1.000000 0.000000 0.000000
vn -1.000000 0.000000 0.000000
vn -1.000000 0.000000 0.000000
vn -1.000000 0.000000 0.000000
vn -1.000000 0.000000 0.000000
s 1
g Libreria:pasted__pCube1group1
usemtl Libreria:lambert16SG
f 9/23/25 10/24/26 11/26/27
f 11/26/27 10/24/26 12/25/28
s 2
f 11/26/29 12/25/30 13/28/31
f 13/28/31 12/25/30 14/27/32
s 3
f 13/28/33 14/27/34 15/30/35
f 15/30/35 14/27/34 16/29/36
s 4
f 15/30/37 16/29/38 9/32/39
f 9/32/39 16/29/38 10/31/40
s 5
f 10/24/41 16/33/42 12/25/43
f 12/25/43 16/33/42 14/34/44
s 6
f 15/35/45 9/23/46 13/36/47
f 13/36/47 9/23/46 11/26/48
g default
v -1.306960 0.825170 0.797933
v 1.182422 0.825170 0.797933
v -1.306960 1.285953 0.797933
v 1.182422 1.285953 0.797933
v -1.306960 1.285953 0.165950
v 1.182422 1.285953 0.165950
v -1.306960 0.825170 0.165950
v 1.182422 0.825170 0.165950
v 0.956115 0.825170 0.797933
v 0.956115 1.285953 0.797933
v 0.729807 0.825170 0.797933
v 0.729807 1.285953 0.797933
v 0.503499 0.825170 0.797933
v 0.503499 1.285953 0.797933
v 0.277191 0.825170 0.797933
v 0.277191 1.285953 0.797933
v 0.050884 0.825170 0.797933
v 0.050884 1.285953 0.797933
v -0.175422 0.825170 0.797933
v -0.175422 1.285953 0.797933
v -0.401730 0.825170 0.797933
v -0.401730 1.285953 0.797933
v -0.628038 0.825170 0.797933
v -0.628038 1.285953 0.797933
v -0.854346 0.825170 0.797933
v -0.854346 1.285953 0.797933
v -1.080652 0.825170 0.797933
v -1.080652 1.285953 0.797933
vt 0.598129 0.029200
vt 0.588590 0.029200
vt 0.588590 0.009777
vt 0.598129 0.009777
vt 0.486062 0.029200
vt 0.459422 0.029200
vt 0.459422 0.009777
vt 0.486062 0.009777
vt 0.624769 0.029200
vt 0.624769 0.009777
vt 0.495602 0.029200
vt 0.495602 0.009777
vt 0.523925 0.029200
vt 0.514386 0.029200
vt 0.514386 0.009777
vt 0.523925 0.009777
vt 0.558095 0.029200
vt 0.548556 0.029200
vt 0.548556 0.009777
vt 0.558095 0.009777
vt 0.523925 0.029200
vt 0.514386 0.029200
vt 0.514386 0.009777
vt 0.523925 0.009777
vt 0.558095 0.029200
vt 0.548556 0.029200
vt 0.548556 0.009777
vt 0.558095 0.009777
vt 0.558095 0.029200
vt 0.548556 0.029200
vt 0.548556 0.009777
vt 0.558095 0.009777
vt 0.523925 0.029200
vt 0.514386 0.029200
vt 0.514386 0.009777
vt 0.523925 0.009777
vt 0.523925 0.029200
vt 0.514386 0.029200
vt 0.514386 0.009777
vt 0.523925 0.009777
vt 0.558095 0.029200
vt 0.548556 0.029200
vt 0.548556 0.009777
vt 0.558095 0.009777
vt 0.523925 0.029200
vt 0.514386 0.029200
vt 0.514386 0.009777
vt 0.523925 0.009777
vn 0.000000 0.000000 1.000000
vn 0.000000 0.000000 1.000000
vn 0.000000 0.000000 1.000000
vn 0.000000 0.000000 1.000000
vn 1.000000 0.000000 0.000000
vn 1.000000 0.000000 0.000000
vn 1.000000 0.000000 0.000000
vn 1.000000 0.000000 0.000000
vn -1.000000 0.000000 0.000000
vn -1.000000 0.000000 0.000000
vn -1.000000 0.000000 0.000000
vn -1.000000 0.000000 0.000000
vn 0.000000 0.000000 1.000000
vn 0.000000 0.000000 1.000000
vn 0.000000 0.000000 1.000000
vn 0.000000 0.000000 1.000000
vn 0.000000 0.000000 1.000000
vn 0.000000 0.000000 1.000000
vn 0.000000 0.000000 1.000000
vn 0.000000 0.000000 1.000000
vn 0.000000 0.000000 1.000000
vn 0.000000 0.000000 1.000000
vn 0.000000 0.000000 1.000000
vn 0.000000 0.000000 1.000000
vn 0.000000 0.000000 1.000000
vn 0.000000 0.000000 1.000000
vn 0.000000 0.000000 1.000000
vn 0.000000 0.000000 1.000000
vn 0.000000 0.000000 1.000000
vn 0.000000 0.000000 1.000000
vn 0.000000 0.000000 1.000000
vn 0.000000 0.000000 1.000000
vn 0.000000 0.000000 1.000000
vn 0.000000 0.000000 1.000000
vn 0.000000 0.000000 1.000000
vn 0.000000 0.000000 1.000000
vn 0.000000 0.000000 1.000000
vn 0.000000 0.000000 1.000000
vn 0.000000 0.000000 1.000000
vn 0.000000 0.000000 1.000000
vn 0.000000 0.000000 1.000000
vn 0.000000 0.000000 1.000000
vn 0.000000 0.000000 1.000000
vn 0.000000 0.000000 1.000000
vn 0.000000 0.000000 1.000000
vn 0.000000 0.000000 1.000000
vn 0.000000 0.000000 1.000000
vn 0.000000 0.000000 1.000000
vn 0.000000 0.000000 1.000000
vn 0.000000 0.000000 1.000000
vn 0.000000 0.000000 1.000000
vn 0.000000 0.000000 1.000000
s 1
g Libreria:polySurface13polySurface11grouppolySurface16polySurface15
usemtl Libreria:lambert19SG
f 17/37/49 43/38/50 19/40/51
f 19/40/51 43/38/50 44/39/52
s 2
usemtl Libreria:lambert23SG
f 18/41/53 24/42/54 20/44/55
f 20/44/55 24/42/54 22/43/56
s 3
usemtl Libreria:lambert19SG
f 23/45/57 17/37/58 21/46/59
f 21/46/59 17/37/58 19/40/60
s 4
usemtl Libreria:lambert23SG
f 25/47/61 18/41/62 26/48/63
f 26/48/63 18/41/62 20/44/64
s 5
usemtl Libreria:lambert17SG
f 27/49/65 25/50/66 28/52/67
f 28/52/67 25/50/66 26/51/68
s 6
usemtl Libreria:lambert18SG
f 29/53/69 27/54/70 30/56/71
f 30/56/71 27/54/70 28/55/72
s 7
usemtl Libreria:lambert17SG
f 31/57/73 29/58/74 32/60/75
f 32/60/75 29/58/74 30/59/76
s 8
usemtl Libreria:lambert18SG
f 33/61/77 31/62/78 34/64/79
f 34/64/79 31/62/78 32/63/80
s 9
f 35/65/81 33/66/82 36/68/83
f 36/68/83 33/66/82 34/67/84
s 10
usemtl Libreria:lambert17SG
f 37/69/85 35/70/86 38/72/87
f 38/72/87 35/70/86 36/71/88
s 11
f 39/73/89 37/74/90 40/76/91
f 40/76/91 37/74/90 38/75/92
s 12
usemtl Libreria:lambert18SG
f 41/77/93 39/78/94 42/80/95
f 42/80/95 39/78/94 40/79/96
s 13
usemtl Libreria:lambert17SG
f 43/81/97 41/82/98 44/84/99
f 44/84/99 41/82/98 42/83/100
g default
v 1.275833 1.894613 0.881941
v 1.275833 1.894611 0.131941
v 1.275833 0.678337 0.131941
v 1.275833 0.678339 0.881941
v -1.396607 0.678337 0.131941
v -1.396607 0.678339 0.881941
v 1.275833 0.825176 0.881941
v -1.396607 0.825174 0.131941
v -1.396607 0.825176 0.881941
v 1.275833 1.830997 0.881941
v -1.396607 1.830997 0.131941
v 1.275833 1.830997 0.131941
v 1.275833 1.364175 0.881941
v -1.396607 1.364175 0.881941
v 1.275833 1.291997 0.881941
v -1.396607 1.291997 0.881941
v -1.396607 0.825176 0.276061
v 1.275833 0.825176 0.276061
v 1.275833 1.291997 0.276061
v -1.396607 1.291997 0.276061
v 1.275833 1.364175 0.276061
v -1.396607 1.364175 0.276061
v 1.275833 1.830997 0.276061
v -1.396607 1.830997 0.276061
v -1.396607 1.329843 0.131941
v 1.275833 1.329843 0.131941
v 1.275833 0.825174 0.131941
v -1.396607 1.367691 0.881941
v 1.275833 1.367691 0.881941
v -1.396607 1.288482 0.881941
v 1.275833 1.288482 0.881941
v 1.275833 1.326328 0.131941
v -1.396607 1.326328 0.131941
v -1.396607 1.288482 0.276061
v 1.275833 1.288482 0.276061
v -1.396607 1.894611 0.131941
v -1.396607 1.894613 0.881941
v -1.396607 1.830997 0.881941
v -1.396607 1.830997 0.031941
vt 0.896684 0.999999
vt 0.000000 1.000000
vt 0.000000 0.000000
vt 0.896683 0.999999
vt 0.055117 0.896683
vt 1.000000 0.000000
vt 1.000000 1.000000
vt 0.945790 0.896683
vt 0.055117 0.108867
vt 0.945790 0.108867
vt 0.108867 0.225427
vt 0.108867 0.225427
vt 0.108867 0.953924
vt 0.108867 0.953924
vt 0.896683 0.953924
vt 0.896684 0.953924
vt 0.108867 0.563537
vt 0.108867 0.618360
vt 0.108867 0.618360
vt 0.108867 0.563537
vt 0.745297 0.225427
vt 0.745297 0.225427
vt 0.067711 0.597023
vt 0.063038 0.597023
vt 0.065374 0.589677
vt 0.052368 0.621388
vt 0.745297 0.563537
vt 0.745297 0.563537
vt 0.005025 0.621388
vt 0.945790 0.108867
vt 0.055117 0.108867
vt 0.055117 0.108867
vt 0.945790 0.108867
vt 0.745297 0.615814
vt 0.745297 0.615814
vt 0.745297 0.953924
vt 0.745297 0.953924
vt 0.108867 0.615814
vt 0.108867 0.615814
vt 0.108867 0.560991
vt 0.108867 0.560991
vt 0.745297 0.560991
vt 0.745297 0.560991
vt 0.052368 0.591786
vt 0.005025 0.591786
vt 0.945790 0.108867
vt 0.055117 0.108867
vt 0.055117 0.119074
vt 0.055117 0.225425
vt 0.945790 0.225425
vt 0.945790 0.119074
vt 0.055117 0.590948
vt 0.945790 0.590948
vt 0.945790 0.588402
vt 0.055117 0.588402
vt 0.055117 0.953924
vt 0.945790 0.953924
vn 0.000000 1.000000 -0.000003
vn 0.000000 1.000000 -0.000003
vn 0.000000 1.000000 -0.000002
vn 0.000000 1.000000 -0.000002
vn 0.000000 0.000000 -1.000000
vn 0.000000 0.000000 -1.000000
vn 0.000000 0.000000 -1.000000
vn 0.000000 0.000000 -1.000000
vn 0.000000 -1.000000 0.000002
vn 0.000000 -1.000000 0.000002
vn 0.000000 -1.000000 0.000002
vn 0.000000 -1.000000 0.000002
vn 0.000000 0.000000 1.000000
vn 0.000000 0.000000 1.000000
vn 0.000000 0.000000 1.000000
vn 0.000000 0.000000 1.000000
vn 0.000000 0.000000 1.000000
vn 0.000000 0.000000 1.000000
vn 0.000000 0.000000 1.000000
vn 0.000000 0.000000 1.000000
vn 0.000000 0.000000 -1.000000
vn 0.000000 0.000000 -1.000000
vn 0.000000 0.000000 -1.000000
vn 0.000000 0.000000 -1.000000
vn 1.000000 0.000000 0.000000
vn 1.000000 0.000000 0.000000
vn 1.000000 0.000000 0.000000
vn 0.000000 0.000000 1.000000
vn 0.000000 0.000000 1.000000
vn 0.000000 0.000000 1.000000
vn 0.000000 0.000000 1.000000
vn 0.000000 0.000000 1.000000
vn 0.000000 0.000000 1.000000
vn 0.000000 0.000000 1.000000
vn 0.000000 0.000000 1.000000
vn 0.000000 0.000000 -1.000000
vn 0.000000 0.000000 -1.000000
vn 0.000000 0.000000 -1.000000
vn 0.000000 0.000000 -1.000000
vn 0.000000 0.000000 -1.000000
vn 0.000000 0.000000 -1.000000
vn 0.000000 0.000000 -1.000000
vn 0.000000 0.000000 -1.000000
vn 0.000000 0.000000 1.000000
vn 0.000000 0.000000 1.000000
vn 0.000000 0.000000 1.000000
vn 0.000000 0.000000 1.000000
vn 0.000000 1.000000 0.000000
vn 0.000000 1.000000 0.000000
vn 0.000000 1.000000 0.000000
vn 0.000000 1.000000 0.000000
vn 0.000000 -1.000000 0.000000
vn 0.000000 -1.000000 0.000000
vn 0.000000 -1.000000 0.000000
vn 0.000000 -1.000000 0.000000
vn 0.000000 1.000000 0.000000
vn 0.000000 1.000000 0.000000
vn 0.000000 1.000000 0.000000
vn 0.000000 1.000000 0.000000
vn 0.000000 -1.000000 0.000000
vn 0.000000 -1.000000 0.000000
vn 0.000000 -1.000000 0.000000
vn 0.000000 -1.000000 0.000000
vn 0.000000 -1.000000 0.000000
vn 0.000000 -1.000000 0.000000
vn 0.000000 -1.000000 0.000000
vn 0.000000 -1.000000 0.000000
s 1
g Libreria:polySurface13polySurface11grouppolySurface15polySurface17
usemtl Libreria:lambert15SG
f 80/86/101 81/87/102 46/91/103
f 46/91/103 81/87/102 45/90/104
s 2
f 49/132/105 52/133/106 47/135/107
f 47/135/107 52/133/106 71/134/108
s 3
f 50/93/109 49/89/110 48/94/111
f 48/94/111 49/89/110 47/92/112
s 4
f 51/114/113 53/115/114 48/94/115
f 48/94/115 53/115/114 50/93/116
s 5
f 82/116/117 54/117/118 81/131/119
f 81/131/119 54/117/118 45/130/120
s 6
f 56/99/121 55/100/122 46/88/123
f 46/88/123 55/100/122 80/85/124
s off
usemtl Libreria:lambert3SG
f 80/107/125 55/108/126 83/109/127
s 7
usemtl Libreria:lambert15SG
f 59/101/128 73/102/129 60/104/130
f 60/104/130 73/102/129 72/103/131
s 8
f 61/105/132 62/106/133 64/112/134
f 64/112/134 62/106/133 63/111/135
s 9
f 71/134/136 52/133/137 70/137/138
f 70/137/138 52/133/137 69/136/139
s 10
f 76/138/140 77/139/141 56/141/142
f 56/141/142 77/139/141 55/140/143
s 11
f 66/118/144 65/119/145 68/121/146
f 68/121/146 65/119/145 67/120/147
s 12
f 53/96/148 51/95/149 61/105/150
f 61/105/150 51/95/149 62/106/151
s 13
usemtl Libreria:lambert3SG
f 59/110/152 60/113/153 63/128/154
f 63/128/154 60/113/153 64/129/155
s 14
usemtl Libreria:lambert15SG
f 58/122/156 57/123/157 66/118/158
f 66/118/158 57/123/157 65/119/159
s 15
f 54/98/160 82/97/161 67/120/162
f 67/120/162 82/97/161 68/121/163
s 16
f 75/124/164 74/125/165 79/127/166
f 79/127/166 74/125/165 78/126/167
g default
v -1.306960 1.364175 0.797933
v 1.182422 1.364175 0.797933
v -1.306960 1.830997 0.797933
v 1.182422 1.830997 0.797933
v -1.306960 1.830997 0.379768
v 1.182422 1.830997 0.379768
v -1.306960 1.364175 0.379768
v 1.182422 1.364175 0.379768
v 1.051402 1.364175 0.797933
v 1.051402 1.830997 0.797933
v 0.920381 1.364175 0.797933
v 0.920381 1.830997 0.797933
v 0.789362 1.364175 0.797933
v 0.789362 1.830997 0.797933
v 0.658342 1.364175 0.797933
v 0.658342 1.830997 0.797933
v 0.527322 1.364175 0.797933
v 0.527322 1.830997 0.797933
v 0.396301 1.364175 0.797933
v 0.396301 1.830997 0.797933
v 0.265281 1.364175 0.797933
v 0.265281 1.830997 0.797933
v 0.134261 1.364175 0.797933
v 0.134261 1.830997 0.797933
v 0.003241 1.364175 0.797933
v 0.003241 1.830997 0.797933
v -0.127780 1.364175 0.797933
v -0.127780 1.830997 0.797933
v -0.258799 1.364175 0.797933
v -0.258799 1.830997 0.797933
v -0.389819 1.364175 0.797933
v -0.389819 1.830997 0.797933
v -0.520839 1.364175 0.797933
v -0.520839 1.830997 0.797933
v -0.651860 1.364175 0.797933
v -0.651860 1.830997 0.797933
v -0.782880 1.364175 0.797933
v -0.782880 1.830997 0.797933
v -0.913900 1.364175 0.797933
v -0.913900 1.830997 0.797933
v -1.044920 1.364175 0.797933
v -1.044920 1.830997 0.797933
v -1.175940 1.364175 0.797933
v -1.175940 1.830997 0.797933
vt 0.891222 0.040419
vt 0.883530 0.040419
vt 0.883530 0.013012
vt 0.891222 0.013012
vt 0.732933 0.040419
vt 0.708383 0.040419
vt 0.708383 0.013012
vt 0.732934 0.013012
vt 0.915772 0.040419
vt 0.915772 0.013012
vt 0.740626 0.040419
vt 0.740626 0.013012
vt 0.780628 0.040419
vt 0.772936 0.040419
vt 0.772936 0.013012
vt 0.780628 0.013012
vt 0.810377 0.040419
vt 0.802685 0.040419
vt 0.802685 0.013012
vt 0.810377 0.013012
vt 0.849830 0.040419
vt 0.842138 0.040419
vt 0.842138 0.013012
vt 0.849830 0.013012
vt 0.780628 0.040419
vt 0.772936 0.040419
vt 0.772936 0.013012
vt 0.780628 0.013012
vt 0.810377 0.040419
vt 0.802685 0.040419
vt 0.802685 0.013012
vt 0.810377 0.013012
vt 0.780628 0.040419
vt 0.772936 0.040419
vt 0.772936 0.013012
vt 0.780628 0.013012
vt 0.849830 0.040419
vt 0.842138 0.040419
vt 0.842138 0.013012
vt 0.849830 0.013012
vt 0.780628 0.040419
vt 0.772936 0.040419
vt 0.772936 0.013012
vt 0.780628 0.013012
vt 0.810377 0.040419
vt 0.802685 0.040419
vt 0.802685 0.013012
vt 0.810377 0.013012
vt 0.810377 0.040419
vt 0.802685 0.040419
vt 0.802685 0.013012
vt 0.810377 0.013012
vt 0.780628 0.040419
vt 0.772936 0.040419
vt 0.772936 0.013012
vt 0.780628 0.013012
vt 0.780628 0.040419
vt 0.772936 0.040419
vt 0.772936 0.013012
vt 0.780628 0.013012
vt 0.849830 0.040419
vt 0.842138 0.040419
vt 0.842138 0.013012
vt 0.849830 0.013012
vt 0.849830 0.040419
vt 0.842138 0.040419
vt 0.842138 0.013012
vt 0.849830 0.013012
vt 0.810377 0.040419
vt 0.802685 0.040419
vt 0.802685 0.013012
vt 0.810377 0.013012
vt 0.849830 0.040419
vt 0.842138 0.040419
vt 0.842138 0.013012
vt 0.849830 0.013012
vt 0.810377 0.040419
vt 0.802685 0.040419
vt 0.802685 0.013012
vt 0.810377 0.013012
vn 0.000000 0.000000 1.000000
vn 0.000000 0.000000 1.000000
vn 0.000000 0.000000 1.000000
vn 0.000000 0.000000 1.000000
vn 1.000000 0.000000 0.000000
vn 1.000000 0.000000 0.000000
vn 1.000000 0.000000 0.000000
vn 1.000000 0.000000 0.000000
vn -1.000000 0.000000 0.000000
vn -1.000000 0.000000 0.000000
vn -1.000000 0.000000 0.000000
vn -1.000000 0.000000 0.000000
vn -0.000002 0.000000 1.000000
vn 0.000000 0.000000 1.000000
vn -0.000002 0.000000 1.000000
vn 0.000000 0.000000 1.000000
vn -0.000002 0.000000 1.000000
vn -0.000002 0.000000 1.000000
vn -0.000002 0.000000 1.000000
vn -0.000002 0.000000 1.000000
vn 0.000000 0.000000 1.000000
vn -0.000002 0.000000 1.000000
vn 0.000000 0.000000 1.000000
vn -0.000002 0.000000 1.000000
vn 0.000000 0.000000 1.000000
vn 0.000000 0.000000 1.000000
vn 0.000000 0.000000 1.000000
vn 0.000000 0.000000 1.000000
vn 0.000000 0.000000 1.000000
vn 0.000000 0.000000 1.000000
vn 0.000000 0.000000 1.000000
vn 0.000000 0.000000 1.000000
vn 0.000000 0.000000 1.000000
vn 0.000000 0.000000 1.000000
vn 0.000000 0.000000 1.000000
vn 0.000000 0.000000 1.000000
vn 0.000000 0.000000 1.000000
vn 0.000000 0.000000 1.000000
vn 0.000000 0.000000 1.000000
vn 0.000000 0.000000 1.000000
vn 0.000000 0.000000 1.000000
vn 0.000000 0.000000 1.000000
vn 0.000000 0.000000 1.000000
vn 0.000000 0.000000 1.000000
vn 0.000000 0.000000 1.000000
vn 0.000000 0.000000 1.000000
vn 0.000000 0.000000 1.000000
vn 0.000000 0.000000 1.000000
vn 0.000000 0.000000 1.000000
vn 0.000000 0.000000 1.000000
vn 0.000000 0.000000 1.000000
vn 0.000000 0.000000 1.000000
vn 0.000000 0.000000 1.000000
vn 0.000000 0.000000 1.000000
vn 0.000000 0.000000 1.000000
vn 0.000000 0.000000 1.000000
vn 0.000000 0.000000 1.000000
vn 0.000000 0.000000 1.000000
vn 0.000000 0.000000 1.000000
vn 0.000000 0.000000 1.000000
vn 0.000000 0.000000 1.000000
vn 0.000000 0.000000 1.000000
vn 0.000000 0.000000 1.000000
vn 0.000000 0.000000 1.000000
vn 0.000000 0.000000 1.000000
vn 0.000000 0.000000 1.000000
vn 0.000000 0.000000 1.000000
vn 0.000000 0.000000 1.000000
vn 0.000002 0.000000 1.000000
vn 0.000000 0.000000 1.000000
vn 0.000002 0.000000 1.000000
vn 0.000000 0.000000 1.000000
vn 0.000002 0.000000 1.000000
vn 0.000002 0.000000 1.000000
vn 0.000002 0.000000 1.000000
vn 0.000002 0.000000 1.000000
vn 0.000000 0.000000 1.000000
vn 0.000002 0.000000 1.000000
vn 0.000000 0.000000 1.000000
vn 0.000002 0.000000 1.000000
vn 0.000000 0.000000 1.000000
vn 0.000000 0.000000 1.000000
vn 0.000000 0.000000 1.000000
vn 0.000000 0.000000 1.000000
s 1
g Libreria:polySurface14polySurface13polySurface11group
usemtl Libreria:lambert18SG
f 84/142/168 126/143/169 86/145/170
f 86/145/170 126/143/169 127/144/171
s 2
usemtl Libreria:lambert9SG
f 85/146/172 91/147/173 87/149/174
f 87/149/174 91/147/173 89/148/175
s 3
usemtl Libreria:lambert18SG
f 90/150/176 84/142/177 88/151/178
f 88/151/178 84/142/177 86/145/179
s 4
usemtl Libreria:lambert17SG
f 92/152/180 85/146/181 93/153/182
f 93/153/182 85/146/181 87/149/183
s 5
usemtl Libreria:lambert19SG
f 94/154/184 92/155/185 95/157/186
f 95/157/186 92/155/185 93/156/187
s 6
usemtl Libreria:lambert20SG
f 96/158/188 94/159/189 97/161/190
f 97/161/190 94/159/189 95/160/191
s 7
usemtl Libreria:lambert23SG
f 98/162/192 96/163/193 99/165/194
f 99/165/194 96/163/193 97/164/195
s 8
usemtl Libreria:lambert19SG
f 100/166/196 98/167/197 101/169/198
f 101/169/198 98/167/197 99/168/199
s 9
usemtl Libreria:lambert20SG
f 102/170/200 100/171/201 103/173/202
f 103/173/202 100/171/201 101/172/203
s 10
usemtl Libreria:lambert19SG
f 104/174/204 102/175/205 105/177/206
f 105/177/206 102/175/205 103/176/207
s 11
usemtl Libreria:lambert23SG
f 106/178/208 104/179/209 107/181/210
f 107/181/210 104/179/209 105/180/211
s 12
usemtl Libreria:lambert19SG
f 108/182/212 106/183/213 109/185/214
f 109/185/214 106/183/213 107/184/215
s 13
usemtl Libreria:lambert20SG
f 110/186/216 108/187/217 111/189/218
f 111/189/218 108/187/217 109/188/219
s 14
f 112/190/220 110/191/221 113/193/222
f 113/193/222 110/191/221 111/192/223
s 15
usemtl Libreria:lambert19SG
f 114/194/224 112/195/225 115/197/226
f 115/197/226 112/195/225 113/196/227
s 16
f 116/198/228 114/199/229 117/201/230
f 117/201/230 114/199/229 115/200/231
s 17
usemtl Libreria:lambert23SG
f 118/202/232 116/203/233 119/205/234
f 119/205/234 116/203/233 117/204/235
s 18
f 120/206/236 118/207/237 121/209/238
f 121/209/238 118/207/237 119/208/239
s 19
usemtl Libreria:lambert20SG
f 122/210/240 120/211/241 123/213/242
f 123/213/242 120/211/241 121/212/243
s 20
usemtl Libreria:lambert23SG
f 124/214/244 122/215/245 125/217/246
f 125/217/246 122/215/245 123/216/247
s 21
usemtl Libreria:lambert20SG
f 126/218/248 124/219/249 127/221/250
f 127/221/250 124/219/249 125/220/251
g default
v -1.561241 1.831482 0.985582
v -1.395016 1.831482 0.985582
v -1.561241 1.981141 0.985582
v -1.395016 1.981141 0.985582
v -1.561241 1.981141 0.033585
v -1.395016 1.981141 0.033584
v -1.561241 1.831482 0.033585
v -1.395016 1.831482 0.033584
vt 0.375000 0.000000
vt 0.625000 0.000000
vt 0.625000 0.250000
vt 0.375000 0.250000
vt 0.625000 0.500000
vt 0.375000 0.500000
vt 0.625000 0.750000
vt 0.375000 0.750000
vt 0.625000 1.000000
vt 0.375000 1.000000
vt 0.875000 0.000000
vt 0.875000 0.250000
vt 0.125000 0.000000
vt 0.125000 0.250000
vn 0.000004 0.000000 1.000000
vn 0.000004 0.000000 1.000000
vn 0.000004 0.000000 1.000000
vn 0.000004 0.000000 1.000000
vn 0.000001 1.000000 0.000000
vn 0.000001 1.000000 0.000000
vn 0.000001 1.000000 0.000000
vn 0.000001 1.000000 0.000000
vn -0.000004 0.000000 -1.000000
vn -0.000004 0.000000 -1.000000
vn -0.000004 0.000000 -1.000000
vn -0.000004 0.000000 -1.000000
vn 0.000000 -1.000000 0.000000
vn 0.000000 -1.000000 0.000000
vn 0.000000 -1.000000 0.000000
vn 0.000000 -1.000000 0.000000
vn 1.000000 0.000000 0.000000
vn 1.000000 0.000000 0.000000
vn 1.000000 0.000000 0.000000
vn 1.000000 0.000000 0.000000
vn -1.000000 0.000000 0.000000
vn -1.000000 0.000000 0.000000
vn -1.000000 0.000000 0.000000
vn -1.000000 0.000000 0.000000
s 1
g Libreria:pCube1
usemtl Libreria:lambert16SG
f 128/222/252 129/223/253 130/225/254
f 130/225/254 129/223/253 131/224/255
s 2
f 130/225/256 131/224/257 132/227/258
f 132/227/258 131/224/257 133/226/259
s 3
f 132/227/260 133/226/261 134/229/262
f 134/229/262 133/226/261 135/228/263
s 4
f 134/229/264 135/228/265 128/231/266
f 128/231/266 135/228/265 129/230/267
s 5
f 129/223/268 135/232/269 131/224/270
f 131/224/270 135/232/269 133/233/271
s 6
f 134/234/272 128/222/273 132/235/274
f 132/235/274 128/222/273 130/225/275
g default
v 1.272265 0.513934 0.985582
v 1.438490 0.513934 0.985582
v 1.272265 1.835373 0.985582
v 1.438490 1.835372 0.985582
v 1.272265 1.835373 0.033585
v 1.438490 1.835372 0.033584
v 1.272265 0.513934 0.033585
v 1.438490 0.513934 0.033584
vt -0.000000 -0.000000
vt -0.000000 -0.000000
vt 0.625000 0.250000
vt 0.375000 0.250000
vt 0.625000 0.500000
vt 0.375000 0.500000
vt -0.000000 0.957093
vt -0.000000 0.957093
vt 0.999999 0.957093
vt 1.000000 0.957093
vt 1.000000 -0.000000
vt 0.999999 -0.000000
vt 0.944601 -0.000000
vt 1.000000 -0.000000
vt 1.000000 -0.000000
vt 0.944601 -0.000000
vt 0.944601 0.957093
vt 1.000000 0.957093
vt 1.000000 1.000000
vt 0.944601 0.999999
vt 1.000000 -0.000000
vt 0.944601 -0.000000
vn 0.000000 0.000000 1.000000
vn 0.000000 0.000000 1.000000
vn 0.000000 0.000000 1.000000
vn 0.000000 0.000000 1.000000
vn 0.000006 1.000000 0.000000
vn 0.000006 1.000000 0.000000
vn 0.000006 1.000000 0.000000
vn 0.000006 1.000000 0.000000
vn -0.000004 0.000000 -1.000000
vn -0.000004 0.000000 -1.000000
vn -0.000004 0.000000 -1.000000
vn -0.000004 0.000000 -1.000000
vn 0.000000 -1.000000 0.000000
vn 0.000000 -1.000000 0.000000
vn 0.000000 -1.000000 0.000000
vn 0.000000 -1.000000 0.000000
vn 1.000000 0.000000 0.000000
vn 1.000000 0.000000 0.000000
vn 1.000000 0.000000 0.000000
vn 1.000000 0.000000 0.000000
vn -1.000000 0.000000 0.000000
vn -1.000000 0.000000 0.000000
vn -1.000000 0.000000 0.000000
vn -1.000000 0.000000 0.000000
s 1
g Libreria:pasted__pasted__pCube1pasted__group3group4
usemtl Libreria:lambert15SG
f 136/248/276 137/249/277 138/251/278
f 138/251/278 137/249/277 139/250/279
s 2
usemtl Libreria:lambert22SG
f 138/239/280 139/238/281 140/241/282
f 140/241/282 139/238/281 141/240/283
s 3
usemtl Libreria:lambert15SG
f 140/252/284 141/253/285 142/257/286
f 142/257/286 141/253/285 143/256/287
s 4
f 142/255/288 143/254/289 136/248/290
f 136/248/290 143/254/289 137/249/291
s 5
f 137/237/292 143/246/293 139/242/294
f 139/242/294 143/246/293 141/245/295
s 6
f 142/247/296 136/236/297 140/244/298
f 140/244/298 136/236/297 138/243/299
g default
v -1.561985 0.513934 0.985582
v -1.395760 0.513934 0.985582
v -1.561985 1.835373 0.985582
v -1.395760 1.835372 0.985582
v -1.561985 1.835373 0.033585
v -1.395760 1.835372 0.033584
v -1.561985 0.513934 0.033585
v -1.395760 0.513934 0.033584
vt 0.000000 -0.000000
vt 0.000000 -0.000000
vt 0.625000 0.250000
vt 0.375000 0.250000
vt 0.625000 0.500000
vt 0.375000 0.500000
vt 0.000000 0.957093
vt 0.000000 0.957093
vt 0.999999 0.957093
vt 1.000000 0.957093
vt 1.000000 -0.000000
vt 0.999999 -0.000000
vt 0.000000 -0.000000
vt 0.055400 -0.000000
vt 0.055400 -0.000000
vt 0.000000 -0.000000
vt 0.000000 0.957093
vt 0.055400 0.957093
vt 0.055400 1.000000
vt 0.000000 0.999999
vt 0.055400 -0.000000
vt 0.000000 -0.000000
vn 0.000000 0.000000 1.000000
vn 0.000000 0.000000 1.000000
vn 0.000000 0.000000 1.000000
vn 0.000000 0.000000 1.000000
vn 0.000006 1.000000 0.000000
vn 0.000006 1.000000 0.000000
vn 0.000006 1.000000 0.000000
vn 0.000006 1.000000 0.000000
vn -0.000004 0.000000 -1.000000
vn -0.000004 0.000000 -1.000000
vn -0.000004 0.000000 -1.000000
vn -0.000004 0.000000 -1.000000
vn 0.000000 -1.000000 0.000000
vn 0.000000 -1.000000 0.000000
vn 0.000000 -1.000000 0.000000
vn 0.000000 -1.000000 0.000000
vn 1.000000 0.000000 0.000000
vn 1.000000 0.000000 0.000000
vn 1.000000 0.000000 0.000000
vn 1.000000 0.000000 0.000000
vn -1.000000 0.000000 0.000000
vn -1.000000 0.000000 0.000000
vn -1.000000 0.000000 0.000000
vn -1.000000 0.000000 0.000000
s 1
g Libreria:pasted__pCube1group3
f 144/270/300 145/271/301 146/273/302
f 146/273/302 145/271/301 147/272/303
s 2
f 146/261/304 147/260/305 148/263/306
f 148/263/306 147/260/305 149/262/307
s 3
f 148/274/308 149/275/309 150/279/310
f 150/279/310 149/275/309 151/278/311
s 4
f 150/277/312 151/276/313 144/270/314
f 144/270/314 151/276/313 145/271/315
s 5
f 145/259/316 151/268/317 147/264/318
f 147/264/318 151/268/317 149/267/319
s 6
f 150/269/320 144/258/321 148/266/322
f 148/266/322 144/258/321 146/265/323
g default
v 1.275719 1.831482 0.983232
v 1.440817 1.831482 0.983232
v 1.275719 1.981141 0.983232
v 1.440817 1.981141 0.983232
v 1.275719 1.981141 0.029232
v 1.440817 1.981141 0.029232
v 1.275719 1.831482 0.029232
v 1.440817 1.831482 0.029232
vt 0.375000 0.000000
vt 0.625000 0.000000
vt 0.625000 0.250000
vt 0.375000 0.250000
vt 0.625000 0.500000
vt 0.375000 0.500000
vt 0.625000 0.750000
vt 0.375000 0.750000
vt 0.625000 1.000000
vt 0.375000 1.000000
vt 0.875000 0.000000
vt 0.875000 0.250000
vt 0.125000 0.000000
vt 0.125000 0.250000
vn 0.000000 0.000000 1.000000
vn 0.000000 0.000000 1.000000
vn 0.000000 0.000000 1.000000
vn 0.000000 0.000000 1.000000
vn 0.000001 1.000000 0.000000
vn 0.000001 1.000000 0.000000
vn 0.000001 1.000000 0.000000
vn 0.000001 1.000000 0.000000
vn -0.000004 0.000000 -1.000000
vn -0.000004 0.000000 -1.000000
vn -0.000004 0.000000 -1.000000
vn -0.000004 0.000000 -1.000000
vn 0.000000 -1.000000 0.000000
vn 0.000000 -1.000000 0.000000
vn 0.000000 -1.000000 0.000000
vn 0.000000 -1.000000 0.000000
vn 1.000000 0.000000 0.000000
vn 1.000000 0.000000 0.000000
vn 1.000000 0.000000 0.000000
vn 1.000000 0.000000 0.000000
vn -1.000000 0.000000 0.000000
vn -1.000000 0.000000 0.000000
vn -1.000000 0.000000 0.000000
vn -1.000000 0.000000 0.000000
s 1
g Libreria:pasted__pCube1group1
f 152/280/324 153/281/325 154/283/326
f 154/283/326 153/281/325 155/282/327
s 2
f 154/283/328 155/282/329 156/285/330
f 156/285/330 155/282/329 157/284/331
s 3
f 156/285/332 157/284/333 158/287/334
f 158/287/334 157/284/333 159/286/335
s 4
f 158/287/336 159/286/337 152/289/338
f 152/289/338 159/286/337 153/288/339
s 5
f 153/281/340 159/290/341 155/282/342
f 155/282/342 159/290/341 157/291/343
s 6
f 158/292/344 152/280/345 156/293/346
f 156/293/346 152/280/345 154/283/347
g default
v -1.306960 0.825170 0.797933
v 1.182422 0.825170 0.797933
v -1.306960 1.285953 0.797933
v 1.182422 1.285953 0.797933
v -1.306960 1.285953 0.165950
v 1.182422 1.285953 0.165950
v -1.306960 0.825170 0.165950
v 1.182422 0.825170 0.165950
v 0.956115 0.825170 0.797933
v 0.956115 1.285953 0.797933
v 0.729807 0.825170 0.797933
v 0.729807 1.285953 0.797933
v 0.503499 0.825170 0.797933
v 0.503499 1.285953 0.797933
v 0.277191 0.825170 0.797933
v 0.277191 1.285953 0.797933
v 0.050884 0.825170 0.797933
v 0.050884 1.285953 0.797933
v -0.175422 0.825170 0.797933
v -0.175422 1.285953 0.797933
v -0.401730 0.825170 0.797933
v -0.401730 1.285953 0.797933
v -0.628038 0.825170 0.797933
v -0.628038 1.285953 0.797933
v -0.854346 0.825170 0.797933
v -0.854346 1.285953 0.797933
v -1.080652 0.825170 0.797933
v -1.080652 1.285953 0.797933
vt 0.598129 0.029200
vt 0.588590 0.029200
vt 0.588590 0.009777
vt 0.598129 0.009777
vt 0.486062 0.029200
vt 0.459422 0.029200
vt 0.459422 0.009777
vt 0.486062 0.009777
vt 0.624769 0.029200
vt 0.624769 0.009777
vt 0.495602 0.029200
vt 0.495602 0.009777
vt 0.523925 0.029200
vt 0.514386 0.029200
vt 0.514386 0.009777
vt 0.523925 0.009777
vt 0.558095 0.029200
vt 0.548556 0.029200
vt 0.548556 0.009777
vt 0.558095 0.009777
vt 0.523925 0.029200
vt 0.514386 0.029200
vt 0.514386 0.009777
vt 0.523925 0.009777
vt 0.558095 0.029200
vt 0.548556 0.029200
vt 0.548556 0.009777
vt 0.558095 0.009777
vt 0.558095 0.029200
vt 0.548556 0.029200
vt 0.548556 0.009777
vt 0.558095 0.009777
vt 0.523925 0.029200
vt 0.514386 0.029200
vt 0.514386 0.009777
vt 0.523925 0.009777
vt 0.523925 0.029200
vt 0.514386 0.029200
vt 0.514386 0.009777
vt 0.523925 0.009777
vt 0.558095 0.029200
vt 0.548556 0.029200
vt 0.548556 0.009777
vt 0.558095 0.009777
vt 0.523925 0.029200
vt 0.514386 0.029200
vt 0.514386 0.009777
vt 0.523925 0.009777
vn 0.000000 0.000000 1.000000
vn 0.000000 0.000000 1.000000
vn 0.000000 0.000000 1.000000
vn 0.000000 0.000000 1.000000
vn 1.000000 0.000000 0.000000
vn 1.000000 0.000000 0.000000
vn 1.000000 0.000000 0.000000
vn 1.000000 0.000000 0.000000
vn -1.000000 0.000000 0.000000
vn -1.000000 0.000000 0.000000
vn -1.000000 0.000000 0.000000
vn -1.000000 0.000000 0.000000
vn 0.000000 0.000000 1.000000
vn 0.000000 0.000000 1.000000
vn 0.000000 0.000000 1.000000
vn 0.000000 0.000000 1.000000
vn 0.000000 0.000000 1.000000
vn 0.000000 0.000000 1.000000
vn 0.000000 0.000000 1.000000
vn 0.000000 0.000000 1.000000
vn 0.000000 0.000000 1.000000
vn 0.000000 0.000000 1.000000
vn 0.000000 0.000000 1.000000
vn 0.000000 0.000000 1.000000
vn 0.000000 0.000000 1.000000
vn 0.000000 0.000000 1.000000
vn 0.000000 0.000000 1.000000
vn 0.000000 0.000000 1.000000
vn 0.000000 0.000000 1.000000
vn 0.000000 0.000000 1.000000
vn 0.000000 0.000000 1.000000
vn 0.000000 0.000000 1.000000
vn 0.000000 0.000000 1.000000
vn 0.000000 0.000000 1.000000
vn 0.000000 0.000000 1.000000
vn 0.000000 0.000000 1.000000
vn 0.000000 0.000000 1.000000
vn 0.000000 0.000000 1.000000
vn 0.000000 0.000000 1.000000
vn 0.000000 0.000000 1.000000
vn 0.000000 0.000000 1.000000
vn 0.000000 0.000000 1.000000
vn 0.000000 0.000000 1.000000
vn 0.000000 0.000000 1.000000
vn 0.000000 0.000000 1.000000
vn 0.000000 0.000000 1.000000
vn 0.000000 0.000000 1.000000
vn 0.000000 0.000000 1.000000
vn 0.000000 0.000000 1.000000
vn 0.000000 0.000000 1.000000
vn 0.000000 0.000000 1.000000
vn 0.000000 0.000000 1.000000
s 1
g Libreria:polySurface13polySurface11grouppolySurface16polySurface15
f 160/294/348 186/295/349 162/297/350
f 162/297/350 186/295/349 187/296/351
s 2
f 161/298/352 167/299/353 163/301/354
f 163/301/354 167/299/353 165/300/355
s 3
f 166/302/356 160/294/357 164/303/358
f 164/303/358 160/294/357 162/297/359
s 4
f 168/304/360 161/298/361 169/305/362
f 169/305/362 161/298/361 163/301/363
s 5
f 170/306/364 168/307/365 171/309/366
f 171/309/366 168/307/365 169/308/367
s 6
f 172/310/368 170/311/369 173/313/370
f 173/313/370 170/311/369 171/312/371
s 7
f 174/314/372 172/315/373 175/317/374
f 175/317/374 172/315/373 173/316/375
s 8
f 176/318/376 174/319/377 177/321/378
f 177/321/378 174/319/377 175/320/379
s 9
f 178/322/380 176/323/381 179/325/382
f 179/325/382 176/323/381 177/324/383
s 10
f 180/326/384 178/327/385 181/329/386
f 181/329/386 178/327/385 179/328/387
s 11
f 182/330/388 180/331/389 183/333/390
f 183/333/390 180/331/389 181/332/391
s 12
f 184/334/392 182/335/393 185/337/394
f 185/337/394 182/335/393 183/336/395
s 13
f 186/338/396 184/339/397 187/341/398
f 187/341/398 184/339/397 185/340/399
g default
v 1.275833 1.894613 0.881941
v 1.275833 1.894611 0.131941
v 1.275833 0.678337 0.131941
v 1.275833 0.678339 0.881941
v -1.396607 0.678337 0.131941
v -1.396607 0.678339 0.881941
v 1.275833 0.825176 0.881941
v -1.396607 0.825174 0.131941
v -1.396607 0.825176 0.881941
v 1.275833 1.830997 0.881941
v -1.396607 1.830997 0.131941
v 1.275833 1.830997 0.131941
v 1.275833 1.364175 0.881941
v -1.396607 1.364175 0.881941
v 1.275833 1.291997 0.881941
v -1.396607 1.291997 0.881941
v -1.396607 0.825176 0.276061
v 1.275833 0.825176 0.276061
v 1.275833 1.291997 0.276061
v -1.396607 1.291997 0.276061
v 1.275833 1.364175 0.276061
v -1.396607 1.364175 0.276061
v 1.275833 1.830997 0.276061
v -1.396607 1.830997 0.276061
v -1.396607 1.329843 0.131941
v 1.275833 1.329843 0.131941
v 1.275833 0.825174 0.131941
v -1.396607 1.367691 0.881941
v 1.275833 1.367691 0.881941
v -1.396607 1.288482 0.881941
v 1.275833 1.288482 0.881941
v 1.275833 1.326328 0.131941
v -1.396607 1.326328 0.131941
v -1.396607 1.288482 0.276061
v 1.275833 1.288482 0.276061
v -1.396607 1.894611 0.131941
v -1.396607 1.894613 0.881941
v -1.396607 1.830997 0.881941
v -1.396607 1.830997 0.031941
vt 0.896684 0.999999
vt 0.000000 1.000000
vt 0.000000 0.000000
vt 0.896683 0.999999
vt 0.055117 0.896683
vt 1.000000 0.000000
vt 1.000000 1.000000
vt 0.945790 0.896683
vt 0.055117 0.108867
vt 0.945790 0.108867
vt 0.108867 0.225427
vt 0.108867 0.225427
vt 0.108867 0.953924
vt 0.108867 0.953924
vt 0.896683 0.953924
vt 0.896684 0.953924
vt 0.108867 0.563537
vt 0.108867 0.618360
vt 0.108867 0.618360
vt 0.108867 0.563537
vt 0.745297 0.225427
vt 0.745297 0.225427
vt 0.067711 0.597023
vt 0.063038 0.597023
vt 0.065374 0.589677
vt 0.052368 0.621388
vt 0.745297 0.563537
vt 0.745297 0.563537
vt 0.005025 0.621388
vt 0.945790 0.108867
vt 0.055117 0.108867
vt 0.055117 0.108867
vt 0.945790 0.108867
vt 0.745297 0.615814
vt 0.745297 0.615814
vt 0.745297 0.953924
vt 0.745297 0.953924
vt 0.108867 0.615814
vt 0.108867 0.615814
vt 0.108867 0.560991
vt 0.108867 0.560991
vt 0.745297 0.560991
vt 0.745297 0.560991
vt 0.052368 0.591786
vt 0.005025 0.591786
vt 0.945790 0.108867
vt 0.055117 0.108867
vt 0.055117 0.119074
vt 0.055117 0.225425
vt 0.945790 0.225425
vt 0.945790 0.119074
vt 0.055117 0.590948
vt 0.945790 0.590948
vt 0.945790 0.588402
vt 0.055117 0.588402
vt 0.055117 0.953924
vt 0.945790 0.953924
vn 0.000000 1.000000 -0.000003
vn 0.000000 1.000000 -0.000003
vn 0.000000 1.000000 -0.000002
vn 0.000000 1.000000 -0.000002
vn 0.000000 0.000000 -1.000000
vn 0.000000 0.000000 -1.000000
vn 0.000000 0.000000 -1.000000
vn 0.000000 0.000000 -1.000000
vn 0.000000 -1.000000 0.000002
vn 0.000000 -1.000000 0.000002
vn 0.000000 -1.000000 0.000002
vn 0.000000 -1.000000 0.000002
vn 0.000000 0.000000 1.000000
vn 0.000000 0.000000 1.000000
vn 0.000000 0.000000 1.000000
vn 0.000000 0.000000 1.000000
vn 0.000000 0.000000 1.000000
vn 0.000000 0.000000 1.000000
vn 0.000000 0.000000 1.000000
vn 0.000000 0.000000 1.000000
vn 0.000000 0.000000 -1.000000
vn 0.000000 0.000000 -1.000000
vn 0.000000 0.000000 -1.000000
vn 0.000000 0.000000 -1.000000
vn 1.000000 0.000000 0.000000
vn 1.000000 0.000000 0.000000
vn 1.000000 0.000000 0.000000
vn 0.000000 0.000000 1.000000
vn 0.000000 0.000000 1.000000
vn 0.000000 0.000000 1.000000
vn 0.000000 0.000000 1.000000
vn 0.000000 0.000000 1.000000
vn 0.000000 0.000000 1.000000
vn 0.000000 0.000000 1.000000
vn 0.000000 0.000000 1.000000
vn 0.000000 0.000000 -1.000000
vn 0.000000 0.000000 -1.000000
vn 0.000000 0.000000 -1.000000
vn 0.000000 0.000000 -1.000000
vn 0.000000 0.000000 -1.000000
vn 0.000000 0.000000 -1.000000
vn 0.000000 0.000000 -1.000000
vn 0.000000 0.000000 -1.000000
vn 0.000000 0.000000 1.000000
vn 0.000000 0.000000 1.000000
vn 0.000000 0.000000 1.000000
vn 0.000000 0.000000 1.000000
vn 0.000000 1.000000 0.000000
vn 0.000000 1.000000 0.000000
vn 0.000000 1.000000 0.000000
vn 0.000000 1.000000 0.000000
vn 0.000000 -1.000000 0.000000
vn 0.000000 -1.000000 0.000000
vn 0.000000 -1.000000 0.000000
vn 0.000000 -1.000000 0.000000
vn 0.000000 1.000000 0.000000
vn 0.000000 1.000000 0.000000
vn 0.000000 1.000000 0.000000
vn 0.000000 1.000000 0.000000
vn 0.000000 -1.000000 0.000000
vn 0.000000 -1.000000 0.000000
vn 0.000000 -1.000000 0.000000
vn 0.000000 -1.000000 0.000000
vn 0.000000 -1.000000 0.000000
vn 0.000000 -1.000000 0.000000
vn 0.000000 -1.000000 0.000000
vn 0.000000 -1.000000 0.000000
s 1
g Libreria:polySurface13polySurface11grouppolySurface15polySurface17
f 223/343/400 224/344/401 189/348/402
f 189/348/402 224/344/401 188/347/403
s 2
f 192/389/404 195/390/405 190/392/406
f 190/392/406 195/390/405 214/391/407
s 3
f 193/350/408 192/346/409 191/351/410
f 191/351/410 192/346/409 190/349/411
s 4
f 194/371/412 196/372/413 191/351/414
f 191/351/414 196/372/413 193/350/415
s 5
f 225/373/416 197/374/417 224/388/418
f 224/388/418 197/374/417 188/387/419
s 6
f 199/356/420 198/357/421 189/345/422
f 189/345/422 198/357/421 223/342/423
s off
f 223/364/424 198/365/425 226/366/426
s 7
f 202/358/427 216/359/428 203/361/429
f 203/361/429 216/359/428 215/360/430
s 8
f 204/362/431 205/363/432 207/369/433
f 207/369/433 205/363/432 206/368/434
s 9
f 214/391/435 195/390/436 213/394/437
f 213/394/437 195/390/436 212/393/438
s 10
f 219/395/439 220/396/440 199/398/441
f 199/398/441 220/396/440 198/397/442
s 11
f 209/375/443 208/376/444 211/378/445
f 211/378/445 208/376/444 210/377/446
s 12
f 196/353/447 194/352/448 204/362/449
f 204/362/449 194/352/448 205/363/450
s 13
f 202/367/451 203/370/452 206/385/453
f 206/385/453 203/370/452 207/386/454
s 14
f 201/379/455 200/380/456 209/375/457
f 209/375/457 200/380/456 208/376/458
s 15
f 197/355/459 225/354/460 210/377/461
f 210/377/461 225/354/460 211/378/462
s 16
f 218/381/463 217/382/464 222/384/465
f 222/384/465 217/382/464 221/383/466
g default
v -1.306960 1.364175 0.797933
v 1.182422 1.364175 0.797933
v -1.306960 1.830997 0.797933
v 1.182422 1.830997 0.797933
v -1.306960 1.830997 0.379768
v 1.182422 1.830997 0.379768
v -1.306960 1.364175 0.379768
v 1.182422 1.364175 0.379768
v 1.051402 1.364175 0.797933
v 1.051402 1.830997 0.797933
v 0.920381 1.364175 0.797933
v 0.920381 1.830997 0.797933
v 0.789362 1.364175 0.797933
v 0.789362 1.830997 0.797933
v 0.658342 1.364175 0.797933
v 0.658342 1.830997 0.797933
v 0.527322 1.364175 0.797933
v 0.527322 1.830997 0.797933
v 0.396301 1.364175 0.797933
v 0.396301 1.830997 0.797933
v 0.265281 1.364175 0.797933
v 0.265281 1.830997 0.797933
v 0.134261 1.364175 0.797933
v 0.134261 1.830997 0.797933
v 0.003241 1.364175 0.797933
v 0.003241 1.830997 0.797933
v -0.127780 1.364175 0.797933
v -0.127780 1.830997 0.797933
v -0.258799 1.364175 0.797933
v -0.258799 1.830997 0.797933
v -0.389819 1.364175 0.797933
v -0.389819 1.830997 0.797933
v -0.520839 1.364175 0.797933
v -0.520839 1.830997 0.797933
v -0.651860 1.364175 0.797933
v -0.651860 1.830997 0.797933
v -0.782880 1.364175 0.797933
v -0.782880 1.830997 0.797933
v -0.913900 1.364175 0.797933
v -0.913900 1.830997 0.797933
v -1.044920 1.364175 0.797933
v -1.044920 1.830997 0.797933
v -1.175940 1.364175 0.797933
v -1.175940 1.830997 0.797933
vt 0.891222 0.040419
vt 0.883530 0.040419
vt 0.883530 0.013012
vt 0.891222 0.013012
vt 0.732933 0.040419
vt 0.708383 0.040419
vt 0.708383 0.013012
vt 0.732934 0.013012
vt 0.915772 0.040419
vt 0.915772 0.013012
vt 0.740626 0.040419
vt 0.740626 0.013012
vt 0.780628 0.040419
vt 0.772936 0.040419
vt 0.772936 0.013012
vt 0.780628 0.013012
vt 0.810377 0.040419
vt 0.802685 0.040419
vt 0.802685 0.013012
vt 0.810377 0.013012
vt 0.849830 0.040419
vt 0.842138 0.040419
vt 0.842138 0.013012
vt 0.849830 0.013012
vt 0.780628 0.040419
vt 0.772936 0.040419
vt 0.772936 0.013012
vt 0.780628 0.013012
vt 0.810377 0.040419
vt 0.802685 0.040419
vt 0.802685 0.013012
vt 0.810377 0.013012
vt 0.780628 0.040419
vt 0.772936 0.040419
vt 0.772936 0.013012
vt 0.780628 0.013012
vt 0.849830 0.040419
vt 0.842138 0.040419
vt 0.842138 0.013012
vt 0.849830 0.013012
vt 0.780628 0.040419
vt 0.772936 0.040419
vt 0.772936 0.013012
vt 0.780628 0.013012
vt 0.810377 0.040419
vt 0.802685 0.040419
vt 0.802685 0.013012
vt 0.810377 0.013012
vt 0.810377 0.040419
vt 0.802685 0.040419
vt 0.802685 0.013012
vt 0.810377 0.013012
vt 0.780628 0.040419
vt 0.772936 0.040419
vt 0.772936 0.013012
vt 0.780628 0.013012
vt 0.780628 0.040419
vt 0.772936 0.040419
vt 0.772936 0.013012
vt 0.780628 0.013012
vt 0.849830 0.040419
vt 0.842138 0.040419
vt 0.842138 0.013012
vt 0.849830 0.013012
vt 0.849830 0.040419
vt 0.842138 0.040419
vt 0.842138 0.013012
vt 0.849830 0.013012
vt 0.810377 0.040419
vt 0.802685 0.040419
vt 0.802685 0.013012
vt 0.810377 0.013012
vt 0.849830 0.040419
vt 0.842138 0.040419
vt 0.842138 0.013012
vt 0.849830 0.013012
vt 0.810377 0.040419
vt 0.802685 0.040419
vt 0.802685 0.013012
vt 0.810377 0.013012
vn 0.000000 0.000000 1.000000
vn 0.000000 0.000000 1.000000
vn 0.000000 0.000000 1.000000
vn 0.000000 0.000000 1.000000
vn 1.000000 0.000000 0.000000
vn 1.000000 0.000000 0.000000
vn 1.000000 0.000000 0.000000
vn 1.000000 0.000000 0.000000
vn -1.000000 0.000000 0.000000
vn -1.000000 0.000000 0.000000
vn -1.000000 0.000000 0.000000
vn -1.000000 0.000000 0.000000
vn -0.000002 0.000000 1.000000
vn 0.000000 0.000000 1.000000
vn -0.000002 0.000000 1.000000
vn 0.000000 0.000000 1.000000
vn -0.000002 0.000000 1.000000
vn -0.000002 0.000000 1.000000
vn -0.000002 0.000000 1.000000
vn -0.000002 0.000000 1.000000
vn 0.000000 0.000000 1.000000
vn -0.000002 0.000000 1.000000
vn 0.000000 0.000000 1.000000
vn -0.000002 0.000000 1.000000
vn 0.000000 0.000000 1.000000
vn 0.000000 0.000000 1.000000
vn 0.000000 0.000000 1.000000
vn 0.000000 0.000000 1.000000
vn 0.000000 0.000000 1.000000
vn 0.000000 0.000000 1.000000
vn 0.000000 0.000000 1.000000
vn 0.000000 0.000000 1.000000
vn 0.000000 0.000000 1.000000
vn 0.000000 0.000000 1.000000
vn 0.000000 0.000000 1.000000
vn 0.000000 0.000000 1.000000
vn 0.000000 0.000000 1.000000
vn 0.000000 0.000000 1.000000
vn 0.000000 0.000000 1.000000
vn 0.000000 0.000000 1.000000
vn 0.000000 0.000000 1.000000
vn 0.000000 0.000000 1.000000
vn 0.000000 0.000000 1.000000
vn 0.000000 0.000000 1.000000
vn 0.000000 0.000000 1.000000
vn 0.000000 0.000000 1.000000
vn 0.000000 0.000000 1.000000
vn 0.000000 0.000000 1.000000
vn 0.000000 0.000000 1.000000
vn 0.000000 0.000000 1.000000
vn 0.000000 0.000000 1.000000
vn 0.000000 0.000000 1.000000
vn 0.000000 0.000000 1.000000
vn 0.000000 0.000000 1.000000
vn 0.000000 0.000000 1.000000
vn 0.000000 0.000000 1.000000
vn 0.000000 0.000000 1.000000
vn 0.000000 0.000000 1.000000
vn 0.000000 0.000000 1.000000
vn 0.000000 0.000000 1.000000
vn 0.000000 0.000000 1.000000
vn 0.000000 0.000000 1.000000
vn 0.000000 0.000000 1.000000
vn 0.000000 0.000000 1.000000
vn 0.000000 0.000000 1.000000
vn 0.000000 0.000000 1.000000
vn 0.000000 0.000000 1.000000
vn 0.000000 0.000000 1.000000
vn 0.000002 0.000000 1.000000
vn 0.000000 0.000000 1.000000
vn 0.000002 0.000000 1.000000
vn 0.000000 0.000000 1.000000
vn 0.000002 0.000000 1.000000
vn 0.000002 0.000000 1.000000
vn 0.000002 0.000000 1.000000
vn 0.000002 0.000000 1.000000
vn 0.000000 0.000000 1.000000
vn 0.000002 0.000000 1.000000
vn 0.000000 0.000000 1.000000
vn 0.000002 0.000000 1.000000
vn 0.000000 0.000000 1.000000
vn 0.000000 0.000000 1.000000
vn 0.000000 0.000000 1.000000
vn 0.000000 0.000000 1.000000
s 1
g Libreria:polySurface14polySurface13polySurface11group
f 227/399/467 269/400/468 229/402/469
f 229/402/469 269/400/468 270/401/470
s 2
f 228/403/471 234/404/472 230/406/473
f 230/406/473 234/404/472 232/405/474
s 3
f 233/407/475 227/399/476 231/408/477
f 231/408/477 227/399/476 229/402/478
s 4
f 235/409/479 228/403/480 236/410/481
f 236/410/481 228/403/480 230/406/482
s 5
f 237/411/483 235/412/484 238/414/485
f 238/414/485 235/412/484 236/413/486
s 6
f 239/415/487 237/416/488 240/418/489
f 240/418/489 237/416/488 238/417/490
s 7
f 241/419/491 239/420/492 242/422/493
f 242/422/493 239/420/492 240/421/494
s 8
f 243/423/495 241/424/496 244/426/497
f 244/426/497 241/424/496 242/425/498
s 9
f 245/427/499 243/428/500 246/430/501
f 246/430/501 243/428/500 244/429/502
s 10
f 247/431/503 245/432/504 248/434/505
f 248/434/505 245/432/504 246/433/506
s 11
f 249/435/507 247/436/508 250/438/509
f 250/438/509 247/436/508 248/437/510
s 12
f 251/439/511 249/440/512 252/442/513
f 252/442/513 249/440/512 250/441/514
s 13
f 253/443/515 251/444/516 254/446/517
f 254/446/517 251/444/516 252/445/518
s 14
f 255/447/519 253/448/520 256/450/521
f 256/450/521 253/448/520 254/449/522
s 15
f 257/451/523 255/452/524 258/454/525
f 258/454/525 255/452/524 256/453/526
s 16
f 259/455/527 257/456/528 260/458/529
f 260/458/529 257/456/528 258/457/530
s 17
f 261/459/531 259/460/532 262/462/533
f 262/462/533 259/460/532 260/461/534
s 18
f 263/463/535 261/464/536 264/466/537
f 264/466/537 261/464/536 262/465/538
s 19
f 265/467/539 263/468/540 266/470/541
f 266/470/541 263/468/540 264/469/542
s 20
f 267/471/543 265/472/544 268/474/545
f 268/474/545 265/472/544 266/473/546
s 21
f 269/475/547 267/476/548 270/478/549
f 270/478/549 267/476/548 268/477/550
g default
v -1.561241 1.831482 0.985582
v -1.395016 1.831482 0.985582
v -1.561241 1.981141 0.985582
v -1.395016 1.981141 0.985582
v -1.561241 1.981141 0.033585
v -1.395016 1.981141 0.033584
v -1.561241 1.831482 0.033585
v -1.395016 1.831482 0.033584
vt 0.375000 0.000000
vt 0.625000 0.000000
vt 0.625000 0.250000
vt 0.375000 0.250000
vt 0.625000 0.500000
vt 0.375000 0.500000
vt 0.625000 0.750000
vt 0.375000 0.750000
vt 0.625000 1.000000
vt 0.375000 1.000000
vt 0.875000 0.000000
vt 0.875000 0.250000
vt 0.125000 0.000000
vt 0.125000 0.250000
vn 0.000004 0.000000 1.000000
vn 0.000004 0.000000 1.000000
vn 0.000004 0.000000 1.000000
vn 0.000004 0.000000 1.000000
vn 0.000001 1.000000 0.000000
vn 0.000001 1.000000 0.000000
vn 0.000001 1.000000 0.000000
vn 0.000001 1.000000 0.000000
vn -0.000004 0.000000 -1.000000
vn -0.000004 0.000000 -1.000000
vn -0.000004 0.000000 -1.000000
vn -0.000004 0.000000 -1.000000
vn 0.000000 -1.000000 0.000000
vn 0.000000 -1.000000 0.000000
vn 0.000000 -1.000000 0.000000
vn 0.000000 -1.000000 0.000000
vn 1.000000 0.000000 0.000000
vn 1.000000 0.000000 0.000000
vn 1.000000 0.000000 0.000000
vn 1.000000 0.000000 0.000000
vn -1.000000 0.000000 0.000000
vn -1.000000 0.000000 0.000000
vn -1.000000 0.000000 0.000000
vn -1.000000 0.000000 0.000000
s 1
g Libreria:pCube1
f 271/479/551 272/480/552 273/482/553
f 273/482/553 272/480/552 274/481/554
s 2
f 273/482/555 274/481/556 275/484/557
f 275/484/557 274/481/556 276/483/558
s 3
f 275/484/559 276/483/560 277/486/561
f 277/486/561 276/483/560 278/485/562
s 4
f 277/486/563 278/485/564 271/488/565
f 271/488/565 278/485/564 272/487/566
s 5
f 272/480/567 278/489/568 274/481/569
f 274/481/569 278/489/568 276/490/570
s 6
f 277/491/571 271/479/572 275/492/573
f 275/492/573 271/479/572 273/482/574
g default
v 1.272265 0.513934 0.985582
v 1.438490 0.513934 0.985582
v 1.272265 1.835373 0.985582
v 1.438490 1.835372 0.985582
v 1.272265 1.835373 0.033585
v 1.438490 1.835372 0.033584
v 1.272265 0.513934 0.033585
v 1.438490 0.513934 0.033584
vt -0.000000 -0.000000
vt -0.000000 -0.000000
vt 0.625000 0.250000
vt 0.375000 0.250000
vt 0.625000 0.500000
vt 0.375000 0.500000
vt -0.000000 0.957093
vt -0.000000 0.957093
vt 0.999999 0.957093
vt 1.000000 0.957093
vt 1.000000 -0.000000
vt 0.999999 -0.000000
vt 0.944601 -0.000000
vt 1.000000 -0.000000
vt 1.000000 -0.000000
vt 0.944601 -0.000000
vt 0.944601 0.957093
vt 1.000000 0.957093
vt 1.000000 1.000000
vt 0.944601 0.999999
vt 1.000000 -0.000000
vt 0.944601 -0.000000
vn 0.000000 0.000000 1.000000
vn 0.000000 0.000000 1.000000
vn 0.000000 0.000000 1.000000
vn 0.000000 0.000000 1.000000
vn 0.000006 1.000000 0.000000
vn 0.000006 1.000000 0.000000
vn 0.000006 1.000000 0.000000
vn 0.000006 1.000000 0.000000
vn -0.000004 0.000000 -1.000000
vn -0.000004 0.000000 -1.000000
vn -0.000004 0.000000 -1.000000
vn -0.000004 0.000000 -1.000000
vn 0.000000 -1.000000 0.000000
vn 0.000000 -1.000000 0.000000
vn 0.000000 -1.000000 0.000000
vn 0.000000 -1.000000 0.000000
vn 1.000000 0.000000 0.000000
vn 1.000000 0.000000 0.000000
vn 1.000000 0.000000 0.000000
vn 1.000000 0.000000 0.000000
vn -1.000000 0.000000 0.000000
vn -1.000000 0.000000 0.000000
vn -1.000000 0.000000 0.000000
vn -1.000000 0.000000 0.000000
s 1
g Libreria:pasted__pasted__pCube1pasted__group3group4
f 279/505/575 280/506/576 281/508/577
f 281/508/577 280/506/576 282/507/578
s 2
f 281/496/579 282/495/580 283/498/581
f 283/498/581 282/495/580 284/497/582
s 3
f 283/509/583 284/510/584 285/514/585
f 285/514/585 284/510/584 286/513/586
s 4
f 285/512/587 286/511/588 279/505/589
f 279/505/589 286/511/588 280/506/590
s 5
f 280/494/591 286/503/592 282/499/593
f 282/499/593 286/503/592 284/502/594
s 6
f 285/504/595 279/493/596 283/501/597
f 283/501/597 279/493/596 281/500/598
