# This file uses centimeters as units for non-parametric coordinates.

mtllib Libreria.mtl
g default
v -1.561241 0.419130 0.985582
v -1.395016 0.419130 0.985582
v -1.561241 0.568789 0.985582
v -1.395016 0.568789 0.985582
v -1.561241 0.568789 0.033585
v -1.395016 0.568789 0.033584
v -1.561241 0.419130 0.033585
v -1.395016 0.419130 0.033584
vt 0.375000 0.000000
vt 0.625000 0.000000
vt 0.375000 0.250000
vt 0.625000 0.250000
vt 0.375000 0.500000
vt 0.625000 0.500000
vt 0.375000 0.750000
vt 0.625000 0.750000
vt 0.375000 1.000000
vt 0.625000 1.000000
vt 0.875000 0.000000
vt 0.875000 0.250000
vt 0.125000 0.000000
vt 0.125000 0.250000
vn 0.000004 0.000000 1.000000
vn 0.000004 0.000000 1.000000
vn 0.000004 0.000000 1.000000
vn 0.000004 0.000000 1.000000
vn 0.000001 1.000000 0.000000
vn 0.000001 1.000000 0.000000
vn 0.000001 1.000000 0.000000
vn 0.000001 1.000000 0.000000
vn -0.000004 0.000000 -1.000000
vn -0.000004 0.000000 -1.000000
vn -0.000004 0.000000 -1.000000
vn -0.000004 0.000000 -1.000000
vn 0.000000 -1.000000 0.000000
vn 0.000000 -1.000000 0.000000
vn 0.000000 -1.000000 0.000000
vn 0.000000 -1.000000 0.000000
vn 1.000000 0.000000 0.000000
vn 1.000000 0.000000 0.000000
vn 1.000000 0.000000 0.000000
vn 1.000000 0.000000 0.000000
vn -1.000000 0.000000 0.000000
vn -1.000000 0.000000 0.000000
vn -1.000000 0.000000 0.000000
vn -1.000000 0.000000 0.000000
s off
g pCube1
usemtl lambert16SG
f 1/1/1 2/2/2 4/4/3 3/3/4
f 3/3/5 4/4/6 6/6/7 5/5/8
f 5/5/9 6/6/10 8/8/11 7/7/12
f 7/7/13 8/8/14 2/10/15 1/9/16
f 2/2/17 8/11/18 6/12/19 4/4/20
f 7/13/21 1/1/22 3/3/23 5/14/24
g default
v -1.306960 -0.048177 0.797933
v 1.182422 -0.048177 0.797933
v -1.306960 0.418645 0.797933
v 1.182422 0.418645 0.797933
v -1.306960 0.418645 0.379768
v 1.182422 0.418645 0.379768
v -1.306960 -0.048177 0.379768
v 1.182422 -0.048177 0.379768
v 1.051402 -0.048177 0.797933
v 1.051402 0.418645 0.797933
v 0.920381 -0.048177 0.797933
v 0.920381 0.418645 0.797933
v 0.789362 -0.048177 0.797933
v 0.789362 0.418645 0.797933
v 0.658342 -0.048177 0.797933
v 0.658342 0.418645 0.797933
v 0.527322 -0.048177 0.797933
v 0.527322 0.418645 0.797933
v 0.396301 -0.048177 0.797933
v 0.396301 0.418645 0.797933
v 0.265281 -0.048177 0.797933
v 0.265281 0.418645 0.797933
v 0.134261 -0.048177 0.797933
v 0.134261 0.418645 0.797933
v 0.003241 -0.048177 0.797933
v 0.003241 0.418645 0.797933
v -0.127780 -0.048177 0.797933
v -0.127780 0.418645 0.797933
v -0.258799 -0.048177 0.797933
v -0.258799 0.418645 0.797933
v -0.389819 -0.048177 0.797933
v -0.389819 0.418645 0.797933
v -0.520839 -0.048177 0.797933
v -0.520839 0.418645 0.797933
v -0.651860 -0.048177 0.797933
v -0.651860 0.418645 0.797933
v -0.782880 -0.048177 0.797933
v -0.782880 0.418645 0.797933
v -0.913900 -0.048177 0.797933
v -0.913900 0.418645 0.797933
v -1.044920 -0.048177 0.797933
v -1.044920 0.418645 0.797933
v -1.175940 -0.048177 0.797933
v -1.175940 0.418645 0.797933
vt 0.891222 0.040419
vt 0.883530 0.040419
vt 0.883530 0.013012
vt 0.891222 0.013012
vt 0.732933 0.040419
vt 0.708383 0.040419
vt 0.708383 0.013012
vt 0.732934 0.013012
vt 0.915772 0.040419
vt 0.915772 0.013012
vt 0.740626 0.040419
vt 0.740626 0.013012
vt 0.780628 0.040419
vt 0.772936 0.040419
vt 0.772936 0.013012
vt 0.780628 0.013012
vt 0.810377 0.040419
vt 0.802685 0.040419
vt 0.802685 0.013012
vt 0.810377 0.013012
vt 0.849830 0.040419
vt 0.842138 0.040419
vt 0.842138 0.013012
vt 0.849830 0.013012
vt 0.780628 0.040419
vt 0.772936 0.040419
vt 0.772936 0.013012
vt 0.780628 0.013012
vt 0.810377 0.040419
vt 0.802685 0.040419
vt 0.802685 0.013012
vt 0.810377 0.013012
vt 0.780628 0.040419
vt 0.772936 0.040419
vt 0.772936 0.013012
vt 0.780628 0.013012
vt 0.849830 0.040419
vt 0.842138 0.040419
vt 0.842138 0.013012
vt 0.849830 0.013012
vt 0.780628 0.040419
vt 0.772936 0.040419
vt 0.772936 0.013012
vt 0.780628 0.013012
vt 0.810377 0.040419
vt 0.802685 0.040419
vt 0.802685 0.013012
vt 0.810377 0.013012
vt 0.810377 0.040419
vt 0.802685 0.040419
vt 0.802685 0.013012
vt 0.810377 0.013012
vt 0.780628 0.040419
vt 0.772936 0.040419
vt 0.772936 0.013012
vt 0.780628 0.013012
vt 0.780628 0.040419
vt 0.772936 0.040419
vt 0.772936 0.013012
vt 0.780628 0.013012
vt 0.849830 0.040419
vt 0.842138 0.040419
vt 0.842138 0.013012
vt 0.849830 0.013012
vt 0.849830 0.040419
vt 0.842138 0.040419
vt 0.842138 0.013012
vt 0.849830 0.013012
vt 0.810377 0.040419
vt 0.802685 0.040419
vt 0.802685 0.013012
vt 0.810377 0.013012
vt 0.849830 0.040419
vt 0.842138 0.040419
vt 0.842138 0.013012
vt 0.849830 0.013012
vt 0.810377 0.040419
vt 0.802685 0.040419
vt 0.802685 0.013012
vt 0.810377 0.013012
vn 0.000000 0.000000 1.000000
vn 0.000000 0.000000 1.000000
vn 0.000000 0.000000 1.000000
vn 0.000000 0.000000 1.000000
vn 1.000000 0.000000 0.000000
vn 1.000000 0.000000 0.000000
vn 1.000000 0.000000 0.000000
vn 1.000000 0.000000 0.000000
vn -1.000000 0.000000 0.000000
vn -1.000000 0.000000 0.000000
vn -1.000000 0.000000 0.000000
vn -1.000000 0.000000 0.000000
vn -0.000002 0.000000 1.000000
vn 0.000000 0.000000 1.000000
vn 0.000000 0.000000 1.000000
vn -0.000002 0.000000 1.000000
vn -0.000002 0.000000 1.000000
vn -0.000002 0.000000 1.000000
vn -0.000002 0.000000 1.000000
vn -0.000002 0.000000 1.000000
vn 0.000000 0.000000 1.000000
vn -0.000002 0.000000 1.000000
vn -0.000002 0.000000 1.000000
vn 0.000000 0.000000 1.000000
vn 0.000000 0.000000 1.000000
vn 0.000000 0.000000 1.000000
vn 0.000000 0.000000 1.000000
vn 0.000000 0.000000 1.000000
vn 0.000000 0.000000 1.000000
vn 0.000000 0.000000 1.000000
vn 0.000000 0.000000 1.000000
vn 0.000000 0.000000 1.000000
vn 0.000000 0.000000 1.000000
vn 0.000000 0.000000 1.000000
vn 0.000000 0.000000 1.000000
vn 0.000000 0.000000 1.000000
vn 0.000000 0.000000 1.000000
vn 0.000000 0.000000 1.000000
vn 0.000000 0.000000 1.000000
vn 0.000000 0.000000 1.000000
vn 0.000000 0.000000 1.000000
vn 0.000000 0.000000 1.000000
vn 0.000000 0.000000 1.000000
vn 0.000000 0.000000 1.000000
vn 0.000000 0.000000 1.000000
vn 0.000000 0.000000 1.000000
vn 0.000000 0.000000 1.000000
vn 0.000000 0.000000 1.000000
vn 0.000000 0.000000 1.000000
vn 0.000000 0.000000 1.000000
vn 0.000000 0.000000 1.000000
vn 0.000000 0.000000 1.000000
vn 0.000000 0.000000 1.000000
vn 0.000000 0.000000 1.000000
vn 0.000000 0.000000 1.000000
vn 0.000000 0.000000 1.000000
vn 0.000000 0.000000 1.000000
vn 0.000000 0.000000 1.000000
vn 0.000000 0.000000 1.000000
vn 0.000000 0.000000 1.000000
vn 0.000000 0.000000 1.000000
vn 0.000000 0.000000 1.000000
vn 0.000000 0.000000 1.000000
vn 0.000000 0.000000 1.000000
vn 0.000000 0.000000 1.000000
vn 0.000000 0.000000 1.000000
vn 0.000000 0.000000 1.000000
vn 0.000000 0.000000 1.000000
vn 0.000002 0.000000 1.000000
vn 0.000000 0.000000 1.000000
vn 0.000000 0.000000 1.000000
vn 0.000002 0.000000 1.000000
vn 0.000002 0.000000 1.000000
vn 0.000002 0.000000 1.000000
vn 0.000002 0.000000 1.000000
vn 0.000002 0.000000 1.000000
vn 0.000000 0.000000 1.000000
vn 0.000002 0.000000 1.000000
vn 0.000002 0.000000 1.000000
vn 0.000000 0.000000 1.000000
vn 0.000000 0.000000 1.000000
vn 0.000000 0.000000 1.000000
vn 0.000000 0.000000 1.000000
vn 0.000000 0.000000 1.000000
s off
g polySurface14 polySurface13 polySurface11 group
usemtl lambert18SG
f 9/15/25 51/16/26 52/17/27 11/18/28
usemtl lambert9SG
f 10/19/29 16/20/30 14/21/31 12/22/32
usemtl lambert18SG
f 15/23/33 9/15/34 11/18/35 13/24/36
usemtl lambert17SG
f 17/25/37 10/19/38 12/22/39 18/26/40
usemtl lambert19SG
f 19/27/41 17/28/42 18/29/43 20/30/44
usemtl lambert20SG
f 21/31/45 19/32/46 20/33/47 22/34/48
usemtl lambert21SG
f 23/35/49 21/36/50 22/37/51 24/38/52
usemtl lambert19SG
f 25/39/53 23/40/54 24/41/55 26/42/56
usemtl lambert20SG
f 27/43/57 25/44/58 26/45/59 28/46/60
usemtl lambert19SG
f 29/47/61 27/48/62 28/49/63 30/50/64
usemtl lambert21SG
f 31/51/65 29/52/66 30/53/67 32/54/68
usemtl lambert19SG
f 33/55/69 31/56/70 32/57/71 34/58/72
usemtl lambert20SG
f 35/59/73 33/60/74 34/61/75 36/62/76
f 37/63/77 35/64/78 36/65/79 38/66/80
usemtl lambert19SG
f 39/67/81 37/68/82 38/69/83 40/70/84
f 41/71/85 39/72/86 40/73/87 42/74/88
usemtl lambert21SG
f 43/75/89 41/76/90 42/77/91 44/78/92
f 45/79/93 43/80/94 44/81/95 46/82/96
usemtl lambert20SG
f 47/83/97 45/84/98 46/85/99 48/86/100
usemtl lambert21SG
f 49/87/101 47/88/102 48/89/103 50/90/104
usemtl lambert20SG
f 51/91/105 49/92/106 50/93/107 52/94/108
g default
v -1.306960 -0.587182 0.797933
v 1.182422 -0.587182 0.797933
v -1.306960 -0.126399 0.797933
v 1.182422 -0.126399 0.797933
v -1.306960 -0.126399 0.165950
v 1.182422 -0.126399 0.165950
v -1.306960 -0.587182 0.165950
v 1.182422 -0.587182 0.165950
v 0.956115 -0.587182 0.797933
v 0.956115 -0.126399 0.797933
v 0.729807 -0.587182 0.797933
v 0.729807 -0.126399 0.797933
v 0.503499 -0.587182 0.797933
v 0.503499 -0.126399 0.797933
v 0.277191 -0.587182 0.797933
v 0.277191 -0.126399 0.797933
v 0.050884 -0.587182 0.797933
v 0.050884 -0.126399 0.797933
v -0.175422 -0.587182 0.797933
v -0.175422 -0.126399 0.797933
v -0.401730 -0.587182 0.797933
v -0.401730 -0.126399 0.797933
v -0.628038 -0.587182 0.797933
v -0.628038 -0.126399 0.797933
v -0.854346 -0.587182 0.797933
v -0.854346 -0.126399 0.797933
v -1.080652 -0.587182 0.797933
v -1.080652 -0.126399 0.797933
vt 0.598129 0.029200
vt 0.588590 0.029200
vt 0.588590 0.009777
vt 0.598129 0.009777
vt 0.486062 0.029200
vt 0.459422 0.029200
vt 0.459422 0.009777
vt 0.486062 0.009777
vt 0.624769 0.029200
vt 0.624769 0.009777
vt 0.495602 0.029200
vt 0.495602 0.009777
vt 0.523925 0.029200
vt 0.514386 0.029200
vt 0.514386 0.009777
vt 0.523925 0.009777
vt 0.558095 0.029200
vt 0.548556 0.029200
vt 0.548556 0.009777
vt 0.558095 0.009777
vt 0.523925 0.029200
vt 0.514386 0.029200
vt 0.514386 0.009777
vt 0.523925 0.009777
vt 0.558095 0.029200
vt 0.548556 0.029200
vt 0.548556 0.009777
vt 0.558095 0.009777
vt 0.558095 0.029200
vt 0.548556 0.029200
vt 0.548556 0.009777
vt 0.558095 0.009777
vt 0.523925 0.029200
vt 0.514386 0.029200
vt 0.514386 0.009777
vt 0.523925 0.009777
vt 0.523925 0.029200
vt 0.514386 0.029200
vt 0.514386 0.009777
vt 0.523925 0.009777
vt 0.558095 0.029200
vt 0.548556 0.029200
vt 0.548556 0.009777
vt 0.558095 0.009777
vt 0.523925 0.029200
vt 0.514386 0.029200
vt 0.514386 0.009777
vt 0.523925 0.009777
vn 0.000000 0.000000 1.000000
vn 0.000000 0.000000 1.000000
vn 0.000000 0.000000 1.000000
vn 0.000000 0.000000 1.000000
vn 1.000000 0.000000 0.000000
vn 1.000000 0.000000 0.000000
vn 1.000000 0.000000 0.000000
vn 1.000000 0.000000 0.000000
vn -1.000000 0.000000 0.000000
vn -1.000000 0.000000 0.000000
vn -1.000000 0.000000 0.000000
vn -1.000000 0.000000 0.000000
vn 0.000000 0.000000 1.000000
vn 0.000000 0.000000 1.000000
vn 0.000000 0.000000 1.000000
vn 0.000000 0.000000 1.000000
vn 0.000000 0.000000 1.000000
vn 0.000000 0.000000 1.000000
vn 0.000000 0.000000 1.000000
vn 0.000000 0.000000 1.000000
vn 0.000000 0.000000 1.000000
vn 0.000000 0.000000 1.000000
vn 0.000000 0.000000 1.000000
vn 0.000000 0.000000 1.000000
vn 0.000000 0.000000 1.000000
vn 0.000000 0.000000 1.000000
vn 0.000000 0.000000 1.000000
vn 0.000000 0.000000 1.000000
vn 0.000000 0.000000 1.000000
vn 0.000000 0.000000 1.000000
vn 0.000000 0.000000 1.000000
vn 0.000000 0.000000 1.000000
vn 0.000000 0.000000 1.000000
vn 0.000000 0.000000 1.000000
vn 0.000000 0.000000 1.000000
vn 0.000000 0.000000 1.000000
vn 0.000000 0.000000 1.000000
vn 0.000000 0.000000 1.000000
vn 0.000000 0.000000 1.000000
vn 0.000000 0.000000 1.000000
vn 0.000000 0.000000 1.000000
vn 0.000000 0.000000 1.000000
vn 0.000000 0.000000 1.000000
vn 0.000000 0.000000 1.000000
vn 0.000000 0.000000 1.000000
vn 0.000000 0.000000 1.000000
vn 0.000000 0.000000 1.000000
vn 0.000000 0.000000 1.000000
vn 0.000000 0.000000 1.000000
vn 0.000000 0.000000 1.000000
vn 0.000000 0.000000 1.000000
vn 0.000000 0.000000 1.000000
s off
g polySurface13 polySurface11 group polySurface16 polySurface15
usemtl lambert19SG
f 53/95/109 79/96/110 80/97/111 55/98/112
usemtl lambert12SG
f 54/99/113 60/100/114 58/101/115 56/102/116
usemtl lambert19SG
f 59/103/117 53/95/118 55/98/119 57/104/120
usemtl lambert21SG
f 61/105/121 54/99/122 56/102/123 62/106/124
usemtl lambert17SG
f 63/107/125 61/108/126 62/109/127 64/110/128
usemtl lambert18SG
f 65/111/129 63/112/130 64/113/131 66/114/132
usemtl lambert17SG
f 67/115/133 65/116/134 66/117/135 68/118/136
usemtl lambert18SG
f 69/119/137 67/120/138 68/121/139 70/122/140
f 71/123/141 69/124/142 70/125/143 72/126/144
usemtl lambert17SG
f 73/127/145 71/128/146 72/129/147 74/130/148
f 75/131/149 73/132/150 74/133/151 76/134/152
usemtl lambert18SG
f 77/135/153 75/136/154 76/137/155 78/138/156
usemtl lambert17SG
f 79/139/157 77/140/158 78/141/159 80/142/160
g default
v 1.275833 0.482261 0.881941
v 1.275833 0.482259 0.131941
v 1.275833 -0.734015 0.131941
v 1.275833 -0.734013 0.881941
v -1.396607 -0.734015 0.131941
v -1.396607 -0.734013 0.881941
v 1.275833 -0.587176 0.881941
v -1.396607 -0.587178 0.131941
v -1.396607 -0.587176 0.881941
v 1.275833 0.418645 0.881941
v -1.396607 0.418645 0.131941
v 1.275833 0.418645 0.131941
v 1.275833 -0.048177 0.881941
v -1.396607 -0.048177 0.881941
v 1.275833 -0.120355 0.881941
v -1.396607 -0.120355 0.881941
v -1.396607 -0.587176 0.276061
v 1.275833 -0.587176 0.276061
v 1.275833 -0.120355 0.276061
v -1.396607 -0.120355 0.276061
v 1.275833 -0.048177 0.276061
v -1.396607 -0.048177 0.276061
v 1.275833 0.418645 0.276061
v -1.396607 0.418645 0.276061
v -1.396607 -0.082509 0.131941
v 1.275833 -0.082509 0.131941
v 1.275833 -0.587178 0.131941
v -1.396607 -0.044661 0.881941
v 1.275833 -0.044661 0.881941
v -1.396607 -0.123870 0.881941
v 1.275833 -0.123870 0.881941
v 1.275833 -0.086024 0.131941
v -1.396607 -0.086024 0.131941
v -1.396607 -0.123870 0.276061
v 1.275833 -0.123870 0.276061
v -1.396607 0.482259 0.131941
v -1.396607 0.482261 0.881941
v -1.396607 0.418645 0.881941
v -1.396607 0.418645 0.031941
vt 0.052368 0.633990
vt 0.052368 0.663592
vt 0.005025 0.663592
vt 0.005025 0.633990
vt 0.052368 0.589789
vt 0.052368 0.596963
vt 0.005025 0.596963
vt 0.005025 0.589789
vt 0.005025 0.615506
vt 0.005025 0.585904
vt 0.052368 0.585904
vt 0.052368 0.615506
vt 0.067711 0.597023
vt 0.052368 0.619205
vt 0.005025 0.619205
vt 0.005025 0.630292
vt 0.052368 0.630292
vt 0.052368 0.633990
vt 0.005025 0.633990
vt 0.005025 0.670935
vt 0.052368 0.670935
vt 0.052368 0.675608
vt 0.005025 0.675608
vt 0.065374 0.589677
vt 0.063038 0.597023
vt 0.052368 0.626086
vt 0.005025 0.626086
vt 0.052368 0.621388
vt 0.052368 0.625086
vt 0.005025 0.625086
vt 0.005025 0.621388
vt 0.005025 0.618324
vt 0.052368 0.618324
vt 0.052368 0.641132
vt 0.005025 0.641132
vt 0.052368 0.621620
vt 0.005025 0.646277
vt 0.005025 0.618324
vt 0.052368 0.618324
vt 0.052368 0.641132
vt 0.005025 0.641132
vt 0.052368 0.626922
vt 0.005025 0.626922
vt 0.005025 0.597320
vt 0.052368 0.597320
vt 0.005025 0.591786
vt 0.052368 0.591786
vt 0.052368 0.630510
vt 0.005025 0.630510
vt 0.005025 0.600907
vt 0.052368 0.600907
vt 0.005025 0.600690
vt 0.052368 0.600690
vt 0.005025 0.596484
vt 0.052368 0.596484
vt 0.052368 0.646277
vt 0.005025 0.621620
vn 0.000000 1.000000 -0.000002
vn 0.000000 1.000000 -0.000002
vn 0.000000 1.000000 -0.000002
vn 0.000000 1.000000 -0.000002
vn 0.000000 0.000000 -1.000000
vn 0.000000 0.000000 -1.000000
vn 0.000000 0.000000 -1.000000
vn 0.000000 0.000000 -1.000000
vn 0.000000 -1.000000 0.000002
vn 0.000000 -1.000000 0.000002
vn 0.000000 -1.000000 0.000002
vn 0.000000 -1.000000 0.000002
vn 0.000000 0.000000 1.000000
vn 0.000000 0.000000 1.000000
vn 0.000000 0.000000 1.000000
vn 0.000000 0.000000 1.000000
vn 0.000000 0.000000 1.000000
vn 0.000000 0.000000 1.000000
vn 0.000000 0.000000 1.000000
vn 0.000000 0.000000 1.000000
vn 0.000000 0.000000 -1.000000
vn 0.000000 0.000000 -1.000000
vn 0.000000 0.000000 -1.000000
vn 0.000000 0.000000 -1.000000
vn 1.000000 0.000000 0.000000
vn 1.000000 0.000000 0.000000
vn 1.000000 0.000000 0.000000
vn 0.000000 0.000000 1.000000
vn 0.000000 0.000000 1.000000
vn 0.000000 0.000000 1.000000
vn 0.000000 0.000000 1.000000
vn 0.000000 0.000000 1.000000
vn 0.000000 0.000000 1.000000
vn 0.000000 0.000000 1.000000
vn 0.000000 0.000000 1.000000
vn 0.000000 0.000000 -1.000000
vn 0.000000 0.000000 -1.000000
vn 0.000000 0.000000 -1.000000
vn 0.000000 0.000000 -1.000000
vn 0.000000 0.000000 -1.000000
vn 0.000000 0.000000 -1.000000
vn 0.000000 0.000000 -1.000000
vn 0.000000 0.000000 -1.000000
vn 0.000000 0.000000 1.000000
vn 0.000000 0.000000 1.000000
vn 0.000000 0.000000 1.000000
vn 0.000000 0.000000 1.000000
vn 0.000000 1.000000 0.000000
vn 0.000000 1.000000 0.000000
vn 0.000000 1.000000 0.000000
vn 0.000000 1.000000 0.000000
vn 0.000000 -1.000000 0.000000
vn 0.000000 -1.000000 0.000000
vn 0.000000 -1.000000 0.000000
vn 0.000000 -1.000000 0.000000
vn 0.000000 1.000000 0.000000
vn 0.000000 1.000000 0.000000
vn 0.000000 1.000000 0.000000
vn 0.000000 1.000000 0.000000
vn 0.000000 -1.000000 0.000000
vn 0.000000 -1.000000 0.000000
vn 0.000000 -1.000000 0.000000
vn 0.000000 -1.000000 0.000000
vn 0.000000 -1.000000 0.000000
vn 0.000000 -1.000000 0.000000
vn 0.000000 -1.000000 0.000000
vn 0.000000 -1.000000 0.000000
s off
g polySurface13 polySurface11 group polySurface15 polySurface17
usemtl lambert22SG
f 116/143/161 117/144/162 81/145/163 82/146/164
f 85/147/165 88/148/166 107/149/167 83/150/168
f 86/151/169 85/152/170 83/153/171 84/154/172
f 87/156/173 89/157/174 86/151/175 84/154/176
f 118/158/177 90/159/178 81/160/179 117/161/180
f 92/162/181 91/163/182 116/164/183 82/165/184
usemtl lambert3SG
f 116/155/185 91/167/186 119/166/187
usemtl lambert22SG
f 95/170/188 109/171/189 108/172/190 96/173/191
f 97/174/192 98/175/193 99/176/194 100/177/195
f 107/149/196 88/148/197 105/178/198 106/199/199
f 112/179/200 113/198/201 91/163/202 92/162/203
f 102/180/204 101/181/205 103/182/206 104/183/207
f 89/184/208 87/185/209 98/186/210 97/187/211
usemtl lambert3SG
f 95/170/212 96/173/213 100/188/214 99/189/215
usemtl lambert22SG
f 94/190/216 93/191/217 101/192/218 102/193/219
f 90/159/220 118/158/221 104/194/222 103/195/223
usemtl lambert15SG
f 111/168/224 110/169/225 114/196/226 115/197/227
g default
v 1.275719 0.419130 0.983232
v 1.440817 0.419130 0.983232
v 1.275719 0.568789 0.983232
v 1.440817 0.568789 0.983232
v 1.275719 0.568789 0.029232
v 1.440817 0.568789 0.029232
v 1.275719 0.419130 0.029232
v 1.440817 0.419130 0.029232
vt 0.375000 0.000000
vt 0.625000 0.000000
vt 0.375000 0.250000
vt 0.625000 0.250000
vt 0.375000 0.500000
vt 0.625000 0.500000
vt 0.375000 0.750000
vt 0.625000 0.750000
vt 0.375000 1.000000
vt 0.625000 1.000000
vt 0.875000 0.000000
vt 0.875000 0.250000
vt 0.125000 0.000000
vt 0.125000 0.250000
vn 0.000005 0.000000 1.000000
vn 0.000005 0.000000 1.000000
vn 0.000005 0.000000 1.000000
vn 0.000005 0.000000 1.000000
vn 0.000001 1.000000 -0.000000
vn 0.000001 1.000000 -0.000000
vn 0.000001 1.000000 -0.000000
vn 0.000001 1.000000 -0.000000
vn -0.000004 0.000000 -1.000000
vn -0.000004 0.000000 -1.000000
vn -0.000004 0.000000 -1.000000
vn -0.000004 0.000000 -1.000000
vn 0.000000 -1.000000 0.000000
vn 0.000000 -1.000000 0.000000
vn 0.000000 -1.000000 0.000000
vn 0.000000 -1.000000 0.000000
vn 1.000000 0.000000 0.000000
vn 1.000000 0.000000 0.000000
vn 1.000000 0.000000 0.000000
vn 1.000000 0.000000 0.000000
vn -1.000000 0.000000 0.000000
vn -1.000000 0.000000 0.000000
vn -1.000000 0.000000 0.000000
vn -1.000000 0.000000 0.000000
s off
g pasted__pCube1 group1
usemtl lambert16SG
f 120/200/228 121/201/229 123/203/230 122/202/231
f 122/202/232 123/203/233 125/205/234 124/204/235
f 124/204/236 125/205/237 127/207/238 126/206/239
f 126/206/240 127/207/241 121/209/242 120/208/243
f 121/201/244 127/210/245 125/211/246 123/203/247
f 126/212/248 120/200/249 122/202/250 124/213/251
g default
v -1.561985 -0.898418 0.985582
v -1.395760 -0.898418 0.985582
v -1.561985 0.423021 0.985582
v -1.395760 0.423020 0.985582
v -1.561985 0.423021 0.033585
v -1.395760 0.423020 0.033584
v -1.561985 -0.898418 0.033585
v -1.395760 -0.898418 0.033584
vt 0.375000 0.000000
vt 0.625000 0.000000
vt 0.375000 0.250000
vt 0.625000 0.250000
vt 0.375000 0.500000
vt 0.625000 0.500000
vt 0.375000 0.750000
vt 0.625000 0.750000
vt 0.375000 1.000000
vt 0.625000 1.000000
vt 0.875000 0.000000
vt 0.875000 0.250000
vt 0.125000 0.000000
vt 0.125000 0.250000
vn 0.000004 0.000000 1.000000
vn 0.000004 0.000000 1.000000
vn 0.000004 0.000000 1.000000
vn 0.000004 0.000000 1.000000
vn 0.000006 1.000000 0.000000
vn 0.000006 1.000000 0.000000
vn 0.000006 1.000000 0.000000
vn 0.000006 1.000000 0.000000
vn -0.000004 0.000000 -1.000000
vn -0.000004 0.000000 -1.000000
vn -0.000004 0.000000 -1.000000
vn -0.000004 0.000000 -1.000000
vn 0.000000 -1.000000 0.000000
vn 0.000000 -1.000000 0.000000
vn 0.000000 -1.000000 0.000000
vn 0.000000 -1.000000 0.000000
vn 1.000000 0.000000 0.000000
vn 1.000000 0.000000 0.000000
vn 1.000000 0.000000 0.000000
vn 1.000000 0.000000 0.000000
vn -1.000000 0.000000 0.000000
vn -1.000000 0.000000 0.000000
vn -1.000000 0.000000 0.000000
vn -1.000000 0.000000 0.000000
s off
g pasted__pCube1 group3
usemtl lambert22SG
f 128/214/252 129/215/253 131/217/254 130/216/255
f 130/216/256 131/217/257 133/219/258 132/218/259
f 132/218/260 133/219/261 135/221/262 134/220/263
f 134/220/264 135/221/265 129/223/266 128/222/267
f 129/215/268 135/224/269 133/225/270 131/217/271
f 134/226/272 128/214/273 130/216/274 132/227/275
g default
v 1.272265 -0.898418 0.985582
v 1.438490 -0.898418 0.985582
v 1.272265 0.423021 0.985582
v 1.438490 0.423020 0.985582
v 1.272265 0.423021 0.033585
v 1.438490 0.423020 0.033584
v 1.272265 -0.898418 0.033585
v 1.438490 -0.898418 0.033584
vt 0.375000 0.000000
vt 0.625000 0.000000
vt 0.375000 0.250000
vt 0.625000 0.250000
vt 0.375000 0.500000
vt 0.625000 0.500000
vt 0.375000 0.750000
vt 0.625000 0.750000
vt 0.375000 1.000000
vt 0.625000 1.000000
vt 0.875000 0.000000
vt 0.875000 0.250000
vt 0.125000 0.000000
vt 0.125000 0.250000
vn 0.000004 0.000000 1.000000
vn 0.000004 0.000000 1.000000
vn 0.000004 0.000000 1.000000
vn 0.000004 0.000000 1.000000
vn 0.000006 1.000000 0.000000
vn 0.000006 1.000000 0.000000
vn 0.000006 1.000000 0.000000
vn 0.000006 1.000000 0.000000
vn -0.000004 0.000000 -1.000000
vn -0.000004 0.000000 -1.000000
vn -0.000004 0.000000 -1.000000
vn -0.000004 0.000000 -1.000000
vn 0.000000 -1.000000 0.000000
vn 0.000000 -1.000000 0.000000
vn 0.000000 -1.000000 0.000000
vn 0.000000 -1.000000 0.000000
vn 1.000000 0.000000 0.000000
vn 1.000000 0.000000 0.000000
vn 1.000000 0.000000 0.000000
vn 1.000000 0.000000 0.000000
vn -1.000000 0.000000 0.000000
vn -1.000000 0.000000 0.000000
vn -1.000000 0.000000 0.000000
vn -1.000000 0.000000 0.000000
s off
g pasted__pasted__pCube1 pasted__group3 group4
usemtl lambert22SG
f 136/228/276 137/229/277 139/231/278 138/230/279
f 138/230/280 139/231/281 141/233/282 140/232/283
f 140/232/284 141/233/285 143/235/286 142/234/287
f 142/234/288 143/235/289 137/237/290 136/236/291
f 137/229/292 143/238/293 141/239/294 139/231/295
f 142/240/296 136/228/297 138/230/298 140/241/299
