# This file uses centimeters as units for non-parametric coordinates.

mtllib Foco.mtl
g default
v 0.799057 6.917990 -0.580549
v 0.939348 6.917990 -0.305213
v 0.580549 6.917990 -0.799057
v 0.769421 7.070573 -0.559017
v 0.904509 7.070573 -0.293893
v 0.987688 6.917990 0.000000
v 0.305213 6.917990 -0.939348
v 0.559017 7.070573 -0.769421
v 0.951057 7.070573 0.000000
v 0.720840 7.215547 -0.523721
v 0.847398 7.215547 -0.275336
v 0.939348 6.917990 0.305212
v 0.000000 6.917990 -0.987689
v 0.293893 7.070573 -0.904509
v 0.523721 7.215547 -0.720840
v 0.904509 7.070573 0.293893
v 0.891007 7.215547 0.000000
v 0.654509 7.349341 -0.475529
v 0.769421 7.349341 -0.250000
v 0.799057 6.917990 0.580549
v -0.305213 6.917990 -0.939348
v 0.000000 7.070573 -0.951057
v 0.275336 7.215547 -0.847398
v 0.475529 7.349341 -0.654509
v 0.769421 7.070573 0.559017
v 0.847398 7.215547 0.275336
v 0.809017 7.349341 0.000000
v 0.572062 7.468663 -0.415627
v 0.672499 7.468663 -0.218508
v 0.580549 6.917990 0.799057
v -0.580549 6.917990 -0.799057
v -0.293893 7.070573 -0.904509
v 0.000000 7.215547 -0.891007
v 0.250000 7.349341 -0.769421
v 0.415627 7.468663 -0.572062
v 0.559017 7.070573 0.769421
v 0.720839 7.215547 0.523721
v 0.769421 7.349341 0.250000
v 0.707107 7.468663 0.000000
v 0.475529 7.570573 -0.345492
v 0.559017 7.570573 -0.181636
v 0.305212 6.917990 0.939348
v -0.799057 6.917990 -0.580549
v -0.559017 7.070573 -0.769421
v -0.275336 7.215547 -0.847398
v 0.000000 7.349341 -0.809017
v 0.218508 7.468663 -0.672499
v 0.345492 7.570573 -0.475529
v 0.293893 7.070573 0.904509
v 0.523721 7.215547 0.720840
v 0.654509 7.349341 0.475528
v 0.672499 7.468663 0.218508
v 0.587785 7.570573 0.000000
v 0.367286 7.652563 -0.266849
v 0.431771 7.652563 -0.140291
v 0.000000 6.917990 0.987688
v -0.939348 6.917990 -0.305213
v -0.769421 7.070573 -0.559017
v -0.523721 7.215547 -0.720840
v -0.250000 7.349341 -0.769421
v 0.000000 7.468663 -0.707107
v 0.181636 7.570573 -0.559017
v 0.266849 7.652563 -0.367286
v 0.000000 7.070573 0.951057
v 0.275336 7.215547 0.847398
v 0.475528 7.349341 0.654509
v 0.572061 7.468663 0.415627
v 0.559017 7.570573 0.181636
v 0.453991 7.652563 0.000000
v 0.250000 7.712613 -0.181636
v 0.293893 7.712613 -0.095492
v -0.305213 6.917990 0.939348
v -0.987689 6.917990 0.000000
v -0.904509 7.070573 -0.293893
v -0.720840 7.215547 -0.523721
v -0.475528 7.349341 -0.654509
v -0.218508 7.468663 -0.672499
v 0.000000 7.570573 -0.587786
v 0.140291 7.652563 -0.431771
v 0.181636 7.712613 -0.250000
v -0.293893 7.070573 0.904509
v 0.000000 7.215547 0.891007
v 0.250000 7.349341 0.769421
v 0.415627 7.468663 0.572061
v 0.475528 7.570573 0.345492
v 0.431771 7.652563 0.140291
v 0.309017 7.712613 0.000000
v 0.126558 7.749244 -0.091950
v 0.148778 7.749244 -0.048341
v -0.580549 6.917990 0.799057
v -0.939348 6.917990 0.305213
v -0.951057 7.070573 0.000000
v -0.847398 7.215547 -0.275336
v -0.654509 7.349341 -0.475528
v -0.415627 7.468663 -0.572062
v -0.181636 7.570573 -0.559017
v 0.000000 7.652563 -0.453991
v 0.095492 7.712613 -0.293893
v 0.091950 7.749244 -0.126558
v -0.559017 7.070573 0.769421
v -0.275336 7.215547 0.847398
v 0.000000 7.349341 0.809017
v 0.218508 7.468663 0.672499
v 0.345491 7.570573 0.475528
v 0.367286 7.652563 0.266849
v 0.293893 7.712613 0.095492
v 0.156434 7.749244 0.000000
v 0.000000 7.761556 0.000000
v -0.799057 6.917990 0.580549
v -0.904509 7.070573 0.293893
v -0.891007 7.215547 0.000000
v -0.769421 7.349341 -0.250000
v -0.572062 7.468663 -0.415627
v -0.345492 7.570573 -0.475528
v -0.140291 7.652563 -0.431771
v 0.000000 7.712613 -0.309017
v 0.048341 7.749244 -0.148778
v -0.769421 7.070573 0.559017
v -0.523721 7.215547 0.720840
v -0.250000 7.349341 0.769421
v 0.000000 7.468663 0.707107
v 0.181636 7.570573 0.559017
v 0.266849 7.652563 0.367286
v 0.250000 7.712613 0.181636
v 0.148778 7.749244 0.048341
v -0.847398 7.215547 0.275336
v -0.809017 7.349341 0.000000
v -0.672499 7.468663 -0.218508
v -0.475528 7.570573 -0.345492
v -0.266849 7.652563 -0.367286
v -0.095492 7.712613 -0.293893
v 0.000000 7.749244 -0.156435
v -0.720840 7.215547 0.523721
v -0.475528 7.349341 0.654509
v -0.218508 7.468663 0.672499
v 0.000000 7.570573 0.587785
v 0.140291 7.652563 0.431771
v 0.181636 7.712613 0.250000
v 0.126558 7.749244 0.091950
v -0.769421 7.349341 0.250000
v -0.707107 7.468663 0.000000
v -0.559017 7.570573 -0.181636
v -0.367286 7.652563 -0.266849
v -0.181636 7.712613 -0.250000
v -0.048341 7.749244 -0.148778
v -0.654509 7.349341 0.475528
v -0.415627 7.468663 0.572061
v -0.181636 7.570573 0.559017
v 0.000000 7.652563 0.453991
v 0.095491 7.712613 0.293893
v 0.091950 7.749244 0.126558
v -0.672499 7.468663 0.218508
v -0.587785 7.570573 0.000000
v -0.431771 7.652563 -0.140291
v -0.250000 7.712613 -0.181636
v -0.091950 7.749244 -0.126558
v -0.572062 7.468663 0.415627
v -0.345492 7.570573 0.475528
v -0.140291 7.652563 0.431771
v 0.000000 7.712613 0.309017
v 0.048341 7.749244 0.148778
v -0.559017 7.570573 0.181636
v -0.453991 7.652563 0.000000
v -0.293893 7.712613 -0.095492
v -0.126558 7.749244 -0.091950
v -0.475528 7.570573 0.345492
v -0.266849 7.652563 0.367286
v -0.095492 7.712613 0.293893
v 0.000000 7.749244 0.156434
v -0.431771 7.652563 0.140291
v -0.309017 7.712613 0.000000
v -0.148778 7.749244 -0.048341
v -0.367286 7.652563 0.266849
v -0.181636 7.712613 0.250000
v -0.048341 7.749244 0.148778
v -0.293893 7.712613 0.095492
v -0.156435 7.749244 0.000000
v -0.250000 7.712613 0.181636
v -0.091950 7.749244 0.126558
v -0.148778 7.749244 0.048341
v -0.126558 7.749244 0.091950
v 0.947126 6.814076 -0.307740
v 0.805674 6.814076 -0.585356
v 0.995867 6.814076 0.000000
v 0.947125 6.814076 0.307740
v 0.805673 6.814076 0.585356
v 0.585356 6.814076 0.805673
v 0.307740 6.814076 0.947125
v 0.000000 6.814076 0.995867
v -0.307740 6.814076 0.947126
v -0.585356 6.814076 0.805673
v -0.805673 6.814076 0.585356
v -0.947126 6.814076 0.307740
v -0.995867 6.814076 0.000000
v -0.947126 6.814076 -0.307740
v -0.805673 6.814076 -0.585356
v -0.585356 6.814076 -0.805673
v -0.307740 6.814076 -0.947126
v 0.000000 6.814076 -0.995867
v 0.307740 6.814076 -0.947126
v 0.585356 6.814076 -0.805673
vt 0.901187 0.791479
vt 0.971623 0.653239
vt 0.904509 0.793893
vt 0.975528 0.654508
vt 0.791479 0.901187
vt 0.793893 0.904508
vt 0.886307 0.780668
vt 0.954132 0.647556
vt 0.995894 0.500000
vt 1.000000 0.500000
vt 0.653240 0.971623
vt 0.654509 0.975528
vt 0.780669 0.886307
vt 0.977502 0.500000
vt 0.861916 0.762947
vt 0.925458 0.638239
vt 0.971623 0.346760
vt 0.975528 0.345491
vt 0.500000 0.995894
vt 0.500000 1.000000
vt 0.647556 0.954131
vt 0.762947 0.861916
vt 0.954131 0.352444
vt 0.947352 0.500000
vt 0.828613 0.738751
vt 0.886307 0.625519
vt 0.901186 0.208521
vt 0.904508 0.206107
vt 0.345491 0.975528
vt 0.346760 0.971623
vt 0.500000 0.977502
vt 0.638240 0.925457
vt 0.738751 0.828612
vt 0.886307 0.219331
vt 0.925457 0.361760
vt 0.906187 0.500000
vt 0.787218 0.708676
vt 0.837645 0.609707
vt 0.791479 0.098813
vt 0.793893 0.095491
vt 0.206107 0.904508
vt 0.208521 0.901186
vt 0.352444 0.954131
vt 0.500000 0.947352
vt 0.625519 0.886307
vt 0.708676 0.787218
vt 0.780668 0.113693
vt 0.861916 0.237053
vt 0.886307 0.374481
vt 0.855021 0.500000
vt 0.738751 0.673463
vt 0.780669 0.591195
vt 0.653240 0.028377
vt 0.654508 0.024472
vt 0.095491 0.793893
vt 0.098813 0.791479
vt 0.219331 0.886307
vt 0.361760 0.925457
vt 0.500000 0.906187
vt 0.609707 0.837645
vt 0.673463 0.738751
vt 0.647556 0.045869
vt 0.762947 0.138084
vt 0.828613 0.261249
vt 0.837645 0.390292
vt 0.795112 0.500000
vt 0.684405 0.633978
vt 0.716781 0.570436
vt 0.500000 0.004106
vt 0.500000 -0.000000
vt 0.024472 0.654508
vt 0.028377 0.653239
vt 0.113693 0.780668
vt 0.237053 0.861916
vt 0.374481 0.886307
vt 0.500000 0.855021
vt 0.591195 0.780668
vt 0.633978 0.684405
vt 0.500000 0.022498
vt 0.638239 0.074543
vt 0.738751 0.171387
vt 0.787218 0.291324
vt 0.780668 0.408805
vt 0.727937 0.500000
vt 0.625519 0.591195
vt 0.647556 0.547944
vt 0.345492 0.024472
vt 0.346760 0.028377
vt -0.000000 0.500000
vt 0.004106 0.500000
vt 0.045869 0.647556
vt 0.138084 0.762947
vt 0.261249 0.828612
vt 0.390292 0.837645
vt 0.500000 0.795112
vt 0.570437 0.716781
vt 0.591195 0.625519
vt 0.352444 0.045869
vt 0.500000 0.052648
vt 0.625519 0.113693
vt 0.708676 0.212782
vt 0.738751 0.326537
vt 0.716781 0.429563
vt 0.655150 0.500000
vt 0.563542 0.546166
vt 0.574698 0.524271
vt 0.206107 0.095491
vt 0.208521 0.098813
vt 0.024472 0.345491
vt 0.028377 0.346760
vt 0.022498 0.500000
vt 0.074543 0.638239
vt 0.171387 0.738751
vt 0.291324 0.787218
vt 0.408805 0.780668
vt 0.500000 0.727937
vt 0.547944 0.647556
vt 0.546166 0.563542
vt 0.219331 0.113693
vt 0.361760 0.074543
vt 0.500000 0.093812
vt 0.609707 0.162355
vt 0.673463 0.261249
vt 0.684405 0.366022
vt 0.647556 0.452056
vt 0.578542 0.500000
vt 0.095491 0.206107
vt 0.098813 0.208521
vt 0.045869 0.352444
vt 0.052648 0.500000
vt 0.113693 0.625519
vt 0.212782 0.708676
vt 0.326537 0.738751
vt 0.429563 0.716781
vt 0.500000 0.655150
vt 0.524271 0.574698
vt 0.113693 0.219331
vt 0.237053 0.138084
vt 0.374481 0.113693
vt 0.500000 0.144979
vt 0.591195 0.219331
vt 0.633978 0.315595
vt 0.625519 0.408805
vt 0.574698 0.475729
vt 0.074543 0.361760
vt 0.093813 0.500000
vt 0.162355 0.609707
vt 0.261249 0.673463
vt 0.366022 0.684405
vt 0.452056 0.647556
vt 0.500000 0.578542
vt 0.138084 0.237053
vt 0.261249 0.171387
vt 0.390293 0.162355
vt 0.500000 0.204887
vt 0.570436 0.283219
vt 0.591195 0.374481
vt 0.563542 0.453834
vt 0.113693 0.374481
vt 0.144979 0.500000
vt 0.219331 0.591195
vt 0.315595 0.633978
vt 0.408805 0.625519
vt 0.475729 0.574698
vt 0.171387 0.261249
vt 0.291324 0.212782
vt 0.408805 0.219331
vt 0.500000 0.272062
vt 0.547944 0.352444
vt 0.546166 0.436458
vt 0.162355 0.390292
vt 0.204888 0.500000
vt 0.283219 0.570436
vt 0.374481 0.591195
vt 0.453834 0.563542
vt 0.212782 0.291324
vt 0.326537 0.261249
vt 0.429563 0.283219
vt 0.500000 0.344850
vt 0.524271 0.425302
vt 0.219331 0.408805
vt 0.272063 0.500000
vt 0.352444 0.547944
vt 0.436458 0.546166
vt 0.261249 0.326537
vt 0.366022 0.315595
vt 0.452056 0.352444
vt 0.500000 0.421458
vt 0.283219 0.429563
vt 0.344850 0.500000
vt 0.425302 0.524271
vt 0.315595 0.366022
vt 0.408805 0.374481
vt 0.475729 0.425302
vt 0.352444 0.452056
vt 0.421458 0.500000
vt 0.374481 0.408805
vt 0.453834 0.436458
vt 0.425302 0.475729
vt 0.436458 0.453834
vt 0.500000 0.500000
vn 0.797111 0.170926 -0.579136
vn 0.937459 0.170321 -0.303582
vn 0.807894 0.052672 -0.586969
vn 0.807894 0.052672 -0.586969
vn 0.937459 0.170321 -0.303582
vn 0.949737 0.052672 -0.308587
vn 0.797111 0.170926 -0.579136
vn 0.807894 0.052672 -0.586969
vn 0.578417 0.170321 -0.797762
vn 0.578417 0.170321 -0.797762
vn 0.807894 0.052672 -0.586969
vn 0.586969 0.052672 -0.807894
vn 0.797111 0.170926 -0.579136
vn 0.770287 0.305702 -0.559646
vn 0.937459 0.170321 -0.303582
vn 0.937459 0.170321 -0.303582
vn 0.770287 0.305702 -0.559646
vn 0.906418 0.305396 -0.291786
vn 0.937459 0.170321 -0.303582
vn 0.985388 0.170321 0.000966
vn 0.949737 0.052672 -0.308587
vn 0.949737 0.052672 -0.308587
vn 0.985388 0.170321 0.000966
vn 0.998612 0.052672 0.000001
vn 0.578417 0.170321 -0.797762
vn 0.586969 0.052672 -0.807894
vn 0.303584 0.170320 -0.937458
vn 0.303584 0.170320 -0.937458
vn 0.586969 0.052672 -0.807894
vn 0.308588 0.052672 -0.949736
vn 0.797111 0.170926 -0.579136
vn 0.578417 0.170321 -0.797762
vn 0.770287 0.305702 -0.559646
vn 0.770287 0.305702 -0.559646
vn 0.578417 0.170321 -0.797762
vn 0.557605 0.305396 -0.771887
vn 0.937459 0.170321 -0.303582
vn 0.906418 0.305396 -0.291786
vn 0.985388 0.170321 0.000966
vn 0.985388 0.170321 0.000966
vn 0.906418 0.305396 -0.291786
vn 0.952222 0.305397 0.002593
vn 0.770287 0.305702 -0.559646
vn 0.722801 0.449200 -0.525146
vn 0.906418 0.305396 -0.291786
vn 0.906418 0.305396 -0.291786
vn 0.722801 0.449200 -0.525146
vn 0.850970 0.448938 -0.272589
vn 0.985388 0.170321 0.000966
vn 0.936862 0.170321 0.305419
vn 0.998612 0.052672 0.000001
vn 0.998612 0.052672 0.000001
vn 0.936862 0.170321 0.305419
vn 0.949736 0.052672 0.308588
vn 0.303584 0.170320 -0.937458
vn 0.308588 0.052672 -0.949736
vn -0.001177 0.170198 -0.985409
vn -0.001177 0.170198 -0.985409
vn 0.308588 0.052672 -0.949736
vn -0.000000 0.052672 -0.998612
vn 0.578417 0.170321 -0.797762
vn 0.303584 0.170320 -0.937458
vn 0.557605 0.305396 -0.771887
vn 0.557605 0.305396 -0.771887
vn 0.303584 0.170320 -0.937458
vn 0.291787 0.305396 -0.906418
vn 0.770287 0.305702 -0.559646
vn 0.557605 0.305396 -0.771887
vn 0.722801 0.449200 -0.525146
vn 0.722801 0.449200 -0.525146
vn 0.557605 0.305396 -0.771887
vn 0.522212 0.448937 -0.725086
vn 0.985388 0.170321 0.000966
vn 0.952222 0.305397 0.002593
vn 0.936862 0.170321 0.305419
vn 0.936862 0.170321 0.305419
vn 0.952222 0.305397 0.002593
vn 0.904816 0.305396 0.296718
vn 0.906418 0.305396 -0.291786
vn 0.850970 0.448938 -0.272589
vn 0.952222 0.305397 0.002593
vn 0.952222 0.305397 0.002593
vn 0.850970 0.448938 -0.272589
vn 0.893555 0.448938 0.003717
vn 0.722801 0.449200 -0.525146
vn 0.657928 0.581922 -0.478014
vn 0.850970 0.448938 -0.272589
vn 0.850970 0.448938 -0.272589
vn 0.657928 0.581922 -0.478014
vn 0.774994 0.581723 -0.246947
vn 0.936862 0.170321 0.305419
vn 0.796628 0.170320 0.579978
vn 0.949736 0.052672 0.308588
vn 0.949736 0.052672 0.308588
vn 0.796628 0.170320 0.579978
vn 0.807894 0.052672 0.586969
vn -0.000000 0.052672 -0.998612
vn -0.308588 0.052672 -0.949736
vn -0.001177 0.170198 -0.985409
vn -0.001177 0.170198 -0.985409
vn -0.308588 0.052672 -0.949736
vn -0.305825 0.170320 -0.936729
vn 0.303584 0.170320 -0.937458
vn -0.001177 0.170198 -0.985409
vn 0.291787 0.305396 -0.906418
vn 0.291787 0.305396 -0.906418
vn -0.001177 0.170198 -0.985409
vn -0.002592 0.305397 -0.952222
vn 0.557605 0.305396 -0.771887
vn 0.291787 0.305396 -0.906418
vn 0.522212 0.448937 -0.725086
vn 0.522212 0.448937 -0.725086
vn 0.291787 0.305396 -0.906418
vn 0.272590 0.448938 -0.850970
vn 0.722801 0.449200 -0.525146
vn 0.522212 0.448937 -0.725086
vn 0.657928 0.581922 -0.478014
vn 0.657928 0.581922 -0.478014
vn 0.522212 0.448937 -0.725086
vn 0.474347 0.581723 -0.660752
vn 0.936862 0.170321 0.305419
vn 0.904816 0.305396 0.296718
vn 0.796628 0.170320 0.579978
vn 0.796628 0.170320 0.579978
vn 0.904816 0.305396 0.296718
vn 0.768840 0.305396 0.561799
vn 0.952222 0.305397 0.002593
vn 0.893555 0.448938 0.003717
vn 0.904816 0.305396 0.296718
vn 0.904816 0.305396 0.296718
vn 0.893555 0.448938 0.003717
vn 0.848673 0.448938 0.279658
vn 0.850970 0.448938 -0.272589
vn 0.774994 0.581723 -0.246947
vn 0.893555 0.448938 0.003717
vn 0.893555 0.448938 0.003717
vn 0.774994 0.581723 -0.246947
vn 0.813374 0.581723 0.004626
vn 0.657928 0.581922 -0.478014
vn 0.577227 0.700664 -0.419379
vn 0.774994 0.581723 -0.246947
vn 0.774994 0.581723 -0.246947
vn 0.577227 0.700664 -0.419379
vn 0.680270 0.700558 -0.215526
vn 0.796628 0.170320 0.579978
vn 0.578415 0.170320 0.797764
vn 0.807894 0.052672 0.586969
vn 0.807894 0.052672 0.586969
vn 0.578415 0.170320 0.797764
vn 0.586969 0.052672 0.807894
vn -0.308588 0.052672 -0.949736
vn -0.586969 0.052672 -0.807894
vn -0.305825 0.170320 -0.936729
vn -0.305825 0.170320 -0.936729
vn -0.586969 0.052672 -0.807894
vn -0.580323 0.170321 -0.796377
vn -0.001177 0.170198 -0.985409
vn -0.305825 0.170320 -0.936729
vn -0.002592 0.305397 -0.952222
vn -0.002592 0.305397 -0.952222
vn -0.305825 0.170320 -0.936729
vn -0.296718 0.305396 -0.904816
vn 0.291787 0.305396 -0.906418
vn -0.002592 0.305397 -0.952222
vn 0.272590 0.448938 -0.850970
vn 0.272590 0.448938 -0.850970
vn -0.002592 0.305397 -0.952222
vn -0.003716 0.448937 -0.893556
vn 0.522212 0.448937 -0.725086
vn 0.272590 0.448938 -0.850970
vn 0.474347 0.581723 -0.660752
vn 0.474347 0.581723 -0.660752
vn 0.272590 0.448938 -0.850970
vn 0.246947 0.581723 -0.774994
vn 0.657928 0.581922 -0.478014
vn 0.474347 0.581723 -0.660752
vn 0.577227 0.700664 -0.419379
vn 0.577227 0.700664 -0.419379
vn 0.474347 0.581723 -0.660752
vn 0.415193 0.700558 -0.580373
vn 0.796628 0.170320 0.579978
vn 0.768840 0.305396 0.561799
vn 0.578415 0.170320 0.797764
vn 0.578415 0.170320 0.797764
vn 0.768840 0.305396 0.561799
vn 0.557605 0.305396 0.771887
vn 0.904816 0.305396 0.296718
vn 0.848673 0.448938 0.279658
vn 0.768840 0.305396 0.561799
vn 0.768840 0.305396 0.561799
vn 0.848673 0.448938 0.279658
vn 0.720718 0.448938 0.528223
vn 0.893555 0.448938 0.003717
vn 0.813374 0.581723 0.004626
vn 0.848673 0.448938 0.279658
vn 0.848673 0.448938 0.279658
vn 0.813374 0.581723 0.004626
vn 0.772135 0.581723 0.255746
vn 0.774994 0.581723 -0.246947
vn 0.680270 0.700558 -0.215526
vn 0.813374 0.581723 0.004626
vn 0.813374 0.581723 0.004626
vn 0.680270 0.700558 -0.215526
vn 0.713577 0.700557 0.005237
vn 0.577227 0.700664 -0.419379
vn 0.482647 0.802551 -0.350663
vn 0.680270 0.700558 -0.215526
vn 0.680270 0.700558 -0.215526
vn 0.482647 0.802551 -0.350663
vn 0.569006 0.802582 -0.179146
vn 0.578415 0.170320 0.797764
vn 0.303584 0.170321 0.937458
vn 0.586969 0.052672 0.807894
vn 0.586969 0.052672 0.807894
vn 0.303584 0.170321 0.937458
vn 0.308588 0.052672 0.949736
vn -0.586969 0.052672 -0.807894
vn -0.807894 0.052672 -0.586969
vn -0.580323 0.170321 -0.796377
vn -0.580323 0.170321 -0.796377
vn -0.807894 0.052672 -0.586969
vn -0.798013 0.170320 -0.578072
vn -0.305825 0.170320 -0.936729
vn -0.580323 0.170321 -0.796377
vn -0.296718 0.305396 -0.904816
vn -0.296718 0.305396 -0.904816
vn -0.580323 0.170321 -0.796377
vn -0.561799 0.305397 -0.768840
vn -0.002592 0.305397 -0.952222
vn -0.296718 0.305396 -0.904816
vn -0.003716 0.448937 -0.893556
vn -0.003716 0.448937 -0.893556
vn -0.296718 0.305396 -0.904816
vn -0.279658 0.448938 -0.848673
vn 0.272590 0.448938 -0.850970
vn -0.003716 0.448937 -0.893556
vn 0.246947 0.581723 -0.774994
vn 0.246947 0.581723 -0.774994
vn -0.003716 0.448937 -0.893556
vn -0.004625 0.581723 -0.813374
vn 0.474347 0.581723 -0.660752
vn 0.246947 0.581723 -0.774994
vn 0.415193 0.700558 -0.580373
vn 0.415193 0.700558 -0.580373
vn 0.246947 0.581723 -0.774994
vn 0.215527 0.700558 -0.680270
vn 0.577227 0.700664 -0.419379
vn 0.415193 0.700558 -0.580373
vn 0.482647 0.802551 -0.350663
vn 0.482647 0.802551 -0.350663
vn 0.415193 0.700558 -0.580373
vn 0.346211 0.802583 -0.485798
vn 0.578415 0.170320 0.797764
vn 0.557605 0.305396 0.771887
vn 0.303584 0.170321 0.937458
vn 0.303584 0.170321 0.937458
vn 0.557605 0.305396 0.771887
vn 0.291787 0.305396 0.906418
vn 0.768840 0.305396 0.561799
vn 0.720718 0.448938 0.528223
vn 0.557605 0.305396 0.771887
vn 0.557605 0.305396 0.771887
vn 0.720718 0.448938 0.528223
vn 0.522213 0.448938 0.725085
vn 0.848673 0.448938 0.279658
vn 0.772135 0.581723 0.255746
vn 0.720718 0.448938 0.528223
vn 0.720718 0.448938 0.528223
vn 0.772135 0.581723 0.255746
vn 0.655315 0.581723 0.481830
vn 0.813374 0.581723 0.004626
vn 0.713577 0.700557 0.005237
vn 0.772135 0.581723 0.255746
vn 0.772135 0.581723 0.255746
vn 0.713577 0.700557 0.005237
vn 0.677033 0.700557 0.225489
vn 0.680270 0.700558 -0.215526
vn 0.569006 0.802582 -0.179146
vn 0.713577 0.700557 0.005237
vn 0.713577 0.700557 0.005237
vn 0.569006 0.802582 -0.179146
vn 0.596517 0.802582 0.005455
vn 0.482647 0.802551 -0.350663
vn 0.376519 0.885099 -0.273557
vn 0.569006 0.802582 -0.179146
vn 0.569006 0.802582 -0.179146
vn 0.376519 0.885099 -0.273557
vn 0.443772 0.885333 -0.138752
vn 0.303584 0.170321 0.937458
vn -0.001177 0.170197 0.985409
vn 0.308588 0.052672 0.949736
vn 0.308588 0.052672 0.949736
vn -0.001177 0.170197 0.985409
vn 0.000000 0.052672 0.998612
vn -0.807894 0.052672 -0.586969
vn -0.949736 0.052672 -0.308588
vn -0.798013 0.170320 -0.578072
vn -0.798013 0.170320 -0.578072
vn -0.949736 0.052672 -0.308588
vn -0.937590 0.170321 -0.303177
vn -0.580323 0.170321 -0.796377
vn -0.798013 0.170320 -0.578072
vn -0.561799 0.305397 -0.768840
vn -0.561799 0.305397 -0.768840
vn -0.798013 0.170320 -0.578072
vn -0.771887 0.305396 -0.557605
vn -0.296718 0.305396 -0.904816
vn -0.561799 0.305397 -0.768840
vn -0.279658 0.448938 -0.848673
vn -0.279658 0.448938 -0.848673
vn -0.561799 0.305397 -0.768840
vn -0.528225 0.448938 -0.720717
vn -0.003716 0.448937 -0.893556
vn -0.279658 0.448938 -0.848673
vn -0.004625 0.581723 -0.813374
vn -0.004625 0.581723 -0.813374
vn -0.279658 0.448938 -0.848673
vn -0.255745 0.581723 -0.772135
vn 0.246947 0.581723 -0.774994
vn -0.004625 0.581723 -0.813374
vn 0.215527 0.700558 -0.680270
vn 0.215527 0.700558 -0.680270
vn -0.004625 0.581723 -0.813374
vn -0.005237 0.700558 -0.713577
vn 0.415193 0.700558 -0.580373
vn 0.215527 0.700558 -0.680270
vn 0.346211 0.802583 -0.485798
vn 0.346211 0.802583 -0.485798
vn 0.215527 0.700558 -0.680270
vn 0.179146 0.802581 -0.569008
vn 0.482647 0.802551 -0.350663
vn 0.346211 0.802583 -0.485798
vn 0.376519 0.885099 -0.273557
vn 0.376519 0.885099 -0.273557
vn 0.346211 0.802583 -0.485798
vn 0.269095 0.885333 -0.379175
vn 0.303584 0.170321 0.937458
vn 0.291787 0.305396 0.906418
vn -0.001177 0.170197 0.985409
vn -0.001177 0.170197 0.985409
vn 0.291787 0.305396 0.906418
vn -0.002592 0.305396 0.952222
vn 0.557605 0.305396 0.771887
vn 0.522213 0.448938 0.725085
vn 0.291787 0.305396 0.906418
vn 0.291787 0.305396 0.906418
vn 0.522213 0.448938 0.725085
vn 0.272590 0.448937 0.850970
vn 0.720718 0.448938 0.528223
vn 0.655315 0.581723 0.481830
vn 0.522213 0.448938 0.725085
vn 0.522213 0.448938 0.725085
vn 0.655315 0.581723 0.481830
vn 0.474347 0.581723 0.660752
vn 0.772135 0.581723 0.255746
vn 0.677033 0.700557 0.225489
vn 0.655315 0.581723 0.481830
vn 0.655315 0.581723 0.481830
vn 0.677033 0.700557 0.225489
vn 0.574218 0.700558 0.423665
vn 0.713577 0.700557 0.005237
vn 0.596517 0.802582 0.005455
vn 0.677033 0.700557 0.225489
vn 0.677033 0.700557 0.225489
vn 0.596517 0.802582 0.005455
vn 0.565635 0.802582 0.189522
vn 0.569006 0.802582 -0.179146
vn 0.443772 0.885333 -0.138752
vn 0.596517 0.802582 0.005455
vn 0.596517 0.802582 0.005455
vn 0.443772 0.885333 -0.138752
vn 0.464929 0.885333 0.005170
vn 0.376519 0.885099 -0.273557
vn 0.261587 0.946284 -0.190052
vn 0.443772 0.885333 -0.138752
vn 0.443772 0.885333 -0.138752
vn 0.261587 0.946284 -0.190052
vn 0.307374 0.946801 -0.095335
vn 0.000000 0.052672 0.998612
vn -0.001177 0.170197 0.985409
vn -0.308588 0.052672 0.949736
vn -0.308588 0.052672 0.949736
vn -0.001177 0.170197 0.985409
vn -0.305826 0.170321 0.936729
vn -0.949736 0.052672 -0.308588
vn -0.998612 0.052672 -0.000000
vn -0.937590 0.170321 -0.303177
vn -0.937590 0.170321 -0.303177
vn -0.998612 0.052672 -0.000000
vn -0.985388 0.170320 0.001391
vn -0.798013 0.170320 -0.578072
vn -0.937590 0.170321 -0.303177
vn -0.771887 0.305396 -0.557605
vn -0.771887 0.305396 -0.557605
vn -0.937590 0.170321 -0.303177
vn -0.906417 0.305397 -0.291788
vn -0.561799 0.305397 -0.768840
vn -0.771887 0.305396 -0.557605
vn -0.528225 0.448938 -0.720717
vn -0.528225 0.448938 -0.720717
vn -0.771887 0.305396 -0.557605
vn -0.725085 0.448938 -0.522213
vn -0.279658 0.448938 -0.848673
vn -0.528225 0.448938 -0.720717
vn -0.255745 0.581723 -0.772135
vn -0.255745 0.581723 -0.772135
vn -0.528225 0.448938 -0.720717
vn -0.481831 0.581723 -0.655314
vn -0.004625 0.581723 -0.813374
vn -0.255745 0.581723 -0.772135
vn -0.005237 0.700558 -0.713577
vn -0.005237 0.700558 -0.713577
vn -0.255745 0.581723 -0.772135
vn -0.225488 0.700556 -0.677035
vn 0.215527 0.700558 -0.680270
vn -0.005237 0.700558 -0.713577
vn 0.179146 0.802581 -0.569008
vn 0.179146 0.802581 -0.569008
vn -0.005237 0.700558 -0.713577
vn -0.005454 0.802583 -0.596516
vn 0.346211 0.802583 -0.485798
vn 0.179146 0.802581 -0.569008
vn 0.269095 0.885333 -0.379175
vn 0.269095 0.885333 -0.379175
vn 0.179146 0.802581 -0.569008
vn 0.138753 0.885333 -0.443772
vn 0.376519 0.885099 -0.273557
vn 0.269095 0.885333 -0.379175
vn 0.261587 0.946284 -0.190052
vn 0.261587 0.946284 -0.190052
vn 0.269095 0.885333 -0.379175
vn 0.185650 0.946802 -0.262868
vn -0.001177 0.170197 0.985409
vn -0.002592 0.305396 0.952222
vn -0.305826 0.170321 0.936729
vn -0.305826 0.170321 0.936729
vn -0.002592 0.305396 0.952222
vn -0.296718 0.305397 0.904815
vn 0.291787 0.305396 0.906418
vn 0.272590 0.448937 0.850970
vn -0.002592 0.305396 0.952222
vn -0.002592 0.305396 0.952222
vn 0.272590 0.448937 0.850970
vn -0.003716 0.448937 0.893556
vn 0.522213 0.448938 0.725085
vn 0.474347 0.581723 0.660752
vn 0.272590 0.448937 0.850970
vn 0.272590 0.448937 0.850970
vn 0.474347 0.581723 0.660752
vn 0.246947 0.581722 0.774995
vn 0.655315 0.581723 0.481830
vn 0.574218 0.700558 0.423665
vn 0.474347 0.581723 0.660752
vn 0.474347 0.581723 0.660752
vn 0.574218 0.700558 0.423665
vn 0.415193 0.700558 0.580374
vn 0.677033 0.700557 0.225489
vn 0.565635 0.802582 0.189522
vn 0.574218 0.700558 0.423665
vn 0.574218 0.700558 0.423665
vn 0.565635 0.802582 0.189522
vn 0.479386 0.802583 0.355035
vn 0.596517 0.802582 0.005455
vn 0.464929 0.885333 0.005170
vn 0.565635 0.802582 0.189522
vn 0.565635 0.802582 0.189522
vn 0.464929 0.885333 0.005170
vn 0.440576 0.885333 0.148590
vn 0.443772 0.885333 -0.138752
vn 0.307374 0.946801 -0.095335
vn 0.464929 0.885333 0.005170
vn 0.464929 0.885333 0.005170
vn 0.307374 0.946801 -0.095335
vn 0.321789 0.946802 0.004313
vn 0.261587 0.946284 -0.190052
vn 0.141538 0.984577 -0.102831
vn 0.307374 0.946801 -0.095335
vn 0.307374 0.946801 -0.095335
vn 0.141538 0.984577 -0.102831
vn 0.162626 0.985442 -0.049560
vn -0.308588 0.052672 0.949736
vn -0.305826 0.170321 0.936729
vn -0.586969 0.052672 0.807894
vn -0.586969 0.052672 0.807894
vn -0.305826 0.170321 0.936729
vn -0.580321 0.170320 0.796378
vn -0.998612 0.052672 -0.000000
vn -0.949736 0.052672 0.308588
vn -0.985388 0.170320 0.001391
vn -0.985388 0.170320 0.001391
vn -0.949736 0.052672 0.308588
vn -0.936729 0.170320 0.305825
vn -0.937590 0.170321 -0.303177
vn -0.985388 0.170320 0.001391
vn -0.906417 0.305397 -0.291788
vn -0.906417 0.305397 -0.291788
vn -0.985388 0.170320 0.001391
vn -0.952222 0.305396 0.002592
vn -0.771887 0.305396 -0.557605
vn -0.906417 0.305397 -0.291788
vn -0.725085 0.448938 -0.522213
vn -0.725085 0.448938 -0.522213
vn -0.906417 0.305397 -0.291788
vn -0.850970 0.448938 -0.272591
vn -0.528225 0.448938 -0.720717
vn -0.725085 0.448938 -0.522213
vn -0.481831 0.581723 -0.655314
vn -0.481831 0.581723 -0.655314
vn -0.725085 0.448938 -0.522213
vn -0.660751 0.581722 -0.474349
vn -0.255745 0.581723 -0.772135
vn -0.481831 0.581723 -0.655314
vn -0.225488 0.700556 -0.677035
vn -0.225488 0.700556 -0.677035
vn -0.481831 0.581723 -0.655314
vn -0.423667 0.700559 -0.574216
vn -0.005237 0.700558 -0.713577
vn -0.225488 0.700556 -0.677035
vn -0.005454 0.802583 -0.596516
vn -0.005454 0.802583 -0.596516
vn -0.225488 0.700556 -0.677035
vn -0.189521 0.802582 -0.565636
vn 0.179146 0.802581 -0.569008
vn -0.005454 0.802583 -0.596516
vn 0.138753 0.885333 -0.443772
vn 0.138753 0.885333 -0.443772
vn -0.005454 0.802583 -0.596516
vn -0.005171 0.885333 -0.464929
vn 0.269095 0.885333 -0.379175
vn 0.138753 0.885333 -0.443772
vn 0.185650 0.946802 -0.262868
vn 0.185650 0.946802 -0.262868
vn 0.138753 0.885333 -0.443772
vn 0.095332 0.946801 -0.307374
vn 0.261587 0.946284 -0.190052
vn 0.185650 0.946802 -0.262868
vn 0.141538 0.984577 -0.102831
vn 0.141538 0.984577 -0.102831
vn 0.185650 0.946802 -0.262868
vn 0.097386 0.985443 -0.139350
vn -0.305826 0.170321 0.936729
vn -0.296718 0.305397 0.904815
vn -0.580321 0.170320 0.796378
vn -0.580321 0.170320 0.796378
vn -0.296718 0.305397 0.904815
vn -0.561799 0.305396 0.768840
vn -0.002592 0.305396 0.952222
vn -0.003716 0.448937 0.893556
vn -0.296718 0.305397 0.904815
vn -0.296718 0.305397 0.904815
vn -0.003716 0.448937 0.893556
vn -0.279658 0.448938 0.848673
vn 0.272590 0.448937 0.850970
vn 0.246947 0.581722 0.774995
vn -0.003716 0.448937 0.893556
vn -0.003716 0.448937 0.893556
vn 0.246947 0.581722 0.774995
vn -0.004625 0.581723 0.813374
vn 0.474347 0.581723 0.660752
vn 0.415193 0.700558 0.580374
vn 0.246947 0.581722 0.774995
vn 0.246947 0.581722 0.774995
vn 0.415193 0.700558 0.580374
vn 0.215527 0.700557 0.680271
vn 0.574218 0.700558 0.423665
vn 0.479386 0.802583 0.355035
vn 0.415193 0.700558 0.580374
vn 0.415193 0.700558 0.580374
vn 0.479386 0.802583 0.355035
vn 0.346211 0.802582 0.485798
vn 0.565635 0.802582 0.189522
vn 0.440576 0.885333 0.148590
vn 0.479386 0.802583 0.355035
vn 0.479386 0.802583 0.355035
vn 0.440576 0.885333 0.148590
vn 0.373097 0.885333 0.277461
vn 0.464929 0.885333 0.005170
vn 0.321789 0.946802 0.004313
vn 0.440576 0.885333 0.148590
vn 0.440576 0.885333 0.148590
vn 0.321789 0.946802 0.004313
vn 0.304706 0.946802 0.103542
vn 0.307374 0.946801 -0.095335
vn 0.162626 0.985442 -0.049560
vn 0.321789 0.946802 0.004313
vn 0.321789 0.946802 0.004313
vn 0.162626 0.985442 -0.049560
vn 0.169981 0.985442 0.003125
vn -0.586969 0.052672 0.807894
vn -0.580321 0.170320 0.796378
vn -0.807894 0.052672 0.586969
vn -0.807894 0.052672 0.586969
vn -0.580321 0.170320 0.796378
vn -0.797248 0.169955 0.579233
vn -0.949736 0.052672 0.308588
vn -0.807894 0.052672 0.586969
vn -0.936729 0.170320 0.305825
vn -0.936729 0.170320 0.305825
vn -0.807894 0.052672 0.586969
vn -0.797248 0.169955 0.579233
vn -0.985388 0.170320 0.001391
vn -0.936729 0.170320 0.305825
vn -0.952222 0.305396 0.002592
vn -0.952222 0.305396 0.002592
vn -0.936729 0.170320 0.305825
vn -0.904816 0.305396 0.296718
vn -0.906417 0.305397 -0.291788
vn -0.952222 0.305396 0.002592
vn -0.850970 0.448938 -0.272591
vn -0.850970 0.448938 -0.272591
vn -0.952222 0.305396 0.002592
vn -0.893555 0.448938 0.003716
vn -0.725085 0.448938 -0.522213
vn -0.850970 0.448938 -0.272591
vn -0.660751 0.581722 -0.474349
vn -0.660751 0.581722 -0.474349
vn -0.850970 0.448938 -0.272591
vn -0.774994 0.581723 -0.246948
vn -0.481831 0.581723 -0.655314
vn -0.660751 0.581722 -0.474349
vn -0.423667 0.700559 -0.574216
vn -0.423667 0.700559 -0.574216
vn -0.660751 0.581722 -0.474349
vn -0.580374 0.700557 -0.415194
vn -0.225488 0.700556 -0.677035
vn -0.423667 0.700559 -0.574216
vn -0.189521 0.802582 -0.565636
vn -0.189521 0.802582 -0.565636
vn -0.423667 0.700559 -0.574216
vn -0.355037 0.802584 -0.479383
vn -0.005454 0.802583 -0.596516
vn -0.189521 0.802582 -0.565636
vn -0.005171 0.885333 -0.464929
vn -0.005171 0.885333 -0.464929
vn -0.189521 0.802582 -0.565636
vn -0.148589 0.885332 -0.440577
vn 0.138753 0.885333 -0.443772
vn -0.005171 0.885333 -0.464929
vn 0.095332 0.946801 -0.307374
vn 0.095332 0.946801 -0.307374
vn -0.005171 0.885333 -0.464929
vn -0.004317 0.946801 -0.321790
vn 0.185650 0.946802 -0.262868
vn 0.095332 0.946801 -0.307374
vn 0.097386 0.985443 -0.139350
vn 0.097386 0.985443 -0.139350
vn 0.095332 0.946801 -0.307374
vn 0.049557 0.985443 -0.162624
vn -0.580321 0.170320 0.796378
vn -0.561799 0.305396 0.768840
vn -0.797248 0.169955 0.579233
vn -0.797248 0.169955 0.579233
vn -0.561799 0.305396 0.768840
vn -0.770448 0.305083 0.559763
vn -0.296718 0.305397 0.904815
vn -0.279658 0.448938 0.848673
vn -0.561799 0.305396 0.768840
vn -0.561799 0.305396 0.768840
vn -0.279658 0.448938 0.848673
vn -0.528224 0.448938 0.720718
vn -0.003716 0.448937 0.893556
vn -0.004625 0.581723 0.813374
vn -0.279658 0.448938 0.848673
vn -0.279658 0.448938 0.848673
vn -0.004625 0.581723 0.813374
vn -0.255745 0.581723 0.772135
vn 0.246947 0.581722 0.774995
vn 0.215527 0.700557 0.680271
vn -0.004625 0.581723 0.813374
vn -0.004625 0.581723 0.813374
vn 0.215527 0.700557 0.680271
vn -0.005237 0.700558 0.713576
vn 0.415193 0.700558 0.580374
vn 0.346211 0.802582 0.485798
vn 0.215527 0.700557 0.680271
vn 0.215527 0.700557 0.680271
vn 0.346211 0.802582 0.485798
vn 0.179146 0.802582 0.569007
vn 0.479386 0.802583 0.355035
vn 0.373097 0.885333 0.277461
vn 0.346211 0.802582 0.485798
vn 0.346211 0.802582 0.485798
vn 0.373097 0.885333 0.277461
vn 0.269096 0.885333 0.379175
vn 0.440576 0.885333 0.148590
vn 0.304706 0.946802 0.103542
vn 0.373097 0.885333 0.277461
vn 0.373097 0.885333 0.277461
vn 0.304706 0.946802 0.103542
vn 0.257795 0.946802 0.192634
vn 0.321789 0.946802 0.004313
vn 0.169981 0.985442 0.003125
vn 0.304706 0.946802 0.103542
vn 0.304706 0.946802 0.103542
vn 0.169981 0.985442 0.003125
vn 0.160696 0.985442 0.055498
vn -0.936729 0.170320 0.305825
vn -0.797248 0.169955 0.579233
vn -0.904816 0.305396 0.296718
vn -0.904816 0.305396 0.296718
vn -0.797248 0.169955 0.579233
vn -0.770448 0.305083 0.559763
vn -0.952222 0.305396 0.002592
vn -0.904816 0.305396 0.296718
vn -0.893555 0.448938 0.003716
vn -0.893555 0.448938 0.003716
vn -0.904816 0.305396 0.296718
vn -0.848673 0.448938 0.279658
vn -0.850970 0.448938 -0.272591
vn -0.893555 0.448938 0.003716
vn -0.774994 0.581723 -0.246948
vn -0.774994 0.581723 -0.246948
vn -0.893555 0.448938 0.003716
vn -0.813374 0.581723 0.004626
vn -0.660751 0.581722 -0.474349
vn -0.774994 0.581723 -0.246948
vn -0.580374 0.700557 -0.415194
vn -0.580374 0.700557 -0.415194
vn -0.774994 0.581723 -0.246948
vn -0.680270 0.700558 -0.215526
vn -0.423667 0.700559 -0.574216
vn -0.580374 0.700557 -0.415194
vn -0.355037 0.802584 -0.479383
vn -0.355037 0.802584 -0.479383
vn -0.580374 0.700557 -0.415194
vn -0.485798 0.802582 -0.346211
vn -0.189521 0.802582 -0.565636
vn -0.355037 0.802584 -0.479383
vn -0.148589 0.885332 -0.440577
vn -0.148589 0.885332 -0.440577
vn -0.355037 0.802584 -0.479383
vn -0.277462 0.885333 -0.373095
vn -0.005171 0.885333 -0.464929
vn -0.148589 0.885332 -0.440577
vn -0.004317 0.946801 -0.321790
vn -0.004317 0.946801 -0.321790
vn -0.148589 0.885332 -0.440577
vn -0.103544 0.946801 -0.304708
vn 0.095332 0.946801 -0.307374
vn -0.004317 0.946801 -0.321790
vn 0.049557 0.985443 -0.162624
vn 0.049557 0.985443 -0.162624
vn -0.004317 0.946801 -0.321790
vn -0.003123 0.985443 -0.169980
vn -0.561799 0.305396 0.768840
vn -0.528224 0.448938 0.720718
vn -0.770448 0.305083 0.559763
vn -0.770448 0.305083 0.559763
vn -0.528224 0.448938 0.720718
vn -0.723018 0.448667 0.525303
vn -0.279658 0.448938 0.848673
vn -0.255745 0.581723 0.772135
vn -0.528224 0.448938 0.720718
vn -0.528224 0.448938 0.720718
vn -0.255745 0.581723 0.772135
vn -0.481831 0.581723 0.655314
vn -0.004625 0.581723 0.813374
vn -0.005237 0.700558 0.713576
vn -0.255745 0.581723 0.772135
vn -0.255745 0.581723 0.772135
vn -0.005237 0.700558 0.713576
vn -0.225488 0.700557 0.677034
vn 0.215527 0.700557 0.680271
vn 0.179146 0.802582 0.569007
vn -0.005237 0.700558 0.713576
vn -0.005237 0.700558 0.713576
vn 0.179146 0.802582 0.569007
vn -0.005454 0.802581 0.596518
vn 0.346211 0.802582 0.485798
vn 0.269096 0.885333 0.379175
vn 0.179146 0.802582 0.569007
vn 0.179146 0.802582 0.569007
vn 0.269096 0.885333 0.379175
vn 0.138754 0.885332 0.443774
vn 0.373097 0.885333 0.277461
vn 0.257795 0.946802 0.192634
vn 0.269096 0.885333 0.379175
vn 0.269096 0.885333 0.379175
vn 0.257795 0.946802 0.192634
vn 0.185650 0.946802 0.262870
vn 0.304706 0.946802 0.103542
vn 0.160696 0.985442 0.055498
vn 0.257795 0.946802 0.192634
vn 0.257795 0.946802 0.192634
vn 0.160696 0.985442 0.055498
vn 0.135682 0.985443 0.102438
vn -0.904816 0.305396 0.296718
vn -0.770448 0.305083 0.559763
vn -0.848673 0.448938 0.279658
vn -0.848673 0.448938 0.279658
vn -0.770448 0.305083 0.559763
vn -0.723018 0.448667 0.525303
vn -0.893555 0.448938 0.003716
vn -0.848673 0.448938 0.279658
vn -0.813374 0.581723 0.004626
vn -0.813374 0.581723 0.004626
vn -0.848673 0.448938 0.279658
vn -0.772135 0.581723 0.255745
vn -0.774994 0.581723 -0.246948
vn -0.813374 0.581723 0.004626
vn -0.680270 0.700558 -0.215526
vn -0.680270 0.700558 -0.215526
vn -0.813374 0.581723 0.004626
vn -0.713577 0.700558 0.005238
vn -0.580374 0.700557 -0.415194
vn -0.680270 0.700558 -0.215526
vn -0.485798 0.802582 -0.346211
vn -0.485798 0.802582 -0.346211
vn -0.680270 0.700558 -0.215526
vn -0.569007 0.802583 -0.179144
vn -0.355037 0.802584 -0.479383
vn -0.485798 0.802582 -0.346211
vn -0.277462 0.885333 -0.373095
vn -0.277462 0.885333 -0.373095
vn -0.485798 0.802582 -0.346211
vn -0.379175 0.885332 -0.269097
vn -0.148589 0.885332 -0.440577
vn -0.277462 0.885333 -0.373095
vn -0.103544 0.946801 -0.304708
vn -0.103544 0.946801 -0.304708
vn -0.277462 0.885333 -0.373095
vn -0.192635 0.946800 -0.257800
vn -0.004317 0.946801 -0.321790
vn -0.103544 0.946801 -0.304708
vn -0.003123 0.985443 -0.169980
vn -0.003123 0.985443 -0.169980
vn -0.103544 0.946801 -0.304708
vn -0.055497 0.985443 -0.160695
vn -0.528224 0.448938 0.720718
vn -0.481831 0.581723 0.655314
vn -0.723018 0.448667 0.525303
vn -0.723018 0.448667 0.525303
vn -0.481831 0.581723 0.655314
vn -0.658160 0.581522 0.478181
vn -0.255745 0.581723 0.772135
vn -0.225488 0.700557 0.677034
vn -0.481831 0.581723 0.655314
vn -0.481831 0.581723 0.655314
vn -0.225488 0.700557 0.677034
vn -0.423666 0.700557 0.574218
vn -0.005237 0.700558 0.713576
vn -0.005454 0.802581 0.596518
vn -0.225488 0.700557 0.677034
vn -0.225488 0.700557 0.677034
vn -0.005454 0.802581 0.596518
vn -0.189521 0.802582 0.565636
vn 0.179146 0.802582 0.569007
vn 0.138754 0.885332 0.443774
vn -0.005454 0.802581 0.596518
vn -0.005454 0.802581 0.596518
vn 0.138754 0.885332 0.443774
vn -0.005171 0.885332 0.464930
vn 0.269096 0.885333 0.379175
vn 0.185650 0.946802 0.262870
vn 0.138754 0.885332 0.443774
vn 0.138754 0.885332 0.443774
vn 0.185650 0.946802 0.262870
vn 0.095333 0.946801 0.307374
vn 0.257795 0.946802 0.192634
vn 0.135682 0.985443 0.102438
vn 0.185650 0.946802 0.262870
vn 0.185650 0.946802 0.262870
vn 0.135682 0.985443 0.102438
vn 0.097386 0.985442 0.139356
vn -0.848673 0.448938 0.279658
vn -0.723018 0.448667 0.525303
vn -0.772135 0.581723 0.255745
vn -0.772135 0.581723 0.255745
vn -0.723018 0.448667 0.525303
vn -0.658160 0.581522 0.478181
vn -0.813374 0.581723 0.004626
vn -0.772135 0.581723 0.255745
vn -0.713577 0.700558 0.005238
vn -0.713577 0.700558 0.005238
vn -0.772135 0.581723 0.255745
vn -0.677033 0.700558 0.225488
vn -0.680270 0.700558 -0.215526
vn -0.713577 0.700558 0.005238
vn -0.569007 0.802583 -0.179144
vn -0.569007 0.802583 -0.179144
vn -0.713577 0.700558 0.005238
vn -0.596517 0.802582 0.005454
vn -0.485798 0.802582 -0.346211
vn -0.569007 0.802583 -0.179144
vn -0.379175 0.885332 -0.269097
vn -0.379175 0.885332 -0.269097
vn -0.569007 0.802583 -0.179144
vn -0.443772 0.885332 -0.138755
vn -0.277462 0.885333 -0.373095
vn -0.379175 0.885332 -0.269097
vn -0.192635 0.946800 -0.257800
vn -0.192635 0.946800 -0.257800
vn -0.379175 0.885332 -0.269097
vn -0.262870 0.946802 -0.185650
vn -0.103544 0.946801 -0.304708
vn -0.192635 0.946800 -0.257800
vn -0.055497 0.985443 -0.160695
vn -0.055497 0.985443 -0.160695
vn -0.192635 0.946800 -0.257800
vn -0.102439 0.985443 -0.135678
vn -0.481831 0.581723 0.655314
vn -0.423666 0.700557 0.574218
vn -0.658160 0.581522 0.478181
vn -0.658160 0.581522 0.478181
vn -0.423666 0.700557 0.574218
vn -0.577388 0.700462 0.419496
vn -0.225488 0.700557 0.677034
vn -0.189521 0.802582 0.565636
vn -0.423666 0.700557 0.574218
vn -0.423666 0.700557 0.574218
vn -0.189521 0.802582 0.565636
vn -0.355036 0.802583 0.479384
vn -0.005454 0.802581 0.596518
vn -0.005171 0.885332 0.464930
vn -0.189521 0.802582 0.565636
vn -0.189521 0.802582 0.565636
vn -0.005171 0.885332 0.464930
vn -0.148589 0.885333 0.440575
vn 0.138754 0.885332 0.443774
vn 0.095333 0.946801 0.307374
vn -0.005171 0.885332 0.464930
vn -0.005171 0.885332 0.464930
vn 0.095333 0.946801 0.307374
vn -0.004317 0.946802 0.321788
vn 0.185650 0.946802 0.262870
vn 0.097386 0.985442 0.139356
vn 0.095333 0.946801 0.307374
vn 0.095333 0.946801 0.307374
vn 0.097386 0.985442 0.139356
vn 0.049557 0.985443 0.162626
vn -0.772135 0.581723 0.255745
vn -0.658160 0.581522 0.478181
vn -0.677033 0.700558 0.225488
vn -0.677033 0.700558 0.225488
vn -0.658160 0.581522 0.478181
vn -0.577388 0.700462 0.419496
vn -0.713577 0.700558 0.005238
vn -0.677033 0.700558 0.225488
vn -0.596517 0.802582 0.005454
vn -0.596517 0.802582 0.005454
vn -0.677033 0.700558 0.225488
vn -0.565635 0.802582 0.189521
vn -0.569007 0.802583 -0.179144
vn -0.596517 0.802582 0.005454
vn -0.443772 0.885332 -0.138755
vn -0.443772 0.885332 -0.138755
vn -0.596517 0.802582 0.005454
vn -0.464929 0.885333 0.005167
vn -0.379175 0.885332 -0.269097
vn -0.443772 0.885332 -0.138755
vn -0.262870 0.946802 -0.185650
vn -0.262870 0.946802 -0.185650
vn -0.443772 0.885332 -0.138755
vn -0.307374 0.946802 -0.095329
vn -0.192635 0.946800 -0.257800
vn -0.262870 0.946802 -0.185650
vn -0.102439 0.985443 -0.135678
vn -0.102439 0.985443 -0.135678
vn -0.262870 0.946802 -0.185650
vn -0.139353 0.985442 -0.097387
vn -0.423666 0.700557 0.574218
vn -0.355036 0.802583 0.479384
vn -0.577388 0.700462 0.419496
vn -0.577388 0.700462 0.419496
vn -0.355036 0.802583 0.479384
vn -0.482546 0.802643 0.350590
vn -0.189521 0.802582 0.565636
vn -0.148589 0.885333 0.440575
vn -0.355036 0.802583 0.479384
vn -0.355036 0.802583 0.479384
vn -0.148589 0.885333 0.440575
vn -0.277462 0.885333 0.373096
vn -0.005171 0.885332 0.464930
vn -0.004317 0.946802 0.321788
vn -0.148589 0.885333 0.440575
vn -0.148589 0.885333 0.440575
vn -0.004317 0.946802 0.321788
vn -0.103544 0.946800 0.304710
vn 0.095333 0.946801 0.307374
vn 0.049557 0.985443 0.162626
vn -0.004317 0.946802 0.321788
vn -0.004317 0.946802 0.321788
vn 0.049557 0.985443 0.162626
vn -0.003123 0.985443 0.169980
vn -0.677033 0.700558 0.225488
vn -0.577388 0.700462 0.419496
vn -0.565635 0.802582 0.189521
vn -0.565635 0.802582 0.189521
vn -0.577388 0.700462 0.419496
vn -0.482546 0.802643 0.350590
vn -0.596517 0.802582 0.005454
vn -0.565635 0.802582 0.189521
vn -0.464929 0.885333 0.005167
vn -0.464929 0.885333 0.005167
vn -0.565635 0.802582 0.189521
vn -0.440576 0.885333 0.148588
vn -0.443772 0.885332 -0.138755
vn -0.464929 0.885333 0.005167
vn -0.307374 0.946802 -0.095329
vn -0.307374 0.946802 -0.095329
vn -0.464929 0.885333 0.005167
vn -0.321789 0.946802 0.004317
vn -0.262870 0.946802 -0.185650
vn -0.307374 0.946802 -0.095329
vn -0.139353 0.985442 -0.097387
vn -0.139353 0.985442 -0.097387
vn -0.307374 0.946802 -0.095329
vn -0.162626 0.985442 -0.049561
vn -0.355036 0.802583 0.479384
vn -0.277462 0.885333 0.373096
vn -0.482546 0.802643 0.350590
vn -0.482546 0.802643 0.350590
vn -0.277462 0.885333 0.373096
vn -0.375706 0.885627 0.272966
vn -0.148589 0.885333 0.440575
vn -0.103544 0.946800 0.304710
vn -0.277462 0.885333 0.373096
vn -0.277462 0.885333 0.373096
vn -0.103544 0.946800 0.304710
vn -0.192635 0.946801 0.257798
vn -0.004317 0.946802 0.321788
vn -0.003123 0.985443 0.169980
vn -0.103544 0.946800 0.304710
vn -0.103544 0.946800 0.304710
vn -0.003123 0.985443 0.169980
vn -0.055497 0.985442 0.160698
vn -0.565635 0.802582 0.189521
vn -0.482546 0.802643 0.350590
vn -0.440576 0.885333 0.148588
vn -0.440576 0.885333 0.148588
vn -0.482546 0.802643 0.350590
vn -0.375706 0.885627 0.272966
vn -0.464929 0.885333 0.005167
vn -0.440576 0.885333 0.148588
vn -0.321789 0.946802 0.004317
vn -0.321789 0.946802 0.004317
vn -0.440576 0.885333 0.148588
vn -0.304706 0.946802 0.103541
vn -0.307374 0.946802 -0.095329
vn -0.321789 0.946802 0.004317
vn -0.162626 0.985442 -0.049561
vn -0.162626 0.985442 -0.049561
vn -0.321789 0.946802 0.004317
vn -0.169981 0.985442 0.003123
vn -0.277462 0.885333 0.373096
vn -0.192635 0.946801 0.257798
vn -0.375706 0.885627 0.272966
vn -0.375706 0.885627 0.272966
vn -0.192635 0.946801 0.257798
vn -0.258867 0.947425 0.188078
vn -0.103544 0.946800 0.304710
vn -0.055497 0.985442 0.160698
vn -0.192635 0.946801 0.257798
vn -0.192635 0.946801 0.257798
vn -0.055497 0.985442 0.160698
vn -0.102439 0.985443 0.135681
vn -0.440576 0.885333 0.148588
vn -0.375706 0.885627 0.272966
vn -0.304706 0.946802 0.103541
vn -0.304706 0.946802 0.103541
vn -0.375706 0.885627 0.272966
vn -0.258867 0.947425 0.188078
vn -0.321789 0.946802 0.004317
vn -0.304706 0.946802 0.103541
vn -0.169981 0.985442 0.003123
vn -0.169981 0.985442 0.003123
vn -0.304706 0.946802 0.103541
vn -0.160696 0.985443 0.055492
vn -0.192635 0.946801 0.257798
vn -0.102439 0.985443 0.135681
vn -0.258867 0.947425 0.188078
vn -0.258867 0.947425 0.188078
vn -0.102439 0.985443 0.135681
vn -0.132753 0.986445 0.096453
vn -0.304706 0.946802 0.103541
vn -0.258867 0.947425 0.188078
vn -0.160696 0.985443 0.055492
vn -0.160696 0.985443 0.055492
vn -0.258867 0.947425 0.188078
vn -0.132753 0.986445 0.096453
vn 0.141538 0.984577 -0.102831
vn 0.000000 1.000000 0.000000
vn 0.162626 0.985442 -0.049560
vn 0.141538 0.984577 -0.102831
vn 0.097386 0.985443 -0.139350
vn 0.000000 1.000000 0.000000
vn 0.162626 0.985442 -0.049560
vn 0.000000 1.000000 0.000000
vn 0.169981 0.985442 0.003125
vn 0.097386 0.985443 -0.139350
vn 0.049557 0.985443 -0.162624
vn 0.000000 1.000000 0.000000
vn 0.169981 0.985442 0.003125
vn 0.000000 1.000000 0.000000
vn 0.160696 0.985442 0.055498
vn 0.000000 1.000000 0.000000
vn 0.049557 0.985443 -0.162624
vn -0.003123 0.985443 -0.169980
vn 0.000000 1.000000 0.000000
vn 0.135682 0.985443 0.102438
vn 0.160696 0.985442 0.055498
vn 0.000000 1.000000 0.000000
vn -0.003123 0.985443 -0.169980
vn -0.055497 0.985443 -0.160695
vn 0.000000 1.000000 0.000000
vn 0.097386 0.985442 0.139356
vn 0.135682 0.985443 0.102438
vn 0.000000 1.000000 0.000000
vn -0.055497 0.985443 -0.160695
vn -0.102439 0.985443 -0.135678
vn 0.000000 1.000000 0.000000
vn 0.049557 0.985443 0.162626
vn 0.097386 0.985442 0.139356
vn 0.000000 1.000000 0.000000
vn -0.102439 0.985443 -0.135678
vn -0.139353 0.985442 -0.097387
vn 0.000000 1.000000 0.000000
vn -0.003123 0.985443 0.169980
vn 0.049557 0.985443 0.162626
vn 0.000000 1.000000 0.000000
vn -0.139353 0.985442 -0.097387
vn -0.162626 0.985442 -0.049561
vn 0.000000 1.000000 0.000000
vn -0.055497 0.985442 0.160698
vn -0.003123 0.985443 0.169980
vn 0.000000 1.000000 0.000000
vn -0.162626 0.985442 -0.049561
vn -0.169981 0.985442 0.003123
vn 0.000000 1.000000 0.000000
vn -0.102439 0.985443 0.135681
vn -0.055497 0.985442 0.160698
vn 0.000000 1.000000 0.000000
vn -0.169981 0.985442 0.003123
vn -0.160696 0.985443 0.055492
vn 0.000000 1.000000 0.000000
vn -0.132753 0.986445 0.096453
vn -0.102439 0.985443 0.135681
vn 0.000000 1.000000 0.000000
vn -0.160696 0.985443 0.055492
vn -0.132753 0.986445 0.096453
s off
g polySurface1 PC:group_pasted__group2_pasted__pasted__group_pasted__pasted__pasted__pCube1
usemtl phong1SG
f 1/1/1 2/2/2 183/3/3
f 183/3/4 2/2/5 182/4/6
f 1/1/7 183/3/8 3/5/9
f 3/5/10 183/3/11 201/6/12
f 1/1/13 4/7/14 2/2/15
f 2/2/16 4/7/17 5/8/18
f 2/2/19 6/9/20 182/4/21
f 182/4/22 6/9/23 184/10/24
f 3/5/25 201/6/26 7/11/27
f 7/11/28 201/6/29 200/12/30
f 1/1/31 3/5/32 4/7/33
f 4/7/34 3/5/35 8/13/36
f 2/2/37 5/8/38 6/9/39
f 6/9/40 5/8/41 9/14/42
f 4/7/43 10/15/44 5/8/45
f 5/8/46 10/15/47 11/16/48
f 6/9/49 12/17/50 184/10/51
f 184/10/52 12/17/53 185/18/54
f 7/11/55 200/12/56 13/19/57
f 13/19/58 200/12/59 199/20/60
f 3/5/61 7/11/62 8/13/63
f 8/13/64 7/11/65 14/21/66
f 4/7/67 8/13/68 10/15/69
f 10/15/70 8/13/71 15/22/72
f 6/9/73 9/14/74 12/17/75
f 12/17/76 9/14/77 16/23/78
f 5/8/79 11/16/80 9/14/81
f 9/14/82 11/16/83 17/24/84
f 10/15/85 18/25/86 11/16/87
f 11/16/88 18/25/89 19/26/90
f 12/17/91 20/27/92 185/18/93
f 185/18/94 20/27/95 186/28/96
f 199/20/97 198/29/98 13/19/99
f 13/19/100 198/29/101 21/30/102
f 7/11/103 13/19/104 14/21/105
f 14/21/106 13/19/107 22/31/108
f 8/13/109 14/21/110 15/22/111
f 15/22/112 14/21/113 23/32/114
f 10/15/115 15/22/116 18/25/117
f 18/25/118 15/22/119 24/33/120
f 12/17/121 16/23/122 20/27/123
f 20/27/124 16/23/125 25/34/126
f 9/14/127 17/24/128 16/23/129
f 16/23/130 17/24/131 26/35/132
f 11/16/133 19/26/134 17/24/135
f 17/24/136 19/26/137 27/36/138
f 18/25/139 28/37/140 19/26/141
f 19/26/142 28/37/143 29/38/144
f 20/27/145 30/39/146 186/28/147
f 186/28/148 30/39/149 187/40/150
f 198/29/151 197/41/152 21/30/153
f 21/30/154 197/41/155 31/42/156
f 13/19/157 21/30/158 22/31/159
f 22/31/160 21/30/161 32/43/162
f 14/21/163 22/31/164 23/32/165
f 23/32/166 22/31/167 33/44/168
f 15/22/169 23/32/170 24/33/171
f 24/33/172 23/32/173 34/45/174
f 18/25/175 24/33/176 28/37/177
f 28/37/178 24/33/179 35/46/180
f 20/27/181 25/34/182 30/39/183
f 30/39/184 25/34/185 36/47/186
f 16/23/187 26/35/188 25/34/189
f 25/34/190 26/35/191 37/48/192
f 17/24/193 27/36/194 26/35/195
f 26/35/196 27/36/197 38/49/198
f 19/26/199 29/38/200 27/36/201
f 27/36/202 29/38/203 39/50/204
f 28/37/205 40/51/206 29/38/207
f 29/38/208 40/51/209 41/52/210
f 30/39/211 42/53/212 187/40/213
f 187/40/214 42/53/215 188/54/216
f 197/41/217 196/55/218 31/42/219
f 31/42/220 196/55/221 43/56/222
f 21/30/223 31/42/224 32/43/225
f 32/43/226 31/42/227 44/57/228
f 22/31/229 32/43/230 33/44/231
f 33/44/232 32/43/233 45/58/234
f 23/32/235 33/44/236 34/45/237
f 34/45/238 33/44/239 46/59/240
f 24/33/241 34/45/242 35/46/243
f 35/46/244 34/45/245 47/60/246
f 28/37/247 35/46/248 40/51/249
f 40/51/250 35/46/251 48/61/252
f 30/39/253 36/47/254 42/53/255
f 42/53/256 36/47/257 49/62/258
f 25/34/259 37/48/260 36/47/261
f 36/47/262 37/48/263 50/63/264
f 26/35/265 38/49/266 37/48/267
f 37/48/268 38/49/269 51/64/270
f 27/36/271 39/50/272 38/49/273
f 38/49/274 39/50/275 52/65/276
f 29/38/277 41/52/278 39/50/279
f 39/50/280 41/52/281 53/66/282
f 40/51/283 54/67/284 41/52/285
f 41/52/286 54/67/287 55/68/288
f 42/53/289 56/69/290 188/54/291
f 188/54/292 56/69/293 189/70/294
f 196/55/295 195/71/296 43/56/297
f 43/56/298 195/71/299 57/72/300
f 31/42/301 43/56/302 44/57/303
f 44/57/304 43/56/305 58/73/306
f 32/43/307 44/57/308 45/58/309
f 45/58/310 44/57/311 59/74/312
f 33/44/313 45/58/314 46/59/315
f 46/59/316 45/58/317 60/75/318
f 34/45/319 46/59/320 47/60/321
f 47/60/322 46/59/323 61/76/324
f 35/46/325 47/60/326 48/61/327
f 48/61/328 47/60/329 62/77/330
f 40/51/331 48/61/332 54/67/333
f 54/67/334 48/61/335 63/78/336
f 42/53/337 49/62/338 56/69/339
f 56/69/340 49/62/341 64/79/342
f 36/47/343 50/63/344 49/62/345
f 49/62/346 50/63/347 65/80/348
f 37/48/349 51/64/350 50/63/351
f 50/63/352 51/64/353 66/81/354
f 38/49/355 52/65/356 51/64/357
f 51/64/358 52/65/359 67/82/360
f 39/50/361 53/66/362 52/65/363
f 52/65/364 53/66/365 68/83/366
f 41/52/367 55/68/368 53/66/369
f 53/66/370 55/68/371 69/84/372
f 54/67/373 70/85/374 55/68/375
f 55/68/376 70/85/377 71/86/378
f 189/70/379 56/69/380 190/87/381
f 190/87/382 56/69/383 72/88/384
f 195/71/385 194/89/386 57/72/387
f 57/72/388 194/89/389 73/90/390
f 43/56/391 57/72/392 58/73/393
f 58/73/394 57/72/395 74/91/396
f 44/57/397 58/73/398 59/74/399
f 59/74/400 58/73/401 75/92/402
f 45/58/403 59/74/404 60/75/405
f 60/75/406 59/74/407 76/93/408
f 46/59/409 60/75/410 61/76/411
f 61/76/412 60/75/413 77/94/414
f 47/60/415 61/76/416 62/77/417
f 62/77/418 61/76/419 78/95/420
f 48/61/421 62/77/422 63/78/423
f 63/78/424 62/77/425 79/96/426
f 54/67/427 63/78/428 70/85/429
f 70/85/430 63/78/431 80/97/432
f 56/69/433 64/79/434 72/88/435
f 72/88/436 64/79/437 81/98/438
f 49/62/439 65/80/440 64/79/441
f 64/79/442 65/80/443 82/99/444
f 50/63/445 66/81/446 65/80/447
f 65/80/448 66/81/449 83/100/450
f 51/64/451 67/82/452 66/81/453
f 66/81/454 67/82/455 84/101/456
f 52/65/457 68/83/458 67/82/459
f 67/82/460 68/83/461 85/102/462
f 53/66/463 69/84/464 68/83/465
f 68/83/466 69/84/467 86/103/468
f 55/68/469 71/86/470 69/84/471
f 69/84/472 71/86/473 87/104/474
f 70/85/475 88/105/476 71/86/477
f 71/86/478 88/105/479 89/106/480
f 190/87/481 72/88/482 191/107/483
f 191/107/484 72/88/485 90/108/486
f 194/89/487 193/109/488 73/90/489
f 73/90/490 193/109/491 91/110/492
f 57/72/493 73/90/494 74/91/495
f 74/91/496 73/90/497 92/111/498
f 58/73/499 74/91/500 75/92/501
f 75/92/502 74/91/503 93/112/504
f 59/74/505 75/92/506 76/93/507
f 76/93/508 75/92/509 94/113/510
f 60/75/511 76/93/512 77/94/513
f 77/94/514 76/93/515 95/114/516
f 61/76/517 77/94/518 78/95/519
f 78/95/520 77/94/521 96/115/522
f 62/77/523 78/95/524 79/96/525
f 79/96/526 78/95/527 97/116/528
f 63/78/529 79/96/530 80/97/531
f 80/97/532 79/96/533 98/117/534
f 70/85/535 80/97/536 88/105/537
f 88/105/538 80/97/539 99/118/540
f 72/88/541 81/98/542 90/108/543
f 90/108/544 81/98/545 100/119/546
f 64/79/547 82/99/548 81/98/549
f 81/98/550 82/99/551 101/120/552
f 65/80/553 83/100/554 82/99/555
f 82/99/556 83/100/557 102/121/558
f 66/81/559 84/101/560 83/100/561
f 83/100/562 84/101/563 103/122/564
f 67/82/565 85/102/566 84/101/567
f 84/101/568 85/102/569 104/123/570
f 68/83/571 86/103/572 85/102/573
f 85/102/574 86/103/575 105/124/576
f 69/84/577 87/104/578 86/103/579
f 86/103/580 87/104/581 106/125/582
f 71/86/583 89/106/584 87/104/585
f 87/104/586 89/106/587 107/126/588
f 191/107/589 90/108/590 192/127/591
f 192/127/592 90/108/593 109/128/594
f 193/109/595 192/127/596 91/110/597
f 91/110/598 192/127/599 109/128/600
f 73/90/601 91/110/602 92/111/603
f 92/111/604 91/110/605 110/129/606
f 74/91/607 92/111/608 93/112/609
f 93/112/610 92/111/611 111/130/612
f 75/92/613 93/112/614 94/113/615
f 94/113/616 93/112/617 112/131/618
f 76/93/619 94/113/620 95/114/621
f 95/114/622 94/113/623 113/132/624
f 77/94/625 95/114/626 96/115/627
f 96/115/628 95/114/629 114/133/630
f 78/95/631 96/115/632 97/116/633
f 97/116/634 96/115/635 115/134/636
f 79/96/637 97/116/638 98/117/639
f 98/117/640 97/116/641 116/135/642
f 80/97/643 98/117/644 99/118/645
f 99/118/646 98/117/647 117/136/648
f 90/108/649 100/119/650 109/128/651
f 109/128/652 100/119/653 118/137/654
f 81/98/655 101/120/656 100/119/657
f 100/119/658 101/120/659 119/138/660
f 82/99/661 102/121/662 101/120/663
f 101/120/664 102/121/665 120/139/666
f 83/100/667 103/122/668 102/121/669
f 102/121/670 103/122/671 121/140/672
f 84/101/673 104/123/674 103/122/675
f 103/122/676 104/123/677 122/141/678
f 85/102/679 105/124/680 104/123/681
f 104/123/682 105/124/683 123/142/684
f 86/103/685 106/125/686 105/124/687
f 105/124/688 106/125/689 124/143/690
f 87/104/691 107/126/692 106/125/693
f 106/125/694 107/126/695 125/144/696
f 91/110/697 109/128/698 110/129/699
f 110/129/700 109/128/701 118/137/702
f 92/111/703 110/129/704 111/130/705
f 111/130/706 110/129/707 126/145/708
f 93/112/709 111/130/710 112/131/711
f 112/131/712 111/130/713 127/146/714
f 94/113/715 112/131/716 113/132/717
f 113/132/718 112/131/719 128/147/720
f 95/114/721 113/132/722 114/133/723
f 114/133/724 113/132/725 129/148/726
f 96/115/727 114/133/728 115/134/729
f 115/134/730 114/133/731 130/149/732
f 97/116/733 115/134/734 116/135/735
f 116/135/736 115/134/737 131/150/738
f 98/117/739 116/135/740 117/136/741
f 117/136/742 116/135/743 132/151/744
f 100/119/745 119/138/746 118/137/747
f 118/137/748 119/138/749 133/152/750
f 101/120/751 120/139/752 119/138/753
f 119/138/754 120/139/755 134/153/756
f 102/121/757 121/140/758 120/139/759
f 120/139/760 121/140/761 135/154/762
f 103/122/763 122/141/764 121/140/765
f 121/140/766 122/141/767 136/155/768
f 104/123/769 123/142/770 122/141/771
f 122/141/772 123/142/773 137/156/774
f 105/124/775 124/143/776 123/142/777
f 123/142/778 124/143/779 138/157/780
f 106/125/781 125/144/782 124/143/783
f 124/143/784 125/144/785 139/158/786
f 110/129/787 118/137/788 126/145/789
f 126/145/790 118/137/791 133/152/792
f 111/130/793 126/145/794 127/146/795
f 127/146/796 126/145/797 140/159/798
f 112/131/799 127/146/800 128/147/801
f 128/147/802 127/146/803 141/160/804
f 113/132/805 128/147/806 129/148/807
f 129/148/808 128/147/809 142/161/810
f 114/133/811 129/148/812 130/149/813
f 130/149/814 129/148/815 143/162/816
f 115/134/817 130/149/818 131/150/819
f 131/150/820 130/149/821 144/163/822
f 116/135/823 131/150/824 132/151/825
f 132/151/826 131/150/827 145/164/828
f 119/138/829 134/153/830 133/152/831
f 133/152/832 134/153/833 146/165/834
f 120/139/835 135/154/836 134/153/837
f 134/153/838 135/154/839 147/166/840
f 121/140/841 136/155/842 135/154/843
f 135/154/844 136/155/845 148/167/846
f 122/141/847 137/156/848 136/155/849
f 136/155/850 137/156/851 149/168/852
f 123/142/853 138/157/854 137/156/855
f 137/156/856 138/157/857 150/169/858
f 124/143/859 139/158/860 138/157/861
f 138/157/862 139/158/863 151/170/864
f 126/145/865 133/152/866 140/159/867
f 140/159/868 133/152/869 146/165/870
f 127/146/871 140/159/872 141/160/873
f 141/160/874 140/159/875 152/171/876
f 128/147/877 141/160/878 142/161/879
f 142/161/880 141/160/881 153/172/882
f 129/148/883 142/161/884 143/162/885
f 143/162/886 142/161/887 154/173/888
f 130/149/889 143/162/890 144/163/891
f 144/163/892 143/162/893 155/174/894
f 131/150/895 144/163/896 145/164/897
f 145/164/898 144/163/899 156/175/900
f 134/153/901 147/166/902 146/165/903
f 146/165/904 147/166/905 157/176/906
f 135/154/907 148/167/908 147/166/909
f 147/166/910 148/167/911 158/177/912
f 136/155/913 149/168/914 148/167/915
f 148/167/916 149/168/917 159/178/918
f 137/156/919 150/169/920 149/168/921
f 149/168/922 150/169/923 160/179/924
f 138/157/925 151/170/926 150/169/927
f 150/169/928 151/170/929 161/180/930
f 140/159/931 146/165/932 152/171/933
f 152/171/934 146/165/935 157/176/936
f 141/160/937 152/171/938 153/172/939
f 153/172/940 152/171/941 162/181/942
f 142/161/943 153/172/944 154/173/945
f 154/173/946 153/172/947 163/182/948
f 143/162/949 154/173/950 155/174/951
f 155/174/952 154/173/953 164/183/954
f 144/163/955 155/174/956 156/175/957
f 156/175/958 155/174/959 165/184/960
f 147/166/961 158/177/962 157/176/963
f 157/176/964 158/177/965 166/185/966
f 148/167/967 159/178/968 158/177/969
f 158/177/970 159/178/971 167/186/972
f 149/168/973 160/179/974 159/178/975
f 159/178/976 160/179/977 168/187/978
f 150/169/979 161/180/980 160/179/981
f 160/179/982 161/180/983 169/188/984
f 152/171/985 157/176/986 162/181/987
f 162/181/988 157/176/989 166/185/990
f 153/172/991 162/181/992 163/182/993
f 163/182/994 162/181/995 170/189/996
f 154/173/997 163/182/998 164/183/999
f 164/183/1000 163/182/1001 171/190/1002
f 155/174/1003 164/183/1004 165/184/1005
f 165/184/1006 164/183/1007 172/191/1008
f 158/177/1009 167/186/1010 166/185/1011
f 166/185/1012 167/186/1013 173/192/1014
f 159/178/1015 168/187/1016 167/186/1017
f 167/186/1018 168/187/1019 174/193/1020
f 160/179/1021 169/188/1022 168/187/1023
f 168/187/1024 169/188/1025 175/194/1026
f 162/181/1027 166/185/1028 170/189/1029
f 170/189/1030 166/185/1031 173/192/1032
f 163/182/1033 170/189/1034 171/190/1035
f 171/190/1036 170/189/1037 176/195/1038
f 164/183/1039 171/190/1040 172/191/1041
f 172/191/1042 171/190/1043 177/196/1044
f 167/186/1045 174/193/1046 173/192/1047
f 173/192/1048 174/193/1049 178/197/1050
f 168/187/1051 175/194/1052 174/193/1053
f 174/193/1054 175/194/1055 179/198/1056
f 170/189/1057 173/192/1058 176/195/1059
f 176/195/1060 173/192/1061 178/197/1062
f 171/190/1063 176/195/1064 177/196/1065
f 177/196/1066 176/195/1067 180/199/1068
f 174/193/1069 179/198/1070 178/197/1071
f 178/197/1072 179/198/1073 181/200/1074
f 176/195/1075 178/197/1076 180/199/1077
f 180/199/1078 178/197/1079 181/200/1080
f 88/105/1081 108/201/1082 89/106/1083
f 88/105/1084 99/118/1085 108/201/1086
f 89/106/1087 108/201/1088 107/126/1089
f 99/118/1090 117/136/1091 108/201/1092
f 107/126/1093 108/201/1094 125/144/1095
f 108/201/1096 117/136/1097 132/151/1098
f 108/201/1099 139/158/1100 125/144/1101
f 108/201/1102 132/151/1103 145/164/1104
f 108/201/1105 151/170/1106 139/158/1107
f 108/201/1108 145/164/1109 156/175/1110
f 108/201/1111 161/180/1112 151/170/1113
f 108/201/1114 156/175/1115 165/184/1116
f 108/201/1117 169/188/1118 161/180/1119
f 108/201/1120 165/184/1121 172/191/1122
f 108/201/1123 175/194/1124 169/188/1125
f 108/201/1126 172/191/1127 177/196/1128
f 108/201/1129 179/198/1130 175/194/1131
f 108/201/1132 177/196/1133 180/199/1134
f 108/201/1135 181/200/1136 179/198/1137
f 108/201/1138 180/199/1139 181/200/1140
