# This file uses centimeters as units for non-parametric coordinates.

mtllib Letrero.mtl
g default
v 1.062614 2.113946 -3.258032
v 2.430272 2.113946 -3.258032
v 1.062614 2.826046 -3.258032
v 2.430272 2.826046 -3.258032
v 1.062614 2.114201 -3.877097
v 2.430272 2.084884 -3.877097
v 1.062614 2.113946 -3.877097
v 2.430272 2.113946 -3.877097
vt 0.375000 0.000000
vt 0.625000 0.000000
vt 0.375000 0.250000
vt 0.625000 0.250000
vt 0.375000 0.500000
vt 0.625000 0.500000
vt 0.375000 0.750000
vt 0.625000 0.750000
vt 0.375000 1.000000
vt 0.625000 1.000000
vt 0.875000 0.000000
vt 0.875000 0.250000
vt 0.125000 0.000000
vt 0.125000 0.250000
vt 0.000000 0.000000
vt 1.000000 0.000000
vt 1.000000 1.000000
vt 0.000000 1.000000
vn 0.000000 0.000000 1.000000
vn 0.000000 0.000000 1.000000
vn 0.000000 0.000000 1.000000
vn 0.000000 0.000000 1.000000
vn 1.000000 0.000000 0.000000
vn 0.020907 0.655944 -0.754520
vn 0.000177 0.656168 -0.754614
vn 0.000122 0.655953 -0.754801
vn 0.000434 0.655746 -0.754981
vn 0.000000 0.656221 -0.754569
vn 0.000000 -1.000000 0.000000
vn 0.000000 -1.000000 0.000000
vn 0.000000 -1.000000 0.000000
vn 0.000000 -1.000000 0.000000
vn 1.000000 0.000000 0.000000
vn 1.000000 0.000000 0.000000
vn 1.000000 0.000000 0.000000
vn -1.000000 0.000000 0.000000
vn -1.000000 0.000000 0.000000
vn -1.000000 0.000000 0.000000
vn -1.000000 0.000000 0.000000
vn -1.000000 0.000000 0.000000
s 1
g pCube1
usemtl lambert5SG
f 1/15/1 2/16/2 3/18/3
f 3/18/3 2/16/2 4/17/4
s 2
usemtl lambert4SG
f 6/6/5 8/8/6 4/4/7
f 8/8/6 7/7/8 4/4/7
f 7/7/8 5/5/9 4/4/7
f 5/5/9 3/3/10 4/4/7
s 3
f 7/7/11 8/8/12 1/9/13
f 1/9/13 8/8/12 2/10/14
s 4
f 4/4/15 2/2/16 6/12/17
f 2/2/16 8/11/18 6/12/17
s 5
f 7/13/19 1/1/20 5/14/21
f 1/1/20 3/3/22 5/14/21
