# This file uses centimeters as units for non-parametric coordinates.

mtllib Mapa2.mtl
g default
v 4.544921 4.082917 -6.885611
v 4.544921 6.150950 -6.885611
v 4.544921 6.150950 -7.000000
v 1.264859 6.150950 -6.885611
v 1.264859 6.150950 -7.000000
v 1.264859 4.082917 -6.885611
vt 0.998268 1.001819
vt 0.998065 1.001928
vt -0.001927 0.998066
vt -0.001725 0.997749
vt 0.001935 -0.001008
vt 1.001927 0.003063
vn 0.000000 1.000000 0.000000
vn 0.000000 1.000000 0.000000
vn 0.000000 1.000000 0.000000
vn 0.000000 1.000000 0.000000
vn 0.000000 0.000000 1.000000
vn 0.000000 0.000000 1.000000
vn 0.000000 0.000000 1.000000
vn 0.000000 0.000000 1.000000
s 1
g Mapa:polySurface21PC_Scene
usemtl Mapa:lambert3SG
f 2/1/1 3/2/2 4/4/3
f 4/4/3 3/2/2 5/3/4
s 2
f 6/5/5 1/6/6 4/4/7
f 4/4/7 1/6/6 2/1/8
g default
v 4.544921 4.082917 -6.885611
v 4.544921 6.150950 -6.885611
v 4.544921 6.150950 -7.000000
v 1.264859 6.150950 -6.885611
v 1.264859 6.150950 -7.000000
v 1.264859 4.082917 -6.885611
vt 0.998268 1.001819
vt 0.998065 1.001928
vt -0.001927 0.998066
vt -0.001725 0.997749
vt 0.001935 -0.001008
vt 1.001927 0.003063
vn 0.000000 1.000000 0.000000
vn 0.000000 1.000000 0.000000
vn 0.000000 1.000000 0.000000
vn 0.000000 1.000000 0.000000
vn 0.000000 0.000000 1.000000
vn 0.000000 0.000000 1.000000
vn 0.000000 0.000000 1.000000
vn 0.000000 0.000000 1.000000
s 1
g Mapa:polySurface21PC_Scene
f 8/7/9 9/8/10 10/10/11
f 10/10/11 9/8/10 11/9/12
s 2
f 12/11/13 7/12/14 10/10/15
f 10/10/15 7/12/14 8/7/16
