# This file uses centimeters as units for non-parametric coordinates.

mtllib Mapa.mtl
g default
v 4.544921 4.082917 -6.885611
v 4.544921 6.150950 -6.885611
v 4.544921 6.150950 -7.000000
v 1.264859 6.150950 -6.885611
v 1.264859 6.150950 -7.000000
v 1.264859 4.082917 -6.885611
vt 0.998268 1.001819
vt 0.998065 1.001928
vt -0.001927 0.998066
vt -0.001725 0.997749
vt 0.001935 -0.001008
vt 1.001927 0.003063
vn 0.000000 1.000000 0.000000
vn 0.000000 1.000000 0.000000
vn 0.000000 1.000000 0.000000
vn 0.000000 1.000000 0.000000
vn 0.000000 0.000000 1.000000
vn 0.000000 0.000000 1.000000
vn 0.000000 0.000000 1.000000
vn 0.000000 0.000000 1.000000
s off
g polySurface21 PC_Scene
usemtl lambert3SG
f 2/1/1 3/2/2 5/3/3 4/4/4
f 6/5/5 1/6/6 2/1/7 4/4/8
