# This file uses centimeters as units for non-parametric coordinates.

mtllib PCSF2.mtl
g default
v -1.751927 4.014998 1.314789
v 1.751927 4.014998 1.314789
v -1.751927 6.450142 1.314789
v 1.751927 6.450142 1.314789
v -1.751927 6.450142 -0.127631
v 1.751927 6.450142 -0.127631
v -1.751927 4.014998 -0.127631
v 1.751927 4.014998 -0.127631
v 0.947126 6.814076 -0.307740
v 0.805674 6.814076 -0.585356
v 0.585356 6.814076 -0.805673
v 0.995867 6.814076 0.000000
v 0.307740 6.814076 -0.947126
v 0.947125 6.814076 0.307740
v 0.000000 6.814076 -0.995867
v 0.805673 6.814076 0.585356
v -0.307740 6.814076 -0.947126
v 0.585356 6.814076 0.805673
v -0.585356 6.814076 -0.805673
v 0.307740 6.814076 0.947125
v -0.805673 6.814076 -0.585356
v 0.000000 6.814076 0.995867
v -0.947126 6.814076 -0.307740
v -0.307740 6.814076 0.947126
v -0.995867 6.814076 0.000000
v -0.585356 6.814076 0.805673
v -0.947126 6.814076 0.307740
v -0.805673 6.814076 0.585356
v -1.904441 3.909003 0.360835
v 1.904441 3.909003 0.360835
v -1.904441 6.556137 0.360835
v 1.904441 6.556137 0.360835
v -1.904441 6.556137 -2.079601
v 1.904441 6.556137 -2.079601
v -1.904441 3.909003 -2.079601
v 1.904441 3.909003 -2.079601
v -2.308324 3.630136 3.933110
v 2.308324 3.630136 3.933110
v -2.308324 3.898747 3.933110
v 2.308324 3.898747 3.933110
v -2.308324 3.898747 1.474373
v 2.308324 3.898747 1.474373
v -2.308324 3.630136 1.474373
v 2.308324 3.630136 1.474373
v -3.195103 -3.906222 3.975412
v 3.195103 -3.906222 3.975412
v -3.195103 3.644383 3.975412
v 3.195103 3.644383 3.975412
v -3.195103 3.644383 -2.028361
v 3.195103 3.644383 -2.028361
v -3.195103 -3.906222 -2.028361
v 3.195103 -3.906222 -2.028361
v -2.306460 3.629604 1.477801
v -1.751927 4.014998 1.477801
v -1.751927 6.450142 1.477801
v 1.751927 6.450142 1.477801
v 1.751927 4.014998 1.477801
v 2.306460 3.629604 1.477801
v 2.306460 6.835536 1.477801
v -2.306460 6.835536 1.477801
v -2.306460 3.629604 -1.477801
v -2.306460 6.835536 -1.477801
v 2.306460 3.629604 -1.477801
v 2.306460 6.835536 -1.477801
v -1.751927 6.450142 -0.255609
v 1.751927 6.450142 -0.255609
v 1.751927 4.014998 -0.255609
v -1.751927 4.014998 -0.255609
v -1.751927 4.014998 1.314789
v 1.751927 4.014998 1.314789
v -1.751927 6.450142 1.314789
v 1.751927 6.450142 1.314789
v -1.751927 6.450142 -0.127631
v 1.751927 6.450142 -0.127631
v -1.751927 4.014998 -0.127631
v 1.751927 4.014998 -0.127631
v 0.947126 6.814076 -0.307740
v 0.805674 6.814076 -0.585356
v 0.585356 6.814076 -0.805673
v 0.995867 6.814076 0.000000
v 0.307740 6.814076 -0.947126
v 0.947125 6.814076 0.307740
v 0.000000 6.814076 -0.995867
v 0.805673 6.814076 0.585356
v -0.307740 6.814076 -0.947126
v 0.585356 6.814076 0.805673
v -0.585356 6.814076 -0.805673
v 0.307740 6.814076 0.947125
v -0.805673 6.814076 -0.585356
v 0.000000 6.814076 0.995867
v -0.947126 6.814076 -0.307740
v -0.307740 6.814076 0.947126
v -0.995867 6.814076 0.000000
v -0.585356 6.814076 0.805673
v -0.947126 6.814076 0.307740
v -0.805673 6.814076 0.585356
v -1.904441 3.909003 0.360835
v 1.904441 3.909003 0.360835
v -1.904441 6.556137 0.360835
v 1.904441 6.556137 0.360835
v -1.904441 6.556137 -2.079601
v 1.904441 6.556137 -2.079601
v -1.904441 3.909003 -2.079601
v 1.904441 3.909003 -2.079601
v -2.308324 3.630136 3.933110
v 2.308324 3.630136 3.933110
v -2.308324 3.898747 3.933110
v 2.308324 3.898747 3.933110
v -2.308324 3.898747 1.474373
v 2.308324 3.898747 1.474373
v -2.308324 3.630136 1.474373
v 2.308324 3.630136 1.474373
v -3.195103 -3.906222 3.975412
v 3.195103 -3.906222 3.975412
v -3.195103 3.644383 3.975412
v 3.195103 3.644383 3.975412
v -3.195103 3.644383 -2.028361
v 3.195103 3.644383 -2.028361
v -3.195103 -3.906222 -2.028361
v 3.195103 -3.906222 -2.028361
v -2.306460 3.629604 1.477801
v -1.751927 4.014998 1.477801
v -1.751927 6.450142 1.477801
v 1.751927 6.450142 1.477801
v 1.751927 4.014998 1.477801
v 2.306460 3.629604 1.477801
v 2.306460 6.835536 1.477801
v -2.306460 6.835536 1.477801
v -2.306460 3.629604 -1.477801
v -2.306460 6.835536 -1.477801
v 2.306460 3.629604 -1.477801
v 2.306460 6.835536 -1.477801
v -1.751927 6.450142 -0.255609
v 1.751927 6.450142 -0.255609
v 1.751927 4.014998 -0.255609
v -1.751927 4.014998 -0.255609
vt 0.375000 0.250000
vt 0.625000 0.250000
vt 0.375000 0.500000
vt 0.625000 0.500000
vt 0.375000 0.750000
vt 0.625000 0.750000
vt 0.375000 1.000000
vt 0.625000 1.000000
vt 0.625000 0.000000
vt 0.875000 0.000000
vt 0.875000 0.250000
vt 0.125000 0.000000
vt 0.375000 0.000000
vt 0.125000 0.250000
vt 0.975528 0.654508
vt 1.000000 0.500000
vt 0.904509 0.793893
vt 0.975528 0.345491
vt 0.904508 0.206107
vt 0.793893 0.095491
vt 0.654508 0.024472
vt 0.500000 -0.000000
vt 0.345492 0.024472
vt 0.206107 0.095491
vt 0.095491 0.206107
vt 0.024472 0.345491
vt -0.000000 0.500000
vt 0.024472 0.654508
vt 0.095491 0.793893
vt 0.206107 0.904508
vt 0.345491 0.975528
vt 0.500000 1.000000
vt 0.654509 0.975528
vt 0.793893 0.904508
vt 0.912849 0.293206
vt 0.912849 1.000000
vt 0.087151 0.293206
vt 0.087151 1.000000
vt 1.000000 0.000000
vt 1.000000 1.000000
vt 0.000000 0.000000
vt -0.000000 1.000000
vt 1.000000 0.000000
vt 1.000000 1.000000
vt 0.000000 0.000000
vt 0.000000 1.000000
vt 1.000000 -0.000000
vt 1.000000 1.000000
vt 0.000000 -0.000000
vt -0.000000 1.000000
vt 0.000000 0.000000
vt 1.000000 0.000000
vt 0.000000 1.000000
vt 1.000000 1.000000
vt 0.912849 0.003049
vt 0.087151 0.003049
vt 0.999999 -0.000000
vt 0.999999 1.000000
vt -0.000001 -0.000000
vt -0.000001 1.000000
vt 0.000000 -0.000000
vt 1.000000 -0.000000
vt 0.000000 1.000000
vt 1.000000 1.000000
vt 0.375000 0.500000
vt 0.625000 0.500000
vt 0.375000 0.750000
vt 0.625000 0.750000
vt 1.000000 -0.000000
vt 1.000000 1.000000
vt 0.000000 -0.000000
vt 0.000000 1.000000
vt 1.000000 0.000000
vt 1.000000 1.000000
vt 0.000000 0.000000
vt 0.000000 1.000000
vt 0.000000 1.000000
vt 0.000000 0.000000
vt 1.000000 1.000000
vt 1.000000 0.000000
vt -0.000000 0.000000
vt -0.000000 0.000000
vt -0.000000 1.000000
vt -0.000000 1.000000
vt 0.000000 1.000000
vt 0.000000 1.000000
vt 1.000000 1.000000
vt 1.000000 1.000000
vt 1.000000 1.000000
vt 1.000000 1.000000
vt 1.000000 0.000000
vt 1.000000 0.000000
vt 1.000000 0.000000
vt 1.000000 0.000000
vt 0.000000 0.000000
vt 0.000000 0.000000
vt 0.000000 0.000000
vt 1.000000 0.000000
vt 0.000000 1.000000
vt 1.000000 1.000000
vt 1.000000 0.000000
vt 0.000000 0.000000
vt 1.000000 1.000000
vt 0.000000 1.000000
vt 1.000000 0.000000
vt 1.000000 1.000000
vt 0.879787 0.120213
vt 0.879787 0.879787
vt 0.000000 0.000000
vt 0.120213 0.120213
vt 0.000000 1.000000
vt 0.120213 0.879787
vt 1.000000 1.000000
vt 1.000000 0.000000
vt -0.000000 1.000000
vt -0.000000 0.000000
vt 0.000000 -0.000000
vt 1.000000 -0.000000
vt -0.000000 1.000000
vt 1.000000 1.000000
vt 0.000000 0.000000
vt 1.000000 0.000000
vt 0.000000 1.000000
vt 1.000000 1.000000
vt -0.000000 0.000000
vt 1.000000 0.000000
vt 0.000000 1.000000
vt 1.000000 1.000000
vt 1.000000 0.000000
vt 0.000000 0.000000
vt 1.000000 0.855995
vt 0.000000 0.855995
vt 0.375000 0.306970
vt 0.375000 0.500000
vt 0.625000 0.306970
vt 0.625000 0.500000
vt 0.681970 0.250000
vt 0.875000 0.250000
vt 0.681970 0.000000
vt 0.875000 0.000000
vt 0.120213 0.248215
vt 0.879787 0.248215
vt 0.120213 0.898407
vt 0.879787 0.898406
vt 0.318030 0.000000
vt 0.125000 0.000000
vt 0.318030 0.250000
vt 0.125000 0.250000
vt 0.375000 0.943030
vt 0.625000 0.943030
vt 0.375000 0.750000
vt 0.625000 0.750000
vt 0.000000 0.000000
vt 1.000000 0.000000
vt 0.000000 1.000000
vt 1.000000 1.000000
vt 0.375000 0.250000
vt 0.625000 0.250000
vt 0.375000 0.500000
vt 0.625000 0.500000
vt 0.375000 0.750000
vt 0.625000 0.750000
vt 0.375000 1.000000
vt 0.625000 1.000000
vt 0.625000 0.000000
vt 0.875000 0.000000
vt 0.875000 0.250000
vt 0.125000 0.000000
vt 0.375000 0.000000
vt 0.125000 0.250000
vt 0.975528 0.654508
vt 1.000000 0.500000
vt 0.904509 0.793893
vt 0.975528 0.345491
vt 0.904508 0.206107
vt 0.793893 0.095491
vt 0.654508 0.024472
vt 0.500000 -0.000000
vt 0.345492 0.024472
vt 0.206107 0.095491
vt 0.095491 0.206107
vt 0.024472 0.345491
vt -0.000000 0.500000
vt 0.024472 0.654508
vt 0.095491 0.793893
vt 0.206107 0.904508
vt 0.345491 0.975528
vt 0.500000 1.000000
vt 0.654509 0.975528
vt 0.793893 0.904508
vt 0.912849 0.293206
vt 0.912849 1.000000
vt 0.087151 0.293206
vt 0.087151 1.000000
vt 1.000000 0.000000
vt 1.000000 1.000000
vt 0.000000 0.000000
vt -0.000000 1.000000
vt 1.000000 0.000000
vt 1.000000 1.000000
vt 0.000000 0.000000
vt 0.000000 1.000000
vt 1.000000 -0.000000
vt 1.000000 1.000000
vt 0.000000 -0.000000
vt -0.000000 1.000000
vt 0.000000 0.000000
vt 1.000000 0.000000
vt 0.000000 1.000000
vt 1.000000 1.000000
vt 0.912849 0.003049
vt 0.087151 0.003049
vt 0.999999 -0.000000
vt 0.999999 1.000000
vt -0.000001 -0.000000
vt -0.000001 1.000000
vt 0.000000 -0.000000
vt 1.000000 -0.000000
vt 0.000000 1.000000
vt 1.000000 1.000000
vt 0.375000 0.500000
vt 0.625000 0.500000
vt 0.375000 0.750000
vt 0.625000 0.750000
vt 1.000000 -0.000000
vt 1.000000 1.000000
vt 0.000000 -0.000000
vt 0.000000 1.000000
vt 1.000000 0.000000
vt 1.000000 1.000000
vt 0.000000 0.000000
vt 0.000000 1.000000
vt 0.000000 1.000000
vt 0.000000 0.000000
vt 1.000000 1.000000
vt 1.000000 0.000000
vt -0.000000 0.000000
vt -0.000000 0.000000
vt -0.000000 1.000000
vt -0.000000 1.000000
vt 0.000000 1.000000
vt 0.000000 1.000000
vt 1.000000 1.000000
vt 1.000000 1.000000
vt 1.000000 1.000000
vt 1.000000 1.000000
vt 1.000000 0.000000
vt 1.000000 0.000000
vt 1.000000 0.000000
vt 1.000000 0.000000
vt 0.000000 0.000000
vt 0.000000 0.000000
vt 0.000000 0.000000
vt 1.000000 0.000000
vt 0.000000 1.000000
vt 1.000000 1.000000
vt 1.000000 0.000000
vt 0.000000 0.000000
vt 1.000000 1.000000
vt 0.000000 1.000000
vt 1.000000 0.000000
vt 1.000000 1.000000
vt 0.879787 0.120213
vt 0.879787 0.879787
vt 0.000000 0.000000
vt 0.120213 0.120213
vt 0.000000 1.000000
vt 0.120213 0.879787
vt 1.000000 1.000000
vt 1.000000 0.000000
vt -0.000000 1.000000
vt -0.000000 0.000000
vt 0.000000 -0.000000
vt 1.000000 -0.000000
vt -0.000000 1.000000
vt 1.000000 1.000000
vt 0.000000 0.000000
vt 1.000000 0.000000
vt 0.000000 1.000000
vt 1.000000 1.000000
vt -0.000000 0.000000
vt 1.000000 0.000000
vt 0.000000 1.000000
vt 1.000000 1.000000
vt 1.000000 0.000000
vt 0.000000 0.000000
vt 1.000000 0.855995
vt 0.000000 0.855995
vt 0.375000 0.306970
vt 0.375000 0.500000
vt 0.625000 0.306970
vt 0.625000 0.500000
vt 0.681970 0.250000
vt 0.875000 0.250000
vt 0.681970 0.000000
vt 0.875000 0.000000
vt 0.120213 0.248215
vt 0.879787 0.248215
vt 0.120213 0.898407
vt 0.879787 0.898406
vt 0.318030 0.000000
vt 0.125000 0.000000
vt 0.318030 0.250000
vt 0.125000 0.250000
vt 0.375000 0.943030
vt 0.625000 0.943030
vt 0.375000 0.750000
vt 0.625000 0.750000
vt 0.625000 0.250000
vt 0.375000 0.250000
vn 0.000000 1.000000 0.000000
vn 0.000000 1.000000 0.000000
vn 0.000000 1.000000 0.000000
vn 0.000000 1.000000 0.000000
vn 0.000000 1.000000 0.000000
vn 0.000000 1.000000 0.000000
vn 0.000000 0.000000 -1.000000
vn 0.000000 0.000000 -1.000000
vn 0.000000 0.000000 -1.000000
vn 0.000000 0.000000 -1.000000
vn 0.000000 0.000000 -1.000000
vn 0.000000 0.000000 -1.000000
vn 0.000000 -1.000000 0.000000
vn 0.000000 -1.000000 0.000000
vn 0.000000 -1.000000 0.000000
vn 0.000000 -1.000000 0.000000
vn 0.000000 -1.000000 0.000000
vn 0.000000 -1.000000 0.000000
vn 1.000000 0.000000 0.000000
vn 1.000000 0.000000 0.000000
vn 1.000000 0.000000 0.000000
vn 1.000000 0.000000 0.000000
vn 1.000000 0.000000 0.000000
vn 1.000000 0.000000 0.000000
vn -1.000000 0.000000 0.000000
vn -1.000000 0.000000 0.000000
vn -1.000000 0.000000 0.000000
vn -1.000000 0.000000 0.000000
vn -1.000000 0.000000 0.000000
vn -1.000000 0.000000 0.000000
vn 0.000000 -1.000000 0.000000
vn 0.000000 -1.000000 0.000000
vn 0.000000 -1.000000 0.000000
vn 0.000000 -1.000000 0.000000
vn 0.000000 -1.000000 0.000000
vn 0.000000 -1.000000 0.000000
vn 0.000000 -1.000000 0.000000
vn 0.000000 -1.000000 0.000000
vn 0.000000 -1.000000 0.000000
vn 0.000000 -1.000000 0.000000
vn 0.000000 -1.000000 0.000000
vn 0.000000 -1.000000 0.000000
vn 0.000000 -1.000000 0.000000
vn 0.000000 -1.000000 0.000000
vn 0.000000 -1.000000 0.000000
vn 0.000000 -1.000000 0.000000
vn 0.000000 -1.000000 0.000000
vn 0.000000 -1.000000 0.000000
vn 0.000000 -1.000000 0.000000
vn 0.000000 -1.000000 0.000000
vn 0.000000 -1.000000 0.000000
vn 0.000000 -1.000000 0.000000
vn 0.000000 -1.000000 0.000000
vn 0.000000 -1.000000 0.000000
vn 0.000000 -1.000000 0.000000
vn 0.000000 -1.000000 0.000000
vn 0.000000 -1.000000 0.000000
vn 0.000000 -1.000000 0.000000
vn 0.000000 -1.000000 0.000000
vn 0.000000 -1.000000 0.000000
vn 0.000000 -1.000000 0.000000
vn 0.000000 -1.000000 0.000000
vn 0.000000 -1.000000 0.000000
vn 0.000000 -1.000000 0.000000
vn 0.000000 -1.000000 0.000000
vn 0.000000 -1.000000 0.000000
vn 0.000000 -1.000000 0.000000
vn 0.000000 -1.000000 0.000000
vn 0.000000 -1.000000 0.000000
vn 0.000000 -1.000000 0.000000
vn 0.000000 -1.000000 0.000000
vn 0.000000 -1.000000 0.000000
vn 0.000000 -1.000000 0.000000
vn 0.000000 -1.000000 0.000000
vn 0.000000 -1.000000 0.000000
vn 0.000000 -1.000000 0.000000
vn 0.000000 -1.000000 0.000000
vn 0.000000 -1.000000 0.000000
vn 0.000000 -1.000000 0.000000
vn 0.000000 -1.000000 0.000000
vn 0.000000 -1.000000 0.000000
vn 0.000000 -1.000000 0.000000
vn 0.000000 -1.000000 0.000000
vn 0.000000 -1.000000 0.000000
vn 0.000000 0.000000 1.000000
vn 0.000000 0.000000 1.000000
vn 0.000000 0.000000 1.000000
vn 0.000000 0.000000 1.000000
vn 0.000000 0.000000 1.000000
vn 0.000000 0.000000 1.000000
vn 0.000000 1.000000 0.000000
vn 0.000000 1.000000 0.000000
vn 0.000000 1.000000 0.000000
vn 0.000000 1.000000 0.000000
vn 0.000000 1.000000 0.000000
vn 0.000000 1.000000 0.000000
vn 0.000000 0.000000 -1.000000
vn 0.000000 0.000000 -1.000000
vn 0.000000 0.000000 -1.000000
vn 0.000000 0.000000 -1.000000
vn 0.000000 0.000000 -1.000000
vn 0.000000 0.000000 -1.000000
vn 0.000000 -1.000000 0.000000
vn 0.000000 -1.000000 0.000000
vn 0.000000 -1.000000 0.000000
vn 0.000000 -1.000000 0.000000
vn 0.000000 -1.000000 0.000000
vn 0.000000 -1.000000 0.000000
vn 1.000000 0.000000 0.000000
vn 1.000000 0.000000 0.000000
vn 1.000000 0.000000 0.000000
vn 1.000000 0.000000 0.000000
vn 1.000000 0.000000 0.000000
vn 1.000000 0.000000 0.000000
vn -1.000000 0.000000 0.000000
vn -1.000000 0.000000 0.000000
vn -1.000000 0.000000 0.000000
vn -1.000000 0.000000 0.000000
vn -1.000000 0.000000 0.000000
vn -1.000000 0.000000 0.000000
vn 0.000000 0.000000 1.000000
vn 0.000000 0.000000 1.000000
vn 0.000000 0.000000 1.000000
vn 0.000000 0.000000 1.000000
vn 0.000000 0.000000 1.000000
vn 0.000000 0.000000 1.000000
vn 0.000000 1.000000 0.000000
vn 0.000000 1.000000 0.000000
vn 0.000000 1.000000 0.000000
vn 0.000000 1.000000 0.000000
vn 0.000000 1.000000 0.000000
vn 0.000000 1.000000 0.000000
vn 0.000000 0.000000 -1.000000
vn 0.000000 0.000000 -1.000000
vn 0.000000 0.000000 -1.000000
vn 0.000000 0.000000 -1.000000
vn 0.000000 0.000000 -1.000000
vn 0.000000 0.000000 -1.000000
vn 0.000000 -1.000000 0.000000
vn 0.000000 -1.000000 0.000000
vn 0.000000 -1.000000 0.000000
vn 0.000000 -1.000000 0.000000
vn 0.000000 -1.000000 0.000000
vn 0.000000 -1.000000 0.000000
vn 1.000000 0.000000 0.000000
vn 1.000000 0.000000 0.000000
vn 1.000000 0.000000 0.000000
vn 1.000000 0.000000 0.000000
vn 1.000000 0.000000 0.000000
vn 1.000000 0.000000 0.000000
vn -1.000000 0.000000 0.000000
vn -1.000000 0.000000 0.000000
vn -1.000000 0.000000 0.000000
vn -1.000000 0.000000 0.000000
vn -1.000000 0.000000 0.000000
vn -1.000000 0.000000 0.000000
vn 0.000000 0.000000 1.000000
vn 0.000000 0.000000 1.000000
vn 0.000000 0.000000 1.000000
vn 0.000000 0.000000 1.000000
vn 0.000000 0.000000 1.000000
vn 0.000000 0.000000 1.000000
vn 0.000000 1.000000 0.000000
vn 0.000000 1.000000 0.000000
vn 0.000000 1.000000 0.000000
vn 0.000000 1.000000 0.000000
vn 0.000000 1.000000 0.000000
vn 0.000000 1.000000 0.000000
vn 0.000000 0.000000 -1.000000
vn 0.000000 0.000000 -1.000000
vn 0.000000 0.000000 -1.000000
vn 0.000000 0.000000 -1.000000
vn 0.000000 0.000000 -1.000000
vn 0.000000 0.000000 -1.000000
vn 0.000000 -1.000000 0.000000
vn 0.000000 -1.000000 0.000000
vn 0.000000 -1.000000 0.000000
vn 0.000000 -1.000000 0.000000
vn 0.000000 -1.000000 0.000000
vn 0.000000 -1.000000 0.000000
vn 1.000000 0.000000 0.000000
vn 1.000000 0.000000 0.000000
vn 1.000000 0.000000 0.000000
vn 1.000000 0.000000 0.000000
vn 1.000000 0.000000 0.000000
vn 1.000000 0.000000 0.000000
vn -1.000000 0.000000 0.000000
vn -1.000000 0.000000 0.000000
vn -1.000000 0.000000 0.000000
vn -1.000000 0.000000 0.000000
vn -1.000000 0.000000 0.000000
vn -1.000000 0.000000 0.000000
vn 0.000000 0.000000 1.000000
vn 0.000000 0.000000 1.000000
vn 0.000000 0.000000 1.000000
vn 0.000000 0.000000 1.000000
vn 0.000000 0.000000 1.000000
vn 0.000000 0.000000 1.000000
vn 0.000000 0.000000 1.000000
vn 0.000000 0.000000 1.000000
vn 0.000000 0.000000 1.000000
vn 0.000000 0.000000 1.000000
vn 0.000000 0.000000 1.000000
vn 0.000000 0.000000 1.000000
vn 0.000000 0.000000 1.000000
vn 0.000000 0.000000 1.000000
vn 0.000000 0.000000 1.000000
vn 0.000000 0.000000 1.000000
vn 0.000000 0.000000 1.000000
vn 0.000000 0.000000 1.000000
vn 0.000000 0.000000 1.000000
vn 0.000000 0.000000 1.000000
vn 0.000000 0.000000 1.000000
vn 0.000000 0.000000 1.000000
vn 0.000000 0.000000 1.000000
vn 0.000000 0.000000 1.000000
vn -1.000000 0.000000 0.000000
vn -1.000000 0.000000 0.000000
vn -1.000000 0.000000 0.000000
vn -1.000000 0.000000 0.000000
vn -1.000000 0.000000 0.000000
vn -1.000000 0.000000 0.000000
vn 0.000000 -1.000000 0.000000
vn 0.000000 -1.000000 0.000000
vn 0.000000 -1.000000 0.000000
vn 0.000000 -1.000000 0.000000
vn 0.000000 -1.000000 0.000000
vn 0.000000 -1.000000 0.000000
vn 1.000000 0.000000 0.000000
vn 1.000000 0.000000 0.000000
vn 1.000000 0.000000 0.000000
vn 1.000000 0.000000 0.000000
vn 1.000000 0.000000 0.000000
vn 1.000000 0.000000 0.000000
vn 0.000000 1.000000 0.000000
vn 0.000000 1.000000 0.000000
vn 0.000000 1.000000 0.000000
vn 0.000000 1.000000 0.000000
vn 0.000000 1.000000 0.000000
vn 0.000000 1.000000 0.000000
vn 0.000000 0.000000 -1.000000
vn 0.000000 0.000000 -1.000000
vn 0.000000 0.000000 -1.000000
vn 0.000000 0.000000 -1.000000
vn 0.000000 0.000000 -1.000000
vn 0.000000 0.000000 -1.000000
vn 0.000000 -1.000000 0.000000
vn 0.000000 -1.000000 0.000000
vn 0.000000 -1.000000 0.000000
vn 0.000000 -1.000000 0.000000
vn 0.000000 -1.000000 0.000000
vn 0.000000 -1.000000 0.000000
vn -1.000000 0.000000 0.000000
vn -1.000000 0.000000 0.000000
vn -1.000000 0.000000 0.000000
vn -1.000000 0.000000 0.000000
vn -1.000000 0.000000 0.000000
vn -1.000000 0.000000 0.000000
vn 0.000000 0.000000 1.000000
vn 0.000000 0.000000 1.000000
vn 0.000000 0.000000 1.000000
vn 0.000000 0.000000 1.000000
vn 0.000000 0.000000 1.000000
vn 0.000000 0.000000 1.000000
vn 1.000000 0.000000 0.000000
vn 1.000000 0.000000 0.000000
vn 1.000000 0.000000 0.000000
vn 1.000000 0.000000 0.000000
vn 1.000000 0.000000 0.000000
vn 1.000000 0.000000 0.000000
vn 0.000000 1.000000 0.000000
vn 0.000000 1.000000 0.000000
vn 0.000000 1.000000 0.000000
vn 0.000000 1.000000 0.000000
vn 0.000000 1.000000 0.000000
vn 0.000000 1.000000 0.000000
vn 0.000000 0.000000 1.000000
vn 0.000000 0.000000 1.000000
vn 0.000000 0.000000 1.000000
vn 0.000000 0.000000 1.000000
vn 0.000000 0.000000 1.000000
vn 0.000000 0.000000 1.000000
vn 0.000000 1.000000 0.000000
vn 0.000000 1.000000 0.000000
vn 0.000000 1.000000 0.000000
vn 0.000000 1.000000 0.000000
vn 0.000000 1.000000 0.000000
vn 0.000000 1.000000 0.000000
vn 0.000000 0.000000 -1.000000
vn 0.000000 0.000000 -1.000000
vn 0.000000 0.000000 -1.000000
vn 0.000000 0.000000 -1.000000
vn 0.000000 0.000000 -1.000000
vn 0.000000 0.000000 -1.000000
vn 0.000000 -1.000000 0.000000
vn 0.000000 -1.000000 0.000000
vn 0.000000 -1.000000 0.000000
vn 0.000000 -1.000000 0.000000
vn 0.000000 -1.000000 0.000000
vn 0.000000 -1.000000 0.000000
vn 1.000000 0.000000 0.000000
vn 1.000000 0.000000 0.000000
vn 1.000000 0.000000 0.000000
vn 1.000000 0.000000 0.000000
vn 1.000000 0.000000 0.000000
vn 1.000000 0.000000 0.000000
vn -1.000000 0.000000 0.000000
vn -1.000000 0.000000 0.000000
vn -1.000000 0.000000 0.000000
vn -1.000000 0.000000 0.000000
vn -1.000000 0.000000 0.000000
vn -1.000000 0.000000 0.000000
vn 0.000000 -1.000000 0.000000
vn 0.000000 -1.000000 0.000000
vn 0.000000 -1.000000 0.000000
vn 0.000000 -1.000000 0.000000
vn 0.000000 -1.000000 0.000000
vn 0.000000 -1.000000 0.000000
vn 0.000000 -1.000000 0.000000
vn 0.000000 -1.000000 0.000000
vn 0.000000 -1.000000 0.000000
vn 0.000000 -1.000000 0.000000
vn 0.000000 -1.000000 0.000000
vn 0.000000 -1.000000 0.000000
vn 0.000000 -1.000000 0.000000
vn 0.000000 -1.000000 0.000000
vn 0.000000 -1.000000 0.000000
vn 0.000000 -1.000000 0.000000
vn 0.000000 -1.000000 0.000000
vn 0.000000 -1.000000 0.000000
vn 0.000000 -1.000000 0.000000
vn 0.000000 -1.000000 0.000000
vn 0.000000 -1.000000 0.000000
vn 0.000000 -1.000000 0.000000
vn 0.000000 -1.000000 0.000000
vn 0.000000 -1.000000 0.000000
vn 0.000000 -1.000000 0.000000
vn 0.000000 -1.000000 0.000000
vn 0.000000 -1.000000 0.000000
vn 0.000000 -1.000000 0.000000
vn 0.000000 -1.000000 0.000000
vn 0.000000 -1.000000 0.000000
vn 0.000000 -1.000000 0.000000
vn 0.000000 -1.000000 0.000000
vn 0.000000 -1.000000 0.000000
vn 0.000000 -1.000000 0.000000
vn 0.000000 -1.000000 0.000000
vn 0.000000 -1.000000 0.000000
vn 0.000000 -1.000000 0.000000
vn 0.000000 -1.000000 0.000000
vn 0.000000 -1.000000 0.000000
vn 0.000000 -1.000000 0.000000
vn 0.000000 -1.000000 0.000000
vn 0.000000 -1.000000 0.000000
vn 0.000000 -1.000000 0.000000
vn 0.000000 -1.000000 0.000000
vn 0.000000 -1.000000 0.000000
vn 0.000000 -1.000000 0.000000
vn 0.000000 -1.000000 0.000000
vn 0.000000 -1.000000 0.000000
vn 0.000000 -1.000000 0.000000
vn 0.000000 -1.000000 0.000000
vn 0.000000 -1.000000 0.000000
vn 0.000000 -1.000000 0.000000
vn 0.000000 -1.000000 0.000000
vn 0.000000 -1.000000 0.000000
vn 0.000000 0.000000 1.000000
vn 0.000000 0.000000 1.000000
vn 0.000000 0.000000 1.000000
vn 0.000000 0.000000 1.000000
vn 0.000000 0.000000 1.000000
vn 0.000000 0.000000 1.000000
vn 0.000000 1.000000 0.000000
vn 0.000000 1.000000 0.000000
vn 0.000000 1.000000 0.000000
vn 0.000000 1.000000 0.000000
vn 0.000000 1.000000 0.000000
vn 0.000000 1.000000 0.000000
vn 0.000000 0.000000 -1.000000
vn 0.000000 0.000000 -1.000000
vn 0.000000 0.000000 -1.000000
vn 0.000000 0.000000 -1.000000
vn 0.000000 0.000000 -1.000000
vn 0.000000 0.000000 -1.000000
vn 0.000000 -1.000000 0.000000
vn 0.000000 -1.000000 0.000000
vn 0.000000 -1.000000 0.000000
vn 0.000000 -1.000000 0.000000
vn 0.000000 -1.000000 0.000000
vn 0.000000 -1.000000 0.000000
vn 1.000000 0.000000 0.000000
vn 1.000000 0.000000 0.000000
vn 1.000000 0.000000 0.000000
vn 1.000000 0.000000 0.000000
vn 1.000000 0.000000 0.000000
vn 1.000000 0.000000 0.000000
vn -1.000000 0.000000 0.000000
vn -1.000000 0.000000 0.000000
vn -1.000000 0.000000 0.000000
vn -1.000000 0.000000 0.000000
vn -1.000000 0.000000 0.000000
vn -1.000000 0.000000 0.000000
vn 0.000000 0.000000 1.000000
vn 0.000000 0.000000 1.000000
vn 0.000000 0.000000 1.000000
vn 0.000000 0.000000 1.000000
vn 0.000000 0.000000 1.000000
vn 0.000000 0.000000 1.000000
vn 0.000000 1.000000 0.000000
vn 0.000000 1.000000 0.000000
vn 0.000000 1.000000 0.000000
vn 0.000000 1.000000 0.000000
vn 0.000000 1.000000 0.000000
vn 0.000000 1.000000 0.000000
vn 0.000000 0.000000 -1.000000
vn 0.000000 0.000000 -1.000000
vn 0.000000 0.000000 -1.000000
vn 0.000000 0.000000 -1.000000
vn 0.000000 0.000000 -1.000000
vn 0.000000 0.000000 -1.000000
vn 0.000000 -1.000000 0.000000
vn 0.000000 -1.000000 0.000000
vn 0.000000 -1.000000 0.000000
vn 0.000000 -1.000000 0.000000
vn 0.000000 -1.000000 0.000000
vn 0.000000 -1.000000 0.000000
vn 1.000000 0.000000 0.000000
vn 1.000000 0.000000 0.000000
vn 1.000000 0.000000 0.000000
vn 1.000000 0.000000 0.000000
vn 1.000000 0.000000 0.000000
vn 1.000000 0.000000 0.000000
vn -1.000000 0.000000 0.000000
vn -1.000000 0.000000 0.000000
vn -1.000000 0.000000 0.000000
vn -1.000000 0.000000 0.000000
vn -1.000000 0.000000 0.000000
vn -1.000000 0.000000 0.000000
vn 0.000000 0.000000 1.000000
vn 0.000000 0.000000 1.000000
vn 0.000000 0.000000 1.000000
vn 0.000000 0.000000 1.000000
vn 0.000000 0.000000 1.000000
vn 0.000000 0.000000 1.000000
vn 0.000000 1.000000 0.000000
vn 0.000000 1.000000 0.000000
vn 0.000000 1.000000 0.000000
vn 0.000000 1.000000 0.000000
vn 0.000000 1.000000 0.000000
vn 0.000000 1.000000 0.000000
vn 0.000000 0.000000 -1.000000
vn 0.000000 0.000000 -1.000000
vn 0.000000 0.000000 -1.000000
vn 0.000000 0.000000 -1.000000
vn 0.000000 0.000000 -1.000000
vn 0.000000 0.000000 -1.000000
vn 0.000000 -1.000000 0.000000
vn 0.000000 -1.000000 0.000000
vn 0.000000 -1.000000 0.000000
vn 0.000000 -1.000000 0.000000
vn 0.000000 -1.000000 0.000000
vn 0.000000 -1.000000 0.000000
vn 1.000000 0.000000 0.000000
vn 1.000000 0.000000 0.000000
vn 1.000000 0.000000 0.000000
vn 1.000000 0.000000 0.000000
vn 1.000000 0.000000 0.000000
vn 1.000000 0.000000 0.000000
vn -1.000000 0.000000 0.000000
vn -1.000000 0.000000 0.000000
vn -1.000000 0.000000 0.000000
vn -1.000000 0.000000 0.000000
vn -1.000000 0.000000 0.000000
vn -1.000000 0.000000 0.000000
vn 0.000000 0.000000 1.000000
vn 0.000000 0.000000 1.000000
vn 0.000000 0.000000 1.000000
vn 0.000000 0.000000 1.000000
vn 0.000000 0.000000 1.000000
vn 0.000000 0.000000 1.000000
vn 0.000000 0.000000 1.000000
vn 0.000000 0.000000 1.000000
vn 0.000000 0.000000 1.000000
vn 0.000000 0.000000 1.000000
vn 0.000000 0.000000 1.000000
vn 0.000000 0.000000 1.000000
vn 0.000000 0.000000 1.000000
vn 0.000000 0.000000 1.000000
vn 0.000000 0.000000 1.000000
vn 0.000000 0.000000 1.000000
vn 0.000000 0.000000 1.000000
vn 0.000000 0.000000 1.000000
vn 0.000000 0.000000 1.000000
vn 0.000000 0.000000 1.000000
vn 0.000000 0.000000 1.000000
vn 0.000000 0.000000 1.000000
vn 0.000000 0.000000 1.000000
vn 0.000000 0.000000 1.000000
vn -1.000000 0.000000 0.000000
vn -1.000000 0.000000 0.000000
vn -1.000000 0.000000 0.000000
vn -1.000000 0.000000 0.000000
vn -1.000000 0.000000 0.000000
vn -1.000000 0.000000 0.000000
vn 0.000000 -1.000000 0.000000
vn 0.000000 -1.000000 0.000000
vn 0.000000 -1.000000 0.000000
vn 0.000000 -1.000000 0.000000
vn 0.000000 -1.000000 0.000000
vn 0.000000 -1.000000 0.000000
vn 1.000000 0.000000 0.000000
vn 1.000000 0.000000 0.000000
vn 1.000000 0.000000 0.000000
vn 1.000000 0.000000 0.000000
vn 1.000000 0.000000 0.000000
vn 1.000000 0.000000 0.000000
vn 0.000000 1.000000 0.000000
vn 0.000000 1.000000 0.000000
vn 0.000000 1.000000 0.000000
vn 0.000000 1.000000 0.000000
vn 0.000000 1.000000 0.000000
vn 0.000000 1.000000 0.000000
vn 0.000000 0.000000 -1.000000
vn 0.000000 0.000000 -1.000000
vn 0.000000 0.000000 -1.000000
vn 0.000000 0.000000 -1.000000
vn 0.000000 0.000000 -1.000000
vn 0.000000 0.000000 -1.000000
vn 0.000000 -1.000000 0.000000
vn 0.000000 -1.000000 0.000000
vn 0.000000 -1.000000 0.000000
vn 0.000000 -1.000000 0.000000
vn 0.000000 -1.000000 0.000000
vn 0.000000 -1.000000 0.000000
vn -1.000000 0.000000 0.000000
vn -1.000000 0.000000 0.000000
vn -1.000000 0.000000 0.000000
vn -1.000000 0.000000 0.000000
vn -1.000000 0.000000 0.000000
vn -1.000000 0.000000 0.000000
vn 0.000000 0.000000 1.000000
vn 0.000000 0.000000 1.000000
vn 0.000000 0.000000 1.000000
vn 0.000000 0.000000 1.000000
vn 0.000000 0.000000 1.000000
vn 0.000000 0.000000 1.000000
vn 1.000000 0.000000 0.000000
vn 1.000000 0.000000 0.000000
vn 1.000000 0.000000 0.000000
vn 1.000000 0.000000 0.000000
vn 1.000000 0.000000 0.000000
vn 1.000000 0.000000 0.000000
vn 0.000000 1.000000 0.000000
vn 0.000000 1.000000 0.000000
vn 0.000000 1.000000 0.000000
vn 0.000000 1.000000 0.000000
vn 0.000000 1.000000 0.000000
vn 0.000000 1.000000 0.000000
s off
g polySurface2 PCSF:group_pasted__group2_pasted__pasted__group_pasted__pasted__pasted__pCube1
usemtl PCSF:initialShadingGroup
f 3/1/1 4/309/2 5/3/3
f 5/3/4 4/309/5 6/4/6
f 5/3/7 6/4/8 7/5/9
f 7/5/10 6/4/11 8/6/12
f 7/5/13 8/6/14 1/7/15
f 1/7/16 8/6/17 2/8/18
f 2/9/19 8/10/20 4/2/21
f 4/2/22 8/10/23 6/11/24
f 7/12/25 1/13/26 5/14/27
f 5/14/28 1/13/29 3/310/30
usemtl PCSF:phong1SG
f 9/15/31 12/16/32 10/17/33
f 12/16/34 14/18/35 10/17/36
f 14/18/37 16/19/38 10/17/39
f 16/19/40 18/20/41 10/17/42
f 18/20/43 20/21/44 10/17/45
f 20/21/46 22/22/47 10/17/48
f 22/22/49 24/23/50 10/17/51
f 24/23/52 26/24/53 10/17/54
f 26/24/55 28/25/56 10/17/57
f 28/25/58 27/26/59 10/17/60
f 27/26/61 25/27/62 10/17/63
f 25/27/64 23/28/65 10/17/66
f 23/28/67 21/29/68 10/17/69
f 21/29/70 19/30/71 10/17/72
f 19/30/73 17/31/74 10/17/75
f 17/31/76 15/32/77 10/17/78
f 15/32/79 13/33/80 10/17/81
f 13/33/82 11/34/83 10/17/84
usemtl PCSF:initialShadingGroup
f 29/35/85 30/36/86 31/37/87
f 31/37/88 30/36/89 32/38/90
usemtl PCSF:lambert2SG
f 31/39/91 32/40/92 33/41/93
f 33/41/94 32/40/95 34/42/96
f 33/43/97 34/44/98 35/45/99
f 35/45/100 34/44/101 36/46/102
f 35/47/103 36/48/104 29/49/105
f 29/49/106 36/48/107 30/50/108
f 30/51/109 36/52/110 32/53/111
f 32/53/112 36/52/113 34/54/114
f 35/55/115 29/35/116 33/56/117
f 33/56/118 29/35/119 31/37/120
f 37/57/121 38/58/122 39/59/123
f 39/59/124 38/58/125 40/60/126
usemtl PCSF:lambert3SG
f 39/61/127 40/62/128 41/63/129
f 41/63/130 40/62/131 42/64/132
usemtl PCSF:initialShadingGroup
f 41/65/133 42/66/134 43/67/135
f 43/67/136 42/66/137 44/68/138
usemtl PCSF:lambert2SG
f 43/69/139 44/70/140 37/71/141
f 37/71/142 44/70/143 38/72/144
f 38/73/145 44/74/146 40/75/147
f 40/75/148 44/74/149 42/76/150
f 43/77/151 37/78/152 41/79/153
f 41/79/154 37/78/155 39/80/156
usemtl PCSF:lambert4SG
f 45/81/157 46/82/158 47/83/159
f 47/83/160 46/82/161 48/84/162
f 47/85/163 48/86/164 49/87/165
f 49/87/166 48/86/167 50/88/168
f 49/89/169 50/90/170 51/91/171
f 51/91/172 50/90/173 52/92/174
f 51/93/175 52/94/176 45/95/177
f 45/95/178 52/94/179 46/96/180
f 46/97/181 52/98/182 48/99/183
f 48/99/184 52/98/185 50/100/186
f 51/101/187 45/102/188 49/103/189
f 49/103/190 45/102/191 47/104/192
usemtl PCSF:lambert2SG
f 53/105/193 58/106/194 54/107/195
f 54/107/196 58/106/197 57/108/198
f 53/105/199 54/107/200 60/109/201
f 54/107/202 55/110/203 60/109/204
f 60/109/205 55/110/206 59/111/207
f 55/110/208 56/112/209 59/111/210
f 58/106/211 59/111/212 57/108/213
f 56/112/214 57/108/215 59/111/216
f 53/113/217 60/114/218 61/115/219
f 61/115/220 60/114/221 62/116/222
f 53/117/223 61/118/224 58/119/225
f 58/119/226 61/118/227 63/120/228
f 58/121/229 63/122/230 59/123/231
f 59/123/232 63/122/233 64/124/234
f 59/125/235 64/126/236 60/127/237
f 60/127/238 64/126/239 62/128/240
f 61/129/241 62/130/242 63/131/243
f 63/131/244 62/130/245 64/132/246
f 55/133/247 65/134/248 56/135/249
f 56/135/250 65/134/251 66/136/252
f 56/137/253 66/138/254 57/139/255
f 57/139/256 66/138/257 67/140/258
f 65/141/259 68/142/260 66/143/261
f 66/143/262 68/142/263 67/144/264
f 54/145/265 68/146/266 55/147/267
f 55/147/268 68/146/269 65/148/270
f 54/149/271 57/150/272 68/151/273
f 68/151/274 57/150/275 67/152/276
f 69/153/277 70/154/278 71/155/279
f 71/155/280 70/154/281 72/156/282
f 71/157/283 72/158/284 73/159/285
f 73/159/286 72/158/287 74/160/288
f 73/159/289 74/160/290 75/161/291
f 75/161/292 74/160/293 76/162/294
f 75/161/295 76/162/296 69/163/297
f 69/163/298 76/162/299 70/164/300
f 70/165/301 76/166/302 72/158/303
f 72/158/304 76/166/305 74/167/306
f 75/168/307 69/169/308 73/170/309
f 73/170/310 69/169/311 71/157/312
f 77/171/313 80/172/314 78/173/315
f 80/172/316 82/174/317 78/173/318
f 82/174/319 84/175/320 78/173/321
f 84/175/322 86/176/323 78/173/324
f 86/176/325 88/177/326 78/173/327
f 88/177/328 90/178/329 78/173/330
f 90/178/331 92/179/332 78/173/333
f 92/179/334 94/180/335 78/173/336
f 94/180/337 96/181/338 78/173/339
f 96/181/340 95/182/341 78/173/342
f 95/182/343 93/183/344 78/173/345
f 93/183/346 91/184/347 78/173/348
f 91/184/349 89/185/350 78/173/351
f 89/185/352 87/186/353 78/173/354
f 87/186/355 85/187/356 78/173/357
f 85/187/358 83/188/359 78/173/360
f 83/188/361 81/189/362 78/173/363
f 81/189/364 79/190/365 78/173/366
f 97/191/367 98/192/368 99/193/369
f 99/193/370 98/192/371 100/194/372
f 99/195/373 100/196/374 101/197/375
f 101/197/376 100/196/377 102/198/378
f 101/199/379 102/200/380 103/201/381
f 103/201/382 102/200/383 104/202/384
f 103/203/385 104/204/386 97/205/387
f 97/205/388 104/204/389 98/206/390
f 98/207/391 104/208/392 100/209/393
f 100/209/394 104/208/395 102/210/396
f 103/211/397 97/191/398 101/212/399
f 101/212/400 97/191/401 99/193/402
f 105/213/403 106/214/404 107/215/405
f 107/215/406 106/214/407 108/216/408
f 107/217/409 108/218/410 109/219/411
f 109/219/412 108/218/413 110/220/414
f 109/221/415 110/222/416 111/223/417
f 111/223/418 110/222/419 112/224/420
f 111/225/421 112/226/422 105/227/423
f 105/227/424 112/226/425 106/228/426
f 106/229/427 112/230/428 108/231/429
f 108/231/430 112/230/431 110/232/432
f 111/233/433 105/234/434 109/235/435
f 109/235/436 105/234/437 107/236/438
f 113/237/439 114/238/440 115/239/441
f 115/239/442 114/238/443 116/240/444
f 115/241/445 116/242/446 117/243/447
f 117/243/448 116/242/449 118/244/450
f 117/245/451 118/246/452 119/247/453
f 119/247/454 118/246/455 120/248/456
f 119/249/457 120/250/458 113/251/459
f 113/251/460 120/250/461 114/252/462
f 114/253/463 120/254/464 116/255/465
f 116/255/466 120/254/467 118/256/468
f 119/257/469 113/258/470 117/259/471
f 117/259/472 113/258/473 115/260/474
f 121/261/475 126/262/476 122/263/477
f 122/263/478 126/262/479 125/264/480
f 121/261/481 122/263/482 128/265/483
f 122/263/484 123/266/485 128/265/486
f 128/265/487 123/266/488 127/267/489
f 123/266/490 124/268/491 127/267/492
f 126/262/493 127/267/494 125/264/495
f 124/268/496 125/264/497 127/267/498
f 121/269/499 128/270/500 129/271/501
f 129/271/502 128/270/503 130/272/504
f 121/273/505 129/274/506 126/275/507
f 126/275/508 129/274/509 131/276/510
f 126/277/511 131/278/512 127/279/513
f 127/279/514 131/278/515 132/280/516
f 127/281/517 132/282/518 128/283/519
f 128/283/520 132/282/521 130/284/522
f 129/285/523 130/286/524 131/287/525
f 131/287/526 130/286/527 132/288/528
f 123/289/529 133/290/530 124/291/531
f 124/291/532 133/290/533 134/292/534
f 124/293/535 134/294/536 125/295/537
f 125/295/538 134/294/539 135/296/540
f 133/297/541 136/298/542 134/299/543
f 134/299/544 136/298/545 135/300/546
f 122/301/547 136/302/548 123/303/549
f 123/303/550 136/302/551 133/304/552
f 122/305/553 125/306/554 136/307/555
f 136/307/556 125/306/557 135/308/558
