# This file uses centimeters as units for non-parametric coordinates.

mtllib PCSF.mtl
g default
v -1.751927 4.014998 1.314789
v 1.751927 4.014998 1.314789
v -1.751927 6.450142 1.314789
v 1.751927 6.450142 1.314789
v -1.751927 6.450142 -0.127631
v 1.751927 6.450142 -0.127631
v -1.751927 4.014998 -0.127631
v 1.751927 4.014998 -0.127631
v 0.947126 6.814076 -0.307740
v 0.805674 6.814076 -0.585356
v 0.585356 6.814076 -0.805673
v 0.995867 6.814076 0.000000
v 0.307740 6.814076 -0.947126
v 0.947125 6.814076 0.307740
v 0.000000 6.814076 -0.995867
v 0.805673 6.814076 0.585356
v -0.307740 6.814076 -0.947126
v 0.585356 6.814076 0.805673
v -0.585356 6.814076 -0.805673
v 0.307740 6.814076 0.947125
v -0.805673 6.814076 -0.585356
v 0.000000 6.814076 0.995867
v -0.947126 6.814076 -0.307740
v -0.307740 6.814076 0.947126
v -0.995867 6.814076 0.000000
v -0.585356 6.814076 0.805673
v -0.947126 6.814076 0.307740
v -0.805673 6.814076 0.585356
v -1.904441 3.909003 0.360835
v 1.904441 3.909003 0.360835
v -1.904441 6.556137 0.360835
v 1.904441 6.556137 0.360835
v -1.904441 6.556137 -2.079601
v 1.904441 6.556137 -2.079601
v -1.904441 3.909003 -2.079601
v 1.904441 3.909003 -2.079601
v -2.308324 3.630136 3.933110
v 2.308324 3.630136 3.933110
v -2.308324 3.898747 3.933110
v 2.308324 3.898747 3.933110
v -2.308324 3.898747 1.474373
v 2.308324 3.898747 1.474373
v -2.308324 3.630136 1.474373
v 2.308324 3.630136 1.474373
v -3.195103 -3.906222 3.975412
v 3.195103 -3.906222 3.975412
v -3.195103 3.644383 3.975412
v 3.195103 3.644383 3.975412
v -3.195103 3.644383 -2.028361
v 3.195103 3.644383 -2.028361
v -3.195103 -3.906222 -2.028361
v 3.195103 -3.906222 -2.028361
v -2.306460 3.629604 1.477801
v -1.751927 4.014998 1.477801
v -1.751927 6.450142 1.477801
v 1.751927 6.450142 1.477801
v 1.751927 4.014998 1.477801
v 2.306460 3.629604 1.477801
v 2.306460 6.835536 1.477801
v -2.306460 6.835536 1.477801
v -2.306460 3.629604 -1.477801
v -2.306460 6.835536 -1.477801
v 2.306460 3.629604 -1.477801
v 2.306460 6.835536 -1.477801
v -1.751927 6.450142 -0.255609
v 1.751927 6.450142 -0.255609
v 1.751927 4.014998 -0.255609
v -1.751927 4.014998 -0.255609
v -1.751927 4.014998 1.314789
v 1.751927 4.014998 1.314789
v -1.751927 6.450142 1.314789
v 1.751927 6.450142 1.314789
v -1.751927 6.450142 -0.127631
v 1.751927 6.450142 -0.127631
v -1.751927 4.014998 -0.127631
v 1.751927 4.014998 -0.127631
v 0.947126 6.814076 -0.307740
v 0.805674 6.814076 -0.585356
v 0.585356 6.814076 -0.805673
v 0.995867 6.814076 0.000000
v 0.307740 6.814076 -0.947126
v 0.947125 6.814076 0.307740
v 0.000000 6.814076 -0.995867
v 0.805673 6.814076 0.585356
v -0.307740 6.814076 -0.947126
v 0.585356 6.814076 0.805673
v -0.585356 6.814076 -0.805673
v 0.307740 6.814076 0.947125
v -0.805673 6.814076 -0.585356
v 0.000000 6.814076 0.995867
v -0.947126 6.814076 -0.307740
v -0.307740 6.814076 0.947126
v -0.995867 6.814076 0.000000
v -0.585356 6.814076 0.805673
v -0.947126 6.814076 0.307740
v -0.805673 6.814076 0.585356
v -1.904441 3.909003 0.360835
v 1.904441 3.909003 0.360835
v -1.904441 6.556137 0.360835
v 1.904441 6.556137 0.360835
v -1.904441 6.556137 -2.079601
v 1.904441 6.556137 -2.079601
v -1.904441 3.909003 -2.079601
v 1.904441 3.909003 -2.079601
v -2.308324 3.630136 3.933110
v 2.308324 3.630136 3.933110
v -2.308324 3.898747 3.933110
v 2.308324 3.898747 3.933110
v -2.308324 3.898747 1.474373
v 2.308324 3.898747 1.474373
v -2.308324 3.630136 1.474373
v 2.308324 3.630136 1.474373
v -3.195103 -3.906222 3.975412
v 3.195103 -3.906222 3.975412
v -3.195103 3.644383 3.975412
v 3.195103 3.644383 3.975412
v -3.195103 3.644383 -2.028361
v 3.195103 3.644383 -2.028361
v -3.195103 -3.906222 -2.028361
v 3.195103 -3.906222 -2.028361
v -2.306460 3.629604 1.477801
v -1.751927 4.014998 1.477801
v -1.751927 6.450142 1.477801
v 1.751927 6.450142 1.477801
v 1.751927 4.014998 1.477801
v 2.306460 3.629604 1.477801
v 2.306460 6.835536 1.477801
v -2.306460 6.835536 1.477801
v -2.306460 3.629604 -1.477801
v -2.306460 6.835536 -1.477801
v 2.306460 3.629604 -1.477801
v 2.306460 6.835536 -1.477801
v -1.751927 6.450142 -0.255609
v 1.751927 6.450142 -0.255609
v 1.751927 4.014998 -0.255609
v -1.751927 4.014998 -0.255609
vt 0.000000 0.000000
vt 1.000000 0.000000
vt 0.000000 1.000000
vt 1.000000 1.000000
vt 0.375000 0.250000
vt 0.625000 0.250000
vt 0.375000 0.500000
vt 0.625000 0.500000
vt 0.375000 0.750000
vt 0.625000 0.750000
vt 0.375000 1.000000
vt 0.625000 1.000000
vt 0.625000 0.000000
vt 0.875000 0.000000
vt 0.875000 0.250000
vt 0.125000 0.000000
vt 0.375000 0.000000
vt 0.125000 0.250000
vt 0.904509 0.793893
vt 0.793893 0.904508
vt 1.000000 0.500000
vt 0.654509 0.975528
vt 0.975528 0.345491
vt 0.500000 1.000000
vt 0.904508 0.206107
vt 0.345491 0.975528
vt 0.793893 0.095491
vt 0.206107 0.904508
vt 0.654508 0.024472
vt 0.095491 0.793893
vt 0.500000 -0.000000
vt 0.024472 0.654508
vt 0.345492 0.024472
vt -0.000000 0.500000
vt 0.206107 0.095491
vt 0.024472 0.345491
vt 0.095491 0.206107
vt 0.912849 0.293206
vt 0.912849 1.000000
vt 0.087151 0.293206
vt 0.087151 1.000000
vt 1.000000 0.000000
vt 1.000000 1.000000
vt 0.000000 0.000000
vt -0.000000 1.000000
vt 1.000000 0.000000
vt 1.000000 1.000000
vt 0.000000 0.000000
vt 0.000000 1.000000
vt 1.000000 -0.000000
vt 1.000000 1.000000
vt 0.000000 -0.000000
vt -0.000000 1.000000
vt 0.000000 0.000000
vt 1.000000 0.000000
vt 0.000000 1.000000
vt 1.000000 1.000000
vt 0.912849 0.003049
vt 0.087151 0.003049
vt 0.999999 -0.000000
vt 0.999999 1.000000
vt -0.000001 -0.000000
vt -0.000001 1.000000
vt 0.000000 -0.000000
vt 1.000000 -0.000000
vt 0.000000 1.000000
vt 1.000000 1.000000
vt 0.375000 0.500000
vt 0.625000 0.500000
vt 0.375000 0.750000
vt 0.625000 0.750000
vt 1.000000 -0.000000
vt 1.000000 1.000000
vt 0.000000 -0.000000
vt 0.000000 1.000000
vt 1.000000 0.000000
vt 1.000000 1.000000
vt 0.000000 0.000000
vt 0.000000 1.000000
vt 0.000000 1.000000
vt 0.000000 0.000000
vt 1.000000 1.000000
vt 1.000000 0.000000
vt -0.000000 0.000000
vt -0.000000 0.000000
vt -0.000000 1.000000
vt -0.000000 1.000000
vt 0.000000 1.000000
vt 0.000000 1.000000
vt 1.000000 1.000000
vt 1.000000 1.000000
vt 1.000000 1.000000
vt 1.000000 1.000000
vt 1.000000 0.000000
vt 1.000000 0.000000
vt 1.000000 0.000000
vt 1.000000 0.000000
vt 0.000000 0.000000
vt 0.000000 0.000000
vt 0.000000 0.000000
vt 1.000000 0.000000
vt 0.000000 1.000000
vt 1.000000 1.000000
vt 1.000000 0.000000
vt 0.000000 0.000000
vt 1.000000 1.000000
vt 0.000000 1.000000
vt 1.000000 0.000000
vt 1.000000 1.000000
vt 0.879787 0.120213
vt 0.879787 0.879787
vt 0.000000 0.000000
vt 0.120213 0.120213
vt 0.000000 1.000000
vt 0.120213 0.879787
vt 1.000000 1.000000
vt 1.000000 0.000000
vt -0.000000 1.000000
vt -0.000000 0.000000
vt 0.000000 -0.000000
vt 1.000000 -0.000000
vt -0.000000 1.000000
vt 1.000000 1.000000
vt 0.000000 0.000000
vt 1.000000 0.000000
vt 0.000000 1.000000
vt 1.000000 1.000000
vt -0.000000 0.000000
vt 1.000000 0.000000
vt 0.000000 1.000000
vt 1.000000 1.000000
vt 1.000000 0.000000
vt 0.000000 0.000000
vt 1.000000 0.855995
vt 0.000000 0.855995
vt 0.375000 0.306970
vt 0.375000 0.500000
vt 0.625000 0.306970
vt 0.625000 0.500000
vt 0.681970 0.250000
vt 0.875000 0.250000
vt 0.681970 0.000000
vt 0.875000 0.000000
vt 0.120213 0.248215
vt 0.879787 0.248215
vt 0.120213 0.898407
vt 0.879787 0.898406
vt 0.318030 0.000000
vt 0.125000 0.000000
vt 0.318030 0.250000
vt 0.125000 0.250000
vt 0.375000 0.943030
vt 0.625000 0.943030
vt 0.375000 0.750000
vt 0.625000 0.750000
vt 0.000000 0.000000
vt 1.000000 0.000000
vt 0.000000 1.000000
vt 1.000000 1.000000
vt 0.375000 0.250000
vt 0.625000 0.250000
vt 0.375000 0.500000
vt 0.625000 0.500000
vt 0.375000 0.750000
vt 0.625000 0.750000
vt 0.375000 1.000000
vt 0.625000 1.000000
vt 0.625000 0.000000
vt 0.875000 0.000000
vt 0.875000 0.250000
vt 0.125000 0.000000
vt 0.375000 0.000000
vt 0.125000 0.250000
vt 0.904509 0.793893
vt 0.793893 0.904508
vt 1.000000 0.500000
vt 0.654509 0.975528
vt 0.975528 0.345491
vt 0.500000 1.000000
vt 0.904508 0.206107
vt 0.345491 0.975528
vt 0.793893 0.095491
vt 0.206107 0.904508
vt 0.654508 0.024472
vt 0.095491 0.793893
vt 0.500000 -0.000000
vt 0.024472 0.654508
vt 0.345492 0.024472
vt -0.000000 0.500000
vt 0.206107 0.095491
vt 0.024472 0.345491
vt 0.095491 0.206107
vt 0.912849 0.293206
vt 0.912849 1.000000
vt 0.087151 0.293206
vt 0.087151 1.000000
vt 1.000000 0.000000
vt 1.000000 1.000000
vt 0.000000 0.000000
vt -0.000000 1.000000
vt 1.000000 0.000000
vt 1.000000 1.000000
vt 0.000000 0.000000
vt 0.000000 1.000000
vt 1.000000 -0.000000
vt 1.000000 1.000000
vt 0.000000 -0.000000
vt -0.000000 1.000000
vt 0.000000 0.000000
vt 1.000000 0.000000
vt 0.000000 1.000000
vt 1.000000 1.000000
vt 0.912849 0.003049
vt 0.087151 0.003049
vt 0.999999 -0.000000
vt 0.999999 1.000000
vt -0.000001 -0.000000
vt -0.000001 1.000000
vt 0.000000 -0.000000
vt 1.000000 -0.000000
vt 0.000000 1.000000
vt 1.000000 1.000000
vt 0.375000 0.500000
vt 0.625000 0.500000
vt 0.375000 0.750000
vt 0.625000 0.750000
vt 1.000000 -0.000000
vt 1.000000 1.000000
vt 0.000000 -0.000000
vt 0.000000 1.000000
vt 1.000000 0.000000
vt 1.000000 1.000000
vt 0.000000 0.000000
vt 0.000000 1.000000
vt 0.000000 1.000000
vt 0.000000 0.000000
vt 1.000000 1.000000
vt 1.000000 0.000000
vt -0.000000 0.000000
vt -0.000000 0.000000
vt -0.000000 1.000000
vt -0.000000 1.000000
vt 0.000000 1.000000
vt 0.000000 1.000000
vt 1.000000 1.000000
vt 1.000000 1.000000
vt 1.000000 1.000000
vt 1.000000 1.000000
vt 1.000000 0.000000
vt 1.000000 0.000000
vt 1.000000 0.000000
vt 1.000000 0.000000
vt 0.000000 0.000000
vt 0.000000 0.000000
vt 0.000000 0.000000
vt 1.000000 0.000000
vt 0.000000 1.000000
vt 1.000000 1.000000
vt 1.000000 0.000000
vt 0.000000 0.000000
vt 1.000000 1.000000
vt 0.000000 1.000000
vt 1.000000 0.000000
vt 1.000000 1.000000
vt 0.879787 0.120213
vt 0.879787 0.879787
vt 0.000000 0.000000
vt 0.120213 0.120213
vt 0.000000 1.000000
vt 0.120213 0.879787
vt 1.000000 1.000000
vt 1.000000 0.000000
vt -0.000000 1.000000
vt -0.000000 0.000000
vt 0.000000 -0.000000
vt 1.000000 -0.000000
vt -0.000000 1.000000
vt 1.000000 1.000000
vt 0.000000 0.000000
vt 1.000000 0.000000
vt 0.000000 1.000000
vt 1.000000 1.000000
vt -0.000000 0.000000
vt 1.000000 0.000000
vt 0.000000 1.000000
vt 1.000000 1.000000
vt 1.000000 0.000000
vt 0.000000 0.000000
vt 1.000000 0.855995
vt 0.000000 0.855995
vt 0.375000 0.306970
vt 0.375000 0.500000
vt 0.625000 0.306970
vt 0.625000 0.500000
vt 0.681970 0.250000
vt 0.875000 0.250000
vt 0.681970 0.000000
vt 0.875000 0.000000
vt 0.120213 0.248215
vt 0.879787 0.248215
vt 0.120213 0.898407
vt 0.879787 0.898406
vt 0.318030 0.000000
vt 0.125000 0.000000
vt 0.318030 0.250000
vt 0.125000 0.250000
vt 0.375000 0.943030
vt 0.625000 0.943030
vt 0.375000 0.750000
vt 0.625000 0.750000
vt 0.975528 0.654508
vt 0.975528 0.654508
vn 0.000000 0.000000 1.000000
vn 0.000000 0.000000 1.000000
vn 0.000000 0.000000 1.000000
vn 0.000000 0.000000 1.000000
vn 0.000000 0.000000 1.000000
vn 0.000000 0.000000 1.000000
vn 0.000000 1.000000 0.000000
vn 0.000000 1.000000 0.000000
vn 0.000000 1.000000 0.000000
vn 0.000000 1.000000 0.000000
vn 0.000000 1.000000 0.000000
vn 0.000000 1.000000 0.000000
vn 0.000000 0.000000 -1.000000
vn 0.000000 0.000000 -1.000000
vn 0.000000 0.000000 -1.000000
vn 0.000000 0.000000 -1.000000
vn 0.000000 0.000000 -1.000000
vn 0.000000 0.000000 -1.000000
vn 0.000000 -1.000000 0.000000
vn 0.000000 -1.000000 0.000000
vn 0.000000 -1.000000 0.000000
vn 0.000000 -1.000000 0.000000
vn 0.000000 -1.000000 0.000000
vn 0.000000 -1.000000 0.000000
vn 1.000000 0.000000 0.000000
vn 1.000000 0.000000 0.000000
vn 1.000000 0.000000 0.000000
vn 1.000000 0.000000 0.000000
vn 1.000000 0.000000 0.000000
vn 1.000000 0.000000 0.000000
vn -1.000000 0.000000 0.000000
vn -1.000000 0.000000 0.000000
vn -1.000000 0.000000 0.000000
vn -1.000000 0.000000 0.000000
vn -1.000000 0.000000 0.000000
vn -1.000000 0.000000 0.000000
vn 0.000000 -1.000000 0.000000
vn 0.000000 -1.000000 0.000000
vn 0.000000 -1.000000 0.000000
vn 0.000000 -1.000000 0.000000
vn 0.000000 -1.000000 0.000000
vn 0.000000 -1.000000 0.000000
vn 0.000000 -1.000000 0.000000
vn 0.000000 -1.000000 0.000000
vn 0.000000 -1.000000 0.000000
vn 0.000000 -1.000000 0.000000
vn 0.000000 -1.000000 0.000000
vn 0.000000 -1.000000 0.000000
vn 0.000000 -1.000000 0.000000
vn 0.000000 -1.000000 0.000000
vn 0.000000 -1.000000 0.000000
vn 0.000000 -1.000000 0.000000
vn 0.000000 -1.000000 0.000000
vn 0.000000 -1.000000 0.000000
vn 0.000000 -1.000000 0.000000
vn 0.000000 -1.000000 0.000000
vn 0.000000 -1.000000 0.000000
vn 0.000000 -1.000000 0.000000
vn 0.000000 -1.000000 0.000000
vn 0.000000 -1.000000 0.000000
vn 0.000000 -1.000000 0.000000
vn 0.000000 -1.000000 0.000000
vn 0.000000 -1.000000 0.000000
vn 0.000000 -1.000000 0.000000
vn 0.000000 -1.000000 0.000000
vn 0.000000 -1.000000 0.000000
vn 0.000000 -1.000000 0.000000
vn 0.000000 -1.000000 0.000000
vn 0.000000 -1.000000 0.000000
vn 0.000000 -1.000000 0.000000
vn 0.000000 -1.000000 0.000000
vn 0.000000 -1.000000 0.000000
vn 0.000000 -1.000000 0.000000
vn 0.000000 -1.000000 0.000000
vn 0.000000 -1.000000 0.000000
vn 0.000000 -1.000000 0.000000
vn 0.000000 -1.000000 0.000000
vn 0.000000 -1.000000 0.000000
vn 0.000000 -1.000000 0.000000
vn 0.000000 -1.000000 0.000000
vn 0.000000 -1.000000 0.000000
vn 0.000000 -1.000000 0.000000
vn 0.000000 -1.000000 0.000000
vn 0.000000 -1.000000 0.000000
vn 0.000000 -1.000000 0.000000
vn 0.000000 -1.000000 0.000000
vn 0.000000 -1.000000 0.000000
vn 0.000000 -1.000000 0.000000
vn 0.000000 -1.000000 0.000000
vn 0.000000 -1.000000 0.000000
vn 0.000000 0.000000 1.000000
vn 0.000000 0.000000 1.000000
vn 0.000000 0.000000 1.000000
vn 0.000000 0.000000 1.000000
vn 0.000000 0.000000 1.000000
vn 0.000000 0.000000 1.000000
vn 0.000000 1.000000 0.000000
vn 0.000000 1.000000 0.000000
vn 0.000000 1.000000 0.000000
vn 0.000000 1.000000 0.000000
vn 0.000000 1.000000 0.000000
vn 0.000000 1.000000 0.000000
vn 0.000000 0.000000 -1.000000
vn 0.000000 0.000000 -1.000000
vn 0.000000 0.000000 -1.000000
vn 0.000000 0.000000 -1.000000
vn 0.000000 0.000000 -1.000000
vn 0.000000 0.000000 -1.000000
vn 0.000000 -1.000000 0.000000
vn 0.000000 -1.000000 0.000000
vn 0.000000 -1.000000 0.000000
vn 0.000000 -1.000000 0.000000
vn 0.000000 -1.000000 0.000000
vn 0.000000 -1.000000 0.000000
vn 1.000000 0.000000 0.000000
vn 1.000000 0.000000 0.000000
vn 1.000000 0.000000 0.000000
vn 1.000000 0.000000 0.000000
vn 1.000000 0.000000 0.000000
vn 1.000000 0.000000 0.000000
vn -1.000000 0.000000 0.000000
vn -1.000000 0.000000 0.000000
vn -1.000000 0.000000 0.000000
vn -1.000000 0.000000 0.000000
vn -1.000000 0.000000 0.000000
vn -1.000000 0.000000 0.000000
vn 0.000000 0.000000 1.000000
vn 0.000000 0.000000 1.000000
vn 0.000000 0.000000 1.000000
vn 0.000000 0.000000 1.000000
vn 0.000000 0.000000 1.000000
vn 0.000000 0.000000 1.000000
vn 0.000000 1.000000 0.000000
vn 0.000000 1.000000 0.000000
vn 0.000000 1.000000 0.000000
vn 0.000000 1.000000 0.000000
vn 0.000000 1.000000 0.000000
vn 0.000000 1.000000 0.000000
vn 0.000000 0.000000 -1.000000
vn 0.000000 0.000000 -1.000000
vn 0.000000 0.000000 -1.000000
vn 0.000000 0.000000 -1.000000
vn 0.000000 0.000000 -1.000000
vn 0.000000 0.000000 -1.000000
vn 0.000000 -1.000000 0.000000
vn 0.000000 -1.000000 0.000000
vn 0.000000 -1.000000 0.000000
vn 0.000000 -1.000000 0.000000
vn 0.000000 -1.000000 0.000000
vn 0.000000 -1.000000 0.000000
vn 1.000000 0.000000 0.000000
vn 1.000000 0.000000 0.000000
vn 1.000000 0.000000 0.000000
vn 1.000000 0.000000 0.000000
vn 1.000000 0.000000 0.000000
vn 1.000000 0.000000 0.000000
vn -1.000000 0.000000 0.000000
vn -1.000000 0.000000 0.000000
vn -1.000000 0.000000 0.000000
vn -1.000000 0.000000 0.000000
vn -1.000000 0.000000 0.000000
vn -1.000000 0.000000 0.000000
vn 0.000000 0.000000 1.000000
vn 0.000000 0.000000 1.000000
vn 0.000000 0.000000 1.000000
vn 0.000000 0.000000 1.000000
vn 0.000000 0.000000 1.000000
vn 0.000000 0.000000 1.000000
vn 0.000000 1.000000 0.000000
vn 0.000000 1.000000 0.000000
vn 0.000000 1.000000 0.000000
vn 0.000000 1.000000 0.000000
vn 0.000000 1.000000 0.000000
vn 0.000000 1.000000 0.000000
vn 0.000000 0.000000 -1.000000
vn 0.000000 0.000000 -1.000000
vn 0.000000 0.000000 -1.000000
vn 0.000000 0.000000 -1.000000
vn 0.000000 0.000000 -1.000000
vn 0.000000 0.000000 -1.000000
vn 0.000000 -1.000000 0.000000
vn 0.000000 -1.000000 0.000000
vn 0.000000 -1.000000 0.000000
vn 0.000000 -1.000000 0.000000
vn 0.000000 -1.000000 0.000000
vn 0.000000 -1.000000 0.000000
vn 1.000000 0.000000 0.000000
vn 1.000000 0.000000 0.000000
vn 1.000000 0.000000 0.000000
vn 1.000000 0.000000 0.000000
vn 1.000000 0.000000 0.000000
vn 1.000000 0.000000 0.000000
vn -1.000000 0.000000 0.000000
vn -1.000000 0.000000 0.000000
vn -1.000000 0.000000 0.000000
vn -1.000000 0.000000 0.000000
vn -1.000000 0.000000 0.000000
vn -1.000000 0.000000 0.000000
vn 0.000000 0.000000 1.000000
vn 0.000000 0.000000 1.000000
vn 0.000000 0.000000 1.000000
vn 0.000000 0.000000 1.000000
vn 0.000000 0.000000 1.000000
vn 0.000000 0.000000 1.000000
vn 0.000000 0.000000 1.000000
vn 0.000000 0.000000 1.000000
vn 0.000000 0.000000 1.000000
vn 0.000000 0.000000 1.000000
vn 0.000000 0.000000 1.000000
vn 0.000000 0.000000 1.000000
vn 0.000000 0.000000 1.000000
vn 0.000000 0.000000 1.000000
vn 0.000000 0.000000 1.000000
vn 0.000000 0.000000 1.000000
vn 0.000000 0.000000 1.000000
vn 0.000000 0.000000 1.000000
vn 0.000000 0.000000 1.000000
vn 0.000000 0.000000 1.000000
vn 0.000000 0.000000 1.000000
vn 0.000000 0.000000 1.000000
vn 0.000000 0.000000 1.000000
vn 0.000000 0.000000 1.000000
vn -1.000000 0.000000 0.000000
vn -1.000000 0.000000 0.000000
vn -1.000000 0.000000 0.000000
vn -1.000000 0.000000 0.000000
vn -1.000000 0.000000 0.000000
vn -1.000000 0.000000 0.000000
vn 0.000000 -1.000000 0.000000
vn 0.000000 -1.000000 0.000000
vn 0.000000 -1.000000 0.000000
vn 0.000000 -1.000000 0.000000
vn 0.000000 -1.000000 0.000000
vn 0.000000 -1.000000 0.000000
vn 1.000000 0.000000 0.000000
vn 1.000000 0.000000 0.000000
vn 1.000000 0.000000 0.000000
vn 1.000000 0.000000 0.000000
vn 1.000000 0.000000 0.000000
vn 1.000000 0.000000 0.000000
vn 0.000000 1.000000 0.000000
vn 0.000000 1.000000 0.000000
vn 0.000000 1.000000 0.000000
vn 0.000000 1.000000 0.000000
vn 0.000000 1.000000 0.000000
vn 0.000000 1.000000 0.000000
vn 0.000000 0.000000 -1.000000
vn 0.000000 0.000000 -1.000000
vn 0.000000 0.000000 -1.000000
vn 0.000000 0.000000 -1.000000
vn 0.000000 0.000000 -1.000000
vn 0.000000 0.000000 -1.000000
vn 0.000000 -1.000000 0.000000
vn 0.000000 -1.000000 0.000000
vn 0.000000 -1.000000 0.000000
vn 0.000000 -1.000000 0.000000
vn 0.000000 -1.000000 0.000000
vn 0.000000 -1.000000 0.000000
vn -1.000000 0.000000 0.000000
vn -1.000000 0.000000 0.000000
vn -1.000000 0.000000 0.000000
vn -1.000000 0.000000 0.000000
vn -1.000000 0.000000 0.000000
vn -1.000000 0.000000 0.000000
vn 0.000000 0.000000 1.000000
vn 0.000000 0.000000 1.000000
vn 0.000000 0.000000 1.000000
vn 0.000000 0.000000 1.000000
vn 0.000000 0.000000 1.000000
vn 0.000000 0.000000 1.000000
vn 1.000000 0.000000 0.000000
vn 1.000000 0.000000 0.000000
vn 1.000000 0.000000 0.000000
vn 1.000000 0.000000 0.000000
vn 1.000000 0.000000 0.000000
vn 1.000000 0.000000 0.000000
vn 0.000000 1.000000 0.000000
vn 0.000000 1.000000 0.000000
vn 0.000000 1.000000 0.000000
vn 0.000000 1.000000 0.000000
vn 0.000000 1.000000 0.000000
vn 0.000000 1.000000 0.000000
vn 0.000000 0.000000 1.000000
vn 0.000000 0.000000 1.000000
vn 0.000000 0.000000 1.000000
vn 0.000000 0.000000 1.000000
vn 0.000000 0.000000 1.000000
vn 0.000000 0.000000 1.000000
vn 0.000000 1.000000 0.000000
vn 0.000000 1.000000 0.000000
vn 0.000000 1.000000 0.000000
vn 0.000000 1.000000 0.000000
vn 0.000000 1.000000 0.000000
vn 0.000000 1.000000 0.000000
vn 0.000000 0.000000 -1.000000
vn 0.000000 0.000000 -1.000000
vn 0.000000 0.000000 -1.000000
vn 0.000000 0.000000 -1.000000
vn 0.000000 0.000000 -1.000000
vn 0.000000 0.000000 -1.000000
vn 0.000000 -1.000000 0.000000
vn 0.000000 -1.000000 0.000000
vn 0.000000 -1.000000 0.000000
vn 0.000000 -1.000000 0.000000
vn 0.000000 -1.000000 0.000000
vn 0.000000 -1.000000 0.000000
vn 1.000000 0.000000 0.000000
vn 1.000000 0.000000 0.000000
vn 1.000000 0.000000 0.000000
vn 1.000000 0.000000 0.000000
vn 1.000000 0.000000 0.000000
vn 1.000000 0.000000 0.000000
vn -1.000000 0.000000 0.000000
vn -1.000000 0.000000 0.000000
vn -1.000000 0.000000 0.000000
vn -1.000000 0.000000 0.000000
vn -1.000000 0.000000 0.000000
vn -1.000000 0.000000 0.000000
vn 0.000000 -1.000000 0.000000
vn 0.000000 -1.000000 0.000000
vn 0.000000 -1.000000 0.000000
vn 0.000000 -1.000000 0.000000
vn 0.000000 -1.000000 0.000000
vn 0.000000 -1.000000 0.000000
vn 0.000000 -1.000000 0.000000
vn 0.000000 -1.000000 0.000000
vn 0.000000 -1.000000 0.000000
vn 0.000000 -1.000000 0.000000
vn 0.000000 -1.000000 0.000000
vn 0.000000 -1.000000 0.000000
vn 0.000000 -1.000000 0.000000
vn 0.000000 -1.000000 0.000000
vn 0.000000 -1.000000 0.000000
vn 0.000000 -1.000000 0.000000
vn 0.000000 -1.000000 0.000000
vn 0.000000 -1.000000 0.000000
vn 0.000000 -1.000000 0.000000
vn 0.000000 -1.000000 0.000000
vn 0.000000 -1.000000 0.000000
vn 0.000000 -1.000000 0.000000
vn 0.000000 -1.000000 0.000000
vn 0.000000 -1.000000 0.000000
vn 0.000000 -1.000000 0.000000
vn 0.000000 -1.000000 0.000000
vn 0.000000 -1.000000 0.000000
vn 0.000000 -1.000000 0.000000
vn 0.000000 -1.000000 0.000000
vn 0.000000 -1.000000 0.000000
vn 0.000000 -1.000000 0.000000
vn 0.000000 -1.000000 0.000000
vn 0.000000 -1.000000 0.000000
vn 0.000000 -1.000000 0.000000
vn 0.000000 -1.000000 0.000000
vn 0.000000 -1.000000 0.000000
vn 0.000000 -1.000000 0.000000
vn 0.000000 -1.000000 0.000000
vn 0.000000 -1.000000 0.000000
vn 0.000000 -1.000000 0.000000
vn 0.000000 -1.000000 0.000000
vn 0.000000 -1.000000 0.000000
vn 0.000000 -1.000000 0.000000
vn 0.000000 -1.000000 0.000000
vn 0.000000 -1.000000 0.000000
vn 0.000000 -1.000000 0.000000
vn 0.000000 -1.000000 0.000000
vn 0.000000 -1.000000 0.000000
vn 0.000000 -1.000000 0.000000
vn 0.000000 -1.000000 0.000000
vn 0.000000 -1.000000 0.000000
vn 0.000000 -1.000000 0.000000
vn 0.000000 -1.000000 0.000000
vn 0.000000 -1.000000 0.000000
vn 0.000000 0.000000 1.000000
vn 0.000000 0.000000 1.000000
vn 0.000000 0.000000 1.000000
vn 0.000000 0.000000 1.000000
vn 0.000000 0.000000 1.000000
vn 0.000000 0.000000 1.000000
vn 0.000000 1.000000 0.000000
vn 0.000000 1.000000 0.000000
vn 0.000000 1.000000 0.000000
vn 0.000000 1.000000 0.000000
vn 0.000000 1.000000 0.000000
vn 0.000000 1.000000 0.000000
vn 0.000000 0.000000 -1.000000
vn 0.000000 0.000000 -1.000000
vn 0.000000 0.000000 -1.000000
vn 0.000000 0.000000 -1.000000
vn 0.000000 0.000000 -1.000000
vn 0.000000 0.000000 -1.000000
vn 0.000000 -1.000000 0.000000
vn 0.000000 -1.000000 0.000000
vn 0.000000 -1.000000 0.000000
vn 0.000000 -1.000000 0.000000
vn 0.000000 -1.000000 0.000000
vn 0.000000 -1.000000 0.000000
vn 1.000000 0.000000 0.000000
vn 1.000000 0.000000 0.000000
vn 1.000000 0.000000 0.000000
vn 1.000000 0.000000 0.000000
vn 1.000000 0.000000 0.000000
vn 1.000000 0.000000 0.000000
vn -1.000000 0.000000 0.000000
vn -1.000000 0.000000 0.000000
vn -1.000000 0.000000 0.000000
vn -1.000000 0.000000 0.000000
vn -1.000000 0.000000 0.000000
vn -1.000000 0.000000 0.000000
vn 0.000000 0.000000 1.000000
vn 0.000000 0.000000 1.000000
vn 0.000000 0.000000 1.000000
vn 0.000000 0.000000 1.000000
vn 0.000000 0.000000 1.000000
vn 0.000000 0.000000 1.000000
vn 0.000000 1.000000 0.000000
vn 0.000000 1.000000 0.000000
vn 0.000000 1.000000 0.000000
vn 0.000000 1.000000 0.000000
vn 0.000000 1.000000 0.000000
vn 0.000000 1.000000 0.000000
vn 0.000000 0.000000 -1.000000
vn 0.000000 0.000000 -1.000000
vn 0.000000 0.000000 -1.000000
vn 0.000000 0.000000 -1.000000
vn 0.000000 0.000000 -1.000000
vn 0.000000 0.000000 -1.000000
vn 0.000000 -1.000000 0.000000
vn 0.000000 -1.000000 0.000000
vn 0.000000 -1.000000 0.000000
vn 0.000000 -1.000000 0.000000
vn 0.000000 -1.000000 0.000000
vn 0.000000 -1.000000 0.000000
vn 1.000000 0.000000 0.000000
vn 1.000000 0.000000 0.000000
vn 1.000000 0.000000 0.000000
vn 1.000000 0.000000 0.000000
vn 1.000000 0.000000 0.000000
vn 1.000000 0.000000 0.000000
vn -1.000000 0.000000 0.000000
vn -1.000000 0.000000 0.000000
vn -1.000000 0.000000 0.000000
vn -1.000000 0.000000 0.000000
vn -1.000000 0.000000 0.000000
vn -1.000000 0.000000 0.000000
vn 0.000000 0.000000 1.000000
vn 0.000000 0.000000 1.000000
vn 0.000000 0.000000 1.000000
vn 0.000000 0.000000 1.000000
vn 0.000000 0.000000 1.000000
vn 0.000000 0.000000 1.000000
vn 0.000000 1.000000 0.000000
vn 0.000000 1.000000 0.000000
vn 0.000000 1.000000 0.000000
vn 0.000000 1.000000 0.000000
vn 0.000000 1.000000 0.000000
vn 0.000000 1.000000 0.000000
vn 0.000000 0.000000 -1.000000
vn 0.000000 0.000000 -1.000000
vn 0.000000 0.000000 -1.000000
vn 0.000000 0.000000 -1.000000
vn 0.000000 0.000000 -1.000000
vn 0.000000 0.000000 -1.000000
vn 0.000000 -1.000000 0.000000
vn 0.000000 -1.000000 0.000000
vn 0.000000 -1.000000 0.000000
vn 0.000000 -1.000000 0.000000
vn 0.000000 -1.000000 0.000000
vn 0.000000 -1.000000 0.000000
vn 1.000000 0.000000 0.000000
vn 1.000000 0.000000 0.000000
vn 1.000000 0.000000 0.000000
vn 1.000000 0.000000 0.000000
vn 1.000000 0.000000 0.000000
vn 1.000000 0.000000 0.000000
vn -1.000000 0.000000 0.000000
vn -1.000000 0.000000 0.000000
vn -1.000000 0.000000 0.000000
vn -1.000000 0.000000 0.000000
vn -1.000000 0.000000 0.000000
vn -1.000000 0.000000 0.000000
vn 0.000000 0.000000 1.000000
vn 0.000000 0.000000 1.000000
vn 0.000000 0.000000 1.000000
vn 0.000000 0.000000 1.000000
vn 0.000000 0.000000 1.000000
vn 0.000000 0.000000 1.000000
vn 0.000000 0.000000 1.000000
vn 0.000000 0.000000 1.000000
vn 0.000000 0.000000 1.000000
vn 0.000000 0.000000 1.000000
vn 0.000000 0.000000 1.000000
vn 0.000000 0.000000 1.000000
vn 0.000000 0.000000 1.000000
vn 0.000000 0.000000 1.000000
vn 0.000000 0.000000 1.000000
vn 0.000000 0.000000 1.000000
vn 0.000000 0.000000 1.000000
vn 0.000000 0.000000 1.000000
vn 0.000000 0.000000 1.000000
vn 0.000000 0.000000 1.000000
vn 0.000000 0.000000 1.000000
vn 0.000000 0.000000 1.000000
vn 0.000000 0.000000 1.000000
vn 0.000000 0.000000 1.000000
vn -1.000000 0.000000 0.000000
vn -1.000000 0.000000 0.000000
vn -1.000000 0.000000 0.000000
vn -1.000000 0.000000 0.000000
vn -1.000000 0.000000 0.000000
vn -1.000000 0.000000 0.000000
vn 0.000000 -1.000000 0.000000
vn 0.000000 -1.000000 0.000000
vn 0.000000 -1.000000 0.000000
vn 0.000000 -1.000000 0.000000
vn 0.000000 -1.000000 0.000000
vn 0.000000 -1.000000 0.000000
vn 1.000000 0.000000 0.000000
vn 1.000000 0.000000 0.000000
vn 1.000000 0.000000 0.000000
vn 1.000000 0.000000 0.000000
vn 1.000000 0.000000 0.000000
vn 1.000000 0.000000 0.000000
vn 0.000000 1.000000 0.000000
vn 0.000000 1.000000 0.000000
vn 0.000000 1.000000 0.000000
vn 0.000000 1.000000 0.000000
vn 0.000000 1.000000 0.000000
vn 0.000000 1.000000 0.000000
vn 0.000000 0.000000 -1.000000
vn 0.000000 0.000000 -1.000000
vn 0.000000 0.000000 -1.000000
vn 0.000000 0.000000 -1.000000
vn 0.000000 0.000000 -1.000000
vn 0.000000 0.000000 -1.000000
vn 0.000000 -1.000000 0.000000
vn 0.000000 -1.000000 0.000000
vn 0.000000 -1.000000 0.000000
vn 0.000000 -1.000000 0.000000
vn 0.000000 -1.000000 0.000000
vn 0.000000 -1.000000 0.000000
vn -1.000000 0.000000 0.000000
vn -1.000000 0.000000 0.000000
vn -1.000000 0.000000 0.000000
vn -1.000000 0.000000 0.000000
vn -1.000000 0.000000 0.000000
vn -1.000000 0.000000 0.000000
vn 0.000000 0.000000 1.000000
vn 0.000000 0.000000 1.000000
vn 0.000000 0.000000 1.000000
vn 0.000000 0.000000 1.000000
vn 0.000000 0.000000 1.000000
vn 0.000000 0.000000 1.000000
vn 1.000000 0.000000 0.000000
vn 1.000000 0.000000 0.000000
vn 1.000000 0.000000 0.000000
vn 1.000000 0.000000 0.000000
vn 1.000000 0.000000 0.000000
vn 1.000000 0.000000 0.000000
vn 0.000000 1.000000 0.000000
vn 0.000000 1.000000 0.000000
vn 0.000000 1.000000 0.000000
vn 0.000000 1.000000 0.000000
vn 0.000000 1.000000 0.000000
vn 0.000000 1.000000 0.000000
s off
g polySurface3 PC:group_pasted__group2_pasted__pasted__group_pasted__pasted__pasted__pCube1
usemtl PC:phong2SG
f 1/1/1 2/2/2 3/3/3
f 3/3/4 2/2/5 4/4/6
usemtl PC:initialShadingGroup
f 3/5/7 4/6/8 5/7/9
f 5/7/10 4/6/11 6/8/12
f 5/7/13 6/8/14 7/9/15
f 7/9/16 6/8/17 8/10/18
f 7/9/19 8/10/20 1/11/21
f 1/11/22 8/10/23 2/12/24
f 2/13/25 8/14/26 4/6/27
f 4/6/28 8/14/29 6/15/30
f 7/16/31 1/17/32 5/18/33
f 5/18/34 1/17/35 3/5/36
usemtl PC:phong1SG
f 9/312/37 12/21/38 10/19/39
f 12/21/40 14/23/41 10/19/42
f 14/23/43 16/25/44 10/19/45
f 16/25/46 18/27/47 10/19/48
f 18/27/49 20/29/50 10/19/51
f 20/29/52 22/31/53 10/19/54
f 22/31/55 24/33/56 10/19/57
f 24/33/58 26/35/59 10/19/60
f 26/35/61 28/37/62 10/19/63
f 28/37/64 27/36/65 10/19/66
f 27/36/67 25/34/68 10/19/69
f 25/34/70 23/32/71 10/19/72
f 23/32/73 21/30/74 10/19/75
f 21/30/76 19/28/77 10/19/78
f 19/28/79 17/26/80 10/19/81
f 17/26/82 15/24/83 10/19/84
f 15/24/85 13/22/86 10/19/87
f 13/22/88 11/20/89 10/19/90
usemtl PC:initialShadingGroup
f 29/38/91 30/39/92 31/40/93
f 31/40/94 30/39/95 32/41/96
usemtl PC:lambert2SG
f 31/42/97 32/43/98 33/44/99
f 33/44/100 32/43/101 34/45/102
f 33/46/103 34/47/104 35/48/105
f 35/48/106 34/47/107 36/49/108
f 35/50/109 36/51/110 29/52/111
f 29/52/112 36/51/113 30/53/114
f 30/54/115 36/55/116 32/56/117
f 32/56/118 36/55/119 34/57/120
f 35/58/121 29/38/122 33/59/123
f 33/59/124 29/38/125 31/40/126
f 37/60/127 38/61/128 39/62/129
f 39/62/130 38/61/131 40/63/132
usemtl PC:lambert3SG
f 39/64/133 40/65/134 41/66/135
f 41/66/136 40/65/137 42/67/138
usemtl PC:initialShadingGroup
f 41/68/139 42/69/140 43/70/141
f 43/70/142 42/69/143 44/71/144
usemtl PC:lambert2SG
f 43/72/145 44/73/146 37/74/147
f 37/74/148 44/73/149 38/75/150
f 38/76/151 44/77/152 40/78/153
f 40/78/154 44/77/155 42/79/156
f 43/80/157 37/81/158 41/82/159
f 41/82/160 37/81/161 39/83/162
usemtl PC:lambert4SG
f 45/84/163 46/85/164 47/86/165
f 47/86/166 46/85/167 48/87/168
f 47/88/169 48/89/170 49/90/171
f 49/90/172 48/89/173 50/91/174
f 49/92/175 50/93/176 51/94/177
f 51/94/178 50/93/179 52/95/180
f 51/96/181 52/97/182 45/98/183
f 45/98/184 52/97/185 46/99/186
f 46/100/187 52/101/188 48/102/189
f 48/102/190 52/101/191 50/103/192
f 51/104/193 45/105/194 49/106/195
f 49/106/196 45/105/197 47/107/198
usemtl PC:lambert2SG
f 53/108/199 58/109/200 54/110/201
f 54/110/202 58/109/203 57/111/204
f 53/108/205 54/110/206 60/112/207
f 54/110/208 55/113/209 60/112/210
f 60/112/211 55/113/212 59/114/213
f 55/113/214 56/115/215 59/114/216
f 58/109/217 59/114/218 57/111/219
f 56/115/220 57/111/221 59/114/222
f 53/116/223 60/117/224 61/118/225
f 61/118/226 60/117/227 62/119/228
f 53/120/229 61/121/230 58/122/231
f 58/122/232 61/121/233 63/123/234
f 58/124/235 63/125/236 59/126/237
f 59/126/238 63/125/239 64/127/240
f 59/128/241 64/129/242 60/130/243
f 60/130/244 64/129/245 62/131/246
f 61/132/247 62/133/248 63/134/249
f 63/134/250 62/133/251 64/135/252
f 55/136/253 65/137/254 56/138/255
f 56/138/256 65/137/257 66/139/258
f 56/140/259 66/141/260 57/142/261
f 57/142/262 66/141/263 67/143/264
f 65/144/265 68/145/266 66/146/267
f 66/146/268 68/145/269 67/147/270
f 54/148/271 68/149/272 55/150/273
f 55/150/274 68/149/275 65/151/276
f 54/152/277 57/153/278 68/154/279
f 68/154/280 57/153/281 67/155/282
f 69/156/283 70/157/284 71/158/285
f 71/158/286 70/157/287 72/159/288
f 71/160/289 72/161/290 73/162/291
f 73/162/292 72/161/293 74/163/294
f 73/162/295 74/163/296 75/164/297
f 75/164/298 74/163/299 76/165/300
f 75/164/301 76/165/302 69/166/303
f 69/166/304 76/165/305 70/167/306
f 70/168/307 76/169/308 72/161/309
f 72/161/310 76/169/311 74/170/312
f 75/171/313 69/172/314 73/173/315
f 73/173/316 69/172/317 71/160/318
f 77/311/319 80/176/320 78/174/321
f 80/176/322 82/178/323 78/174/324
f 82/178/325 84/180/326 78/174/327
f 84/180/328 86/182/329 78/174/330
f 86/182/331 88/184/332 78/174/333
f 88/184/334 90/186/335 78/174/336
f 90/186/337 92/188/338 78/174/339
f 92/188/340 94/190/341 78/174/342
f 94/190/343 96/192/344 78/174/345
f 96/192/346 95/191/347 78/174/348
f 95/191/349 93/189/350 78/174/351
f 93/189/352 91/187/353 78/174/354
f 91/187/355 89/185/356 78/174/357
f 89/185/358 87/183/359 78/174/360
f 87/183/361 85/181/362 78/174/363
f 85/181/364 83/179/365 78/174/366
f 83/179/367 81/177/368 78/174/369
f 81/177/370 79/175/371 78/174/372
f 97/193/373 98/194/374 99/195/375
f 99/195/376 98/194/377 100/196/378
f 99/197/379 100/198/380 101/199/381
f 101/199/382 100/198/383 102/200/384
f 101/201/385 102/202/386 103/203/387
f 103/203/388 102/202/389 104/204/390
f 103/205/391 104/206/392 97/207/393
f 97/207/394 104/206/395 98/208/396
f 98/209/397 104/210/398 100/211/399
f 100/211/400 104/210/401 102/212/402
f 103/213/403 97/193/404 101/214/405
f 101/214/406 97/193/407 99/195/408
f 105/215/409 106/216/410 107/217/411
f 107/217/412 106/216/413 108/218/414
f 107/219/415 108/220/416 109/221/417
f 109/221/418 108/220/419 110/222/420
f 109/223/421 110/224/422 111/225/423
f 111/225/424 110/224/425 112/226/426
f 111/227/427 112/228/428 105/229/429
f 105/229/430 112/228/431 106/230/432
f 106/231/433 112/232/434 108/233/435
f 108/233/436 112/232/437 110/234/438
f 111/235/439 105/236/440 109/237/441
f 109/237/442 105/236/443 107/238/444
f 113/239/445 114/240/446 115/241/447
f 115/241/448 114/240/449 116/242/450
f 115/243/451 116/244/452 117/245/453
f 117/245/454 116/244/455 118/246/456
f 117/247/457 118/248/458 119/249/459
f 119/249/460 118/248/461 120/250/462
f 119/251/463 120/252/464 113/253/465
f 113/253/466 120/252/467 114/254/468
f 114/255/469 120/256/470 116/257/471
f 116/257/472 120/256/473 118/258/474
f 119/259/475 113/260/476 117/261/477
f 117/261/478 113/260/479 115/262/480
f 121/263/481 126/264/482 122/265/483
f 122/265/484 126/264/485 125/266/486
f 121/263/487 122/265/488 128/267/489
f 122/265/490 123/268/491 128/267/492
f 128/267/493 123/268/494 127/269/495
f 123/268/496 124/270/497 127/269/498
f 126/264/499 127/269/500 125/266/501
f 124/270/502 125/266/503 127/269/504
f 121/271/505 128/272/506 129/273/507
f 129/273/508 128/272/509 130/274/510
f 121/275/511 129/276/512 126/277/513
f 126/277/514 129/276/515 131/278/516
f 126/279/517 131/280/518 127/281/519
f 127/281/520 131/280/521 132/282/522
f 127/283/523 132/284/524 128/285/525
f 128/285/526 132/284/527 130/286/528
f 129/287/529 130/288/530 131/289/531
f 131/289/532 130/288/533 132/290/534
f 123/291/535 133/292/536 124/293/537
f 124/293/538 133/292/539 134/294/540
f 124/295/541 134/296/542 125/297/543
f 125/297/544 134/296/545 135/298/546
f 133/299/547 136/300/548 134/301/549
f 134/301/550 136/300/551 135/302/552
f 122/303/553 136/304/554 123/305/555
f 123/305/556 136/304/557 133/306/558
f 122/307/559 125/308/560 136/309/561
f 136/309/562 125/308/563 135/310/564
