# This file uses centimeters as units for non-parametric coordinates.

mtllib Mostrador2.mtl
g default
v -3.996718 1.813303 -3.896075
v -3.896717 1.813303 -3.916302
v -3.902930 1.248037 -3.920619
v -3.946717 1.113303 -3.909855
v -3.921720 1.253304 -3.914827
v -3.946717 1.228306 -3.909855
v -3.896717 1.253304 -6.972030
v -3.946717 1.228306 -6.970813
v -3.996718 1.813303 -6.999122
v -3.896718 1.813303 -6.996850
v -3.946717 1.113303 -6.966640
v -3.921720 1.253304 -6.971611
v -3.987622 1.957854 -7.016386
v -3.996718 1.963318 -3.896075
v -3.001706 1.113303 -4.401572
v -3.851721 2.113303 -3.926202
v -3.001706 1.113303 -6.937953
v -3.851721 2.113303 -7.030336
v -3.001706 1.943317 -4.401571
v -3.051493 2.063516 -4.377768
v -3.171692 2.113303 -4.304649
v -3.001706 1.943317 -7.010373
v -3.119427 2.054549 -7.025486
v -3.171692 2.113303 -7.030337
vt 0.209857 0.162327
vt 0.990194 0.168672
vt 0.996542 0.843359
vt 0.208753 0.843359
vt 0.039305 0.018128
vt 0.039290 0.015972
vt 0.051198 0.015972
vt 0.051198 0.018142
vt 1.000002 0.000416
vt 1.000002 0.000416
vt 0.000002 0.000416
vt 0.000002 0.000416
vt 0.086934 0.477002
vt -0.146633 0.478607
vt -0.148024 0.499222
vt 0.086934 0.500002
vt 0.132814 0.984047
vt 0.133363 0.984124
vt 0.133782 0.974798
vt 0.133275 0.974832
vt 0.051198 0.019676
vt 0.039320 0.019665
vt 0.332851 0.000000
vt 0.332851 1.000000
vt 1.000000 1.000000
vt 0.981480 0.000000
vt -0.000000 0.200038
vt -0.000000 1.000000
vt 0.087096 1.000000
vt 0.087096 0.297567
vt 1.000000 0.964411
vt 0.507030 0.973341
vt 0.325905 0.001753
vt 1.000000 0.007294
vt 0.000000 1.000000
vt 0.000000 0.000000
vn -0.994601 0.000000 0.103770
vn -1.000000 0.000000 0.000000
vn -0.994601 0.000000 0.103770
vn -1.000000 0.000000 0.000000
vn -0.980647 0.164975 0.105426
vn -0.984458 0.175622 0.000000
vn -0.477891 0.876935 0.051050
vn -0.447564 0.894252 0.000000
vn -0.994257 0.000000 0.107023
vn -1.000000 0.000000 0.000000
vn -0.980647 0.164975 0.105426
vn -0.984458 0.175622 0.000000
vn -0.858793 -0.503402 0.095191
vn -0.825921 -0.563425 0.020199
vn -0.980160 0.166136 0.108096
vn -0.987000 0.157447 0.032258
vn 0.000000 -1.000000 0.000000
vn -0.825921 -0.563425 0.020199
vn -0.000001 -1.000000 0.000000
vn -0.858793 -0.503402 0.095191
vn 0.000002 1.000000 0.000000
vn 0.000002 1.000000 0.000000
vn -0.447564 0.894252 0.000000
vn -0.477891 0.876935 0.051050
vn 0.994072 0.000000 -0.108726
vn 0.992335 0.061074 -0.107427
vn 0.999879 -0.008446 0.013065
vn 0.998866 0.041608 0.023126
vn -0.080696 0.996703 0.008436
vn -0.077288 0.989522 0.121955
vn 0.029335 0.999559 -0.004535
vn 0.058322 0.990238 0.126598
vn 0.626492 0.776107 -0.071865
vn 0.789997 0.605081 0.098903
vn 0.992335 0.061074 -0.107427
vn 0.998866 0.041608 0.023126
vn 0.029335 0.999559 -0.004535
vn 0.058322 0.990238 0.126598
vn 0.626492 0.776107 -0.071865
vn 0.789997 0.605081 0.098903
s 1
g Mostrador:Mostrador:pasted__polySurface3pasted__polySurface2pasted__PC_Scenegroup1
usemtl Mostrador:lambert5SG
f 3/1/1 7/2/2 2/4/3
f 2/4/3 7/2/2 10/3/4
s 2
usemtl Mostrador:lambert6SG
f 6/6/5 8/7/6 5/5/7
f 5/5/7 8/7/6 12/8/8
s 3
f 4/9/9 11/10/10 6/12/11
f 6/12/11 11/10/10 8/11/12
s 4
usemtl Mostrador:lambert4SG
f 1/13/13 9/14/14 14/16/15
f 14/16/15 9/14/14 13/15/16
s 5
f 10/17/17 9/18/18 2/20/19
f 2/20/19 9/18/18 1/19/20
s 6
usemtl Mostrador:pasted__PC_SceneSG1
f 7/21/21 3/22/22 12/8/23
f 12/8/23 3/22/22 5/5/24
s 7
usemtl Mostrador:lambert5SG
f 15/23/25 19/24/26 17/26/27
f 17/26/27 19/24/26 22/25/28
s 8
usemtl Mostrador:lambert4SG
f 16/27/29 18/28/30 21/30/31
f 21/30/31 18/28/30 24/29/32
s 9
f 20/32/33 23/33/34 19/31/35
f 19/31/35 23/33/34 22/34/36
s 10
f 21/35/37 24/36/38 20/32/39
f 20/32/39 24/36/38 23/33/40
g default
v 3.000000 1.113303 -4.401572
v 3.850015 2.113303 -3.694782
v 3.000000 1.113303 -6.937953
v 3.850015 2.113303 -7.030336
v 3.000000 1.943317 -4.401571
v 3.049788 2.063516 -4.377768
v 3.169986 2.113303 -4.432317
v 3.000000 1.943317 -7.010373
v 3.117722 2.054549 -7.025486
v 3.169986 2.113303 -7.030337
vt 0.332851 0.000000
vt 0.332851 1.000000
vt 1.000000 1.000000
vt 0.981480 0.000000
vt 0.986417 0.140399
vt 0.986417 1.000000
vt 0.899321 1.000000
vt 0.899321 0.330468
vt 0.831202 0.880210
vt 0.859629 0.894156
vt 0.014473 0.988353
vt -0.000000 0.963220
vt 0.850883 0.917334
vt 0.023116 1.000000
vn -0.994072 0.000000 -0.108726
vn -0.992335 0.061074 -0.107427
vn -0.999879 -0.008446 0.013065
vn -0.998866 0.041608 0.023126
vn 0.080696 0.996703 0.008436
vn 0.077288 0.989522 0.121955
vn -0.029335 0.999559 -0.004535
vn -0.058322 0.990238 0.126598
vn -0.626492 0.776107 -0.071865
vn -0.789997 0.605081 0.098903
vn -0.992335 0.061074 -0.107427
vn -0.998866 0.041608 0.023126
vn -0.626492 0.776107 -0.071865
vn -0.029335 0.999559 -0.004535
vn -0.789997 0.605081 0.098903
vn -0.058322 0.990238 0.126598
s 1
g Mostrador:polySurface3 Mostrador:PC_ScenepolySurface2polySurface4
usemtl Mostrador:lambert5SG
f 25/37/41 29/38/42 27/40/43
f 27/40/43 29/38/42 32/39/44
s 2
usemtl Mostrador:lambert4SG
f 26/41/45 28/42/46 31/44/47
f 31/44/47 28/42/46 34/43/48
s 3
f 30/46/49 33/47/50 29/45/51
f 29/45/51 33/47/50 32/48/52
s 4
f 30/46/53 31/49/54 33/47/55
f 33/47/55 31/49/54 34/50/56
g default
v 3.957092 2.069373 -3.908648
v 3.957092 2.069373 -7.015661
v 3.851037 2.113303 -7.030336
v 3.851037 2.113303 -3.694782
vt 0.894867 0.523451
vt 0.913218 0.516434
vt 1.149058 0.515229
vt 1.153523 0.521966
vn 0.382688 0.923878 0.000000
vn 0.382688 0.923878 0.000000
vn 0.382688 0.923878 0.000000
vn 0.382688 0.923878 0.000000
s 1
g Mostrador:PC_ScenepolySurface2polySurface4 Mostrador:polySurface2
usemtl Mostrador:lambert4SG
f 38/51/57 35/52/58 37/54/59
f 37/54/59 35/52/58 36/53/60
g default
v 3.956070 2.069373 -3.902490
v 4.000000 1.963318 -3.896440
v 4.000000 1.963318 -7.015515
v 3.956070 2.069373 -7.016655
vt 0.912759 0.516428
vt 0.913224 0.500002
vt 1.147638 0.500002
vt 1.149122 0.515228
vn 0.923878 0.382688 0.000000
vn 0.923877 0.382691 0.000000
vn 0.923878 0.382688 0.000000
vn 0.923876 0.382691 0.000000
s 1
g Mostrador:polySurface1PC_Scene
usemtl Mostrador:lambert4SG
f 40/56/61 41/57/62 39/55/63
f 39/55/63 41/57/62 42/58/64
g default
v 4.000000 1.813303 -3.896075
v 3.900000 1.813303 -4.003202
v 3.900000 1.253304 -4.003201
v 3.950000 1.113303 -3.909855
v 3.925003 1.253304 -3.914827
v 3.950000 1.228306 -3.909855
v 3.900000 1.253304 -6.972030
v 3.950000 1.228306 -6.970813
v 4.000000 1.813303 -6.999122
v 3.900000 1.813303 -6.996850
v 3.950000 1.113303 -6.966640
v 3.925003 1.253304 -6.971611
v 4.000000 1.963318 -7.005044
v 4.000000 1.963318 -3.896075
vt 0.230976 0.168672
vt 0.990194 0.168672
vt 0.996542 0.843359
vt 0.230976 0.843359
vt 0.039305 0.018128
vt 0.039290 0.015972
vt 0.051198 0.015972
vt 0.051198 0.018142
vt 0.999998 1.000000
vt 0.999998 1.000000
vt -0.000002 1.000000
vt -0.000002 1.000000
vt 0.913197 0.477020
vt 1.146592 0.478621
vt 1.146970 0.500002
vt 0.913197 0.500002
vt 0.132814 0.984047
vt 0.133363 0.984124
vt 0.133782 0.974798
vt 0.133275 0.974832
vt 0.051198 0.019676
vt 0.039320 0.019665
vn 1.000000 0.000000 0.000000
vn 1.000000 -0.000001 0.000000
vn 1.000000 -0.000000 0.000000
vn 1.000000 -0.000001 0.000000
vn 0.980647 0.164975 0.105426
vn 0.984458 0.175622 0.000000
vn 0.477891 0.876935 0.051050
vn 0.447564 0.894252 0.000000
vn 0.994257 0.000000 0.107023
vn 1.000000 0.000000 0.000000
vn 0.980647 0.164975 0.105426
vn 0.984458 0.175622 0.000000
vn 0.858793 -0.503402 0.095191
vn 0.825921 -0.563425 0.020199
vn 0.980160 0.166136 0.108096
vn 0.987000 0.157447 0.032258
vn 0.000000 -1.000000 0.000000
vn 0.825921 -0.563425 0.020199
vn 0.000001 -1.000000 0.000000
vn 0.858793 -0.503402 0.095191
vn -0.000002 1.000000 -0.000000
vn -0.000002 1.000000 -0.000000
vn 0.447564 0.894252 0.000000
vn 0.477891 0.876935 0.051050
s 1
g Mostrador:PC_ScenepolySurface2polySurface3
usemtl Mostrador:lambert5SG
f 45/59/65 49/60/66 44/62/67
f 44/62/67 49/60/66 52/61/68
s 2
usemtl Mostrador:lambert6SG
f 48/64/69 50/65/70 47/63/71
f 47/63/71 50/65/70 54/66/72
s 3
f 46/67/73 53/68/74 48/70/75
f 48/70/75 53/68/74 50/69/76
s 4
usemtl Mostrador:lambert4SG
f 43/71/77 51/72/78 56/74/79
f 56/74/79 51/72/78 55/73/80
s 5
usemtl Mostrador:PC_SceneSG
f 52/75/81 51/76/82 44/78/83
f 44/78/83 51/76/82 43/77/84
s 6
usemtl Mostrador:lambert6SG
f 49/79/85 45/80/86 54/66/87
f 54/66/87 45/80/86 47/63/88
g default
v -0.867952 2.124758 -3.149985
v 0.867952 2.124758 -3.149985
v -0.867952 2.124758 -3.964299
v 0.867952 2.124758 -3.964299
v 0.000000 2.124758 -3.149985
v 0.000000 2.124758 -3.964299
v 2.586069 1.113303 -4.107961
v 2.836422 1.113303 -4.163578
v 3.736423 1.813303 -3.263577
v 3.100090 1.813303 -3.000000
v 3.659886 1.813303 -3.340114
v 3.080199 1.813303 -3.100000
v 3.080199 1.253304 -3.100000
v 3.659886 1.253303 -3.340114
v 3.090145 1.113303 -3.050000
v 3.698154 1.113303 -3.301846
v 3.085371 1.253304 -3.075058
v 3.090145 1.228305 -3.050000
v 3.679022 1.253304 -3.320978
v 3.698154 1.228306 -3.301846
v 3.100090 1.963318 -3.000000
v 3.091352 2.069373 -3.043929
v 3.070256 2.113303 -3.149985
v 3.621629 2.113303 -3.378371
v 3.702800 2.069373 -3.297200
v 3.736423 1.963318 -3.263577
v 0.000000 1.113303 -3.050000
v 0.000000 1.228306 -3.050000
v 0.000000 1.253304 -3.075027
v 0.000000 1.253303 -3.100000
v 0.000000 1.813303 -3.100000
v 0.000000 1.813303 -3.000000
v 0.000000 1.963318 -3.000000
v 0.000000 2.069373 -3.043929
v 0.000000 2.113303 -3.149985
v 0.000000 1.113303 -4.107961
v -2.586069 1.113303 -4.107961
v -2.836422 1.113303 -4.163578
v -3.000000 1.113303 -4.406567
v -4.000000 1.813303 -3.899910
v -3.736423 1.813303 -3.263577
v -3.100090 1.813303 -3.000000
v -3.659886 1.813303 -3.340114
v -3.080199 1.813303 -3.100000
v -3.900000 1.813303 -3.919801
v -3.080199 1.253304 -3.100000
v -3.659886 1.253303 -3.340114
v -3.900000 1.253304 -3.919801
v -3.090145 1.113303 -3.050000
v -3.698154 1.113303 -3.301846
v -3.950000 1.113303 -3.909855
v -3.085371 1.253304 -3.075058
v -3.090145 1.228305 -3.050000
v -3.679022 1.253304 -3.320978
v -3.698154 1.228306 -3.301846
v -3.925003 1.253304 -3.914827
v -3.950000 1.228306 -3.909855
v -3.100090 1.963318 -3.000000
v -3.091352 2.069373 -3.043929
v -3.070256 2.113303 -3.149985
v -3.621629 2.113303 -3.378371
v -3.702800 2.069373 -3.297200
v -3.736423 1.963318 -3.263577
v -3.850015 2.113303 -3.929744
v -3.956070 2.069373 -3.908648
v -4.000000 1.963318 -3.899910
v 2.836422 1.943317 -4.163578
v 2.874528 2.063516 -4.125472
v 2.966524 2.113303 -4.033476
v 2.586069 1.943317 -4.107961
v 2.614587 2.063516 -4.065883
v 2.683433 2.113303 -3.964299
v 0.000000 2.113303 -3.964299
v 0.000000 2.063516 -4.065883
v 0.000000 1.943317 -4.107961
v -3.000000 1.943317 -4.406567
v -3.049788 2.063516 -4.377768
v -3.169986 2.113303 -4.308241
v -2.836422 1.943317 -4.163578
v -2.874528 2.063516 -4.125472
v -2.966524 2.113303 -4.033476
v -2.586069 1.943317 -4.107961
v -2.614587 2.063516 -4.065883
v -2.683433 2.113303 -3.964299
v 3.900000 1.253304 -4.003201
v 3.900000 1.813303 -4.003202
v 3.925003 1.253304 -3.914827
v 3.950000 1.228306 -3.909855
v 3.950000 1.113303 -3.909855
v 4.000000 1.813303 -3.896075
v 4.000000 1.963318 -3.896075
v 3.956070 2.069373 -3.908648
v 3.850015 2.113303 -3.694782
v 3.169986 2.113303 -4.432317
v 3.049788 2.063516 -4.377768
v 3.000000 1.943317 -4.401571
v 3.000000 1.113303 -4.401572
vt 0.782458 0.870936
vt 0.687111 0.870936
vt 0.687111 0.781482
vt 0.782458 0.781482
vt 0.687112 0.781482
vt 0.687112 0.870936
vt 0.782458 0.870936
vt 0.782458 0.781482
vt 0.933507 0.444539
vt 0.964249 0.452554
vt 0.964249 0.549162
vt 0.933507 0.557464
vt 1.020402 0.455275
vt 1.020402 0.546344
vt 0.133820 0.971969
vt 0.133606 0.969094
vt 0.133057 0.969026
vt 0.133354 0.971982
vt 0.133782 0.974798
vt 0.133275 0.974832
vt 0.030459 0.018135
vt 0.030480 0.015972
vt 0.034885 0.015972
vt 0.034885 0.018093
vt 0.039290 0.015972
vt 0.039305 0.018128
vt 0.999999 0.891158
vt 0.999999 0.968121
vt -0.000001 0.968121
vt 0.000008 0.891158
vt 0.999998 1.000000
vt -0.000002 1.000000
vt 0.034884 0.019642
vt 0.030435 0.019668
vt 0.039320 0.019665
vt 0.826261 0.526567
vt 0.819342 0.518413
vt 0.861756 0.516539
vt 0.864917 0.524016
vt 0.816558 0.500003
vt 0.860495 0.500002
vt 0.860495 0.476869
vt 0.913197 0.477020
vt 0.913197 0.500002
vt 0.816558 0.474188
vt 0.913218 0.516434
vt 0.894867 0.523451
vt 0.000000 0.500000
vt 1.000000 0.500000
vt 0.009201 0.018141
vt 0.009201 0.015972
vt 0.009201 0.019672
vt 0.000000 0.843359
vt 0.000000 0.168671
vt 0.000000 0.168672
vt 0.000000 0.843359
vt 0.133530 0.951793
vt 0.132974 0.951795
vt 0.500032 0.500005
vt 0.500032 0.452700
vt 0.500032 0.534223
vt 0.500032 0.551088
vt 0.066557 0.444539
vt 0.066557 0.557464
vt 0.035815 0.549162
vt 0.035815 0.452554
vt -0.013551 0.546396
vt -0.013551 0.455224
vt 0.133820 0.971970
vt 0.133353 0.971983
vt 0.133054 0.969026
vt 0.133607 0.969094
vt 0.133783 0.974797
vt 0.133277 0.974831
vt 0.030459 0.018131
vt 0.034885 0.018090
vt 0.034885 0.015969
vt 0.030480 0.015969
vt 0.039305 0.018125
vt 0.039290 0.015969
vt 1.000001 0.108842
vt 0.000010 0.108842
vt 0.000001 0.031879
vt 1.000001 0.031879
vt 0.000002 0.000000
vt 1.000002 0.000000
vt 0.034884 0.019639
vt 0.030436 0.019664
vt 0.039320 0.019662
vt 0.173802 0.526567
vt 0.135146 0.524016
vt 0.138308 0.516539
vt 0.180721 0.518413
vt 0.139569 0.500002
vt 0.183506 0.500003
vt 0.139569 0.476869
vt 0.086583 0.500002
vt 0.086583 0.477014
vt 0.183506 0.474188
vt 0.087502 0.523862
vt 0.086845 0.516434
vt 0.009201 0.018138
vt 0.009201 0.015969
vt 0.009201 0.019668
vt 0.000000 0.843359
vt 0.000000 0.168672
vt 0.132974 0.951795
vt 0.133527 0.951793
vt -0.000000 0.000000
vt 0.240967 0.157954
vt 1.000000 0.827429
vt 0.959000 0.817136
vt 0.321037 0.614243
vt 0.959000 0.414036
vt 1.067776 0.414439
vt 1.045759 0.408450
vt 1.045759 0.591550
vt 1.067776 0.585561
vt 1.043417 0.399624
vt 1.043417 0.600376
vt 0.886547 0.000000
vt 0.957166 0.058857
vt 0.873262 0.227683
vt 0.837004 0.209856
vt 0.986417 0.140399
vt 0.899321 0.330468
vt 0.000000 -0.000000
vt 1.000000 0.062995
vt 1.000000 0.500000
vt 0.000000 0.500000
vt 0.257766 0.000000
vt 0.257766 1.000000
vt 0.257766 1.000000
vt 0.257766 0.000000
vt -0.068218 0.414468
vt -0.068218 0.585532
vt -0.045695 0.591550
vt -0.045695 0.408450
vt -0.043353 0.600376
vt -0.043353 0.399624
vt 0.100088 0.000000
vt 0.149631 0.209856
vt 0.113374 0.227683
vt 0.029469 0.058857
vt 0.087315 0.298493
vt 0.000218 0.200951
vt -0.000000 1.000000
vt 0.999999 0.937005
vt 0.257766 0.000000
vt 0.257766 1.000000
vt -0.000000 0.651312
vt 0.545687 0.132142
vt 0.618215 0.560902
vt 0.715828 0.929904
vt 0.426193 1.000000
vt 1.000000 0.862884
vt 0.688265 0.963176
vt 0.364182 0.952579
vt 0.345486 0.439028
vt 0.661824 0.474888
vt -0.000000 0.999999
vt -0.000000 0.425460
vt 0.694407 0.053053
vt 0.999999 0.105268
vt 0.374868 -0.000001
vt 1.000000 0.413714
vt 0.924750 0.807051
vt 0.924750 0.408348
vt 0.959000 0.010936
vt 1.000000 -0.000000
vt 0.924750 0.009644
vn 0.000000 1.000000 0.000000
vn 0.000000 1.000000 0.000000
vn 0.000000 1.000000 0.000000
vn 0.000000 1.000000 0.000000
vn 0.000000 1.000000 0.000000
vn 0.000000 1.000000 0.000000
vn 0.000000 1.000000 0.000000
vn 0.000000 1.000000 0.000000
vn 0.065466 0.000000 0.997855
vn 0.707107 0.000000 0.707107
vn 0.065466 0.000000 0.997855
vn 0.707107 0.000000 0.707107
vn 0.707107 0.000000 0.707107
vn 0.994601 0.000000 0.103770
vn 0.707107 0.000000 0.707107
vn 0.994601 0.000000 0.103770
vn 0.628112 -0.459293 0.628112
vn 0.060773 -0.504088 0.861511
vn 0.000001 -1.000000 0.000001
vn 0.000000 -1.000000 0.000001
vn 0.628112 -0.459293 0.628112
vn 0.000001 -1.000000 0.000001
vn 0.858793 -0.503402 0.095191
vn 0.000001 -1.000000 0.000000
vn 0.032625 0.876229 0.480790
vn 0.066837 0.165067 0.984015
vn 0.350321 0.868660 0.350293
vn 0.698029 0.159764 0.698020
vn 0.698029 0.159764 0.698020
vn 0.980647 0.164975 0.105426
vn 0.350321 0.868660 0.350293
vn 0.477891 0.876935 0.051050
vn 0.067943 0.000000 0.997689
vn 0.707107 0.000001 0.707107
vn 0.066837 0.165067 0.984015
vn 0.698029 0.159764 0.698020
vn 0.707107 0.000001 0.707107
vn 0.994257 0.000000 0.107023
vn 0.698029 0.159764 0.698020
vn 0.980647 0.164975 0.105426
vn -0.000000 1.000000 -0.000004
vn 0.032625 0.876229 0.480790
vn -0.000002 1.000000 -0.000002
vn 0.350321 0.868660 0.350293
vn -0.000002 1.000000 -0.000000
vn -0.000002 1.000000 -0.000002
vn 0.477891 0.876935 0.051050
vn 0.350321 0.868660 0.350293
vn 0.004678 0.997455 0.071138
vn 0.049905 0.683460 0.728280
vn 0.059705 0.996429 0.059705
vn 0.523615 0.672053 0.523615
vn 0.049905 0.683460 0.728280
vn 0.068976 0.165704 0.983760
vn 0.523615 0.672053 0.523615
vn 0.696847 0.169732 0.696847
vn 0.628112 -0.459293 0.628112
vn 0.858793 -0.503402 0.095191
vn 0.696847 0.169732 0.696847
vn 0.980160 0.166136 0.108096
vn 0.060773 -0.504088 0.861511
vn 0.628112 -0.459293 0.628112
vn 0.068976 0.165704 0.983760
vn 0.696847 0.169732 0.696847
vn 0.059705 0.996429 0.059705
vn 0.523615 0.672053 0.523615
vn 0.080696 0.996703 0.008436
vn 0.725595 0.683629 0.078510
vn 0.696847 0.169732 0.696847
vn 0.980160 0.166136 0.108096
vn 0.523615 0.672053 0.523615
vn 0.725595 0.683629 0.078510
vn 0.000000 0.175974 0.984395
vn 0.000000 0.000000 1.000000
vn 0.066837 0.165067 0.984015
vn 0.067943 0.000000 0.997689
vn 0.000000 0.894300 0.447469
vn 0.000000 0.175974 0.984395
vn 0.032625 0.876229 0.480790
vn 0.066837 0.165067 0.984015
vn 0.000000 1.000000 -0.000004
vn 0.000000 0.894300 0.447469
vn -0.000000 1.000000 -0.000004
vn 0.032625 0.876229 0.480790
vn 0.000000 0.000000 1.000000
vn 0.000000 0.000000 1.000000
vn 0.065466 0.000000 0.997855
vn 0.065466 0.000000 0.997855
vn 0.060773 -0.504088 0.861511
vn 0.000000 -0.553428 0.832897
vn 0.000000 -1.000000 0.000001
vn 0.000000 -1.000000 0.000001
vn 0.000000 0.168947 0.985625
vn 0.000000 -0.553428 0.832897
vn 0.068976 0.165704 0.983760
vn 0.060773 -0.504088 0.861511
vn 0.000000 0.706399 0.707814
vn 0.000000 0.168947 0.985625
vn 0.049905 0.683460 0.728280
vn 0.068976 0.165704 0.983760
vn 0.000000 0.998717 0.050635
vn 0.000000 0.706399 0.707814
vn 0.004678 0.997455 0.071138
vn 0.049905 0.683460 0.728280
vn -0.065466 0.000000 0.997855
vn -0.065466 0.000000 0.997855
vn -0.707107 0.000000 0.707107
vn -0.707107 0.000000 0.707107
vn -0.707107 0.000000 0.707107
vn -0.707107 0.000000 0.707107
vn -0.994601 0.000000 0.103770
vn -0.994601 0.000000 0.103770
vn -0.628112 -0.459293 0.628112
vn -0.000001 -1.000000 0.000001
vn -0.060773 -0.504088 0.861511
vn 0.000000 -1.000000 0.000001
vn -0.000001 -1.000000 0.000000
vn -0.000001 -1.000000 0.000001
vn -0.858793 -0.503402 0.095191
vn -0.628112 -0.459293 0.628112
vn -0.032625 0.876229 0.480790
vn -0.350322 0.868659 0.350293
vn -0.066837 0.165067 0.984015
vn -0.698029 0.159763 0.698020
vn -0.477892 0.876934 0.051050
vn -0.980647 0.164975 0.105426
vn -0.350322 0.868659 0.350293
vn -0.698029 0.159763 0.698020
vn -0.067943 0.000000 0.997689
vn -0.066837 0.165067 0.984015
vn -0.707107 0.000001 0.707107
vn -0.698029 0.159763 0.698020
vn -0.707107 0.000001 0.707107
vn -0.698029 0.159763 0.698020
vn -0.994257 0.000000 0.107023
vn -0.980647 0.164975 0.105426
vn -0.350322 0.868659 0.350293
vn -0.032625 0.876229 0.480790
vn 0.000002 1.000000 -0.000002
vn 0.000000 1.000000 -0.000004
vn 0.000002 1.000000 0.000000
vn -0.477892 0.876934 0.051050
vn 0.000002 1.000000 -0.000002
vn -0.350322 0.868659 0.350293
vn -0.004678 0.997455 0.071138
vn -0.059705 0.996429 0.059705
vn -0.049905 0.683460 0.728280
vn -0.523615 0.672053 0.523615
vn -0.049905 0.683460 0.728280
vn -0.523615 0.672053 0.523615
vn -0.068976 0.165704 0.983760
vn -0.696847 0.169732 0.696847
vn -0.628112 -0.459293 0.628112
vn -0.696847 0.169732 0.696847
vn -0.858793 -0.503402 0.095191
vn -0.980160 0.166135 0.108096
vn -0.060773 -0.504088 0.861511
vn -0.068976 0.165704 0.983760
vn -0.628112 -0.459293 0.628112
vn -0.696847 0.169732 0.696847
vn -0.080696 0.996703 0.008436
vn -0.725595 0.683628 0.078510
vn -0.059705 0.996429 0.059705
vn -0.523615 0.672053 0.523615
vn -0.725595 0.683628 0.078510
vn -0.980160 0.166135 0.108096
vn -0.523615 0.672053 0.523615
vn -0.696847 0.169732 0.696847
vn 0.000000 0.175974 0.984395
vn -0.066837 0.165067 0.984015
vn 0.000000 0.000000 1.000000
vn -0.067943 0.000000 0.997689
vn 0.000000 0.894300 0.447469
vn -0.032625 0.876229 0.480790
vn 0.000000 0.175974 0.984395
vn -0.066837 0.165067 0.984015
vn -0.032625 0.876229 0.480790
vn 0.000000 0.894300 0.447469
vn 0.000000 1.000000 -0.000004
vn 0.000000 1.000000 -0.000004
vn 0.000000 0.000000 1.000000
vn -0.065466 0.000000 0.997855
vn 0.000000 0.000000 1.000000
vn -0.065466 0.000000 0.997855
vn -0.060773 -0.504088 0.861511
vn 0.000000 -1.000000 0.000001
vn 0.000000 -0.553428 0.832897
vn 0.000000 -1.000000 0.000001
vn 0.000000 0.168947 0.985625
vn -0.068976 0.165704 0.983760
vn 0.000000 -0.553428 0.832897
vn -0.060773 -0.504088 0.861511
vn 0.000000 0.706399 0.707814
vn -0.049905 0.683460 0.728280
vn 0.000000 0.168947 0.985625
vn -0.068976 0.165704 0.983760
vn 0.000000 0.998717 0.050635
vn -0.004678 0.997455 0.071138
vn 0.000000 0.706399 0.707814
vn -0.049905 0.683460 0.728280
vn -0.001091 0.999585 -0.028800
vn -0.014432 0.710013 -0.704041
vn 0.000000 0.998727 -0.050434
vn 0.000000 0.648382 -0.761315
vn -0.014432 0.710013 -0.704041
vn -0.019126 0.049518 -0.998590
vn 0.000000 0.648382 -0.761315
vn 0.000000 0.044452 -0.999012
vn -0.994072 0.000000 -0.108726
vn -0.585048 0.000000 -0.810999
vn -0.992335 0.061074 -0.107427
vn -0.581853 0.063332 -0.810825
vn -0.585048 0.000000 -0.810999
vn -0.019604 0.000000 -0.999808
vn -0.581853 0.063332 -0.810825
vn -0.019126 0.049518 -0.998590
vn 0.059705 0.996429 0.059705
vn -0.014106 0.999744 -0.017720
vn 0.004678 0.997455 0.071138
vn -0.001091 0.999585 -0.028800
vn 0.059705 0.996429 0.059705
vn 0.080696 0.996703 0.008436
vn -0.014106 0.999744 -0.017720
vn -0.029335 0.999559 -0.004535
vn 0.004678 0.997455 0.071138
vn -0.001091 0.999585 -0.028800
vn 0.000000 0.998717 0.050635
vn 0.000000 0.998727 -0.050434
vn 0.000000 0.000000 -1.000000
vn 0.000000 0.044452 -0.999012
vn -0.019604 0.000000 -0.999808
vn -0.019126 0.049518 -0.998590
vn 0.994072 0.000000 -0.108726
vn 0.992335 0.061074 -0.107427
vn 0.585048 0.000000 -0.810999
vn 0.581853 0.063332 -0.810825
vn 0.585048 0.000000 -0.810999
vn 0.581853 0.063332 -0.810825
vn 0.019604 0.000000 -0.999808
vn 0.019126 0.049518 -0.998590
vn 0.001091 0.999585 -0.028800
vn 0.014106 0.999744 -0.017720
vn -0.004678 0.997455 0.071138
vn -0.059705 0.996429 0.059705
vn -0.059705 0.996429 0.059705
vn 0.014106 0.999744 -0.017720
vn -0.080696 0.996703 0.008436
vn 0.029334 0.999559 -0.004535
vn -0.004678 0.997455 0.071138
vn 0.000000 0.998717 0.050635
vn 0.001091 0.999585 -0.028800
vn 0.000000 0.998727 -0.050434
vn 0.000000 0.000000 -1.000000
vn 0.019604 0.000000 -0.999808
vn 0.000000 0.044452 -0.999012
vn 0.019126 0.049518 -0.998590
vn -0.029335 0.999559 -0.004535
vn -0.626492 0.776107 -0.071865
vn -0.014106 0.999744 -0.017720
vn -0.360039 0.785688 -0.503057
vn -0.992335 0.061074 -0.107427
vn -0.581853 0.063332 -0.810825
vn -0.626492 0.776107 -0.071865
vn -0.360039 0.785688 -0.503057
vn -0.014106 0.999744 -0.017720
vn -0.360039 0.785688 -0.503057
vn -0.001091 0.999585 -0.028800
vn -0.014432 0.710013 -0.704041
vn -0.360039 0.785688 -0.503057
vn -0.581853 0.063332 -0.810825
vn -0.014432 0.710013 -0.704041
vn -0.019126 0.049518 -0.998590
vn 0.992335 0.061074 -0.107427
vn 0.626492 0.776108 -0.071866
vn 0.581853 0.063332 -0.810825
vn 0.360039 0.785688 -0.503057
vn 0.626492 0.776108 -0.071866
vn 0.029334 0.999559 -0.004535
vn 0.360039 0.785688 -0.503057
vn 0.014106 0.999744 -0.017720
vn 0.360039 0.785688 -0.503057
vn 0.014432 0.710013 -0.704041
vn 0.581853 0.063332 -0.810825
vn 0.019126 0.049518 -0.998590
vn 0.014106 0.999744 -0.017720
vn 0.001091 0.999585 -0.028800
vn 0.360039 0.785688 -0.503057
vn 0.014432 0.710013 -0.704041
vn 0.000000 0.648382 -0.761315
vn 0.014432 0.710013 -0.704041
vn 0.000000 0.998727 -0.050434
vn 0.001091 0.999585 -0.028800
vn 0.000000 0.044452 -0.999012
vn 0.019126 0.049518 -0.998590
vn 0.000000 0.648382 -0.761315
vn 0.014432 0.710013 -0.704041
s 1
g Mostrador:PC_ScenepolySurface5polySurface2
usemtl Mostrador:lambert4SG
f 57/81/89 61/82/90 59/84/91
f 59/84/91 61/82/90 62/83/92
s 2
f 62/85/93 61/86/94 60/88/95
f 60/88/95 61/86/94 58/87/96
s 3
usemtl Mostrador:lambert5SG
f 69/89/97 70/90/98 68/92/99
f 68/92/99 70/90/98 67/91/100
s 4
f 70/90/101 141/93/102 67/91/103
f 67/91/103 141/93/102 142/94/104
s 5
usemtl Mostrador:lambert4SG
f 65/95/105 66/96/106 67/98/107
f 67/98/107 66/96/106 68/97/108
s 6
f 65/95/109 67/98/110 146/99/111
f 146/99/111 67/98/110 142/100/112
s 7
usemtl Mostrador:lambert6SG
f 73/101/113 74/102/114 75/104/115
f 75/104/115 74/102/114 76/103/116
s 8
f 76/103/117 144/105/118 75/104/119
f 75/104/119 144/105/118 143/106/120
s 9
f 71/107/121 72/108/122 74/110/123
f 74/110/123 72/108/122 76/109/124
s 10
f 72/108/125 145/111/126 76/109/127
f 76/109/127 145/111/126 144/112/128
s 11
usemtl Mostrador:PC_SceneSG
f 69/114/129 73/101/130 70/113/131
f 70/113/131 73/101/130 75/104/132
s 12
f 141/115/133 70/113/134 143/106/135
f 143/106/135 70/113/134 75/104/136
s 13
usemtl Mostrador:lambert4SG
f 79/116/137 78/117/138 80/119/139
f 80/119/139 78/117/138 81/118/140
s 14
f 78/117/141 77/120/142 81/118/143
f 81/118/143 77/120/142 82/121/144
s 15
f 65/122/145 146/123/146 82/121/147
f 82/121/147 146/123/146 147/124/148
s 16
f 66/125/149 65/122/150 77/120/151
f 77/120/151 65/122/150 82/121/152
s 17
f 80/119/153 81/118/154 149/127/155
f 149/127/155 81/118/154 148/126/156
s 18
f 82/121/157 147/124/158 81/118/159
f 81/118/159 147/124/158 148/126/160
s 19
usemtl Mostrador:lambert6SG
f 84/128/161 83/129/162 74/110/163
f 74/110/163 83/129/162 71/107/164
s 20
f 85/130/165 84/131/166 73/101/167
f 73/101/167 84/131/166 74/102/168
s 21
usemtl Mostrador:PC_SceneSG
f 86/132/169 85/130/170 69/114/171
f 69/114/171 85/130/170 73/101/172
s 22
usemtl Mostrador:lambert5SG
f 87/133/173 86/134/174 68/136/175
f 68/136/175 86/134/174 69/135/176
s 23
usemtl Mostrador:lambert4SG
f 66/96/177 88/137/178 68/97/179
f 68/97/179 88/137/178 87/138/180
s 24
f 89/139/181 88/140/182 77/120/183
f 77/120/183 88/140/182 66/125/184
s 25
f 90/141/185 89/139/186 78/117/187
f 78/117/187 89/139/186 77/120/188
s 26
f 91/142/189 90/141/190 79/116/191
f 79/116/191 90/141/190 78/117/192
s 27
usemtl Mostrador:lambert5SG
f 102/143/193 100/144/194 103/146/195
f 103/146/195 100/144/194 99/145/196
s 28
f 103/146/197 99/145/198 104/148/199
f 104/148/199 99/145/198 101/147/200
s 29
usemtl Mostrador:lambert4SG
f 97/149/201 99/150/202 98/152/203
f 98/152/203 99/150/202 100/151/204
s 30
f 101/154/205 99/150/206 96/153/207
f 96/153/207 99/150/206 97/149/208
s 31
usemtl Mostrador:lambert6SG
f 108/155/209 110/156/210 109/158/211
f 109/158/211 110/156/210 111/157/212
s 32
f 112/159/213 113/160/214 110/156/215
f 110/156/215 113/160/214 111/157/216
s 33
f 105/161/217 109/162/218 106/164/219
f 106/164/219 109/162/218 111/163/220
s 34
f 106/164/221 111/163/222 107/166/223
f 107/166/223 111/163/222 113/165/224
s 35
usemtl Mostrador:PC_SceneSG
f 110/156/225 108/155/226 103/167/227
f 103/167/227 108/155/226 102/168/228
s 36
f 104/169/229 112/159/230 103/167/231
f 103/167/231 112/159/230 110/156/232
s 37
usemtl Mostrador:lambert4SG
f 116/170/233 117/171/234 115/173/235
f 115/173/235 117/171/234 118/172/236
s 38
f 115/173/237 118/172/238 114/175/239
f 114/175/239 118/172/238 119/174/240
s 39
f 97/176/241 119/174/242 96/178/243
f 96/178/243 119/174/242 122/177/244
s 40
f 98/179/245 114/175/246 97/176/247
f 97/176/247 114/175/246 119/174/248
s 41
f 120/180/249 121/181/250 117/171/251
f 117/171/251 121/181/250 118/172/252
s 42
f 121/181/253 122/177/254 118/172/255
f 118/172/255 122/177/254 119/174/256
s 43
usemtl Mostrador:lambert6SG
f 84/128/257 109/162/258 83/129/259
f 83/129/259 109/162/258 105/161/260
s 44
f 85/182/261 108/155/262 84/183/263
f 84/183/263 108/155/262 109/158/264
s 45
usemtl Mostrador:PC_SceneSG
f 108/155/265 85/182/266 102/168/267
f 102/168/267 85/182/266 86/184/268
s 46
usemtl Mostrador:lambert5SG
f 87/133/269 100/185/270 86/134/271
f 86/134/271 100/185/270 102/186/272
s 47
usemtl Mostrador:lambert4SG
f 98/152/273 100/151/274 88/188/275
f 88/188/275 100/151/274 87/187/276
s 48
f 89/139/277 114/175/278 88/140/279
f 88/140/279 114/175/278 98/179/280
s 49
f 90/141/281 115/173/282 89/139/283
f 89/139/283 115/173/282 114/175/284
s 50
f 91/142/285 116/170/286 90/141/287
f 90/141/287 116/170/286 115/173/288
s 51
f 128/191/289 127/192/290 129/246/291
f 129/246/291 127/192/290 130/194/292
s 52
f 127/192/293 126/247/294 130/194/295
f 130/194/295 126/247/294 131/248/296
s 53
usemtl Mostrador:lambert5SG
f 153/195/297 64/196/298 152/198/299
f 152/198/299 64/196/298 123/197/300
s 54
f 64/196/301 63/199/302 123/197/303
f 123/197/303 63/199/302 126/200/304
s 55
usemtl Mostrador:lambert4SG
f 80/202/305 125/203/306 79/201/307
f 79/201/307 125/203/306 128/204/308
s 56
f 80/202/309 149/205/310 125/203/311
f 125/203/311 149/205/310 150/206/312
s 57
f 79/207/313 128/208/314 91/210/315
f 91/210/315 128/208/314 129/209/316
s 58
usemtl Mostrador:lambert5SG
f 92/211/317 131/212/318 63/214/319
f 63/214/319 131/212/318 126/213/320
s 59
f 95/215/321 132/216/322 94/218/323
f 94/218/323 132/216/322 135/217/324
s 60
f 94/218/325 135/217/326 93/220/327
f 93/220/327 135/217/326 138/219/328
s 61
usemtl Mostrador:lambert4SG
f 140/222/329 137/223/330 116/221/331
f 116/221/331 137/223/330 117/224/332
s 62
f 117/224/333 137/223/334 120/226/335
f 120/226/335 137/223/334 134/225/336
s 63
f 116/227/337 91/210/338 140/228/339
f 140/228/339 91/210/338 129/209/340
s 64
usemtl Mostrador:lambert5SG
f 92/211/341 93/229/342 131/212/343
f 131/212/343 93/229/342 138/230/344
s 65
usemtl Mostrador:lambert4SG
f 150/189/345 151/190/346 125/231/347
f 125/231/347 151/190/346 124/193/348
s 66
f 152/232/349 123/233/350 151/190/351
f 151/190/351 123/233/350 124/193/352
s 67
f 125/231/353 124/193/354 128/235/355
f 128/235/355 124/193/354 127/234/356
s 68
f 124/193/357 123/233/358 127/234/359
f 127/234/359 123/233/358 126/236/360
s 69
f 132/237/361 133/238/362 135/240/363
f 135/240/363 133/238/362 136/239/364
s 70
f 133/238/365 134/241/366 136/239/367
f 136/239/367 134/241/366 137/242/368
s 71
f 136/239/369 139/243/370 135/240/371
f 135/240/371 139/243/370 138/244/372
s 72
f 137/242/373 140/245/374 136/239/375
f 136/239/375 140/245/374 139/243/376
s 73
f 130/194/377 139/249/378 129/246/379
f 129/246/379 139/249/378 140/250/380
s 74
f 131/248/381 138/251/382 130/194/383
f 130/194/383 138/251/382 139/249/384
g default
v -3.996718 1.813303 -3.896075
v -3.896717 1.813303 -3.916302
v -3.902930 1.248037 -3.920619
v -3.946717 1.113303 -3.909855
v -3.921720 1.253304 -3.914827
v -3.946717 1.228306 -3.909855
v -3.896717 1.253304 -6.972030
v -3.946717 1.228306 -6.970813
v -3.996718 1.813303 -6.999122
v -3.896718 1.813303 -6.996850
v -3.946717 1.113303 -6.966640
v -3.921720 1.253304 -6.971611
v -3.987622 1.957854 -7.016386
v -3.996718 1.963318 -3.896075
v -3.001706 1.113303 -4.401572
v -3.851721 2.113303 -3.926202
v -3.001706 1.113303 -6.937953
v -3.851721 2.113303 -7.030336
v -3.001706 1.943317 -4.401571
v -3.051493 2.063516 -4.377768
v -3.171692 2.113303 -4.304649
v -3.001706 1.943317 -7.010373
v -3.119427 2.054549 -7.025486
v -3.171692 2.113303 -7.030337
vt 0.209857 0.162327
vt 0.990194 0.168672
vt 0.996542 0.843359
vt 0.208753 0.843359
vt 0.039305 0.018128
vt 0.039290 0.015972
vt 0.051198 0.015972
vt 0.051198 0.018142
vt 1.000002 0.000416
vt 1.000002 0.000416
vt 0.000002 0.000416
vt 0.000002 0.000416
vt 0.086934 0.477002
vt -0.146633 0.478607
vt -0.148024 0.499222
vt 0.086934 0.500002
vt 0.132814 0.984047
vt 0.133363 0.984124
vt 0.133782 0.974798
vt 0.133275 0.974832
vt 0.051198 0.019676
vt 0.039320 0.019665
vt 0.332851 0.000000
vt 0.332851 1.000000
vt 1.000000 1.000000
vt 0.981480 0.000000
vt -0.000000 0.200038
vt -0.000000 1.000000
vt 0.087096 1.000000
vt 0.087096 0.297567
vt 1.000000 0.964411
vt 0.507030 0.973341
vt 0.325905 0.001753
vt 1.000000 0.007294
vt 0.000000 1.000000
vt 0.000000 0.000000
vn -0.994601 0.000000 0.103770
vn -1.000000 0.000000 0.000000
vn -0.994601 0.000000 0.103770
vn -1.000000 0.000000 0.000000
vn -0.980647 0.164975 0.105426
vn -0.984458 0.175622 0.000000
vn -0.477891 0.876935 0.051050
vn -0.447564 0.894252 0.000000
vn -0.994257 0.000000 0.107023
vn -1.000000 0.000000 0.000000
vn -0.980647 0.164975 0.105426
vn -0.984458 0.175622 0.000000
vn -0.858793 -0.503402 0.095191
vn -0.825921 -0.563425 0.020199
vn -0.980160 0.166136 0.108096
vn -0.987000 0.157447 0.032258
vn 0.000000 -1.000000 0.000000
vn -0.825921 -0.563425 0.020199
vn -0.000001 -1.000000 0.000000
vn -0.858793 -0.503402 0.095191
vn 0.000002 1.000000 0.000000
vn 0.000002 1.000000 0.000000
vn -0.447564 0.894252 0.000000
vn -0.477891 0.876935 0.051050
vn 0.994072 0.000000 -0.108726
vn 0.992335 0.061074 -0.107427
vn 0.999879 -0.008446 0.013065
vn 0.998866 0.041608 0.023126
vn -0.080696 0.996703 0.008436
vn -0.077288 0.989522 0.121955
vn 0.029335 0.999559 -0.004535
vn 0.058322 0.990238 0.126598
vn 0.626492 0.776107 -0.071865
vn 0.789997 0.605081 0.098903
vn 0.992335 0.061074 -0.107427
vn 0.998866 0.041608 0.023126
vn 0.029335 0.999559 -0.004535
vn 0.058322 0.990238 0.126598
vn 0.626492 0.776107 -0.071865
vn 0.789997 0.605081 0.098903
s 1
g Mostrador:Mostrador:pasted__polySurface3pasted__polySurface2pasted__PC_Scenegroup1
f 156/252/385 160/253/386 155/255/387
f 155/255/387 160/253/386 163/254/388
s 2
f 159/257/389 161/258/390 158/256/391
f 158/256/391 161/258/390 165/259/392
s 3
f 157/260/393 164/261/394 159/263/395
f 159/263/395 164/261/394 161/262/396
s 4
f 154/264/397 162/265/398 167/267/399
f 167/267/399 162/265/398 166/266/400
s 5
f 163/268/401 162/269/402 155/271/403
f 155/271/403 162/269/402 154/270/404
s 6
f 160/272/405 156/273/406 165/259/407
f 165/259/407 156/273/406 158/256/408
s 7
f 168/274/409 172/275/410 170/277/411
f 170/277/411 172/275/410 175/276/412
s 8
f 169/278/413 171/279/414 174/281/415
f 174/281/415 171/279/414 177/280/416
s 9
f 173/283/417 176/284/418 172/282/419
f 172/282/419 176/284/418 175/285/420
s 10
f 174/286/421 177/287/422 173/283/423
f 173/283/423 177/287/422 176/284/424
g default
v 3.000000 1.113303 -4.401572
v 3.850015 2.113303 -3.694782
v 3.000000 1.113303 -6.937953
v 3.850015 2.113303 -7.030336
v 3.000000 1.943317 -4.401571
v 3.049788 2.063516 -4.377768
v 3.169986 2.113303 -4.432317
v 3.000000 1.943317 -7.010373
v 3.117722 2.054549 -7.025486
v 3.169986 2.113303 -7.030337
vt 0.332851 0.000000
vt 0.332851 1.000000
vt 1.000000 1.000000
vt 0.981480 0.000000
vt 0.986417 0.140399
vt 0.986417 1.000000
vt 0.899321 1.000000
vt 0.899321 0.330468
vt 0.831202 0.880210
vt 0.859629 0.894156
vt 0.014473 0.988353
vt -0.000000 0.963220
vt 0.850883 0.917334
vt 0.023116 1.000000
vn -0.994072 0.000000 -0.108726
vn -0.992335 0.061074 -0.107427
vn -0.999879 -0.008446 0.013065
vn -0.998866 0.041608 0.023126
vn 0.080696 0.996703 0.008436
vn 0.077288 0.989522 0.121955
vn -0.029335 0.999559 -0.004535
vn -0.058322 0.990238 0.126598
vn -0.626492 0.776107 -0.071865
vn -0.789997 0.605081 0.098903
vn -0.992335 0.061074 -0.107427
vn -0.998866 0.041608 0.023126
vn -0.626492 0.776107 -0.071865
vn -0.029335 0.999559 -0.004535
vn -0.789997 0.605081 0.098903
vn -0.058322 0.990238 0.126598
s 1
g Mostrador:polySurface3 Mostrador:PC_ScenepolySurface2polySurface4
f 178/288/425 182/289/426 180/291/427
f 180/291/427 182/289/426 185/290/428
s 2
f 179/292/429 181/293/430 184/295/431
f 184/295/431 181/293/430 187/294/432
s 3
f 183/297/433 186/298/434 182/296/435
f 182/296/435 186/298/434 185/299/436
s 4
f 183/297/437 184/300/438 186/298/439
f 186/298/439 184/300/438 187/301/440
g default
v 3.957092 2.069373 -3.908648
v 3.957092 2.069373 -7.015661
v 3.851037 2.113303 -7.030336
v 3.851037 2.113303 -3.694782
vt 0.894867 0.523451
vt 0.913218 0.516434
vt 1.149058 0.515229
vt 1.153523 0.521966
vn 0.382688 0.923878 0.000000
vn 0.382688 0.923878 0.000000
vn 0.382688 0.923878 0.000000
vn 0.382688 0.923878 0.000000
s 1
g Mostrador:PC_ScenepolySurface2polySurface4 Mostrador:polySurface2
f 191/302/441 188/303/442 190/305/443
f 190/305/443 188/303/442 189/304/444
g default
v 3.956070 2.069373 -3.902490
v 4.000000 1.963318 -3.896440
v 4.000000 1.963318 -7.015515
v 3.956070 2.069373 -7.016655
vt 0.912759 0.516428
vt 0.913224 0.500002
vt 1.147638 0.500002
vt 1.149122 0.515228
vn 0.923878 0.382688 0.000000
vn 0.923877 0.382691 0.000000
vn 0.923878 0.382688 0.000000
vn 0.923876 0.382691 0.000000
s 1
g Mostrador:polySurface1PC_Scene
f 193/307/445 194/308/446 192/306/447
f 192/306/447 194/308/446 195/309/448
g default
v 4.000000 1.813303 -3.896075
v 3.900000 1.813303 -4.003202
v 3.900000 1.253304 -4.003201
v 3.950000 1.113303 -3.909855
v 3.925003 1.253304 -3.914827
v 3.950000 1.228306 -3.909855
v 3.900000 1.253304 -6.972030
v 3.950000 1.228306 -6.970813
v 4.000000 1.813303 -6.999122
v 3.900000 1.813303 -6.996850
v 3.950000 1.113303 -6.966640
v 3.925003 1.253304 -6.971611
v 4.000000 1.963318 -7.005044
v 4.000000 1.963318 -3.896075
vt 0.230976 0.168672
vt 0.990194 0.168672
vt 0.996542 0.843359
vt 0.230976 0.843359
vt 0.039305 0.018128
vt 0.039290 0.015972
vt 0.051198 0.015972
vt 0.051198 0.018142
vt 0.999998 1.000000
vt 0.999998 1.000000
vt -0.000002 1.000000
vt -0.000002 1.000000
vt 0.913197 0.477020
vt 1.146592 0.478621
vt 1.146970 0.500002
vt 0.913197 0.500002
vt 0.132814 0.984047
vt 0.133363 0.984124
vt 0.133782 0.974798
vt 0.133275 0.974832
vt 0.051198 0.019676
vt 0.039320 0.019665
vn 1.000000 0.000000 0.000000
vn 1.000000 -0.000001 0.000000
vn 1.000000 -0.000000 0.000000
vn 1.000000 -0.000001 0.000000
vn 0.980647 0.164975 0.105426
vn 0.984458 0.175622 0.000000
vn 0.477891 0.876935 0.051050
vn 0.447564 0.894252 0.000000
vn 0.994257 0.000000 0.107023
vn 1.000000 0.000000 0.000000
vn 0.980647 0.164975 0.105426
vn 0.984458 0.175622 0.000000
vn 0.858793 -0.503402 0.095191
vn 0.825921 -0.563425 0.020199
vn 0.980160 0.166136 0.108096
vn 0.987000 0.157447 0.032258
vn 0.000000 -1.000000 0.000000
vn 0.825921 -0.563425 0.020199
vn 0.000001 -1.000000 0.000000
vn 0.858793 -0.503402 0.095191
vn -0.000002 1.000000 -0.000000
vn -0.000002 1.000000 -0.000000
vn 0.447564 0.894252 0.000000
vn 0.477891 0.876935 0.051050
s 1
g Mostrador:PC_ScenepolySurface2polySurface3
f 198/310/449 202/311/450 197/313/451
f 197/313/451 202/311/450 205/312/452
s 2
f 201/315/453 203/316/454 200/314/455
f 200/314/455 203/316/454 207/317/456
s 3
f 199/318/457 206/319/458 201/321/459
f 201/321/459 206/319/458 203/320/460
s 4
f 196/322/461 204/323/462 209/325/463
f 209/325/463 204/323/462 208/324/464
s 5
f 205/326/465 204/327/466 197/329/467
f 197/329/467 204/327/466 196/328/468
s 6
f 202/330/469 198/331/470 207/317/471
f 207/317/471 198/331/470 200/314/472
g default
v -0.867952 2.124758 -3.149985
v 0.867952 2.124758 -3.149985
v -0.867952 2.124758 -3.964299
v 0.867952 2.124758 -3.964299
v 0.000000 2.124758 -3.149985
v 0.000000 2.124758 -3.964299
v 2.586069 1.113303 -4.107961
v 2.836422 1.113303 -4.163578
v 3.736423 1.813303 -3.263577
v 3.100090 1.813303 -3.000000
v 3.659886 1.813303 -3.340114
v 3.080199 1.813303 -3.100000
v 3.080199 1.253304 -3.100000
v 3.659886 1.253303 -3.340114
v 3.090145 1.113303 -3.050000
v 3.698154 1.113303 -3.301846
v 3.085371 1.253304 -3.075058
v 3.090145 1.228305 -3.050000
v 3.679022 1.253304 -3.320978
v 3.698154 1.228306 -3.301846
v 3.100090 1.963318 -3.000000
v 3.091352 2.069373 -3.043929
v 3.070256 2.113303 -3.149985
v 3.621629 2.113303 -3.378371
v 3.702800 2.069373 -3.297200
v 3.736423 1.963318 -3.263577
v 0.000000 1.113303 -3.050000
v 0.000000 1.228306 -3.050000
v 0.000000 1.253304 -3.075027
v 0.000000 1.253303 -3.100000
v 0.000000 1.813303 -3.100000
v 0.000000 1.813303 -3.000000
v 0.000000 1.963318 -3.000000
v 0.000000 2.069373 -3.043929
v 0.000000 2.113303 -3.149985
v 0.000000 1.113303 -4.107961
v -2.586069 1.113303 -4.107961
v -2.836422 1.113303 -4.163578
v -3.000000 1.113303 -4.406567
v -4.000000 1.813303 -3.899910
v -3.736423 1.813303 -3.263577
v -3.100090 1.813303 -3.000000
v -3.659886 1.813303 -3.340114
v -3.080199 1.813303 -3.100000
v -3.900000 1.813303 -3.919801
v -3.080199 1.253304 -3.100000
v -3.659886 1.253303 -3.340114
v -3.900000 1.253304 -3.919801
v -3.090145 1.113303 -3.050000
v -3.698154 1.113303 -3.301846
v -3.950000 1.113303 -3.909855
v -3.085371 1.253304 -3.075058
v -3.090145 1.228305 -3.050000
v -3.679022 1.253304 -3.320978
v -3.698154 1.228306 -3.301846
v -3.925003 1.253304 -3.914827
v -3.950000 1.228306 -3.909855
v -3.100090 1.963318 -3.000000
v -3.091352 2.069373 -3.043929
v -3.070256 2.113303 -3.149985
v -3.621629 2.113303 -3.378371
v -3.702800 2.069373 -3.297200
v -3.736423 1.963318 -3.263577
v -3.850015 2.113303 -3.929744
v -3.956070 2.069373 -3.908648
v -4.000000 1.963318 -3.899910
v 2.836422 1.943317 -4.163578
v 2.874528 2.063516 -4.125472
v 2.966524 2.113303 -4.033476
v 2.586069 1.943317 -4.107961
v 2.614587 2.063516 -4.065883
v 2.683433 2.113303 -3.964299
v 0.000000 2.113303 -3.964299
v 0.000000 2.063516 -4.065883
v 0.000000 1.943317 -4.107961
v -3.000000 1.943317 -4.406567
v -3.049788 2.063516 -4.377768
v -3.169986 2.113303 -4.308241
v -2.836422 1.943317 -4.163578
v -2.874528 2.063516 -4.125472
v -2.966524 2.113303 -4.033476
v -2.586069 1.943317 -4.107961
v -2.614587 2.063516 -4.065883
v -2.683433 2.113303 -3.964299
v 3.900000 1.253304 -4.003201
v 3.900000 1.813303 -4.003202
v 3.925003 1.253304 -3.914827
v 3.950000 1.228306 -3.909855
v 3.950000 1.113303 -3.909855
v 4.000000 1.813303 -3.896075
v 4.000000 1.963318 -3.896075
v 3.956070 2.069373 -3.908648
v 3.850015 2.113303 -3.694782
v 3.169986 2.113303 -4.432317
v 3.049788 2.063516 -4.377768
v 3.000000 1.943317 -4.401571
v 3.000000 1.113303 -4.401572
vt 0.782458 0.870936
vt 0.687111 0.870936
vt 0.687111 0.781482
vt 0.782458 0.781482
vt 0.687112 0.781482
vt 0.687112 0.870936
vt 0.782458 0.870936
vt 0.782458 0.781482
vt 0.933507 0.444539
vt 0.964249 0.452554
vt 0.964249 0.549162
vt 0.933507 0.557464
vt 1.020402 0.455275
vt 1.020402 0.546344
vt 0.133820 0.971969
vt 0.133606 0.969094
vt 0.133057 0.969026
vt 0.133354 0.971982
vt 0.133782 0.974798
vt 0.133275 0.974832
vt 0.030459 0.018135
vt 0.030480 0.015972
vt 0.034885 0.015972
vt 0.034885 0.018093
vt 0.039290 0.015972
vt 0.039305 0.018128
vt 0.999999 0.891158
vt 0.999999 0.968121
vt -0.000001 0.968121
vt 0.000008 0.891158
vt 0.999998 1.000000
vt -0.000002 1.000000
vt 0.034884 0.019642
vt 0.030435 0.019668
vt 0.039320 0.019665
vt 0.826261 0.526567
vt 0.819342 0.518413
vt 0.861756 0.516539
vt 0.864917 0.524016
vt 0.816558 0.500003
vt 0.860495 0.500002
vt 0.860495 0.476869
vt 0.913197 0.477020
vt 0.913197 0.500002
vt 0.816558 0.474188
vt 0.913218 0.516434
vt 0.894867 0.523451
vt 0.000000 0.500000
vt 1.000000 0.500000
vt 0.009201 0.018141
vt 0.009201 0.015972
vt 0.009201 0.019672
vt 0.000000 0.843359
vt 0.000000 0.168671
vt 0.000000 0.168672
vt 0.000000 0.843359
vt 0.133530 0.951793
vt 0.132974 0.951795
vt 0.500032 0.500005
vt 0.500032 0.452700
vt 0.500032 0.534223
vt 0.500032 0.551088
vt 0.066557 0.444539
vt 0.066557 0.557464
vt 0.035815 0.549162
vt 0.035815 0.452554
vt -0.013551 0.546396
vt -0.013551 0.455224
vt 0.133820 0.971970
vt 0.133353 0.971983
vt 0.133054 0.969026
vt 0.133607 0.969094
vt 0.133783 0.974797
vt 0.133277 0.974831
vt 0.030459 0.018131
vt 0.034885 0.018090
vt 0.034885 0.015969
vt 0.030480 0.015969
vt 0.039305 0.018125
vt 0.039290 0.015969
vt 1.000001 0.108842
vt 0.000010 0.108842
vt 0.000001 0.031879
vt 1.000001 0.031879
vt 0.000002 0.000000
vt 1.000002 0.000000
vt 0.034884 0.019639
vt 0.030436 0.019664
vt 0.039320 0.019662
vt 0.173802 0.526567
vt 0.135146 0.524016
vt 0.138308 0.516539
vt 0.180721 0.518413
vt 0.139569 0.500002
vt 0.183506 0.500003
vt 0.139569 0.476869
vt 0.086583 0.500002
vt 0.086583 0.477014
vt 0.183506 0.474188
vt 0.087502 0.523862
vt 0.086845 0.516434
vt 0.009201 0.018138
vt 0.009201 0.015969
vt 0.009201 0.019668
vt 0.000000 0.843359
vt 0.000000 0.168672
vt 0.132974 0.951795
vt 0.133527 0.951793
vt -0.000000 0.000000
vt 0.240967 0.157954
vt 1.000000 0.827429
vt 0.959000 0.817136
vt 0.321037 0.614243
vt 0.959000 0.414036
vt 1.067776 0.414439
vt 1.045759 0.408450
vt 1.045759 0.591550
vt 1.067776 0.585561
vt 1.043417 0.399624
vt 1.043417 0.600376
vt 0.886547 0.000000
vt 0.957166 0.058857
vt 0.873262 0.227683
vt 0.837004 0.209856
vt 0.986417 0.140399
vt 0.899321 0.330468
vt 0.000000 -0.000000
vt 1.000000 0.062995
vt 1.000000 0.500000
vt 0.000000 0.500000
vt 0.257766 0.000000
vt 0.257766 1.000000
vt 0.257766 1.000000
vt 0.257766 0.000000
vt -0.068218 0.414468
vt -0.068218 0.585532
vt -0.045695 0.591550
vt -0.045695 0.408450
vt -0.043353 0.600376
vt -0.043353 0.399624
vt 0.100088 0.000000
vt 0.149631 0.209856
vt 0.113374 0.227683
vt 0.029469 0.058857
vt 0.087315 0.298493
vt 0.000218 0.200951
vt -0.000000 1.000000
vt 0.999999 0.937005
vt 0.257766 0.000000
vt 0.257766 1.000000
vt -0.000000 0.651312
vt 0.545687 0.132142
vt 0.618215 0.560902
vt 0.715828 0.929904
vt 0.426193 1.000000
vt 1.000000 0.862884
vt 0.688265 0.963176
vt 0.364182 0.952579
vt 0.345486 0.439028
vt 0.661824 0.474888
vt -0.000000 0.999999
vt -0.000000 0.425460
vt 0.694407 0.053053
vt 0.999999 0.105268
vt 0.374868 -0.000001
vt 1.000000 0.413714
vt 0.924750 0.807051
vt 0.924750 0.408348
vt 0.959000 0.010936
vt 1.000000 -0.000000
vt 0.924750 0.009644
vn 0.000000 1.000000 0.000000
vn 0.000000 1.000000 0.000000
vn 0.000000 1.000000 0.000000
vn 0.000000 1.000000 0.000000
vn 0.000000 1.000000 0.000000
vn 0.000000 1.000000 0.000000
vn 0.000000 1.000000 0.000000
vn 0.000000 1.000000 0.000000
vn 0.065466 0.000000 0.997855
vn 0.707107 0.000000 0.707107
vn 0.065466 0.000000 0.997855
vn 0.707107 0.000000 0.707107
vn 0.707107 0.000000 0.707107
vn 0.994601 0.000000 0.103770
vn 0.707107 0.000000 0.707107
vn 0.994601 0.000000 0.103770
vn 0.628112 -0.459293 0.628112
vn 0.060773 -0.504088 0.861511
vn 0.000001 -1.000000 0.000001
vn 0.000000 -1.000000 0.000001
vn 0.628112 -0.459293 0.628112
vn 0.000001 -1.000000 0.000001
vn 0.858793 -0.503402 0.095191
vn 0.000001 -1.000000 0.000000
vn 0.032625 0.876229 0.480790
vn 0.066837 0.165067 0.984015
vn 0.350321 0.868660 0.350293
vn 0.698029 0.159764 0.698020
vn 0.698029 0.159764 0.698020
vn 0.980647 0.164975 0.105426
vn 0.350321 0.868660 0.350293
vn 0.477891 0.876935 0.051050
vn 0.067943 0.000000 0.997689
vn 0.707107 0.000001 0.707107
vn 0.066837 0.165067 0.984015
vn 0.698029 0.159764 0.698020
vn 0.707107 0.000001 0.707107
vn 0.994257 0.000000 0.107023
vn 0.698029 0.159764 0.698020
vn 0.980647 0.164975 0.105426
vn -0.000000 1.000000 -0.000004
vn 0.032625 0.876229 0.480790
vn -0.000002 1.000000 -0.000002
vn 0.350321 0.868660 0.350293
vn -0.000002 1.000000 -0.000000
vn -0.000002 1.000000 -0.000002
vn 0.477891 0.876935 0.051050
vn 0.350321 0.868660 0.350293
vn 0.004678 0.997455 0.071138
vn 0.049905 0.683460 0.728280
vn 0.059705 0.996429 0.059705
vn 0.523615 0.672053 0.523615
vn 0.049905 0.683460 0.728280
vn 0.068976 0.165704 0.983760
vn 0.523615 0.672053 0.523615
vn 0.696847 0.169732 0.696847
vn 0.628112 -0.459293 0.628112
vn 0.858793 -0.503402 0.095191
vn 0.696847 0.169732 0.696847
vn 0.980160 0.166136 0.108096
vn 0.060773 -0.504088 0.861511
vn 0.628112 -0.459293 0.628112
vn 0.068976 0.165704 0.983760
vn 0.696847 0.169732 0.696847
vn 0.059705 0.996429 0.059705
vn 0.523615 0.672053 0.523615
vn 0.080696 0.996703 0.008436
vn 0.725595 0.683629 0.078510
vn 0.696847 0.169732 0.696847
vn 0.980160 0.166136 0.108096
vn 0.523615 0.672053 0.523615
vn 0.725595 0.683629 0.078510
vn 0.000000 0.175974 0.984395
vn 0.000000 0.000000 1.000000
vn 0.066837 0.165067 0.984015
vn 0.067943 0.000000 0.997689
vn 0.000000 0.894300 0.447469
vn 0.000000 0.175974 0.984395
vn 0.032625 0.876229 0.480790
vn 0.066837 0.165067 0.984015
vn 0.000000 1.000000 -0.000004
vn 0.000000 0.894300 0.447469
vn -0.000000 1.000000 -0.000004
vn 0.032625 0.876229 0.480790
vn 0.000000 0.000000 1.000000
vn 0.000000 0.000000 1.000000
vn 0.065466 0.000000 0.997855
vn 0.065466 0.000000 0.997855
vn 0.060773 -0.504088 0.861511
vn 0.000000 -0.553428 0.832897
vn 0.000000 -1.000000 0.000001
vn 0.000000 -1.000000 0.000001
vn 0.000000 0.168947 0.985625
vn 0.000000 -0.553428 0.832897
vn 0.068976 0.165704 0.983760
vn 0.060773 -0.504088 0.861511
vn 0.000000 0.706399 0.707814
vn 0.000000 0.168947 0.985625
vn 0.049905 0.683460 0.728280
vn 0.068976 0.165704 0.983760
vn 0.000000 0.998717 0.050635
vn 0.000000 0.706399 0.707814
vn 0.004678 0.997455 0.071138
vn 0.049905 0.683460 0.728280
vn -0.065466 0.000000 0.997855
vn -0.065466 0.000000 0.997855
vn -0.707107 0.000000 0.707107
vn -0.707107 0.000000 0.707107
vn -0.707107 0.000000 0.707107
vn -0.707107 0.000000 0.707107
vn -0.994601 0.000000 0.103770
vn -0.994601 0.000000 0.103770
vn -0.628112 -0.459293 0.628112
vn -0.000001 -1.000000 0.000001
vn -0.060773 -0.504088 0.861511
vn 0.000000 -1.000000 0.000001
vn -0.000001 -1.000000 0.000000
vn -0.000001 -1.000000 0.000001
vn -0.858793 -0.503402 0.095191
vn -0.628112 -0.459293 0.628112
vn -0.032625 0.876229 0.480790
vn -0.350322 0.868659 0.350293
vn -0.066837 0.165067 0.984015
vn -0.698029 0.159763 0.698020
vn -0.477892 0.876934 0.051050
vn -0.980647 0.164975 0.105426
vn -0.350322 0.868659 0.350293
vn -0.698029 0.159763 0.698020
vn -0.067943 0.000000 0.997689
vn -0.066837 0.165067 0.984015
vn -0.707107 0.000001 0.707107
vn -0.698029 0.159763 0.698020
vn -0.707107 0.000001 0.707107
vn -0.698029 0.159763 0.698020
vn -0.994257 0.000000 0.107023
vn -0.980647 0.164975 0.105426
vn -0.350322 0.868659 0.350293
vn -0.032625 0.876229 0.480790
vn 0.000002 1.000000 -0.000002
vn 0.000000 1.000000 -0.000004
vn 0.000002 1.000000 0.000000
vn -0.477892 0.876934 0.051050
vn 0.000002 1.000000 -0.000002
vn -0.350322 0.868659 0.350293
vn -0.004678 0.997455 0.071138
vn -0.059705 0.996429 0.059705
vn -0.049905 0.683460 0.728280
vn -0.523615 0.672053 0.523615
vn -0.049905 0.683460 0.728280
vn -0.523615 0.672053 0.523615
vn -0.068976 0.165704 0.983760
vn -0.696847 0.169732 0.696847
vn -0.628112 -0.459293 0.628112
vn -0.696847 0.169732 0.696847
vn -0.858793 -0.503402 0.095191
vn -0.980160 0.166135 0.108096
vn -0.060773 -0.504088 0.861511
vn -0.068976 0.165704 0.983760
vn -0.628112 -0.459293 0.628112
vn -0.696847 0.169732 0.696847
vn -0.080696 0.996703 0.008436
vn -0.725595 0.683628 0.078510
vn -0.059705 0.996429 0.059705
vn -0.523615 0.672053 0.523615
vn -0.725595 0.683628 0.078510
vn -0.980160 0.166135 0.108096
vn -0.523615 0.672053 0.523615
vn -0.696847 0.169732 0.696847
vn 0.000000 0.175974 0.984395
vn -0.066837 0.165067 0.984015
vn 0.000000 0.000000 1.000000
vn -0.067943 0.000000 0.997689
vn 0.000000 0.894300 0.447469
vn -0.032625 0.876229 0.480790
vn 0.000000 0.175974 0.984395
vn -0.066837 0.165067 0.984015
vn -0.032625 0.876229 0.480790
vn 0.000000 0.894300 0.447469
vn 0.000000 1.000000 -0.000004
vn 0.000000 1.000000 -0.000004
vn 0.000000 0.000000 1.000000
vn -0.065466 0.000000 0.997855
vn 0.000000 0.000000 1.000000
vn -0.065466 0.000000 0.997855
vn -0.060773 -0.504088 0.861511
vn 0.000000 -1.000000 0.000001
vn 0.000000 -0.553428 0.832897
vn 0.000000 -1.000000 0.000001
vn 0.000000 0.168947 0.985625
vn -0.068976 0.165704 0.983760
vn 0.000000 -0.553428 0.832897
vn -0.060773 -0.504088 0.861511
vn 0.000000 0.706399 0.707814
vn -0.049905 0.683460 0.728280
vn 0.000000 0.168947 0.985625
vn -0.068976 0.165704 0.983760
vn 0.000000 0.998717 0.050635
vn -0.004678 0.997455 0.071138
vn 0.000000 0.706399 0.707814
vn -0.049905 0.683460 0.728280
vn -0.001091 0.999585 -0.028800
vn -0.014432 0.710013 -0.704041
vn 0.000000 0.998727 -0.050434
vn 0.000000 0.648382 -0.761315
vn -0.014432 0.710013 -0.704041
vn -0.019126 0.049518 -0.998590
vn 0.000000 0.648382 -0.761315
vn 0.000000 0.044452 -0.999012
vn -0.994072 0.000000 -0.108726
vn -0.585048 0.000000 -0.810999
vn -0.992335 0.061074 -0.107427
vn -0.581853 0.063332 -0.810825
vn -0.585048 0.000000 -0.810999
vn -0.019604 0.000000 -0.999808
vn -0.581853 0.063332 -0.810825
vn -0.019126 0.049518 -0.998590
vn 0.059705 0.996429 0.059705
vn -0.014106 0.999744 -0.017720
vn 0.004678 0.997455 0.071138
vn -0.001091 0.999585 -0.028800
vn 0.059705 0.996429 0.059705
vn 0.080696 0.996703 0.008436
vn -0.014106 0.999744 -0.017720
vn -0.029335 0.999559 -0.004535
vn 0.004678 0.997455 0.071138
vn -0.001091 0.999585 -0.028800
vn 0.000000 0.998717 0.050635
vn 0.000000 0.998727 -0.050434
vn 0.000000 0.000000 -1.000000
vn 0.000000 0.044452 -0.999012
vn -0.019604 0.000000 -0.999808
vn -0.019126 0.049518 -0.998590
vn 0.994072 0.000000 -0.108726
vn 0.992335 0.061074 -0.107427
vn 0.585048 0.000000 -0.810999
vn 0.581853 0.063332 -0.810825
vn 0.585048 0.000000 -0.810999
vn 0.581853 0.063332 -0.810825
vn 0.019604 0.000000 -0.999808
vn 0.019126 0.049518 -0.998590
vn 0.001091 0.999585 -0.028800
vn 0.014106 0.999744 -0.017720
vn -0.004678 0.997455 0.071138
vn -0.059705 0.996429 0.059705
vn -0.059705 0.996429 0.059705
vn 0.014106 0.999744 -0.017720
vn -0.080696 0.996703 0.008436
vn 0.029334 0.999559 -0.004535
vn -0.004678 0.997455 0.071138
vn 0.000000 0.998717 0.050635
vn 0.001091 0.999585 -0.028800
vn 0.000000 0.998727 -0.050434
vn 0.000000 0.000000 -1.000000
vn 0.019604 0.000000 -0.999808
vn 0.000000 0.044452 -0.999012
vn 0.019126 0.049518 -0.998590
vn -0.029335 0.999559 -0.004535
vn -0.626492 0.776107 -0.071865
vn -0.014106 0.999744 -0.017720
vn -0.360039 0.785688 -0.503057
vn -0.992335 0.061074 -0.107427
vn -0.581853 0.063332 -0.810825
vn -0.626492 0.776107 -0.071865
vn -0.360039 0.785688 -0.503057
vn -0.014106 0.999744 -0.017720
vn -0.360039 0.785688 -0.503057
vn -0.001091 0.999585 -0.028800
vn -0.014432 0.710013 -0.704041
vn -0.360039 0.785688 -0.503057
vn -0.581853 0.063332 -0.810825
vn -0.014432 0.710013 -0.704041
vn -0.019126 0.049518 -0.998590
vn 0.992335 0.061074 -0.107427
vn 0.626492 0.776108 -0.071866
vn 0.581853 0.063332 -0.810825
vn 0.360039 0.785688 -0.503057
vn 0.626492 0.776108 -0.071866
vn 0.029334 0.999559 -0.004535
vn 0.360039 0.785688 -0.503057
vn 0.014106 0.999744 -0.017720
vn 0.360039 0.785688 -0.503057
vn 0.014432 0.710013 -0.704041
vn 0.581853 0.063332 -0.810825
vn 0.019126 0.049518 -0.998590
vn 0.014106 0.999744 -0.017720
vn 0.001091 0.999585 -0.028800
vn 0.360039 0.785688 -0.503057
vn 0.014432 0.710013 -0.704041
vn 0.000000 0.648382 -0.761315
vn 0.014432 0.710013 -0.704041
vn 0.000000 0.998727 -0.050434
vn 0.001091 0.999585 -0.028800
vn 0.000000 0.044452 -0.999012
vn 0.019126 0.049518 -0.998590
vn 0.000000 0.648382 -0.761315
vn 0.014432 0.710013 -0.704041
s 1
g Mostrador:PC_ScenepolySurface5polySurface2
f 210/332/473 214/333/474 212/335/475
f 212/335/475 214/333/474 215/334/476
s 2
f 215/336/477 214/337/478 213/339/479
f 213/339/479 214/337/478 211/338/480
s 3
f 222/340/481 223/341/482 221/343/483
f 221/343/483 223/341/482 220/342/484
s 4
f 223/341/485 294/344/486 220/342/487
f 220/342/487 294/344/486 295/345/488
s 5
f 218/346/489 219/347/490 220/349/491
f 220/349/491 219/347/490 221/348/492
s 6
f 218/346/493 220/349/494 299/350/495
f 299/350/495 220/349/494 295/351/496
s 7
f 226/352/497 227/353/498 228/355/499
f 228/355/499 227/353/498 229/354/500
s 8
f 229/354/501 297/356/502 228/355/503
f 228/355/503 297/356/502 296/357/504
s 9
f 224/358/505 225/359/506 227/361/507
f 227/361/507 225/359/506 229/360/508
s 10
f 225/359/509 298/362/510 229/360/511
f 229/360/511 298/362/510 297/363/512
s 11
f 222/365/513 226/352/514 223/364/515
f 223/364/515 226/352/514 228/355/516
s 12
f 294/366/517 223/364/518 296/357/519
f 296/357/519 223/364/518 228/355/520
s 13
f 232/367/521 231/368/522 233/370/523
f 233/370/523 231/368/522 234/369/524
s 14
f 231/368/525 230/371/526 234/369/527
f 234/369/527 230/371/526 235/372/528
s 15
f 218/373/529 299/374/530 235/372/531
f 235/372/531 299/374/530 300/375/532
s 16
f 219/376/533 218/373/534 230/371/535
f 230/371/535 218/373/534 235/372/536
s 17
f 233/370/537 234/369/538 302/378/539
f 302/378/539 234/369/538 301/377/540
s 18
f 235/372/541 300/375/542 234/369/543
f 234/369/543 300/375/542 301/377/544
s 19
f 237/379/545 236/380/546 227/361/547
f 227/361/547 236/380/546 224/358/548
s 20
f 238/381/549 237/382/550 226/352/551
f 226/352/551 237/382/550 227/353/552
s 21
f 239/383/553 238/381/554 222/365/555
f 222/365/555 238/381/554 226/352/556
s 22
f 240/384/557 239/385/558 221/387/559
f 221/387/559 239/385/558 222/386/560
s 23
f 219/347/561 241/388/562 221/348/563
f 221/348/563 241/388/562 240/389/564
s 24
f 242/390/565 241/391/566 230/371/567
f 230/371/567 241/391/566 219/376/568
s 25
f 243/392/569 242/390/570 231/368/571
f 231/368/571 242/390/570 230/371/572
s 26
f 244/393/573 243/392/574 232/367/575
f 232/367/575 243/392/574 231/368/576
s 27
f 255/394/577 253/395/578 256/397/579
f 256/397/579 253/395/578 252/396/580
s 28
f 256/397/581 252/396/582 257/399/583
f 257/399/583 252/396/582 254/398/584
s 29
f 250/400/585 252/401/586 251/403/587
f 251/403/587 252/401/586 253/402/588
s 30
f 254/405/589 252/401/590 249/404/591
f 249/404/591 252/401/590 250/400/592
s 31
f 261/406/593 263/407/594 262/409/595
f 262/409/595 263/407/594 264/408/596
s 32
f 265/410/597 266/411/598 263/407/599
f 263/407/599 266/411/598 264/408/600
s 33
f 258/412/601 262/413/602 259/415/603
f 259/415/603 262/413/602 264/414/604
s 34
f 259/415/605 264/414/606 260/417/607
f 260/417/607 264/414/606 266/416/608
s 35
f 263/407/609 261/406/610 256/418/611
f 256/418/611 261/406/610 255/419/612
s 36
f 257/420/613 265/410/614 256/418/615
f 256/418/615 265/410/614 263/407/616
s 37
f 269/421/617 270/422/618 268/424/619
f 268/424/619 270/422/618 271/423/620
s 38
f 268/424/621 271/423/622 267/426/623
f 267/426/623 271/423/622 272/425/624
s 39
f 250/427/625 272/425/626 249/429/627
f 249/429/627 272/425/626 275/428/628
s 40
f 251/430/629 267/426/630 250/427/631
f 250/427/631 267/426/630 272/425/632
s 41
f 273/431/633 274/432/634 270/422/635
f 270/422/635 274/432/634 271/423/636
s 42
f 274/432/637 275/428/638 271/423/639
f 271/423/639 275/428/638 272/425/640
s 43
f 237/379/641 262/413/642 236/380/643
f 236/380/643 262/413/642 258/412/644
s 44
f 238/433/645 261/406/646 237/434/647
f 237/434/647 261/406/646 262/409/648
s 45
f 261/406/649 238/433/650 255/419/651
f 255/419/651 238/433/650 239/435/652
s 46
f 240/384/653 253/436/654 239/385/655
f 239/385/655 253/436/654 255/437/656
s 47
f 251/403/657 253/402/658 241/439/659
f 241/439/659 253/402/658 240/438/660
s 48
f 242/390/661 267/426/662 241/391/663
f 241/391/663 267/426/662 251/430/664
s 49
f 243/392/665 268/424/666 242/390/667
f 242/390/667 268/424/666 267/426/668
s 50
f 244/393/669 269/421/670 243/392/671
f 243/392/671 269/421/670 268/424/672
s 51
f 281/442/673 280/443/674 282/497/675
f 282/497/675 280/443/674 283/445/676
s 52
f 280/443/677 279/498/678 283/445/679
f 283/445/679 279/498/678 284/499/680
s 53
f 306/446/681 217/447/682 305/449/683
f 305/449/683 217/447/682 276/448/684
s 54
f 217/447/685 216/450/686 276/448/687
f 276/448/687 216/450/686 279/451/688
s 55
f 233/453/689 278/454/690 232/452/691
f 232/452/691 278/454/690 281/455/692
s 56
f 233/453/693 302/456/694 278/454/695
f 278/454/695 302/456/694 303/457/696
s 57
f 232/458/697 281/459/698 244/461/699
f 244/461/699 281/459/698 282/460/700
s 58
f 245/462/701 284/463/702 216/465/703
f 216/465/703 284/463/702 279/464/704
s 59
f 248/466/705 285/467/706 247/469/707
f 247/469/707 285/467/706 288/468/708
s 60
f 247/469/709 288/468/710 246/471/711
f 246/471/711 288/468/710 291/470/712
s 61
f 293/473/713 290/474/714 269/472/715
f 269/472/715 290/474/714 270/475/716
s 62
f 270/475/717 290/474/718 273/477/719
f 273/477/719 290/474/718 287/476/720
s 63
f 269/478/721 244/461/722 293/479/723
f 293/479/723 244/461/722 282/460/724
s 64
f 245/462/725 246/480/726 284/463/727
f 284/463/727 246/480/726 291/481/728
s 65
f 303/440/729 304/441/730 278/482/731
f 278/482/731 304/441/730 277/444/732
s 66
f 305/483/733 276/484/734 304/441/735
f 304/441/735 276/484/734 277/444/736
s 67
f 278/482/737 277/444/738 281/486/739
f 281/486/739 277/444/738 280/485/740
s 68
f 277/444/741 276/484/742 280/485/743
f 280/485/743 276/484/742 279/487/744
s 69
f 285/488/745 286/489/746 288/491/747
f 288/491/747 286/489/746 289/490/748
s 70
f 286/489/749 287/492/750 289/490/751
f 289/490/751 287/492/750 290/493/752
s 71
f 289/490/753 292/494/754 288/491/755
f 288/491/755 292/494/754 291/495/756
s 72
f 290/493/757 293/496/758 289/490/759
f 289/490/759 293/496/758 292/494/760
s 73
f 283/445/761 292/500/762 282/497/763
f 282/497/763 292/500/762 293/501/764
s 74
f 284/499/765 291/502/766 283/445/767
f 283/445/767 291/502/766 292/500/768
