# This file uses centimeters as units for non-parametric coordinates.

mtllib Mostrador3.mtl
g default
v 3.956070 2.069373 -3.902490
v 4.000000 1.963318 -3.896440
v 4.000000 1.963318 -7.015515
v 3.956070 2.069373 -7.016655
v 4.000000 1.813303 -3.896075
v 3.900000 1.813303 -4.003202
v 3.900000 1.253304 -4.003201
v 3.950000 1.113303 -3.909855
v 3.925003 1.253304 -3.914827
v 3.950000 1.228306 -3.909855
v 3.900000 1.253304 -6.972030
v 3.950000 1.228306 -6.970813
v 4.000000 1.813303 -6.999122
v 3.900000 1.813303 -6.996850
v 3.950000 1.113303 -6.966640
v 3.925003 1.253304 -6.971611
v 4.000000 1.963318 -7.005044
v 4.000000 1.963318 -3.896075
v -3.996718 1.813303 -3.896075
v -3.896717 1.813303 -3.916302
v -3.902930 1.248037 -3.920619
v -3.946717 1.113303 -3.909855
v -3.921720 1.253304 -3.914827
v -3.946717 1.228306 -3.909855
v -3.896717 1.253304 -6.972030
v -3.946717 1.228306 -6.970813
v -3.996718 1.813303 -6.999122
v -3.896718 1.813303 -6.996850
v -3.946717 1.113303 -6.966640
v -3.921720 1.253304 -6.971611
v -3.987622 1.957854 -7.016386
v -3.996718 1.963318 -3.896075
v -3.001706 1.113303 -4.401572
v -3.851721 2.113303 -3.926202
v -3.001706 1.113303 -6.937953
v -3.851721 2.113303 -7.030336
v -3.001706 1.943317 -4.401571
v -3.051493 2.063516 -4.377768
v -3.171692 2.113303 -4.304649
v -3.001706 1.943317 -7.010373
v -3.119427 2.054549 -7.025486
v -3.171692 2.113303 -7.030337
v -0.867952 2.124758 -3.149985
v 0.867952 2.124758 -3.149985
v -0.867952 2.124758 -3.964299
v 0.867952 2.124758 -3.964299
v 0.000000 2.124758 -3.149985
v 0.000000 2.124758 -3.964299
v 2.586069 1.113303 -4.107961
v 2.836422 1.113303 -4.163578
v 3.736423 1.813303 -3.263577
v 3.100090 1.813303 -3.000000
v 3.659886 1.813303 -3.340114
v 3.080199 1.813303 -3.100000
v 3.080199 1.253304 -3.100000
v 3.659886 1.253303 -3.340114
v 3.090145 1.113303 -3.050000
v 3.698154 1.113303 -3.301846
v 3.085371 1.253304 -3.075058
v 3.090145 1.228305 -3.050000
v 3.679022 1.253304 -3.320978
v 3.698154 1.228306 -3.301846
v 3.100090 1.963318 -3.000000
v 3.091352 2.069373 -3.043929
v 3.070256 2.113303 -3.149985
v 3.621629 2.113303 -3.378371
v 3.702800 2.069373 -3.297200
v 3.736423 1.963318 -3.263577
v 0.000000 1.113303 -3.050000
v 0.000000 1.228306 -3.050000
v 0.000000 1.253304 -3.075027
v 0.000000 1.253303 -3.100000
v 0.000000 1.813303 -3.100000
v 0.000000 1.813303 -3.000000
v 0.000000 1.963318 -3.000000
v 0.000000 2.069373 -3.043929
v 0.000000 2.113303 -3.149985
v 0.000000 1.113303 -4.107961
v -2.586069 1.113303 -4.107961
v -2.836422 1.113303 -4.163578
v -3.000000 1.113303 -4.406567
v -4.000000 1.813303 -3.899910
v -3.736423 1.813303 -3.263577
v -3.100090 1.813303 -3.000000
v -3.659886 1.813303 -3.340114
v -3.080199 1.813303 -3.100000
v -3.900000 1.813303 -3.919801
v -3.080199 1.253304 -3.100000
v -3.659886 1.253303 -3.340114
v -3.900000 1.253304 -3.919801
v -3.090145 1.113303 -3.050000
v -3.698154 1.113303 -3.301846
v -3.950000 1.113303 -3.909855
v -3.085371 1.253304 -3.075058
v -3.090145 1.228305 -3.050000
v -3.679022 1.253304 -3.320978
v -3.698154 1.228306 -3.301846
v -3.925003 1.253304 -3.914827
v -3.950000 1.228306 -3.909855
v -3.100090 1.963318 -3.000000
v -3.091352 2.069373 -3.043929
v -3.070256 2.113303 -3.149985
v -3.621629 2.113303 -3.378371
v -3.702800 2.069373 -3.297200
v -3.736423 1.963318 -3.263577
v -3.850015 2.113303 -3.929744
v -3.956070 2.069373 -3.908648
v -4.000000 1.963318 -3.975571
v 2.836422 1.943317 -4.163578
v 2.874528 2.063516 -4.125472
v 2.966524 2.113303 -4.033476
v 2.586069 1.943317 -4.107961
v 2.614587 2.063516 -4.065883
v 2.683433 2.113303 -3.964299
v 0.000000 2.113303 -3.964299
v 0.000000 2.063516 -4.065883
v 0.000000 1.943317 -4.107961
v -3.000000 1.943317 -4.406567
v -3.049788 2.063516 -4.377768
v -3.169986 2.113303 -4.308241
v -2.836422 1.943317 -4.163578
v -2.874528 2.063516 -4.125472
v -2.966524 2.113303 -4.033476
v -2.586069 1.943317 -4.107961
v -2.614587 2.063516 -4.065883
v -2.683433 2.113303 -3.964299
v 3.900000 1.253304 -4.003201
v 3.900000 1.813303 -4.003202
v 3.925003 1.253304 -3.914827
v 3.950000 1.228306 -3.909855
v 3.950000 1.113303 -3.909855
v 4.000000 1.813303 -3.896075
v 4.000000 1.963318 -3.896075
v 3.956070 2.069373 -3.908648
v 3.850015 2.113303 -3.694782
v 3.169986 2.113303 -4.432317
v 3.049788 2.063516 -4.377768
v 3.000000 1.943317 -4.401571
v 3.000000 1.113303 -4.401572
v -3.996718 1.813303 -3.896075
v -3.896717 1.813303 -3.916302
v -3.902930 1.248037 -3.920619
v -3.946717 1.113303 -3.909855
v -3.921720 1.253304 -3.914827
v -3.946717 1.228306 -3.909855
v -3.896717 1.253304 -6.972030
v -3.946717 1.228306 -6.970813
v -3.996718 1.813303 -6.999122
v -3.896718 1.813303 -6.996850
v -3.946717 1.113303 -6.966640
v -3.921720 1.253304 -6.971611
v -3.987090 1.957854 -7.016386
v -3.995876 1.963318 -3.896075
v -3.001706 1.113303 -4.401572
v -3.851721 2.113303 -3.926202
v -3.001706 1.113303 -6.937953
v -3.851721 2.113303 -7.030336
v -3.001706 1.943317 -4.401571
v -3.051493 2.063516 -4.377768
v -3.171692 2.113303 -4.304649
v -3.001706 1.943317 -7.010373
v -3.119427 2.054549 -7.025486
v -3.171692 2.113303 -7.030337
v -3.979864 2.026884 -7.020126
v -3.955477 2.070883 -3.906664
v 3.957092 2.069373 -3.908648
v 3.957092 2.069373 -7.015661
v 3.851037 2.113303 -7.030336
v 3.851037 2.113303 -3.694782
v 3.957092 2.069373 -3.908648
v 3.957092 2.069373 -7.015661
v 3.851037 2.113303 -7.030336
v 3.851037 2.113303 -3.694782
v 4.000000 1.813303 -3.896075
v 3.900000 1.813303 -4.003202
v 3.900000 1.253304 -4.003201
v 3.950000 1.113303 -3.909855
v 3.925003 1.253304 -3.914827
v 3.950000 1.228306 -3.909855
v 3.900000 1.253304 -6.972030
v 3.950000 1.228306 -6.970813
v 4.000000 1.813303 -6.999122
v 3.900000 1.813303 -6.996850
v 3.950000 1.113303 -6.966640
v 3.925003 1.253304 -6.971611
v 4.000000 1.963318 -7.005044
v 4.000000 1.963318 -3.896075
v 3.000000 1.113303 -4.401572
v 3.850015 2.113303 -3.694782
v 3.000000 1.113303 -6.937953
v 3.850015 2.113303 -7.030336
v 3.000000 1.943317 -4.401571
v 3.049788 2.063516 -4.377768
v 3.169986 2.113303 -4.432317
v 3.000000 1.943317 -7.010373
v 3.117722 2.054549 -7.025486
v 3.169986 2.113303 -7.030337
v 3.000000 1.113303 -4.401572
v 3.850015 2.113303 -3.694782
v 3.000000 1.113303 -6.937953
v 3.850015 2.113303 -7.030336
v 3.000000 1.943317 -4.401571
v 3.049788 2.063516 -4.377768
v 3.169986 2.113303 -4.432317
v 3.000000 1.943317 -7.010373
v 3.117722 2.054549 -7.025486
v 3.169986 2.113303 -7.030337
v -0.867952 2.124758 -3.149985
v 0.867952 2.124758 -3.149985
v -0.867952 2.124758 -3.964299
v 0.867952 2.124758 -3.964299
v 0.000000 2.124758 -3.149985
v 0.000000 2.124758 -3.964299
v 2.586069 1.113303 -4.107961
v 2.836422 1.113303 -4.163578
v 3.736423 1.813303 -3.263577
v 3.100090 1.813303 -3.000000
v 3.659886 1.813303 -3.340114
v 3.080199 1.813303 -3.100000
v 3.080199 1.253304 -3.100000
v 3.659886 1.253303 -3.340114
v 3.090145 1.113303 -3.050000
v 3.698154 1.113303 -3.301846
v 3.085371 1.253304 -3.075058
v 3.090145 1.228305 -3.050000
v 3.679022 1.253304 -3.320978
v 3.698154 1.228306 -3.301846
v 3.100090 1.963318 -3.000000
v 3.091352 2.069373 -3.043929
v 3.070256 2.113303 -3.149985
v 3.621629 2.113303 -3.378371
v 3.702800 2.069373 -3.297200
v 3.736423 1.963318 -3.263577
v 0.000000 1.113303 -3.050000
v 0.000000 1.228306 -3.050000
v 0.000000 1.253304 -3.075027
v 0.000000 1.253303 -3.100000
v 0.000000 1.813303 -3.100000
v 0.000000 1.813303 -3.000000
v 0.000000 1.963318 -3.000000
v 0.000000 2.069373 -3.043929
v 0.000000 2.113303 -3.149985
v 0.000000 1.113303 -4.107961
v -2.586069 1.113303 -4.107961
v -2.836422 1.113303 -4.163578
v -3.000000 1.113303 -4.406567
v -4.000000 1.813303 -3.899910
v -3.736423 1.813303 -3.263577
v -3.100090 1.813303 -3.000000
v -3.659886 1.813303 -3.340114
v -3.080199 1.813303 -3.100000
v -3.900000 1.813303 -3.919801
v -3.080199 1.253304 -3.100000
v -3.659886 1.253303 -3.340114
v -3.900000 1.253304 -3.919801
v -3.090145 1.113303 -3.050000
v -3.698154 1.113303 -3.301846
v -3.950000 1.113303 -3.909855
v -3.085371 1.253304 -3.075058
v -3.090145 1.228305 -3.050000
v -3.679022 1.253304 -3.320978
v -3.698154 1.228306 -3.301846
v -3.925003 1.253304 -3.914827
v -3.950000 1.228306 -3.909855
v -3.100090 1.963318 -3.000000
v -3.091352 2.069373 -3.043929
v -3.070256 2.113303 -3.149985
v -3.621629 2.113303 -3.378371
v -3.850015 2.113303 -3.929744
v 2.836422 1.943317 -4.163578
v 2.874528 2.063516 -4.125472
v 2.966524 2.113303 -4.033476
v 2.586069 1.943317 -4.107961
v 2.614587 2.063516 -4.065883
v 2.683433 2.113303 -3.964299
v 0.000000 2.113303 -3.964299
v 0.000000 2.063516 -4.065883
v 0.000000 1.943317 -4.107961
v -3.000000 1.943317 -4.406567
v -3.049788 2.063516 -4.377768
v -3.169986 2.113303 -4.308241
v -2.836422 1.943317 -4.163578
v -2.874528 2.063516 -4.125472
v -2.966524 2.113303 -4.033476
v -2.586069 1.943317 -4.107961
v -2.614587 2.063516 -4.065883
v -2.683433 2.113303 -3.964299
v 3.900000 1.253304 -4.003201
v 3.900000 1.813303 -4.003202
v 3.925003 1.253304 -3.914827
v 3.950000 1.228306 -3.909855
v 3.950000 1.113303 -3.909855
v 4.000000 1.813303 -3.896075
v 4.000000 1.963318 -3.896075
v 3.956070 2.069373 -3.908648
v 3.850015 2.113303 -3.694782
v 3.169986 2.113303 -4.432317
v 3.049788 2.063516 -4.377768
v 3.000000 1.943317 -4.401571
v 3.000000 1.113303 -4.401572
v -3.956070 2.069373 -3.908648
v -3.702800 2.069373 -3.297200
v -3.736423 1.963318 -3.263577
v -4.000000 1.963318 -3.899910
v -3.702800 2.069373 -3.297200
v -3.736423 1.963318 -3.263577
v -3.956070 2.069373 -3.908648
v -4.000000 1.963318 -3.899910
v 3.956070 2.069373 -3.902490
v 4.000000 1.963318 -3.896440
v 4.000000 1.963318 -7.015515
v 3.956070 2.069373 -7.016655
vt 0.913224 0.500002
vt 1.147638 0.500002
vt 0.912759 0.516428
vt 1.149122 0.515228
vt 0.230976 0.168672
vt 0.990194 0.168672
vt 0.230976 0.843359
vt 0.996542 0.843359
vt 0.039290 0.015972
vt 0.051198 0.015972
vt 0.039305 0.018128
vt 0.051198 0.018142
vt 0.999998 1.000000
vt 0.999998 1.000000
vt -0.000002 1.000000
vt -0.000002 1.000000
vt 0.913197 0.477020
vt 1.146592 0.478621
vt 0.913197 0.500002
vt 1.146970 0.500002
vt 0.132814 0.984047
vt 0.133363 0.984124
vt 0.133275 0.974832
vt 0.133782 0.974798
vt 0.051198 0.019676
vt 0.039320 0.019665
vt 0.209857 0.162327
vt 0.990194 0.168672
vt 0.208753 0.843359
vt 0.996542 0.843359
vt 0.039290 0.015972
vt 0.051198 0.015972
vt 0.039305 0.018128
vt 0.051198 0.018142
vt 1.000002 0.000416
vt 1.000002 0.000416
vt 0.000002 0.000416
vt 0.000002 0.000416
vt 0.086934 0.477002
vt -0.146633 0.478607
vt 0.086934 0.500002
vt -0.148024 0.499222
vt 0.132814 0.984047
vt 0.133363 0.984124
vt 0.133275 0.974832
vt 0.133782 0.974798
vt 0.051198 0.019676
vt 0.039320 0.019665
vt 0.332851 0.000000
vt 0.332851 1.000000
vt 0.981480 0.000000
vt 1.000000 1.000000
vt -0.000000 0.200038
vt -0.000000 1.000000
vt 0.087096 0.297567
vt 0.087096 1.000000
vt 0.498548 0.973398
vt 0.326687 0.001762
vt 1.000000 0.964449
vt 1.000000 0.007332
vt 0.000000 1.000000
vt 0.000000 0.000000
vt 0.782458 0.870936
vt 0.687111 0.870936
vt 0.782458 0.781482
vt 0.687111 0.781482
vt 0.687112 0.781482
vt 0.687112 0.870936
vt 0.782458 0.781482
vt 0.782458 0.870936
vt 0.933507 0.444539
vt 0.964249 0.452554
vt 0.933507 0.557464
vt 0.964249 0.549162
vt 1.020402 0.455275
vt 1.020402 0.546344
vt 0.133820 0.971969
vt 0.133606 0.969094
vt 0.133354 0.971982
vt 0.133057 0.969026
vt 0.133782 0.974798
vt 0.133275 0.974832
vt 0.030459 0.018135
vt 0.030480 0.015972
vt 0.034885 0.018093
vt 0.034885 0.015972
vt 0.039290 0.015972
vt 0.039305 0.018128
vt 0.999999 0.891158
vt 0.999999 0.968121
vt 0.000008 0.891158
vt -0.000001 0.968121
vt 0.999998 1.000000
vt -0.000002 1.000000
vt 0.030435 0.019668
vt 0.034884 0.019642
vt 0.039320 0.019665
vt 0.826261 0.526567
vt 0.819342 0.518413
vt 0.864917 0.524016
vt 0.861756 0.516539
vt 0.816558 0.500003
vt 0.860495 0.500002
vt 0.860495 0.476869
vt 0.913197 0.477020
vt 0.913197 0.500002
vt 0.816558 0.474188
vt 0.894867 0.523451
vt 0.913218 0.516434
vt 0.000000 0.500000
vt 1.000000 0.500000
vt 0.009201 0.018141
vt 0.009201 0.015972
vt 0.009201 0.019672
vt 0.000000 0.843359
vt 0.000000 0.168671
vt 0.000000 0.843359
vt 0.000000 0.168672
vt 0.133530 0.951793
vt 0.132974 0.951795
vt 0.500032 0.500005
vt 0.500032 0.452700
vt 0.500032 0.534223
vt 0.500032 0.551088
vt 0.066557 0.444539
vt 0.066557 0.557464
vt 0.035815 0.452554
vt 0.035815 0.549162
vt -0.013551 0.455224
vt -0.013551 0.546396
vt 0.133820 0.971970
vt 0.133353 0.971983
vt 0.133607 0.969094
vt 0.133054 0.969026
vt 0.133277 0.974831
vt 0.133783 0.974797
vt 0.030459 0.018131
vt 0.034885 0.018090
vt 0.030480 0.015969
vt 0.034885 0.015969
vt 0.039305 0.018125
vt 0.039290 0.015969
vt 1.000001 0.108842
vt 0.000010 0.108842
vt 1.000001 0.031879
vt 0.000001 0.031879
vt 1.000002 0.000000
vt 0.000002 0.000000
vt 0.034884 0.019639
vt 0.030436 0.019664
vt 0.039320 0.019662
vt 0.173802 0.526567
vt 0.135146 0.524016
vt 0.180721 0.518413
vt 0.138308 0.516539
vt 0.183506 0.500003
vt 0.139569 0.500002
vt 0.139569 0.476869
vt 0.086583 0.477014
vt 0.086583 0.500002
vt 0.183506 0.474188
vt 0.087502 0.523862
vt 0.086845 0.516434
vt 0.009201 0.018138
vt 0.009201 0.015969
vt 0.009201 0.019668
vt 0.000000 0.843359
vt 0.000000 0.168672
vt 0.133527 0.951793
vt 0.132974 0.951795
vt 1.000000 0.827429
vt 0.959000 0.817136
vt 1.000000 0.413714
vt 0.959000 0.414036
vt 0.924750 0.807051
vt 0.924750 0.408348
vt 1.067776 0.414439
vt 1.045759 0.408450
vt 1.067776 0.585561
vt 1.045759 0.591550
vt 1.043417 0.399624
vt 1.043417 0.600376
vt 0.957166 0.058857
vt 0.873262 0.227683
vt 0.886547 0.000000
vt 0.837004 0.209856
vt 0.986417 0.140399
vt 0.899321 0.330468
vt 0.000000 -0.000000
vt 1.000000 0.062995
vt 0.000000 0.500000
vt 1.000000 0.500000
vt 0.257766 0.000000
vt 0.257766 1.000000
vt 0.257766 0.000000
vt 0.257766 1.000000
vt -0.068218 0.414468
vt -0.068218 0.585532
vt -0.045695 0.408450
vt -0.045695 0.591550
vt -0.043353 0.399624
vt -0.043353 0.600376
vt 0.149631 0.209856
vt 0.113374 0.227683
vt 0.100088 0.000000
vt 0.029469 0.058857
vt 0.000218 0.200951
vt 0.087315 0.298493
vt -0.000000 1.000000
vt 0.999999 0.937005
vt 0.257766 0.000000
vt 0.257766 1.000000
vt -0.000000 0.000000
vt 0.240967 0.157954
vt -0.000000 0.651312
vt 0.321037 0.614243
vt 0.545687 0.132142
vt 0.618215 0.560902
vt 0.426193 1.000000
vt 0.715828 0.929904
vt 1.000000 0.862884
vt 0.688265 0.963176
vt 0.364182 0.952579
vt 0.661824 0.474888
vt 0.345486 0.439028
vt -0.000000 0.999999
vt -0.000000 0.425460
vt 0.694407 0.053053
vt 0.999999 0.105268
vt 0.374868 -0.000001
vt 0.959000 0.010936
vt 1.000000 -0.000000
vt 0.924750 0.009644
vt 0.209857 0.162327
vt 0.990194 0.168672
vt 0.208753 0.843359
vt 0.996542 0.843359
vt 0.039290 0.015972
vt 0.051198 0.015972
vt 0.039305 0.018128
vt 0.051198 0.018142
vt 1.000002 0.000416
vt 1.000002 0.000416
vt 0.000002 0.000416
vt 0.000002 0.000416
vt 0.301921 0.500002
vt 0.086934 0.477002
vt -0.146633 0.478607
vt 0.066963 0.499222
vt 0.132814 0.984047
vt 0.133363 0.984124
vt 0.133275 0.974832
vt 0.133782 0.974798
vt 0.051198 0.019676
vt 0.039320 0.019665
vt 0.332851 0.000000
vt 0.332851 1.000000
vt 0.981480 0.000000
vt 1.000000 1.000000
vt 0.214987 0.200038
vt 0.087096 0.297567
vt 0.214987 1.000000
vt 0.087096 1.000000
vt 0.507030 0.973341
vt 1.000000 0.964411
vt 0.325905 0.001753
vt 1.000000 0.007294
vt 0.000000 1.000000
vt 0.000000 0.000000
vt 1.000000 1.000000
vt 0.470221 0.996633
vt 0.715653 0.003306
vt 1.000000 0.004481
vt -0.000000 0.990350
vt 0.005308 0.000000
vt 0.894867 0.523451
vt 0.913218 0.516434
vt 1.153523 0.521966
vt 1.149058 0.515229
vt 0.894867 0.523451
vt 0.913218 0.516434
vt 1.153523 0.521966
vt 1.149058 0.515229
vt 0.230976 0.168672
vt 0.990194 0.168672
vt 0.230976 0.843359
vt 0.996542 0.843359
vt 0.039290 0.015972
vt 0.051198 0.015972
vt 0.039305 0.018128
vt 0.051198 0.018142
vt 0.999998 1.000000
vt 0.999998 1.000000
vt -0.000002 1.000000
vt -0.000002 1.000000
vt 0.913197 0.477020
vt 1.146592 0.478621
vt 0.913197 0.500002
vt 1.146970 0.500002
vt 0.132814 0.984047
vt 0.133363 0.984124
vt 0.133275 0.974832
vt 0.133782 0.974798
vt 0.051198 0.019676
vt 0.039320 0.019665
vt 0.332851 0.000000
vt 0.332851 1.000000
vt 0.981480 0.000000
vt 1.000000 1.000000
vt 0.986417 0.140399
vt 0.986417 1.000000
vt 0.899321 0.330468
vt 0.899321 1.000000
vt 0.859629 0.894156
vt 0.014473 0.988353
vt 0.831202 0.880210
vt -0.000000 0.963220
vt 0.850883 0.917334
vt 0.023116 1.000000
vt 0.332851 0.000000
vt 0.332851 1.000000
vt 0.981480 0.000000
vt 1.000000 1.000000
vt 0.986417 0.140399
vt 0.986417 1.000000
vt 0.899321 0.330468
vt 0.899321 1.000000
vt 0.859629 0.894156
vt 0.014473 0.988353
vt 0.831202 0.880210
vt -0.000000 0.963220
vt 0.850883 0.917334
vt 0.023116 1.000000
vt 0.000000 0.619829
vt 0.000000 0.500000
vt 0.921700 0.619829
vt 0.921700 0.500000
vt 0.921700 0.380171
vt 0.000000 0.380171
vt 0.933507 0.444539
vt 0.964249 0.452554
vt 0.933507 0.557464
vt 0.964249 0.549162
vt 1.020402 0.455275
vt 1.020402 0.546344
vt 0.133820 0.971969
vt 0.133606 0.969094
vt 0.133354 0.971982
vt 0.133057 0.969026
vt 0.133782 0.974798
vt 0.133275 0.974832
vt 0.030459 0.018135
vt 0.030480 0.015972
vt 0.034885 0.018093
vt 0.034885 0.015972
vt 0.039290 0.015972
vt 0.039305 0.018128
vt 0.999999 0.891158
vt 0.999999 0.968121
vt 0.000008 0.891158
vt -0.000001 0.968121
vt 0.999998 1.000000
vt -0.000002 1.000000
vt 0.030435 0.019668
vt 0.034884 0.019642
vt 0.039320 0.019665
vt 0.826261 0.526567
vt 0.819342 0.518413
vt 0.864917 0.524016
vt 0.861756 0.516539
vt 0.816558 0.500003
vt 0.860495 0.500002
vt 0.860495 0.476869
vt 0.913197 0.477020
vt 0.913197 0.500002
vt 0.816558 0.474188
vt 0.894867 0.523451
vt 0.913218 0.516434
vt 0.000000 0.500000
vt 1.000000 0.500000
vt 0.009201 0.018141
vt 0.009201 0.015972
vt 0.009201 0.019672
vt 0.000000 0.843359
vt 0.000000 0.168671
vt 0.000000 0.843359
vt 0.000000 0.168672
vt 0.133530 0.951793
vt 0.132974 0.951795
vt 0.500032 0.500005
vt 0.500032 0.452700
vt 0.500032 0.534223
vt 0.500032 0.551088
vt 0.066557 0.444539
vt 0.066557 0.557464
vt 0.035815 0.452554
vt 0.035815 0.549162
vt -0.013551 0.455224
vt -0.013551 0.546396
vt 0.133820 0.971970
vt 0.133353 0.971983
vt 0.133607 0.969094
vt 0.133054 0.969026
vt 0.133277 0.974831
vt 0.133783 0.974797
vt 0.030459 0.018131
vt 0.034885 0.018090
vt 0.030480 0.015969
vt 0.034885 0.015969
vt 0.039305 0.018125
vt 0.039290 0.015969
vt 1.000001 0.108842
vt 0.000010 0.108842
vt 1.000001 0.031879
vt 0.000001 0.031879
vt 1.000002 0.000000
vt 0.000002 0.000000
vt 0.034884 0.019639
vt 0.030436 0.019664
vt 0.039320 0.019662
vt 0.173802 0.526567
vt 0.135146 0.524016
vt 0.180721 0.518413
vt 0.138308 0.516539
vt 0.183506 0.500003
vt 0.139569 0.500002
vt 0.139569 0.476869
vt 0.086583 0.477014
vt 0.086583 0.500002
vt 0.183506 0.474188
vt 0.087502 0.523862
vt 0.086845 0.516434
vt 0.009201 0.018138
vt 0.009201 0.015969
vt 0.009201 0.019668
vt 0.000000 0.843359
vt 0.000000 0.168672
vt 0.133527 0.951793
vt 0.132974 0.951795
vt 1.000000 0.827429
vt 0.959000 0.817136
vt 1.000000 0.413714
vt 0.959000 0.414036
vt 0.924750 0.807051
vt 0.924750 0.408348
vt 1.067776 0.414439
vt 1.045759 0.408450
vt 1.067776 0.585561
vt 1.045759 0.591550
vt 1.043417 0.399624
vt 1.043417 0.600376
vt 0.258504 0.000000
vt 1.000000 0.090443
vt 0.070190 -0.098555
vt 0.851510 -0.045150
vt 0.957166 0.058857
vt 0.986417 0.140399
vt 0.873262 0.227683
vt 0.899321 0.330468
vt 0.070190 0.325323
vt 0.851510 0.325323
vt 0.257766 0.000000
vt 0.257766 1.000000
vt 0.257766 0.000000
vt 0.257766 1.000000
vt -0.068218 0.414468
vt -0.068218 0.585532
vt -0.045695 0.408450
vt -0.045695 0.591550
vt -0.043353 0.399624
vt -0.043353 0.600376
vt 0.921700 0.870473
vt 0.999999 0.909557
vt 0.000000 0.923878
vt 0.258504 1.000000
vt 0.029469 0.058857
vt 0.113374 0.227683
vt 0.000218 0.200951
vt 0.087315 0.298493
vt 0.257766 0.000000
vt 0.257766 1.000000
vt -0.000000 0.000000
vt 0.240967 0.157954
vt -0.000000 0.651312
vt 0.321037 0.614243
vt 0.545687 0.132142
vt 0.618215 0.560902
vt 0.426193 1.000000
vt 0.715828 0.929904
vt 1.000000 0.862884
vt 0.688265 0.963176
vt 0.364182 0.952579
vt 0.661824 0.474888
vt 0.345486 0.439028
vt -0.000000 0.999999
vt -0.000000 0.425460
vt 0.694407 0.053053
vt 0.999999 0.105268
vt 0.374868 -0.000001
vt 0.959000 0.010936
vt 1.000000 -0.000000
vt 0.924750 0.009644
vt 0.086845 0.516434
vt 0.086583 0.500002
vt 0.138308 0.516539
vt 0.139569 0.500002
vt 0.913224 0.500002
vt 1.147638 0.500002
vt 0.912759 0.516428
vt 1.149122 0.515228
vn 0.923878 0.382688 0.000000
vn 0.923878 0.382688 0.000000
vn 0.923878 0.382688 0.000000
vn 0.923878 0.382688 0.000000
vn 0.923876 0.382691 0.000000
vn 0.923876 0.382691 0.000000
vn 1.000000 0.000000 0.000000
vn 1.000000 0.000000 0.000000
vn 1.000000 0.000000 0.000000
vn 1.000000 0.000000 0.000000
vn 1.000000 -0.000001 0.000000
vn 1.000000 -0.000001 0.000000
vn 0.980647 0.164975 0.105426
vn 0.984458 0.175622 0.000000
vn 0.477891 0.876935 0.051050
vn 0.477891 0.876935 0.051050
vn 0.984458 0.175622 0.000000
vn 0.447564 0.894252 0.000000
vn 0.994257 0.000000 0.107023
vn 1.000000 0.000000 0.000000
vn 0.980647 0.164975 0.105426
vn 0.980647 0.164975 0.105426
vn 1.000000 0.000000 0.000000
vn 0.984458 0.175622 0.000000
vn 0.858793 -0.503402 0.095191
vn 0.825921 -0.563425 0.020199
vn 0.980160 0.166136 0.108096
vn 0.980160 0.166136 0.108096
vn 0.825921 -0.563425 0.020199
vn 0.987000 0.157447 0.032258
vn 0.000000 -1.000000 0.000000
vn 0.825921 -0.563425 0.020199
vn 0.000001 -1.000000 0.000000
vn 0.000001 -1.000000 0.000000
vn 0.825921 -0.563425 0.020199
vn 0.858793 -0.503402 0.095191
vn -0.000002 1.000000 0.000000
vn -0.000002 1.000000 0.000000
vn 0.447564 0.894252 0.000000
vn 0.447564 0.894252 0.000000
vn -0.000002 1.000000 0.000000
vn 0.477891 0.876935 0.051050
vn -0.994601 0.000000 0.103770
vn -0.994601 0.000000 0.103770
vn -1.000000 0.000000 0.000000
vn -0.994601 0.000000 0.103770
vn -1.000000 0.000000 0.000000
vn -1.000000 0.000000 0.000000
vn -0.980647 0.164975 0.105426
vn -0.477891 0.876935 0.051050
vn -0.984458 0.175622 0.000000
vn -0.477891 0.876935 0.051050
vn -0.447564 0.894252 0.000000
vn -0.984458 0.175622 0.000000
vn -0.994257 0.000000 0.107023
vn -0.980647 0.164975 0.105426
vn -1.000000 0.000000 0.000000
vn -0.980647 0.164975 0.105426
vn -0.984458 0.175622 0.000000
vn -1.000000 0.000000 0.000000
vn -0.858793 -0.503402 0.095191
vn -0.980160 0.166136 0.108096
vn -0.825921 -0.563425 0.020199
vn -0.980160 0.166136 0.108096
vn -0.987000 0.157447 0.032258
vn -0.825921 -0.563425 0.020199
vn 0.000000 -1.000000 0.000000
vn -0.825921 -0.563425 0.020199
vn -0.000001 -1.000000 0.000000
vn -0.000001 -1.000000 0.000000
vn -0.825921 -0.563425 0.020199
vn -0.858793 -0.503402 0.095191
vn 0.000002 1.000000 0.000000
vn -0.447564 0.894252 0.000000
vn 0.000002 1.000000 0.000000
vn -0.447564 0.894252 0.000000
vn -0.477891 0.876935 0.051050
vn 0.000002 1.000000 0.000000
vn 0.994072 0.000000 -0.108726
vn 0.999879 -0.008446 0.013065
vn 0.992335 0.061074 -0.107427
vn 0.999879 -0.008446 0.013065
vn 0.998866 0.041608 0.023126
vn 0.992335 0.061074 -0.107427
vn -0.080696 0.996703 0.008436
vn -0.077288 0.989522 0.121955
vn 0.029335 0.999559 -0.004535
vn 0.029335 0.999559 -0.004535
vn -0.077288 0.989522 0.121955
vn 0.058322 0.990238 0.126598
vn 0.626492 0.776107 -0.071865
vn 0.789997 0.605081 0.098903
vn 0.992335 0.061074 -0.107427
vn 0.992335 0.061074 -0.107427
vn 0.789997 0.605081 0.098903
vn 0.998866 0.041608 0.023126
vn 0.029335 0.999559 -0.004535
vn 0.058322 0.990238 0.126598
vn 0.626492 0.776107 -0.071865
vn 0.626492 0.776107 -0.071865
vn 0.058322 0.990238 0.126598
vn 0.789997 0.605081 0.098903
vn 0.000000 1.000000 0.000000
vn 0.000000 1.000000 0.000000
vn 0.000000 1.000000 0.000000
vn 0.000000 1.000000 0.000000
vn 0.000000 1.000000 0.000000
vn 0.000000 1.000000 0.000000
vn 0.000000 1.000000 0.000000
vn 0.000000 1.000000 0.000000
vn 0.000000 1.000000 0.000000
vn 0.000000 1.000000 0.000000
vn 0.000000 1.000000 0.000000
vn 0.000000 1.000000 0.000000
vn 0.065466 0.000000 0.997855
vn 0.707107 0.000000 0.707107
vn 0.065466 0.000000 0.997855
vn 0.065466 0.000000 0.997855
vn 0.707107 0.000000 0.707107
vn 0.707107 0.000000 0.707107
vn 0.707107 0.000000 0.707107
vn 0.994601 0.000000 0.103770
vn 0.707107 0.000000 0.707107
vn 0.707107 0.000000 0.707107
vn 0.994601 0.000000 0.103770
vn 0.994601 0.000000 0.103770
vn 0.628112 -0.459293 0.628112
vn 0.060773 -0.504088 0.861511
vn 0.000001 -1.000000 0.000001
vn 0.000001 -1.000000 0.000001
vn 0.060773 -0.504088 0.861511
vn 0.000000 -1.000000 0.000001
vn 0.628112 -0.459293 0.628112
vn 0.000001 -1.000000 0.000001
vn 0.858793 -0.503402 0.095191
vn 0.858793 -0.503402 0.095191
vn 0.000001 -1.000000 0.000001
vn 0.000001 -1.000000 0.000000
vn 0.032625 0.876229 0.480790
vn 0.066837 0.165067 0.984015
vn 0.350321 0.868660 0.350293
vn 0.350321 0.868660 0.350293
vn 0.066837 0.165067 0.984015
vn 0.698029 0.159764 0.698020
vn 0.698029 0.159764 0.698020
vn 0.980647 0.164975 0.105426
vn 0.350321 0.868660 0.350293
vn 0.350321 0.868660 0.350293
vn 0.980647 0.164975 0.105426
vn 0.477891 0.876935 0.051050
vn 0.067943 0.000000 0.997689
vn 0.707107 0.000001 0.707107
vn 0.066837 0.165067 0.984015
vn 0.066837 0.165067 0.984015
vn 0.707107 0.000001 0.707107
vn 0.698029 0.159764 0.698020
vn 0.707107 0.000001 0.707107
vn 0.994257 0.000000 0.107023
vn 0.698029 0.159764 0.698020
vn 0.698029 0.159764 0.698020
vn 0.994257 0.000000 0.107023
vn 0.980647 0.164975 0.105426
vn 0.000000 1.000000 -0.000004
vn 0.032625 0.876229 0.480790
vn -0.000002 1.000000 -0.000002
vn -0.000002 1.000000 -0.000002
vn 0.032625 0.876229 0.480790
vn 0.350321 0.868660 0.350293
vn -0.000002 1.000000 0.000000
vn -0.000002 1.000000 -0.000002
vn 0.477891 0.876935 0.051050
vn 0.477891 0.876935 0.051050
vn -0.000002 1.000000 -0.000002
vn 0.350321 0.868660 0.350293
vn 0.004678 0.997455 0.071138
vn 0.049905 0.683460 0.728280
vn 0.059705 0.996429 0.059705
vn 0.059705 0.996429 0.059705
vn 0.049905 0.683460 0.728280
vn 0.523615 0.672053 0.523615
vn 0.049905 0.683460 0.728280
vn 0.068976 0.165704 0.983760
vn 0.523615 0.672053 0.523615
vn 0.523615 0.672053 0.523615
vn 0.068976 0.165704 0.983760
vn 0.696847 0.169732 0.696847
vn 0.628112 -0.459293 0.628112
vn 0.858793 -0.503402 0.095191
vn 0.696847 0.169732 0.696847
vn 0.696847 0.169732 0.696847
vn 0.858793 -0.503402 0.095191
vn 0.980160 0.166136 0.108096
vn 0.060773 -0.504088 0.861511
vn 0.628112 -0.459293 0.628112
vn 0.068976 0.165704 0.983760
vn 0.068976 0.165704 0.983760
vn 0.628112 -0.459293 0.628112
vn 0.696847 0.169732 0.696847
vn 0.059705 0.996429 0.059705
vn 0.523615 0.672053 0.523615
vn 0.080696 0.996703 0.008436
vn 0.080696 0.996703 0.008436
vn 0.523615 0.672053 0.523615
vn 0.725595 0.683629 0.078510
vn 0.696847 0.169732 0.696847
vn 0.980160 0.166136 0.108096
vn 0.523615 0.672053 0.523615
vn 0.523615 0.672053 0.523615
vn 0.980160 0.166136 0.108096
vn 0.725595 0.683629 0.078510
vn 0.000000 0.175974 0.984395
vn 0.000000 0.000000 1.000000
vn 0.066837 0.165067 0.984015
vn 0.066837 0.165067 0.984015
vn 0.000000 0.000000 1.000000
vn 0.067943 0.000000 0.997689
vn 0.000000 0.894300 0.447469
vn 0.000000 0.175974 0.984395
vn 0.032625 0.876229 0.480790
vn 0.032625 0.876229 0.480790
vn 0.000000 0.175974 0.984395
vn 0.066837 0.165067 0.984015
vn 0.000000 1.000000 -0.000004
vn 0.000000 0.894300 0.447469
vn 0.000000 1.000000 -0.000004
vn 0.000000 1.000000 -0.000004
vn 0.000000 0.894300 0.447469
vn 0.032625 0.876229 0.480790
vn 0.000000 0.000000 1.000000
vn 0.000000 0.000000 1.000000
vn 0.065466 0.000000 0.997855
vn 0.065466 0.000000 0.997855
vn 0.000000 0.000000 1.000000
vn 0.065466 0.000000 0.997855
vn 0.060773 -0.504088 0.861511
vn 0.000000 -0.553428 0.832897
vn 0.000000 -1.000000 0.000001
vn 0.000000 -1.000000 0.000001
vn 0.000000 -0.553428 0.832897
vn 0.000000 -1.000000 0.000001
vn 0.000000 0.168947 0.985625
vn 0.000000 -0.553428 0.832897
vn 0.068976 0.165704 0.983760
vn 0.068976 0.165704 0.983760
vn 0.000000 -0.553428 0.832897
vn 0.060773 -0.504088 0.861511
vn 0.000000 0.706399 0.707814
vn 0.000000 0.168947 0.985625
vn 0.049905 0.683460 0.728280
vn 0.049905 0.683460 0.728280
vn 0.000000 0.168947 0.985625
vn 0.068976 0.165704 0.983760
vn 0.000000 0.998717 0.050635
vn 0.000000 0.706399 0.707814
vn 0.004678 0.997455 0.071138
vn 0.004678 0.997455 0.071138
vn 0.000000 0.706399 0.707814
vn 0.049905 0.683460 0.728280
vn -0.065466 0.000000 0.997855
vn -0.065466 0.000000 0.997855
vn -0.707107 0.000000 0.707107
vn -0.707107 0.000000 0.707107
vn -0.065466 0.000000 0.997855
vn -0.707107 0.000000 0.707107
vn -0.707107 0.000000 0.707107
vn -0.707107 0.000000 0.707107
vn -0.994601 0.000000 0.103770
vn -0.994601 0.000000 0.103770
vn -0.707107 0.000000 0.707107
vn -0.994601 0.000000 0.103770
vn -0.628112 -0.459293 0.628112
vn -0.000001 -1.000000 0.000001
vn -0.060773 -0.504088 0.861511
vn -0.060773 -0.504088 0.861511
vn -0.000001 -1.000000 0.000001
vn 0.000000 -1.000000 0.000001
vn -0.000001 -1.000000 0.000000
vn -0.000001 -1.000000 0.000001
vn -0.858793 -0.503402 0.095191
vn -0.858793 -0.503402 0.095191
vn -0.000001 -1.000000 0.000001
vn -0.628112 -0.459293 0.628112
vn -0.032625 0.876229 0.480790
vn -0.350322 0.868659 0.350293
vn -0.066837 0.165067 0.984015
vn -0.066837 0.165067 0.984015
vn -0.350322 0.868659 0.350293
vn -0.698029 0.159763 0.698020
vn -0.477892 0.876934 0.051050
vn -0.980647 0.164975 0.105426
vn -0.350322 0.868659 0.350293
vn -0.350322 0.868659 0.350293
vn -0.980647 0.164975 0.105426
vn -0.698029 0.159763 0.698020
vn -0.067943 0.000000 0.997689
vn -0.066837 0.165067 0.984015
vn -0.707107 0.000001 0.707107
vn -0.707107 0.000001 0.707107
vn -0.066837 0.165067 0.984015
vn -0.698029 0.159763 0.698020
vn -0.707107 0.000001 0.707107
vn -0.698029 0.159763 0.698020
vn -0.994257 0.000000 0.107023
vn -0.994257 0.000000 0.107023
vn -0.698029 0.159763 0.698020
vn -0.980647 0.164975 0.105426
vn -0.350322 0.868659 0.350293
vn -0.032625 0.876229 0.480790
vn 0.000002 1.000000 -0.000002
vn 0.000002 1.000000 -0.000002
vn -0.032625 0.876229 0.480790
vn 0.000000 1.000000 -0.000004
vn 0.000002 1.000000 0.000000
vn -0.477892 0.876934 0.051050
vn 0.000002 1.000000 -0.000002
vn 0.000002 1.000000 -0.000002
vn -0.477892 0.876934 0.051050
vn -0.350322 0.868659 0.350293
vn -0.004678 0.997455 0.071138
vn -0.059705 0.996429 0.059705
vn -0.049905 0.683460 0.728280
vn -0.049905 0.683460 0.728280
vn -0.059705 0.996429 0.059705
vn -0.523615 0.672053 0.523615
vn -0.049905 0.683460 0.728280
vn -0.523615 0.672053 0.523615
vn -0.068976 0.165704 0.983760
vn -0.068976 0.165704 0.983760
vn -0.523615 0.672053 0.523615
vn -0.696847 0.169732 0.696847
vn -0.628112 -0.459293 0.628112
vn -0.696847 0.169732 0.696847
vn -0.858793 -0.503402 0.095191
vn -0.858793 -0.503402 0.095191
vn -0.696847 0.169732 0.696847
vn -0.980160 0.166135 0.108096
vn -0.060773 -0.504088 0.861511
vn -0.068976 0.165704 0.983760
vn -0.628112 -0.459293 0.628112
vn -0.628112 -0.459293 0.628112
vn -0.068976 0.165704 0.983760
vn -0.696847 0.169732 0.696847
vn -0.080696 0.996703 0.008436
vn -0.725595 0.683628 0.078510
vn -0.059705 0.996429 0.059705
vn -0.059705 0.996429 0.059705
vn -0.725595 0.683628 0.078510
vn -0.523615 0.672053 0.523615
vn -0.725595 0.683628 0.078510
vn -0.980160 0.166135 0.108096
vn -0.523615 0.672053 0.523615
vn -0.523615 0.672053 0.523615
vn -0.980160 0.166135 0.108096
vn -0.696847 0.169732 0.696847
vn 0.000000 0.175974 0.984395
vn -0.066837 0.165067 0.984015
vn 0.000000 0.000000 1.000000
vn 0.000000 0.000000 1.000000
vn -0.066837 0.165067 0.984015
vn -0.067943 0.000000 0.997689
vn 0.000000 0.894300 0.447469
vn -0.032625 0.876229 0.480790
vn 0.000000 0.175974 0.984395
vn 0.000000 0.175974 0.984395
vn -0.032625 0.876229 0.480790
vn -0.066837 0.165067 0.984015
vn -0.032625 0.876229 0.480790
vn 0.000000 0.894300 0.447469
vn 0.000000 1.000000 -0.000004
vn 0.000000 1.000000 -0.000004
vn 0.000000 0.894300 0.447469
vn 0.000000 1.000000 -0.000004
vn 0.000000 0.000000 1.000000
vn -0.065466 0.000000 0.997855
vn 0.000000 0.000000 1.000000
vn 0.000000 0.000000 1.000000
vn -0.065466 0.000000 0.997855
vn -0.065466 0.000000 0.997855
vn -0.060773 -0.504088 0.861511
vn 0.000000 -1.000000 0.000001
vn 0.000000 -0.553428 0.832897
vn 0.000000 -0.553428 0.832897
vn 0.000000 -1.000000 0.000001
vn 0.000000 -1.000000 0.000001
vn 0.000000 0.168947 0.985625
vn -0.068976 0.165704 0.983760
vn 0.000000 -0.553428 0.832897
vn 0.000000 -0.553428 0.832897
vn -0.068976 0.165704 0.983760
vn -0.060773 -0.504088 0.861511
vn 0.000000 0.706399 0.707814
vn -0.049905 0.683460 0.728280
vn 0.000000 0.168947 0.985625
vn 0.000000 0.168947 0.985625
vn -0.049905 0.683460 0.728280
vn -0.068976 0.165704 0.983760
vn 0.000000 0.998717 0.050635
vn -0.004678 0.997455 0.071138
vn 0.000000 0.706399 0.707814
vn 0.000000 0.706399 0.707814
vn -0.004678 0.997455 0.071138
vn -0.049905 0.683460 0.728280
vn -0.001091 0.999585 -0.028800
vn -0.014432 0.710013 -0.704041
vn 0.000000 0.998727 -0.050434
vn 0.000000 0.998727 -0.050434
vn -0.014432 0.710013 -0.704041
vn 0.000000 0.648382 -0.761315
vn -0.014432 0.710013 -0.704041
vn -0.019126 0.049518 -0.998590
vn 0.000000 0.648382 -0.761315
vn 0.000000 0.648382 -0.761315
vn -0.019126 0.049518 -0.998590
vn 0.000000 0.044452 -0.999012
vn -0.994072 0.000000 -0.108726
vn -0.585048 0.000000 -0.810999
vn -0.992335 0.061074 -0.107427
vn -0.992335 0.061074 -0.107427
vn -0.585048 0.000000 -0.810999
vn -0.581853 0.063332 -0.810825
vn -0.585048 0.000000 -0.810999
vn -0.019604 0.000000 -0.999808
vn -0.581853 0.063332 -0.810825
vn -0.581853 0.063332 -0.810825
vn -0.019604 0.000000 -0.999808
vn -0.019126 0.049518 -0.998590
vn 0.059705 0.996429 0.059705
vn -0.014106 0.999744 -0.017720
vn 0.004678 0.997455 0.071138
vn 0.004678 0.997455 0.071138
vn -0.014106 0.999744 -0.017720
vn -0.001091 0.999585 -0.028800
vn 0.059705 0.996429 0.059705
vn 0.080696 0.996703 0.008436
vn -0.014106 0.999744 -0.017720
vn -0.014106 0.999744 -0.017720
vn 0.080696 0.996703 0.008436
vn -0.029335 0.999559 -0.004535
vn 0.004678 0.997455 0.071138
vn -0.001091 0.999585 -0.028800
vn 0.000000 0.998717 0.050635
vn 0.000000 0.998717 0.050635
vn -0.001091 0.999585 -0.028800
vn 0.000000 0.998727 -0.050434
vn 0.000000 0.000000 -1.000000
vn 0.000000 0.044452 -0.999012
vn -0.019604 0.000000 -0.999808
vn -0.019604 0.000000 -0.999808
vn 0.000000 0.044452 -0.999012
vn -0.019126 0.049518 -0.998590
vn 0.994072 0.000000 -0.108726
vn 0.992335 0.061074 -0.107427
vn 0.585048 0.000000 -0.810999
vn 0.585048 0.000000 -0.810999
vn 0.992335 0.061074 -0.107427
vn 0.581853 0.063332 -0.810825
vn 0.585048 0.000000 -0.810999
vn 0.581853 0.063332 -0.810825
vn 0.019604 0.000000 -0.999808
vn 0.019604 0.000000 -0.999808
vn 0.581853 0.063332 -0.810825
vn 0.019126 0.049518 -0.998590
vn 0.001091 0.999585 -0.028800
vn 0.014106 0.999744 -0.017720
vn -0.004678 0.997455 0.071138
vn -0.004678 0.997455 0.071138
vn 0.014106 0.999744 -0.017720
vn -0.059705 0.996429 0.059705
vn -0.059705 0.996429 0.059705
vn 0.014106 0.999744 -0.017720
vn -0.080696 0.996703 0.008436
vn -0.080696 0.996703 0.008436
vn 0.014106 0.999744 -0.017720
vn 0.029334 0.999559 -0.004535
vn -0.004678 0.997455 0.071138
vn 0.000000 0.998717 0.050635
vn 0.001091 0.999585 -0.028800
vn 0.001091 0.999585 -0.028800
vn 0.000000 0.998717 0.050635
vn 0.000000 0.998727 -0.050434
vn 0.000000 0.000000 -1.000000
vn 0.019604 0.000000 -0.999808
vn 0.000000 0.044452 -0.999012
vn 0.000000 0.044452 -0.999012
vn 0.019604 0.000000 -0.999808
vn 0.019126 0.049518 -0.998590
vn -0.029335 0.999559 -0.004535
vn -0.626492 0.776107 -0.071865
vn -0.014106 0.999744 -0.017720
vn -0.014106 0.999744 -0.017720
vn -0.626492 0.776107 -0.071865
vn -0.360039 0.785688 -0.503057
vn -0.992335 0.061074 -0.107427
vn -0.581853 0.063332 -0.810825
vn -0.626492 0.776107 -0.071865
vn -0.626492 0.776107 -0.071865
vn -0.581853 0.063332 -0.810825
vn -0.360039 0.785688 -0.503057
vn -0.014106 0.999744 -0.017720
vn -0.360039 0.785688 -0.503057
vn -0.001091 0.999585 -0.028800
vn -0.001091 0.999585 -0.028800
vn -0.360039 0.785688 -0.503057
vn -0.014432 0.710013 -0.704041
vn -0.360039 0.785688 -0.503057
vn -0.581853 0.063332 -0.810825
vn -0.014432 0.710013 -0.704041
vn -0.014432 0.710013 -0.704041
vn -0.581853 0.063332 -0.810825
vn -0.019126 0.049518 -0.998590
vn 0.992335 0.061074 -0.107427
vn 0.626492 0.776108 -0.071866
vn 0.581853 0.063332 -0.810825
vn 0.581853 0.063332 -0.810825
vn 0.626492 0.776108 -0.071866
vn 0.360039 0.785688 -0.503057
vn 0.626492 0.776108 -0.071866
vn 0.029334 0.999559 -0.004535
vn 0.360039 0.785688 -0.503057
vn 0.360039 0.785688 -0.503057
vn 0.029334 0.999559 -0.004535
vn 0.014106 0.999744 -0.017720
vn 0.360039 0.785688 -0.503057
vn 0.014432 0.710013 -0.704041
vn 0.581853 0.063332 -0.810825
vn 0.581853 0.063332 -0.810825
vn 0.014432 0.710013 -0.704041
vn 0.019126 0.049518 -0.998590
vn 0.014106 0.999744 -0.017720
vn 0.001091 0.999585 -0.028800
vn 0.360039 0.785688 -0.503057
vn 0.360039 0.785688 -0.503057
vn 0.001091 0.999585 -0.028800
vn 0.014432 0.710013 -0.704041
vn 0.000000 0.648382 -0.761315
vn 0.014432 0.710013 -0.704041
vn 0.000000 0.998727 -0.050434
vn 0.000000 0.998727 -0.050434
vn 0.014432 0.710013 -0.704041
vn 0.001091 0.999585 -0.028800
vn 0.000000 0.044452 -0.999012
vn 0.019126 0.049518 -0.998590
vn 0.000000 0.648382 -0.761315
vn 0.000000 0.648382 -0.761315
vn 0.019126 0.049518 -0.998590
vn 0.014432 0.710013 -0.704041
vn 0.999937 -0.011006 0.002017
vn 0.999937 -0.011006 0.002017
vn 0.999937 -0.011006 0.002017
vn 1.000000 0.000001 -0.000000
vn 1.000000 0.000001 -0.000000
vn 1.000000 0.000001 -0.000000
vn 0.707119 -0.707095 0.000000
vn 0.707119 -0.707095 0.000000
vn 0.707119 -0.707095 0.000000
vn 0.707130 -0.707084 0.000000
vn 0.707130 -0.707084 0.000000
vn 0.707130 -0.707084 0.000000
vn 1.000000 0.000000 0.000000
vn 1.000000 0.000000 0.000000
vn 1.000000 0.000000 0.000000
vn 1.000000 -0.000005 0.000000
vn 1.000000 -0.000005 0.000000
vn 1.000000 -0.000005 0.000000
vn 0.999371 -0.035435 0.001442
vn 0.999371 -0.035435 0.001442
vn 0.999371 -0.035435 0.001442
vn 0.999371 -0.035435 0.001442
vn 0.000000 1.000000 0.000000
vn 0.000000 1.000000 0.000000
vn 0.000000 1.000000 0.000000
vn 0.000000 1.000000 0.000000
vn 0.000000 1.000000 0.000000
vn 0.000000 1.000000 0.000000
vn -0.000029 -0.999999 -0.001726
vn -0.000029 -0.999999 -0.001726
vn -0.000029 -0.999999 -0.001726
vn -0.269903 -0.962888 0.000000
vn -0.269903 -0.962888 0.000000
vn -0.269903 -0.962888 0.000000
vn -1.000000 0.000000 0.000000
vn -1.000000 0.000000 0.000000
vn -1.000000 0.000000 0.000000
vn -1.000000 0.000000 0.000000
vn -1.000000 0.000000 0.000000
vn -1.000000 0.000000 0.000000
vn 0.000000 1.000000 0.000000
vn 0.000000 1.000000 0.000000
vn 0.000000 1.000000 0.000000
vn 0.000000 1.000000 0.000000
vn 0.000000 1.000000 0.000000
vn 0.000000 1.000000 0.000000
vn 0.921836 0.386776 -0.024962
vn 0.921836 0.386776 -0.024962
vn 0.921836 0.386776 -0.024962
vn 0.686791 0.726855 0.000000
vn 0.686791 0.726855 0.000000
vn 0.686791 0.726855 0.000000
vn 0.382677 0.923882 0.000000
vn 0.382676 0.923882 0.000000
vn 0.382676 0.923882 0.000000
vn 0.747871 0.663498 -0.021436
vn 0.747871 0.663498 -0.021436
vn 0.747871 0.663498 -0.021436
vn -0.965498 0.260409 0.000350
vn -0.965498 0.260409 0.000350
vn -0.965498 0.260409 0.000350
vn -0.965498 0.260409 0.000350
vn -0.486075 0.873907 -0.004278
vn -0.486075 0.873907 -0.004278
vn -0.486075 0.873907 -0.004278
vn -0.486075 0.873907 -0.004278
vn 0.382688 0.923878 0.000000
vn 0.382688 0.923878 0.000000
vn 0.382688 0.923878 0.000000
vn 0.382688 0.923878 0.000000
vn 0.382688 0.923878 0.000000
vn 0.382688 0.923878 0.000000
vn 0.382688 0.923878 0.000000
vn 0.382688 0.923878 0.000000
vn 0.382688 0.923878 0.000000
vn 0.382688 0.923878 0.000000
vn 0.382688 0.923878 0.000000
vn 0.382688 0.923878 0.000000
vn 1.000000 0.000000 0.000000
vn 1.000000 0.000000 0.000000
vn 1.000000 0.000000 0.000000
vn 1.000000 0.000000 0.000000
vn 1.000000 -0.000001 0.000000
vn 1.000000 -0.000001 0.000000
vn 0.980647 0.164975 0.105426
vn 0.984458 0.175622 0.000000
vn 0.477891 0.876935 0.051050
vn 0.477891 0.876935 0.051050
vn 0.984458 0.175622 0.000000
vn 0.447564 0.894252 0.000000
vn 0.994257 0.000000 0.107023
vn 1.000000 0.000000 0.000000
vn 0.980647 0.164975 0.105426
vn 0.980647 0.164975 0.105426
vn 1.000000 0.000000 0.000000
vn 0.984458 0.175622 0.000000
vn 0.858793 -0.503402 0.095191
vn 0.825921 -0.563425 0.020199
vn 0.980160 0.166136 0.108096
vn 0.980160 0.166136 0.108096
vn 0.825921 -0.563425 0.020199
vn 0.987000 0.157447 0.032258
vn 0.000000 -1.000000 0.000000
vn 0.825921 -0.563425 0.020199
vn 0.000001 -1.000000 0.000000
vn 0.000001 -1.000000 0.000000
vn 0.825921 -0.563425 0.020199
vn 0.858793 -0.503402 0.095191
vn -0.000002 1.000000 0.000000
vn -0.000002 1.000000 0.000000
vn 0.447564 0.894252 0.000000
vn 0.447564 0.894252 0.000000
vn -0.000002 1.000000 0.000000
vn 0.477891 0.876935 0.051050
vn -1.000000 0.000000 0.000000
vn -1.000000 0.000000 0.000000
vn -1.000000 0.000000 0.000000
vn -0.999879 -0.008446 0.013065
vn -0.992335 0.061074 -0.107427
vn -0.998866 0.041608 0.023126
vn 0.080696 0.996703 0.008436
vn 0.077288 0.989522 0.121955
vn -0.029335 0.999559 -0.004535
vn -0.029335 0.999559 -0.004535
vn 0.077288 0.989522 0.121955
vn -0.058322 0.990238 0.126598
vn -0.626492 0.776107 -0.071865
vn -0.789997 0.605081 0.098903
vn -0.992335 0.061074 -0.107427
vn -0.992335 0.061074 -0.107427
vn -0.789997 0.605081 0.098903
vn -0.998866 0.041608 0.023126
vn -0.626492 0.776107 -0.071865
vn -0.029335 0.999559 -0.004535
vn -0.789997 0.605081 0.098903
vn -0.789997 0.605081 0.098903
vn -0.029335 0.999559 -0.004535
vn -0.058322 0.990238 0.126598
vn -1.000000 0.000000 0.000000
vn -1.000000 0.000000 0.000000
vn -1.000000 0.000000 0.000000
vn -0.999879 -0.008446 0.013065
vn -0.992335 0.061074 -0.107427
vn -0.998866 0.041608 0.023126
vn 0.080696 0.996703 0.008436
vn 0.077288 0.989522 0.121955
vn -0.029335 0.999559 -0.004535
vn -0.029335 0.999559 -0.004535
vn 0.077288 0.989522 0.121955
vn -0.058322 0.990238 0.126598
vn -0.626492 0.776107 -0.071865
vn -0.789997 0.605081 0.098903
vn -0.992335 0.061074 -0.107427
vn -0.992335 0.061074 -0.107427
vn -0.789997 0.605081 0.098903
vn -0.998866 0.041608 0.023126
vn -0.626492 0.776107 -0.071865
vn -0.029335 0.999559 -0.004535
vn -0.789997 0.605081 0.098903
vn -0.789997 0.605081 0.098903
vn -0.029335 0.999559 -0.004535
vn -0.058322 0.990238 0.126598
vn 0.000000 1.000000 0.000000
vn 0.000000 1.000000 0.000000
vn 0.000000 1.000000 0.000000
vn 0.000000 1.000000 0.000000
vn 0.000000 1.000000 0.000000
vn 0.000000 1.000000 0.000000
vn 0.000000 1.000000 0.000000
vn 0.000000 1.000000 0.000000
vn 0.000000 1.000000 0.000000
vn 0.000000 1.000000 0.000000
vn 0.000000 1.000000 0.000000
vn 0.000000 1.000000 0.000000
vn 0.065466 0.000000 0.997855
vn 0.707107 0.000000 0.707107
vn 0.065466 0.000000 0.997855
vn 0.065466 0.000000 0.997855
vn 0.707107 0.000000 0.707107
vn 0.707107 0.000000 0.707107
vn 0.707107 0.000000 0.707107
vn 0.994601 0.000000 0.103770
vn 0.707107 0.000000 0.707107
vn 0.707107 0.000000 0.707107
vn 0.994601 0.000000 0.103770
vn 0.994601 0.000000 0.103770
vn 0.628112 -0.459293 0.628112
vn 0.060773 -0.504088 0.861511
vn 0.000001 -1.000000 0.000001
vn 0.000001 -1.000000 0.000001
vn 0.060773 -0.504088 0.861511
vn 0.000000 -1.000000 0.000001
vn 0.628112 -0.459293 0.628112
vn 0.000001 -1.000000 0.000001
vn 0.858793 -0.503402 0.095191
vn 0.858793 -0.503402 0.095191
vn 0.000001 -1.000000 0.000001
vn 0.000001 -1.000000 0.000000
vn 0.032625 0.876229 0.480790
vn 0.066837 0.165067 0.984015
vn 0.350321 0.868660 0.350293
vn 0.350321 0.868660 0.350293
vn 0.066837 0.165067 0.984015
vn 0.698029 0.159764 0.698020
vn 0.698029 0.159764 0.698020
vn 0.980647 0.164975 0.105426
vn 0.350321 0.868660 0.350293
vn 0.350321 0.868660 0.350293
vn 0.980647 0.164975 0.105426
vn 0.477891 0.876935 0.051050
vn 0.067943 0.000000 0.997689
vn 0.707107 0.000001 0.707107
vn 0.066837 0.165067 0.984015
vn 0.066837 0.165067 0.984015
vn 0.707107 0.000001 0.707107
vn 0.698029 0.159764 0.698020
vn 0.707107 0.000001 0.707107
vn 0.994257 0.000000 0.107023
vn 0.698029 0.159764 0.698020
vn 0.698029 0.159764 0.698020
vn 0.994257 0.000000 0.107023
vn 0.980647 0.164975 0.105426
vn 0.000000 1.000000 -0.000004
vn 0.032625 0.876229 0.480790
vn -0.000002 1.000000 -0.000002
vn -0.000002 1.000000 -0.000002
vn 0.032625 0.876229 0.480790
vn 0.350321 0.868660 0.350293
vn -0.000002 1.000000 0.000000
vn -0.000002 1.000000 -0.000002
vn 0.477891 0.876935 0.051050
vn 0.477891 0.876935 0.051050
vn -0.000002 1.000000 -0.000002
vn 0.350321 0.868660 0.350293
vn 0.004678 0.997455 0.071138
vn 0.049905 0.683460 0.728280
vn 0.059705 0.996429 0.059705
vn 0.059705 0.996429 0.059705
vn 0.049905 0.683460 0.728280
vn 0.523615 0.672053 0.523615
vn 0.049905 0.683460 0.728280
vn 0.068976 0.165704 0.983760
vn 0.523615 0.672053 0.523615
vn 0.523615 0.672053 0.523615
vn 0.068976 0.165704 0.983760
vn 0.696847 0.169732 0.696847
vn 0.628112 -0.459293 0.628112
vn 0.858793 -0.503402 0.095191
vn 0.696847 0.169732 0.696847
vn 0.696847 0.169732 0.696847
vn 0.858793 -0.503402 0.095191
vn 0.980160 0.166136 0.108096
vn 0.060773 -0.504088 0.861511
vn 0.628112 -0.459293 0.628112
vn 0.068976 0.165704 0.983760
vn 0.068976 0.165704 0.983760
vn 0.628112 -0.459293 0.628112
vn 0.696847 0.169732 0.696847
vn 0.059705 0.996429 0.059705
vn 0.523615 0.672053 0.523615
vn 0.080696 0.996703 0.008436
vn 0.080696 0.996703 0.008436
vn 0.523615 0.672053 0.523615
vn 0.725595 0.683629 0.078510
vn 0.696847 0.169732 0.696847
vn 0.980160 0.166136 0.108096
vn 0.523615 0.672053 0.523615
vn 0.523615 0.672053 0.523615
vn 0.980160 0.166136 0.108096
vn 0.725595 0.683629 0.078510
vn 0.000000 0.175974 0.984395
vn 0.000000 0.000000 1.000000
vn 0.066837 0.165067 0.984015
vn 0.066837 0.165067 0.984015
vn 0.000000 0.000000 1.000000
vn 0.067943 0.000000 0.997689
vn 0.000000 0.894300 0.447469
vn 0.000000 0.175974 0.984395
vn 0.032625 0.876229 0.480790
vn 0.032625 0.876229 0.480790
vn 0.000000 0.175974 0.984395
vn 0.066837 0.165067 0.984015
vn 0.000000 1.000000 -0.000004
vn 0.000000 0.894300 0.447469
vn 0.000000 1.000000 -0.000004
vn 0.000000 1.000000 -0.000004
vn 0.000000 0.894300 0.447469
vn 0.032625 0.876229 0.480790
vn 0.000000 0.000000 1.000000
vn 0.000000 0.000000 1.000000
vn 0.065466 0.000000 0.997855
vn 0.065466 0.000000 0.997855
vn 0.000000 0.000000 1.000000
vn 0.065466 0.000000 0.997855
vn 0.060773 -0.504088 0.861511
vn 0.000000 -0.553428 0.832897
vn 0.000000 -1.000000 0.000001
vn 0.000000 -1.000000 0.000001
vn 0.000000 -0.553428 0.832897
vn 0.000000 -1.000000 0.000001
vn 0.000000 0.168947 0.985625
vn 0.000000 -0.553428 0.832897
vn 0.068976 0.165704 0.983760
vn 0.068976 0.165704 0.983760
vn 0.000000 -0.553428 0.832897
vn 0.060773 -0.504088 0.861511
vn 0.000000 0.706399 0.707814
vn 0.000000 0.168947 0.985625
vn 0.049905 0.683460 0.728280
vn 0.049905 0.683460 0.728280
vn 0.000000 0.168947 0.985625
vn 0.068976 0.165704 0.983760
vn 0.000000 0.998717 0.050635
vn 0.000000 0.706399 0.707814
vn 0.004678 0.997455 0.071138
vn 0.004678 0.997455 0.071138
vn 0.000000 0.706399 0.707814
vn 0.049905 0.683460 0.728280
vn -0.065466 0.000000 0.997855
vn -0.065466 0.000000 0.997855
vn -0.707107 0.000000 0.707107
vn -0.707107 0.000000 0.707107
vn -0.065466 0.000000 0.997855
vn -0.707107 0.000000 0.707107
vn -0.707107 0.000000 0.707107
vn -0.707107 0.000000 0.707107
vn -0.994601 0.000000 0.103770
vn -0.994601 0.000000 0.103770
vn -0.707107 0.000000 0.707107
vn -0.994601 0.000000 0.103770
vn -0.628112 -0.459293 0.628112
vn -0.000001 -1.000000 0.000001
vn -0.060773 -0.504088 0.861511
vn -0.060773 -0.504088 0.861511
vn -0.000001 -1.000000 0.000001
vn 0.000000 -1.000000 0.000001
vn -0.000001 -1.000000 0.000000
vn -0.000001 -1.000000 0.000001
vn -0.858793 -0.503402 0.095191
vn -0.858793 -0.503402 0.095191
vn -0.000001 -1.000000 0.000001
vn -0.628112 -0.459293 0.628112
vn -0.032625 0.876229 0.480790
vn -0.350322 0.868659 0.350293
vn -0.066837 0.165067 0.984015
vn -0.066837 0.165067 0.984015
vn -0.350322 0.868659 0.350293
vn -0.698029 0.159763 0.698020
vn -0.477892 0.876934 0.051050
vn -0.980647 0.164975 0.105426
vn -0.350322 0.868659 0.350293
vn -0.350322 0.868659 0.350293
vn -0.980647 0.164975 0.105426
vn -0.698029 0.159763 0.698020
vn -0.067943 0.000000 0.997689
vn -0.066837 0.165067 0.984015
vn -0.707107 0.000001 0.707107
vn -0.707107 0.000001 0.707107
vn -0.066837 0.165067 0.984015
vn -0.698029 0.159763 0.698020
vn -0.707107 0.000001 0.707107
vn -0.698029 0.159763 0.698020
vn -0.994257 0.000000 0.107023
vn -0.994257 0.000000 0.107023
vn -0.698029 0.159763 0.698020
vn -0.980647 0.164975 0.105426
vn -0.350322 0.868659 0.350293
vn -0.032625 0.876229 0.480790
vn 0.000002 1.000000 -0.000002
vn 0.000002 1.000000 -0.000002
vn -0.032625 0.876229 0.480790
vn 0.000000 1.000000 -0.000004
vn 0.000002 1.000000 0.000000
vn -0.477892 0.876934 0.051050
vn 0.000002 1.000000 -0.000002
vn 0.000002 1.000000 -0.000002
vn -0.477892 0.876934 0.051050
vn -0.350322 0.868659 0.350293
vn -0.004678 0.997455 0.071138
vn -0.059705 0.996429 0.059705
vn -0.049905 0.683460 0.728280
vn -0.049905 0.683460 0.728280
vn -0.059705 0.996429 0.059705
vn -0.523615 0.672053 0.523615
vn -0.049905 0.683460 0.728280
vn -0.523615 0.672053 0.523615
vn -0.068976 0.165704 0.983760
vn -0.068976 0.165704 0.983760
vn -0.523615 0.672053 0.523615
vn -0.696847 0.169732 0.696847
vn -0.628112 -0.459293 0.628112
vn -0.696847 0.169732 0.696847
vn -0.858793 -0.503402 0.095191
vn -0.858793 -0.503402 0.095191
vn -0.696847 0.169732 0.696847
vn -0.980160 0.166135 0.108096
vn -0.060773 -0.504088 0.861511
vn -0.068976 0.165704 0.983760
vn -0.628112 -0.459293 0.628112
vn -0.628112 -0.459293 0.628112
vn -0.068976 0.165704 0.983760
vn -0.696847 0.169732 0.696847
vn -0.080696 0.996703 0.008436
vn -0.725595 0.683628 0.078510
vn -0.059705 0.996429 0.059705
vn -0.059705 0.996429 0.059705
vn -0.725595 0.683628 0.078510
vn -0.523615 0.672053 0.523615
vn 0.000000 0.175974 0.984395
vn -0.066837 0.165067 0.984015
vn 0.000000 0.000000 1.000000
vn 0.000000 0.000000 1.000000
vn -0.066837 0.165067 0.984015
vn -0.067943 0.000000 0.997689
vn 0.000000 0.894300 0.447469
vn -0.032625 0.876229 0.480790
vn 0.000000 0.175974 0.984395
vn 0.000000 0.175974 0.984395
vn -0.032625 0.876229 0.480790
vn -0.066837 0.165067 0.984015
vn -0.032625 0.876229 0.480790
vn 0.000000 0.894300 0.447469
vn 0.000000 1.000000 -0.000004
vn 0.000000 1.000000 -0.000004
vn 0.000000 0.894300 0.447469
vn 0.000000 1.000000 -0.000004
vn 0.000000 0.000000 1.000000
vn -0.065466 0.000000 0.997855
vn 0.000000 0.000000 1.000000
vn 0.000000 0.000000 1.000000
vn -0.065466 0.000000 0.997855
vn -0.065466 0.000000 0.997855
vn -0.060773 -0.504088 0.861511
vn 0.000000 -1.000000 0.000001
vn 0.000000 -0.553428 0.832897
vn 0.000000 -0.553428 0.832897
vn 0.000000 -1.000000 0.000001
vn 0.000000 -1.000000 0.000001
vn 0.000000 0.168947 0.985625
vn -0.068976 0.165704 0.983760
vn 0.000000 -0.553428 0.832897
vn 0.000000 -0.553428 0.832897
vn -0.068976 0.165704 0.983760
vn -0.060773 -0.504088 0.861511
vn 0.000000 0.706399 0.707814
vn -0.049905 0.683460 0.728280
vn 0.000000 0.168947 0.985625
vn 0.000000 0.168947 0.985625
vn -0.049905 0.683460 0.728280
vn -0.068976 0.165704 0.983760
vn 0.000000 0.998717 0.050635
vn -0.004678 0.997455 0.071138
vn 0.000000 0.706399 0.707814
vn 0.000000 0.706399 0.707814
vn -0.004678 0.997455 0.071138
vn -0.049905 0.683460 0.728280
vn -0.001091 0.999585 -0.028800
vn -0.014432 0.710013 -0.704041
vn 0.000000 0.998727 -0.050434
vn 0.000000 0.998727 -0.050434
vn -0.014432 0.710013 -0.704041
vn 0.000000 0.648382 -0.761315
vn -0.014432 0.710013 -0.704041
vn -0.019126 0.049518 -0.998590
vn 0.000000 0.648382 -0.761315
vn 0.000000 0.648382 -0.761315
vn -0.019126 0.049518 -0.998590
vn 0.000000 0.044452 -0.999012
vn -0.994072 0.000000 -0.108726
vn -0.585048 0.000000 -0.810999
vn -0.992335 0.061074 -0.107427
vn -0.992335 0.061074 -0.107427
vn -0.585048 0.000000 -0.810999
vn -0.581853 0.063332 -0.810825
vn -0.585048 0.000000 -0.810999
vn -0.019604 0.000000 -0.999808
vn -0.581853 0.063332 -0.810825
vn -0.581853 0.063332 -0.810825
vn -0.019604 0.000000 -0.999808
vn -0.019126 0.049518 -0.998590
vn 0.059705 0.996429 0.059705
vn -0.014106 0.999744 -0.017720
vn 0.004678 0.997455 0.071138
vn 0.004678 0.997455 0.071138
vn -0.014106 0.999744 -0.017720
vn -0.001091 0.999585 -0.028800
vn 0.059705 0.996429 0.059705
vn 0.080696 0.996703 0.008436
vn -0.014106 0.999744 -0.017720
vn -0.014106 0.999744 -0.017720
vn 0.080696 0.996703 0.008436
vn -0.029335 0.999559 -0.004535
vn 0.004678 0.997455 0.071138
vn -0.001091 0.999585 -0.028800
vn 0.000000 0.998717 0.050635
vn 0.000000 0.998717 0.050635
vn -0.001091 0.999585 -0.028800
vn 0.000000 0.998727 -0.050434
vn 0.000000 0.000000 -1.000000
vn 0.000000 0.044452 -0.999012
vn -0.019604 0.000000 -0.999808
vn -0.019604 0.000000 -0.999808
vn 0.000000 0.044452 -0.999012
vn -0.019126 0.049518 -0.998590
vn 0.994072 0.000000 -0.108726
vn 0.992335 0.061074 -0.107427
vn 0.585048 0.000000 -0.810999
vn 0.585048 0.000000 -0.810999
vn 0.992335 0.061074 -0.107427
vn 0.581853 0.063332 -0.810825
vn 0.585048 0.000000 -0.810999
vn 0.581853 0.063332 -0.810825
vn 0.019604 0.000000 -0.999808
vn 0.019604 0.000000 -0.999808
vn 0.581853 0.063332 -0.810825
vn 0.019126 0.049518 -0.998590
vn 0.001091 0.999585 -0.028800
vn 0.014106 0.999744 -0.017720
vn -0.004678 0.997455 0.071138
vn -0.004678 0.997455 0.071138
vn 0.014106 0.999744 -0.017720
vn -0.059705 0.996429 0.059705
vn -0.059705 0.996429 0.059705
vn 0.014106 0.999744 -0.017720
vn -0.080696 0.996703 0.008436
vn -0.080696 0.996703 0.008436
vn 0.014106 0.999744 -0.017720
vn 0.029334 0.999559 -0.004535
vn -0.004678 0.997455 0.071138
vn 0.000000 0.998717 0.050635
vn 0.001091 0.999585 -0.028800
vn 0.001091 0.999585 -0.028800
vn 0.000000 0.998717 0.050635
vn 0.000000 0.998727 -0.050434
vn 0.000000 0.000000 -1.000000
vn 0.019604 0.000000 -0.999808
vn 0.000000 0.044452 -0.999012
vn 0.000000 0.044452 -0.999012
vn 0.019604 0.000000 -0.999808
vn 0.019126 0.049518 -0.998590
vn -0.029335 0.999559 -0.004535
vn -0.626492 0.776107 -0.071865
vn -0.014106 0.999744 -0.017720
vn -0.014106 0.999744 -0.017720
vn -0.626492 0.776107 -0.071865
vn -0.360039 0.785688 -0.503057
vn -0.992335 0.061074 -0.107427
vn -0.581853 0.063332 -0.810825
vn -0.626492 0.776107 -0.071865
vn -0.626492 0.776107 -0.071865
vn -0.581853 0.063332 -0.810825
vn -0.360039 0.785688 -0.503057
vn -0.014106 0.999744 -0.017720
vn -0.360039 0.785688 -0.503057
vn -0.001091 0.999585 -0.028800
vn -0.001091 0.999585 -0.028800
vn -0.360039 0.785688 -0.503057
vn -0.014432 0.710013 -0.704041
vn -0.360039 0.785688 -0.503057
vn -0.581853 0.063332 -0.810825
vn -0.014432 0.710013 -0.704041
vn -0.014432 0.710013 -0.704041
vn -0.581853 0.063332 -0.810825
vn -0.019126 0.049518 -0.998590
vn 0.992335 0.061074 -0.107427
vn 0.626492 0.776108 -0.071866
vn 0.581853 0.063332 -0.810825
vn 0.581853 0.063332 -0.810825
vn 0.626492 0.776108 -0.071866
vn 0.360039 0.785688 -0.503057
vn 0.626492 0.776108 -0.071866
vn 0.029334 0.999559 -0.004535
vn 0.360039 0.785688 -0.503057
vn 0.360039 0.785688 -0.503057
vn 0.029334 0.999559 -0.004535
vn 0.014106 0.999744 -0.017720
vn 0.360039 0.785688 -0.503057
vn 0.014432 0.710013 -0.704041
vn 0.581853 0.063332 -0.810825
vn 0.581853 0.063332 -0.810825
vn 0.014432 0.710013 -0.704041
vn 0.019126 0.049518 -0.998590
vn 0.014106 0.999744 -0.017720
vn 0.001091 0.999585 -0.028800
vn 0.360039 0.785688 -0.503057
vn 0.360039 0.785688 -0.503057
vn 0.001091 0.999585 -0.028800
vn 0.014432 0.710013 -0.704041
vn 0.000000 0.648382 -0.761315
vn 0.014432 0.710013 -0.704041
vn 0.000000 0.998727 -0.050434
vn 0.000000 0.998727 -0.050434
vn 0.014432 0.710013 -0.704041
vn 0.001091 0.999585 -0.028800
vn 0.000000 0.044452 -0.999012
vn 0.019126 0.049518 -0.998590
vn 0.000000 0.648382 -0.761315
vn 0.000000 0.648382 -0.761315
vn 0.019126 0.049518 -0.998590
vn 0.014432 0.710013 -0.704041
vn -0.725595 0.683628 0.078510
vn -0.980160 0.166135 0.108096
vn -0.523615 0.672053 0.523615
vn -0.523615 0.672053 0.523615
vn -0.980160 0.166135 0.108096
vn -0.696847 0.169732 0.696847
vn 0.923878 0.382688 0.000000
vn 0.923878 0.382688 0.000000
vn 0.923878 0.382688 0.000000
vn 0.923878 0.382688 0.000000
vn 0.923876 0.382691 0.000000
vn 0.923876 0.382691 0.000000
s off
g Mostrador2:polySurface1PC_Scene2
usemtl Mostrador2:lambert4SG
f 2/1/1 3/2/2 1/3/3
f 1/3/4 3/2/5 4/4/6
usemtl Mostrador2:lambert5SG
f 7/5/7 11/6/8 6/7/9
f 6/7/10 11/6/11 14/8/12
usemtl Mostrador2:phong2SG
f 10/9/13 12/10/14 9/11/15
f 9/11/16 12/10/17 16/12/18
f 8/13/19 15/14/20 10/15/21
f 10/15/22 15/14/23 12/16/24
usemtl Mostrador2:lambert4SG
f 5/17/25 13/18/26 18/19/27
f 18/19/28 13/18/29 17/20/30
usemtl Mostrador2:PC_SceneSG
f 14/21/31 13/22/32 6/23/33
f 6/23/34 13/22/35 5/24/36
usemtl Mostrador2:phong2SG
f 11/25/37 7/26/38 16/12/39
f 16/12/40 7/26/41 9/11/42
usemtl Mostrador2:lambert5SG
f 21/27/43 20/29/44 25/28/45
f 20/29/46 28/30/47 25/28/48
usemtl Mostrador2:phong2SG
f 24/31/49 23/33/50 26/32/51
usemtl Mostrador2:lambert6SG
f 23/33/52 30/34/53 26/32/54
usemtl Mostrador2:phong2SG
f 22/35/55 24/37/56 29/36/57
f 24/37/58 26/38/59 29/36/60
usemtl Mostrador2:lambert4SG
f 19/39/61 32/41/62 27/40/63
f 32/41/64 31/42/65 27/40/66
f 28/43/67 27/44/68 20/45/69
f 20/45/70 27/44/71 19/46/72
usemtl Mostrador2:pasted__PC_SceneSG1
f 25/47/73 30/34/74 21/48/75
usemtl Mostrador2:phong2SG
f 30/34/76 23/33/77 21/48/78
usemtl phong1SG
f 33/49/79 35/51/80 37/50/81
f 35/51/82 40/52/83 37/50/84
usemtl Mostrador2:lambert4SG
f 34/53/85 36/54/86 39/55/87
f 39/55/88 36/54/89 42/56/90
f 38/57/91 41/58/92 37/59/93
f 37/59/94 41/58/95 40/60/96
f 39/61/97 42/62/98 38/57/99
f 38/57/100 42/62/101 41/58/102
f 43/63/103 47/64/104 45/65/105
f 45/65/106 47/64/107 48/66/108
f 48/67/109 47/68/110 46/69/111
f 46/69/112 47/68/113 44/70/114
usemtl Mostrador2:lambert5SG
f 55/71/115 56/72/116 54/73/117
f 54/73/118 56/72/119 53/74/120
f 56/72/121 127/75/122 53/74/123
f 53/74/124 127/75/125 128/76/126
usemtl Mostrador2:lambert4SG
f 51/77/127 52/78/128 53/79/129
f 53/79/130 52/78/131 54/80/132
f 51/77/133 53/79/134 132/81/135
f 132/81/136 53/79/137 128/82/138
usemtl Mostrador2:phong2SG
f 59/83/139 60/84/140 61/85/141
f 61/85/142 60/84/143 62/86/144
f 62/86/145 130/87/146 61/85/147
f 61/85/148 130/87/149 129/88/150
f 57/89/151 58/90/152 60/91/153
f 60/91/154 58/90/155 62/92/156
f 58/90/157 131/93/158 62/92/159
f 62/92/160 131/93/161 130/94/162
f 55/95/163 59/83/164 56/96/165
f 56/96/166 59/83/167 61/85/168
f 127/97/169 56/96/170 129/88/171
f 129/88/172 56/96/173 61/85/174
usemtl Mostrador2:lambert4SG
f 65/98/175 64/99/176 66/100/177
f 66/100/178 64/99/179 67/101/180
f 64/99/181 63/102/182 67/101/183
f 67/101/184 63/102/185 68/103/186
f 51/104/187 132/105/188 68/103/189
f 68/103/190 132/105/191 133/106/192
f 52/107/193 51/104/194 63/102/195
f 63/102/196 51/104/197 68/103/198
f 66/100/199 67/101/200 135/108/201
f 135/108/202 67/101/203 134/109/204
f 68/103/205 133/106/206 67/101/207
f 67/101/208 133/106/209 134/109/210
usemtl Mostrador2:phong2SG
f 70/110/211 69/111/212 60/91/213
f 60/91/214 69/111/215 57/89/216
f 71/112/217 70/113/218 59/83/219
f 59/83/220 70/113/221 60/84/222
f 72/114/223 71/112/224 55/95/225
f 55/95/226 71/112/227 59/83/228
usemtl Mostrador2:lambert5SG
f 73/115/229 72/116/230 54/117/231
f 54/117/232 72/116/233 55/118/234
usemtl Mostrador2:lambert4SG
f 52/78/235 74/119/236 54/80/237
f 54/80/238 74/119/239 73/120/240
f 75/121/241 74/122/242 63/102/243
f 63/102/244 74/122/245 52/107/246
f 76/123/247 75/121/248 64/99/249
f 64/99/250 75/121/251 63/102/252
f 77/124/253 76/123/254 65/98/255
f 65/98/256 76/123/257 64/99/258
usemtl Mostrador2:lambert5SG
f 88/125/259 86/126/260 89/127/261
f 89/127/262 86/126/263 85/128/264
f 89/127/265 85/128/266 90/129/267
f 90/129/268 85/128/269 87/130/270
usemtl Mostrador2:lambert4SG
f 83/131/271 85/132/272 84/133/273
f 84/133/274 85/132/275 86/134/276
f 87/135/277 85/132/278 82/136/279
f 82/136/280 85/132/281 83/131/282
usemtl Mostrador2:phong2SG
f 94/137/283 96/138/284 95/139/285
f 95/139/286 96/138/287 97/140/288
f 98/141/289 99/142/290 96/138/291
f 96/138/292 99/142/293 97/140/294
f 91/143/295 95/144/296 92/145/297
f 92/145/298 95/144/299 97/146/300
f 92/145/301 97/146/302 93/147/303
f 93/147/304 97/146/305 99/148/306
f 96/138/307 94/137/308 89/149/309
usemtl Mostrador2:PC_SceneSG
f 89/149/310 94/137/311 88/150/312
usemtl Mostrador2:phong2SG
f 90/151/313 98/141/314 89/149/315
f 89/149/316 98/141/317 96/138/318
usemtl Mostrador2:lambert4SG
f 102/152/319 103/153/320 101/154/321
f 101/154/322 103/153/323 104/155/324
f 101/154/325 104/155/326 100/156/327
f 100/156/328 104/155/329 105/157/330
f 83/158/331 105/157/332 82/159/333
f 82/159/334 105/157/335 108/160/336
f 84/161/337 100/156/338 83/158/339
f 83/158/340 100/156/341 105/157/342
f 106/162/343 107/163/344 103/153/345
f 103/153/346 107/163/347 104/155/348
f 107/163/349 108/160/350 104/155/351
f 104/155/352 108/160/353 105/157/354
usemtl Mostrador2:phong2SG
f 70/110/355 95/144/356 69/111/357
f 69/111/358 95/144/359 91/143/360
f 71/164/361 94/137/362 70/165/363
f 70/165/364 94/137/365 95/139/366
f 94/137/367 71/164/368 88/150/369
f 88/150/370 71/164/371 72/166/372
usemtl Mostrador2:lambert5SG
f 73/115/373 86/167/374 72/116/375
f 72/116/376 86/167/377 88/168/378
usemtl Mostrador2:lambert4SG
f 84/133/379 86/134/380 74/169/381
f 74/169/382 86/134/383 73/170/384
f 75/121/385 100/156/386 74/122/387
f 74/122/388 100/156/389 84/161/390
f 76/123/391 101/154/392 75/121/393
f 75/121/394 101/154/395 100/156/396
f 77/124/397 102/152/398 76/123/399
f 76/123/400 102/152/401 101/154/402
f 114/171/403 113/172/404 115/173/405
f 115/173/406 113/172/407 116/174/408
f 113/172/409 112/175/410 116/174/411
f 116/174/412 112/175/413 117/176/414
usemtl phong1SG
f 139/177/415 50/178/416 138/179/417
f 138/179/418 50/178/419 109/180/420
f 50/178/421 49/181/422 109/180/423
f 109/180/424 49/181/425 112/182/426
usemtl Mostrador2:lambert4SG
f 66/183/427 111/184/428 65/185/429
f 65/185/430 111/184/431 114/186/432
f 66/183/433 135/187/434 111/184/435
f 111/184/436 135/187/437 136/188/438
f 65/189/439 114/190/440 77/191/441
f 77/191/442 114/190/443 115/192/444
usemtl phong1SG
f 78/193/445 117/194/446 49/195/447
f 49/195/448 117/194/449 112/196/450
f 81/197/451 118/198/452 80/199/453
f 80/199/454 118/198/455 121/200/456
f 80/199/457 121/200/458 79/201/459
f 79/201/460 121/200/461 124/202/462
usemtl Mostrador2:lambert4SG
f 126/203/463 123/204/464 102/205/465
f 102/205/466 123/204/467 103/206/468
f 103/206/469 123/204/470 106/207/471
f 106/207/472 123/204/473 120/208/474
f 102/209/475 77/191/476 126/210/477
f 126/210/478 77/191/479 115/192/480
usemtl phong1SG
f 78/193/481 79/211/482 117/194/483
f 117/194/484 79/211/485 124/212/486
usemtl Mostrador2:lambert4SG
f 136/213/487 137/214/488 111/215/489
f 111/215/490 137/214/491 110/216/492
f 138/217/493 109/218/494 137/214/495
f 137/214/496 109/218/497 110/216/498
f 111/215/499 110/216/500 114/219/501
f 114/219/502 110/216/503 113/220/504
f 110/216/505 109/218/506 113/220/507
f 113/220/508 109/218/509 112/221/510
f 118/222/511 119/223/512 121/224/513
f 121/224/514 119/223/515 122/225/516
f 119/223/517 120/226/518 122/225/519
f 122/225/520 120/226/521 123/227/522
f 122/225/523 125/228/524 121/224/525
f 121/224/526 125/228/527 124/229/528
f 123/227/529 126/230/530 122/225/531
f 122/225/532 126/230/533 125/228/534
f 116/174/535 125/231/536 115/173/537
f 115/173/538 125/231/539 126/232/540
f 117/176/541 124/233/542 116/174/543
f 116/174/544 124/233/545 125/231/546
f 142/234/547 146/235/548 141/236/549
f 141/236/550 146/235/551 149/237/552
f 145/238/553 147/239/554 144/240/555
f 144/240/556 147/239/557 151/241/558
f 143/242/559 150/243/560 145/244/561
f 145/244/562 150/243/563 147/245/564
f 153/246/565 140/247/566 148/248/567 152/249/568
f 149/250/569 148/251/570 141/252/571
f 141/252/572 148/251/573 140/253/574
f 146/254/575 142/255/576 151/241/577
f 151/241/578 142/255/579 144/240/580
f 154/256/581 158/257/582 156/258/583
f 156/258/584 158/257/585 161/259/586
f 155/260/587 160/261/588 157/262/589
f 160/261/590 163/263/591 157/262/592
f 159/264/593 158/265/594 162/266/595
f 158/265/596 161/267/597 162/266/598
f 160/268/599 159/264/600 163/269/601
f 159/264/602 162/266/603 163/269/604
f 153/270/605 165/271/606 164/272/607 152/273/608
f 165/271/609 155/274/610 157/275/611 164/272/612
f 169/276/613 166/277/614 168/278/615
f 168/278/616 166/277/617 167/279/618
f 173/280/619 170/281/620 172/282/621
f 172/282/622 170/281/623 171/283/624
f 176/284/625 180/285/626 175/286/627
f 175/286/628 180/285/629 183/287/630
f 179/288/631 181/289/632 178/290/633
f 178/290/634 181/289/635 185/291/636
f 177/292/637 184/293/638 179/294/639
f 179/294/640 184/293/641 181/295/642
f 174/296/643 182/297/644 187/298/645
f 187/298/646 182/297/647 186/299/648
f 183/300/649 182/301/650 175/302/651
f 175/302/652 182/301/653 174/303/654
f 180/304/655 176/305/656 185/291/657
f 185/291/658 176/305/659 178/290/660
usemtl phong1SG
f 188/306/661 192/307/662 190/308/663
f 190/308/664 192/307/665 195/309/666
usemtl Mostrador2:lambert4SG
f 189/310/667 191/311/668 194/312/669
f 194/312/670 191/311/671 197/313/672
f 193/314/673 196/315/674 192/316/675
f 192/316/676 196/315/677 195/317/678
f 193/314/679 194/318/680 196/315/681
f 196/315/682 194/318/683 197/319/684
usemtl Mostrador2:lambert5SG
f 198/320/685 202/321/686 200/322/687
f 200/322/688 202/321/689 205/323/690
usemtl Mostrador2:lambert4SG
f 199/324/691 201/325/692 204/326/693
f 204/326/694 201/325/695 207/327/696
f 203/328/697 206/329/698 202/330/699
f 202/330/700 206/329/701 205/331/702
f 203/328/703 204/332/704 206/329/705
f 206/329/706 204/332/707 207/333/708
f 208/334/709 212/335/710 210/336/711
f 210/336/712 212/335/713 213/337/714
f 213/337/715 212/335/716 211/338/717
f 211/338/718 212/335/719 209/339/720
f 220/340/721 221/341/722 219/342/723
f 219/342/724 221/341/725 218/343/726
f 221/341/727 288/344/728 218/343/729
f 218/343/730 288/344/731 289/345/732
f 216/346/733 217/347/734 218/348/735
f 218/348/736 217/347/737 219/349/738
f 216/346/739 218/348/740 293/350/741
f 293/350/742 218/348/743 289/351/744
f 224/352/745 225/353/746 226/354/747
f 226/354/748 225/353/749 227/355/750
f 227/355/751 291/356/752 226/354/753
f 226/354/754 291/356/755 290/357/756
f 222/358/757 223/359/758 225/360/759
f 225/360/760 223/359/761 227/361/762
f 223/359/763 292/362/764 227/361/765
f 227/361/766 292/362/767 291/363/768
f 220/364/769 224/352/770 221/365/771
f 221/365/772 224/352/773 226/354/774
f 288/366/775 221/365/776 290/357/777
f 290/357/778 221/365/779 226/354/780
f 230/367/781 229/368/782 231/369/783
f 231/369/784 229/368/785 232/370/786
f 229/368/787 228/371/788 232/370/789
f 232/370/790 228/371/791 233/372/792
f 216/373/793 293/374/794 233/372/795
f 233/372/796 293/374/797 294/375/798
f 217/376/799 216/373/800 228/371/801
f 228/371/802 216/373/803 233/372/804
f 231/369/805 232/370/806 296/377/807
f 296/377/808 232/370/809 295/378/810
f 233/372/811 294/375/812 232/370/813
f 232/370/814 294/375/815 295/378/816
f 235/379/817 234/380/818 225/360/819
f 225/360/820 234/380/821 222/358/822
f 236/381/823 235/382/824 224/352/825
f 224/352/826 235/382/827 225/353/828
f 237/383/829 236/381/830 220/364/831
f 220/364/832 236/381/833 224/352/834
f 238/384/835 237/385/836 219/386/837
f 219/386/838 237/385/839 220/387/840
f 217/347/841 239/388/842 219/349/843
f 219/349/844 239/388/845 238/389/846
f 240/390/847 239/391/848 228/371/849
f 228/371/850 239/391/851 217/376/852
f 241/392/853 240/390/854 229/368/855
f 229/368/856 240/390/857 228/371/858
f 242/393/859 241/392/860 230/367/861
f 230/367/862 241/392/863 229/368/864
f 253/394/865 251/395/866 254/396/867
f 254/396/868 251/395/869 250/397/870
f 254/396/871 250/397/872 255/398/873
f 255/398/874 250/397/875 252/399/876
f 248/400/877 250/401/878 249/402/879
f 249/402/880 250/401/881 251/403/882
f 252/404/883 250/401/884 247/405/885
f 247/405/886 250/401/887 248/400/888
f 259/406/889 261/407/890 260/408/891
f 260/408/892 261/407/893 262/409/894
f 263/410/895 264/411/896 261/407/897
f 261/407/898 264/411/899 262/409/900
f 256/412/901 260/413/902 257/414/903
f 257/414/904 260/413/905 262/415/906
f 257/414/907 262/415/908 258/416/909
f 258/416/910 262/415/911 264/417/912
f 261/407/913 259/406/914 254/418/915
f 254/418/916 259/406/917 253/419/918
f 255/420/919 263/410/920 254/418/921
f 254/418/922 263/410/923 261/407/924
f 267/421/925 268/422/926 266/423/927
f 266/423/928 268/422/929 302/424/930
f 266/423/931 302/424/932 265/425/933
f 265/425/934 302/424/935 303/426/936
f 248/427/937 303/426/938 247/428/939
f 247/428/940 303/426/941 304/429/942
f 249/430/943 265/425/944 248/427/945
f 248/427/946 265/425/947 303/426/948
f 269/431/949 301/432/950 268/422/951
f 268/422/952 301/432/953 302/424/954
f 235/379/955 260/413/956 234/380/957
usemtl phong1SG
f 234/380/958 260/413/959 256/412/960
usemtl Mostrador2:lambert4SG
f 236/433/961 259/406/962 235/434/963
f 235/434/964 259/406/965 260/408/966
f 259/406/967 236/433/968 253/419/969
f 253/419/970 236/433/971 237/435/972
f 238/384/973 251/436/974 237/385/975
f 237/385/976 251/436/977 253/437/978
f 249/402/979 251/403/980 239/438/981
f 239/438/982 251/403/983 238/439/984
f 240/390/985 265/425/986 239/391/987
f 239/391/988 265/425/989 249/430/990
f 241/392/991 266/423/992 240/390/993
f 240/390/994 266/423/995 265/425/996
f 242/393/997 267/421/998 241/392/999
f 241/392/1000 267/421/1001 266/423/1002
f 275/440/1003 274/441/1004 276/442/1005
f 276/442/1006 274/441/1007 277/443/1008
f 274/441/1009 273/444/1010 277/443/1011
f 277/443/1012 273/444/1013 278/445/1014
f 300/446/1015 215/447/1016 299/448/1017
f 299/448/1018 215/447/1019 270/449/1020
f 215/447/1021 214/450/1022 270/449/1023
f 270/449/1024 214/450/1025 273/451/1026
f 231/452/1027 272/453/1028 230/454/1029
f 230/454/1030 272/453/1031 275/455/1032
f 231/456/1033 296/457/1034 272/458/1035
f 272/458/1036 296/457/1037 297/459/1038
f 230/454/1039 275/455/1040 242/460/1041
f 242/460/1042 275/455/1043 276/461/1044
f 243/462/1045 278/463/1046 214/464/1047
f 214/464/1048 278/463/1049 273/465/1050
f 246/466/1051 279/467/1052 245/468/1053
f 245/468/1054 279/467/1055 282/469/1056
f 245/468/1057 282/469/1058 244/470/1059
f 244/470/1060 282/469/1061 285/471/1062
f 287/472/1063 284/473/1064 267/474/1065
f 267/474/1066 284/473/1067 268/475/1068
f 268/476/1069 284/477/1070 269/478/1071
f 269/478/1072 284/477/1073 281/479/1074
f 267/474/1075 242/460/1076 287/472/1077
f 287/472/1078 242/460/1079 276/461/1080
usemtl phong1SG
f 243/462/1081 244/480/1082 278/463/1083
usemtl Mostrador2:lambert4SG
f 278/463/1084 244/480/1085 285/481/1086
f 297/482/1087 298/483/1088 272/484/1089
f 272/484/1090 298/483/1091 271/485/1092
f 299/486/1093 270/487/1094 298/483/1095
f 298/483/1096 270/487/1097 271/485/1098
f 272/484/1099 271/485/1100 275/488/1101
f 275/488/1102 271/485/1103 274/489/1104
f 271/485/1105 270/487/1106 274/489/1107
f 274/489/1108 270/487/1109 273/490/1110
f 279/491/1111 280/492/1112 282/493/1113
f 282/493/1114 280/492/1115 283/494/1116
f 280/492/1117 281/495/1118 283/494/1119
f 283/494/1120 281/495/1121 284/496/1122
f 283/494/1123 286/497/1124 282/493/1125
f 282/493/1126 286/497/1127 285/498/1128
f 284/496/1129 287/499/1130 283/494/1131
f 283/494/1132 287/499/1133 286/497/1134
f 277/443/1135 286/500/1136 276/442/1137
f 276/442/1138 286/500/1139 287/501/1140
f 278/445/1141 285/502/1142 277/443/1143
f 277/443/1144 285/502/1145 286/500/1146
f 307/503/1147 308/504/1148 305/505/1149
f 305/505/1150 308/504/1151 306/506/1152
f 310/507/1153 311/508/1154 309/509/1155
f 309/509/1156 311/508/1157 312/510/1158
