# This file uses centimeters as units for non-parametric coordinates.

mtllib V2.mtl
g default
v 32.733207 8.009367 -15.485715
v 35.533469 8.009367 -15.485715
v 32.733207 10.414352 -15.485715
v 35.533469 10.414352 -15.485715
v 32.733207 10.414352 -15.595319
v 35.533469 10.414352 -15.595319
v 32.733207 8.009367 -15.595319
v 35.533469 8.009367 -15.595319
vt 0.375000 0.000000
vt 0.625000 0.000000
vt 0.375000 0.250000
vt 0.625000 0.250000
vt 0.375000 0.500000
vt 0.625000 0.500000
vt 0.375000 0.750000
vt 0.625000 0.750000
vt 0.375000 1.000000
vt 0.625000 1.000000
vt 0.875000 0.000000
vt 0.875000 0.250000
vt 0.125000 0.000000
vt 0.125000 0.250000
vn 0.000000 0.000000 1.000000
vn 0.000000 0.000000 1.000000
vn 0.000000 0.000000 1.000000
vn 0.000000 0.000000 1.000000
vn 0.000000 1.000000 0.000000
vn 0.000000 1.000000 0.000000
vn 0.000000 1.000000 0.000000
vn 0.000000 1.000000 0.000000
vn 0.000000 0.000000 -1.000000
vn 0.000000 0.000000 -1.000000
vn 0.000000 0.000000 -1.000000
vn 0.000000 0.000000 -1.000000
vn 0.000000 -1.000000 0.000000
vn 0.000000 -1.000000 0.000000
vn 0.000000 -1.000000 0.000000
vn 0.000000 -1.000000 0.000000
vn 1.000000 0.000000 0.000000
vn 1.000000 0.000000 0.000000
vn 1.000000 0.000000 0.000000
vn 1.000000 0.000000 0.000000
vn -1.000000 0.000000 0.000000
vn -1.000000 0.000000 0.000000
vn -1.000000 0.000000 0.000000
vn -1.000000 0.000000 0.000000
s off
g oak_lab:oak_lab6:oak_lab5:oak_lab4:oak_lab2:pasted__pasted__pasted__pasted__pasted__pasted__pCube6 oak_lab:oak_lab6:oak_lab5:oak_lab4:oak_lab2:pasted__pasted__pasted__pasted__pasted__group20 oak_lab:oak_lab6:oak_lab5:oak_lab4:oak_lab2:pasted__pasted__pasted__pasted__group23 oak_lab:oak_lab6:oak_lab5:oak_lab4:oak_lab2:pasted__pasted__pasted__group24 oak_lab:oak_lab6:oak_lab5:oak_lab4:oak_lab2:pasted__pasted__group25 oak_lab:oak_lab6:oak_lab5:oak_lab4:oak_lab2:pasted__group32 oak_lab:oak_lab6:oak_lab5:oak_lab4:oak_lab2:group oak_lab:oak_lab6:oak_lab5:oak_lab4:group4 oak_lab:oak_lab6:oak_lab5:group5 oak_lab:oak_lab6:group6 oak_lab:group7
usemtl oak_lab:oak_lab6:oak_lab5:oak_lab4:oak_lab2:pasted__phong1SG
f 1/1/1 2/2/2 4/4/3 3/3/4
f 3/3/5 4/4/6 6/6/7 5/5/8
f 5/5/9 6/6/10 8/8/11 7/7/12
f 7/7/13 8/8/14 2/10/15 1/9/16
f 2/2/17 8/11/18 6/12/19 4/4/20
f 7/13/21 1/1/22 3/3/23 5/14/24
g default
v 32.733207 5.041683 -15.485715
v 35.533469 5.041683 -15.485715
v 32.733207 7.704668 -15.485715
v 35.533469 7.704668 -15.485715
v 32.733207 7.704668 -15.595319
v 35.533469 7.704668 -15.595319
v 32.733207 5.041683 -15.595319
v 35.533469 5.041683 -15.595319
vt 0.375000 0.000000
vt 0.625000 0.000000
vt 0.375000 0.250000
vt 0.625000 0.250000
vt 0.375000 0.500000
vt 0.625000 0.500000
vt 0.375000 0.750000
vt 0.625000 0.750000
vt 0.375000 1.000000
vt 0.625000 1.000000
vt 0.875000 0.000000
vt 0.875000 0.250000
vt 0.125000 0.000000
vt 0.125000 0.250000
vn 0.000000 0.000000 1.000000
vn 0.000000 0.000000 1.000000
vn 0.000000 0.000000 1.000000
vn 0.000000 0.000000 1.000000
vn 0.000000 1.000000 0.000000
vn 0.000000 1.000000 0.000000
vn 0.000000 1.000000 0.000000
vn 0.000000 1.000000 0.000000
vn 0.000000 0.000000 -1.000000
vn 0.000000 0.000000 -1.000000
vn 0.000000 0.000000 -1.000000
vn 0.000000 0.000000 -1.000000
vn 0.000000 -1.000000 0.000000
vn 0.000000 -1.000000 0.000000
vn 0.000000 -1.000000 0.000000
vn 0.000000 -1.000000 0.000000
vn 1.000000 0.000000 0.000000
vn 1.000000 0.000000 0.000000
vn 1.000000 0.000000 0.000000
vn 1.000000 0.000000 0.000000
vn -1.000000 0.000000 0.000000
vn -1.000000 0.000000 0.000000
vn -1.000000 0.000000 0.000000
vn -1.000000 0.000000 0.000000
s off
g oak_lab:group7 oak_lab:oak_lab6:oak_lab4:oak_lab2:pasted__pasted__pasted__pasted__pasted__pasted__pCube6 oak_lab:oak_lab6:oak_lab4:oak_lab2:pasted__pasted__pasted__pasted__pasted__group20 oak_lab:oak_lab6:oak_lab4:oak_lab2:pasted__pasted__pasted__pasted__group23 oak_lab:oak_lab6:oak_lab4:oak_lab2:pasted__pasted__pasted__group24 oak_lab:oak_lab6:oak_lab4:oak_lab2:pasted__pasted__group25 oak_lab:oak_lab6:oak_lab4:oak_lab2:pasted__group32 oak_lab:oak_lab6:oak_lab4:oak_lab2:group oak_lab:oak_lab6:oak_lab4:group4 oak_lab:oak_lab6:group5
usemtl oak_lab:oak_lab6:oak_lab4:oak_lab2:pasted__phong1SG
f 9/15/25 10/16/26 12/18/27 11/17/28
f 11/17/29 12/18/30 14/20/31 13/19/32
f 13/19/33 14/20/34 16/22/35 15/21/36
f 15/21/37 16/22/38 10/24/39 9/23/40
f 10/16/41 16/25/42 14/26/43 12/18/44
f 15/27/45 9/15/46 11/17/47 13/28/48
g default
v 35.460386 2.972616 15.910600
v 39.493788 2.972616 15.910600
v 35.460386 5.991046 15.910600
v 39.493788 5.991046 15.910600
v 35.460386 5.991046 15.263650
v 39.493788 5.991046 15.263650
v 35.460386 2.972616 15.263650
v 39.493788 2.972616 15.263650
vt 0.375000 0.000000
vt 0.625000 0.000000
vt 0.375000 0.250000
vt 0.625000 0.250000
vt 0.375000 0.500000
vt 0.625000 0.500000
vt 0.375000 0.750000
vt 0.625000 0.750000
vt 0.375000 1.000000
vt 0.625000 1.000000
vt 0.875000 0.000000
vt 0.875000 0.250000
vt 0.125000 0.000000
vt 0.125000 0.250000
vn 0.000000 0.000000 1.000000
vn 0.000000 0.000000 1.000000
vn 0.000000 0.000000 1.000000
vn 0.000000 0.000000 1.000000
vn 0.000000 1.000000 0.000000
vn 0.000000 1.000000 0.000000
vn 0.000000 1.000000 0.000000
vn 0.000000 1.000000 0.000000
vn 0.000000 0.000000 -1.000000
vn 0.000000 0.000000 -1.000000
vn 0.000000 0.000000 -1.000000
vn 0.000000 0.000000 -1.000000
vn 0.000000 -1.000000 0.000000
vn 0.000000 -1.000000 0.000000
vn 0.000000 -1.000000 0.000000
vn 0.000000 -1.000000 0.000000
vn 1.000000 0.000000 0.000000
vn 1.000000 0.000000 0.000000
vn 1.000000 0.000000 0.000000
vn 1.000000 0.000000 0.000000
vn -1.000000 0.000000 0.000000
vn -1.000000 0.000000 0.000000
vn -1.000000 0.000000 0.000000
vn -1.000000 0.000000 0.000000
s off
g pasted__pasted__pasted__pasted__pCube6 pasted__pasted__pasted__group20 pasted__pasted__group23 pasted__group24 group25
usemtl phong1SG
f 17/29/49 18/30/50 20/32/51 19/31/52
f 19/31/53 20/32/54 22/34/55 21/33/56
f 21/33/57 22/34/58 24/36/59 23/35/60
f 23/35/61 24/36/62 18/38/63 17/37/64
f 18/30/65 24/39/66 22/40/67 20/32/68
f 23/41/69 17/29/70 19/31/71 21/42/72
g default
v 36.375704 9.847317 15.192968
v 36.261951 10.070571 15.192968
v 36.084776 10.247746 15.192968
v 35.861523 10.361499 15.192968
v 35.614044 10.400696 15.192968
v 35.366566 10.361499 15.192968
v 35.143313 10.247746 15.192968
v 34.966138 10.070571 15.192968
v 34.852385 9.847317 15.192968
v 34.813188 9.599839 15.192968
v 34.852385 9.352361 15.192968
v 34.966138 9.129108 15.192968
v 35.143313 8.951933 15.192968
v 35.366566 8.838179 15.192968
v 35.614044 8.798983 15.192968
v 35.861523 8.838180 15.192968
v 36.084776 8.951933 15.192968
v 36.261951 9.129108 15.192968
v 36.375704 9.352361 15.192968
v 36.414901 9.599839 15.192968
v 36.375704 9.847317 15.962745
v 36.261951 10.070571 15.962745
v 36.084776 10.247746 15.962745
v 35.861523 10.361499 15.962745
v 35.614044 10.400696 15.962745
v 35.366566 10.361499 15.962745
v 35.143313 10.247746 15.962745
v 34.966138 10.070571 15.962745
v 34.852385 9.847317 15.962745
v 34.813188 9.599839 15.962745
v 34.852385 9.352361 15.962745
v 34.966138 9.129108 15.962745
v 35.143313 8.951933 15.962745
v 35.366566 8.838179 15.962745
v 35.614044 8.798983 15.962745
v 35.861523 8.838180 15.962745
v 36.084776 8.951933 15.962745
v 36.261951 9.129108 15.962745
v 36.375704 9.352361 15.962745
v 36.414901 9.599839 15.962745
v 35.614044 9.599839 15.192968
v 35.614044 9.599839 15.962745
vt 0.648603 0.107966
vt 0.626409 0.064408
vt 0.591842 0.029841
vt 0.548284 0.007647
vt 0.500000 -0.000000
vt 0.451716 0.007647
vt 0.408159 0.029841
vt 0.373591 0.064409
vt 0.351397 0.107966
vt 0.343750 0.156250
vt 0.351397 0.204534
vt 0.373591 0.248091
vt 0.408159 0.282659
vt 0.451716 0.304853
vt 0.500000 0.312500
vt 0.548284 0.304853
vt 0.591841 0.282659
vt 0.626409 0.248091
vt 0.648603 0.204534
vt 0.656250 0.156250
vt 0.375000 0.312500
vt 0.387500 0.312500
vt 0.400000 0.312500
vt 0.412500 0.312500
vt 0.425000 0.312500
vt 0.437500 0.312500
vt 0.450000 0.312500
vt 0.462500 0.312500
vt 0.475000 0.312500
vt 0.487500 0.312500
vt 0.500000 0.312500
vt 0.512500 0.312500
vt 0.525000 0.312500
vt 0.537500 0.312500
vt 0.550000 0.312500
vt 0.562500 0.312500
vt 0.575000 0.312500
vt 0.587500 0.312500
vt 0.600000 0.312500
vt 0.612500 0.312500
vt 0.625000 0.312500
vt 0.375000 0.687500
vt 0.387500 0.687500
vt 0.400000 0.687500
vt 0.412500 0.687500
vt 0.425000 0.687500
vt 0.437500 0.687500
vt 0.450000 0.687500
vt 0.462500 0.687500
vt 0.475000 0.687500
vt 0.487500 0.687500
vt 0.500000 0.687500
vt 0.512500 0.687500
vt 0.525000 0.687500
vt 0.537500 0.687500
vt 0.550000 0.687500
vt 0.562500 0.687500
vt 0.575000 0.687500
vt 0.587500 0.687500
vt 0.600000 0.687500
vt 0.612500 0.687500
vt 0.625000 0.687500
vt 0.648603 0.795466
vt 0.626409 0.751908
vt 0.591842 0.717341
vt 0.548284 0.695147
vt 0.500000 0.687500
vt 0.451716 0.695147
vt 0.408159 0.717341
vt 0.373591 0.751909
vt 0.351397 0.795466
vt 0.343750 0.843750
vt 0.351397 0.892034
vt 0.373591 0.935591
vt 0.408159 0.970159
vt 0.451716 0.992353
vt 0.500000 1.000000
vt 0.548284 0.992353
vt 0.591841 0.970159
vt 0.626409 0.935591
vt 0.648603 0.892034
vt 0.656250 0.843750
vt 0.500000 0.156250
vt 0.500000 0.843750
vn 0.951057 0.309016 0.000000
vn 0.809017 0.587785 0.000000
vn 0.809017 0.587785 0.000000
vn 0.951057 0.309016 0.000000
vn 0.587785 0.809017 0.000000
vn 0.587785 0.809017 0.000000
vn 0.309017 0.951057 0.000000
vn 0.309017 0.951057 0.000000
vn -0.000000 1.000000 0.000000
vn -0.000000 1.000000 0.000000
vn -0.309017 0.951056 0.000000
vn -0.309017 0.951056 0.000000
vn -0.587785 0.809017 0.000000
vn -0.587785 0.809017 0.000000
vn -0.809017 0.587785 0.000000
vn -0.809017 0.587785 0.000000
vn -0.951057 0.309017 0.000000
vn -0.951057 0.309017 0.000000
vn -1.000000 0.000000 0.000000
vn -1.000000 0.000000 0.000000
vn -0.951056 -0.309017 0.000000
vn -0.951056 -0.309017 0.000000
vn -0.809017 -0.587785 0.000000
vn -0.809017 -0.587785 0.000000
vn -0.587785 -0.809017 0.000000
vn -0.587785 -0.809017 0.000000
vn -0.309017 -0.951057 0.000000
vn -0.309017 -0.951057 0.000000
vn 0.000000 -1.000000 0.000000
vn 0.000000 -1.000000 0.000000
vn 0.309017 -0.951056 0.000000
vn 0.309017 -0.951056 0.000000
vn 0.587785 -0.809017 0.000000
vn 0.587785 -0.809017 0.000000
vn 0.809017 -0.587785 0.000000
vn 0.809017 -0.587785 0.000000
vn 0.951056 -0.309017 0.000000
vn 0.951056 -0.309017 0.000000
vn 1.000000 -0.000001 0.000000
vn 1.000000 -0.000001 0.000000
vn 0.000000 -0.000000 -1.000000
vn 0.000000 -0.000000 -1.000000
vn 0.000000 -0.000000 -1.000000
vn 0.000000 -0.000000 -1.000000
vn 0.000000 -0.000000 -1.000000
vn 0.000000 -0.000000 -1.000000
vn 0.000000 -0.000000 -1.000000
vn 0.000000 -0.000000 -1.000000
vn 0.000000 -0.000000 -1.000000
vn 0.000000 -0.000000 -1.000000
vn 0.000000 -0.000000 -1.000000
vn 0.000000 -0.000000 -1.000000
vn 0.000000 -0.000000 -1.000000
vn 0.000000 -0.000000 -1.000000
vn 0.000000 -0.000000 -1.000000
vn 0.000000 -0.000000 -1.000000
vn 0.000000 -0.000000 -1.000000
vn 0.000000 -0.000000 -1.000000
vn 0.000000 -0.000000 -1.000000
vn 0.000000 -0.000000 -1.000000
vn 0.000000 -0.000000 -1.000000
vn 0.000000 0.000000 1.000000
vn 0.000000 0.000000 1.000000
vn 0.000000 0.000000 1.000000
vn 0.000000 0.000000 1.000000
vn 0.000000 0.000000 1.000000
vn 0.000000 0.000000 1.000000
vn 0.000000 0.000000 1.000000
vn 0.000000 0.000000 1.000000
vn 0.000000 0.000000 1.000000
vn 0.000000 0.000000 1.000000
vn 0.000000 0.000000 1.000000
vn 0.000000 0.000000 1.000000
vn 0.000000 0.000000 1.000000
vn 0.000000 0.000000 1.000000
vn 0.000000 0.000000 1.000000
vn 0.000000 0.000000 1.000000
vn 0.000000 0.000000 1.000000
vn 0.000000 0.000000 1.000000
vn 0.000000 0.000000 1.000000
vn 0.000000 0.000000 1.000000
vn 0.000000 0.000000 1.000000
s 1
g pasted__pasted__pasted__pasted__pasted__pasted__pasted__pCylinder1 pasted__pasted__pasted__pasted__pasted__pasted__group15 pasted__pasted__pasted__pasted__pasted__group16 pasted__pasted__pasted__pasted__group17 pasted__pasted__pasted__group27 pasted__pasted__group28 pasted__group29 group31
usemtl phong1SG
f 25/63/73 26/64/74 46/85/75 45/84/76
f 26/64/74 27/65/77 47/86/78 46/85/75
f 27/65/77 28/66/79 48/87/80 47/86/78
f 28/66/79 29/67/81 49/88/82 48/87/80
f 29/67/81 30/68/83 50/89/84 49/88/82
f 30/68/83 31/69/85 51/90/86 50/89/84
f 31/69/85 32/70/87 52/91/88 51/90/86
f 32/70/87 33/71/89 53/92/90 52/91/88
f 33/71/89 34/72/91 54/93/92 53/92/90
f 34/72/91 35/73/93 55/94/94 54/93/92
f 35/73/93 36/74/95 56/95/96 55/94/94
f 36/74/95 37/75/97 57/96/98 56/95/96
f 37/75/97 38/76/99 58/97/100 57/96/98
f 38/76/99 39/77/101 59/98/102 58/97/100
f 39/77/101 40/78/103 60/99/104 59/98/102
f 40/78/103 41/79/105 61/100/106 60/99/104
f 41/79/105 42/80/107 62/101/108 61/100/106
f 42/80/107 43/81/109 63/102/110 62/101/108
f 43/81/109 44/82/111 64/103/112 63/102/110
f 44/82/111 25/83/73 45/104/76 64/103/112
s 2
f 26/44/113 25/43/114 65/125/115
f 27/45/116 26/44/113 65/125/115
f 28/46/117 27/45/116 65/125/115
f 29/47/118 28/46/117 65/125/115
f 30/48/119 29/47/118 65/125/115
f 31/49/120 30/48/119 65/125/115
f 32/50/121 31/49/120 65/125/115
f 33/51/122 32/50/121 65/125/115
f 34/52/123 33/51/122 65/125/115
f 35/53/124 34/52/123 65/125/115
f 36/54/125 35/53/124 65/125/115
f 37/55/126 36/54/125 65/125/115
f 38/56/127 37/55/126 65/125/115
f 39/57/128 38/56/127 65/125/115
f 40/58/129 39/57/128 65/125/115
f 41/59/130 40/58/129 65/125/115
f 42/60/131 41/59/130 65/125/115
f 43/61/132 42/60/131 65/125/115
f 44/62/133 43/61/132 65/125/115
f 25/43/114 44/62/133 65/125/115
s 3
f 45/123/134 46/122/135 66/126/136
f 46/122/135 47/121/137 66/126/136
f 47/121/137 48/120/138 66/126/136
f 48/120/138 49/119/139 66/126/136
f 49/119/139 50/118/140 66/126/136
f 50/118/140 51/117/141 66/126/136
f 51/117/141 52/116/142 66/126/136
f 52/116/142 53/115/143 66/126/136
f 53/115/143 54/114/144 66/126/136
f 54/114/144 55/113/145 66/126/136
f 55/113/145 56/112/146 66/126/136
f 56/112/146 57/111/147 66/126/136
f 57/111/147 58/110/148 66/126/136
f 58/110/148 59/109/149 66/126/136
f 59/109/149 60/108/150 66/126/136
f 60/108/150 61/107/151 66/126/136
f 61/107/151 62/106/152 66/126/136
f 62/106/152 63/105/153 66/126/136
f 63/105/153 64/124/154 66/126/136
f 64/124/154 45/123/134 66/126/136
g default
v 31.361206 4.674834 15.172850
v 31.247452 4.898088 15.172850
v 31.070277 5.075263 15.172850
v 30.847024 5.189016 15.172850
v 30.599546 5.228213 15.172850
v 30.352067 5.189016 15.172850
v 30.128814 5.075263 15.172850
v 29.951639 4.898088 15.172850
v 29.837886 4.674834 15.172850
v 29.798689 4.427356 15.172850
v 29.837886 4.179878 15.172850
v 29.951639 3.956624 15.172850
v 30.128814 3.779450 15.172850
v 30.352067 3.665696 15.172850
v 30.599546 3.626500 15.172850
v 30.847024 3.665696 15.172850
v 31.070277 3.779450 15.172850
v 31.247452 3.956625 15.172850
v 31.361205 4.179878 15.172850
v 31.400402 4.427356 15.172850
v 31.361206 4.674834 15.942627
v 31.247452 4.898088 15.942627
v 31.070277 5.075263 15.942627
v 30.847024 5.189016 15.942627
v 30.599546 5.228213 15.942627
v 30.352067 5.189016 15.942627
v 30.128814 5.075263 15.942627
v 29.951639 4.898088 15.942627
v 29.837886 4.674834 15.942627
v 29.798689 4.427356 15.942627
v 29.837886 4.179878 15.942627
v 29.951639 3.956624 15.942627
v 30.128814 3.779450 15.942627
v 30.352067 3.665696 15.942627
v 30.599546 3.626500 15.942627
v 30.847024 3.665696 15.942627
v 31.070277 3.779450 15.942627
v 31.247452 3.956625 15.942627
v 31.361205 4.179878 15.942627
v 31.400402 4.427356 15.942627
v 30.599546 4.427356 15.172850
v 30.599546 4.427356 15.942627
vt 0.648603 0.107966
vt 0.626409 0.064408
vt 0.591842 0.029841
vt 0.548284 0.007647
vt 0.500000 -0.000000
vt 0.451716 0.007647
vt 0.408159 0.029841
vt 0.373591 0.064409
vt 0.351397 0.107966
vt 0.343750 0.156250
vt 0.351397 0.204534
vt 0.373591 0.248091
vt 0.408159 0.282659
vt 0.451716 0.304853
vt 0.500000 0.312500
vt 0.548284 0.304853
vt 0.591841 0.282659
vt 0.626409 0.248091
vt 0.648603 0.204534
vt 0.656250 0.156250
vt 0.375000 0.312500
vt 0.387500 0.312500
vt 0.400000 0.312500
vt 0.412500 0.312500
vt 0.425000 0.312500
vt 0.437500 0.312500
vt 0.450000 0.312500
vt 0.462500 0.312500
vt 0.475000 0.312500
vt 0.487500 0.312500
vt 0.500000 0.312500
vt 0.512500 0.312500
vt 0.525000 0.312500
vt 0.537500 0.312500
vt 0.550000 0.312500
vt 0.562500 0.312500
vt 0.575000 0.312500
vt 0.587500 0.312500
vt 0.600000 0.312500
vt 0.612500 0.312500
vt 0.625000 0.312500
vt 0.375000 0.687500
vt 0.387500 0.687500
vt 0.400000 0.687500
vt 0.412500 0.687500
vt 0.425000 0.687500
vt 0.437500 0.687500
vt 0.450000 0.687500
vt 0.462500 0.687500
vt 0.475000 0.687500
vt 0.487500 0.687500
vt 0.500000 0.687500
vt 0.512500 0.687500
vt 0.525000 0.687500
vt 0.537500 0.687500
vt 0.550000 0.687500
vt 0.562500 0.687500
vt 0.575000 0.687500
vt 0.587500 0.687500
vt 0.600000 0.687500
vt 0.612500 0.687500
vt 0.625000 0.687500
vt 0.648603 0.795466
vt 0.626409 0.751908
vt 0.591842 0.717341
vt 0.548284 0.695147
vt 0.500000 0.687500
vt 0.451716 0.695147
vt 0.408159 0.717341
vt 0.373591 0.751909
vt 0.351397 0.795466
vt 0.343750 0.843750
vt 0.351397 0.892034
vt 0.373591 0.935591
vt 0.408159 0.970159
vt 0.451716 0.992353
vt 0.500000 1.000000
vt 0.548284 0.992353
vt 0.591841 0.970159
vt 0.626409 0.935591
vt 0.648603 0.892034
vt 0.656250 0.843750
vt 0.500000 0.156250
vt 0.500000 0.843750
vn 0.951057 0.309016 0.000000
vn 0.809017 0.587785 0.000000
vn 0.809017 0.587785 0.000000
vn 0.951057 0.309016 0.000000
vn 0.587785 0.809017 0.000000
vn 0.587785 0.809017 0.000000
vn 0.309017 0.951057 0.000000
vn 0.309017 0.951057 0.000000
vn -0.000000 1.000000 0.000000
vn -0.000000 1.000000 0.000000
vn -0.309017 0.951056 0.000000
vn -0.309017 0.951056 0.000000
vn -0.587785 0.809017 0.000000
vn -0.587785 0.809017 0.000000
vn -0.809017 0.587785 0.000000
vn -0.809017 0.587785 0.000000
vn -0.951057 0.309017 0.000000
vn -0.951057 0.309017 0.000000
vn -1.000000 0.000000 0.000000
vn -1.000000 0.000000 0.000000
vn -0.951056 -0.309017 0.000000
vn -0.951056 -0.309017 0.000000
vn -0.809017 -0.587785 0.000000
vn -0.809017 -0.587785 0.000000
vn -0.587785 -0.809017 0.000000
vn -0.587785 -0.809017 0.000000
vn -0.309017 -0.951057 0.000000
vn -0.309017 -0.951057 0.000000
vn 0.000000 -1.000000 0.000000
vn 0.000000 -1.000000 0.000000
vn 0.309017 -0.951056 0.000000
vn 0.309017 -0.951056 0.000000
vn 0.587785 -0.809017 0.000000
vn 0.587785 -0.809017 0.000000
vn 0.809017 -0.587785 0.000000
vn 0.809017 -0.587785 0.000000
vn 0.951056 -0.309017 0.000000
vn 0.951056 -0.309017 0.000000
vn 1.000000 -0.000001 0.000000
vn 1.000000 -0.000001 0.000000
vn 0.000000 -0.000000 -1.000000
vn 0.000000 -0.000000 -1.000000
vn 0.000000 -0.000000 -1.000000
vn 0.000000 -0.000000 -1.000000
vn 0.000000 -0.000000 -1.000000
vn 0.000000 -0.000000 -1.000000
vn 0.000000 -0.000000 -1.000000
vn 0.000000 -0.000000 -1.000000
vn 0.000000 -0.000000 -1.000000
vn 0.000000 -0.000000 -1.000000
vn 0.000000 -0.000000 -1.000000
vn 0.000000 -0.000000 -1.000000
vn 0.000000 -0.000000 -1.000000
vn 0.000000 -0.000000 -1.000000
vn 0.000000 -0.000000 -1.000000
vn 0.000000 -0.000000 -1.000000
vn 0.000000 -0.000000 -1.000000
vn 0.000000 -0.000000 -1.000000
vn 0.000000 -0.000000 -1.000000
vn 0.000000 -0.000000 -1.000000
vn 0.000000 -0.000000 -1.000000
vn 0.000000 0.000000 1.000000
vn 0.000000 0.000000 1.000000
vn 0.000000 0.000000 1.000000
vn 0.000000 0.000000 1.000000
vn 0.000000 0.000000 1.000000
vn 0.000000 0.000000 1.000000
vn 0.000000 0.000000 1.000000
vn 0.000000 0.000000 1.000000
vn 0.000000 0.000000 1.000000
vn 0.000000 0.000000 1.000000
vn 0.000000 0.000000 1.000000
vn 0.000000 0.000000 1.000000
vn 0.000000 0.000000 1.000000
vn 0.000000 0.000000 1.000000
vn 0.000000 0.000000 1.000000
vn 0.000000 0.000000 1.000000
vn 0.000000 0.000000 1.000000
vn 0.000000 0.000000 1.000000
vn 0.000000 0.000000 1.000000
vn 0.000000 0.000000 1.000000
vn 0.000000 0.000000 1.000000
s 1
g pasted__pasted__pasted__pasted__pasted__pasted__pasted__pasted__pCylinder1 pasted__pasted__pasted__pasted__pasted__pasted__pasted__group15 pasted__pasted__pasted__pasted__pasted__pasted__group16 pasted__pasted__pasted__pasted__pasted__group17 pasted__pasted__pasted__pasted__group27 pasted__pasted__pasted__group28 pasted__pasted__group29 pasted__group31 group35
usemtl phong1SG
f 67/147/155 68/148/156 88/169/157 87/168/158
f 68/148/156 69/149/159 89/170/160 88/169/157
f 69/149/159 70/150/161 90/171/162 89/170/160
f 70/150/161 71/151/163 91/172/164 90/171/162
f 71/151/163 72/152/165 92/173/166 91/172/164
f 72/152/165 73/153/167 93/174/168 92/173/166
f 73/153/167 74/154/169 94/175/170 93/174/168
f 74/154/169 75/155/171 95/176/172 94/175/170
f 75/155/171 76/156/173 96/177/174 95/176/172
f 76/156/173 77/157/175 97/178/176 96/177/174
f 77/157/175 78/158/177 98/179/178 97/178/176
f 78/158/177 79/159/179 99/180/180 98/179/178
f 79/159/179 80/160/181 100/181/182 99/180/180
f 80/160/181 81/161/183 101/182/184 100/181/182
f 81/161/183 82/162/185 102/183/186 101/182/184
f 82/162/185 83/163/187 103/184/188 102/183/186
f 83/163/187 84/164/189 104/185/190 103/184/188
f 84/164/189 85/165/191 105/186/192 104/185/190
f 85/165/191 86/166/193 106/187/194 105/186/192
f 86/166/193 67/167/155 87/188/158 106/187/194
s 2
f 68/128/195 67/127/196 107/209/197
f 69/129/198 68/128/195 107/209/197
f 70/130/199 69/129/198 107/209/197
f 71/131/200 70/130/199 107/209/197
f 72/132/201 71/131/200 107/209/197
f 73/133/202 72/132/201 107/209/197
f 74/134/203 73/133/202 107/209/197
f 75/135/204 74/134/203 107/209/197
f 76/136/205 75/135/204 107/209/197
f 77/137/206 76/136/205 107/209/197
f 78/138/207 77/137/206 107/209/197
f 79/139/208 78/138/207 107/209/197
f 80/140/209 79/139/208 107/209/197
f 81/141/210 80/140/209 107/209/197
f 82/142/211 81/141/210 107/209/197
f 83/143/212 82/142/211 107/209/197
f 84/144/213 83/143/212 107/209/197
f 85/145/214 84/144/213 107/209/197
f 86/146/215 85/145/214 107/209/197
f 67/127/196 86/146/215 107/209/197
s 3
f 87/207/216 88/206/217 108/210/218
f 88/206/217 89/205/219 108/210/218
f 89/205/219 90/204/220 108/210/218
f 90/204/220 91/203/221 108/210/218
f 91/203/221 92/202/222 108/210/218
f 92/202/222 93/201/223 108/210/218
f 93/201/223 94/200/224 108/210/218
f 94/200/224 95/199/225 108/210/218
f 95/199/225 96/198/226 108/210/218
f 96/198/226 97/197/227 108/210/218
f 97/197/227 98/196/228 108/210/218
f 98/196/228 99/195/229 108/210/218
f 99/195/229 100/194/230 108/210/218
f 100/194/230 101/193/231 108/210/218
f 101/193/231 102/192/232 108/210/218
f 102/192/232 103/191/233 108/210/218
f 103/191/233 104/190/234 108/210/218
f 104/190/234 105/189/235 108/210/218
f 105/189/235 106/208/236 108/210/218
f 106/208/236 87/207/216 108/210/218
g default
v 40.276413 9.847317 15.192968
v 40.162660 10.070571 15.192968
v 39.985485 10.247746 15.192968
v 39.762231 10.361499 15.192968
v 39.514753 10.400696 15.192968
v 39.267275 10.361499 15.192968
v 39.044021 10.247746 15.192968
v 38.866846 10.070571 15.192968
v 38.753093 9.847317 15.192968
v 38.713897 9.599839 15.192968
v 38.753093 9.352361 15.192968
v 38.866847 9.129108 15.192968
v 39.044021 8.951933 15.192968
v 39.267275 8.838179 15.192968
v 39.514753 8.798983 15.192968
v 39.762231 8.838180 15.192968
v 39.985484 8.951933 15.192968
v 40.162659 9.129108 15.192968
v 40.276413 9.352361 15.192968
v 40.315609 9.599839 15.192968
v 40.276413 9.847317 15.962745
v 40.162660 10.070571 15.962745
v 39.985485 10.247746 15.962745
v 39.762231 10.361499 15.962745
v 39.514753 10.400696 15.962745
v 39.267275 10.361499 15.962745
v 39.044021 10.247746 15.962745
v 38.866846 10.070571 15.962745
v 38.753093 9.847317 15.962745
v 38.713897 9.599839 15.962745
v 38.753093 9.352361 15.962745
v 38.866847 9.129108 15.962745
v 39.044021 8.951933 15.962745
v 39.267275 8.838179 15.962745
v 39.514753 8.798983 15.962745
v 39.762231 8.838180 15.962745
v 39.985484 8.951933 15.962745
v 40.162659 9.129108 15.962745
v 40.276413 9.352361 15.962745
v 40.315609 9.599839 15.962745
v 39.514753 9.599839 15.192968
v 39.514753 9.599839 15.962745
vt 0.648603 0.107966
vt 0.626409 0.064408
vt 0.591842 0.029841
vt 0.548284 0.007647
vt 0.500000 -0.000000
vt 0.451716 0.007647
vt 0.408159 0.029841
vt 0.373591 0.064409
vt 0.351397 0.107966
vt 0.343750 0.156250
vt 0.351397 0.204534
vt 0.373591 0.248091
vt 0.408159 0.282659
vt 0.451716 0.304853
vt 0.500000 0.312500
vt 0.548284 0.304853
vt 0.591841 0.282659
vt 0.626409 0.248091
vt 0.648603 0.204534
vt 0.656250 0.156250
vt 0.375000 0.312500
vt 0.387500 0.312500
vt 0.400000 0.312500
vt 0.412500 0.312500
vt 0.425000 0.312500
vt 0.437500 0.312500
vt 0.450000 0.312500
vt 0.462500 0.312500
vt 0.475000 0.312500
vt 0.487500 0.312500
vt 0.500000 0.312500
vt 0.512500 0.312500
vt 0.525000 0.312500
vt 0.537500 0.312500
vt 0.550000 0.312500
vt 0.562500 0.312500
vt 0.575000 0.312500
vt 0.587500 0.312500
vt 0.600000 0.312500
vt 0.612500 0.312500
vt 0.625000 0.312500
vt 0.375000 0.687500
vt 0.387500 0.687500
vt 0.400000 0.687500
vt 0.412500 0.687500
vt 0.425000 0.687500
vt 0.437500 0.687500
vt 0.450000 0.687500
vt 0.462500 0.687500
vt 0.475000 0.687500
vt 0.487500 0.687500
vt 0.500000 0.687500
vt 0.512500 0.687500
vt 0.525000 0.687500
vt 0.537500 0.687500
vt 0.550000 0.687500
vt 0.562500 0.687500
vt 0.575000 0.687500
vt 0.587500 0.687500
vt 0.600000 0.687500
vt 0.612500 0.687500
vt 0.625000 0.687500
vt 0.648603 0.795466
vt 0.626409 0.751908
vt 0.591842 0.717341
vt 0.548284 0.695147
vt 0.500000 0.687500
vt 0.451716 0.695147
vt 0.408159 0.717341
vt 0.373591 0.751909
vt 0.351397 0.795466
vt 0.343750 0.843750
vt 0.351397 0.892034
vt 0.373591 0.935591
vt 0.408159 0.970159
vt 0.451716 0.992353
vt 0.500000 1.000000
vt 0.548284 0.992353
vt 0.591841 0.970159
vt 0.626409 0.935591
vt 0.648603 0.892034
vt 0.656250 0.843750
vt 0.500000 0.156250
vt 0.500000 0.843750
vn 0.951057 0.309016 0.000000
vn 0.809017 0.587785 0.000000
vn 0.809017 0.587785 0.000000
vn 0.951057 0.309016 0.000000
vn 0.587785 0.809017 0.000000
vn 0.587785 0.809017 0.000000
vn 0.309017 0.951057 0.000000
vn 0.309017 0.951057 0.000000
vn -0.000000 1.000000 0.000000
vn -0.000000 1.000000 0.000000
vn -0.309017 0.951056 0.000000
vn -0.309017 0.951056 0.000000
vn -0.587785 0.809017 0.000000
vn -0.587785 0.809017 0.000000
vn -0.809017 0.587785 0.000000
vn -0.809017 0.587785 0.000000
vn -0.951057 0.309017 0.000000
vn -0.951057 0.309017 0.000000
vn -1.000000 0.000000 0.000000
vn -1.000000 0.000000 0.000000
vn -0.951056 -0.309017 0.000000
vn -0.951056 -0.309017 0.000000
vn -0.809017 -0.587785 0.000000
vn -0.809017 -0.587785 0.000000
vn -0.587785 -0.809017 0.000000
vn -0.587785 -0.809017 0.000000
vn -0.309017 -0.951057 0.000000
vn -0.309017 -0.951057 0.000000
vn 0.000000 -1.000000 0.000000
vn 0.000000 -1.000000 0.000000
vn 0.309017 -0.951056 0.000000
vn 0.309017 -0.951056 0.000000
vn 0.587785 -0.809017 0.000000
vn 0.587785 -0.809017 0.000000
vn 0.809017 -0.587785 0.000000
vn 0.809017 -0.587785 0.000000
vn 0.951056 -0.309017 0.000000
vn 0.951056 -0.309017 0.000000
vn 1.000000 -0.000001 0.000000
vn 1.000000 -0.000001 0.000000
vn 0.000000 -0.000000 -1.000000
vn 0.000000 -0.000000 -1.000000
vn 0.000000 -0.000000 -1.000000
vn 0.000000 -0.000000 -1.000000
vn 0.000000 -0.000000 -1.000000
vn 0.000000 -0.000000 -1.000000
vn 0.000000 -0.000000 -1.000000
vn 0.000000 -0.000000 -1.000000
vn 0.000000 -0.000000 -1.000000
vn 0.000000 -0.000000 -1.000000
vn 0.000000 -0.000000 -1.000000
vn 0.000000 -0.000000 -1.000000
vn 0.000000 -0.000000 -1.000000
vn 0.000000 -0.000000 -1.000000
vn 0.000000 -0.000000 -1.000000
vn 0.000000 -0.000000 -1.000000
vn 0.000000 -0.000000 -1.000000
vn 0.000000 -0.000000 -1.000000
vn 0.000000 -0.000000 -1.000000
vn 0.000000 -0.000000 -1.000000
vn 0.000000 -0.000000 -1.000000
vn 0.000000 0.000000 1.000000
vn 0.000000 0.000000 1.000000
vn 0.000000 0.000000 1.000000
vn 0.000000 0.000000 1.000000
vn 0.000000 0.000000 1.000000
vn 0.000000 0.000000 1.000000
vn 0.000000 0.000000 1.000000
vn 0.000000 0.000000 1.000000
vn 0.000000 0.000000 1.000000
vn 0.000000 0.000000 1.000000
vn 0.000000 0.000000 1.000000
vn 0.000000 0.000000 1.000000
vn 0.000000 0.000000 1.000000
vn 0.000000 0.000000 1.000000
vn 0.000000 0.000000 1.000000
vn 0.000000 0.000000 1.000000
vn 0.000000 0.000000 1.000000
vn 0.000000 0.000000 1.000000
vn 0.000000 0.000000 1.000000
vn 0.000000 0.000000 1.000000
vn 0.000000 0.000000 1.000000
s 1
g group31 pasted__pasted__pasted__pasted__pasted__pasted__pasted__pasted__pCylinder1 pasted__pasted__pasted__pasted__pasted__pasted__pasted__group15 pasted__pasted__pasted__pasted__pasted__pasted__group16 pasted__pasted__pasted__pasted__pasted__group17 pasted__pasted__pasted__pasted__group27 pasted__pasted__pasted__group28 pasted__pasted__group29 pasted__group30
usemtl phong1SG
f 109/231/237 110/232/238 130/253/239 129/252/240
f 110/232/238 111/233/241 131/254/242 130/253/239
f 111/233/241 112/234/243 132/255/244 131/254/242
f 112/234/243 113/235/245 133/256/246 132/255/244
f 113/235/245 114/236/247 134/257/248 133/256/246
f 114/236/247 115/237/249 135/258/250 134/257/248
f 115/237/249 116/238/251 136/259/252 135/258/250
f 116/238/251 117/239/253 137/260/254 136/259/252
f 117/239/253 118/240/255 138/261/256 137/260/254
f 118/240/255 119/241/257 139/262/258 138/261/256
f 119/241/257 120/242/259 140/263/260 139/262/258
f 120/242/259 121/243/261 141/264/262 140/263/260
f 121/243/261 122/244/263 142/265/264 141/264/262
f 122/244/263 123/245/265 143/266/266 142/265/264
f 123/245/265 124/246/267 144/267/268 143/266/266
f 124/246/267 125/247/269 145/268/270 144/267/268
f 125/247/269 126/248/271 146/269/272 145/268/270
f 126/248/271 127/249/273 147/270/274 146/269/272
f 127/249/273 128/250/275 148/271/276 147/270/274
f 128/250/275 109/251/237 129/272/240 148/271/276
s 2
f 110/212/277 109/211/278 149/293/279
f 111/213/280 110/212/277 149/293/279
f 112/214/281 111/213/280 149/293/279
f 113/215/282 112/214/281 149/293/279
f 114/216/283 113/215/282 149/293/279
f 115/217/284 114/216/283 149/293/279
f 116/218/285 115/217/284 149/293/279
f 117/219/286 116/218/285 149/293/279
f 118/220/287 117/219/286 149/293/279
f 119/221/288 118/220/287 149/293/279
f 120/222/289 119/221/288 149/293/279
f 121/223/290 120/222/289 149/293/279
f 122/224/291 121/223/290 149/293/279
f 123/225/292 122/224/291 149/293/279
f 124/226/293 123/225/292 149/293/279
f 125/227/294 124/226/293 149/293/279
f 126/228/295 125/227/294 149/293/279
f 127/229/296 126/228/295 149/293/279
f 128/230/297 127/229/296 149/293/279
f 109/211/278 128/230/297 149/293/279
s 3
f 129/291/298 130/290/299 150/294/300
f 130/290/299 131/289/301 150/294/300
f 131/289/301 132/288/302 150/294/300
f 132/288/302 133/287/303 150/294/300
f 133/287/303 134/286/304 150/294/300
f 134/286/304 135/285/305 150/294/300
f 135/285/305 136/284/306 150/294/300
f 136/284/306 137/283/307 150/294/300
f 137/283/307 138/282/308 150/294/300
f 138/282/308 139/281/309 150/294/300
f 139/281/309 140/280/310 150/294/300
f 140/280/310 141/279/311 150/294/300
f 141/279/311 142/278/312 150/294/300
f 142/278/312 143/277/313 150/294/300
f 143/277/313 144/276/314 150/294/300
f 144/276/314 145/275/315 150/294/300
f 145/275/315 146/274/316 150/294/300
f 146/274/316 147/273/317 150/294/300
f 147/273/317 148/292/318 150/294/300
f 148/292/318 129/291/298 150/294/300
g default
v 25.960580 9.847317 15.192968
v 25.846827 10.070571 15.192968
v 25.669652 10.247746 15.192968
v 25.446399 10.361499 15.192968
v 25.198920 10.400696 15.192968
v 24.951442 10.361499 15.192968
v 24.728189 10.247746 15.192968
v 24.551014 10.070571 15.192968
v 24.437261 9.847317 15.192968
v 24.398064 9.599839 15.192968
v 24.437261 9.352361 15.192968
v 24.551014 9.129108 15.192968
v 24.728189 8.951933 15.192968
v 24.951442 8.838179 15.192968
v 25.198920 8.798983 15.192968
v 25.446398 8.838180 15.192968
v 25.669652 8.951933 15.192968
v 25.846827 9.129108 15.192968
v 25.960580 9.352361 15.192968
v 25.999777 9.599839 15.192968
v 25.960580 9.847317 15.962745
v 25.846827 10.070571 15.962745
v 25.669652 10.247746 15.962745
v 25.446399 10.361499 15.962745
v 25.198920 10.400696 15.962745
v 24.951442 10.361499 15.962745
v 24.728189 10.247746 15.962745
v 24.551014 10.070571 15.962745
v 24.437261 9.847317 15.962745
v 24.398064 9.599839 15.962745
v 24.437261 9.352361 15.962745
v 24.551014 9.129108 15.962745
v 24.728189 8.951933 15.962745
v 24.951442 8.838179 15.962745
v 25.198920 8.798983 15.962745
v 25.446398 8.838180 15.962745
v 25.669652 8.951933 15.962745
v 25.846827 9.129108 15.962745
v 25.960580 9.352361 15.962745
v 25.999777 9.599839 15.962745
v 25.198920 9.599839 15.192968
v 25.198920 9.599839 15.962745
vt 0.648603 0.107966
vt 0.626409 0.064408
vt 0.591842 0.029841
vt 0.548284 0.007647
vt 0.500000 -0.000000
vt 0.451716 0.007647
vt 0.408159 0.029841
vt 0.373591 0.064409
vt 0.351397 0.107966
vt 0.343750 0.156250
vt 0.351397 0.204534
vt 0.373591 0.248091
vt 0.408159 0.282659
vt 0.451716 0.304853
vt 0.500000 0.312500
vt 0.548284 0.304853
vt 0.591841 0.282659
vt 0.626409 0.248091
vt 0.648603 0.204534
vt 0.656250 0.156250
vt 0.375000 0.312500
vt 0.387500 0.312500
vt 0.400000 0.312500
vt 0.412500 0.312500
vt 0.425000 0.312500
vt 0.437500 0.312500
vt 0.450000 0.312500
vt 0.462500 0.312500
vt 0.475000 0.312500
vt 0.487500 0.312500
vt 0.500000 0.312500
vt 0.512500 0.312500
vt 0.525000 0.312500
vt 0.537500 0.312500
vt 0.550000 0.312500
vt 0.562500 0.312500
vt 0.575000 0.312500
vt 0.587500 0.312500
vt 0.600000 0.312500
vt 0.612500 0.312500
vt 0.625000 0.312500
vt 0.375000 0.687500
vt 0.387500 0.687500
vt 0.400000 0.687500
vt 0.412500 0.687500
vt 0.425000 0.687500
vt 0.437500 0.687500
vt 0.450000 0.687500
vt 0.462500 0.687500
vt 0.475000 0.687500
vt 0.487500 0.687500
vt 0.500000 0.687500
vt 0.512500 0.687500
vt 0.525000 0.687500
vt 0.537500 0.687500
vt 0.550000 0.687500
vt 0.562500 0.687500
vt 0.575000 0.687500
vt 0.587500 0.687500
vt 0.600000 0.687500
vt 0.612500 0.687500
vt 0.625000 0.687500
vt 0.648603 0.795466
vt 0.626409 0.751908
vt 0.591842 0.717341
vt 0.548284 0.695147
vt 0.500000 0.687500
vt 0.451716 0.695147
vt 0.408159 0.717341
vt 0.373591 0.751909
vt 0.351397 0.795466
vt 0.343750 0.843750
vt 0.351397 0.892034
vt 0.373591 0.935591
vt 0.408159 0.970159
vt 0.451716 0.992353
vt 0.500000 1.000000
vt 0.548284 0.992353
vt 0.591841 0.970159
vt 0.626409 0.935591
vt 0.648603 0.892034
vt 0.656250 0.843750
vt 0.500000 0.156250
vt 0.500000 0.843750
vn 0.951057 0.309016 0.000000
vn 0.809017 0.587785 0.000000
vn 0.809017 0.587785 0.000000
vn 0.951057 0.309016 0.000000
vn 0.587785 0.809017 0.000000
vn 0.587785 0.809017 0.000000
vn 0.309017 0.951057 0.000000
vn 0.309017 0.951057 0.000000
vn -0.000000 1.000000 0.000000
vn -0.000000 1.000000 0.000000
vn -0.309017 0.951056 0.000000
vn -0.309017 0.951056 0.000000
vn -0.587785 0.809017 0.000000
vn -0.587785 0.809017 0.000000
vn -0.809017 0.587785 0.000000
vn -0.809017 0.587785 0.000000
vn -0.951057 0.309017 0.000000
vn -0.951057 0.309017 0.000000
vn -1.000000 0.000000 0.000000
vn -1.000000 0.000000 0.000000
vn -0.951056 -0.309017 0.000000
vn -0.951056 -0.309017 0.000000
vn -0.809017 -0.587785 0.000000
vn -0.809017 -0.587785 0.000000
vn -0.587785 -0.809017 0.000000
vn -0.587785 -0.809017 0.000000
vn -0.309017 -0.951057 0.000000
vn -0.309017 -0.951057 0.000000
vn 0.000000 -1.000000 0.000000
vn 0.000000 -1.000000 0.000000
vn 0.309017 -0.951056 0.000000
vn 0.309017 -0.951056 0.000000
vn 0.587785 -0.809017 0.000000
vn 0.587785 -0.809017 0.000000
vn 0.809017 -0.587785 0.000000
vn 0.809017 -0.587785 0.000000
vn 0.951056 -0.309017 0.000000
vn 0.951056 -0.309017 0.000000
vn 1.000000 -0.000001 0.000000
vn 1.000000 -0.000001 0.000000
vn 0.000000 -0.000000 -1.000000
vn 0.000000 -0.000000 -1.000000
vn 0.000000 -0.000000 -1.000000
vn 0.000000 -0.000000 -1.000000
vn 0.000000 -0.000000 -1.000000
vn 0.000000 -0.000000 -1.000000
vn 0.000000 -0.000000 -1.000000
vn 0.000000 -0.000000 -1.000000
vn 0.000000 -0.000000 -1.000000
vn 0.000000 -0.000000 -1.000000
vn 0.000000 -0.000000 -1.000000
vn 0.000000 -0.000000 -1.000000
vn 0.000000 -0.000000 -1.000000
vn 0.000000 -0.000000 -1.000000
vn 0.000000 -0.000000 -1.000000
vn 0.000000 -0.000000 -1.000000
vn 0.000000 -0.000000 -1.000000
vn 0.000000 -0.000000 -1.000000
vn 0.000000 -0.000000 -1.000000
vn 0.000000 -0.000000 -1.000000
vn 0.000000 -0.000000 -1.000000
vn 0.000000 0.000000 1.000000
vn 0.000000 0.000000 1.000000
vn 0.000000 0.000000 1.000000
vn 0.000000 0.000000 1.000000
vn 0.000000 0.000000 1.000000
vn 0.000000 0.000000 1.000000
vn 0.000000 0.000000 1.000000
vn 0.000000 0.000000 1.000000
vn 0.000000 0.000000 1.000000
vn 0.000000 0.000000 1.000000
vn 0.000000 0.000000 1.000000
vn 0.000000 0.000000 1.000000
vn 0.000000 0.000000 1.000000
vn 0.000000 0.000000 1.000000
vn 0.000000 0.000000 1.000000
vn 0.000000 0.000000 1.000000
vn 0.000000 0.000000 1.000000
vn 0.000000 0.000000 1.000000
vn 0.000000 0.000000 1.000000
vn 0.000000 0.000000 1.000000
vn 0.000000 0.000000 1.000000
s 1
g pasted__pasted__pasted__pasted__pasted__pasted__pasted__pCylinder1 pasted__pasted__pasted__pasted__pasted__pasted__group15 pasted__pasted__pasted__pasted__pasted__group16 pasted__pasted__pasted__pasted__group17 pasted__pasted__pasted__group27 pasted__pasted__group28 pasted__group29 group30
usemtl phong1SG
f 151/315/319 152/316/320 172/337/321 171/336/322
f 152/316/320 153/317/323 173/338/324 172/337/321
f 153/317/323 154/318/325 174/339/326 173/338/324
f 154/318/325 155/319/327 175/340/328 174/339/326
f 155/319/327 156/320/329 176/341/330 175/340/328
f 156/320/329 157/321/331 177/342/332 176/341/330
f 157/321/331 158/322/333 178/343/334 177/342/332
f 158/322/333 159/323/335 179/344/336 178/343/334
f 159/323/335 160/324/337 180/345/338 179/344/336
f 160/324/337 161/325/339 181/346/340 180/345/338
f 161/325/339 162/326/341 182/347/342 181/346/340
f 162/326/341 163/327/343 183/348/344 182/347/342
f 163/327/343 164/328/345 184/349/346 183/348/344
f 164/328/345 165/329/347 185/350/348 184/349/346
f 165/329/347 166/330/349 186/351/350 185/350/348
f 166/330/349 167/331/351 187/352/352 186/351/350
f 167/331/351 168/332/353 188/353/354 187/352/352
f 168/332/353 169/333/355 189/354/356 188/353/354
f 169/333/355 170/334/357 190/355/358 189/354/356
f 170/334/357 151/335/319 171/356/322 190/355/358
s 2
f 152/296/359 151/295/360 191/377/361
f 153/297/362 152/296/359 191/377/361
f 154/298/363 153/297/362 191/377/361
f 155/299/364 154/298/363 191/377/361
f 156/300/365 155/299/364 191/377/361
f 157/301/366 156/300/365 191/377/361
f 158/302/367 157/301/366 191/377/361
f 159/303/368 158/302/367 191/377/361
f 160/304/369 159/303/368 191/377/361
f 161/305/370 160/304/369 191/377/361
f 162/306/371 161/305/370 191/377/361
f 163/307/372 162/306/371 191/377/361
f 164/308/373 163/307/372 191/377/361
f 165/309/374 164/308/373 191/377/361
f 166/310/375 165/309/374 191/377/361
f 167/311/376 166/310/375 191/377/361
f 168/312/377 167/311/376 191/377/361
f 169/313/378 168/312/377 191/377/361
f 170/314/379 169/313/378 191/377/361
f 151/295/360 170/314/379 191/377/361
s 3
f 171/375/380 172/374/381 192/378/382
f 172/374/381 173/373/383 192/378/382
f 173/373/383 174/372/384 192/378/382
f 174/372/384 175/371/385 192/378/382
f 175/371/385 176/370/386 192/378/382
f 176/370/386 177/369/387 192/378/382
f 177/369/387 178/368/388 192/378/382
f 178/368/388 179/367/389 192/378/382
f 179/367/389 180/366/390 192/378/382
f 180/366/390 181/365/391 192/378/382
f 181/365/391 182/364/392 192/378/382
f 182/364/392 183/363/393 192/378/382
f 183/363/393 184/362/394 192/378/382
f 184/362/394 185/361/395 192/378/382
f 185/361/395 186/360/396 192/378/382
f 186/360/396 187/359/397 192/378/382
f 187/359/397 188/358/398 192/378/382
f 188/358/398 189/357/399 192/378/382
f 189/357/399 190/376/400 192/378/382
f 190/376/400 171/375/380 192/378/382
g default
v 21.152920 2.972616 15.910600
v 25.186322 2.972616 15.910600
v 21.152920 5.991046 15.910600
v 25.186322 5.991046 15.910600
v 21.152920 5.991046 15.263650
v 25.186322 5.991046 15.263650
v 21.152920 2.972616 15.263650
v 25.186322 2.972616 15.263650
vt 0.375000 0.000000
vt 0.625000 0.000000
vt 0.375000 0.250000
vt 0.625000 0.250000
vt 0.375000 0.500000
vt 0.625000 0.500000
vt 0.375000 0.750000
vt 0.625000 0.750000
vt 0.375000 1.000000
vt 0.625000 1.000000
vt 0.875000 0.000000
vt 0.875000 0.250000
vt 0.125000 0.000000
vt 0.125000 0.250000
vn 0.000000 0.000000 1.000000
vn 0.000000 0.000000 1.000000
vn 0.000000 0.000000 1.000000
vn 0.000000 0.000000 1.000000
vn 0.000000 1.000000 0.000000
vn 0.000000 1.000000 0.000000
vn 0.000000 1.000000 0.000000
vn 0.000000 1.000000 0.000000
vn 0.000000 0.000000 -1.000000
vn 0.000000 0.000000 -1.000000
vn 0.000000 0.000000 -1.000000
vn 0.000000 0.000000 -1.000000
vn 0.000000 -1.000000 0.000000
vn 0.000000 -1.000000 0.000000
vn 0.000000 -1.000000 0.000000
vn 0.000000 -1.000000 0.000000
vn 1.000000 0.000000 0.000000
vn 1.000000 0.000000 0.000000
vn 1.000000 0.000000 0.000000
vn 1.000000 0.000000 0.000000
vn -1.000000 0.000000 0.000000
vn -1.000000 0.000000 0.000000
vn -1.000000 0.000000 0.000000
vn -1.000000 0.000000 0.000000
s off
g pasted__pasted__pasted__pasted__pasted__pCube6 pasted__pasted__pasted__pasted__group20 pasted__pasted__pasted__group23 pasted__pasted__group24 pasted__group25 group26
usemtl phong1SG
f 193/379/401 194/380/402 196/382/403 195/381/404
f 195/381/405 196/382/406 198/384/407 197/383/408
f 197/383/409 198/384/410 200/386/411 199/385/412
f 199/385/413 200/386/414 194/388/415 193/387/416
f 194/380/417 200/389/418 198/390/419 196/382/420
f 199/391/421 193/379/422 195/381/423 197/392/424
g default
v 22.059872 9.847317 15.192968
v 21.946118 10.070571 15.192968
v 21.768943 10.247746 15.192968
v 21.545690 10.361499 15.192968
v 21.298212 10.400696 15.192968
v 21.050733 10.361499 15.192968
v 20.827480 10.247746 15.192968
v 20.650305 10.070571 15.192968
v 20.536552 9.847317 15.192968
v 20.497355 9.599839 15.192968
v 20.536552 9.352361 15.192968
v 20.650305 9.129108 15.192968
v 20.827480 8.951933 15.192968
v 21.050733 8.838179 15.192968
v 21.298212 8.798983 15.192968
v 21.545690 8.838180 15.192968
v 21.768943 8.951933 15.192968
v 21.946118 9.129108 15.192968
v 22.059871 9.352361 15.192968
v 22.099068 9.599839 15.192968
v 22.059872 9.847317 15.962745
v 21.946118 10.070571 15.962745
v 21.768943 10.247746 15.962745
v 21.545690 10.361499 15.962745
v 21.298212 10.400696 15.962745
v 21.050733 10.361499 15.962745
v 20.827480 10.247746 15.962745
v 20.650305 10.070571 15.962745
v 20.536552 9.847317 15.962745
v 20.497355 9.599839 15.962745
v 20.536552 9.352361 15.962745
v 20.650305 9.129108 15.962745
v 20.827480 8.951933 15.962745
v 21.050733 8.838179 15.962745
v 21.298212 8.798983 15.962745
v 21.545690 8.838180 15.962745
v 21.768943 8.951933 15.962745
v 21.946118 9.129108 15.962745
v 22.059871 9.352361 15.962745
v 22.099068 9.599839 15.962745
v 21.298212 9.599839 15.192968
v 21.298212 9.599839 15.962745
vt 0.648603 0.107966
vt 0.626409 0.064408
vt 0.591842 0.029841
vt 0.548284 0.007647
vt 0.500000 -0.000000
vt 0.451716 0.007647
vt 0.408159 0.029841
vt 0.373591 0.064409
vt 0.351397 0.107966
vt 0.343750 0.156250
vt 0.351397 0.204534
vt 0.373591 0.248091
vt 0.408159 0.282659
vt 0.451716 0.304853
vt 0.500000 0.312500
vt 0.548284 0.304853
vt 0.591841 0.282659
vt 0.626409 0.248091
vt 0.648603 0.204534
vt 0.656250 0.156250
vt 0.375000 0.312500
vt 0.387500 0.312500
vt 0.400000 0.312500
vt 0.412500 0.312500
vt 0.425000 0.312500
vt 0.437500 0.312500
vt 0.450000 0.312500
vt 0.462500 0.312500
vt 0.475000 0.312500
vt 0.487500 0.312500
vt 0.500000 0.312500
vt 0.512500 0.312500
vt 0.525000 0.312500
vt 0.537500 0.312500
vt 0.550000 0.312500
vt 0.562500 0.312500
vt 0.575000 0.312500
vt 0.587500 0.312500
vt 0.600000 0.312500
vt 0.612500 0.312500
vt 0.625000 0.312500
vt 0.375000 0.687500
vt 0.387500 0.687500
vt 0.400000 0.687500
vt 0.412500 0.687500
vt 0.425000 0.687500
vt 0.437500 0.687500
vt 0.450000 0.687500
vt 0.462500 0.687500
vt 0.475000 0.687500
vt 0.487500 0.687500
vt 0.500000 0.687500
vt 0.512500 0.687500
vt 0.525000 0.687500
vt 0.537500 0.687500
vt 0.550000 0.687500
vt 0.562500 0.687500
vt 0.575000 0.687500
vt 0.587500 0.687500
vt 0.600000 0.687500
vt 0.612500 0.687500
vt 0.625000 0.687500
vt 0.648603 0.795466
vt 0.626409 0.751908
vt 0.591842 0.717341
vt 0.548284 0.695147
vt 0.500000 0.687500
vt 0.451716 0.695147
vt 0.408159 0.717341
vt 0.373591 0.751909
vt 0.351397 0.795466
vt 0.343750 0.843750
vt 0.351397 0.892034
vt 0.373591 0.935591
vt 0.408159 0.970159
vt 0.451716 0.992353
vt 0.500000 1.000000
vt 0.548284 0.992353
vt 0.591841 0.970159
vt 0.626409 0.935591
vt 0.648603 0.892034
vt 0.656250 0.843750
vt 0.500000 0.156250
vt 0.500000 0.843750
vn 0.951057 0.309016 0.000000
vn 0.809017 0.587785 0.000000
vn 0.809017 0.587785 0.000000
vn 0.951057 0.309016 0.000000
vn 0.587785 0.809017 0.000000
vn 0.587785 0.809017 0.000000
vn 0.309017 0.951057 0.000000
vn 0.309017 0.951057 0.000000
vn -0.000000 1.000000 0.000000
vn -0.000000 1.000000 0.000000
vn -0.309017 0.951056 0.000000
vn -0.309017 0.951056 0.000000
vn -0.587785 0.809017 0.000000
vn -0.587785 0.809017 0.000000
vn -0.809017 0.587785 0.000000
vn -0.809017 0.587785 0.000000
vn -0.951057 0.309017 0.000000
vn -0.951057 0.309017 0.000000
vn -1.000000 0.000000 0.000000
vn -1.000000 0.000000 0.000000
vn -0.951056 -0.309017 0.000000
vn -0.951056 -0.309017 0.000000
vn -0.809017 -0.587785 0.000000
vn -0.809017 -0.587785 0.000000
vn -0.587785 -0.809017 0.000000
vn -0.587785 -0.809017 0.000000
vn -0.309017 -0.951057 0.000000
vn -0.309017 -0.951057 0.000000
vn 0.000000 -1.000000 0.000000
vn 0.000000 -1.000000 0.000000
vn 0.309017 -0.951056 0.000000
vn 0.309017 -0.951056 0.000000
vn 0.587785 -0.809017 0.000000
vn 0.587785 -0.809017 0.000000
vn 0.809017 -0.587785 0.000000
vn 0.809017 -0.587785 0.000000
vn 0.951056 -0.309017 0.000000
vn 0.951056 -0.309017 0.000000
vn 1.000000 -0.000001 0.000000
vn 1.000000 -0.000001 0.000000
vn 0.000000 -0.000000 -1.000000
vn 0.000000 -0.000000 -1.000000
vn 0.000000 -0.000000 -1.000000
vn 0.000000 -0.000000 -1.000000
vn 0.000000 -0.000000 -1.000000
vn 0.000000 -0.000000 -1.000000
vn 0.000000 -0.000000 -1.000000
vn 0.000000 -0.000000 -1.000000
vn 0.000000 -0.000000 -1.000000
vn 0.000000 -0.000000 -1.000000
vn 0.000000 -0.000000 -1.000000
vn 0.000000 -0.000000 -1.000000
vn 0.000000 -0.000000 -1.000000
vn 0.000000 -0.000000 -1.000000
vn 0.000000 -0.000000 -1.000000
vn 0.000000 -0.000000 -1.000000
vn 0.000000 -0.000000 -1.000000
vn 0.000000 -0.000000 -1.000000
vn 0.000000 -0.000000 -1.000000
vn 0.000000 -0.000000 -1.000000
vn 0.000000 -0.000000 -1.000000
vn 0.000000 0.000000 1.000000
vn 0.000000 0.000000 1.000000
vn 0.000000 0.000000 1.000000
vn 0.000000 0.000000 1.000000
vn 0.000000 0.000000 1.000000
vn 0.000000 0.000000 1.000000
vn 0.000000 0.000000 1.000000
vn 0.000000 0.000000 1.000000
vn 0.000000 0.000000 1.000000
vn 0.000000 0.000000 1.000000
vn 0.000000 0.000000 1.000000
vn 0.000000 0.000000 1.000000
vn 0.000000 0.000000 1.000000
vn 0.000000 0.000000 1.000000
vn 0.000000 0.000000 1.000000
vn 0.000000 0.000000 1.000000
vn 0.000000 0.000000 1.000000
vn 0.000000 0.000000 1.000000
vn 0.000000 0.000000 1.000000
vn 0.000000 0.000000 1.000000
vn 0.000000 0.000000 1.000000
s 1
g pasted__pasted__pasted__pasted__pasted__pasted__pCylinder1 pasted__pasted__pasted__pasted__pasted__group15 pasted__pasted__pasted__pasted__group16 pasted__pasted__pasted__group17 pasted__pasted__group27 pasted__group28 group29
usemtl phong1SG
f 201/413/425 202/414/426 222/435/427 221/434/428
f 202/414/426 203/415/429 223/436/430 222/435/427
f 203/415/429 204/416/431 224/437/432 223/436/430
f 204/416/431 205/417/433 225/438/434 224/437/432
f 205/417/433 206/418/435 226/439/436 225/438/434
f 206/418/435 207/419/437 227/440/438 226/439/436
f 207/419/437 208/420/439 228/441/440 227/440/438
f 208/420/439 209/421/441 229/442/442 228/441/440
f 209/421/441 210/422/443 230/443/444 229/442/442
f 210/422/443 211/423/445 231/444/446 230/443/444
f 211/423/445 212/424/447 232/445/448 231/444/446
f 212/424/447 213/425/449 233/446/450 232/445/448
f 213/425/449 214/426/451 234/447/452 233/446/450
f 214/426/451 215/427/453 235/448/454 234/447/452
f 215/427/453 216/428/455 236/449/456 235/448/454
f 216/428/455 217/429/457 237/450/458 236/449/456
f 217/429/457 218/430/459 238/451/460 237/450/458
f 218/430/459 219/431/461 239/452/462 238/451/460
f 219/431/461 220/432/463 240/453/464 239/452/462
f 220/432/463 201/433/425 221/454/428 240/453/464
s 2
f 202/394/465 201/393/466 241/475/467
f 203/395/468 202/394/465 241/475/467
f 204/396/469 203/395/468 241/475/467
f 205/397/470 204/396/469 241/475/467
f 206/398/471 205/397/470 241/475/467
f 207/399/472 206/398/471 241/475/467
f 208/400/473 207/399/472 241/475/467
f 209/401/474 208/400/473 241/475/467
f 210/402/475 209/401/474 241/475/467
f 211/403/476 210/402/475 241/475/467
f 212/404/477 211/403/476 241/475/467
f 213/405/478 212/404/477 241/475/467
f 214/406/479 213/405/478 241/475/467
f 215/407/480 214/406/479 241/475/467
f 216/408/481 215/407/480 241/475/467
f 217/409/482 216/408/481 241/475/467
f 218/410/483 217/409/482 241/475/467
f 219/411/484 218/410/483 241/475/467
f 220/412/485 219/411/484 241/475/467
f 201/393/466 220/412/485 241/475/467
s 3
f 221/473/486 222/472/487 242/476/488
f 222/472/487 223/471/489 242/476/488
f 223/471/489 224/470/490 242/476/488
f 224/470/490 225/469/491 242/476/488
f 225/469/491 226/468/492 242/476/488
f 226/468/492 227/467/493 242/476/488
f 227/467/493 228/466/494 242/476/488
f 228/466/494 229/465/495 242/476/488
f 229/465/495 230/464/496 242/476/488
f 230/464/496 231/463/497 242/476/488
f 231/463/497 232/462/498 242/476/488
f 232/462/498 233/461/499 242/476/488
f 233/461/499 234/460/500 242/476/488
f 234/460/500 235/459/501 242/476/488
f 235/459/501 236/458/502 242/476/488
f 236/458/502 237/457/503 242/476/488
f 237/457/503 238/456/504 242/476/488
f 238/456/504 239/455/505 242/476/488
f 239/455/505 240/474/506 242/476/488
f 240/474/506 221/473/486 242/476/488
