# This file uses centimeters as units for non-parametric coordinates.

mtllib MesaMadera.mtl
g default
v 4.461991 4.012451 19.848450
v 9.482571 4.012451 19.848450
v 4.461991 4.399685 19.848450
v 9.482571 4.399685 19.848450
v 4.461991 4.399685 17.198330
v 9.482571 4.399685 17.198330
v 4.461991 4.012451 17.198330
v 9.482571 4.012451 17.198330
v 3.943718 0.752772 19.848450
v 4.468144 0.752772 19.848450
v 3.943718 4.400139 19.848450
v 4.468144 4.400139 19.848450
v 3.943718 4.400139 17.198330
v 4.468144 4.400139 17.198330
v 3.943718 0.752772 17.198330
v 4.468144 0.752772 17.198330
v 7.154270 0.752772 19.848450
v 9.481262 0.752772 19.848450
v 7.154270 4.019061 19.848450
v 9.481262 4.019061 19.848450
v 7.154270 4.019061 17.198330
v 9.481262 4.019061 17.198330
v 7.154270 0.752772 17.198330
v 9.481262 0.752772 17.198330
vt 0.375000 0.000000
vt 0.500000 0.000001
vt 0.375000 0.250000
vt 1.000000 0.893707
vt 1.000000 0.999876
vt 0.093571 0.999876
vt 0.375000 0.750000
vt 0.625000 0.750000
vt 0.375000 1.000000
vt 0.625000 1.000000
vt 1.000000 0.999876
vt 0.093571 0.999876
vt 0.125000 0.000000
vt 0.125000 0.250000
vt 1.000000 0.893707
vt 0.093571 0.893707
vt 0.500000 0.000001
vt 0.500000 1.000001
vt 0.500000 1.000001
vt 0.000000 -0.000000
vt 0.094681 -0.000000
vt 0.094681 1.000000
vt 0.000000 1.000000
vt 0.094681 1.000000
vt 0.000000 1.000000
vt 0.000000 1.000000
vt 1.000000 1.000000
vt 1.000000 -0.000000
vt 0.000000 -0.000000
vt 0.000000 -0.000000
vt 0.094681 -0.000000
vt 0.001197 0.001197
vt 0.998803 0.001197
vt 0.998803 0.998803
vt 0.001197 0.998803
vt 0.375000 0.250000
vt 0.625000 0.250000
vt 0.625000 0.500000
vt 0.375000 0.500000
vt 0.579642 0.895520
vt 0.999764 0.895520
vt 0.999764 -0.000000
vt 0.579642 -0.000000
vt 0.999764 -0.000000
vt 0.579642 -0.000000
vt 0.999764 0.895520
vt 0.579642 0.895520
vn 0.000000 0.000000 1.000000
vn 0.000000 0.000000 1.000000
vn 0.000000 0.000000 1.000000
vn 0.000000 0.000000 1.000000
vn 0.000000 1.000000 0.000000
vn 0.000000 1.000000 0.000000
vn 0.000000 1.000000 0.000000
vn 0.000000 1.000000 0.000000
vn 0.000000 0.000000 -1.000000
vn 0.000000 0.000000 -1.000000
vn 0.000000 0.000000 -1.000000
vn 0.000000 0.000000 -1.000000
vn 0.000000 -1.000000 0.000000
vn 0.000000 -1.000000 0.000000
vn 0.000000 -1.000000 0.000000
vn 0.000000 -1.000000 0.000000
vn 1.000000 0.000000 0.000000
vn 1.000000 0.000000 0.000000
vn 1.000000 0.000000 0.000000
vn 1.000000 0.000000 0.000000
vn -1.000000 0.000000 0.000000
vn -1.000000 0.000000 0.000000
vn -1.000000 0.000000 0.000000
vn -1.000000 0.000000 0.000000
vn 0.000000 0.000000 1.000000
vn 0.000000 0.000000 1.000000
vn 0.000000 0.000000 1.000000
vn 0.000000 0.000000 1.000000
vn 0.000000 1.000000 0.000000
vn 0.000000 1.000000 0.000000
vn 0.000000 1.000000 0.000000
vn 0.000000 1.000000 0.000000
vn 0.000000 0.000000 -1.000000
vn 0.000000 0.000000 -1.000000
vn 0.000000 0.000000 -1.000000
vn 0.000000 0.000000 -1.000000
vn 0.000000 -1.000000 0.000000
vn 0.000000 -1.000000 0.000000
vn 0.000000 -1.000000 0.000000
vn 0.000000 -1.000000 0.000000
vn 1.000000 0.000000 0.000000
vn 1.000000 0.000000 0.000000
vn 1.000000 0.000000 0.000000
vn 1.000000 0.000000 0.000000
vn -1.000000 0.000000 0.000000
vn -1.000000 0.000000 0.000000
vn -1.000000 0.000000 0.000000
vn -1.000000 0.000000 0.000000
vn 0.000000 0.000000 1.000000
vn 0.000000 0.000000 1.000000
vn 0.000000 0.000000 1.000000
vn 0.000000 0.000000 1.000000
vn 0.000000 1.000000 0.000000
vn 0.000000 1.000000 0.000000
vn 0.000000 1.000000 0.000000
vn 0.000000 1.000000 0.000000
vn 0.000000 0.000000 -1.000000
vn 0.000000 0.000000 -1.000000
vn 0.000000 0.000000 -1.000000
vn 0.000000 0.000000 -1.000000
vn 0.000000 -1.000000 0.000000
vn 0.000000 -1.000000 0.000000
vn 0.000000 -1.000000 0.000000
vn 0.000000 -1.000000 0.000000
vn 1.000000 0.000000 0.000000
vn 1.000000 0.000000 0.000000
vn 1.000000 0.000000 0.000000
vn 1.000000 0.000000 0.000000
vn -1.000000 0.000000 0.000000
vn -1.000000 0.000000 0.000000
vn -1.000000 0.000000 0.000000
vn -1.000000 0.000000 0.000000
s 1
g oak_lab:oak_lab8:oak_lab:oak_lab8:pCube41
usemtl oak_lab:lambert11SG
f 1/2/1 2/17/2 3/19/3
f 3/19/3 2/17/2 4/18/4
s 2
f 3/6/5 4/5/6 5/12/7
f 5/12/7 4/5/6 6/11/8
s 3
f 5/12/9 6/11/10 7/16/11
f 7/16/11 6/11/10 8/15/12
s 4
f 7/7/13 8/8/14 1/9/15
f 1/9/15 8/8/14 2/10/16
s 5
f 2/4/17 8/15/18 4/5/19
f 4/5/19 8/15/18 6/11/20
s 6
usemtl initialShadingGroup
f 7/13/21 1/1/22 5/14/23
f 5/14/23 1/1/22 3/3/24
s 7
usemtl oak_lab:lambert11SG
f 9/20/25 10/21/26 11/23/27
f 11/23/27 10/21/26 12/22/28
s 8
f 11/23/29 12/22/30 13/25/31
f 13/25/31 12/22/30 14/24/32
s 9
usemtl oak_lab:oak_lab9:lambert1SG
f 13/26/33 14/27/34 15/29/35
f 15/29/35 14/27/34 16/28/36
s 10
usemtl oak_lab:lambert11SG
f 15/30/37 16/31/38 9/20/39
f 9/20/39 16/31/38 10/21/40
s 11
f 10/21/41 16/31/42 12/22/43
f 12/22/43 16/31/42 14/24/44
s 12
f 15/30/45 9/20/46 13/25/47
f 13/25/47 9/20/46 11/23/48
s 13
usemtl oak_lab:oak_lab10:lambert2SG
f 17/32/49 18/33/50 19/35/51
f 19/35/51 18/33/50 20/34/52
s 14
usemtl initialShadingGroup
f 19/36/53 20/37/54 21/39/55
f 21/39/55 20/37/54 22/38/56
s 15
usemtl oak_lab:lambert11SG
f 21/40/57 22/41/58 23/43/59
f 23/43/59 22/41/58 24/42/60
s 16
f 23/43/61 24/42/62 17/45/63
f 17/45/63 24/42/62 18/44/64
s 17
f 18/44/65 24/42/66 20/46/67
f 20/46/67 24/42/66 22/41/68
s 18
f 23/43/69 17/45/70 21/40/71
f 21/40/71 17/45/70 19/47/72
g default
v 4.461991 4.012451 19.848450
v 9.482571 4.012451 19.848450
v 4.461991 4.399685 19.848450
v 9.482571 4.399685 19.848450
v 4.461991 4.399685 17.198330
v 9.482571 4.399685 17.198330
v 4.461991 4.012451 17.198330
v 9.482571 4.012451 17.198330
v 3.943718 0.752772 19.848450
v 4.468144 0.752772 19.848450
v 3.943718 4.400139 19.848450
v 4.468144 4.400139 19.848450
v 3.943718 4.400139 17.198330
v 4.468144 4.400139 17.198330
v 3.943718 0.752772 17.198330
v 4.468144 0.752772 17.198330
v 7.154270 0.752772 19.848450
v 9.481262 0.752772 19.848450
v 7.154270 4.019061 19.848450
v 9.481262 4.019061 19.848450
v 7.154270 4.019061 17.198330
v 9.481262 4.019061 17.198330
v 7.154270 0.752772 17.198330
v 9.481262 0.752772 17.198330
vt 0.375000 0.000000
vt 0.500000 0.000001
vt 0.375000 0.250000
vt 1.000000 0.893707
vt 1.000000 0.999876
vt 0.093571 0.999876
vt 0.375000 0.750000
vt 0.625000 0.750000
vt 0.375000 1.000000
vt 0.625000 1.000000
vt 1.000000 0.999876
vt 0.093571 0.999876
vt 0.125000 0.000000
vt 0.125000 0.250000
vt 1.000000 0.893707
vt 0.093571 0.893707
vt 0.500000 0.000001
vt 0.500000 1.000001
vt 0.500000 1.000001
vt 0.000000 -0.000000
vt 0.094681 -0.000000
vt 0.094681 1.000000
vt 0.000000 1.000000
vt 0.094681 1.000000
vt 0.000000 1.000000
vt 0.000000 1.000000
vt 1.000000 1.000000
vt 1.000000 -0.000000
vt 0.000000 -0.000000
vt 0.000000 -0.000000
vt 0.094681 -0.000000
vt 0.001197 0.001197
vt 0.998803 0.001197
vt 0.998803 0.998803
vt 0.001197 0.998803
vt 0.375000 0.250000
vt 0.625000 0.250000
vt 0.625000 0.500000
vt 0.375000 0.500000
vt 0.579642 0.895520
vt 0.999764 0.895520
vt 0.999764 -0.000000
vt 0.579642 -0.000000
vt 0.999764 -0.000000
vt 0.579642 -0.000000
vt 0.999764 0.895520
vt 0.579642 0.895520
vn 0.000000 0.000000 1.000000
vn 0.000000 0.000000 1.000000
vn 0.000000 0.000000 1.000000
vn 0.000000 0.000000 1.000000
vn 0.000000 1.000000 0.000000
vn 0.000000 1.000000 0.000000
vn 0.000000 1.000000 0.000000
vn 0.000000 1.000000 0.000000
vn 0.000000 0.000000 -1.000000
vn 0.000000 0.000000 -1.000000
vn 0.000000 0.000000 -1.000000
vn 0.000000 0.000000 -1.000000
vn 0.000000 -1.000000 0.000000
vn 0.000000 -1.000000 0.000000
vn 0.000000 -1.000000 0.000000
vn 0.000000 -1.000000 0.000000
vn 1.000000 0.000000 0.000000
vn 1.000000 0.000000 0.000000
vn 1.000000 0.000000 0.000000
vn 1.000000 0.000000 0.000000
vn -1.000000 0.000000 0.000000
vn -1.000000 0.000000 0.000000
vn -1.000000 0.000000 0.000000
vn -1.000000 0.000000 0.000000
vn 0.000000 0.000000 1.000000
vn 0.000000 0.000000 1.000000
vn 0.000000 0.000000 1.000000
vn 0.000000 0.000000 1.000000
vn 0.000000 1.000000 0.000000
vn 0.000000 1.000000 0.000000
vn 0.000000 1.000000 0.000000
vn 0.000000 1.000000 0.000000
vn 0.000000 0.000000 -1.000000
vn 0.000000 0.000000 -1.000000
vn 0.000000 0.000000 -1.000000
vn 0.000000 0.000000 -1.000000
vn 0.000000 -1.000000 0.000000
vn 0.000000 -1.000000 0.000000
vn 0.000000 -1.000000 0.000000
vn 0.000000 -1.000000 0.000000
vn 1.000000 0.000000 0.000000
vn 1.000000 0.000000 0.000000
vn 1.000000 0.000000 0.000000
vn 1.000000 0.000000 0.000000
vn -1.000000 0.000000 0.000000
vn -1.000000 0.000000 0.000000
vn -1.000000 0.000000 0.000000
vn -1.000000 0.000000 0.000000
vn 0.000000 0.000000 1.000000
vn 0.000000 0.000000 1.000000
vn 0.000000 0.000000 1.000000
vn 0.000000 0.000000 1.000000
vn 0.000000 1.000000 0.000000
vn 0.000000 1.000000 0.000000
vn 0.000000 1.000000 0.000000
vn 0.000000 1.000000 0.000000
vn 0.000000 0.000000 -1.000000
vn 0.000000 0.000000 -1.000000
vn 0.000000 0.000000 -1.000000
vn 0.000000 0.000000 -1.000000
vn 0.000000 -1.000000 0.000000
vn 0.000000 -1.000000 0.000000
vn 0.000000 -1.000000 0.000000
vn 0.000000 -1.000000 0.000000
vn 1.000000 0.000000 0.000000
vn 1.000000 0.000000 0.000000
vn 1.000000 0.000000 0.000000
vn 1.000000 0.000000 0.000000
vn -1.000000 0.000000 0.000000
vn -1.000000 0.000000 0.000000
vn -1.000000 0.000000 0.000000
vn -1.000000 0.000000 0.000000
s 1
g oak_lab:oak_lab8:oak_lab:oak_lab8:pCube41
f 25/49/73 26/64/74 27/66/75
f 27/66/75 26/64/74 28/65/76
s 2
f 27/53/77 28/52/78 29/59/79
f 29/59/79 28/52/78 30/58/80
s 3
f 29/59/81 30/58/82 31/63/83
f 31/63/83 30/58/82 32/62/84
s 4
f 31/54/85 32/55/86 25/56/87
f 25/56/87 32/55/86 26/57/88
s 5
f 26/51/89 32/62/90 28/52/91
f 28/52/91 32/62/90 30/58/92
s 6
f 31/60/93 25/48/94 29/61/95
f 29/61/95 25/48/94 27/50/96
s 7
f 33/67/97 34/68/98 35/70/99
f 35/70/99 34/68/98 36/69/100
s 8
f 35/70/101 36/69/102 37/72/103
f 37/72/103 36/69/102 38/71/104
s 9
f 37/73/105 38/74/106 39/76/107
f 39/76/107 38/74/106 40/75/108
s 10
f 39/77/109 40/78/110 33/67/111
f 33/67/111 40/78/110 34/68/112
s 11
f 34/68/113 40/78/114 36/69/115
f 36/69/115 40/78/114 38/71/116
s 12
f 39/77/117 33/67/118 37/72/119
f 37/72/119 33/67/118 35/70/120
s 13
f 41/79/121 42/80/122 43/82/123
f 43/82/123 42/80/122 44/81/124
s 14
f 43/83/125 44/84/126 45/86/127
f 45/86/127 44/84/126 46/85/128
s 15
f 45/87/129 46/88/130 47/90/131
f 47/90/131 46/88/130 48/89/132
s 16
f 47/90/133 48/89/134 41/92/135
f 41/92/135 48/89/134 42/91/136
s 17
f 42/91/137 48/89/138 44/93/139
f 44/93/139 48/89/138 46/88/140
s 18
f 47/90/141 41/92/142 45/87/143
f 45/87/143 41/92/142 43/94/144
