# This file uses centimeters as units for non-parametric coordinates.

mtllib LibreriaB2.mtl
g default
v 6.044928 -0.160660 6.913620
v 6.239775 -0.160660 6.913620
v 6.044928 2.617726 6.913620
v 6.239775 2.617723 6.913620
v 6.044928 2.617726 5.949434
v 6.239775 2.617723 5.949433
v 6.044928 -0.160660 5.949434
v 6.239775 -0.160660 5.949433
v 9.369769 2.624991 6.912259
v 9.369769 2.624987 5.947754
v 9.369769 -0.055482 5.947754
v 9.369769 -0.055478 6.912259
v 6.237151 -0.055482 5.947754
v 6.237151 -0.055478 6.912259
v 9.369769 0.575350 6.912259
v 6.237151 0.376447 5.947754
v 6.237151 0.575350 6.912259
v 9.369769 2.491236 6.912259
v 6.237151 2.491236 5.947754
v 9.369769 2.491236 5.947754
v 9.369769 1.509721 6.912259
v 6.237151 1.509721 6.912259
v 9.369769 1.357964 6.912259
v 6.237151 1.357964 6.912259
v 6.237151 0.530135 6.133093
v 9.369769 0.530135 6.133093
v 9.369769 1.357964 6.133093
v 6.237151 1.357964 6.133093
v 9.369769 1.509721 6.133093
v 6.237151 1.509721 6.133093
v 9.369769 2.491236 6.133093
v 6.237151 2.491236 6.133093
v 6.237151 1.437537 5.947754
v 9.369769 1.437537 5.947754
v 9.369769 0.376447 5.947754
v 6.237151 1.517114 6.912259
v 9.369769 1.517114 6.912259
v 6.237151 1.350573 6.912259
v 9.369769 1.350573 6.912259
v 9.369769 1.430146 5.947754
v 6.237151 1.430146 5.947754
v 6.237151 1.350573 6.133093
v 9.369769 1.350573 6.133093
v 6.237151 2.624987 5.947754
v 6.237151 2.624991 6.912259
v 6.237151 2.491236 6.912259
v 6.237151 2.491236 5.819153
v 6.342234 1.509721 6.804224
v 9.260273 1.509721 6.804224
v 6.342234 2.491236 6.804224
v 9.260273 2.491236 6.804224
v 6.342234 2.491236 6.266461
v 9.260273 2.491236 6.266461
v 6.342234 1.509721 6.266461
v 9.260273 1.509721 6.266461
v 9.106692 1.509721 6.804224
v 9.106692 2.491236 6.804224
v 8.953110 1.509721 6.804224
v 8.953110 2.491236 6.804224
v 8.799530 1.509721 6.804224
v 8.799530 2.491236 6.804224
v 8.645950 1.509721 6.804224
v 8.645950 2.491236 6.804224
v 8.492369 1.509721 6.804224
v 8.492369 2.491236 6.804224
v 8.338787 1.509721 6.804224
v 8.338787 2.491236 6.804224
v 8.185206 1.509721 6.804224
v 8.185206 2.491236 6.804224
v 8.031625 1.509721 6.804224
v 8.031625 2.491236 6.804224
v 7.878044 1.509721 6.804224
v 7.878044 2.491236 6.804224
v 7.724462 1.509721 6.804224
v 7.724462 2.491236 6.804224
v 7.570882 1.509721 6.804224
v 7.570882 2.491236 6.804224
v 7.417301 1.509721 6.804224
v 7.417301 2.491236 6.804224
v 7.263721 1.509721 6.804224
v 7.263721 2.491236 6.804224
v 7.110138 1.509721 6.804224
v 7.110138 2.491236 6.804224
v 6.956558 1.509721 6.804224
v 6.956558 2.491236 6.804224
v 6.802977 1.509721 6.804224
v 6.802977 2.491236 6.804224
v 6.649396 1.509721 6.804224
v 6.649396 2.491236 6.804224
v 6.495815 1.509721 6.804224
v 6.495815 2.491236 6.804224
v 9.365587 -0.160660 6.913620
v 9.560434 -0.160660 6.913620
v 9.365587 2.617726 6.913620
v 9.560434 2.617723 6.913620
v 9.365587 2.617726 5.949434
v 9.560434 2.617723 5.949433
v 9.365587 -0.160660 5.949434
v 9.560434 -0.160660 5.949433
v 6.342234 0.439506 6.817312
v 9.260273 0.439506 6.817312
v 6.342234 1.408324 6.817312
v 9.260273 1.408324 6.817312
v 6.342234 1.408324 6.004577
v 9.260273 1.408324 6.004577
v 6.342234 0.439506 6.004577
v 9.260273 0.439506 6.004577
v 8.994997 0.439506 6.817312
v 8.994997 1.408324 6.817312
v 8.729720 0.439506 6.817312
v 8.729720 1.408324 6.817312
v 8.464444 0.439506 6.817312
v 8.464444 1.408324 6.817312
v 8.199167 0.439506 6.817312
v 8.199167 1.408324 6.817312
v 7.933891 0.439506 6.817312
v 7.933891 1.408324 6.817312
v 7.668616 0.439506 6.817312
v 7.668616 1.408324 6.817312
v 7.403339 0.439506 6.817312
v 7.403339 1.408324 6.817312
v 7.138063 0.439506 6.817312
v 7.138063 1.408324 6.817312
v 6.872786 0.439506 6.817312
v 6.872786 1.408324 6.817312
v 6.607511 0.439506 6.817312
v 6.607511 1.408324 6.817312
vt 0.944601 -0.000000
vt 1.000000 -0.000000
vt 0.944601 -0.000000
vt 1.000000 -0.000000
vt 0.375000 0.250000
vt 0.625000 0.250000
vt 0.375000 0.500000
vt 0.625000 0.500000
vt 0.944601 0.957093
vt 1.000000 0.957093
vt 0.944601 -0.000000
vt 1.000000 -0.000000
vt 0.944601 0.999999
vt 1.000000 1.000000
vt -0.000000 -0.000000
vt 1.000000 -0.000000
vt -0.000000 0.957093
vt 1.000000 0.957093
vt 0.999999 -0.000000
vt -0.000000 -0.000000
vt 0.999999 0.957093
vt -0.000000 0.957093
vt 0.000000 1.000000
vt 0.000000 0.000000
vt 1.000000 1.000000
vt 1.000000 0.000000
vt 0.055117 0.119074
vt 0.055117 0.225425
vt 0.945790 0.119074
vt 0.945790 0.225425
vt 0.055117 0.108867
vt 0.055117 0.896683
vt 0.945790 0.108867
vt 0.945790 0.896683
vt 0.945790 0.108867
vt 0.055117 0.108867
vt 0.055117 0.108867
vt 0.945790 0.108867
vt 0.055117 0.108867
vt 0.945790 0.108867
vt 0.896683 0.953924
vt 0.896684 0.953924
vt 0.896683 0.999999
vt 0.896684 0.999999
vt 0.067711 0.597023
vt 0.063038 0.597023
vt 0.065374 0.589677
vt 0.108867 0.563537
vt 0.108867 0.618360
vt 0.108867 0.563537
vt 0.108867 0.618360
vt 0.745297 0.225427
vt 0.745297 0.225427
vt 0.745297 0.563537
vt 0.745297 0.563537
vt 0.945790 0.590948
vt 0.055117 0.590948
vt 0.945790 0.588402
vt 0.055117 0.588402
vt 0.945790 0.953924
vt 0.055117 0.953924
vt 0.745297 0.615814
vt 0.745297 0.615814
vt 0.745297 0.953924
vt 0.745297 0.953924
vt 0.108867 0.225427
vt 0.108867 0.225427
vt 0.052368 0.621388
vt 0.005025 0.621388
vt 0.052368 0.591786
vt 0.005025 0.591786
vt 0.108867 0.615814
vt 0.108867 0.615814
vt 0.108867 0.953924
vt 0.108867 0.953924
vt 0.108867 0.560991
vt 0.108867 0.560991
vt 0.745297 0.560991
vt 0.745297 0.560991
vt 0.891222 0.040419
vt 0.883530 0.040419
vt 0.891222 0.013012
vt 0.883530 0.013012
vt 0.732933 0.040419
vt 0.708383 0.040419
vt 0.732934 0.013012
vt 0.708383 0.013012
vt 0.915772 0.040419
vt 0.915772 0.013012
vt 0.740626 0.040419
vt 0.740626 0.013012
vt 0.780628 0.040419
vt 0.772936 0.040419
vt 0.780628 0.013012
vt 0.772936 0.013012
vt 0.810377 0.040419
vt 0.802685 0.040419
vt 0.810377 0.013012
vt 0.802685 0.013012
vt 0.849830 0.040419
vt 0.842138 0.040419
vt 0.849830 0.013012
vt 0.842138 0.013012
vt 0.780628 0.040419
vt 0.772936 0.040419
vt 0.780628 0.013012
vt 0.772936 0.013012
vt 0.810377 0.040419
vt 0.802685 0.040419
vt 0.810377 0.013012
vt 0.802685 0.013012
vt 0.780628 0.040419
vt 0.772936 0.040419
vt 0.780628 0.013012
vt 0.772936 0.013012
vt 0.849830 0.040419
vt 0.842138 0.040419
vt 0.849830 0.013012
vt 0.842138 0.013012
vt 0.780628 0.040419
vt 0.772936 0.040419
vt 0.780628 0.013012
vt 0.772936 0.013012
vt 0.810377 0.040419
vt 0.802685 0.040419
vt 0.810377 0.013012
vt 0.802685 0.013012
vt 0.810377 0.040419
vt 0.802685 0.040419
vt 0.810377 0.013012
vt 0.802685 0.013012
vt 0.780628 0.040419
vt 0.772936 0.040419
vt 0.780628 0.013012
vt 0.772936 0.013012
vt 0.780628 0.040419
vt 0.772936 0.040419
vt 0.780628 0.013012
vt 0.772936 0.013012
vt 0.849830 0.040419
vt 0.842138 0.040419
vt 0.849830 0.013012
vt 0.842138 0.013012
vt 0.849830 0.040419
vt 0.842138 0.040419
vt 0.849830 0.013012
vt 0.842138 0.013012
vt 0.810377 0.040419
vt 0.802685 0.040419
vt 0.810377 0.013012
vt 0.802685 0.013012
vt 0.849830 0.040419
vt 0.842138 0.040419
vt 0.849830 0.013012
vt 0.842138 0.013012
vt 0.810377 0.040419
vt 0.802685 0.040419
vt 0.810377 0.013012
vt 0.802685 0.013012
vt 0.944601 -0.000000
vt 1.000000 -0.000000
vt 0.944601 -0.000000
vt 1.000000 -0.000000
vt 0.375000 0.250000
vt 0.625000 0.250000
vt 0.375000 0.500000
vt 0.625000 0.500000
vt 0.944601 0.957093
vt 1.000000 0.957093
vt 0.944601 -0.000000
vt 1.000000 -0.000000
vt 0.944601 0.999999
vt 1.000000 1.000000
vt -0.000000 -0.000000
vt 1.000000 -0.000000
vt -0.000000 0.957093
vt 1.000000 0.957093
vt 0.999999 -0.000000
vt -0.000000 -0.000000
vt 0.999999 0.957093
vt -0.000000 0.957093
vt 0.598129 0.029200
vt 0.588590 0.029200
vt 0.598129 0.009777
vt 0.588590 0.009777
vt 0.486062 0.029200
vt 0.459422 0.029200
vt 0.486062 0.009777
vt 0.459422 0.009777
vt 0.624769 0.029200
vt 0.624769 0.009777
vt 0.495602 0.029200
vt 0.495602 0.009777
vt 0.523925 0.029200
vt 0.514386 0.029200
vt 0.523925 0.009777
vt 0.514386 0.009777
vt 0.558095 0.029200
vt 0.548556 0.029200
vt 0.558095 0.009777
vt 0.548556 0.009777
vt 0.523925 0.029200
vt 0.514386 0.029200
vt 0.523925 0.009777
vt 0.514386 0.009777
vt 0.558095 0.029200
vt 0.548556 0.029200
vt 0.558095 0.009777
vt 0.548556 0.009777
vt 0.558095 0.029200
vt 0.548556 0.029200
vt 0.558095 0.009777
vt 0.548556 0.009777
vt 0.523925 0.029200
vt 0.514386 0.029200
vt 0.523925 0.009777
vt 0.514386 0.009777
vt 0.523925 0.029200
vt 0.514386 0.029200
vt 0.523925 0.009777
vt 0.514386 0.009777
vt 0.558095 0.029200
vt 0.548556 0.029200
vt 0.558095 0.009777
vt 0.548556 0.009777
vt 0.523925 0.029200
vt 0.514386 0.029200
vt 0.523925 0.009777
vt 0.514386 0.009777
vn 0.000000 0.000000 1.000000
vn 0.000000 0.000000 1.000000
vn 0.000000 0.000000 1.000000
vn 0.000000 0.000000 1.000000
vn 0.000000 0.000000 1.000000
vn 0.000000 0.000000 1.000000
vn 0.000011 1.000000 0.000000
vn 0.000011 1.000000 0.000000
vn 0.000011 1.000000 0.000000
vn 0.000011 1.000000 0.000000
vn 0.000011 1.000000 0.000000
vn 0.000011 1.000000 0.000000
vn -0.000003 0.000000 -1.000000
vn -0.000003 0.000000 -1.000000
vn -0.000003 0.000000 -1.000000
vn -0.000003 0.000000 -1.000000
vn -0.000003 0.000000 -1.000000
vn -0.000003 0.000000 -1.000000
vn 0.000000 -1.000000 0.000000
vn 0.000000 -1.000000 0.000000
vn 0.000000 -1.000000 0.000000
vn 0.000000 -1.000000 0.000000
vn 0.000000 -1.000000 0.000000
vn 0.000000 -1.000000 0.000000
vn 1.000000 0.000000 0.000000
vn 1.000000 0.000000 0.000000
vn 1.000000 0.000000 0.000000
vn 1.000000 0.000000 0.000000
vn 1.000000 0.000000 0.000000
vn 1.000000 0.000000 0.000000
vn -1.000000 0.000000 0.000000
vn -1.000000 0.000000 0.000000
vn -1.000000 0.000000 0.000000
vn -1.000000 0.000000 0.000000
vn -1.000000 0.000000 0.000000
vn -1.000000 0.000000 0.000000
vn 0.000000 1.000000 -0.000005
vn 0.000000 1.000000 -0.000005
vn 0.000000 1.000000 -0.000005
vn 0.000000 1.000000 -0.000003
vn 0.000000 1.000000 -0.000005
vn 0.000000 1.000000 -0.000003
vn 0.000000 0.000000 -1.000000
vn 0.000000 0.000000 -1.000000
vn 0.000000 0.000000 -1.000000
vn 0.000000 0.000000 -1.000000
vn 0.000000 0.000000 -1.000000
vn 0.000000 0.000000 -1.000000
vn 0.000000 -1.000000 0.000003
vn 0.000000 -1.000000 0.000003
vn 0.000000 -1.000000 0.000003
vn 0.000000 -1.000000 0.000003
vn 0.000000 -1.000000 0.000003
vn 0.000000 -1.000000 0.000003
vn 0.000000 0.000000 1.000000
vn 0.000000 0.000000 1.000000
vn 0.000000 0.000000 1.000000
vn 0.000000 0.000000 1.000000
vn 0.000000 0.000000 1.000000
vn 0.000000 0.000000 1.000000
vn 0.000000 0.000000 1.000000
vn 0.000000 0.000000 1.000000
vn 0.000000 0.000000 1.000000
vn 0.000000 0.000000 1.000000
vn 0.000000 0.000000 1.000000
vn 0.000000 0.000000 1.000000
vn 0.000000 0.000000 -1.000000
vn 0.000000 0.000000 -1.000000
vn 0.000000 0.000000 -1.000000
vn 0.000000 0.000000 -1.000000
vn 0.000000 0.000000 -1.000000
vn 0.000000 0.000000 -1.000000
vn 1.000000 0.000000 0.000000
vn 1.000000 0.000000 0.000000
vn 1.000000 0.000000 0.000000
vn 0.000000 0.000000 1.000000
vn 0.000000 0.000000 1.000000
vn 0.000000 0.000000 1.000000
vn 0.000000 0.000000 1.000000
vn 0.000000 0.000000 1.000000
vn 0.000000 0.000000 1.000000
vn 0.000000 0.000000 1.000000
vn 0.000000 0.000000 1.000000
vn 0.000000 0.000000 1.000000
vn 0.000000 0.000000 1.000000
vn 0.000000 0.000000 1.000000
vn 0.000000 0.000000 1.000000
vn 0.000000 0.000000 -1.000000
vn 0.000000 0.000000 -1.000000
vn 0.000000 0.000000 -1.000000
vn 0.000000 0.000000 -1.000000
vn 0.000000 0.000000 -1.000000
vn 0.000000 0.000000 -1.000000
vn 0.000000 0.000000 -1.000000
vn 0.000000 0.000000 -1.000000
vn 0.000000 0.000000 -1.000000
vn 0.000000 0.000000 -1.000000
vn 0.000000 0.000000 -1.000000
vn 0.000000 0.000000 -1.000000
vn 0.000000 0.000000 1.000000
vn 0.000000 0.000000 1.000000
vn 0.000000 0.000000 1.000000
vn 0.000000 0.000000 1.000000
vn 0.000000 0.000000 1.000000
vn 0.000000 0.000000 1.000000
vn 0.000000 1.000000 0.000000
vn 0.000000 1.000000 0.000000
vn 0.000000 1.000000 0.000000
vn 0.000000 1.000000 0.000000
vn 0.000000 1.000000 0.000000
vn 0.000000 1.000000 0.000000
vn 0.000000 -1.000000 0.000000
vn 0.000000 -1.000000 0.000000
vn 0.000000 -1.000000 0.000000
vn 0.000000 -1.000000 0.000000
vn 0.000000 -1.000000 0.000000
vn 0.000000 -1.000000 0.000000
vn 0.000000 1.000000 0.000000
vn 0.000000 1.000000 0.000000
vn 0.000000 1.000000 0.000000
vn 0.000000 1.000000 0.000000
vn 0.000000 1.000000 0.000000
vn 0.000000 1.000000 0.000000
vn 0.000000 -1.000000 0.000000
vn 0.000000 -1.000000 0.000000
vn 0.000000 -1.000000 0.000000
vn 0.000000 -1.000000 0.000000
vn 0.000000 -1.000000 0.000000
vn 0.000000 -1.000000 0.000000
vn 0.000000 -1.000000 0.000000
vn 0.000000 -1.000000 0.000000
vn 0.000000 -1.000000 0.000000
vn 0.000000 -1.000000 0.000000
vn 0.000000 -1.000000 0.000000
vn 0.000000 -1.000000 0.000000
vn 0.000000 0.000000 1.000000
vn 0.000000 0.000000 1.000000
vn 0.000000 0.000000 1.000000
vn 0.000000 0.000000 1.000000
vn 0.000000 0.000000 1.000000
vn 0.000000 0.000000 1.000000
vn 1.000000 0.000000 0.000000
vn 1.000000 0.000000 0.000000
vn 1.000000 0.000000 0.000000
vn 1.000000 0.000000 0.000000
vn 1.000000 0.000000 0.000000
vn 1.000000 0.000000 0.000000
vn -1.000000 0.000000 0.000000
vn -1.000000 0.000000 0.000000
vn -1.000000 0.000000 0.000000
vn -1.000000 0.000000 0.000000
vn -1.000000 0.000000 0.000000
vn -1.000000 0.000000 0.000000
vn -0.000002 0.000000 1.000000
vn 0.000000 0.000000 1.000000
vn -0.000002 0.000000 1.000000
vn -0.000002 0.000000 1.000000
vn 0.000000 0.000000 1.000000
vn 0.000000 0.000000 1.000000
vn -0.000002 0.000000 1.000000
vn -0.000002 0.000000 1.000000
vn -0.000002 0.000000 1.000000
vn -0.000002 0.000000 1.000000
vn -0.000002 0.000000 1.000000
vn -0.000002 0.000000 1.000000
vn 0.000000 0.000000 1.000000
vn -0.000002 0.000000 1.000000
vn 0.000000 0.000000 1.000000
vn 0.000000 0.000000 1.000000
vn -0.000002 0.000000 1.000000
vn -0.000002 0.000000 1.000000
vn 0.000000 0.000000 1.000000
vn 0.000000 0.000000 1.000000
vn 0.000000 0.000000 1.000000
vn 0.000000 0.000000 1.000000
vn 0.000000 0.000000 1.000000
vn 0.000000 0.000000 1.000000
vn 0.000000 0.000000 1.000000
vn 0.000000 0.000000 1.000000
vn 0.000000 0.000000 1.000000
vn 0.000000 0.000000 1.000000
vn 0.000000 0.000000 1.000000
vn 0.000000 0.000000 1.000000
vn 0.000000 0.000000 1.000000
vn 0.000000 0.000000 1.000000
vn 0.000000 0.000000 1.000000
vn 0.000000 0.000000 1.000000
vn 0.000000 0.000000 1.000000
vn 0.000000 0.000000 1.000000
vn 0.000000 0.000000 1.000000
vn 0.000000 0.000000 1.000000
vn 0.000000 0.000000 1.000000
vn 0.000000 0.000000 1.000000
vn 0.000000 0.000000 1.000000
vn 0.000000 0.000000 1.000000
vn 0.000000 0.000000 1.000000
vn 0.000000 0.000000 1.000000
vn 0.000000 0.000000 1.000000
vn 0.000000 0.000000 1.000000
vn 0.000000 0.000000 1.000000
vn 0.000000 0.000000 1.000000
vn 0.000000 0.000000 1.000000
vn 0.000000 0.000000 1.000000
vn 0.000000 0.000000 1.000000
vn 0.000000 0.000000 1.000000
vn 0.000000 0.000000 1.000000
vn 0.000000 0.000000 1.000000
vn 0.000000 0.000000 1.000000
vn 0.000000 0.000000 1.000000
vn 0.000000 0.000000 1.000000
vn 0.000000 0.000000 1.000000
vn 0.000000 0.000000 1.000000
vn 0.000000 0.000000 1.000000
vn 0.000000 0.000000 1.000000
vn 0.000000 0.000000 1.000000
vn 0.000000 0.000000 1.000000
vn 0.000000 0.000000 1.000000
vn 0.000000 0.000000 1.000000
vn 0.000000 0.000000 1.000000
vn 0.000000 0.000000 1.000000
vn 0.000000 0.000000 1.000000
vn 0.000000 0.000000 1.000000
vn 0.000000 0.000000 1.000000
vn 0.000000 0.000000 1.000000
vn 0.000000 0.000000 1.000000
vn 0.000000 0.000000 1.000000
vn 0.000000 0.000000 1.000000
vn 0.000000 0.000000 1.000000
vn 0.000000 0.000000 1.000000
vn 0.000000 0.000000 1.000000
vn 0.000000 0.000000 1.000000
vn 0.000000 0.000000 1.000000
vn 0.000000 0.000000 1.000000
vn 0.000000 0.000000 1.000000
vn 0.000000 0.000000 1.000000
vn 0.000000 0.000000 1.000000
vn 0.000000 0.000000 1.000000
vn 0.000002 0.000000 1.000000
vn 0.000000 0.000000 1.000000
vn 0.000002 0.000000 1.000000
vn 0.000002 0.000000 1.000000
vn 0.000000 0.000000 1.000000
vn 0.000000 0.000000 1.000000
vn 0.000002 0.000000 1.000000
vn 0.000002 0.000000 1.000000
vn 0.000002 0.000000 1.000000
vn 0.000002 0.000000 1.000000
vn 0.000002 0.000000 1.000000
vn 0.000002 0.000000 1.000000
vn 0.000000 0.000000 1.000000
vn 0.000002 0.000000 1.000000
vn 0.000000 0.000000 1.000000
vn 0.000000 0.000000 1.000000
vn 0.000002 0.000000 1.000000
vn 0.000002 0.000000 1.000000
vn 0.000000 0.000000 1.000000
vn 0.000000 0.000000 1.000000
vn 0.000000 0.000000 1.000000
vn 0.000000 0.000000 1.000000
vn 0.000000 0.000000 1.000000
vn 0.000000 0.000000 1.000000
vn 0.000000 0.000000 1.000000
vn 0.000000 0.000000 1.000000
vn 0.000000 0.000000 1.000000
vn 0.000000 0.000000 1.000000
vn 0.000000 0.000000 1.000000
vn 0.000000 0.000000 1.000000
vn 0.000011 1.000000 0.000000
vn 0.000011 1.000000 0.000000
vn 0.000011 1.000000 0.000000
vn 0.000011 1.000000 0.000000
vn 0.000011 1.000000 0.000000
vn 0.000011 1.000000 0.000000
vn -0.000003 0.000000 -1.000000
vn -0.000003 0.000000 -1.000000
vn -0.000003 0.000000 -1.000000
vn -0.000003 0.000000 -1.000000
vn -0.000003 0.000000 -1.000000
vn -0.000003 0.000000 -1.000000
vn 0.000000 -1.000000 0.000000
vn 0.000000 -1.000000 0.000000
vn 0.000000 -1.000000 0.000000
vn 0.000000 -1.000000 0.000000
vn 0.000000 -1.000000 0.000000
vn 0.000000 -1.000000 0.000000
vn 1.000000 0.000000 0.000000
vn 1.000000 0.000000 0.000000
vn 1.000000 0.000000 0.000000
vn 1.000000 0.000000 0.000000
vn 1.000000 0.000000 0.000000
vn 1.000000 0.000000 0.000000
vn -1.000000 0.000000 0.000000
vn -1.000000 0.000000 0.000000
vn -1.000000 0.000000 0.000000
vn -1.000000 0.000000 0.000000
vn -1.000000 0.000000 0.000000
vn -1.000000 0.000000 0.000000
vn 0.000000 0.000000 1.000000
vn 0.000000 0.000000 1.000000
vn 0.000000 0.000000 1.000000
vn 0.000000 0.000000 1.000000
vn 0.000000 0.000000 1.000000
vn 0.000000 0.000000 1.000000
vn 1.000000 0.000000 0.000000
vn 1.000000 0.000000 0.000000
vn 1.000000 0.000000 0.000000
vn 1.000000 0.000000 0.000000
vn 1.000000 0.000000 0.000000
vn 1.000000 0.000000 0.000000
vn -1.000000 0.000000 0.000000
vn -1.000000 0.000000 0.000000
vn -1.000000 0.000000 0.000000
vn -1.000000 0.000000 0.000000
vn -1.000000 0.000000 0.000000
vn -1.000000 0.000000 0.000000
vn 0.000000 0.000000 1.000000
vn 0.000000 0.000000 1.000000
vn 0.000000 0.000000 1.000000
vn 0.000000 0.000000 1.000000
vn 0.000000 0.000000 1.000000
vn 0.000000 0.000000 1.000000
vn 0.000000 0.000000 1.000000
vn 0.000000 0.000000 1.000000
vn 0.000000 0.000000 1.000000
vn 0.000000 0.000000 1.000000
vn 0.000000 0.000000 1.000000
vn 0.000000 0.000000 1.000000
vn 0.000000 0.000000 1.000000
vn 0.000000 0.000000 1.000000
vn 0.000000 0.000000 1.000000
vn 0.000000 0.000000 1.000000
vn 0.000000 0.000000 1.000000
vn 0.000000 0.000000 1.000000
vn 0.000000 0.000000 1.000000
vn 0.000000 0.000000 1.000000
vn 0.000000 0.000000 1.000000
vn 0.000000 0.000000 1.000000
vn 0.000000 0.000000 1.000000
vn 0.000000 0.000000 1.000000
vn 0.000000 0.000000 1.000000
vn 0.000000 0.000000 1.000000
vn 0.000000 0.000000 1.000000
vn 0.000000 0.000000 1.000000
vn 0.000000 0.000000 1.000000
vn 0.000000 0.000000 1.000000
vn 0.000000 0.000000 1.000000
vn 0.000000 0.000000 1.000000
vn 0.000000 0.000000 1.000000
vn 0.000000 0.000000 1.000000
vn 0.000000 0.000000 1.000000
vn 0.000000 0.000000 1.000000
vn 0.000000 0.000000 1.000000
vn 0.000000 0.000000 1.000000
vn 0.000000 0.000000 1.000000
vn 0.000000 0.000000 1.000000
vn 0.000000 0.000000 1.000000
vn 0.000000 0.000000 1.000000
vn 0.000000 0.000000 1.000000
vn 0.000000 0.000000 1.000000
vn 0.000000 0.000000 1.000000
vn 0.000000 0.000000 1.000000
vn 0.000000 0.000000 1.000000
vn 0.000000 0.000000 1.000000
vn 0.000000 0.000000 1.000000
vn 0.000000 0.000000 1.000000
vn 0.000000 0.000000 1.000000
vn 0.000000 0.000000 1.000000
vn 0.000000 0.000000 1.000000
vn 0.000000 0.000000 1.000000
vn 0.000000 0.000000 1.000000
vn 0.000000 0.000000 1.000000
vn 0.000000 0.000000 1.000000
vn 0.000000 0.000000 1.000000
vn 0.000000 0.000000 1.000000
vn 0.000000 0.000000 1.000000
s off
g Libreria6:pasted__pasted__pCube1pasted__group3group4
usemtl lambert7SG
f 1/1/1 2/2/2 3/3/3
f 3/3/4 2/2/5 4/4/6
f 3/5/7 4/6/8 5/7/9
f 5/7/10 4/6/11 6/8/12
f 5/9/13 6/10/14 7/11/15
f 7/11/16 6/10/17 8/12/18
f 7/13/19 8/14/20 1/1/21
f 1/1/22 8/14/23 2/2/24
f 2/15/25 8/16/26 4/17/27
f 4/17/28 8/16/29 6/18/30
f 7/19/31 1/20/32 5/21/33
f 5/21/34 1/20/35 3/22/36
f 44/23/37 45/24/38 10/25/39
f 10/25/40 45/24/41 9/26/42
f 13/27/43 16/28/44 11/29/45
f 11/29/46 16/28/47 35/30/48
f 14/31/49 13/32/50 12/33/51
f 12/33/52 13/32/53 11/34/54
f 15/35/55 17/36/56 12/33/57
f 12/33/58 17/36/59 14/31/60
f 46/37/61 18/38/62 45/39/63
f 45/39/64 18/38/65 9/40/66
f 20/41/67 19/42/68 10/43/69
f 10/43/70 19/42/71 44/44/72
f 44/45/73 19/46/74 47/47/75
f 23/48/76 37/49/77 24/50/78
f 24/50/79 37/49/80 36/51/81
f 25/52/82 26/53/83 28/54/84
f 28/54/85 26/53/86 27/55/87
f 35/30/88 16/28/89 34/56/90
f 34/56/91 16/28/92 33/57/93
f 40/58/94 41/59/95 20/60/96
f 20/60/97 41/59/98 19/61/99
f 30/62/100 29/63/101 32/64/102
f 32/64/103 29/63/104 31/65/105
f 17/66/106 15/67/107 25/52/108
f 25/52/109 15/67/110 26/53/111
usemtl Libreria5:lambert15SG
f 23/68/112 24/69/113 27/70/114
f 27/70/115 24/69/116 28/71/117
usemtl lambert7SG
f 22/72/118 21/73/119 30/62/120
f 30/62/121 21/73/122 29/63/123
usemtl Libreria5:lambert15SG
f 18/74/124 46/75/125 31/65/126
f 31/65/127 46/75/128 32/64/129
f 39/76/130 38/77/131 43/78/132
f 43/78/133 38/77/134 42/79/135
usemtl Libreria5:lambert18SG
f 48/80/136 90/81/137 50/82/138
f 50/82/139 90/81/140 91/83/141
usemtl Libreria5:lambert9SG
f 49/84/142 55/85/143 51/86/144
f 51/86/145 55/85/146 53/87/147
usemtl Libreria5:lambert18SG
f 54/88/148 48/80/149 52/89/150
f 52/89/151 48/80/152 50/82/153
usemtl Libreria5:lambert17SG
f 56/90/154 49/84/155 57/91/156
f 57/91/157 49/84/158 51/86/159
usemtl Libreria5:lambert19SG
f 58/92/160 56/93/161 59/94/162
f 59/94/163 56/93/164 57/95/165
usemtl Libreria5:lambert20SG
f 60/96/166 58/97/167 61/98/168
f 61/98/169 58/97/170 59/99/171
usemtl Libreria5:lambert23SG
f 62/100/172 60/101/173 63/102/174
f 63/102/175 60/101/176 61/103/177
usemtl Libreria5:lambert19SG
f 64/104/178 62/105/179 65/106/180
f 65/106/181 62/105/182 63/107/183
usemtl Libreria5:lambert20SG
f 66/108/184 64/109/185 67/110/186
f 67/110/187 64/109/188 65/111/189
usemtl Libreria5:lambert19SG
f 68/112/190 66/113/191 69/114/192
f 69/114/193 66/113/194 67/115/195
usemtl Libreria5:lambert23SG
f 70/116/196 68/117/197 71/118/198
f 71/118/199 68/117/200 69/119/201
usemtl Libreria5:lambert19SG
f 72/120/202 70/121/203 73/122/204
f 73/122/205 70/121/206 71/123/207
usemtl Libreria5:lambert20SG
f 74/124/208 72/125/209 75/126/210
f 75/126/211 72/125/212 73/127/213
f 76/128/214 74/129/215 77/130/216
f 77/130/217 74/129/218 75/131/219
usemtl Libreria5:lambert19SG
f 78/132/220 76/133/221 79/134/222
f 79/134/223 76/133/224 77/135/225
f 80/136/226 78/137/227 81/138/228
f 81/138/229 78/137/230 79/139/231
usemtl Libreria5:lambert23SG
f 82/140/232 80/141/233 83/142/234
f 83/142/235 80/141/236 81/143/237
f 84/144/238 82/145/239 85/146/240
f 85/146/241 82/145/242 83/147/243
usemtl Libreria5:lambert20SG
f 86/148/244 84/149/245 87/150/246
f 87/150/247 84/149/248 85/151/249
usemtl Libreria5:lambert23SG
f 88/152/250 86/153/251 89/154/252
f 89/154/253 86/153/254 87/155/255
usemtl Libreria5:lambert20SG
f 90/156/256 88/157/257 91/158/258
f 91/158/259 88/157/260 89/159/261
usemtl lambert7SG
f 92/160/262 93/161/263 94/162/264
f 94/162/265 93/161/266 95/163/267
f 94/164/268 95/165/269 96/166/270
f 96/166/271 95/165/272 97/167/273
f 96/168/274 97/169/275 98/170/276
f 98/170/277 97/169/278 99/171/279
f 98/172/280 99/173/281 92/160/282
f 92/160/283 99/173/284 93/161/285
f 93/174/286 99/175/287 95/176/288
f 95/176/289 99/175/290 97/177/291
f 98/178/292 92/179/293 96/180/294
f 96/180/295 92/179/296 94/181/297
usemtl Libreria5:lambert19SG
f 100/182/298 126/183/299 102/184/300
f 102/184/301 126/183/302 127/185/303
usemtl Libreria5:lambert23SG
f 101/186/304 107/187/305 103/188/306
f 103/188/307 107/187/308 105/189/309
usemtl Libreria5:lambert19SG
f 106/190/310 100/182/311 104/191/312
f 104/191/313 100/182/314 102/184/315
usemtl Libreria5:lambert23SG
f 108/192/316 101/186/317 109/193/318
f 109/193/319 101/186/320 103/188/321
usemtl Libreria5:lambert17SG
f 110/194/322 108/195/323 111/196/324
f 111/196/325 108/195/326 109/197/327
usemtl Libreria5:lambert18SG
f 112/198/328 110/199/329 113/200/330
f 113/200/331 110/199/332 111/201/333
usemtl Libreria5:lambert17SG
f 114/202/334 112/203/335 115/204/336
f 115/204/337 112/203/338 113/205/339
usemtl Libreria5:lambert18SG
f 116/206/340 114/207/341 117/208/342
f 117/208/343 114/207/344 115/209/345
f 118/210/346 116/211/347 119/212/348
f 119/212/349 116/211/350 117/213/351
usemtl Libreria5:lambert17SG
f 120/214/352 118/215/353 121/216/354
f 121/216/355 118/215/356 119/217/357
f 122/218/358 120/219/359 123/220/360
f 123/220/361 120/219/362 121/221/363
usemtl Libreria5:lambert18SG
f 124/222/364 122/223/365 125/224/366
f 125/224/367 122/223/368 123/225/369
usemtl Libreria5:lambert17SG
f 126/226/370 124/227/371 127/228/372
f 127/228/373 124/227/374 125/229/375
