# This file uses centimeters as units for non-parametric coordinates.

mtllib Puerta.mtl
g default
v 17.701676 2.913933 -1.303039
v 17.012894 2.930630 -2.435249
v 16.050612 2.913933 -3.321221
v 14.740294 2.913933 -3.913099
v 13.406296 2.913933 -4.084616
v 13.532812 2.913933 -3.478727
v 13.966219 2.913932 -2.959182
v 14.823502 2.913933 -2.149971
v 15.666210 2.913933 -1.130307
v 17.112039 2.824693 0.000000
v 15.785388 2.913933 1.130307
v 14.728106 2.913933 2.149971
v 13.864818 2.913933 2.959181
v 13.283866 2.913933 3.478726
v 13.345428 2.913933 4.113974
v 14.735624 2.913933 3.903336
v 15.966070 2.913933 3.316668
v 17.030376 2.913933 2.384326
v 17.697505 2.913933 1.254953
v 17.929053 2.913933 -0.085027
v 17.701676 10.457242 -1.303039
v 17.060937 10.473939 -2.435249
v 16.050612 10.457242 -3.321221
v 14.740294 10.457242 -3.913099
v 13.406296 10.457242 -4.084616
v 13.969948 10.457242 -3.478727
v 14.473142 10.457242 -2.959182
v 15.253943 10.457242 -2.149971
v 16.293018 10.457242 -1.130307
v 16.730976 10.471739 -0.096500
v 16.069233 10.457242 1.130307
v 14.929283 10.457242 2.149971
v 13.895205 10.457242 2.959181
v 13.283866 10.457242 3.478726
v 13.345428 10.457242 4.113974
v 14.735624 10.457242 3.903336
v 16.073288 10.457242 3.316668
v 17.042974 10.457242 2.384326
v 17.697505 10.457242 1.254953
v 17.929053 10.457242 -0.085027
v 16.918368 2.913933 0.000000
v 17.435982 10.457242 0.000000
vt 0.648603 0.107966
vt 0.626409 0.064408
vt 0.591842 0.029841
vt 0.548284 0.007647
vt 0.500000 -0.000000
vt 0.451716 0.007647
vt 0.408159 0.029841
vt 0.373591 0.064409
vt 0.351397 0.107966
vt 0.343750 0.156250
vt 0.351397 0.204534
vt 0.373591 0.248091
vt 0.408159 0.282659
vt 0.451716 0.304853
vt 0.500000 0.312500
vt 0.548284 0.304853
vt 0.591841 0.282659
vt 0.626409 0.248091
vt 0.648603 0.204534
vt 0.656250 0.156250
vt 0.674015 0.162767
vt 0.823532 0.164258
vt 0.823532 0.837741
vt 0.674015 0.836251
vt 0.940531 0.162767
vt 0.940531 0.836251
vt 1.018694 0.162767
vt 1.018694 0.836251
vt 1.115947 0.185953
vt 1.115947 0.813029
vt 1.024909 0.185953
vt 1.024909 0.813029
vt 0.946843 0.185953
vt 0.946843 0.813029
vt 0.825254 0.185953
vt 0.825254 0.813029
vt 0.672042 0.185953
vt 0.672042 0.813029
vt 0.502206 0.185480
vt 0.502206 0.813029
vt 0.332369 0.185953
vt 0.332369 0.813029
vt 0.179158 0.185953
vt 0.179158 0.813029
vt 0.057568 0.185953
vt 0.057568 0.813029
vt -0.020497 0.185953
vt -0.020497 0.813029
vt -0.115947 0.185953
vt -0.115947 0.813029
vt -0.013527 0.162767
vt -0.013527 0.836251
vt 0.063947 0.162767
vt 0.063947 0.836251
vt 0.187070 0.162767
vt 0.187070 0.836251
vt 0.336212 0.162767
vt 0.336212 0.836251
vt 0.513167 0.162767
vt 0.513167 0.836251
vt 0.792248 0.843750
vt 0.500000 0.156250
vt 0.648603 0.795466
vt 0.918657 0.751908
vt 0.884090 0.717341
vt 0.840532 0.695147
vt 0.792248 0.687500
vt 0.743964 0.695147
vt 0.408159 0.717341
vt 0.373591 0.751909
vt 0.351397 0.795466
vt 0.343750 0.843750
vt 0.351397 0.892034
vt 0.373591 0.935591
vt 0.408159 0.970159
vt 0.451716 0.992353
vt 0.500000 1.000000
vt 0.548284 0.992353
vt 0.591841 0.970159
vt 0.626409 0.935591
vt 0.648603 0.892034
vt 0.656250 0.843750
vn 0.931967 0.000000 -0.362542
vn 0.773690 -0.000567 -0.633564
vn 0.937088 -0.002555 -0.349084
vn 0.774264 -0.004931 -0.632843
vn 0.544639 0.000000 -0.838670
vn 0.538552 -0.001825 -0.842590
vn 0.277366 0.000000 -0.960764
vn 0.277366 0.000000 -0.960764
vn -0.338498 0.000000 -0.940967
vn -0.486016 0.037069 -0.873163
vn -0.887310 0.025188 0.460486
vn -0.726162 0.045091 0.686043
vn -0.716597 0.045629 0.695993
vn -0.716289 0.044060 0.696412
vn -0.732077 0.044831 0.679745
vn -0.712121 0.050030 0.700272
vn -0.696041 0.011896 0.717904
vn -0.814360 0.067669 0.576401
vn -0.997710 -0.049131 0.046479
vn -0.996855 0.041716 -0.067377
vn -0.682770 -0.009784 -0.730568
vn -0.781977 0.029425 -0.622613
vn -0.685734 0.012117 -0.727751
vn -0.645832 0.020709 -0.763199
vn -0.677052 0.002727 -0.735930
vn -0.632850 0.009453 -0.774217
vn -0.911354 0.001534 -0.411620
vn -0.902898 0.000000 -0.429854
vn -0.280718 0.000000 0.959790
vn -0.280719 0.000000 0.959790
vn 0.291068 0.000000 0.956702
vn 0.281792 -0.002588 0.959472
vn 0.548681 -0.005151 0.836016
vn 0.549116 -0.004080 0.835736
vn 0.767742 -0.005124 0.640738
vn 0.785318 -0.000675 0.619092
vn 0.939879 -0.000636 0.341507
vn 0.941238 0.000000 0.337745
vn 0.999999 0.000000 0.001631
vn 0.999999 0.000000 0.001631
vn 0.017030 -0.999836 -0.006194
vn -0.009649 -0.999937 -0.005800
vn 0.050964 -0.998691 -0.004349
vn 0.003224 -0.999995 -0.000842
vn 0.000000 -1.000000 0.000000
vn 0.000000 -1.000000 0.000000
vn 0.000000 -1.000000 0.000000
vn 0.000006 -1.000000 0.000000
vn -0.000007 1.000000 0.000000
vn 0.008855 -0.999913 -0.009809
vn 0.418464 0.908156 -0.011858
vn 0.063858 0.995904 0.064008
vn 0.000000 1.000000 0.000000
vn 0.000000 1.000000 0.000000
vn 0.000000 -1.000000 0.000000
vn 0.000000 -1.000000 0.000000
vn 0.000000 -1.000000 0.000000
vn 0.000000 -1.000000 0.000000
vn 0.000000 -1.000000 0.000000
vn 0.000000 -1.000000 0.000000
vn 0.000000 -1.000000 0.000000
vn 0.017537 0.999840 0.003576
vn -0.022600 0.999691 0.010335
vn 0.002106 0.999996 0.001562
vn -0.002720 0.999996 0.001135
vn 0.000000 1.000000 0.000000
vn 0.000000 1.000000 0.000000
vn -0.000000 1.000000 0.000000
vn -0.000061 1.000000 0.000062
vn 0.000022 1.000000 -0.000018
vn 0.026618 0.999283 -0.026916
vn 0.020406 0.999791 0.001116
vn 0.009264 0.999894 0.011204
vn 0.000000 -1.000000 -0.000008
vn 0.000000 1.000000 -0.000001
vn 0.000000 1.000000 0.000000
vn 0.000000 1.000000 -0.000000
vn 0.000000 1.000000 -0.000001
vn 0.000000 1.000000 0.000000
vn 0.000000 1.000000 -0.000000
vn 0.000000 1.000000 -0.000000
vn 0.000000 1.000000 0.000000
s 1
g pCylinder15
usemtl phong11SG
f 1/21/1 2/22/2 21/24/3
f 21/24/3 2/22/2 22/23/4
f 3/25/5 23/26/6 2/22/2
f 2/22/2 23/26/6 22/23/4
f 3/25/5 4/27/7 23/26/6
f 23/26/6 4/27/7 24/28/8
f 4/27/7 5/29/9 24/28/8
f 24/28/8 5/29/9 25/30/10
f 5/29/9 6/31/11 25/30/10
f 25/30/10 6/31/11 26/32/12
f 6/31/11 7/33/13 26/32/12
f 26/32/12 7/33/13 27/34/14
f 7/33/13 8/35/15 27/34/14
f 27/34/14 8/35/15 28/36/16
f 8/35/15 9/37/17 28/36/16
f 28/36/16 9/37/17 29/38/18
f 10/39/19 30/40/20 9/37/17
f 9/37/17 30/40/20 29/38/18
f 10/39/19 11/41/21 30/40/20
f 30/40/20 11/41/21 31/42/22
f 12/43/23 32/44/24 11/41/21
f 11/41/21 32/44/24 31/42/22
f 13/45/25 33/46/26 12/43/23
f 12/43/23 33/46/26 32/44/24
f 13/45/25 14/47/27 33/46/26
f 33/46/26 14/47/27 34/48/28
f 14/47/27 15/49/29 34/48/28
f 34/48/28 15/49/29 35/50/30
f 15/49/29 16/51/31 35/50/30
f 35/50/30 16/51/31 36/52/32
f 16/51/31 17/53/33 36/52/32
f 36/52/32 17/53/33 37/54/34
f 17/53/33 18/55/35 37/54/34
f 37/54/34 18/55/35 38/56/36
f 18/55/35 19/57/37 38/56/36
f 38/56/36 19/57/37 39/58/38
f 19/57/37 20/59/39 39/58/38
f 39/58/38 20/59/39 40/60/40
f 20/59/39 1/21/1 40/60/40
f 40/60/40 1/21/1 21/24/3
s 6
f 2/2/41 1/1/42 41/62/43
f 3/3/44 2/2/41 41/62/43
f 4/4/45 3/3/44 41/62/43
f 5/5/46 4/4/45 41/62/43
f 6/6/47 5/5/46 41/62/43
f 7/7/48 6/6/47 41/62/43
f 8/8/49 7/7/48 41/62/43
f 9/9/50 8/8/49 41/62/43
f 10/10/51 9/9/50 41/62/43
f 11/11/52 10/10/51 41/62/43
f 12/12/53 11/11/52 41/62/43
f 13/13/54 12/12/53 41/62/43
f 14/14/55 13/13/54 41/62/43
f 15/15/56 14/14/55 41/62/43
f 16/16/57 15/15/56 41/62/43
f 17/17/58 16/16/57 41/62/43
f 18/18/59 17/17/58 41/62/43
f 19/19/60 18/18/59 41/62/43
f 20/20/61 19/19/60 41/62/43
f 1/1/42 20/20/61 41/62/43
s 7
f 21/81/62 22/80/63 42/61/64
f 22/80/63 23/79/65 42/61/64
f 23/79/65 24/78/66 42/61/64
f 24/78/66 25/77/67 42/61/64
f 25/77/67 26/76/68 42/61/64
f 26/76/68 27/75/69 42/61/64
f 27/75/69 28/74/70 42/61/64
f 28/74/70 29/73/71 42/61/64
f 29/73/71 30/72/72 42/61/64
f 30/72/72 31/71/73 42/61/64
f 31/71/73 32/70/74 42/61/64
f 32/70/74 33/69/75 42/61/64
f 33/69/75 34/68/76 42/61/64
f 34/68/76 35/67/77 42/61/64
f 35/67/77 36/66/78 42/61/64
f 36/66/78 37/65/79 42/61/64
f 37/65/79 38/64/80 42/61/64
f 38/64/80 39/63/81 42/61/64
f 39/63/81 40/82/82 42/61/64
f 40/82/82 21/81/62 42/61/64
