# This file uses centimeters as units for non-parametric coordinates.

mtllib Puerta1.mtl
g default
v 17.701675 2.913933 -1.303039
v 17.012894 2.930630 -2.435249
v 16.050611 2.913933 -3.321221
v 14.740294 2.913933 -3.913099
v 13.406296 2.913933 -4.084616
v 13.345428 2.913933 4.113974
v 14.735624 2.913933 3.903336
v 15.966070 2.913933 3.316668
v 17.030376 2.913933 2.384326
v 17.697506 2.913933 1.254953
v 17.929052 2.913933 -0.085027
v 17.701675 10.457242 -1.303039
v 17.060938 10.473939 -2.435249
v 16.050611 10.457242 -3.321221
v 14.740294 10.457242 -3.913099
v 13.406296 10.457242 -4.084616
v 13.969948 10.457242 -3.478727
v 14.473142 10.457242 -2.959182
v 15.253943 10.457242 -2.149971
v 16.293018 10.457242 -1.130307
v 16.730976 10.471739 -0.096500
v 16.069233 10.457242 1.130307
v 14.929283 10.457242 2.149971
v 13.895205 10.457242 2.959181
v 13.283866 10.457242 3.478726
v 13.345428 10.457242 4.113974
v 14.735624 10.457242 3.903336
v 16.073288 10.457242 3.316668
v 17.042974 10.457242 2.384326
v 17.697506 10.457242 1.254953
v 17.929052 10.457242 -0.085027
v 17.435982 10.457242 0.000000
vt 0.674015 0.162767
vt 0.823532 0.164258
vt 0.674015 0.836251
vt 0.823532 0.837741
vt 0.940531 0.162767
vt 0.940531 0.836251
vt 1.018694 0.162767
vt 1.018694 0.836251
vt 1.115947 0.185953
vt 1.115947 0.813029
vt -0.115947 0.185953
vt -0.115947 0.813029
vt -0.013527 0.162767
vt -0.013527 0.836251
vt 0.063947 0.162767
vt 0.063947 0.836251
vt 0.187070 0.162767
vt 0.187070 0.836251
vt 0.336212 0.162767
vt 0.336212 0.836251
vt 0.513167 0.162767
vt 0.513167 0.836251
vt 0.648603 0.892034
vt 0.626409 0.935591
vt 0.792248 0.843750
vt 0.591841 0.970159
vt 0.548284 0.992353
vt 0.500000 1.000000
vt 0.451716 0.992353
vt 0.408159 0.970159
vt 0.373591 0.935591
vt 0.351397 0.892034
vt 0.343750 0.843750
vt 0.351397 0.795466
vt 0.373591 0.751909
vt 0.408159 0.717341
vt 0.743964 0.695147
vt 0.792248 0.687500
vt 0.840532 0.695147
vt 0.884090 0.717341
vt 0.918657 0.751908
vt 0.648603 0.795466
vt 0.656250 0.843750
vn 0.931967 0.000000 -0.362542
vn 0.773690 -0.000567 -0.633564
vn 0.937088 -0.002555 -0.349084
vn 0.937088 -0.002555 -0.349084
vn 0.773690 -0.000567 -0.633564
vn 0.774264 -0.004931 -0.632843
vn 0.544639 0.000000 -0.838670
vn 0.538552 -0.001825 -0.842590
vn 0.773690 -0.000567 -0.633564
vn 0.773690 -0.000567 -0.633564
vn 0.538552 -0.001825 -0.842590
vn 0.774264 -0.004931 -0.632843
vn 0.544639 0.000000 -0.838670
vn 0.277366 0.000000 -0.960764
vn 0.538552 -0.001825 -0.842590
vn 0.538552 -0.001825 -0.842590
vn 0.277366 0.000000 -0.960764
vn 0.277366 0.000000 -0.960764
vn 0.277366 0.000000 -0.960764
vn -0.338498 0.000000 -0.940967
vn 0.277366 0.000000 -0.960764
vn 0.277366 0.000000 -0.960764
vn -0.338498 0.000000 -0.940967
vn -0.486016 0.037069 -0.873163
vn -0.280718 0.000000 0.959790
vn 0.291068 0.000000 0.956702
vn -0.280719 0.000000 0.959790
vn -0.280719 0.000000 0.959790
vn 0.291068 0.000000 0.956702
vn 0.281792 -0.002588 0.959472
vn 0.291068 0.000000 0.956702
vn 0.548681 -0.005151 0.836016
vn 0.281792 -0.002588 0.959472
vn 0.281792 -0.002588 0.959472
vn 0.548681 -0.005151 0.836016
vn 0.549116 -0.004080 0.835736
vn 0.548681 -0.005151 0.836016
vn 0.767742 -0.005124 0.640738
vn 0.549116 -0.004080 0.835736
vn 0.549116 -0.004080 0.835736
vn 0.767742 -0.005124 0.640738
vn 0.785318 -0.000675 0.619092
vn 0.767742 -0.005124 0.640738
vn 0.939879 -0.000636 0.341507
vn 0.785318 -0.000675 0.619092
vn 0.785318 -0.000675 0.619092
vn 0.939879 -0.000636 0.341507
vn 0.941238 0.000000 0.337745
vn 0.939879 -0.000636 0.341507
vn 0.999999 0.000000 0.001631
vn 0.941238 0.000000 0.337745
vn 0.941238 0.000000 0.337745
vn 0.999999 0.000000 0.001631
vn 0.999999 0.000000 0.001631
vn 0.999999 0.000000 0.001631
vn 0.931967 0.000000 -0.362542
vn 0.999999 0.000000 0.001631
vn 0.999999 0.000000 0.001631
vn 0.931967 0.000000 -0.362542
vn 0.937088 -0.002555 -0.349084
vn 0.017537 0.999840 0.003576
vn -0.022600 0.999691 0.010335
vn 0.002106 0.999997 0.001562
vn -0.022600 0.999691 0.010335
vn -0.002720 0.999996 0.001135
vn 0.002106 0.999997 0.001562
vn -0.002720 0.999996 0.001135
vn 0.000000 1.000000 0.000000
vn 0.002106 0.999997 0.001562
vn 0.000000 1.000000 0.000000
vn 0.000000 1.000000 0.000000
vn 0.002106 0.999997 0.001562
vn 0.000000 1.000000 0.000000
vn 0.000000 1.000000 0.000000
vn 0.002106 0.999997 0.001562
vn 0.000000 1.000000 0.000000
vn -0.000061 1.000000 0.000062
vn 0.002106 0.999997 0.001562
vn -0.000061 1.000000 0.000062
vn 0.000022 1.000000 -0.000018
vn 0.002106 0.999997 0.001562
vn 0.000022 1.000000 -0.000018
vn 0.026618 0.999283 -0.026916
vn 0.002106 0.999997 0.001562
vn 0.026618 0.999283 -0.026916
vn 0.020406 0.999791 0.001116
vn 0.002106 0.999997 0.001562
vn 0.020406 0.999791 0.001116
vn 0.009264 0.999894 0.011204
vn 0.002106 0.999997 0.001562
vn 0.009264 0.999894 0.011204
vn 0.000000 -1.000000 -0.000008
vn 0.002106 0.999997 0.001562
vn 0.000000 -1.000000 -0.000008
vn 0.000000 1.000000 -0.000001
vn 0.002106 0.999997 0.001562
vn 0.000000 1.000000 -0.000001
vn 0.000000 1.000000 0.000000
vn 0.002106 0.999997 0.001562
vn 0.000000 1.000000 0.000000
vn 0.000000 1.000000 0.000000
vn 0.002106 0.999997 0.001562
vn 0.000000 1.000000 0.000000
vn 0.000000 1.000000 -0.000001
vn 0.002106 0.999997 0.001562
vn 0.000000 1.000000 -0.000001
vn 0.000000 1.000000 0.000000
vn 0.002106 0.999997 0.001562
vn 0.000000 1.000000 0.000000
vn 0.000000 1.000000 0.000000
vn 0.002106 0.999997 0.001562
vn 0.000000 1.000000 0.000000
vn 0.000000 1.000000 0.000000
vn 0.002106 0.999997 0.001562
vn 0.000000 1.000000 0.000000
vn 0.000000 1.000000 0.000000
vn 0.002106 0.999997 0.001562
vn 0.000000 1.000000 0.000000
vn 0.017537 0.999840 0.003576
vn 0.002106 0.999997 0.001562
s off
g Puerta:pCylinder15
usemtl Puerta:phong11SG
f 1/1/1 2/2/2 12/3/3
f 12/3/4 2/2/5 13/4/6
f 3/5/7 14/6/8 2/2/9
f 2/2/10 14/6/11 13/4/12
f 3/5/13 4/7/14 14/6/15
f 14/6/16 4/7/17 15/8/18
f 4/7/19 5/9/20 15/8/21
f 15/8/22 5/9/23 16/10/24
f 6/11/25 7/13/26 26/12/27
f 26/12/28 7/13/29 27/14/30
f 7/13/31 8/15/32 27/14/33
f 27/14/34 8/15/35 28/16/36
f 8/15/37 9/17/38 28/16/39
f 28/16/40 9/17/41 29/18/42
f 9/17/43 10/19/44 29/18/45
f 29/18/46 10/19/47 30/20/48
f 10/19/49 11/21/50 30/20/51
f 30/20/52 11/21/53 31/22/54
f 11/21/55 1/1/56 31/22/57
f 31/22/58 1/1/59 12/3/60
f 12/23/61 13/24/62 32/25/63
f 13/24/64 14/26/65 32/25/66
f 14/26/67 15/27/68 32/25/69
f 15/27/70 16/28/71 32/25/72
f 16/28/73 17/29/74 32/25/75
f 17/29/76 18/30/77 32/25/78
f 18/30/79 19/31/80 32/25/81
f 19/31/82 20/32/83 32/25/84
f 20/32/85 21/33/86 32/25/87
f 21/33/88 22/34/89 32/25/90
f 22/34/91 23/35/92 32/25/93
f 23/35/94 24/36/95 32/25/96
f 24/36/97 25/37/98 32/25/99
f 25/37/100 26/38/101 32/25/102
f 26/38/103 27/39/104 32/25/105
f 27/39/106 28/40/107 32/25/108
f 28/40/109 29/41/110 32/25/111
f 29/41/112 30/42/113 32/25/114
f 30/42/115 31/43/116 32/25/117
f 31/43/118 12/23/119 32/25/120
