# This file uses centimeters as units for non-parametric coordinates.

mtllib Ventanas.mtl
g default
v -2.891454 13.359072 -3.011948
v -2.891454 14.742118 -3.011948
v -2.891454 14.742118 -9.548251
v -2.891454 13.359072 -9.548251
v -2.486426 9.139795 -4.739688
v -2.486426 10.349184 -4.739688
v -2.486426 10.349184 -8.593830
v -2.486426 9.139795 -8.593830
v -2.703864 13.994185 -1.500381
v -2.703864 13.921127 -1.729962
v -2.703864 13.604757 -2.401962
v -2.703864 13.443812 -2.647248
v -2.703864 14.769767 -2.647248
v -2.703864 14.769767 2.763426
v -2.703864 14.152841 -0.872150
v -2.902033 13.347073 3.250842
v -2.902033 14.759520 3.250842
v -2.902033 14.759520 9.931643
v -2.902033 13.347073 9.931643
v -2.486426 9.139795 8.672277
v -2.486426 10.349184 8.672277
v -2.486426 10.349184 4.818137
v -2.486426 9.139795 4.818137
v -21.306770 14.736488 -11.704904
v -4.623021 14.736488 -11.704904
v -21.306770 13.397179 -11.704904
v -4.623021 13.397179 -11.704904
v -21.531574 10.516225 -11.808223
v -5.982391 10.516225 -11.808223
v -21.531574 7.488443 -11.808223
v -5.982391 7.488443 -11.808223
v -24.087193 13.378979 -3.467173
v -24.087193 14.759531 -3.467173
v -24.087193 14.759531 -9.795853
v -24.087193 13.378979 -9.795853
v -24.047098 13.259432 2.708535
v -24.047098 14.769339 2.708535
v -24.047098 14.769339 -2.647248
v -24.047098 13.259432 -2.647248
v -24.087193 13.378979 9.858727
v -24.087193 14.759531 9.858727
v -24.087193 14.759531 3.530050
v -24.087193 13.378979 3.530050
v -20.897305 13.458111 11.939237
v -5.111333 13.458111 11.939237
v -20.897305 14.735865 11.939237
v -5.111333 14.735865 11.939237
v -21.531574 7.488443 11.760963
v -5.982391 7.488443 11.760963
v -21.531574 10.516225 11.760963
v -5.982391 10.516225 11.760963
v -23.390987 13.378979 9.858727
v -23.390987 14.759531 9.858727
v -23.390987 14.759531 3.530050
v -23.390987 13.378979 3.530050
v -23.405735 13.259432 2.708535
v -23.405735 14.769339 2.708535
v -23.405735 14.769339 -2.647248
v -23.405735 13.259432 -2.647248
v -23.390987 13.378979 -3.467173
v -23.390987 14.759531 -3.467173
v -23.390987 14.759531 -9.795853
v -23.390987 13.378979 -9.795853
v -21.306770 13.397179 -11.604486
v -4.623021 13.397179 -11.604486
v -21.306770 14.736488 -11.604486
v -4.623021 14.736488 -11.604486
v -21.531574 7.488443 -11.297210
v -5.982391 7.488443 -11.297210
v -21.531574 10.516225 -11.297210
v -5.982391 10.516225 -11.297210
v -3.645164 13.359072 -3.011948
v -3.645164 14.742118 -3.011948
v -3.645164 14.742118 -9.548251
v -3.645164 13.359072 -9.548251
v -3.345221 13.268537 2.763426
v -3.345221 14.769767 2.763426
v -3.345221 13.268537 2.495433
v -3.345222 13.472577 2.199717
v -3.345221 14.769767 -2.647248
v -3.345221 13.844634 1.144474
v -3.655744 13.347073 3.250842
v -3.655744 14.759520 3.250842
v -3.655744 14.759520 9.931643
v -3.655744 13.347073 9.931643
v -3.853863 9.139795 8.672277
v -3.853863 10.349184 8.672277
v -3.853863 10.349184 4.818137
v -3.853863 9.139795 4.818137
v -3.853863 9.139795 -4.739688
v -3.853863 10.349184 -4.739688
v -3.853863 10.349184 -8.593830
v -3.853863 9.139795 -8.593830
v -20.897305 14.735865 11.749712
v -5.111333 14.735865 11.749712
v -20.897305 13.458111 11.749712
v -5.111333 13.458111 11.749712
v -21.531574 10.516225 11.249956
v -5.982391 10.516225 11.249956
v -21.531574 7.488444 11.249956
v -5.982391 7.488444 11.249956
vt 1.000000 0.000000
vt 1.000000 1.000000
vt 0.000000 0.000000
vt 0.000000 1.000000
vt 0.625000 0.000000
vt 0.875000 0.000000
vt 0.625000 0.250000
vt 0.875000 0.250000
vt 0.125000 0.025163
vt 0.125000 0.250000
vt 0.136450 0.055076
vt 0.167818 0.113878
vt 0.178534 0.127456
vt 0.207859 0.156945
vt 0.375000 0.250000
vt 0.625000 0.000000
vt 0.625000 0.250000
vt 0.875000 0.000000
vt 0.875000 0.250000
vt 0.625000 0.000000
vt 0.875000 0.000000
vt 0.625000 0.250000
vt 0.875000 0.250000
vt 0.375000 0.500000
vt 0.625000 0.500000
vt 0.375000 0.750000
vt 0.625000 0.750000
vt 0.375000 0.500000
vt 0.625000 0.500000
vt 0.375000 0.750000
vt 0.625000 0.750000
vt 0.625000 0.000000
vt 0.625000 0.250000
vt 0.875000 0.000000
vt 0.875000 0.250000
vt 0.125000 0.000000
vt 0.375000 0.000000
vt 0.125000 0.250000
vt 0.375000 0.250000
vt 0.625000 0.000000
vt 0.625000 0.250000
vt 0.875000 0.000000
vt 0.875000 0.250000
vt 0.375000 0.000000
vt 0.625000 0.000000
vt 0.375000 0.250000
vt 0.625000 0.250000
vt 0.375000 0.000000
vt 0.625000 0.000000
vt 0.375000 0.250000
vt 0.625000 0.250000
vt 0.125000 0.000000
vt 0.125000 0.250000
vt 0.375000 0.000000
vt 0.375000 0.250000
vt 0.625000 0.000000
vt 0.875000 0.000000
vt 0.625000 0.250000
vt 0.875000 0.250000
vt 0.125000 0.000000
vt 0.125000 0.250000
vt 0.375000 0.000000
vt 0.375000 0.250000
vt 0.375000 0.000000
vt 0.625000 0.000000
vt 0.375000 0.250000
vt 0.625000 0.250000
vt 0.375000 0.000000
vt 0.625000 0.000000
vt 0.375000 0.250000
vt 0.625000 0.250000
vt 0.625000 0.000000
vt 0.625000 0.250000
vt 0.875000 0.000000
vt 0.875000 0.250000
vt 0.625000 0.000000
vt 0.625000 0.250000
vt 0.634947 0.000000
vt 0.648751 0.000000
vt 0.690334 0.000000
vt 0.875000 0.250000
vt 0.125000 0.000000
vt 0.125000 0.250000
vt 0.375000 0.000000
vt 0.375000 0.250000
vt 0.125000 0.000000
vt 0.375000 0.000000
vt 0.125000 0.250000
vt 0.375000 0.250000
vt 0.125000 0.000000
vt 0.375000 0.000000
vt 0.125000 0.250000
vt 0.375000 0.250000
vt 0.375000 0.500000
vt 0.625000 0.500000
vt 0.375000 0.750000
vt 0.625000 0.750000
vt 0.375000 0.500000
vt 0.625000 0.500000
vt 0.375000 0.750000
vt 0.625000 0.750000
vn 1.000000 0.000000 0.000000
vn 1.000000 0.000000 0.000000
vn 1.000000 0.000000 0.000000
vn 1.000000 0.000000 0.000000
vn 1.000000 0.000000 0.000000
vn 1.000000 0.000000 0.000000
vn 1.000000 0.000000 0.000000
vn 1.000000 0.000000 0.000000
vn 1.000000 0.000000 0.000000
vn 1.000000 0.000000 0.000000
vn 1.000000 0.000000 0.000000
vn 1.000000 0.000000 0.000000
vn 1.000000 0.000000 0.000000
vn 1.000000 -0.000001 0.000000
vn 1.000000 0.000000 0.000000
vn 1.000000 0.000000 0.000000
vn 1.000000 -0.000001 0.000000
vn 1.000000 0.000000 0.000000
vn 1.000000 0.000000 0.000000
vn 1.000000 -0.000001 0.000000
vn 1.000000 0.000000 0.000000
vn 1.000000 0.000000 0.000000
vn 1.000000 -0.000001 0.000000
vn 1.000000 0.000000 0.000000
vn 1.000000 -0.000001 0.000000
vn 1.000000 -0.000001 0.000000
vn 1.000000 0.000000 0.000000
vn 1.000000 0.000000 0.000000
vn 1.000000 0.000000 0.000000
vn 1.000000 0.000000 0.000000
vn 1.000000 0.000000 0.000000
vn 1.000000 0.000000 0.000000
vn 1.000000 0.000000 0.000000
vn 1.000000 0.000000 0.000000
vn 1.000000 0.000000 0.000000
vn 1.000000 0.000000 0.000000
vn 1.000000 0.000000 0.000000
vn 1.000000 0.000000 0.000000
vn 1.000000 0.000000 0.000000
vn 0.000000 0.000000 -1.000000
vn 0.000000 0.000000 -1.000000
vn 0.000000 0.000000 -1.000000
vn 0.000000 0.000000 -1.000000
vn 0.000000 0.000000 -1.000000
vn 0.000000 0.000000 -1.000000
vn 0.000000 0.000000 -1.000000
vn 0.000000 0.000000 -1.000000
vn 0.000000 0.000000 -1.000000
vn 0.000000 0.000000 -1.000000
vn 0.000000 0.000000 -1.000000
vn 0.000000 0.000000 -1.000000
vn -1.000000 0.000000 0.000000
vn -1.000000 0.000000 0.000000
vn -1.000000 0.000000 0.000000
vn -1.000000 0.000000 0.000000
vn -1.000000 0.000000 0.000000
vn -1.000000 0.000000 0.000000
vn -1.000000 0.000000 0.000000
vn -1.000000 0.000000 0.000000
vn -1.000000 0.000000 0.000000
vn -1.000000 0.000000 0.000000
vn -1.000000 0.000000 0.000000
vn -1.000000 0.000000 0.000000
vn -1.000000 0.000000 0.000000
vn -1.000000 0.000000 0.000000
vn -1.000000 0.000000 0.000000
vn -1.000000 0.000000 0.000000
vn -1.000000 0.000000 0.000000
vn -1.000000 0.000000 0.000000
vn 0.000000 0.000000 1.000000
vn 0.000000 0.000000 1.000000
vn 0.000000 0.000000 1.000000
vn 0.000000 0.000000 1.000000
vn 0.000000 0.000000 1.000000
vn 0.000000 0.000000 1.000000
vn 0.000000 0.000000 1.000000
vn 0.000000 0.000000 1.000000
vn 0.000000 0.000000 1.000000
vn 0.000000 0.000000 1.000000
vn 0.000000 0.000000 1.000000
vn 0.000000 0.000000 1.000000
vn 1.000000 0.000000 0.000000
vn 1.000000 0.000000 0.000000
vn 1.000000 0.000000 0.000000
vn 1.000000 0.000000 0.000000
vn 1.000000 0.000000 0.000000
vn 1.000000 0.000000 0.000000
vn 1.000000 0.000000 0.000000
vn 1.000000 0.000000 0.000000
vn 1.000000 0.000000 0.000000
vn 1.000000 0.000000 0.000000
vn 1.000000 0.000000 0.000000
vn 1.000000 0.000000 0.000000
vn 1.000000 0.000000 0.000000
vn 1.000000 0.000000 0.000000
vn 1.000000 0.000000 0.000000
vn 1.000000 0.000000 0.000000
vn 1.000000 0.000000 0.000000
vn 1.000000 0.000000 0.000000
vn 0.000000 0.000000 1.000000
vn 0.000000 0.000000 1.000000
vn 0.000000 0.000000 1.000000
vn 0.000000 0.000000 1.000000
vn 0.000000 0.000000 1.000000
vn 0.000000 0.000000 1.000000
vn 0.000000 0.000000 1.000000
vn 0.000000 0.000000 1.000000
vn 0.000000 0.000000 1.000000
vn 0.000000 0.000000 1.000000
vn 0.000000 0.000000 1.000000
vn 0.000000 0.000000 1.000000
vn -1.000000 0.000000 0.000000
vn -1.000000 0.000000 0.000000
vn -1.000000 0.000000 0.000000
vn -1.000000 0.000000 0.000000
vn -1.000000 0.000000 0.000000
vn -1.000000 0.000000 0.000000
vn -1.000000 0.000000 0.000000
vn -1.000000 0.000000 0.000000
vn -1.000000 0.000000 0.000000
vn -1.000000 0.000000 0.000000
vn -1.000000 0.000000 0.000000
vn -1.000000 0.000000 0.000000
vn -1.000000 0.000000 0.000000
vn -1.000000 0.000000 0.000000
vn -1.000000 0.000000 0.000000
vn -1.000000 0.000000 0.000000
vn -1.000000 0.000000 0.000000
vn -1.000000 0.000000 0.000000
vn -1.000000 0.000000 0.000000
vn -1.000000 0.000000 0.000000
vn -1.000000 0.000000 0.000000
vn -1.000000 0.000000 0.000000
vn -1.000000 0.000000 0.000000
vn -1.000000 0.000000 0.000000
vn -1.000000 0.000000 0.000000
vn -1.000000 0.000000 0.000000
vn -1.000000 0.000000 0.000000
vn -1.000000 0.000000 0.000000
vn -1.000000 0.000000 0.000000
vn -1.000000 0.000000 0.000000
vn -1.000000 0.000000 0.000000
vn -1.000000 0.000000 0.000000
vn -1.000000 0.000000 0.000000
vn -1.000000 0.000000 0.000000
vn -1.000000 0.000000 0.000000
vn -1.000000 0.000000 0.000000
vn 0.000000 0.000000 -1.000000
vn 0.000000 0.000000 -1.000000
vn 0.000000 0.000000 -1.000000
vn 0.000000 0.000000 -1.000000
vn 0.000000 0.000000 -1.000000
vn 0.000000 0.000000 -1.000000
vn 0.000000 0.000000 -1.000000
vn 0.000000 0.000000 -1.000000
vn 0.000000 0.000000 -1.000000
vn 0.000000 0.000000 -1.000000
vn 0.000000 0.000000 -1.000000
vn 0.000000 0.000000 -1.000000
s off
g polySurface10
usemtl CentroPokemonFinalT:phong5SG
f 4/1/1 3/2/2 1/3/3
f 1/3/4 3/2/5 2/4/6
f 5/5/7 8/6/8 6/7/9
f 6/7/10 8/6/11 7/8/12
f 12/9/13 13/10/14 11/11/15
f 11/11/16 13/10/17 10/12/18
f 10/12/19 13/10/20 9/13/21
f 9/13/22 13/10/23 15/14/24
f 13/10/25 14/15/26 15/14/27
f 16/16/28 17/17/29 19/18/30
f 19/18/31 17/17/32 18/19/33
f 20/20/34 23/21/35 21/22/36
f 21/22/37 23/21/38 22/23/39
f 24/24/40 25/25/41 26/26/42
f 26/26/43 25/25/44 27/27/45
f 28/28/46 29/29/47 30/30/48
f 30/30/49 29/29/50 31/31/51
f 32/32/52 33/33/53 35/34/54
f 35/34/55 33/33/56 34/35/57
f 39/36/58 36/37/59 38/38/60
f 38/38/61 36/37/62 37/39/63
f 40/40/64 41/41/65 43/42/66
f 43/42/67 41/41/68 42/43/69
f 44/44/70 45/45/71 46/46/72
f 46/46/73 45/45/74 47/47/75
f 48/48/76 49/49/77 50/50/78
f 50/50/79 49/49/80 51/51/81
f 55/52/82 54/53/83 52/54/84
f 52/54/85 54/53/86 53/55/87
f 56/56/88 59/57/89 57/58/90
f 57/58/91 59/57/92 58/59/93
f 63/60/94 62/61/95 60/62/96
f 60/62/97 62/61/98 61/63/99
f 64/64/100 65/65/101 66/66/102
f 66/66/103 65/65/104 67/67/105
f 68/68/106 69/69/107 70/70/108
f 70/70/109 69/69/110 71/71/111
f 72/72/112 73/73/113 75/74/114
f 75/74/115 73/73/116 74/75/117
f 76/76/118 77/77/119 78/78/120
f 78/78/121 77/77/122 79/79/123
f 79/79/124 77/77/125 81/80/126
f 77/77/127 80/81/128 81/80/129
f 85/82/130 84/83/131 82/84/132
f 82/84/133 84/83/134 83/85/135
f 89/86/136 86/87/137 88/88/138
f 88/88/139 86/87/140 87/89/141
f 93/90/142 90/91/143 92/92/144
f 92/92/145 90/91/146 91/93/147
f 94/94/148 95/95/149 96/96/150
f 96/96/151 95/95/152 97/97/153
f 98/98/154 99/99/155 100/100/156
f 100/100/157 99/99/158 101/101/159
