# This file uses centimeters as units for non-parametric coordinates.

mtllib Borde.mtl
g default
v 2.972177 2.733328 -6.857977
v 2.972177 2.733328 -7.000002
v 2.422177 2.183327 -6.857977
v 2.422177 2.183327 -7.000002
v 3.163951 2.733328 -7.000002
v 3.163951 2.733328 -6.857977
v 2.422177 1.991553 -6.857977
v 2.422177 1.991553 -7.000002
v 2.442177 2.163327 -6.837977
v 2.442177 2.011553 -6.837977
v 2.992177 2.713328 -6.837977
v 3.143951 2.713328 -6.837977
v 2.972177 2.348311 -6.857977
v 2.923854 2.231649 -6.857977
v 2.807193 2.183327 -6.857977
v 2.807193 2.183327 -7.000002
v 2.923854 2.231649 -7.000002
v 2.972177 2.348311 -7.000002
v 3.163951 2.156537 -7.000002
v 3.115629 2.039876 -7.000002
v 2.998968 1.991553 -7.000002
v 2.998968 1.991553 -6.857977
v 3.115629 2.039876 -6.857977
v 3.163951 2.156537 -6.857977
v 2.978968 2.011553 -6.837977
v 3.095629 2.059876 -6.837977
v 3.143951 2.176537 -6.837977
v 2.827193 2.163327 -6.837977
v 2.943854 2.211649 -6.837977
v 2.992177 2.328311 -6.837977
vt 0.027289 0.974868
vt 0.023324 0.974868
vt 0.027289 0.969513
vt 0.023324 0.969513
vt 0.023324 0.974868
vt 0.027289 0.974868
vt 0.023324 0.969513
vt 0.027289 0.969513
vt 0.022765 0.974309
vt 0.022765 0.970071
vt 0.022765 0.970071
vt 0.022765 0.974309
vt 0.031933 0.963476
vt 0.035190 0.963476
vt 0.031933 0.967442
vt 0.035190 0.967442
vt 0.017693 0.968083
vt 0.017693 0.971340
vt 0.021659 0.968083
vt 0.021659 0.971340
vt 0.029234 0.958680
vt 0.032491 0.958680
vt 0.029234 0.954715
vt 0.032491 0.954715
vt 0.012897 0.958249
vt 0.012897 0.961619
vt 0.008796 0.958249
vt 0.008796 0.961619
vt 0.008796 0.978274
vt 0.012897 0.978274
vt 0.021659 0.982090
vt 0.017693 0.982090
vt 0.013130 0.954715
vt 0.013130 0.958680
vt 0.021183 0.963476
vt 0.021183 0.967442
vt 0.032491 0.962918
vt 0.032491 0.958680
vt 0.021741 0.962918
vt 0.017504 0.958680
vt 0.017135 0.978274
vt 0.017135 0.967525
vt 0.012897 0.978274
vt 0.012897 0.963287
vt 0.013688 0.954157
vt 0.028676 0.954157
vt 0.021741 0.962918
vt 0.032491 0.962918
vt 0.017135 0.970782
vt 0.017135 0.981532
vt 0.008218 0.977697
vt 0.008218 0.962196
vt 0.031933 0.954157
vt 0.008218 0.958827
vt 0.014246 0.960029
vt 0.018484 0.964267
vt 0.017135 0.967525
vt 0.035749 0.962918
vn 0.000000 1.000000 0.000000
vn 0.000000 1.000000 0.000000
vn 0.000000 1.000000 0.000000
vn 0.000000 1.000000 0.000000
vn 0.000000 1.000000 0.000000
vn 0.000000 1.000000 0.000000
vn -1.000000 0.000000 0.000000
vn -1.000000 0.000000 0.000000
vn -1.000000 0.000000 0.000000
vn -1.000000 0.000000 0.000000
vn -1.000000 0.000000 0.000000
vn -1.000000 0.000000 0.000000
vn -0.707098 0.000000 0.707116
vn -0.707098 0.000000 0.707116
vn -0.707098 0.000000 0.707116
vn -0.707098 0.000000 0.707116
vn -0.707098 0.000000 0.707116
vn -0.707098 0.000000 0.707116
vn 0.000000 0.707102 0.707111
vn 0.000000 0.707102 0.707111
vn 0.000000 0.707102 0.707111
vn 0.000000 0.707102 0.707111
vn 0.000000 0.707102 0.707111
vn 0.000000 0.707102 0.707111
vn -0.095878 0.995393 0.000000
vn -0.707108 0.707106 0.000000
vn -0.095878 0.995393 0.000000
vn -0.095878 0.995393 0.000000
vn -0.707108 0.707106 0.000000
vn -0.707108 0.707106 0.000000
vn -0.707108 0.707106 0.000000
vn -0.995393 0.095878 0.000000
vn -0.707108 0.707106 0.000000
vn -0.707108 0.707106 0.000000
vn -0.995393 0.095878 0.000000
vn -0.995393 0.095878 0.000000
vn 0.069515 -0.997581 0.000000
vn 0.707107 -0.707107 0.000000
vn 0.069515 -0.997581 0.000000
vn 0.069515 -0.997581 0.000000
vn 0.707107 -0.707107 0.000000
vn 0.707107 -0.707107 0.000000
vn 0.707107 -0.707107 0.000000
vn 0.997581 -0.069515 0.000000
vn 0.707107 -0.707107 0.000000
vn 0.707107 -0.707107 0.000000
vn 0.997581 -0.069515 0.000000
vn 0.997581 -0.069515 0.000000
vn 0.997581 -0.069515 0.000000
vn 0.997581 -0.069515 0.000000
vn 1.000000 0.000000 0.000000
vn 1.000000 0.000000 0.000000
vn 0.997581 -0.069515 0.000000
vn 1.000000 0.000000 0.000000
vn -0.995393 0.095878 0.000000
vn -0.995393 0.095878 0.000000
vn -1.000000 0.000000 0.000000
vn -1.000000 0.000000 0.000000
vn -0.995393 0.095878 0.000000
vn -1.000000 0.000000 0.000000
vn 0.069515 -0.997581 0.000000
vn 0.000000 -1.000000 0.000000
vn 0.069515 -0.997581 0.000000
vn 0.069515 -0.997581 0.000000
vn 0.000000 -1.000000 0.000000
vn 0.000000 -1.000000 0.000000
vn -0.095878 0.995393 0.000000
vn -0.095878 0.995393 0.000000
vn 0.000000 1.000000 0.000000
vn 0.000000 1.000000 0.000000
vn -0.095878 0.995393 0.000000
vn 0.000000 1.000000 0.000000
vn 0.000000 0.000000 1.000000
vn 0.000000 0.000000 1.000000
vn 0.000001 0.000000 1.000000
vn 0.000001 0.000000 1.000000
vn 0.000000 0.000000 1.000000
vn 0.000002 0.000000 1.000000
vn 0.000000 0.000000 1.000000
vn 0.000000 0.000000 1.000000
vn 0.000000 0.000000 1.000000
vn 0.000000 0.000000 1.000000
vn 0.000000 0.000000 1.000000
vn 0.000000 0.000000 1.000000
vn 0.000000 -0.707096 0.707118
vn 0.080484 -0.663410 0.743915
vn 0.000000 -0.707096 0.707118
vn 0.000000 -0.707096 0.707118
vn 0.080484 -0.663410 0.743915
vn 0.030696 -0.691248 0.721966
vn 0.000000 0.707099 0.707115
vn 0.000000 0.707099 0.707115
vn -0.041992 0.685166 0.727175
vn -0.041992 0.685166 0.727175
vn 0.000000 0.707099 0.707115
vn -0.101037 0.651144 0.752199
vn -0.651148 0.101038 0.752195
vn -0.707106 0.000000 0.707108
vn -0.685172 0.041992 0.727170
vn -0.685172 0.041992 0.727170
vn -0.707106 0.000000 0.707108
vn -0.707106 0.000000 0.707108
vn 0.707096 0.000000 0.707118
vn 0.691248 -0.030696 0.721965
vn 0.707096 0.000000 0.707118
vn 0.707096 0.000000 0.707118
vn 0.691248 -0.030696 0.721965
vn 0.663411 -0.080484 0.743914
vn 0.408243 -0.408244 0.816502
vn 0.408244 -0.408243 0.816501
vn 0.080484 -0.663410 0.743915
vn 0.080484 -0.663410 0.743915
vn 0.408244 -0.408243 0.816501
vn 0.030696 -0.691248 0.721966
vn 0.408243 -0.408244 0.816502
vn 0.663411 -0.080484 0.743914
vn 0.408244 -0.408243 0.816501
vn 0.408244 -0.408243 0.816501
vn 0.663411 -0.080484 0.743914
vn 0.691248 -0.030696 0.721965
vn 0.000002 0.000000 1.000000
vn 0.000002 0.000000 1.000000
vn 0.000002 0.000000 1.000000
vn 0.000002 0.000000 1.000000
vn 0.000002 0.000000 1.000000
vn 0.000001 0.000000 1.000000
vn 0.000002 0.000000 1.000000
vn 0.000000 0.000000 1.000000
vn 0.000002 0.000000 1.000000
vn 0.000002 0.000000 1.000000
vn 0.000000 0.000000 1.000000
vn 0.000000 0.000000 1.000000
vn -0.685172 0.041992 0.727170
vn -0.408242 0.408242 0.816503
vn -0.651148 0.101038 0.752195
vn -0.651148 0.101038 0.752195
vn -0.408242 0.408242 0.816503
vn -0.408242 0.408242 0.816503
vn -0.041992 0.685166 0.727175
vn -0.101037 0.651144 0.752199
vn -0.408242 0.408242 0.816503
vn -0.408242 0.408242 0.816503
vn -0.101037 0.651144 0.752199
vn -0.408242 0.408242 0.816503
s off
g Tele2:PC_ScenepolySurface9
usemtl Tele2:lambert3SG
f 2/1/1 1/2/2 5/3/3
f 5/3/4 1/2/5 6/4/6
f 3/5/7 4/6/8 7/7/9
f 7/7/10 4/6/11 8/8/12
f 3/5/13 7/7/14 9/9/15
f 9/9/16 7/7/17 10/10/18
f 6/4/19 1/2/20 12/11/21
f 12/11/22 1/2/23 11/12/24
f 15/13/25 14/14/26 16/15/27
f 16/15/28 14/14/29 17/16/30
f 14/17/31 13/18/32 17/19/33
f 17/19/34 13/18/35 18/20/36
f 21/21/37 20/22/38 22/23/39
f 22/23/40 20/22/41 23/24/42
f 20/25/43 19/26/44 23/27/45
f 23/27/46 19/26/47 24/28/48
f 24/28/49 19/26/50 6/29/51
f 6/29/52 19/26/53 5/30/54
f 18/20/55 13/18/56 2/31/57
f 2/31/58 13/18/59 1/32/60
f 22/23/61 7/33/62 21/21/63
f 21/21/64 7/33/65 8/34/66
f 15/13/67 16/15/68 3/35/69
f 3/35/70 16/15/71 4/36/72
f 9/37/73 10/38/74 28/39/75
f 28/39/76 10/38/77 25/40/78
f 11/41/79 30/42/80 12/43/81
f 12/43/82 30/42/83 27/44/84
f 7/33/85 22/23/86 10/45/87
f 10/45/88 22/23/89 25/46/90
f 3/35/91 9/47/92 15/13/93
f 15/13/94 9/47/95 28/48/96
f 30/49/97 11/50/98 13/18/99
f 13/18/100 11/50/101 1/32/102
f 12/51/103 27/52/104 6/29/105
f 6/29/106 27/52/107 24/28/108
f 23/24/109 26/53/110 22/23/111
f 22/23/112 26/53/113 25/46/114
f 23/27/115 24/28/116 26/54/117
f 26/54/118 24/28/119 27/52/120
f 26/55/121 29/56/122 25/40/123
f 25/40/124 29/56/125 28/39/126
f 26/55/127 27/44/128 29/56/129
f 29/56/130 27/44/131 30/42/132
f 13/18/133 14/17/134 30/49/135
f 30/49/136 14/17/137 29/57/138
f 15/13/139 28/48/140 14/14/141
f 14/14/142 28/48/143 29/58/144
g default
v 0.000000 5.187788 -6.857977
v 0.000000 5.187788 -7.000002
v 2.972178 4.637789 -6.857977
v 2.972178 4.637789 -7.000002
v 0.000000 5.379563 -7.000002
v 0.000000 5.379563 -6.857977
v 3.163951 4.637789 -6.857977
v 3.163951 4.637789 -7.000002
v 2.992177 4.657789 -6.837977
v 3.143951 4.657789 -6.837977
v 0.000000 5.207788 -6.837977
v 0.000000 5.359563 -6.837977
v 2.807194 5.187788 -6.857977
v 2.923855 5.139466 -6.857977
v 2.972178 5.022805 -6.857977
v 2.972178 5.022805 -7.000002
v 2.923855 5.139466 -7.000002
v 2.807194 5.187788 -7.000002
v 2.998968 5.379563 -7.000002
v 3.115629 5.331241 -7.000002
v 3.163951 5.214580 -7.000002
v 3.163951 5.214580 -6.857977
v 3.115629 5.331241 -6.857977
v 2.998968 5.379563 -6.857977
v 3.143951 5.194580 -6.837977
v 3.095629 5.311241 -6.837977
v 2.978968 5.359563 -6.837977
v 2.992177 5.042805 -6.837977
v 2.943855 5.159466 -6.837977
v 2.827194 5.207788 -6.837977
v -2.972178 4.637789 -6.857977
v -2.972178 4.637789 -7.000002
v -3.163951 4.637789 -6.857977
v -3.163951 4.637789 -7.000002
v -2.992177 4.657789 -6.837977
v -3.143951 4.657789 -6.837977
v -2.807194 5.187788 -6.857977
v -2.923855 5.139466 -6.857977
v -2.972178 5.022805 -6.857977
v -2.972178 5.022805 -7.000002
v -2.923855 5.139466 -7.000002
v -2.807194 5.187788 -7.000002
v -2.998968 5.379563 -7.000002
v -3.115629 5.331241 -7.000002
v -3.163951 5.214580 -7.000002
v -3.163951 5.214580 -6.857977
v -3.115629 5.331241 -6.857977
v -2.998968 5.379563 -6.857977
v -3.143951 5.194580 -6.837977
v -3.095629 5.311241 -6.837977
v -2.978968 5.359563 -6.837977
v -2.992177 5.042805 -6.837977
v -2.943855 5.159466 -6.837977
v -2.827194 5.207788 -6.837977
vt 0.120438 0.981839
vt 0.115211 0.981839
vt 0.120438 0.974780
vt 0.115211 0.974780
vt 0.121175 0.981103
vt 0.121175 0.975517
vt 0.120473 0.982950
vt 0.120473 0.987309
vt 0.115165 0.982950
vt 0.115165 0.987309
vt 0.117677 0.990467
vt 0.113479 0.990467
vt 0.117677 0.985356
vt 0.113479 0.985356
vt 0.121207 0.986872
vt 0.121207 0.991213
vt 0.115922 0.986872
vt 0.115922 0.991213
vt 0.009381 0.985356
vt 0.013579 0.985356
vt 0.009381 0.990467
vt 0.013579 0.990467
vt 0.121487 0.990467
vt 0.121487 0.985356
vt 0.012472 0.985356
vt 0.012472 0.990467
vt 0.115922 0.965407
vt 0.121207 0.965407
vt 0.120473 0.968563
vt 0.115165 0.968563
vt 0.027709 0.024137
vt 0.027709 -0.000000
vt 0.561140 0.024137
vt 0.771420 -0.000000
vt 0.789720 0.500000
vt 0.789720 0.050376
vt 1.000000 0.500000
vt 1.000000 0.026238
vt 0.115178 0.966151
vt 0.115178 0.986127
vt 0.121220 0.969310
vt 0.121220 0.983697
vt 0.114199 0.991186
vt 0.012472 0.991186
vt 0.121487 0.991186
vt 0.014299 0.991186
vt 0.115178 0.990469
vt 0.010101 0.991186
vt 0.933051 0.007685
vt 0.722771 0.031822
vt 0.118397 0.991186
vt 0.121220 0.988057
vt 0.120438 0.981839
vt 0.120438 0.974780
vt 0.115211 0.981839
vt 0.115211 0.974780
vt 0.121175 0.981103
vt 0.121175 0.975517
vt 0.120473 0.982950
vt 0.115165 0.982950
vt 0.120473 0.987309
vt 0.115165 0.987309
vt 0.117677 0.990467
vt 0.117677 0.985356
vt 0.113479 0.990467
vt 0.113479 0.985356
vt 0.121207 0.986872
vt 0.115922 0.986872
vt 0.121207 0.991213
vt 0.115922 0.991213
vt 0.009381 0.985356
vt 0.009381 0.990467
vt 0.013579 0.985356
vt 0.013579 0.990467
vt 0.121487 0.990467
vt 0.121487 0.985356
vt 0.012472 0.985356
vt 0.012472 0.990467
vt 0.115922 0.965407
vt 0.121207 0.965407
vt 0.120473 0.968563
vt 0.115165 0.968563
vt 0.027709 0.975863
vt 0.561140 0.975863
vt 0.027709 1.000000
vt 0.771420 1.000000
vt 1.000000 0.973762
vt 0.789720 0.949624
vt 0.115178 0.966151
vt 0.115178 0.986127
vt 0.533430 0.972424
vt -0.000000 0.972424
vt 0.114199 0.991186
vt 0.012472 0.991186
vt 0.121487 0.991186
vt 0.014299 0.991186
vt 0.115178 0.990469
vt 0.010101 0.991186
vt 0.722771 0.968178
vt 0.933051 0.992315
vt 0.118397 0.991186
vt 0.121220 0.988057
vt 0.121220 0.983697
vn 0.000000 -1.000000 0.000000
vn 0.000000 -1.000000 0.000000
vn 0.000000 -1.000000 0.000000
vn 0.000000 -1.000000 0.000000
vn 0.000000 -1.000000 0.000000
vn 0.000000 -1.000000 0.000000
vn 0.000000 -0.707098 0.707116
vn 0.000000 -0.707098 0.707116
vn 0.000000 -0.707098 0.707116
vn 0.000000 -0.707098 0.707116
vn 0.000000 -0.707098 0.707116
vn 0.000000 -0.707098 0.707116
vn -0.995393 -0.095878 0.000000
vn -0.707106 -0.707108 0.000000
vn -0.995393 -0.095878 0.000000
vn -0.995393 -0.095878 0.000000
vn -0.707106 -0.707108 0.000000
vn -0.707106 -0.707108 0.000000
vn -0.707106 -0.707108 0.000000
vn -0.016525 -0.999864 0.000000
vn -0.707106 -0.707108 0.000000
vn -0.707106 -0.707108 0.000000
vn -0.016525 -0.999864 0.000000
vn -0.016525 -0.999864 0.000000
vn 0.997581 0.069516 0.000000
vn 0.707107 0.707107 0.000000
vn 0.997581 0.069516 0.000000
vn 0.997581 0.069516 0.000000
vn 0.707107 0.707107 0.000000
vn 0.707107 0.707107 0.000000
vn 0.707107 0.707107 0.000000
vn 0.015508 0.999880 0.000000
vn 0.707107 0.707107 0.000000
vn 0.707107 0.707107 0.000000
vn 0.015508 0.999880 0.000000
vn 0.015508 0.999880 0.000000
vn 0.015508 0.999880 0.000000
vn 0.015508 0.999880 0.000000
vn 0.000000 1.000000 0.000000
vn 0.000000 1.000000 0.000000
vn 0.015508 0.999880 0.000000
vn 0.000000 1.000000 0.000000
vn -0.016525 -0.999864 0.000000
vn -0.016525 -0.999864 0.000000
vn 0.000000 -1.000000 0.000000
vn 0.000000 -1.000000 0.000000
vn -0.016525 -0.999864 0.000000
vn 0.000000 -1.000000 0.000000
vn 0.997581 0.069516 0.000000
vn 1.000000 0.000000 0.000000
vn 0.997581 0.069516 0.000000
vn 0.997581 0.069516 0.000000
vn 1.000000 0.000000 0.000000
vn 1.000000 0.000000 0.000000
vn -0.995393 -0.095878 0.000000
vn -0.995393 -0.095878 0.000000
vn -1.000000 0.000000 0.000000
vn -1.000000 0.000000 0.000000
vn -0.995393 -0.095878 0.000000
vn -1.000000 0.000000 0.000000
vn 0.000000 0.000000 1.000000
vn 0.000000 0.000000 1.000000
vn 0.000000 0.000000 1.000000
vn 0.000000 0.000000 1.000000
vn 0.000000 0.000000 1.000000
vn 0.000000 0.000000 1.000000
vn 0.000000 0.000000 1.000000
vn 0.000000 0.000000 1.000000
vn 0.000000 0.000000 1.000000
vn 0.000000 0.000000 1.000000
vn 0.000000 0.000000 1.000000
vn 0.000000 0.000000 1.000000
vn 0.707104 0.000000 0.707109
vn 0.663415 0.080484 0.743910
vn 0.707104 0.000000 0.707109
vn 0.707104 0.000000 0.707109
vn 0.663415 0.080484 0.743910
vn 0.691255 0.030696 0.721959
vn -0.707096 0.000000 0.707118
vn -0.707096 0.000000 0.707118
vn -0.685163 -0.041993 0.727178
vn -0.685163 -0.041993 0.727178
vn -0.707096 0.000000 0.707118
vn -0.651140 -0.101039 0.752202
vn -0.021813 -0.695941 0.717767
vn 0.000000 -0.707098 0.707115
vn -0.006757 -0.703697 0.710468
vn -0.006757 -0.703697 0.710468
vn 0.000000 -0.707098 0.707115
vn 0.000000 -0.707098 0.707115
vn 0.000000 0.707105 0.707109
vn 0.006379 0.703893 0.710277
vn 0.000000 0.707105 0.707109
vn 0.000000 0.707105 0.707109
vn 0.006379 0.703893 0.710277
vn 0.020667 0.696543 0.717217
vn 0.408236 0.408242 0.816506
vn 0.408236 0.408242 0.816506
vn 0.663415 0.080484 0.743910
vn 0.663415 0.080484 0.743910
vn 0.408236 0.408242 0.816506
vn 0.691255 0.030696 0.721959
vn 0.408236 0.408242 0.816506
vn 0.020667 0.696543 0.717217
vn 0.408236 0.408242 0.816506
vn 0.408236 0.408242 0.816506
vn 0.020667 0.696543 0.717217
vn 0.006379 0.703893 0.710277
vn 0.000000 0.000000 1.000000
vn 0.000000 0.000000 1.000000
vn 0.000000 0.000000 1.000000
vn 0.000000 0.000000 1.000000
vn 0.000000 0.000000 1.000000
vn 0.000000 0.000000 1.000000
vn 0.000000 0.000000 1.000000
vn 0.000000 0.000000 1.000000
vn 0.000000 0.000000 1.000000
vn 0.000000 0.000000 1.000000
vn 0.000000 0.000000 1.000000
vn 0.000000 0.000000 1.000000
vn -0.006757 -0.703697 0.710468
vn -0.408242 -0.408247 0.816500
vn -0.021813 -0.695941 0.717767
vn -0.021813 -0.695941 0.717767
vn -0.408242 -0.408247 0.816500
vn -0.408242 -0.408247 0.816500
vn -0.685163 -0.041993 0.727178
vn -0.651140 -0.101039 0.752202
vn -0.408242 -0.408247 0.816500
vn -0.408242 -0.408247 0.816500
vn -0.651140 -0.101039 0.752202
vn -0.408242 -0.408247 0.816500
vn 0.000000 -1.000000 0.000000
vn 0.000000 -1.000000 0.000000
vn 0.000000 -1.000000 0.000000
vn 0.000000 -1.000000 0.000000
vn 0.000000 -1.000000 0.000000
vn 0.000000 -1.000000 0.000000
vn 0.000000 -0.707097 0.707117
vn 0.000000 -0.707097 0.707117
vn 0.000000 -0.707097 0.707117
vn 0.000000 -0.707097 0.707117
vn 0.000000 -0.707097 0.707117
vn 0.000000 -0.707097 0.707117
vn 0.995393 -0.095878 0.000000
vn 0.995393 -0.095878 0.000000
vn 0.707106 -0.707108 0.000000
vn 0.707106 -0.707108 0.000000
vn 0.995393 -0.095878 0.000000
vn 0.707106 -0.707108 0.000000
vn 0.707106 -0.707108 0.000000
vn 0.707106 -0.707108 0.000000
vn 0.016525 -0.999864 0.000000
vn 0.016525 -0.999864 0.000000
vn 0.707106 -0.707108 0.000000
vn 0.016525 -0.999864 0.000000
vn -0.997581 0.069516 0.000000
vn -0.997581 0.069516 0.000000
vn -0.707107 0.707107 0.000000
vn -0.707107 0.707107 0.000000
vn -0.997581 0.069516 0.000000
vn -0.707107 0.707107 0.000000
vn -0.707107 0.707107 0.000000
vn -0.707107 0.707107 0.000000
vn -0.015508 0.999880 0.000000
vn -0.015508 0.999880 0.000000
vn -0.707107 0.707107 0.000000
vn -0.015508 0.999880 0.000000
vn -0.015508 0.999880 0.000000
vn 0.000000 1.000000 0.000000
vn -0.015508 0.999880 0.000000
vn -0.015508 0.999880 0.000000
vn 0.000000 1.000000 0.000000
vn 0.000000 1.000000 0.000000
vn 0.016525 -0.999864 0.000000
vn 0.000000 -1.000000 0.000000
vn 0.016525 -0.999864 0.000000
vn 0.016525 -0.999864 0.000000
vn 0.000000 -1.000000 0.000000
vn 0.000000 -1.000000 0.000000
vn -0.997581 0.069516 0.000000
vn -0.997581 0.069516 0.000000
vn -1.000000 0.000000 0.000000
vn -1.000000 0.000000 0.000000
vn -0.997581 0.069516 0.000000
vn -1.000000 0.000000 0.000000
vn 0.995393 -0.095878 0.000000
vn 1.000000 0.000000 0.000000
vn 0.995393 -0.095878 0.000000
vn 0.995393 -0.095878 0.000000
vn 1.000000 0.000000 0.000000
vn 1.000000 0.000000 0.000000
vn 0.000000 0.000000 1.000000
vn 0.000000 0.000000 1.000000
vn 0.000000 0.000000 1.000000
vn 0.000000 0.000000 1.000000
vn 0.000000 0.000000 1.000000
vn 0.000000 0.000000 1.000000
vn 0.000000 0.000000 1.000000
vn 0.000000 0.000000 1.000000
vn 0.000000 0.000000 1.000000
vn 0.000000 0.000000 1.000000
vn 0.000000 0.000000 1.000000
vn 0.000000 0.000000 1.000000
vn -0.707107 0.000000 0.707106
vn -0.707107 0.000000 0.707106
vn -0.663419 0.080485 0.743906
vn -0.663419 0.080485 0.743906
vn -0.707107 0.000000 0.707106
vn -0.691259 0.030697 0.721955
vn 0.651138 -0.101039 0.752204
vn 0.707091 0.000000 0.707123
vn 0.685159 -0.041993 0.727182
vn 0.685159 -0.041993 0.727182
vn 0.707091 0.000000 0.707123
vn 0.707091 0.000000 0.707123
vn 0.021813 -0.695939 0.717770
vn 0.006757 -0.703694 0.710471
vn 0.000000 -0.707098 0.707115
vn 0.000000 -0.707098 0.707115
vn 0.006757 -0.703694 0.710471
vn 0.000000 -0.707098 0.707115
vn 0.000000 0.707105 0.707109
vn 0.000000 0.707105 0.707109
vn -0.006379 0.703893 0.710277
vn -0.006379 0.703893 0.710277
vn 0.000000 0.707105 0.707109
vn -0.020667 0.696543 0.717217
vn -0.691259 0.030697 0.721955
vn -0.408240 0.408241 0.816504
vn -0.663419 0.080485 0.743906
vn -0.663419 0.080485 0.743906
vn -0.408240 0.408241 0.816504
vn -0.408240 0.408241 0.816504
vn -0.408240 0.408241 0.816504
vn -0.408240 0.408241 0.816504
vn -0.020667 0.696543 0.717217
vn -0.020667 0.696543 0.717217
vn -0.408240 0.408241 0.816504
vn -0.006379 0.703893 0.710277
vn 0.000000 0.000000 1.000000
vn -0.000001 0.000000 1.000000
vn 0.000000 0.000000 1.000000
vn 0.000000 0.000000 1.000000
vn -0.000001 0.000000 1.000000
vn -0.000001 0.000000 1.000000
vn -0.000001 0.000000 1.000000
vn -0.000001 0.000000 1.000000
vn 0.000000 0.000000 1.000000
vn 0.000000 0.000000 1.000000
vn -0.000001 0.000000 1.000000
vn 0.000000 0.000000 1.000000
vn 0.006757 -0.703694 0.710471
vn 0.021813 -0.695939 0.717770
vn 0.408242 -0.408246 0.816501
vn 0.408242 -0.408246 0.816501
vn 0.021813 -0.695939 0.717770
vn 0.408243 -0.408245 0.816501
vn 0.408243 -0.408245 0.816501
vn 0.651138 -0.101039 0.752204
vn 0.408242 -0.408246 0.816501
vn 0.408242 -0.408246 0.816501
vn 0.651138 -0.101039 0.752204
vn 0.685159 -0.041993 0.727182
s off
g Tele2:polySurface3PC_Scene
usemtl Tele2:lambert3SG
f 33/59/145 34/60/146 37/61/147
f 37/61/148 34/60/149 38/62/150
f 33/59/151 37/61/152 39/63/153
f 39/63/154 37/61/155 40/64/156
f 45/65/157 44/66/158 46/67/159
f 46/67/160 44/66/161 47/68/162
f 44/69/163 43/70/164 47/71/165
f 47/71/166 43/70/167 48/72/168
f 51/73/169 50/74/170 52/75/171
f 52/75/172 50/74/173 53/76/174
f 50/77/175 49/78/176 53/79/177
f 53/79/178 49/78/179 54/80/180
f 54/80/181 49/78/182 36/81/183
f 36/81/184 49/78/185 35/82/186
f 48/72/187 43/70/188 32/83/189
f 32/83/190 43/70/191 31/84/192
f 52/75/193 37/85/194 51/73/195
f 51/73/196 37/85/197 38/86/198
f 45/65/199 46/67/200 33/87/201
f 33/87/202 46/67/203 34/88/204
f 39/89/205 40/90/206 58/91/207
f 58/91/208 40/90/209 55/92/210
f 41/93/211 60/94/212 42/95/213
f 42/95/214 60/94/215 57/96/216
f 37/85/217 52/75/218 40/97/219
f 40/97/220 52/75/221 55/98/222
f 33/87/223 39/99/224 45/65/225
f 45/65/226 39/99/227 58/100/228
f 60/101/229 41/102/230 43/70/231
f 43/70/232 41/102/233 31/84/234
f 42/103/235 57/104/236 36/81/237
f 36/81/238 57/104/239 54/80/240
f 53/76/241 56/105/242 52/75/243
f 52/75/244 56/105/245 55/98/246
f 53/79/247 54/80/248 56/106/249
f 56/106/250 54/80/251 57/104/252
f 56/107/253 59/108/254 55/92/255
f 55/92/256 59/108/257 58/91/258
f 56/107/259 57/96/260 59/108/261
f 59/108/262 57/96/263 60/94/264
f 43/70/265 44/69/266 60/101/267
f 60/101/268 44/69/269 59/109/270
f 45/65/271 58/100/272 44/66/273
f 44/66/274 58/100/275 59/110/276
f 61/111/277 63/112/278 62/113/279
f 62/113/280 63/112/281 64/114/282
usemtl Tele2:PC_SceneSG
f 61/111/283 65/115/284 63/112/285
f 63/112/286 65/115/287 66/116/288
usemtl Tele2:lambert3SG
f 69/117/289 70/118/290 68/119/291
f 68/119/292 70/118/293 71/120/294
f 68/121/295 71/122/296 67/123/297
f 67/123/298 71/122/299 72/124/300
f 75/125/301 76/126/302 74/127/303
f 74/127/304 76/126/305 77/128/306
f 74/129/307 77/130/308 73/131/309
f 73/131/310 77/130/311 78/132/312
f 78/132/313 36/133/314 73/131/315
f 73/131/316 36/133/317 35/134/318
f 72/124/319 32/135/320 67/123/321
f 67/123/322 32/135/323 31/136/324
f 76/126/325 75/125/326 63/137/327
f 63/137/328 75/125/329 64/138/330
f 69/117/331 61/139/332 70/118/333
f 70/118/334 61/139/335 62/140/336
f 65/141/337 82/142/338 66/143/339
f 66/143/340 82/142/341 79/144/342
f 81/145/343 84/146/344 42/95/345
f 42/95/346 84/146/347 41/93/348
f 63/137/349 66/147/350 76/126/351
f 76/126/352 66/147/353 79/148/354
usemtl Tele2:PC_SceneSG
f 82/142/355 65/141/356 69/149/357
f 69/149/358 65/141/359 61/150/360
usemtl Tele2:lambert3SG
f 84/151/361 67/123/362 41/152/363
f 41/152/364 67/123/365 31/136/366
f 42/153/367 36/133/368 81/154/369
f 81/154/370 36/133/371 78/132/372
f 79/148/373 80/155/374 76/126/375
f 76/126/376 80/155/377 77/128/378
f 77/130/379 80/156/380 78/132/381
f 78/132/382 80/156/383 81/154/384
f 82/142/385 83/157/386 79/144/387
f 79/144/388 83/157/389 80/158/390
f 80/158/391 83/157/392 81/145/393
f 81/145/394 83/157/395 84/146/396
f 67/123/397 84/151/398 68/121/399
f 68/121/400 84/151/401 83/159/402
usemtl Tele2:PC_SceneSG
f 83/160/403 82/161/404 68/119/405
f 68/119/406 82/161/407 69/117/408
g default
v -2.972177 2.733328 -6.857977
v -2.972177 2.733328 -7.000002
v -2.422177 2.183327 -6.857977
v -2.422177 2.183327 -7.000002
v -3.163951 2.733328 -7.000002
v -3.163951 2.733328 -6.857977
v -2.422177 1.991553 -6.857977
v -2.422177 1.991553 -7.000002
v -2.442177 2.163327 -6.837977
v -2.442177 2.011553 -6.837977
v -2.992177 2.713328 -6.837977
v -3.143951 2.713328 -6.837977
v -2.972177 2.348311 -6.857977
v -2.923854 2.231649 -6.857977
v -2.807193 2.183327 -6.857977
v -2.807193 2.183327 -7.000002
v -2.923854 2.231649 -7.000002
v -2.972177 2.348311 -7.000002
v -3.163951 2.156537 -7.000002
v -3.115629 2.039876 -7.000002
v -2.998968 1.991553 -7.000002
v -2.998968 1.991553 -6.857977
v -3.115629 2.039876 -6.857977
v -3.163951 2.156537 -6.857977
v -2.978968 2.011553 -6.837977
v -3.095629 2.059876 -6.837977
v -3.143951 2.176537 -6.837977
v -2.827193 2.163327 -6.837977
v -2.943854 2.211649 -6.837977
v -2.992177 2.328311 -6.837977
vt 0.027289 0.969513
vt 0.027289 0.974868
vt 0.023324 0.969513
vt 0.023324 0.974868
vt 0.023324 0.969513
vt 0.023324 0.974868
vt 0.027289 0.969513
vt 0.027289 0.974868
vt 0.022765 0.970071
vt 0.022765 0.974309
vt 0.022765 0.974309
vt 0.022765 0.970071
vt 0.029234 0.954715
vt 0.029234 0.958680
vt 0.032491 0.954715
vt 0.032491 0.958680
vt 0.008796 0.958249
vt 0.012897 0.958249
vt 0.008796 0.961619
vt 0.012897 0.961619
vt 0.031933 0.967442
vt 0.031933 0.963476
vt 0.035190 0.967442
vt 0.035190 0.963476
vt 0.021659 0.968083
vt 0.017693 0.968083
vt 0.021659 0.971340
vt 0.017693 0.971340
vt 0.017693 0.982090
vt 0.021659 0.982090
vt 0.012897 0.978274
vt 0.008796 0.978274
vt 0.021183 0.963476
vt 0.021183 0.967442
vt 0.013130 0.954715
vt 0.013130 0.958680
vt 0.032491 0.958680
vt 0.017504 0.958680
vt 0.032491 0.962918
vt 0.021741 0.962918
vt 0.017135 0.967525
vt 0.012897 0.963287
vt 0.017135 0.978274
vt 0.012897 0.978274
vt 0.021741 0.962918
vt 0.032491 0.962918
vt 0.028676 0.954157
vt 0.013688 0.954157
vt 0.008218 0.962196
vt 0.008218 0.977697
vt 0.017135 0.981532
vt 0.017135 0.970782
vt 0.035749 0.962918
vt 0.017135 0.967525
vt 0.014246 0.960029
vt 0.018484 0.964267
vt 0.008218 0.958827
vt 0.031933 0.954157
vn 0.000000 1.000000 0.000000
vn 0.000000 1.000000 0.000000
vn 0.000000 1.000000 0.000000
vn 0.000000 1.000000 0.000000
vn 0.000000 1.000000 0.000000
vn 0.000000 1.000000 0.000000
vn 1.000000 0.000000 0.000000
vn 1.000000 0.000000 0.000000
vn 1.000000 0.000000 0.000000
vn 1.000000 0.000000 0.000000
vn 1.000000 0.000000 0.000000
vn 1.000000 0.000000 0.000000
vn 0.707096 0.000000 0.707117
vn 0.707097 0.000000 0.707117
vn 0.707096 0.000000 0.707117
vn 0.707096 0.000000 0.707117
vn 0.707097 0.000000 0.707117
vn 0.707097 0.000000 0.707117
vn 0.000000 0.707103 0.707110
vn 0.000000 0.707103 0.707110
vn 0.000000 0.707103 0.707110
vn 0.000000 0.707103 0.707110
vn 0.000000 0.707103 0.707110
vn 0.000000 0.707103 0.707110
vn 0.095878 0.995393 0.000000
vn 0.095878 0.995393 0.000000
vn 0.707108 0.707106 0.000000
vn 0.707108 0.707106 0.000000
vn 0.095878 0.995393 0.000000
vn 0.707108 0.707106 0.000000
vn 0.707108 0.707106 0.000000
vn 0.707108 0.707106 0.000000
vn 0.995393 0.095878 0.000000
vn 0.995393 0.095878 0.000000
vn 0.707108 0.707106 0.000000
vn 0.995393 0.095878 0.000000
vn -0.069515 -0.997581 0.000000
vn -0.069515 -0.997581 0.000000
vn -0.707107 -0.707107 0.000000
vn -0.707107 -0.707107 0.000000
vn -0.069515 -0.997581 0.000000
vn -0.707107 -0.707107 0.000000
vn -0.707107 -0.707107 0.000000
vn -0.707107 -0.707107 0.000000
vn -0.997581 -0.069515 0.000000
vn -0.997581 -0.069515 0.000000
vn -0.707107 -0.707107 0.000000
vn -0.997581 -0.069515 0.000000
vn -0.997581 -0.069515 0.000000
vn -1.000000 0.000000 0.000000
vn -0.997581 -0.069515 0.000000
vn -0.997581 -0.069515 0.000000
vn -1.000000 0.000000 0.000000
vn -1.000000 0.000000 0.000000
vn 0.995393 0.095878 0.000000
vn 1.000000 0.000000 0.000000
vn 0.995393 0.095878 0.000000
vn 0.995393 0.095878 0.000000
vn 1.000000 0.000000 0.000000
vn 1.000000 0.000000 0.000000
vn -0.069515 -0.997581 0.000000
vn -0.069515 -0.997581 0.000000
vn 0.000000 -1.000000 0.000000
vn 0.000000 -1.000000 0.000000
vn -0.069515 -0.997581 0.000000
vn 0.000000 -1.000000 0.000000
vn 0.095878 0.995393 0.000000
vn 0.000000 1.000000 0.000000
vn 0.095878 0.995393 0.000000
vn 0.095878 0.995393 0.000000
vn 0.000000 1.000000 0.000000
vn 0.000000 1.000000 0.000000
vn 0.000000 0.000000 1.000000
vn -0.000001 0.000000 1.000000
vn 0.000000 0.000000 1.000000
vn 0.000000 0.000000 1.000000
vn -0.000001 0.000000 1.000000
vn -0.000002 0.000000 1.000000
vn -0.000002 0.000000 1.000000
vn -0.000003 0.000000 1.000000
vn -0.000003 0.000000 1.000000
vn -0.000003 0.000000 1.000000
vn -0.000003 0.000000 1.000000
vn -0.000003 0.000000 1.000000
vn 0.000000 -0.707094 0.707119
vn 0.000000 -0.707094 0.707119
vn -0.080488 -0.663409 0.743916
vn -0.080488 -0.663409 0.743916
vn 0.000000 -0.707094 0.707119
vn -0.030698 -0.691246 0.721967
vn 0.101039 0.651144 0.752199
vn 0.000000 0.707098 0.707115
vn 0.041993 0.685166 0.727175
vn 0.041993 0.685166 0.727175
vn 0.000000 0.707098 0.707115
vn 0.000000 0.707098 0.707115
vn 0.651144 0.101038 0.752199
vn 0.685168 0.041993 0.727174
vn 0.707101 0.000000 0.707113
vn 0.707101 0.000000 0.707113
vn 0.685168 0.041993 0.727174
vn 0.707101 0.000000 0.707113
vn -0.707099 0.000000 0.707114
vn -0.707099 0.000000 0.707114
vn -0.691251 -0.030696 0.721962
vn -0.691251 -0.030696 0.721962
vn -0.707099 0.000000 0.707114
vn -0.663413 -0.080485 0.743912
vn -0.030698 -0.691246 0.721967
vn -0.408247 -0.408242 0.816500
vn -0.080488 -0.663409 0.743916
vn -0.080488 -0.663409 0.743916
vn -0.408247 -0.408242 0.816500
vn -0.408246 -0.408243 0.816500
vn -0.408246 -0.408243 0.816500
vn -0.408247 -0.408242 0.816500
vn -0.663413 -0.080485 0.743912
vn -0.663413 -0.080485 0.743912
vn -0.408247 -0.408242 0.816500
vn -0.691251 -0.030696 0.721962
vn -0.000001 0.000000 1.000000
vn -0.000002 0.000000 1.000000
vn -0.000002 0.000000 1.000000
vn -0.000002 0.000000 1.000000
vn -0.000002 0.000000 1.000000
vn -0.000002 0.000000 1.000000
vn -0.000002 0.000000 1.000000
vn -0.000002 0.000000 1.000000
vn -0.000002 0.000000 1.000000
vn -0.000002 0.000000 1.000000
vn -0.000002 0.000000 1.000000
vn -0.000003 0.000000 1.000000
vn 0.685168 0.041993 0.727174
vn 0.651144 0.101038 0.752199
vn 0.408242 0.408242 0.816503
vn 0.408242 0.408242 0.816503
vn 0.651144 0.101038 0.752199
vn 0.408242 0.408242 0.816503
vn 0.408242 0.408242 0.816503
vn 0.101039 0.651144 0.752199
vn 0.408242 0.408242 0.816503
vn 0.408242 0.408242 0.816503
vn 0.101039 0.651144 0.752199
vn 0.041993 0.685166 0.727175
s off
g Tele2:PC_ScenepolySurface5
usemtl Tele2:lambert3SG
f 86/162/409 89/163/410 85/164/411
f 85/164/412 89/163/413 90/165/414
f 87/166/415 91/167/416 88/168/417
f 88/168/418 91/167/419 92/169/420
f 87/166/421 93/170/422 91/167/423
f 91/167/424 93/170/425 94/171/426
f 90/165/427 96/172/428 85/164/429
f 85/164/430 96/172/431 95/173/432
f 99/174/433 100/175/434 98/176/435
f 98/176/436 100/175/437 101/177/438
f 98/178/439 101/179/440 97/180/441
f 97/180/442 101/179/443 102/181/444
f 105/182/445 106/183/446 104/184/447
f 104/184/448 106/183/449 107/185/450
f 104/186/451 107/187/452 103/188/453
f 103/188/454 107/187/455 108/189/456
f 108/189/457 90/190/458 103/188/459
f 103/188/460 90/190/461 89/191/462
f 102/181/463 86/192/464 97/180/465
f 97/180/466 86/192/467 85/193/468
f 106/183/469 105/182/470 91/194/471
f 91/194/472 105/182/473 92/195/474
f 99/174/475 87/196/476 100/175/477
f 100/175/478 87/196/479 88/197/480
f 93/198/481 112/199/482 94/200/483
f 94/200/484 112/199/485 109/201/486
f 111/202/487 114/203/488 96/204/489
f 96/204/490 114/203/491 95/205/492
f 91/194/493 94/206/494 106/183/495
f 106/183/496 94/206/497 109/207/498
f 112/208/499 93/209/500 99/174/501
f 99/174/502 93/209/503 87/196/504
f 114/210/505 97/180/506 95/211/507
f 95/211/508 97/180/509 85/193/510
f 96/212/511 90/190/512 111/213/513
f 111/213/514 90/190/515 108/189/516
f 109/207/517 110/214/518 106/183/519
f 106/183/520 110/214/521 107/185/522
f 107/187/523 110/215/524 108/189/525
f 108/189/526 110/215/527 111/213/528
f 112/199/529 113/216/530 109/201/531
f 109/201/532 113/216/533 110/217/534
f 110/217/535 113/216/536 111/202/537
f 111/202/538 113/216/539 114/203/540
f 97/180/541 114/210/542 98/178/543
f 98/178/544 114/210/545 113/218/546
f 113/219/547 112/208/548 98/176/549
f 98/176/550 112/208/551 99/174/552
g default
v 3.073411 2.062951 -6.944289
v 3.073411 5.308166 -6.944289
v -3.075088 5.308165 -6.944289
v -3.075088 2.062950 -6.944289
v 3.073411 5.308160 -6.868720
v 3.073411 2.062946 -6.868720
v -3.073432 2.062946 -6.868720
v -3.073432 5.308160 -6.868720
vt 0.323654 0.985873
vt 0.323654 0.960959
vt 0.324234 0.985873
vt 0.324234 0.960959
vt 0.276465 0.985873
vt 0.323654 0.985873
vt 0.276452 0.986453
vt 0.323654 0.986453
vt 0.276465 0.960959
vt 0.276465 0.985873
vt 0.275884 0.960959
vt 0.275884 0.985873
vt 0.323654 0.960379
vt 0.323654 0.960959
vt 0.276452 0.960379
vt 0.276465 0.960959
vn 1.000000 0.000000 0.000000
vn 1.000000 0.000000 0.000000
vn 1.000000 0.000000 0.000000
vn 1.000000 0.000000 0.000000
vn 1.000000 0.000000 0.000000
vn 1.000000 0.000000 0.000000
vn -0.000000 1.000000 -0.000001
vn -0.000000 1.000000 -0.000001
vn -0.000000 1.000000 -0.000001
vn -0.000000 1.000000 -0.000001
vn -0.000000 1.000000 -0.000001
vn -0.000000 1.000000 -0.000001
vn -0.999760 0.000000 0.021906
vn -0.999760 0.000000 0.021906
vn -0.999760 0.000000 0.021906
vn -0.999760 0.000000 0.021906
vn -0.999760 0.000000 0.021906
vn -0.999760 0.000000 0.021906
vn 0.000000 -1.000000 0.000010
vn 0.000000 -1.000000 0.000010
vn 0.000000 -1.000000 0.000010
vn 0.000000 -1.000000 0.000010
vn 0.000000 -1.000000 0.000010
vn 0.000000 -1.000000 0.000010
s off
g polySurface1 Tele2:PC_ScenepolySurface7
usemtl Tele2:lambert3SG
f 119/220/553 120/221/554 116/222/555
f 116/222/556 120/221/557 115/223/558
usemtl Tele2:PC_SceneSG
f 122/224/559 119/225/560 117/226/561
f 117/226/562 119/225/563 116/227/564
usemtl Tele2:lambert3SG
f 121/228/565 122/229/566 118/230/567
f 118/230/568 122/229/569 117/231/570
f 115/232/571 120/233/572 118/234/573
f 118/234/574 120/233/575 121/235/576
g default
v -2.972177 2.733328 -6.857977
v -2.972177 2.733328 -7.000002
v -2.422177 2.183327 -6.857977
v -2.422177 2.183327 -7.000002
v -3.163951 2.733328 -7.000002
v -3.163951 2.733328 -6.857977
v -2.422177 1.991553 -6.857977
v -2.422177 1.991553 -7.000002
v -2.442177 2.163327 -6.837977
v -2.442177 2.011553 -6.837977
v -2.992177 2.713328 -6.837977
v -3.143951 2.713328 -6.837977
v -2.972177 2.348311 -6.857977
v -2.923854 2.231649 -6.857977
v -2.807193 2.183327 -6.857977
v -2.807193 2.183327 -7.000002
v -2.923854 2.231649 -7.000002
v -2.972177 2.348311 -7.000002
v -3.163951 2.156537 -7.000002
v -3.115629 2.039876 -7.000002
v -2.998968 1.991553 -7.000002
v -2.998968 1.991553 -6.857977
v -3.115629 2.039876 -6.857977
v -3.163951 2.156537 -6.857977
v -2.978968 2.011553 -6.837977
v -3.095629 2.059876 -6.837977
v -3.143951 2.176537 -6.837977
v -2.827193 2.163327 -6.837977
v -2.943854 2.211649 -6.837977
v -2.992177 2.328311 -6.837977
vt 0.027289 0.969513
vt 0.027289 0.974868
vt 0.023324 0.969513
vt 0.023324 0.974868
vt 0.023324 0.969513
vt 0.023324 0.974868
vt 0.027289 0.969513
vt 0.027289 0.974868
vt 0.022765 0.970071
vt 0.022765 0.974309
vt 0.022765 0.974309
vt 0.022765 0.970071
vt 0.029234 0.954715
vt 0.029234 0.958680
vt 0.032491 0.954715
vt 0.032491 0.958680
vt 0.008796 0.958249
vt 0.012897 0.958249
vt 0.008796 0.961619
vt 0.012897 0.961619
vt 0.031933 0.967442
vt 0.031933 0.963476
vt 0.035190 0.967442
vt 0.035190 0.963476
vt 0.021659 0.968083
vt 0.017693 0.968083
vt 0.021659 0.971340
vt 0.017693 0.971340
vt 0.017693 0.982090
vt 0.021659 0.982090
vt 0.012897 0.978274
vt 0.008796 0.978274
vt 0.021183 0.963476
vt 0.021183 0.967442
vt 0.013130 0.954715
vt 0.013130 0.958680
vt 0.032491 0.958680
vt 0.017504 0.958680
vt 0.032491 0.962918
vt 0.021741 0.962918
vt 0.017135 0.967525
vt 0.012897 0.963287
vt 0.017135 0.978274
vt 0.012897 0.978274
vt 0.021741 0.962918
vt 0.032491 0.962918
vt 0.028676 0.954157
vt 0.013688 0.954157
vt 0.008218 0.962196
vt 0.008218 0.977697
vt 0.017135 0.981532
vt 0.017135 0.970782
vt 0.035749 0.962918
vt 0.017135 0.967525
vt 0.014246 0.960029
vt 0.018484 0.964267
vt 0.008218 0.958827
vt 0.031933 0.954157
vn 0.000000 1.000000 0.000000
vn 0.000000 1.000000 0.000000
vn 0.000000 1.000000 0.000000
vn 0.000000 1.000000 0.000000
vn 0.000000 1.000000 0.000000
vn 0.000000 1.000000 0.000000
vn 1.000000 0.000000 0.000000
vn 1.000000 0.000000 0.000000
vn 1.000000 0.000000 0.000000
vn 1.000000 0.000000 0.000000
vn 1.000000 0.000000 0.000000
vn 1.000000 0.000000 0.000000
vn 0.707096 0.000000 0.707117
vn 0.707097 0.000000 0.707117
vn 0.707096 0.000000 0.707117
vn 0.707096 0.000000 0.707117
vn 0.707097 0.000000 0.707117
vn 0.707097 0.000000 0.707117
vn 0.000000 0.707103 0.707110
vn 0.000000 0.707103 0.707110
vn 0.000000 0.707103 0.707110
vn 0.000000 0.707103 0.707110
vn 0.000000 0.707103 0.707110
vn 0.000000 0.707103 0.707110
vn 0.095878 0.995393 0.000000
vn 0.095878 0.995393 0.000000
vn 0.707108 0.707106 0.000000
vn 0.707108 0.707106 0.000000
vn 0.095878 0.995393 0.000000
vn 0.707108 0.707106 0.000000
vn 0.707108 0.707106 0.000000
vn 0.707108 0.707106 0.000000
vn 0.995393 0.095878 0.000000
vn 0.995393 0.095878 0.000000
vn 0.707108 0.707106 0.000000
vn 0.995393 0.095878 0.000000
vn -0.069515 -0.997581 0.000000
vn -0.069515 -0.997581 0.000000
vn -0.707107 -0.707107 0.000000
vn -0.707107 -0.707107 0.000000
vn -0.069515 -0.997581 0.000000
vn -0.707107 -0.707107 0.000000
vn -0.707107 -0.707107 0.000000
vn -0.707107 -0.707107 0.000000
vn -0.997581 -0.069515 0.000000
vn -0.997581 -0.069515 0.000000
vn -0.707107 -0.707107 0.000000
vn -0.997581 -0.069515 0.000000
vn -0.997581 -0.069515 0.000000
vn -1.000000 0.000000 0.000000
vn -0.997581 -0.069515 0.000000
vn -0.997581 -0.069515 0.000000
vn -1.000000 0.000000 0.000000
vn -1.000000 0.000000 0.000000
vn 0.995393 0.095878 0.000000
vn 1.000000 0.000000 0.000000
vn 0.995393 0.095878 0.000000
vn 0.995393 0.095878 0.000000
vn 1.000000 0.000000 0.000000
vn 1.000000 0.000000 0.000000
vn -0.069515 -0.997581 0.000000
vn -0.069515 -0.997581 0.000000
vn 0.000000 -1.000000 0.000000
vn 0.000000 -1.000000 0.000000
vn -0.069515 -0.997581 0.000000
vn 0.000000 -1.000000 0.000000
vn 0.095878 0.995393 0.000000
vn 0.000000 1.000000 0.000000
vn 0.095878 0.995393 0.000000
vn 0.095878 0.995393 0.000000
vn 0.000000 1.000000 0.000000
vn 0.000000 1.000000 0.000000
vn 0.000000 0.000000 1.000000
vn -0.000001 0.000000 1.000000
vn 0.000000 0.000000 1.000000
vn 0.000000 0.000000 1.000000
vn -0.000001 0.000000 1.000000
vn -0.000002 0.000000 1.000000
vn -0.000002 0.000000 1.000000
vn -0.000003 0.000000 1.000000
vn -0.000003 0.000000 1.000000
vn -0.000003 0.000000 1.000000
vn -0.000003 0.000000 1.000000
vn -0.000003 0.000000 1.000000
vn 0.000000 -0.707094 0.707119
vn 0.000000 -0.707094 0.707119
vn -0.080488 -0.663409 0.743916
vn -0.080488 -0.663409 0.743916
vn 0.000000 -0.707094 0.707119
vn -0.030698 -0.691246 0.721967
vn 0.101039 0.651144 0.752199
vn 0.000000 0.707098 0.707115
vn 0.041993 0.685166 0.727175
vn 0.041993 0.685166 0.727175
vn 0.000000 0.707098 0.707115
vn 0.000000 0.707098 0.707115
vn 0.651144 0.101038 0.752199
vn 0.685168 0.041993 0.727174
vn 0.707101 0.000000 0.707113
vn 0.707101 0.000000 0.707113
vn 0.685168 0.041993 0.727174
vn 0.707101 0.000000 0.707113
vn -0.707099 0.000000 0.707114
vn -0.707099 0.000000 0.707114
vn -0.691251 -0.030696 0.721962
vn -0.691251 -0.030696 0.721962
vn -0.707099 0.000000 0.707114
vn -0.663413 -0.080485 0.743912
vn -0.030698 -0.691246 0.721967
vn -0.408247 -0.408242 0.816500
vn -0.080488 -0.663409 0.743916
vn -0.080488 -0.663409 0.743916
vn -0.408247 -0.408242 0.816500
vn -0.408246 -0.408243 0.816500
vn -0.408246 -0.408243 0.816500
vn -0.408247 -0.408242 0.816500
vn -0.663413 -0.080485 0.743912
vn -0.663413 -0.080485 0.743912
vn -0.408247 -0.408242 0.816500
vn -0.691251 -0.030696 0.721962
vn -0.000001 0.000000 1.000000
vn -0.000002 0.000000 1.000000
vn -0.000002 0.000000 1.000000
vn -0.000002 0.000000 1.000000
vn -0.000002 0.000000 1.000000
vn -0.000002 0.000000 1.000000
vn -0.000002 0.000000 1.000000
vn -0.000002 0.000000 1.000000
vn -0.000002 0.000000 1.000000
vn -0.000002 0.000000 1.000000
vn -0.000002 0.000000 1.000000
vn -0.000003 0.000000 1.000000
vn 0.685168 0.041993 0.727174
vn 0.651144 0.101038 0.752199
vn 0.408242 0.408242 0.816503
vn 0.408242 0.408242 0.816503
vn 0.651144 0.101038 0.752199
vn 0.408242 0.408242 0.816503
vn 0.408242 0.408242 0.816503
vn 0.101039 0.651144 0.752199
vn 0.408242 0.408242 0.816503
vn 0.408242 0.408242 0.816503
vn 0.101039 0.651144 0.752199
vn 0.041993 0.685166 0.727175
s off
g Tele2:PC_ScenepolySurface12
usemtl Tele2:lambert3SG
f 124/236/577 127/237/578 123/238/579
f 123/238/580 127/237/581 128/239/582
f 125/240/583 129/241/584 126/242/585
f 126/242/586 129/241/587 130/243/588
f 125/240/589 131/244/590 129/241/591
f 129/241/592 131/244/593 132/245/594
f 128/239/595 134/246/596 123/238/597
f 123/238/598 134/246/599 133/247/600
f 137/248/601 138/249/602 136/250/603
f 136/250/604 138/249/605 139/251/606
f 136/252/607 139/253/608 135/254/609
f 135/254/610 139/253/611 140/255/612
f 143/256/613 144/257/614 142/258/615
f 142/258/616 144/257/617 145/259/618
f 142/260/619 145/261/620 141/262/621
f 141/262/622 145/261/623 146/263/624
f 146/263/625 128/264/626 141/262/627
f 141/262/628 128/264/629 127/265/630
f 140/255/631 124/266/632 135/254/633
f 135/254/634 124/266/635 123/267/636
f 144/257/637 143/256/638 129/268/639
f 129/268/640 143/256/641 130/269/642
f 137/248/643 125/270/644 138/249/645
f 138/249/646 125/270/647 126/271/648
f 131/272/649 150/273/650 132/274/651
f 132/274/652 150/273/653 147/275/654
f 149/276/655 152/277/656 134/278/657
f 134/278/658 152/277/659 133/279/660
f 129/268/661 132/280/662 144/257/663
f 144/257/664 132/280/665 147/281/666
f 150/282/667 131/283/668 137/248/669
f 137/248/670 131/283/671 125/270/672
f 152/284/673 135/254/674 133/285/675
f 133/285/676 135/254/677 123/267/678
f 134/286/679 128/264/680 149/287/681
f 149/287/682 128/264/683 146/263/684
f 147/281/685 148/288/686 144/257/687
f 144/257/688 148/288/689 145/259/690
f 145/261/691 148/289/692 146/263/693
f 146/263/694 148/289/695 149/287/696
f 150/273/697 151/290/698 147/275/699
f 147/275/700 151/290/701 148/291/702
f 148/291/703 151/290/704 149/276/705
f 149/276/706 151/290/707 152/277/708
f 135/254/709 152/284/710 136/252/711
f 136/252/712 152/284/713 151/292/714
f 151/293/715 150/282/716 136/250/717
f 136/250/718 150/282/719 137/248/720
g default
v 0.000000 5.187788 -6.857977
v 0.000000 5.187788 -7.000002
v 2.972178 4.637789 -6.857977
v 2.972178 4.637789 -7.000002
v 0.000000 5.379563 -7.000002
v 0.000000 5.379563 -6.857977
v 3.163951 4.637789 -6.857977
v 3.163951 4.637789 -7.000002
v 2.992177 4.657789 -6.837977
v 3.143951 4.657789 -6.837977
v 0.000000 5.207788 -6.837977
v 0.000000 5.359563 -6.837977
v 2.807194 5.187788 -6.857977
v 2.923855 5.139466 -6.857977
v 2.972178 5.022805 -6.857977
v 2.972178 5.022805 -7.000002
v 2.923855 5.139466 -7.000002
v 2.807194 5.187788 -7.000002
v 2.998968 5.379563 -7.000002
v 3.115629 5.331241 -7.000002
v 3.163951 5.214580 -7.000002
v 3.163951 5.214580 -6.857977
v 3.115629 5.331241 -6.857977
v 2.998968 5.379563 -6.857977
v 3.143951 5.194580 -6.837977
v 3.095629 5.311241 -6.837977
v 2.978968 5.359563 -6.837977
v 2.992177 5.042805 -6.837977
v 2.943855 5.159466 -6.837977
v 2.827194 5.207788 -6.837977
v -2.972178 4.637789 -6.857977
v -2.972178 4.637789 -7.000002
v -3.163951 4.637789 -6.857977
v -3.163951 4.637789 -7.000002
v -2.992177 4.657789 -6.837977
v -3.143951 4.657789 -6.837977
v -2.807194 5.187788 -6.857977
v -2.923855 5.139466 -6.857977
v -2.972178 5.022805 -6.857977
v -2.972178 5.022805 -7.000002
v -2.923855 5.139466 -7.000002
v -2.807194 5.187788 -7.000002
v -2.998968 5.379563 -7.000002
v -3.115629 5.331241 -7.000002
v -3.163951 5.214580 -7.000002
v -3.163951 5.214580 -6.857977
v -3.115629 5.331241 -6.857977
v -2.998968 5.379563 -6.857977
v -3.143951 5.194580 -6.837977
v -3.095629 5.311241 -6.837977
v -2.978968 5.359563 -6.837977
v -2.992177 5.042805 -6.837977
v -2.943855 5.159466 -6.837977
v -2.827194 5.207788 -6.837977
vt 0.120438 0.981839
vt 0.115211 0.981839
vt 0.120438 0.974780
vt 0.115211 0.974780
vt 0.121175 0.981103
vt 0.121175 0.975517
vt 0.120473 0.982950
vt 0.120473 0.987309
vt 0.115165 0.982950
vt 0.115165 0.987309
vt 0.117677 0.990467
vt 0.113479 0.990467
vt 0.117677 0.985356
vt 0.113479 0.985356
vt 0.121207 0.986872
vt 0.121207 0.991213
vt 0.115922 0.986872
vt 0.115922 0.991213
vt 0.009381 0.985356
vt 0.013579 0.985356
vt 0.009381 0.990467
vt 0.013579 0.990467
vt 0.121487 0.990467
vt 0.121487 0.985356
vt 0.012472 0.985356
vt 0.012472 0.990467
vt 0.115922 0.965407
vt 0.121207 0.965407
vt 0.120473 0.968563
vt 0.115165 0.968563
vt 0.027709 0.024137
vt 0.027709 -0.000000
vt 0.561140 0.024137
vt 0.771420 -0.000000
vt 0.789720 0.500000
vt 0.789720 0.050376
vt 1.000000 0.500000
vt 1.000000 0.026238
vt 0.115178 0.966151
vt 0.115178 0.986127
vt 0.121220 0.969310
vt 0.121220 0.983697
vt 0.114199 0.991186
vt 0.012472 0.991186
vt 0.121487 0.991186
vt 0.014299 0.991186
vt 0.115178 0.990469
vt 0.010101 0.991186
vt 0.933051 0.007685
vt 0.722771 0.031822
vt 0.118397 0.991186
vt 0.121220 0.988057
vt 0.120438 0.981839
vt 0.120438 0.974780
vt 0.115211 0.981839
vt 0.115211 0.974780
vt 0.121175 0.981103
vt 0.121175 0.975517
vt 0.120473 0.982950
vt 0.115165 0.982950
vt 0.120473 0.987309
vt 0.115165 0.987309
vt 0.117677 0.990467
vt 0.117677 0.985356
vt 0.113479 0.990467
vt 0.113479 0.985356
vt 0.121207 0.986872
vt 0.115922 0.986872
vt 0.121207 0.991213
vt 0.115922 0.991213
vt 0.009381 0.985356
vt 0.009381 0.990467
vt 0.013579 0.985356
vt 0.013579 0.990467
vt 0.121487 0.990467
vt 0.121487 0.985356
vt 0.012472 0.985356
vt 0.012472 0.990467
vt 0.115922 0.965407
vt 0.121207 0.965407
vt 0.120473 0.968563
vt 0.115165 0.968563
vt 0.027709 0.975863
vt 0.561140 0.975863
vt 0.027709 1.000000
vt 0.771420 1.000000
vt 1.000000 0.973762
vt 0.789720 0.949624
vt 0.115178 0.966151
vt 0.115178 0.986127
vt 0.533430 0.972424
vt -0.000000 0.972424
vt 0.114199 0.991186
vt 0.012472 0.991186
vt 0.121487 0.991186
vt 0.014299 0.991186
vt 0.115178 0.990469
vt 0.010101 0.991186
vt 0.722771 0.968178
vt 0.933051 0.992315
vt 0.118397 0.991186
vt 0.121220 0.988057
vt 0.121220 0.983697
vn 0.000000 -1.000000 0.000000
vn 0.000000 -1.000000 0.000000
vn 0.000000 -1.000000 0.000000
vn 0.000000 -1.000000 0.000000
vn 0.000000 -1.000000 0.000000
vn 0.000000 -1.000000 0.000000
vn 0.000000 -0.707098 0.707116
vn 0.000000 -0.707098 0.707116
vn 0.000000 -0.707098 0.707116
vn 0.000000 -0.707098 0.707116
vn 0.000000 -0.707098 0.707116
vn 0.000000 -0.707098 0.707116
vn -0.995393 -0.095878 0.000000
vn -0.707106 -0.707108 0.000000
vn -0.995393 -0.095878 0.000000
vn -0.995393 -0.095878 0.000000
vn -0.707106 -0.707108 0.000000
vn -0.707106 -0.707108 0.000000
vn -0.707106 -0.707108 0.000000
vn -0.016525 -0.999864 0.000000
vn -0.707106 -0.707108 0.000000
vn -0.707106 -0.707108 0.000000
vn -0.016525 -0.999864 0.000000
vn -0.016525 -0.999864 0.000000
vn 0.997581 0.069516 0.000000
vn 0.707107 0.707107 0.000000
vn 0.997581 0.069516 0.000000
vn 0.997581 0.069516 0.000000
vn 0.707107 0.707107 0.000000
vn 0.707107 0.707107 0.000000
vn 0.707107 0.707107 0.000000
vn 0.015508 0.999880 0.000000
vn 0.707107 0.707107 0.000000
vn 0.707107 0.707107 0.000000
vn 0.015508 0.999880 0.000000
vn 0.015508 0.999880 0.000000
vn 0.015508 0.999880 0.000000
vn 0.015508 0.999880 0.000000
vn 0.000000 1.000000 0.000000
vn 0.000000 1.000000 0.000000
vn 0.015508 0.999880 0.000000
vn 0.000000 1.000000 0.000000
vn -0.016525 -0.999864 0.000000
vn -0.016525 -0.999864 0.000000
vn 0.000000 -1.000000 0.000000
vn 0.000000 -1.000000 0.000000
vn -0.016525 -0.999864 0.000000
vn 0.000000 -1.000000 0.000000
vn 0.997581 0.069516 0.000000
vn 1.000000 0.000000 0.000000
vn 0.997581 0.069516 0.000000
vn 0.997581 0.069516 0.000000
vn 1.000000 0.000000 0.000000
vn 1.000000 0.000000 0.000000
vn -0.995393 -0.095878 0.000000
vn -0.995393 -0.095878 0.000000
vn -1.000000 0.000000 0.000000
vn -1.000000 0.000000 0.000000
vn -0.995393 -0.095878 0.000000
vn -1.000000 0.000000 0.000000
vn 0.000000 0.000000 1.000000
vn 0.000000 0.000000 1.000000
vn 0.000000 0.000000 1.000000
vn 0.000000 0.000000 1.000000
vn 0.000000 0.000000 1.000000
vn 0.000000 0.000000 1.000000
vn 0.000000 0.000000 1.000000
vn 0.000000 0.000000 1.000000
vn 0.000000 0.000000 1.000000
vn 0.000000 0.000000 1.000000
vn 0.000000 0.000000 1.000000
vn 0.000000 0.000000 1.000000
vn 0.707104 0.000000 0.707109
vn 0.663415 0.080484 0.743910
vn 0.707104 0.000000 0.707109
vn 0.707104 0.000000 0.707109
vn 0.663415 0.080484 0.743910
vn 0.691255 0.030696 0.721959
vn -0.707096 0.000000 0.707118
vn -0.707096 0.000000 0.707118
vn -0.685163 -0.041993 0.727178
vn -0.685163 -0.041993 0.727178
vn -0.707096 0.000000 0.707118
vn -0.651140 -0.101039 0.752202
vn -0.021813 -0.695941 0.717767
vn 0.000000 -0.707098 0.707115
vn -0.006757 -0.703697 0.710468
vn -0.006757 -0.703697 0.710468
vn 0.000000 -0.707098 0.707115
vn 0.000000 -0.707098 0.707115
vn 0.000000 0.707105 0.707109
vn 0.006379 0.703893 0.710277
vn 0.000000 0.707105 0.707109
vn 0.000000 0.707105 0.707109
vn 0.006379 0.703893 0.710277
vn 0.020667 0.696543 0.717217
vn 0.408236 0.408242 0.816506
vn 0.408236 0.408242 0.816506
vn 0.663415 0.080484 0.743910
vn 0.663415 0.080484 0.743910
vn 0.408236 0.408242 0.816506
vn 0.691255 0.030696 0.721959
vn 0.408236 0.408242 0.816506
vn 0.020667 0.696543 0.717217
vn 0.408236 0.408242 0.816506
vn 0.408236 0.408242 0.816506
vn 0.020667 0.696543 0.717217
vn 0.006379 0.703893 0.710277
vn 0.000000 0.000000 1.000000
vn 0.000000 0.000000 1.000000
vn 0.000000 0.000000 1.000000
vn 0.000000 0.000000 1.000000
vn 0.000000 0.000000 1.000000
vn 0.000000 0.000000 1.000000
vn 0.000000 0.000000 1.000000
vn 0.000000 0.000000 1.000000
vn 0.000000 0.000000 1.000000
vn 0.000000 0.000000 1.000000
vn 0.000000 0.000000 1.000000
vn 0.000000 0.000000 1.000000
vn -0.006757 -0.703697 0.710468
vn -0.408242 -0.408247 0.816500
vn -0.021813 -0.695941 0.717767
vn -0.021813 -0.695941 0.717767
vn -0.408242 -0.408247 0.816500
vn -0.408242 -0.408247 0.816500
vn -0.685163 -0.041993 0.727178
vn -0.651140 -0.101039 0.752202
vn -0.408242 -0.408247 0.816500
vn -0.408242 -0.408247 0.816500
vn -0.651140 -0.101039 0.752202
vn -0.408242 -0.408247 0.816500
vn 0.000000 -1.000000 0.000000
vn 0.000000 -1.000000 0.000000
vn 0.000000 -1.000000 0.000000
vn 0.000000 -1.000000 0.000000
vn 0.000000 -1.000000 0.000000
vn 0.000000 -1.000000 0.000000
vn 0.000000 -0.707097 0.707117
vn 0.000000 -0.707097 0.707117
vn 0.000000 -0.707097 0.707117
vn 0.000000 -0.707097 0.707117
vn 0.000000 -0.707097 0.707117
vn 0.000000 -0.707097 0.707117
vn 0.995393 -0.095878 0.000000
vn 0.995393 -0.095878 0.000000
vn 0.707106 -0.707108 0.000000
vn 0.707106 -0.707108 0.000000
vn 0.995393 -0.095878 0.000000
vn 0.707106 -0.707108 0.000000
vn 0.707106 -0.707108 0.000000
vn 0.707106 -0.707108 0.000000
vn 0.016525 -0.999864 0.000000
vn 0.016525 -0.999864 0.000000
vn 0.707106 -0.707108 0.000000
vn 0.016525 -0.999864 0.000000
vn -0.997581 0.069516 0.000000
vn -0.997581 0.069516 0.000000
vn -0.707107 0.707107 0.000000
vn -0.707107 0.707107 0.000000
vn -0.997581 0.069516 0.000000
vn -0.707107 0.707107 0.000000
vn -0.707107 0.707107 0.000000
vn -0.707107 0.707107 0.000000
vn -0.015508 0.999880 0.000000
vn -0.015508 0.999880 0.000000
vn -0.707107 0.707107 0.000000
vn -0.015508 0.999880 0.000000
vn -0.015508 0.999880 0.000000
vn 0.000000 1.000000 0.000000
vn -0.015508 0.999880 0.000000
vn -0.015508 0.999880 0.000000
vn 0.000000 1.000000 0.000000
vn 0.000000 1.000000 0.000000
vn 0.016525 -0.999864 0.000000
vn 0.000000 -1.000000 0.000000
vn 0.016525 -0.999864 0.000000
vn 0.016525 -0.999864 0.000000
vn 0.000000 -1.000000 0.000000
vn 0.000000 -1.000000 0.000000
vn -0.997581 0.069516 0.000000
vn -0.997581 0.069516 0.000000
vn -1.000000 0.000000 0.000000
vn -1.000000 0.000000 0.000000
vn -0.997581 0.069516 0.000000
vn -1.000000 0.000000 0.000000
vn 0.995393 -0.095878 0.000000
vn 1.000000 0.000000 0.000000
vn 0.995393 -0.095878 0.000000
vn 0.995393 -0.095878 0.000000
vn 1.000000 0.000000 0.000000
vn 1.000000 0.000000 0.000000
vn 0.000000 0.000000 1.000000
vn 0.000000 0.000000 1.000000
vn 0.000000 0.000000 1.000000
vn 0.000000 0.000000 1.000000
vn 0.000000 0.000000 1.000000
vn 0.000000 0.000000 1.000000
vn 0.000000 0.000000 1.000000
vn 0.000000 0.000000 1.000000
vn 0.000000 0.000000 1.000000
vn 0.000000 0.000000 1.000000
vn 0.000000 0.000000 1.000000
vn 0.000000 0.000000 1.000000
vn -0.707107 0.000000 0.707106
vn -0.707107 0.000000 0.707106
vn -0.663419 0.080485 0.743906
vn -0.663419 0.080485 0.743906
vn -0.707107 0.000000 0.707106
vn -0.691259 0.030697 0.721955
vn 0.651138 -0.101039 0.752204
vn 0.707091 0.000000 0.707123
vn 0.685159 -0.041993 0.727182
vn 0.685159 -0.041993 0.727182
vn 0.707091 0.000000 0.707123
vn 0.707091 0.000000 0.707123
vn 0.021813 -0.695939 0.717770
vn 0.006757 -0.703694 0.710471
vn 0.000000 -0.707098 0.707115
vn 0.000000 -0.707098 0.707115
vn 0.006757 -0.703694 0.710471
vn 0.000000 -0.707098 0.707115
vn 0.000000 0.707105 0.707109
vn 0.000000 0.707105 0.707109
vn -0.006379 0.703893 0.710277
vn -0.006379 0.703893 0.710277
vn 0.000000 0.707105 0.707109
vn -0.020667 0.696543 0.717217
vn -0.691259 0.030697 0.721955
vn -0.408240 0.408241 0.816504
vn -0.663419 0.080485 0.743906
vn -0.663419 0.080485 0.743906
vn -0.408240 0.408241 0.816504
vn -0.408240 0.408241 0.816504
vn -0.408240 0.408241 0.816504
vn -0.408240 0.408241 0.816504
vn -0.020667 0.696543 0.717217
vn -0.020667 0.696543 0.717217
vn -0.408240 0.408241 0.816504
vn -0.006379 0.703893 0.710277
vn 0.000000 0.000000 1.000000
vn -0.000001 0.000000 1.000000
vn 0.000000 0.000000 1.000000
vn 0.000000 0.000000 1.000000
vn -0.000001 0.000000 1.000000
vn -0.000001 0.000000 1.000000
vn -0.000001 0.000000 1.000000
vn -0.000001 0.000000 1.000000
vn 0.000000 0.000000 1.000000
vn 0.000000 0.000000 1.000000
vn -0.000001 0.000000 1.000000
vn 0.000000 0.000000 1.000000
vn 0.006757 -0.703694 0.710471
vn 0.021813 -0.695939 0.717770
vn 0.408242 -0.408246 0.816501
vn 0.408242 -0.408246 0.816501
vn 0.021813 -0.695939 0.717770
vn 0.408243 -0.408245 0.816501
vn 0.408243 -0.408245 0.816501
vn 0.651138 -0.101039 0.752204
vn 0.408242 -0.408246 0.816501
vn 0.408242 -0.408246 0.816501
vn 0.651138 -0.101039 0.752204
vn 0.685159 -0.041993 0.727182
s off
g Tele2:polySurface3PC_Scene1
usemtl Tele2:lambert3SG
f 155/294/721 156/295/722 159/296/723
f 159/296/724 156/295/725 160/297/726
f 155/294/727 159/296/728 161/298/729
f 161/298/730 159/296/731 162/299/732
f 167/300/733 166/301/734 168/302/735
f 168/302/736 166/301/737 169/303/738
f 166/304/739 165/305/740 169/306/741
f 169/306/742 165/305/743 170/307/744
f 173/308/745 172/309/746 174/310/747
f 174/310/748 172/309/749 175/311/750
f 172/312/751 171/313/752 175/314/753
f 175/314/754 171/313/755 176/315/756
f 176/315/757 171/313/758 158/316/759
f 158/316/760 171/313/761 157/317/762
f 170/307/763 165/305/764 154/318/765
f 154/318/766 165/305/767 153/319/768
f 174/310/769 159/320/770 173/308/771
f 173/308/772 159/320/773 160/321/774
f 167/300/775 168/302/776 155/322/777
f 155/322/778 168/302/779 156/323/780
f 161/324/781 162/325/782 180/326/783
f 180/326/784 162/325/785 177/327/786
f 163/328/787 182/329/788 164/330/789
f 164/330/790 182/329/791 179/331/792
f 159/320/793 174/310/794 162/332/795
f 162/332/796 174/310/797 177/333/798
f 155/322/799 161/334/800 167/300/801
f 167/300/802 161/334/803 180/335/804
f 182/336/805 163/337/806 165/305/807
f 165/305/808 163/337/809 153/319/810
f 164/338/811 179/339/812 158/316/813
f 158/316/814 179/339/815 176/315/816
f 175/311/817 178/340/818 174/310/819
f 174/310/820 178/340/821 177/333/822
f 175/314/823 176/315/824 178/341/825
f 178/341/826 176/315/827 179/339/828
f 178/342/829 181/343/830 177/327/831
f 177/327/832 181/343/833 180/326/834
f 178/342/835 179/331/836 181/343/837
f 181/343/838 179/331/839 182/329/840
f 165/305/841 166/304/842 182/336/843
f 182/336/844 166/304/845 181/344/846
f 167/300/847 180/335/848 166/301/849
f 166/301/850 180/335/851 181/345/852
f 183/346/853 185/347/854 184/348/855
f 184/348/856 185/347/857 186/349/858
f 183/346/859 187/350/860 185/347/861
f 185/347/862 187/350/863 188/351/864
f 191/352/865 192/353/866 190/354/867
f 190/354/868 192/353/869 193/355/870
f 190/356/871 193/357/872 189/358/873
f 189/358/874 193/357/875 194/359/876
f 197/360/877 198/361/878 196/362/879
f 196/362/880 198/361/881 199/363/882
f 196/364/883 199/365/884 195/366/885
f 195/366/886 199/365/887 200/367/888
f 200/367/889 158/368/890 195/366/891
f 195/366/892 158/368/893 157/369/894
f 194/359/895 154/370/896 189/358/897
f 189/358/898 154/370/899 153/371/900
f 198/361/901 197/360/902 185/372/903
f 185/372/904 197/360/905 186/373/906
f 191/352/907 183/374/908 192/353/909
f 192/353/910 183/374/911 184/375/912
f 187/376/913 204/377/914 188/378/915
f 188/378/916 204/377/917 201/379/918
f 203/380/919 206/381/920 164/330/921
f 164/330/922 206/381/923 163/328/924
f 185/372/925 188/382/926 198/361/927
f 198/361/928 188/382/929 201/383/930
f 204/377/931 187/376/932 191/384/933
f 191/384/934 187/376/935 183/385/936
f 206/386/937 189/358/938 163/387/939
f 163/387/940 189/358/941 153/371/942
f 164/388/943 158/368/944 203/389/945
f 203/389/946 158/368/947 200/367/948
f 201/383/949 202/390/950 198/361/951
f 198/361/952 202/390/953 199/363/954
f 199/365/955 202/391/956 200/367/957
f 200/367/958 202/391/959 203/389/960
f 204/377/961 205/392/962 201/379/963
f 201/379/964 205/392/965 202/393/966
f 202/393/967 205/392/968 203/380/969
f 203/380/970 205/392/971 206/381/972
f 189/358/973 206/386/974 190/356/975
f 190/356/976 206/386/977 205/394/978
f 205/395/979 204/396/980 190/354/981
f 190/354/982 204/396/983 191/352/984
g default
v 2.972177 2.733328 -6.857977
v 2.972177 2.733328 -7.000002
v 2.422177 2.183327 -6.857977
v 2.422177 2.183327 -7.000002
v 3.163951 2.733328 -7.000002
v 3.163951 2.733328 -6.857977
v 2.422177 1.991553 -6.857977
v 2.422177 1.991553 -7.000002
v 2.442177 2.163327 -6.837977
v 2.442177 2.011553 -6.837977
v 2.992177 2.713328 -6.837977
v 3.143951 2.713328 -6.837977
v 2.972177 2.348311 -6.857977
v 2.923854 2.231649 -6.857977
v 2.807193 2.183327 -6.857977
v 2.807193 2.183327 -7.000002
v 2.923854 2.231649 -7.000002
v 2.972177 2.348311 -7.000002
v 3.163951 2.156537 -7.000002
v 3.115629 2.039876 -7.000002
v 2.998968 1.991553 -7.000002
v 2.998968 1.991553 -6.857977
v 3.115629 2.039876 -6.857977
v 3.163951 2.156537 -6.857977
v 2.978968 2.011553 -6.837977
v 3.095629 2.059876 -6.837977
v 3.143951 2.176537 -6.837977
v 2.827193 2.163327 -6.837977
v 2.943854 2.211649 -6.837977
v 2.992177 2.328311 -6.837977
vt 0.027289 0.974868
vt 0.023324 0.974868
vt 0.027289 0.969513
vt 0.023324 0.969513
vt 0.023324 0.974868
vt 0.027289 0.974868
vt 0.023324 0.969513
vt 0.027289 0.969513
vt 0.022765 0.974309
vt 0.022765 0.970071
vt 0.022765 0.970071
vt 0.022765 0.974309
vt 0.031933 0.963476
vt 0.035190 0.963476
vt 0.031933 0.967442
vt 0.035190 0.967442
vt 0.017693 0.968083
vt 0.017693 0.971340
vt 0.021659 0.968083
vt 0.021659 0.971340
vt 0.029234 0.958680
vt 0.032491 0.958680
vt 0.029234 0.954715
vt 0.032491 0.954715
vt 0.012897 0.958249
vt 0.012897 0.961619
vt 0.008796 0.958249
vt 0.008796 0.961619
vt 0.008796 0.978274
vt 0.012897 0.978274
vt 0.021659 0.982090
vt 0.017693 0.982090
vt 0.013130 0.954715
vt 0.013130 0.958680
vt 0.021183 0.963476
vt 0.021183 0.967442
vt 0.032491 0.962918
vt 0.032491 0.958680
vt 0.021741 0.962918
vt 0.017504 0.958680
vt 0.017135 0.978274
vt 0.017135 0.967525
vt 0.012897 0.978274
vt 0.012897 0.963287
vt 0.013688 0.954157
vt 0.028676 0.954157
vt 0.021741 0.962918
vt 0.032491 0.962918
vt 0.017135 0.970782
vt 0.017135 0.981532
vt 0.008218 0.977697
vt 0.008218 0.962196
vt 0.031933 0.954157
vt 0.008218 0.958827
vt 0.014246 0.960029
vt 0.018484 0.964267
vt 0.017135 0.967525
vt 0.035749 0.962918
vn 0.000000 1.000000 0.000000
vn 0.000000 1.000000 0.000000
vn 0.000000 1.000000 0.000000
vn 0.000000 1.000000 0.000000
vn 0.000000 1.000000 0.000000
vn 0.000000 1.000000 0.000000
vn -1.000000 0.000000 0.000000
vn -1.000000 0.000000 0.000000
vn -1.000000 0.000000 0.000000
vn -1.000000 0.000000 0.000000
vn -1.000000 0.000000 0.000000
vn -1.000000 0.000000 0.000000
vn -0.707098 0.000000 0.707116
vn -0.707098 0.000000 0.707116
vn -0.707098 0.000000 0.707116
vn -0.707098 0.000000 0.707116
vn -0.707098 0.000000 0.707116
vn -0.707098 0.000000 0.707116
vn 0.000000 0.707102 0.707111
vn 0.000000 0.707102 0.707111
vn 0.000000 0.707102 0.707111
vn 0.000000 0.707102 0.707111
vn 0.000000 0.707102 0.707111
vn 0.000000 0.707102 0.707111
vn -0.095878 0.995393 0.000000
vn -0.707108 0.707106 0.000000
vn -0.095878 0.995393 0.000000
vn -0.095878 0.995393 0.000000
vn -0.707108 0.707106 0.000000
vn -0.707108 0.707106 0.000000
vn -0.707108 0.707106 0.000000
vn -0.995393 0.095878 0.000000
vn -0.707108 0.707106 0.000000
vn -0.707108 0.707106 0.000000
vn -0.995393 0.095878 0.000000
vn -0.995393 0.095878 0.000000
vn 0.069515 -0.997581 0.000000
vn 0.707107 -0.707107 0.000000
vn 0.069515 -0.997581 0.000000
vn 0.069515 -0.997581 0.000000
vn 0.707107 -0.707107 0.000000
vn 0.707107 -0.707107 0.000000
vn 0.707107 -0.707107 0.000000
vn 0.997581 -0.069515 0.000000
vn 0.707107 -0.707107 0.000000
vn 0.707107 -0.707107 0.000000
vn 0.997581 -0.069515 0.000000
vn 0.997581 -0.069515 0.000000
vn 0.997581 -0.069515 0.000000
vn 0.997581 -0.069515 0.000000
vn 1.000000 0.000000 0.000000
vn 1.000000 0.000000 0.000000
vn 0.997581 -0.069515 0.000000
vn 1.000000 0.000000 0.000000
vn -0.995393 0.095878 0.000000
vn -0.995393 0.095878 0.000000
vn -1.000000 0.000000 0.000000
vn -1.000000 0.000000 0.000000
vn -0.995393 0.095878 0.000000
vn -1.000000 0.000000 0.000000
vn 0.069515 -0.997581 0.000000
vn 0.000000 -1.000000 0.000000
vn 0.069515 -0.997581 0.000000
vn 0.069515 -0.997581 0.000000
vn 0.000000 -1.000000 0.000000
vn 0.000000 -1.000000 0.000000
vn -0.095878 0.995393 0.000000
vn -0.095878 0.995393 0.000000
vn 0.000000 1.000000 0.000000
vn 0.000000 1.000000 0.000000
vn -0.095878 0.995393 0.000000
vn 0.000000 1.000000 0.000000
vn 0.000000 0.000000 1.000000
vn 0.000000 0.000000 1.000000
vn 0.000001 0.000000 1.000000
vn 0.000001 0.000000 1.000000
vn 0.000000 0.000000 1.000000
vn 0.000002 0.000000 1.000000
vn 0.000000 0.000000 1.000000
vn 0.000000 0.000000 1.000000
vn 0.000000 0.000000 1.000000
vn 0.000000 0.000000 1.000000
vn 0.000000 0.000000 1.000000
vn 0.000000 0.000000 1.000000
vn 0.000000 -0.707096 0.707118
vn 0.080484 -0.663410 0.743915
vn 0.000000 -0.707096 0.707118
vn 0.000000 -0.707096 0.707118
vn 0.080484 -0.663410 0.743915
vn 0.030696 -0.691248 0.721966
vn 0.000000 0.707099 0.707115
vn 0.000000 0.707099 0.707115
vn -0.041992 0.685166 0.727175
vn -0.041992 0.685166 0.727175
vn 0.000000 0.707099 0.707115
vn -0.101037 0.651144 0.752199
vn -0.651148 0.101038 0.752195
vn -0.707106 0.000000 0.707108
vn -0.685172 0.041992 0.727170
vn -0.685172 0.041992 0.727170
vn -0.707106 0.000000 0.707108
vn -0.707106 0.000000 0.707108
vn 0.707096 0.000000 0.707118
vn 0.691248 -0.030696 0.721965
vn 0.707096 0.000000 0.707118
vn 0.707096 0.000000 0.707118
vn 0.691248 -0.030696 0.721965
vn 0.663411 -0.080484 0.743914
vn 0.408243 -0.408244 0.816502
vn 0.408244 -0.408243 0.816501
vn 0.080484 -0.663410 0.743915
vn 0.080484 -0.663410 0.743915
vn 0.408244 -0.408243 0.816501
vn 0.030696 -0.691248 0.721966
vn 0.408243 -0.408244 0.816502
vn 0.663411 -0.080484 0.743914
vn 0.408244 -0.408243 0.816501
vn 0.408244 -0.408243 0.816501
vn 0.663411 -0.080484 0.743914
vn 0.691248 -0.030696 0.721965
vn 0.000002 0.000000 1.000000
vn 0.000002 0.000000 1.000000
vn 0.000002 0.000000 1.000000
vn 0.000002 0.000000 1.000000
vn 0.000002 0.000000 1.000000
vn 0.000001 0.000000 1.000000
vn 0.000002 0.000000 1.000000
vn 0.000000 0.000000 1.000000
vn 0.000002 0.000000 1.000000
vn 0.000002 0.000000 1.000000
vn 0.000000 0.000000 1.000000
vn 0.000000 0.000000 1.000000
vn -0.685172 0.041992 0.727170
vn -0.408242 0.408242 0.816503
vn -0.651148 0.101038 0.752195
vn -0.651148 0.101038 0.752195
vn -0.408242 0.408242 0.816503
vn -0.408242 0.408242 0.816503
vn -0.041992 0.685166 0.727175
vn -0.101037 0.651144 0.752199
vn -0.408242 0.408242 0.816503
vn -0.408242 0.408242 0.816503
vn -0.101037 0.651144 0.752199
vn -0.408242 0.408242 0.816503
s off
g Tele2:PC_ScenepolySurface10
usemtl Tele2:lambert3SG
f 208/397/985 207/398/986 211/399/987
f 211/399/988 207/398/989 212/400/990
f 209/401/991 210/402/992 213/403/993
f 213/403/994 210/402/995 214/404/996
f 209/401/997 213/403/998 215/405/999
f 215/405/1000 213/403/1001 216/406/1002
f 212/400/1003 207/398/1004 218/407/1005
f 218/407/1006 207/398/1007 217/408/1008
f 221/409/1009 220/410/1010 222/411/1011
f 222/411/1012 220/410/1013 223/412/1014
f 220/413/1015 219/414/1016 223/415/1017
f 223/415/1018 219/414/1019 224/416/1020
f 227/417/1021 226/418/1022 228/419/1023
f 228/419/1024 226/418/1025 229/420/1026
f 226/421/1027 225/422/1028 229/423/1029
f 229/423/1030 225/422/1031 230/424/1032
f 230/424/1033 225/422/1034 212/425/1035
f 212/425/1036 225/422/1037 211/426/1038
f 224/416/1039 219/414/1040 208/427/1041
f 208/427/1042 219/414/1043 207/428/1044
f 228/419/1045 213/429/1046 227/417/1047
f 227/417/1048 213/429/1049 214/430/1050
f 221/409/1051 222/411/1052 209/431/1053
f 209/431/1054 222/411/1055 210/432/1056
f 215/433/1057 216/434/1058 234/435/1059
f 234/435/1060 216/434/1061 231/436/1062
f 217/437/1063 236/438/1064 218/439/1065
f 218/439/1066 236/438/1067 233/440/1068
f 213/429/1069 228/419/1070 216/441/1071
f 216/441/1072 228/419/1073 231/442/1074
f 209/431/1075 215/443/1076 221/409/1077
f 221/409/1078 215/443/1079 234/444/1080
f 236/445/1081 217/446/1082 219/414/1083
f 219/414/1084 217/446/1085 207/428/1086
f 218/447/1087 233/448/1088 212/425/1089
f 212/425/1090 233/448/1091 230/424/1092
f 229/420/1093 232/449/1094 228/419/1095
f 228/419/1096 232/449/1097 231/442/1098
f 229/423/1099 230/424/1100 232/450/1101
f 232/450/1102 230/424/1103 233/448/1104
f 232/451/1105 235/452/1106 231/436/1107
f 231/436/1108 235/452/1109 234/435/1110
f 232/451/1111 233/440/1112 235/452/1113
f 235/452/1114 233/440/1115 236/438/1116
f 219/414/1117 220/413/1118 236/445/1119
f 236/445/1120 220/413/1121 235/453/1122
f 221/409/1123 234/444/1124 220/410/1125
f 220/410/1126 234/444/1127 235/454/1128
