# This file uses centimeters as units for non-parametric coordinates.

mtllib Planta.mtl
g default
v -0.035732 3.115733 0.711350
v 0.407501 3.115733 0.644209
v 0.023371 3.220536 0.472284
v 0.001516 3.069753 0.806667
v 0.400989 3.068460 0.748991
v 0.146155 2.998126 0.942026
v 0.306755 2.997606 0.918840
v -0.463760 3.115733 0.002184
v -0.396619 3.115733 0.445414
v -0.224695 3.220536 0.061285
v -0.185783 3.220536 0.318161
v -0.559078 3.069753 0.039432
v -0.501402 3.068460 0.438904
v -0.694438 2.998126 0.184069
v -0.671250 2.997606 0.344671
v -0.437681 3.069753 0.539150
v -0.114427 3.068460 0.780838
v -0.431120 2.998126 0.737141
v -0.301163 2.997606 0.834307
v -0.197825 3.115733 -0.358705
v -0.291563 3.069753 -0.399765
v -0.533249 3.068460 -0.076513
v -0.489550 2.998126 -0.393206
v -0.586717 2.997606 -0.263247
v 0.208159 3.069753 -0.521163
v -0.191315 3.068460 -0.463486
v 0.063522 2.998126 -0.656522
v -0.097080 2.997606 -0.633335
v 0.501237 3.069753 0.685270
v 0.742925 3.068460 0.362018
v 0.699225 2.998126 0.678711
v 0.796392 2.997606 0.548752
v 0.280246 3.220533 0.433372
v 0.104838 3.264990 0.142754
v -0.070572 3.220533 -0.147867
v 0.186304 3.220533 -0.186779
v 0.245405 3.115730 -0.425846
v 0.434368 3.220533 0.224221
v 0.673435 3.115730 0.283321
vt 0.352701 0.715528
vt 0.328414 0.707809
vt 0.351046 0.696095
vt 0.378511 0.725823
vt 0.376578 0.685127
vt 0.391589 0.722259
vt 0.389601 0.687515
vt 0.410159 0.697434
vt 0.410928 0.710894
vt 0.336135 0.683523
vt 0.316701 0.685177
vt 0.346437 0.657715
vt 0.305739 0.659644
vt 0.342876 0.644638
vt 0.308131 0.646620
vt 0.318056 0.626064
vt 0.331517 0.625298
vt 0.383307 0.673361
vt 0.357336 0.650197
vt 0.378888 0.642676
vt 0.388948 0.651652
vt 0.304127 0.700088
vt 0.278319 0.689787
vt 0.293974 0.652914
vt 0.270803 0.678884
vt 0.263288 0.657328
vt 0.272267 0.647270
vt 0.305781 0.719522
vt 0.280249 0.730492
vt 0.265243 0.693349
vt 0.267225 0.728100
vt 0.246668 0.718174
vt 0.245903 0.704711
vt 0.351102 0.755968
vt 0.340129 0.730439
vt 0.362871 0.762695
vt 0.386031 0.736720
vt 0.393556 0.758268
vt 0.384582 0.768331
vn 0.173277 0.942101 0.287089
vn 0.000000 1.000000 0.000000
vn -0.080477 0.942101 0.325528
vn 0.202177 0.920141 0.335357
vn 0.173277 0.942101 0.287089
vn -0.080477 0.942101 0.325528
vn -0.094174 0.920141 0.380095
vn 0.062663 0.908271 0.413664
vn 0.202177 0.920141 0.335357
vn -0.094174 0.920141 0.380095
vn 0.062663 0.908271 0.413664
vn 0.062662 0.908270 0.413666
vn 0.062662 0.908270 0.413666
vn 0.062663 0.908271 0.413664
vn 0.062663 0.908271 0.413664
vn -0.287090 0.942101 0.173278
vn 0.000000 1.000000 0.000000
vn -0.325529 0.942101 -0.080478
vn -0.335358 0.920141 0.202178
vn -0.287090 0.942101 0.173278
vn -0.325529 0.942101 -0.080478
vn -0.380094 0.920141 -0.094173
vn -0.413660 0.908272 0.062662
vn -0.335358 0.920141 0.202178
vn -0.380094 0.920141 -0.094173
vn -0.413660 0.908273 0.062662
vn -0.413663 0.908271 0.062662
vn -0.413663 0.908271 0.062662
vn -0.413660 0.908272 0.062662
vn -0.413660 0.908273 0.062662
vn -0.080477 0.942101 0.325528
vn 0.000000 1.000000 0.000000
vn -0.287090 0.942101 0.173278
vn -0.094174 0.920141 0.380095
vn -0.080477 0.942101 0.325528
vn -0.287090 0.942101 0.173278
vn -0.335358 0.920141 0.202178
vn -0.248197 0.908270 0.336815
vn -0.094174 0.920141 0.380095
vn -0.335358 0.920141 0.202178
vn -0.248197 0.908270 0.336815
vn -0.248193 0.908273 0.336809
vn -0.248193 0.908273 0.336809
vn -0.248197 0.908270 0.336815
vn -0.248197 0.908270 0.336815
vn -0.325529 0.942101 -0.080478
vn 0.000000 1.000000 0.000000
vn -0.173278 0.942101 -0.287089
vn -0.380094 0.920141 -0.094173
vn -0.325529 0.942101 -0.080478
vn -0.173278 0.942101 -0.287089
vn -0.202177 0.920141 -0.335358
vn -0.336812 0.908272 -0.248195
vn -0.380094 0.920141 -0.094173
vn -0.202177 0.920141 -0.335358
vn -0.336812 0.908272 -0.248195
vn -0.336813 0.908271 -0.248196
vn -0.336813 0.908271 -0.248196
vn -0.336812 0.908272 -0.248195
vn -0.336812 0.908272 -0.248195
vn -0.202177 0.920141 -0.335358
vn -0.173278 0.942101 -0.287089
vn 0.080477 0.942102 -0.325527
vn 0.094172 0.920141 -0.380095
vn -0.062663 0.908270 -0.413664
vn -0.202177 0.920141 -0.335358
vn 0.094172 0.920141 -0.380095
vn -0.062663 0.908270 -0.413664
vn -0.062663 0.908271 -0.413663
vn -0.062663 0.908271 -0.413663
vn -0.062663 0.908270 -0.413664
vn -0.062663 0.908270 -0.413664
vn 0.380094 0.920142 0.094172
vn 0.325528 0.942101 0.080477
vn 0.173277 0.942101 0.287089
vn 0.202177 0.920141 0.335357
vn 0.336813 0.908271 0.248196
vn 0.380094 0.920142 0.094172
vn 0.202177 0.920141 0.335357
vn 0.336813 0.908271 0.248196
vn 0.336814 0.908270 0.248197
vn 0.336814 0.908270 0.248197
vn 0.336813 0.908271 0.248196
vn 0.336813 0.908271 0.248196
s off
g polySurface4 PC_Scene
usemtl phong1SG
f 33/1/1 34/2/2 3/3/3
f 2/4/4 33/1/5 3/3/6 1/5/7
f 5/6/8 2/4/9 1/5/10 4/7/11
f 6/8/12 7/9/13 5/6/14 4/7/15
f 11/10/16 34/2/17 10/11/18
f 9/12/19 11/10/20 10/11/21 8/13/22
f 13/14/23 9/12/24 8/13/25 12/15/26
f 14/16/27 15/17/28 13/14/29 12/15/30
f 3/3/31 34/2/32 11/10/33
f 1/5/34 3/3/35 11/10/36 9/12/37
f 17/18/38 1/5/39 9/12/40 16/19/41
f 18/20/42 19/21/43 17/18/44 16/19/45
f 10/11/46 34/2/47 35/22/48
f 8/13/49 10/11/50 35/22/51 20/23/52
f 22/24/53 8/13/54 20/23/55 21/25/56
f 23/26/57 24/27/58 22/24/59 21/25/60
f 20/23/61 35/22/62 36/28/63 37/29/64
f 26/30/65 20/23/66 37/29/67 25/31/68
f 27/32/69 28/33/70 26/30/71 25/31/72
f 39/34/73 38/35/74 33/1/75 2/4/76
f 30/36/77 39/34/78 2/4/79 29/37/80
f 31/38/81 32/39/82 30/36/83 29/37/84
g default
v -0.130211 0.000008 -0.264360
v -0.302275 0.000008 -0.092294
v -0.365252 0.000008 0.142753
v -0.302275 0.000008 0.377797
v -0.130211 0.000008 0.549863
v 0.104836 0.000008 0.612843
v 0.339882 0.000008 0.549863
v 0.661529 1.000007 -0.178654
v 0.426243 1.000007 -0.413941
v 0.104836 1.000007 -0.500061
v -0.216572 1.000007 -0.413941
v -0.451857 1.000007 -0.178654
v -0.537978 1.000007 0.142753
v -0.451857 1.000007 0.464160
v -0.216572 1.000007 0.699444
v 0.104836 1.000007 0.785564
v 0.426243 1.000007 0.699444
v 0.661529 1.000007 0.464160
v 0.747649 1.000007 0.142753
v 0.587197 1.000007 -0.135738
v 0.383328 1.000007 -0.339611
v 0.104836 1.000007 -0.414232
v 0.587197 1.000007 0.421245
v 0.661819 1.000007 0.142753
v 0.573175 0.818988 -0.127641
v 0.375230 0.818988 -0.325583
v 0.104836 0.818988 -0.398036
v 0.573175 0.818988 0.413145
v 0.645623 0.818988 0.142753
v 0.104837 0.950700 0.142752
v -0.377526 1.000004 -0.135738
v -0.173656 1.000004 -0.339611
v -0.452147 1.000004 0.142753
v -0.377526 1.000004 0.421245
v -0.173656 1.000004 0.625113
v 0.104836 1.000004 0.699735
v 0.383328 1.000004 0.625113
v -0.165558 0.818984 -0.325583
v -0.363496 0.818984 -0.127641
v -0.435947 0.818984 0.142753
v -0.363496 0.818984 0.413145
v -0.165558 0.818984 0.611088
v 0.104836 0.818984 0.683538
v 0.375230 0.818984 0.611088
vt 0.332793 0.918741
vt 0.339583 0.918741
vt 0.339583 0.941870
vt 0.332793 0.941870
vt 0.332787 0.918768
vt 0.339589 0.918768
vt 0.339589 0.941855
vt 0.332787 0.941855
vt 0.332783 0.918785
vt 0.339593 0.918785
vt 0.339593 0.941845
vt 0.332783 0.941845
vt 0.332784 0.918784
vt 0.339593 0.918784
vt 0.339593 0.941846
vt 0.332784 0.941846
vt 0.332786 0.918774
vt 0.339590 0.918774
vt 0.339590 0.941851
vt 0.332786 0.941851
vt 0.332789 0.918759
vt 0.339587 0.918759
vt 0.339587 0.941860
vt 0.332789 0.941860
vt 0.332811 0.941915
vt 0.339565 0.941915
vt 0.339565 0.943719
vt 0.332811 0.943719
vt 0.332798 0.941881
vt 0.339578 0.941881
vt 0.339578 0.943679
vt 0.332798 0.943679
vt 0.332791 0.941865
vt 0.339585 0.941865
vt 0.339585 0.943659
vt 0.332791 0.943659
vt 0.339583 0.943666
vt 0.332793 0.943666
vt 0.339589 0.943647
vt 0.332787 0.943647
vt 0.339593 0.943635
vt 0.332783 0.943635
vt 0.339593 0.943636
vt 0.332784 0.943636
vt 0.339590 0.943642
vt 0.332786 0.943642
vt 0.339587 0.943653
vt 0.332789 0.943653
vt 0.332794 0.941872
vt 0.339582 0.941872
vt 0.339582 0.943667
vt 0.332794 0.943667
vt 0.332799 0.941886
vt 0.339577 0.941886
vt 0.339577 0.943684
vt 0.332799 0.943684
vt 0.332808 0.941908
vt 0.339568 0.941908
vt 0.339568 0.943711
vt 0.332808 0.943711
vt 0.339565 0.948003
vt 0.332811 0.948003
vt 0.339578 0.947946
vt 0.332798 0.947946
vt 0.339585 0.947918
vt 0.332791 0.947918
vt 0.339582 0.947930
vt 0.332794 0.947930
vt 0.339577 0.947953
vt 0.332799 0.947953
vt 0.339568 0.947992
vt 0.332808 0.947992
vt 0.340549 0.903085
vt 0.337178 0.908741
vt 0.328308 0.899624
vt 0.331431 0.911955
vt 0.324847 0.911864
vt 0.319191 0.908494
vt 0.315977 0.902747
vt 0.316068 0.896163
vt 0.319438 0.890506
vt 0.325185 0.887293
vt 0.331769 0.887383
vt 0.337426 0.890754
vt 0.340639 0.896501
vn -0.492707 -0.170201 -0.853388
vn -0.853392 -0.170203 -0.492700
vn -0.853392 -0.170203 -0.492700
vn -0.492707 -0.170201 -0.853388
vn -0.853392 -0.170203 -0.492700
vn -0.985409 -0.170204 0.000000
vn -0.985409 -0.170204 0.000000
vn -0.853392 -0.170203 -0.492700
vn -0.985409 -0.170204 0.000000
vn -0.853391 -0.170203 0.492702
vn -0.853390 -0.170203 0.492703
vn -0.985409 -0.170204 0.000000
vn -0.853391 -0.170203 0.492702
vn -0.492704 -0.170201 0.853390
vn -0.492704 -0.170201 0.853390
vn -0.853390 -0.170203 0.492703
vn -0.492704 -0.170201 0.853390
vn -0.000000 -0.170200 0.985409
vn -0.000000 -0.170200 0.985410
vn -0.492704 -0.170201 0.853390
vn -0.000000 -0.170200 0.985409
vn 0.492701 -0.170200 0.853392
vn 0.492702 -0.170200 0.853392
vn -0.000000 -0.170200 0.985410
vn 0.000000 1.000000 0.000000
vn 0.000000 1.000000 -0.000000
vn 0.000000 1.000000 -0.000000
vn 0.000000 1.000000 0.000000
vn 0.000000 1.000000 -0.000000
vn 0.000000 1.000000 -0.000001
vn 0.000000 1.000000 -0.000001
vn 0.000000 1.000000 -0.000000
vn 0.000000 1.000000 -0.000001
vn 0.000000 1.000000 -0.000001
vn 0.000000 1.000000 -0.000001
vn 0.000000 1.000000 -0.000001
vn 0.000000 1.000000 -0.000001
vn 0.000000 1.000000 -0.000000
vn 0.000000 1.000000 -0.000000
vn 0.000000 1.000000 -0.000001
vn 0.000000 1.000000 -0.000000
vn 0.000000 1.000000 -0.000000
vn 0.000000 1.000000 -0.000000
vn 0.000000 1.000000 -0.000000
vn 0.000000 1.000000 -0.000000
vn 0.000000 1.000000 -0.000000
vn 0.000000 1.000000 -0.000000
vn 0.000000 1.000000 -0.000000
vn 0.000000 1.000000 -0.000000
vn 0.000000 1.000000 0.000000
vn 0.000000 1.000000 0.000000
vn 0.000000 1.000000 -0.000000
vn 0.000000 1.000000 0.000000
vn 0.000000 1.000000 0.000001
vn 0.000000 1.000000 0.000001
vn 0.000000 1.000000 0.000000
vn 0.000000 1.000000 0.000001
vn 0.000000 1.000000 0.000001
vn 0.000000 1.000000 0.000001
vn 0.000000 1.000000 0.000001
vn 0.000000 1.000000 0.000001
vn 0.000000 1.000000 0.000000
vn 0.000000 1.000000 0.000000
vn 0.000000 1.000000 0.000001
vn 0.000000 1.000000 0.000000
vn 0.000000 1.000000 0.000000
vn 0.000000 1.000000 0.000000
vn 0.000000 1.000000 0.000000
vn 0.000000 1.000000 0.000000
vn 0.000000 1.000000 0.000000
vn 0.000000 1.000000 0.000000
vn 0.000000 1.000000 0.000000
vn -0.862581 0.089105 0.498011
vn -0.498011 0.089115 0.862580
vn -0.498013 0.089115 0.862579
vn -0.862582 0.089105 0.498009
vn -0.498011 0.089115 0.862580
vn -0.000000 0.089120 0.996021
vn 0.000000 0.089120 0.996021
vn -0.498013 0.089115 0.862579
vn -0.000000 0.089120 0.996021
vn 0.498014 0.089124 0.862577
vn 0.498015 0.089124 0.862576
vn 0.000000 0.089120 0.996021
vn -0.498009 0.089110 -0.862581
vn -0.862579 0.089106 -0.498013
vn -0.862582 0.089106 -0.498008
vn -0.498009 0.089110 -0.862581
vn -0.862579 0.089106 -0.498013
vn -0.996023 0.089102 0.000000
vn -0.996023 0.089102 0.000000
vn -0.862582 0.089106 -0.498008
vn -0.996023 0.089102 0.000000
vn -0.862581 0.089105 0.498011
vn -0.862582 0.089105 0.498009
vn -0.996023 0.089102 0.000000
vn 0.204935 0.971598 -0.118319
vn 0.118320 0.971598 -0.204936
vn 0.000000 1.000000 -0.000000
vn 0.118320 0.971598 -0.204936
vn -0.000000 0.971598 -0.236639
vn 0.000000 1.000000 -0.000000
vn -0.000000 0.971598 -0.236639
vn -0.118320 0.971598 -0.204934
vn 0.000000 1.000000 -0.000000
vn -0.118320 0.971598 -0.204934
vn -0.204937 0.971598 -0.118319
vn 0.000000 1.000000 -0.000000
vn -0.204937 0.971598 -0.118319
vn -0.236640 0.971598 0.000000
vn 0.000000 1.000000 -0.000000
vn -0.236640 0.971598 0.000000
vn -0.204936 0.971597 0.118319
vn 0.000000 1.000000 -0.000000
vn -0.204936 0.971597 0.118319
vn -0.118319 0.971598 0.204934
vn 0.000000 1.000000 -0.000000
vn -0.118319 0.971598 0.204934
vn -0.000000 0.971598 0.236640
vn 0.000000 1.000000 -0.000000
vn -0.000000 0.971598 0.236640
vn 0.118318 0.971598 0.204936
vn 0.000000 1.000000 -0.000000
vn 0.118318 0.971598 0.204936
vn 0.204934 0.971598 0.118319
vn 0.000000 1.000000 -0.000000
vn 0.204934 0.971598 0.118319
vn 0.236639 0.971598 0.000000
vn 0.000000 1.000000 -0.000000
vn 0.236639 0.971598 0.000000
vn 0.204935 0.971598 -0.118319
vn 0.000000 1.000000 -0.000000
s off
g PC_Scene polySurface5
usemtl phong3SG
f 40/40/85 41/41/86 51/42/87 50/43/88
f 41/44/89 42/45/90 52/46/91 51/47/92
f 42/48/93 43/49/94 53/50/95 52/51/96
f 43/52/97 44/53/98 54/54/99 53/55/100
f 44/56/101 45/57/102 55/58/103 54/59/104
f 45/60/105 46/61/106 56/62/107 55/63/108
f 47/64/109 48/65/110 60/66/111 59/67/112
f 48/68/113 49/69/114 61/70/115 60/71/116
f 49/72/117 50/73/118 71/74/119 61/75/120
f 50/43/121 51/42/122 70/76/123 71/77/124
f 51/47/125 52/46/126 72/78/127 70/79/128
f 52/51/129 53/50/130 73/80/131 72/81/132
f 53/55/133 54/54/134 74/82/135 73/83/136
f 54/59/137 55/58/138 75/84/139 74/85/140
f 55/63/141 56/62/142 76/86/143 75/87/144
f 56/88/145 57/89/146 62/90/147 76/91/148
f 57/92/149 58/93/150 63/94/151 62/95/152
f 58/96/153 47/97/154 59/98/155 63/99/156
f 59/67/157 60/66/158 65/100/159 64/101/160
f 60/71/161 61/70/162 66/102/163 65/103/164
f 61/75/165 71/74/166 77/104/167 66/105/168
f 76/91/169 62/90/170 67/106/171 83/107/172
f 62/95/173 63/94/174 68/108/175 67/109/176
f 63/99/177 59/98/178 64/110/179 68/111/180
usemtl phong2SG
f 64/112/181 65/113/182 69/114/183
f 65/113/184 66/115/185 69/114/186
f 66/115/187 77/116/188 69/114/189
f 77/116/190 78/117/191 69/114/192
f 78/117/193 79/118/194 69/114/195
f 79/118/196 80/119/197 69/114/198
f 80/119/199 81/120/200 69/114/201
f 81/120/202 82/121/203 69/114/204
f 82/121/205 83/122/206 69/114/207
f 83/122/208 67/123/209 69/114/210
f 67/123/211 68/124/212 69/114/213
f 68/124/214 64/112/215 69/114/216
g default
v 0.595086 2.836880 0.633003
v 0.798156 2.836880 0.142752
v 0.104837 3.018482 0.142753
v 0.388963 2.952987 0.426878
v 0.506652 2.952987 0.142753
v 0.714467 2.785940 0.653557
v 0.900361 2.784508 0.213444
v 0.940114 2.706587 0.589773
v 1.014852 2.706012 0.412833
v 0.104837 2.836880 -0.550567
v -0.385413 2.836880 -0.347498
v 0.104837 2.952987 -0.259062
v -0.179288 2.952987 -0.141373
v 0.034957 2.785940 -0.649514
v -0.407698 2.784508 -0.469755
v -0.169701 2.706587 -0.763969
v -0.347665 2.706012 -0.691701
v -0.385413 2.836880 0.633003
v 0.104837 2.836880 0.836071
v -0.179288 2.952987 0.426878
v 0.104837 2.952987 0.544566
v -0.405967 2.785940 0.752382
v 0.034146 2.784508 0.938277
v -0.342185 2.706587 0.978030
v -0.165244 2.706012 1.052766
v 0.174716 2.785940 0.935019
v 0.617372 2.784508 0.755259
v 0.379377 2.706587 1.049475
v 0.557338 2.706012 0.977205
v -0.588483 2.836880 0.142753
v -0.296977 2.952987 0.142753
v -0.687430 2.785940 0.212633
v -0.507670 2.784508 0.655288
v -0.801886 2.706587 0.417292
v -0.729615 2.706012 0.595254
v -0.504792 2.785940 -0.368052
v -0.690688 2.784508 0.072061
v -0.730441 2.706587 -0.304269
v -0.805177 2.706012 -0.127329
vt 0.280981 0.730234
vt 0.306329 0.719342
vt 0.321134 0.731823
vt 0.310909 0.757448
vt 0.274302 0.741918
vt 0.300090 0.764913
vt 0.278694 0.772383
vt 0.268705 0.763472
vt 0.346689 0.657972
vt 0.336465 0.683597
vt 0.317169 0.685241
vt 0.306276 0.659895
vt 0.343145 0.644987
vt 0.308646 0.646966
vt 0.318491 0.626554
vt 0.331856 0.625788
vt 0.340428 0.730180
vt 0.328799 0.707710
vt 0.352911 0.715376
vt 0.351314 0.755531
vt 0.378533 0.725605
vt 0.362995 0.762212
vt 0.385996 0.736428
vt 0.393460 0.757828
vt 0.384547 0.767815
vt 0.314446 0.770432
vt 0.348941 0.768461
vt 0.339091 0.788871
vt 0.325726 0.789633
vt 0.351270 0.696080
vt 0.376621 0.685193
vt 0.391516 0.722070
vt 0.389552 0.687571
vt 0.409960 0.697428
vt 0.410719 0.710793
vt 0.383300 0.673512
vt 0.357511 0.650507
vt 0.378912 0.643044
vt 0.388900 0.651958
vn 0.370032 0.929019 0.000191
vn 0.324188 0.945993 0.000000
vn 0.229235 0.945993 0.229236
vn 0.261516 0.929019 0.261788
vn 0.365760 0.918296 0.151503
vn 0.370032 0.929019 0.000191
vn 0.261516 0.929019 0.261788
vn 0.365760 0.918296 0.151503
vn 0.365756 0.918297 0.151502
vn 0.365756 0.918297 0.151502
vn 0.365760 0.918296 0.151503
vn 0.365760 0.918296 0.151503
vn -0.261516 0.929019 -0.261787
vn -0.229235 0.945993 -0.229235
vn 0.000000 0.945993 -0.324188
vn 0.000192 0.929019 -0.370031
vn -0.151502 0.918296 -0.365760
vn -0.261516 0.929019 -0.261787
vn 0.000192 0.929019 -0.370031
vn -0.151502 0.918296 -0.365760
vn -0.151501 0.918296 -0.365758
vn -0.151501 0.918296 -0.365758
vn -0.151502 0.918296 -0.365760
vn -0.151502 0.918296 -0.365760
vn -0.000000 0.945993 0.324188
vn -0.000000 1.000000 -0.000000
vn -0.229235 0.945993 0.229236
vn -0.000192 0.929019 0.370032
vn -0.000000 0.945993 0.324188
vn -0.229235 0.945993 0.229236
vn -0.261787 0.929019 0.261516
vn -0.151503 0.918295 0.365760
vn -0.000192 0.929019 0.370032
vn -0.261787 0.929019 0.261516
vn -0.151503 0.918295 0.365760
vn -0.151501 0.918297 0.365758
vn -0.151501 0.918297 0.365758
vn -0.151503 0.918295 0.365760
vn -0.151503 0.918295 0.365760
vn 0.261516 0.929019 0.261788
vn 0.229235 0.945993 0.229236
vn -0.000000 0.945993 0.324188
vn -0.000192 0.929019 0.370032
vn 0.151503 0.918296 0.365759
vn 0.261516 0.929019 0.261788
vn -0.000192 0.929019 0.370032
vn 0.151503 0.918296 0.365759
vn 0.151503 0.918296 0.365759
vn 0.151503 0.918296 0.365759
vn 0.151503 0.918296 0.365759
vn 0.151503 0.918296 0.365759
vn -0.229235 0.945993 0.229236
vn -0.000000 1.000000 -0.000000
vn -0.324187 0.945993 0.000000
vn -0.261787 0.929019 0.261516
vn -0.229235 0.945993 0.229236
vn -0.324187 0.945993 0.000000
vn -0.370031 0.929020 -0.000192
vn -0.365759 0.918296 0.151503
vn -0.261787 0.929019 0.261516
vn -0.370031 0.929020 -0.000192
vn -0.365759 0.918296 0.151503
vn -0.365759 0.918296 0.151504
vn -0.365759 0.918296 0.151504
vn -0.365759 0.918296 0.151503
vn -0.365759 0.918296 0.151503
vn -0.370031 0.929020 -0.000192
vn -0.324187 0.945993 0.000000
vn -0.229235 0.945993 -0.229235
vn -0.261516 0.929019 -0.261787
vn -0.365761 0.918295 -0.151504
vn -0.370031 0.929020 -0.000192
vn -0.261516 0.929019 -0.261787
vn -0.365761 0.918295 -0.151504
vn -0.365759 0.918296 -0.151503
vn -0.365759 0.918296 -0.151503
vn -0.365761 0.918295 -0.151504
vn -0.365761 0.918295 -0.151504
s off
g PC_Scene polySurface6
usemtl phong1SG
f 85/125/217 88/126/218 87/127/219 84/128/220
f 90/129/221 85/125/222 84/128/223 89/130/224
f 91/131/225 92/132/226 90/129/227 89/130/228
f 94/133/229 96/134/230 95/135/231 93/136/232
f 98/137/233 94/133/234 93/136/235 97/138/236
f 99/139/237 100/140/238 98/137/239 97/138/240
f 104/141/241 86/142/242 103/143/243
f 102/144/244 104/141/245 103/143/246 101/145/247
f 106/146/248 102/144/249 101/145/250 105/147/251
f 107/148/252 108/149/253 106/146/254 105/147/255
f 84/128/256 87/127/257 104/141/258 102/144/259
f 110/150/260 84/128/261 102/144/262 109/151/263
f 111/152/264 112/153/265 110/150/266 109/151/267
f 103/143/268 86/142/269 114/154/270
f 101/145/271 103/143/272 114/154/273 113/155/274
f 116/156/275 101/145/276 113/155/277 115/157/278
f 117/158/279 118/159/280 116/156/281 115/157/282
f 113/155/283 114/154/284 96/134/285 94/133/286
f 120/160/287 113/155/288 94/133/289 119/161/290
f 121/162/291 122/163/292 120/160/293 119/161/294
g default
v -0.014984 0.844682 -0.064787
v -0.134809 0.844682 0.142752
v -0.014984 0.844682 0.350291
v 0.021370 0.995609 -0.001817
v -0.062095 0.995609 0.142752
v 0.021370 0.995609 0.287322
v 0.042885 1.287960 0.035448
v -0.019067 1.287960 0.142752
v 0.042885 1.287960 0.250057
v 0.042883 3.491461 0.035448
v -0.019068 3.491461 0.142752
v 0.042883 3.491461 0.250057
v 0.224660 0.844678 0.350291
v 0.188304 0.995605 0.287322
v 0.166789 1.287956 0.250057
v 0.166787 3.491457 0.250057
vt 0.290233 0.918946
vt 0.296059 0.918946
vt 0.296059 0.920594
vt 0.290233 0.920594
vt 0.301441 0.918946
vt 0.301441 0.920594
vt 0.307163 0.918946
vt 0.307163 0.920594
vt 0.296059 0.923924
vt 0.290233 0.923924
vt 0.301441 0.923924
vt 0.307163 0.923924
vt 0.296059 0.952805
vt 0.290233 0.952805
vt 0.301441 0.952805
vt 0.307163 0.952805
vn -0.450450 0.434023 -0.780204
vn -0.900900 0.434026 -0.000000
vn -0.957272 0.289188 0.000000
vn -0.478639 0.289188 -0.829020
vn -0.900900 0.434026 -0.000000
vn -0.450450 0.434023 0.780204
vn -0.478639 0.289188 0.829021
vn -0.957272 0.289188 0.000000
vn -0.450450 0.434023 0.780204
vn 0.450452 0.434024 0.780203
vn 0.478636 0.289188 0.829022
vn -0.478639 0.289188 0.829021
vn -0.478639 0.289188 -0.829020
vn -0.957272 0.289188 0.000000
vn -0.999787 0.020617 -0.000000
vn -0.499898 0.020617 -0.865839
vn -0.957272 0.289188 0.000000
vn -0.478639 0.289188 0.829021
vn -0.499896 0.020617 0.865840
vn -0.999787 0.020617 -0.000000
vn -0.478639 0.289188 0.829021
vn 0.478636 0.289188 0.829022
vn 0.499892 0.020618 0.865842
vn -0.499896 0.020617 0.865840
vn -0.499898 0.020617 -0.865839
vn -0.999787 0.020617 -0.000000
vn -1.000000 -0.000001 -0.000000
vn -0.500004 -0.000000 -0.866023
vn -0.999787 0.020617 -0.000000
vn -0.499896 0.020617 0.865840
vn -0.500003 -0.000000 0.866024
vn -1.000000 -0.000001 -0.000000
vn -0.499896 0.020617 0.865840
vn 0.499892 0.020618 0.865842
vn 0.499998 0.000001 0.866027
vn -0.500003 -0.000000 0.866024
s off
g PC_Scene polySurface7
usemtl phong2SG
f 123/164/295 124/165/296 127/166/297 126/167/298
f 124/165/299 125/168/300 128/169/301 127/166/302
f 125/168/303 135/170/304 136/171/305 128/169/306
f 126/167/307 127/166/308 130/172/309 129/173/310
f 127/166/311 128/169/312 131/174/313 130/172/314
f 128/169/315 136/171/316 137/175/317 131/174/318
f 129/173/319 130/172/320 133/176/321 132/177/322
f 130/172/323 131/174/324 134/178/325 133/176/326
f 131/174/327 137/175/328 138/179/329 134/178/330
g default
v 0.662565 2.540078 0.379991
v -0.210165 2.889357 0.012472
v -0.016482 2.888180 -0.176735
v -0.458382 2.605069 -0.099297
v -0.124188 2.603038 -0.425768
v -0.522157 2.476543 -0.196787
v -0.219079 2.478225 -0.488493
v -0.432201 2.284194 -0.522405
v -0.554050 2.283517 -0.405130
v 0.245799 2.852868 0.479451
v -0.024704 2.864388 0.476465
v 0.328371 2.542108 0.706462
v -0.138374 2.561985 0.701311
v 0.298315 2.404801 0.808115
v -0.121716 2.426476 0.800692
v -0.004558 2.211503 0.956513
v 0.164309 2.202787 0.959497
v 0.715002 2.399812 0.467547
v 0.412233 2.405477 0.759525
v 0.608181 2.192241 0.778387
v 0.729903 2.189963 0.661002
v -0.213571 2.879502 0.283036
v -0.464260 2.588064 0.367555
v -0.236638 2.429342 0.754605
v -0.527794 2.456482 0.452210
v -0.563084 2.246413 0.649302
v -0.446029 2.235501 0.770875
v -0.576488 2.459058 0.338361
v -0.568121 2.477917 -0.081789
v -0.740219 2.276523 0.036714
v -0.743583 2.268940 0.205627
vt 0.195141 0.588129
vt 0.220593 0.577193
vt 0.235461 0.589726
vt 0.225199 0.615457
vt 0.188438 0.599864
vt 0.214337 0.622953
vt 0.192855 0.630456
vt 0.182822 0.621511
vt 0.261123 0.515578
vt 0.250853 0.541306
vt 0.231480 0.542955
vt 0.220551 0.517500
vt 0.257574 0.502542
vt 0.222936 0.504517
vt 0.232830 0.484024
vt 0.246250 0.483261
vt 0.297879 0.531175
vt 0.291172 0.542905
vt 0.261123 0.515578
vt 0.271988 0.508083
vt 0.293473 0.500586
vt 0.303503 0.509533
vt 0.218945 0.557819
vt 0.193217 0.547550
vt 0.208823 0.510792
vt 0.185724 0.536681
vt 0.178232 0.515192
vt 0.187183 0.505165
vt 0.180180 0.551102
vt 0.182157 0.585745
vt 0.161663 0.575850
vt 0.160901 0.562428
vn -0.668575 0.691397 -0.273821
vn -0.615791 0.747240 -0.249866
vn -0.230762 0.744900 -0.625997
vn -0.253355 0.688865 -0.679174
vn -0.519925 0.664827 -0.536361
vn -0.668575 0.691397 -0.273821
vn -0.253355 0.688865 -0.679174
vn -0.519925 0.664827 -0.536361
vn -0.519924 0.664826 -0.536363
vn -0.519924 0.664826 -0.536363
vn -0.519925 0.664827 -0.536361
vn -0.519925 0.664827 -0.536361
vn 0.308273 0.613199 0.727293
vn 0.290637 0.674701 0.678460
vn -0.247107 0.697602 0.672525
vn -0.271442 0.637895 0.720701
vn 0.016349 0.592627 0.805311
vn 0.308273 0.613199 0.727293
vn -0.271442 0.637895 0.720701
vn 0.016349 0.592627 0.805311
vn 0.016349 0.592629 0.805310
vn 0.016349 0.592629 0.805310
vn 0.016349 0.592627 0.805311
vn 0.016349 0.592627 0.805311
vn 0.572321 0.577419 0.582269
vn 0.723494 0.610665 0.321941
vn 0.308273 0.613199 0.727293
vn 0.572321 0.577418 0.582269
vn 0.572320 0.577423 0.582265
vn 0.572320 0.577423 0.582265
vn 0.572321 0.577419 0.582269
vn 0.572321 0.577418 0.582269
vn -0.271442 0.637895 0.720701
vn -0.247107 0.697602 0.672525
vn -0.622561 0.727649 0.288000
vn -0.676066 0.670285 0.306027
vn -0.533850 0.624526 0.570063
vn -0.271442 0.637895 0.720701
vn -0.676066 0.670285 0.306027
vn -0.533850 0.624526 0.570063
vn -0.533849 0.624526 0.570064
vn -0.533849 0.624526 0.570064
vn -0.533850 0.624526 0.570063
vn -0.533850 0.624526 0.570063
vn -0.676066 0.670285 0.306027
vn -0.622561 0.727649 0.288000
vn -0.615791 0.747240 -0.249866
vn -0.668575 0.691397 -0.273821
vn -0.755988 0.654430 0.014320
vn -0.676066 0.670285 0.306027
vn -0.668575 0.691397 -0.273821
vn -0.755988 0.654429 0.014320
vn -0.755983 0.654435 0.014321
vn -0.755983 0.654435 0.014321
vn -0.755988 0.654430 0.014320
vn -0.755988 0.654429 0.014320
s off
g PC_Scene polySurface8
usemtl phong1SG
f 142/180/331 140/181/332 141/182/333 143/183/334
f 144/184/335 142/180/336 143/183/337 145/185/338
f 146/186/339 147/187/340 144/184/341 145/185/342
f 150/188/343 148/189/344 149/190/345 151/191/346
f 152/192/347 150/188/348 151/191/349 153/193/350
f 154/194/351 155/195/352 152/192/353 153/193/354
f 156/196/355 139/197/356 150/198/357 157/199/358
f 158/200/359 159/201/360 156/196/361 157/199/362
f 151/191/363 149/190/364 160/202/365 161/203/366
f 162/204/367 151/191/368 161/203/369 163/205/370
f 164/206/371 165/207/372 162/204/373 163/205/374
f 161/203/375 160/202/376 140/181/377 142/180/378
f 166/208/379 161/203/380 142/180/381 167/209/382
f 168/210/383 169/211/384 166/208/385 167/209/386
g default
v 0.104838 3.579881 0.142752
v -0.203029 3.494530 -0.047069
v -0.247081 3.494530 0.226223
v -0.073587 3.553066 0.032741
v -0.099117 3.553066 0.191128
v -0.266099 3.461878 -0.043129
v -0.307470 3.460916 0.202646
v -0.372956 3.401721 0.016412
v -0.389588 3.401259 0.115222
v -0.026016 3.461878 -0.250978
v -0.229060 3.460916 -0.106442
v -0.143678 3.401721 -0.284435
v -0.225308 3.401259 -0.226327
v 0.188309 3.494530 0.494671
v 0.153214 3.553066 0.346707
v 0.235691 3.461878 0.536483
v 0.438735 3.460916 0.391946
v 0.353353 3.401721 0.569939
v 0.434983 3.401259 0.511831
v -0.084984 3.494530 0.450619
v -0.005174 3.553066 0.321177
v -0.081044 3.461878 0.513689
v 0.164731 3.460916 0.555060
v -0.021502 3.401721 0.620546
v 0.077308 3.401259 0.637178
v -0.288893 3.461878 0.273606
v -0.144357 3.460916 0.476649
v -0.322348 3.401721 0.391267
v -0.264241 3.401259 0.472898
v 0.308793 3.553063 0.094377
v 0.214849 3.553063 -0.035673
v 0.056462 3.553063 -0.061203
v 0.021367 3.494526 -0.209167
v 0.283262 3.553063 0.252763
v 0.412705 3.494526 0.332573
vt 0.342024 0.736176
vt 0.329051 0.707530
vt 0.358480 0.718613
vt 0.299623 0.696446
vt 0.300405 0.720502
vt 0.274782 0.686399
vt 0.275735 0.730963
vt 0.263193 0.689154
vt 0.264354 0.728659
vt 0.246451 0.716910
vt 0.245989 0.701234
vt 0.317968 0.736959
vt 0.307921 0.761799
vt 0.269488 0.741105
vt 0.298244 0.768219
vt 0.277277 0.772570
vt 0.265866 0.761812
vt 0.357698 0.694557
vt 0.340135 0.678101
vt 0.382367 0.684097
vt 0.350182 0.653261
vt 0.388615 0.673955
vt 0.359859 0.646841
vt 0.380826 0.642490
vt 0.392237 0.653248
vt 0.316079 0.678883
vt 0.305619 0.654214
vt 0.347428 0.641671
vt 0.307922 0.642832
vt 0.319672 0.624929
vt 0.335347 0.624468
vt 0.295476 0.647966
vt 0.268363 0.676722
vt 0.264011 0.655755
vt 0.274769 0.644344
vn 0.161911 0.951224 -0.262599
vn -0.000000 1.000000 -0.000000
vn 0.300175 0.951224 -0.071198
vn -0.300175 0.951223 0.071198
vn -0.000000 1.000000 -0.000000
vn -0.262600 0.951224 -0.161911
vn -0.380415 0.920424 0.090025
vn -0.300175 0.951223 0.071198
vn -0.262600 0.951224 -0.161911
vn -0.332650 0.920424 -0.205336
vn -0.486132 0.870361 -0.078404
vn -0.380415 0.920424 0.090025
vn -0.332650 0.920424 -0.205336
vn -0.485528 0.870707 -0.078303
vn -0.524578 0.847129 -0.084799
vn -0.524578 0.847129 -0.084799
vn -0.486132 0.870361 -0.078404
vn -0.485528 0.870707 -0.078303
vn -0.262600 0.951224 -0.161911
vn -0.000000 1.000000 -0.000000
vn -0.071198 0.951224 -0.300174
vn -0.332650 0.920424 -0.205336
vn -0.262600 0.951224 -0.161911
vn -0.071198 0.951224 -0.300174
vn -0.090025 0.920425 -0.380412
vn -0.288305 0.870363 -0.399185
vn -0.332650 0.920424 -0.205336
vn -0.090025 0.920425 -0.380412
vn -0.287949 0.870709 -0.398688
vn -0.310974 0.847127 -0.430896
vn -0.310974 0.847127 -0.430896
vn -0.288305 0.870363 -0.399185
vn -0.287949 0.870709 -0.398688
vn 0.262600 0.951224 0.161911
vn -0.000000 1.000000 -0.000000
vn 0.071198 0.951224 0.300174
vn 0.332648 0.920425 0.205335
vn 0.262600 0.951224 0.161911
vn 0.071198 0.951224 0.300174
vn 0.090026 0.920425 0.380412
vn 0.288307 0.870361 0.399187
vn 0.332648 0.920425 0.205335
vn 0.090026 0.920425 0.380412
vn 0.287951 0.870707 0.398690
vn 0.310977 0.847125 0.430898
vn 0.310977 0.847125 0.430898
vn 0.288307 0.870361 0.399187
vn 0.287951 0.870707 0.398690
vn 0.300175 0.951224 -0.071198
vn -0.000000 1.000000 -0.000000
vn 0.262600 0.951224 0.161911
vn 0.071198 0.951224 0.300174
vn -0.000000 1.000000 -0.000000
vn -0.161911 0.951223 0.262600
vn 0.090026 0.920425 0.380412
vn 0.071198 0.951224 0.300174
vn -0.161911 0.951223 0.262600
vn -0.205335 0.920425 0.332649
vn -0.078402 0.870364 0.486128
vn 0.090026 0.920425 0.380412
vn -0.205335 0.920425 0.332649
vn -0.078302 0.870710 0.485524
vn -0.084798 0.847126 0.524583
vn -0.084798 0.847126 0.524583
vn -0.078402 0.870364 0.486128
vn -0.078302 0.870710 0.485524
vn -0.161911 0.951223 0.262600
vn -0.000000 1.000000 -0.000000
vn -0.300175 0.951223 0.071198
vn -0.205335 0.920425 0.332649
vn -0.161911 0.951223 0.262600
vn -0.300175 0.951223 0.071198
vn -0.380415 0.920424 0.090025
vn -0.399184 0.870363 0.288304
vn -0.205335 0.920425 0.332649
vn -0.380415 0.920424 0.090025
vn -0.398687 0.870709 0.287949
vn -0.430898 0.847127 0.310971
vn -0.430898 0.847127 0.310971
vn -0.399184 0.870363 0.288304
vn -0.398687 0.870709 0.287949
vn -0.071198 0.951224 -0.300174
vn -0.000000 1.000000 -0.000000
vn 0.161911 0.951224 -0.262599
s off
g PC_Scene polySurface9
usemtl phong1SG
f 200/212/387 170/213/388 199/214/389
f 174/215/390 170/213/391 173/216/392
f 172/217/393 174/215/394 173/216/395 171/218/396
f 176/219/397 172/217/398 171/218/399 175/220/400
f 177/221/401 178/222/402 176/219/403 175/220/404
f 173/216/405 170/213/406 201/223/407
f 171/218/408 173/216/409 201/223/410 202/224/411
f 180/225/412 171/218/413 202/224/414 179/226/415
f 181/227/416 182/228/417 180/225/418 179/226/419
f 203/229/420 170/213/421 184/230/422
f 204/231/423 203/229/424 184/230/425 183/232/426
f 186/233/427 204/231/428 183/232/429 185/234/430
f 187/235/431 188/236/432 186/233/433 185/234/434
f 199/214/435 170/213/436 203/229/437
f 184/230/438 170/213/439 190/237/440
f 183/232/441 184/230/442 190/237/443 189/238/444
f 192/239/445 183/232/446 189/238/447 191/240/448
f 193/241/449 194/242/450 192/239/451 191/240/452
f 190/237/453 170/213/454 174/215/455
f 189/238/456 190/237/457 174/215/458 172/217/459
f 196/243/460 189/238/461 172/217/462 195/244/463
f 197/245/464 198/246/465 196/243/466 195/244/467
f 201/223/468 170/213/469 200/212/470
g default
v 0.491423 3.348021 0.455132
v 0.104838 3.482752 0.142752
v 0.328884 3.455008 0.323792
v 0.052365 3.348021 -0.351491
v -0.281748 3.348021 -0.169628
v 0.074428 3.455008 -0.143687
v -0.119209 3.455008 -0.038288
v -0.004937 3.291839 -0.416740
v -0.306887 3.290260 -0.255094
v -0.159494 3.204321 -0.482842
v -0.280888 3.203686 -0.417855
v -0.207542 3.348021 0.529338
v 0.157310 3.348021 0.636995
v -0.076202 3.455008 0.366798
v 0.135247 3.455008 0.429192
v -0.213159 3.291839 0.615995
v 0.114652 3.290260 0.715205
v -0.150614 3.204321 0.772025
v -0.018823 3.203686 0.811910
v 0.214613 3.291839 0.702244
v 0.516562 3.290260 0.540598
v 0.369169 3.204321 0.768346
v 0.490564 3.203686 0.703359
v -0.389406 3.348021 0.195224
v -0.181601 3.455008 0.173162
v -0.454654 3.291839 0.252528
v -0.293009 3.290260 0.554477
v -0.520757 3.204321 0.407084
v -0.455769 3.203686 0.528478
v -0.368405 3.291839 -0.175245
v -0.467615 3.290260 0.152565
v -0.524434 3.204321 -0.112699
v -0.564321 3.203686 0.019092
vt 0.276336 0.730889
vt 0.300728 0.720459
vt 0.318166 0.736699
vt 0.308294 0.761322
vt 0.270181 0.740949
vt 0.298732 0.767707
vt 0.277987 0.772078
vt 0.266658 0.761461
vt 0.339936 0.678361
vt 0.329051 0.707530
vt 0.316122 0.679207
vt 0.349809 0.653737
vt 0.305692 0.654815
vt 0.347048 0.642271
vt 0.307938 0.643539
vt 0.319518 0.625780
vt 0.335035 0.625276
vt 0.381766 0.684171
vt 0.357374 0.694601
vt 0.387921 0.674110
vt 0.359370 0.647353
vt 0.380116 0.642982
vt 0.391445 0.653599
vt 0.299882 0.696645
vt 0.275259 0.686772
vt 0.295632 0.648660
vt 0.268874 0.677211
vt 0.264504 0.656465
vt 0.275120 0.645136
vt 0.263793 0.689533
vt 0.265061 0.728642
vt 0.247301 0.717063
vt 0.246797 0.701546
vn -0.374723 0.876187 -0.303116
vn -0.297121 0.924163 -0.240087
vn -0.040328 0.924163 -0.379863
vn -0.050634 0.876187 -0.479303
vn -0.264255 0.833353 -0.485481
vn -0.374723 0.876187 -0.303116
vn -0.050634 0.876187 -0.479303
vn -0.264255 0.833353 -0.485481
vn -0.264253 0.833354 -0.485480
vn -0.264253 0.833354 -0.485480
vn -0.264255 0.833353 -0.485481
vn -0.264255 0.833353 -0.485481
vn 0.040328 0.924163 0.379863
vn -0.000000 1.000000 -0.000000
vn -0.240088 0.924163 0.297120
vn 0.050633 0.876188 0.479303
vn 0.040328 0.924163 0.379863
vn -0.240088 0.924163 0.297120
vn -0.303115 0.876188 0.374721
vn -0.156429 0.833355 0.530142
vn 0.050633 0.876188 0.479303
vn -0.303115 0.876188 0.374721
vn -0.156429 0.833354 0.530142
vn -0.156430 0.833354 0.530142
vn -0.156430 0.833354 0.530142
vn -0.156429 0.833355 0.530142
vn -0.156429 0.833354 0.530142
vn 0.374722 0.876187 0.303115
vn 0.297121 0.924163 0.240088
vn 0.040328 0.924163 0.379863
vn 0.050633 0.876188 0.479303
vn 0.264255 0.833354 0.485480
vn 0.374722 0.876187 0.303115
vn 0.050633 0.876188 0.479303
vn 0.264255 0.833354 0.485480
vn 0.264255 0.833353 0.485482
vn 0.264255 0.833353 0.485482
vn 0.264255 0.833354 0.485480
vn 0.264255 0.833354 0.485480
vn -0.240088 0.924163 0.297120
vn -0.000000 1.000000 -0.000000
vn -0.379864 0.924163 0.040329
vn -0.303115 0.876188 0.374721
vn -0.240088 0.924163 0.297120
vn -0.379864 0.924163 0.040329
vn -0.479304 0.876187 0.050634
vn -0.485480 0.833354 0.264253
vn -0.303115 0.876188 0.374721
vn -0.479304 0.876187 0.050634
vn -0.485480 0.833354 0.264253
vn -0.485482 0.833352 0.264256
vn -0.485482 0.833352 0.264256
vn -0.485480 0.833354 0.264253
vn -0.485480 0.833354 0.264253
vn -0.379864 0.924163 0.040329
vn -0.000000 1.000000 -0.000000
vn -0.297121 0.924163 -0.240087
vn -0.479304 0.876187 0.050634
vn -0.379864 0.924163 0.040329
vn -0.297121 0.924163 -0.240087
vn -0.374723 0.876187 -0.303116
vn -0.530144 0.833352 -0.156432
vn -0.479304 0.876187 0.050634
vn -0.374723 0.876187 -0.303116
vn -0.530144 0.833352 -0.156432
vn -0.530139 0.833356 -0.156432
vn -0.530139 0.833356 -0.156432
vn -0.530144 0.833352 -0.156432
vn -0.530144 0.833352 -0.156432
s off
g PC_Scene polySurface10
usemtl phong1SG
f 209/247/471 211/248/472 210/249/473 208/250/474
f 213/251/475 209/247/476 208/250/477 212/252/478
f 214/253/479 215/254/480 213/251/481 212/252/482
f 219/255/483 206/256/484 218/257/485
f 217/258/486 219/255/487 218/257/488 216/259/489
f 221/260/490 217/258/491 216/259/492 220/261/493
f 222/262/494 223/263/495 221/260/496 220/261/497
f 205/264/498 207/265/499 219/255/500 217/258/501
f 225/266/502 205/264/503 217/258/504 224/267/505
f 226/268/506 227/269/507 225/266/508 224/267/509
f 218/257/510 206/256/511 229/270/512
f 216/259/513 218/257/514 229/270/515 228/271/516
f 231/272/517 216/259/518 228/271/519 230/273/520
f 232/274/521 233/275/522 231/272/523 230/273/524
f 229/270/525 206/256/526 211/248/527
f 228/271/528 229/270/529 211/248/530 209/247/531
f 235/276/532 228/271/533 209/247/534 234/277/535
f 236/278/536 237/279/537 235/276/538 234/277/539
g default
v 0.606294 3.115726 -0.159910
v 0.245405 3.115733 -0.425846
v 0.647355 3.069745 -0.253646
v 0.324103 3.068453 -0.495334
v 0.640795 2.998118 -0.451636
v 0.510837 2.997598 -0.548801
v 0.673435 3.115733 0.283321
v 0.768752 3.069745 0.246074
v 0.711076 3.068453 -0.153399
v 0.904112 2.998118 0.101437
v 0.880923 2.997598 -0.059165
v 0.186304 3.220536 -0.186779
v 0.104838 3.264994 0.142754
v 0.395456 3.220529 -0.032656
v 0.434368 3.220536 0.224221
vt 0.305781 0.719522
vt 0.328414 0.707809
vt 0.320695 0.732094
vt 0.280249 0.730492
vt 0.310401 0.757904
vt 0.273526 0.742263
vt 0.299505 0.765424
vt 0.277957 0.772950
vt 0.267893 0.763977
vt 0.340129 0.730439
vt 0.351102 0.755968
vt 0.313969 0.770983
vt 0.348715 0.768990
vt 0.338799 0.789549
vt 0.325338 0.790320
vn 0.080477 0.942102 -0.325527
vn 0.000000 1.000000 0.000000
vn 0.287089 0.942101 -0.173277
vn 0.094172 0.920141 -0.380095
vn 0.080477 0.942102 -0.325527
vn 0.287089 0.942101 -0.173277
vn 0.335357 0.920141 -0.202177
vn 0.248195 0.908271 -0.336813
vn 0.094172 0.920141 -0.380095
vn 0.335357 0.920141 -0.202177
vn 0.248195 0.908271 -0.336814
vn 0.248195 0.908272 -0.336812
vn 0.248195 0.908271 -0.336812
vn 0.248195 0.908271 -0.336813
vn 0.248195 0.908271 -0.336814
vn 0.335357 0.920141 -0.202177
vn 0.287089 0.942101 -0.173277
vn 0.325528 0.942101 0.080477
vn 0.380094 0.920142 0.094172
vn 0.413664 0.908271 -0.062663
vn 0.335357 0.920141 -0.202177
vn 0.380094 0.920142 0.094172
vn 0.413664 0.908271 -0.062663
vn 0.413664 0.908270 -0.062663
vn 0.413664 0.908270 -0.062663
vn 0.413664 0.908271 -0.062663
vn 0.413664 0.908271 -0.062663
s off
g PC_Scene polySurface17 polySurface13
usemtl phong1SG
f 249/280/540 250/281/541 251/282/542
f 239/283/543 249/280/544 251/282/545 238/284/546
f 241/285/547 239/283/548 238/284/549 240/286/550
f 242/287/551 243/288/552 241/285/553 240/286/554
f 238/284/555 251/282/556 252/289/557 244/290/558
f 246/291/559 238/284/560 244/290/561 245/292/562
f 247/293/563 248/294/564 246/291/565 245/292/566
g default
v 0.511953 0.000000 -0.092294
v 0.339882 0.000000 -0.264360
v 0.104836 0.000000 -0.327342
v 0.574929 0.000000 0.142753
v 0.426243 1.000004 -0.413941
v 0.661529 1.000004 -0.178654
v 0.104836 1.000004 -0.500061
v -0.130211 0.000004 -0.264360
v -0.216572 1.000004 -0.413941
v 0.747649 1.000004 0.142753
vt 0.332811 0.918666
vt 0.339565 0.918666
vt 0.339565 0.941915
vt 0.332811 0.941915
vt 0.332798 0.918722
vt 0.339578 0.918722
vt 0.339578 0.941881
vt 0.332798 0.941881
vt 0.332791 0.918751
vt 0.339585 0.918751
vt 0.339585 0.941865
vt 0.332791 0.941865
vt 0.332808 0.918676
vt 0.339568 0.918676
vt 0.339568 0.941908
vt 0.332808 0.941908
vn 0.853390 -0.170199 -0.492704
vn 0.492705 -0.170199 -0.853390
vn 0.492705 -0.170199 -0.853390
vn 0.853390 -0.170199 -0.492705
vn 0.492705 -0.170199 -0.853390
vn 0.000000 -0.170200 -0.985410
vn 0.000000 -0.170200 -0.985410
vn 0.492705 -0.170199 -0.853390
vn 0.000000 -0.170200 -0.985410
vn -0.492707 -0.170201 -0.853388
vn -0.492707 -0.170201 -0.853388
vn 0.000000 -0.170200 -0.985410
vn 0.985410 -0.170198 0.000000
vn 0.853390 -0.170199 -0.492704
vn 0.853390 -0.170199 -0.492705
vn 0.985410 -0.170198 -0.000000
s off
g PC_Scene polySurface13 polySurface18
usemtl phong3SG
f 253/295/567 254/296/568 257/297/569 258/298/570
f 254/299/571 255/300/572 259/301/573 257/302/574
f 255/303/575 260/304/576 261/305/577 259/306/578
f 256/307/579 253/308/580 258/309/581 262/310/582
g default
v -0.377526 1.000007 -0.135738
v -0.452147 1.000007 0.142753
v -0.377526 1.000007 0.421245
v -0.173656 1.000007 0.625113
v 0.104836 1.000007 0.699735
v 0.383328 1.000007 0.625113
v -0.363496 0.818988 -0.127641
v -0.435947 0.818988 0.142753
v -0.363496 0.818988 0.413145
v -0.165558 0.818988 0.611088
v 0.104836 0.818988 0.683538
v 0.375230 0.818988 0.611088
vt 0.332787 0.943647
vt 0.339589 0.943647
vt 0.339589 0.947901
vt 0.332787 0.947901
vt 0.332783 0.943635
vt 0.339593 0.943635
vt 0.339593 0.947884
vt 0.332783 0.947884
vt 0.332784 0.943636
vt 0.339593 0.943636
vt 0.339593 0.947885
vt 0.332784 0.947885
vt 0.332786 0.943642
vt 0.339590 0.943642
vt 0.339590 0.947895
vt 0.332786 0.947895
vt 0.332789 0.943653
vt 0.339587 0.943653
vt 0.339587 0.947910
vt 0.332789 0.947910
vn 0.862582 0.089130 0.498004
vn 0.996020 0.089134 0.000000
vn 0.996020 0.089134 -0.000000
vn 0.862580 0.089130 0.498008
vn 0.996020 0.089134 0.000000
vn 0.862580 0.089130 -0.498007
vn 0.862580 0.089130 -0.498007
vn 0.996020 0.089134 -0.000000
vn 0.862580 0.089130 -0.498007
vn 0.498013 0.089120 -0.862578
vn 0.498011 0.089120 -0.862579
vn 0.862580 0.089130 -0.498007
vn 0.498013 0.089120 -0.862578
vn 0.000000 0.089113 -0.996022
vn 0.000000 0.089113 -0.996022
vn 0.498011 0.089120 -0.862579
vn 0.000000 0.089113 -0.996022
vn -0.498009 0.089110 -0.862581
vn -0.498009 0.089110 -0.862581
vn 0.000000 0.089113 -0.996022
s off
g PC_Scene polySurface13 polySurface19
usemtl phong3SG
f 263/311/583 264/312/584 270/313/585 269/314/586
f 264/315/587 265/316/588 271/317/589 270/318/590
f 265/319/591 266/320/592 272/321/593 271/322/594
f 266/323/595 267/324/596 273/325/597 272/326/598
f 267/327/599 268/328/600 274/329/601 273/330/602
g default
v 0.595086 2.836873 -0.347498
v 0.388963 2.952980 -0.141373
v 0.615642 2.785932 -0.466878
v 0.175527 2.784501 -0.652773
v 0.551858 2.706579 -0.692525
v 0.374917 2.706004 -0.767262
v 0.897103 2.785932 0.072872
v 0.717343 2.784501 -0.369782
v 1.011560 2.706579 -0.131786
v 0.939290 2.706004 -0.309749
v 0.506652 2.952984 0.142753
v 0.104837 2.952984 -0.259062
v 0.104837 3.018478 0.142753
v 0.104837 2.836877 -0.550567
v 0.798156 2.836877 0.142752
vt 0.317169 0.685241
vt 0.328799 0.707710
vt 0.304687 0.700047
vt 0.306276 0.659895
vt 0.279061 0.689827
vt 0.294589 0.653218
vt 0.271595 0.679010
vt 0.264123 0.657615
vt 0.273032 0.647624
vt 0.306329 0.719342
vt 0.280981 0.730234
vt 0.266076 0.693368
vt 0.268052 0.727864
vt 0.247641 0.718018
vt 0.246877 0.704653
vn 0.000000 0.945993 -0.324188
vn -0.000000 1.000000 -0.000000
vn 0.229236 0.945992 -0.229236
vn 0.000192 0.929019 -0.370031
vn 0.000000 0.945993 -0.324188
vn 0.229236 0.945992 -0.229236
vn 0.261787 0.929019 -0.261518
vn 0.151503 0.918296 -0.365759
vn 0.000192 0.929019 -0.370031
vn 0.261787 0.929019 -0.261518
vn 0.151503 0.918296 -0.365759
vn 0.151503 0.918295 -0.365761
vn 0.151503 0.918295 -0.365761
vn 0.151503 0.918296 -0.365759
vn 0.151503 0.918296 -0.365759
vn 0.261787 0.929019 -0.261518
vn 0.229236 0.945992 -0.229236
vn 0.324188 0.945993 0.000000
vn 0.370032 0.929019 0.000191
vn 0.365760 0.918295 -0.151503
vn 0.261787 0.929019 -0.261518
vn 0.370032 0.929019 0.000191
vn 0.365760 0.918295 -0.151503
vn 0.365758 0.918297 -0.151503
vn 0.365758 0.918296 -0.151503
vn 0.365760 0.918295 -0.151503
vn 0.365760 0.918295 -0.151503
s off
g PC_Scene polySurface13 polySurface20
usemtl phong1SG
f 286/331/603 287/332/604 276/333/605
f 288/334/606 286/331/607 276/333/608 275/335/609
f 278/336/610 288/334/611 275/335/612 277/337/613
f 279/338/614 280/339/615 278/336/616 277/337/617
f 275/335/618 276/333/619 285/340/620 289/341/621
f 282/342/622 275/335/623 289/341/624 281/343/625
f 283/344/626 284/345/627 282/342/628 281/343/629
g default
v 0.224660 0.844674 -0.064787
v 0.224660 0.844682 0.350291
v 0.344483 0.844674 0.142752
v 0.188304 0.995601 -0.001817
v 0.188304 0.995609 0.287322
v 0.271772 0.995601 0.142752
v 0.166789 1.287952 0.035448
v 0.166787 3.491454 0.035448
v -0.014984 0.844678 -0.064787
v 0.021370 0.995605 -0.001817
v 0.042885 1.287956 0.035448
v 0.042883 3.491457 0.035448
v 0.228743 1.287952 0.142752
v 0.166789 1.287960 0.250057
v 0.228741 3.491454 0.142752
vt 0.318266 0.918946
vt 0.324092 0.918946
vt 0.324092 0.920594
vt 0.318266 0.920594
vt 0.307163 0.918946
vt 0.312885 0.918946
vt 0.312885 0.920594
vt 0.307163 0.920594
vt 0.324092 0.923924
vt 0.318266 0.923924
vt 0.312885 0.923924
vt 0.307163 0.923924
vt 0.324092 0.952805
vt 0.318266 0.952805
vt 0.312885 0.952805
vn 0.450453 0.434024 -0.780202
vn -0.450450 0.434023 -0.780204
vn -0.478639 0.289188 -0.829020
vn 0.478637 0.289187 -0.829022
vn 0.450452 0.434024 0.780203
vn 0.900900 0.434026 -0.000000
vn 0.957272 0.289188 -0.000000
vn 0.478636 0.289188 0.829022
vn 0.900900 0.434026 -0.000000
vn 0.450453 0.434024 -0.780202
vn 0.478637 0.289187 -0.829022
vn 0.957272 0.289188 -0.000000
vn 0.478637 0.289187 -0.829022
vn -0.478639 0.289188 -0.829020
vn -0.499898 0.020617 -0.865839
vn 0.499893 0.020618 -0.865842
vn 0.478636 0.289188 0.829022
vn 0.957272 0.289188 -0.000000
vn 0.999788 0.020618 0.000000
vn 0.499892 0.020618 0.865842
vn 0.957272 0.289188 -0.000000
vn 0.478637 0.289187 -0.829022
vn 0.499893 0.020618 -0.865842
vn 0.999788 0.020618 0.000000
vn 0.499893 0.020618 -0.865842
vn -0.499898 0.020617 -0.865839
vn -0.500004 -0.000000 -0.866023
vn 0.499999 0.000001 -0.866026
vn 0.999788 0.020618 0.000000
vn 0.499893 0.020618 -0.865842
vn 0.499999 0.000001 -0.866026
vn 1.000000 0.000001 -0.000000
s off
g PC_Scene polySurface13 polySurface21
usemtl phong2SG
f 290/346/630 298/347/631 299/348/632 293/349/633
f 291/350/634 292/351/635 295/352/636 294/353/637
f 292/351/638 290/346/639 293/349/640 295/352/641
f 293/349/642 299/348/643 300/354/644 296/355/645
f 294/353/646 295/352/647 302/356/648 303/357/649
f 295/352/650 293/349/651 296/355/652 302/356/653
f 296/355/654 300/354/655 301/358/656 297/359/657
f 302/356/658 296/355/659 297/359/660 304/360/661
g default
v 0.442889 2.861539 0.019679
v 0.668443 2.557075 -0.086861
v 0.769334 2.417290 -0.067600
v 0.761278 2.405777 0.352820
v 0.916198 2.199905 0.219267
v 0.919437 2.204532 0.050244
v 0.254022 2.876653 -0.173750
v 0.342558 2.583154 -0.420617
v -0.105470 2.471547 -0.537356
v 0.314873 2.457218 -0.529661
v 0.180536 2.264925 -0.700532
v 0.011544 2.270685 -0.703625
v 0.429484 2.447006 -0.483844
v 0.720949 2.427212 -0.181177
v 0.739062 2.230015 -0.393321
v 0.621883 2.237972 -0.515004
v 0.662565 2.540074 0.379991
v -0.016482 2.888177 -0.176735
v -0.124188 2.603034 -0.425768
vt 0.306136 0.579922
vt 0.293098 0.583475
vt 0.291172 0.542905
vt 0.304154 0.545286
vt 0.324648 0.555173
vt 0.325414 0.568592
vt 0.225199 0.615457
vt 0.235461 0.589726
vt 0.254835 0.588076
vt 0.265773 0.613527
vt 0.228756 0.628495
vt 0.263394 0.626508
vt 0.253509 0.647004
vt 0.240090 0.647772
vt 0.267368 0.573211
vt 0.293098 0.583475
vt 0.277506 0.620232
vt 0.300595 0.594337
vt 0.308096 0.615820
vt 0.299150 0.625851
vn 0.808379 0.587814 0.031586
vn 0.730986 0.631778 -0.257909
vn 0.723494 0.610665 0.321941
vn 0.808379 0.587814 0.031586
vn 0.808375 0.587819 0.031585
vn 0.808375 0.587820 0.031585
vn 0.808379 0.587814 0.031586
vn 0.808379 0.587814 0.031586
vn -0.253355 0.688865 -0.679174
vn -0.230762 0.744900 -0.625997
vn 0.306982 0.722000 -0.620063
vn 0.326360 0.664169 -0.672584
vn 0.036046 0.649620 -0.759404
vn -0.253355 0.688865 -0.679174
vn 0.326360 0.664169 -0.672584
vn 0.036046 0.649620 -0.759404
vn 0.036046 0.649620 -0.759404
vn 0.036046 0.649620 -0.759404
vn 0.036046 0.649620 -0.759404
vn 0.036046 0.649620 -0.759404
vn 0.326360 0.664169 -0.672584
vn 0.306982 0.722000 -0.620063
vn 0.682439 0.691953 -0.235538
vn 0.730986 0.631778 -0.257909
vn 0.586247 0.617721 -0.524153
vn 0.326360 0.664169 -0.672584
vn 0.730986 0.631778 -0.257909
vn 0.586247 0.617720 -0.524153
vn 0.586244 0.617724 -0.524151
vn 0.586244 0.617724 -0.524151
vn 0.586247 0.617721 -0.524153
vn 0.586247 0.617720 -0.524153
s off
g PC_Scene polySurface13 polySurface22
usemtl phong1SG
f 307/361/662 306/362/663 321/363/664 308/364/665
f 309/365/666 310/366/667 307/361/668 308/364/669
f 323/367/670 322/368/671 311/369/672 312/370/673
f 313/371/674 323/367/675 312/370/676 314/372/677
f 315/373/678 316/374/679 313/371/680 314/372/681
f 312/370/682 311/369/683 305/375/684 306/376/685
f 317/377/686 312/370/687 306/376/688 318/378/689
f 319/379/690 320/380/691 317/377/692 318/378/693
g default
v 0.456756 3.494522 0.059281
v 0.294659 3.494522 -0.165115
v 0.308793 3.553066 0.094377
v 0.214849 3.553066 -0.035673
v 0.498568 3.461870 0.011899
v 0.354032 3.460908 -0.191145
v 0.532025 3.401713 -0.105763
v 0.473916 3.401251 -0.187394
v 0.021367 3.494530 -0.209167
v 0.056462 3.553066 -0.061203
v 0.412705 3.494530 0.332573
v 0.283262 3.553066 0.252763
v 0.475775 3.461870 0.328634
v 0.517145 3.460908 0.082859
v 0.582631 3.401713 0.269092
v 0.599263 3.401251 0.170282
v 0.290719 3.461870 -0.228185
v 0.044944 3.460908 -0.269556
v 0.231177 3.401713 -0.335042
v 0.132367 3.401251 -0.351674
vt 0.352484 0.760845
vt 0.342024 0.736176
vt 0.358480 0.718613
vt 0.383321 0.728660
vt 0.362627 0.767093
vt 0.389740 0.738338
vt 0.394091 0.759304
vt 0.383334 0.770715
vt 0.357698 0.694557
vt 0.382367 0.684097
vt 0.394910 0.725906
vt 0.393749 0.686401
vt 0.411652 0.698150
vt 0.412113 0.713825
vt 0.307921 0.761799
vt 0.317968 0.736959
vt 0.310675 0.773389
vt 0.350181 0.772228
vt 0.338431 0.790130
vt 0.322756 0.790591
vn 0.205336 0.920425 -0.332649
vn 0.161911 0.951224 -0.262599
vn 0.300175 0.951224 -0.071198
vn 0.380412 0.920425 -0.090025
vn 0.399184 0.870363 -0.288305
vn 0.205336 0.920425 -0.332649
vn 0.380412 0.920425 -0.090025
vn 0.398687 0.870709 -0.287950
vn 0.430893 0.847130 -0.310971
vn 0.430893 0.847130 -0.310971
vn 0.399184 0.870363 -0.288305
vn 0.398687 0.870709 -0.287950
vn 0.380412 0.920425 -0.090025
vn 0.300175 0.951224 -0.071198
vn 0.262600 0.951224 0.161911
vn 0.332648 0.920425 0.205335
vn 0.486125 0.870365 0.078401
vn 0.380412 0.920425 -0.090025
vn 0.332648 0.920425 0.205335
vn 0.485522 0.870711 0.078301
vn 0.524589 0.847122 0.084798
vn 0.524589 0.847122 0.084798
vn 0.486125 0.870365 0.078401
vn 0.485522 0.870711 0.078301
vn -0.090025 0.920425 -0.380412
vn -0.071198 0.951224 -0.300174
vn 0.161911 0.951224 -0.262599
vn 0.205336 0.920425 -0.332649
vn 0.078403 0.870363 -0.486128
vn -0.090025 0.920425 -0.380412
vn 0.205336 0.920425 -0.332649
vn 0.078303 0.870709 -0.485525
vn 0.084799 0.847126 -0.524583
vn 0.084799 0.847126 -0.524583
vn 0.078403 0.870363 -0.486128
vn 0.078303 0.870709 -0.485525
s off
g PC_Scene polySurface13 polySurface23
usemtl phong1SG
f 325/381/694 327/382/695 326/383/696 324/384/697
f 329/385/698 325/381/699 324/384/700 328/386/701
f 330/387/702 331/388/703 329/385/704 328/386/705
f 324/384/706 326/383/707 335/389/708 334/390/709
f 337/391/710 324/384/711 334/390/712 336/392/713
f 338/393/714 339/394/715 337/391/716 336/392/717
f 332/395/718 333/396/719 327/382/720 325/381/721
f 341/397/722 332/395/723 325/381/724 340/398/725
f 342/399/726 343/400/727 341/397/728 340/398/729
g default
v 0.599081 3.348013 0.090280
v 0.391277 3.455001 0.112342
v 0.578081 3.291832 0.460749
v 0.677290 3.290253 0.132938
v 0.734110 3.204314 0.398203
v 0.773996 3.203679 0.266412
v 0.417217 3.348013 -0.243834
v 0.285877 3.455001 -0.081294
v 0.422835 3.291832 -0.330491
v 0.095024 3.290253 -0.429701
v 0.360289 3.204314 -0.486521
v 0.228498 3.203679 -0.526406
v 0.664330 3.291832 0.032977
v 0.502684 3.290253 -0.268972
v 0.730432 3.204314 -0.121580
v 0.665445 3.203679 -0.242973
v 0.074428 3.455004 -0.143687
v 0.052365 3.348017 -0.351491
v 0.328884 3.455004 0.323792
v 0.491423 3.348017 0.455132
vt 0.382844 0.728288
vt 0.358220 0.718415
vt 0.357374 0.694601
vt 0.381766 0.684171
vt 0.394310 0.725526
vt 0.393042 0.686417
vt 0.410801 0.697996
vt 0.411305 0.713514
vt 0.308294 0.761322
vt 0.318166 0.736699
vt 0.341980 0.735852
vt 0.352411 0.760245
vt 0.311055 0.772788
vt 0.350164 0.771520
vt 0.338585 0.789280
vt 0.323067 0.789784
vt 0.362471 0.766400
vt 0.389229 0.737849
vt 0.393599 0.758594
vt 0.382983 0.769923
vn 0.479303 0.876188 -0.050634
vn 0.379864 0.924163 -0.040329
vn 0.297121 0.924163 0.240088
vn 0.374722 0.876187 0.303115
vn 0.530141 0.833355 0.156430
vn 0.479303 0.876188 -0.050634
vn 0.374722 0.876187 0.303115
vn 0.530141 0.833355 0.156430
vn 0.530139 0.833356 0.156431
vn 0.530140 0.833356 0.156431
vn 0.530141 0.833355 0.156430
vn 0.530141 0.833355 0.156430
vn -0.050634 0.876187 -0.479303
vn -0.040328 0.924163 -0.379863
vn 0.240087 0.924163 -0.297121
vn 0.303114 0.876188 -0.374722
vn 0.156430 0.833353 -0.530144
vn -0.050634 0.876187 -0.479303
vn 0.303114 0.876188 -0.374722
vn 0.156430 0.833353 -0.530144
vn 0.156429 0.833353 -0.530144
vn 0.156429 0.833353 -0.530144
vn 0.156430 0.833353 -0.530144
vn 0.156430 0.833353 -0.530144
vn 0.303114 0.876188 -0.374722
vn 0.240087 0.924163 -0.297121
vn 0.379864 0.924163 -0.040329
vn 0.479303 0.876188 -0.050634
vn 0.485478 0.833356 -0.264252
vn 0.303114 0.876188 -0.374722
vn 0.479303 0.876188 -0.050634
vn 0.485478 0.833356 -0.264252
vn 0.485480 0.833355 -0.264253
vn 0.485480 0.833355 -0.264253
vn 0.485478 0.833356 -0.264252
vn 0.485478 0.833356 -0.264252
s off
g PC_Scene polySurface13 polySurface24
usemtl phong1SG
f 344/401/730 345/402/731 362/403/732 363/404/733
f 347/405/734 344/401/735 363/404/736 346/406/737
f 348/407/738 349/408/739 347/405/740 346/406/741
f 361/409/742 360/410/743 351/411/744 350/412/745
f 353/413/746 361/409/747 350/412/748 352/414/749
f 354/415/750 355/416/751 353/413/752 352/414/753
f 350/412/754 351/411/755 345/402/756 344/401/757
f 357/417/758 350/412/759 344/401/760 356/418/761
f 358/419/762 359/420/763 357/417/764 356/418/765
g default
v 0.511953 0.000000 0.377797
v 0.661529 1.000004 0.464160
v 0.426243 1.000004 0.699444
v 0.339882 0.000004 0.549863
v 0.574929 0.000000 0.142753
v 0.747649 1.000004 0.142753
vt 0.332794 0.918739
vt 0.339582 0.918739
vt 0.339582 0.941872
vt 0.332794 0.941872
vt 0.332799 0.918715
vt 0.339577 0.918715
vt 0.339577 0.941886
vt 0.332799 0.941886
vn 0.492701 -0.170200 0.853392
vn 0.853389 -0.170199 0.492706
vn 0.853389 -0.170199 0.492707
vn 0.492702 -0.170200 0.853392
vn 0.853389 -0.170199 0.492706
vn 0.985410 -0.170198 0.000000
vn 0.985410 -0.170198 -0.000000
vn 0.853389 -0.170199 0.492707
s off
g PC_Scene polySurface13 polySurface96 polySurface25
usemtl phong3SG
f 367/421/766 364/422/767 365/423/768 366/424/769
f 364/425/770 368/426/771 369/427/772 365/428/773
g default
v -0.173656 1.000007 -0.339611
v -0.165558 0.818988 -0.325583
v -0.377526 1.000007 -0.135738
v -0.363496 0.818988 -0.127641
vt 0.332793 0.943666
vt 0.339583 0.943666
vt 0.339583 0.947928
vt 0.332793 0.947928
vn 0.498014 0.089124 0.862577
vn 0.862582 0.089130 0.498004
vn 0.862580 0.089130 0.498008
vn 0.498015 0.089124 0.862576
s off
g PC_Scene polySurface13 polySurface25 polySurface97
usemtl phong3SG
f 370/429/774 372/430/775 373/431/776 371/432/777
g default
v 0.388963 2.952984 0.426878
v 0.104837 2.952984 0.544566
v 0.104837 3.018478 0.142753
v 0.388963 2.952980 -0.141373
v 0.506652 2.952984 0.142753
vt 0.306329 0.719342
vt 0.328799 0.707710
vt 0.321134 0.731823
vt 0.340428 0.730180
vt 0.304687 0.700047
vn 0.324188 0.945993 0.000000
vn -0.000000 1.000000 -0.000000
vn 0.229235 0.945993 0.229236
vn 0.229235 0.945993 0.229236
vn -0.000000 1.000000 -0.000000
vn -0.000000 0.945993 0.324188
vn 0.229236 0.945992 -0.229236
vn -0.000000 1.000000 -0.000000
vn 0.324188 0.945993 0.000000
s off
g PC_Scene polySurface13 polySurface25 polySurface98
usemtl phong1SG
f 378/433/778 376/434/779 374/435/780
f 374/435/781 376/434/782 375/436/783
f 377/437/784 376/434/785 378/433/786
g default
v 0.166789 1.287960 0.250057
v 0.228743 1.287952 0.142752
v 0.166787 3.491461 0.250057
v 0.228741 3.491454 0.142752
vt 0.307163 0.923924
vt 0.312885 0.923924
vt 0.312885 0.952805
vt 0.307163 0.952805
vn 0.499892 0.020618 0.865842
vn 0.999788 0.020618 0.000000
vn 1.000000 0.000001 -0.000000
vn 0.499998 0.000001 0.866027
s off
g PC_Scene polySurface13 polySurface25 polySurface100
usemtl phong2SG
f 379/438/787 380/439/788 382/440/789 381/441/790
g default
v 0.121747 3.038588 0.157569
v 0.439483 2.851684 0.290244
v 0.328371 2.542104 0.706462
v 0.245799 2.852865 0.479451
v -0.024704 2.864384 0.476465
v -0.213571 2.879498 0.283036
v -0.210165 2.889354 0.012472
v 0.442889 2.861539 0.019679
v 0.254022 2.876653 -0.173750
v -0.016482 2.888177 -0.176735
v 0.668443 2.557075 -0.086861
v 0.662565 2.540074 0.379991
vt 0.267368 0.573211
vt 0.243156 0.565517
vt 0.265718 0.553839
vt 0.293098 0.583475
vt 0.291172 0.542905
vt 0.220593 0.577193
vt 0.235461 0.589726
vt 0.254835 0.588076
vt 0.250853 0.541306
vt 0.231480 0.542955
vt 0.261123 0.515578
vt 0.218945 0.557819
vn 0.682439 0.691953 -0.235538
vn 0.042111 0.998431 0.036898
vn 0.675669 0.672361 0.302328
vn 0.730986 0.631778 -0.257909
vn 0.682439 0.691953 -0.235538
vn 0.675669 0.672361 0.302328
vn 0.723494 0.610665 0.321941
vn -0.615791 0.747240 -0.249866
vn 0.042111 0.998431 0.036898
vn -0.230762 0.744900 -0.625997
vn -0.230762 0.744900 -0.625997
vn 0.042111 0.998431 0.036898
vn 0.306982 0.722000 -0.620063
vn 0.290637 0.674701 0.678460
vn 0.042111 0.998431 0.036898
vn -0.247107 0.697602 0.672525
vn 0.675669 0.672361 0.302328
vn 0.042111 0.998431 0.036898
vn 0.290637 0.674701 0.678460
vn 0.723494 0.610665 0.321941
vn 0.675669 0.672361 0.302328
vn 0.290637 0.674701 0.678460
vn 0.308273 0.613199 0.727293
vn -0.247107 0.697602 0.672525
vn 0.042111 0.998431 0.036898
vn -0.622561 0.727649 0.288000
vn -0.622561 0.727649 0.288000
vn 0.042111 0.998431 0.036898
vn -0.615791 0.747240 -0.249866
vn 0.306982 0.722000 -0.620063
vn 0.042111 0.998431 0.036898
vn 0.682439 0.691953 -0.235538
s off
g PC_Scene polySurface13 polySurface25 polySurface107
usemtl phong1SG
f 390/442/791 383/443/792 384/444/793
f 393/445/794 390/442/795 384/444/796 394/446/797
f 389/447/798 383/443/799 392/448/800
f 392/448/801 383/443/802 391/449/803
f 386/450/804 383/443/805 387/451/806
f 384/444/807 383/443/808 386/450/809
f 394/446/810 384/444/811 386/450/812 385/452/813
f 387/451/814 383/443/815 388/453/816
f 388/453/817 383/443/818 389/447/819
f 391/449/820 383/443/821 390/442/822
