# This file uses centimeters as units for non-parametric coordinates.

mtllib Pantalla.mtl
g default
v 3.073411 2.062946 -6.909875
v 3.073411 2.062951 -6.985444
v 3.073411 5.308160 -6.909875
v 3.073411 5.308166 -6.985444
v -3.073432 5.308160 -6.909875
v -3.075088 5.308165 -6.985444
v -3.073432 2.062946 -6.909875
v -3.075088 2.062950 -6.985444
vt 0.323654 0.985873
vt 0.323654 0.960959
vt 0.324234 0.985873
vt 0.324234 0.960959
vt 0.276465 0.985873
vt 0.276452 0.986453
vt 0.323654 0.986453
vt 0.276465 0.960959
vt 0.275884 0.960959
vt 0.275884 0.985873
vt 0.323654 0.960379
vt 0.276452 0.960379
vt 0.008155 0.043691
vt 0.991845 0.043691
vt 0.008155 0.956312
vt 0.991845 0.956312
vn 1.000000 0.000000 0.000000
vn 1.000000 0.000000 0.000000
vn 1.000000 0.000000 0.000000
vn 1.000000 0.000000 0.000000
vn 1.000000 0.000000 0.000000
vn 1.000000 0.000000 0.000000
vn -0.000000 1.000000 -0.000001
vn -0.000000 1.000000 -0.000001
vn -0.000000 1.000000 -0.000001
vn -0.000000 1.000000 -0.000001
vn -0.000000 1.000000 -0.000001
vn -0.000000 1.000000 -0.000001
vn -0.999760 0.000000 0.021906
vn -0.999760 0.000000 0.021906
vn -0.999760 0.000000 0.021906
vn -0.999760 0.000000 0.021906
vn -0.999760 0.000000 0.021906
vn -0.999760 0.000000 0.021906
vn 0.000000 -1.000000 0.000010
vn 0.000000 -1.000000 0.000010
vn 0.000000 -1.000000 0.000010
vn 0.000000 -1.000000 0.000010
vn 0.000000 -1.000000 0.000010
vn 0.000000 -1.000000 0.000010
vn 0.000000 0.000000 1.000000
vn 0.000000 0.000000 1.000000
vn 0.000000 0.000000 1.000000
vn 0.000000 0.000000 1.000000
vn 0.000000 0.000000 1.000000
vn 0.000000 0.000000 1.000000
s off
g Tele2:PC_ScenepolySurface11
usemtl Tele2:lambert3SG
f 3/1/1 1/2/2 4/3/3
f 4/3/4 1/2/5 2/4/6
f 5/5/7 3/1/8 6/6/9
f 6/6/10 3/1/11 4/7/12
f 7/8/13 5/5/14 8/9/15
f 8/9/16 5/5/17 6/10/18
f 2/11/19 1/2/20 8/12/21
f 8/12/22 1/2/23 7/8/24
f 7/13/25 1/14/26 5/15/27
f 5/15/28 1/14/29 3/16/30
