# This file uses centimeters as units for non-parametric coordinates.

mtllib Tele2.mtl
g default
v 0.000000 5.187788 -6.857977
v 0.000000 5.187788 -7.000002
v 2.972178 4.637789 -6.857977
v 2.972178 4.637789 -7.000002
v 0.000000 5.379563 -7.000002
v 0.000000 5.379563 -6.857977
v 3.163951 4.637789 -6.857977
v 3.163951 4.637789 -7.000002
v 2.992177 4.657789 -6.837977
v 3.143951 4.657789 -6.837977
v 0.000000 5.207788 -6.837977
v 0.000000 5.359563 -6.837977
v 2.807194 5.187788 -6.857977
v 2.923855 5.139466 -6.857977
v 2.972178 5.022805 -6.857977
v 2.972178 5.022805 -7.000002
v 2.923855 5.139466 -7.000002
v 2.807194 5.187788 -7.000002
v 2.998968 5.379563 -7.000002
v 3.115629 5.331241 -7.000002
v 3.163951 5.214580 -7.000002
v 3.163951 5.214580 -6.857977
v 3.115629 5.331241 -6.857977
v 2.998968 5.379563 -6.857977
v 3.143951 5.194580 -6.837977
v 3.095629 5.311241 -6.837977
v 2.978968 5.359563 -6.837977
v 2.992177 5.042805 -6.837977
v 2.943855 5.159466 -6.837977
v 2.827194 5.207788 -6.837977
v -2.972178 4.637789 -6.857977
v -2.972178 4.637789 -7.000002
v -3.163951 4.637789 -6.857977
v -3.163951 4.637789 -7.000002
v -2.992177 4.657789 -6.837977
v -3.143951 4.657789 -6.837977
v -2.807194 5.187788 -6.857977
v -2.923855 5.139466 -6.857977
v -2.972178 5.022805 -6.857977
v -2.972178 5.022805 -7.000002
v -2.923855 5.139466 -7.000002
v -2.807194 5.187788 -7.000002
v -2.998968 5.379563 -7.000002
v -3.115629 5.331241 -7.000002
v -3.163951 5.214580 -7.000002
v -3.163951 5.214580 -6.857977
v -3.115629 5.331241 -6.857977
v -2.998968 5.379563 -6.857977
v -3.143951 5.194580 -6.837977
v -3.095629 5.311241 -6.837977
v -2.978968 5.359563 -6.837977
v -2.992177 5.042805 -6.837977
v -2.943855 5.159466 -6.837977
v -2.827194 5.207788 -6.837977
vt 0.120438 0.981839
vt 0.115211 0.981839
vt 0.115211 0.974780
vt 0.120438 0.974780
vt 0.121175 0.975517
vt 0.121175 0.981103
vt 0.120473 0.982950
vt 0.120473 0.987309
vt 0.115165 0.987309
vt 0.115165 0.982950
vt 0.117677 0.990467
vt 0.113479 0.990467
vt 0.113479 0.985356
vt 0.117677 0.985356
vt 0.121207 0.986872
vt 0.121207 0.991213
vt 0.115922 0.991213
vt 0.115922 0.986872
vt 0.009381 0.985356
vt 0.013579 0.985356
vt 0.013579 0.990467
vt 0.009381 0.990467
vt 0.121487 0.985356
vt 0.121487 0.990467
vt 0.012472 0.990467
vt 0.012472 0.985356
vt 0.115922 0.965407
vt 0.121207 0.965407
vt 0.115165 0.968563
vt 0.120473 0.968563
vt 0.027709 0.024137
vt 0.027709 -0.000000
vt 0.771420 -0.000000
vt 0.561140 0.024137
vt 1.000000 0.500000
vt 0.789720 0.500000
vt 0.789720 0.050376
vt 1.000000 0.026238
vt 0.115178 0.986127
vt 0.115178 0.966151
vt 0.121220 0.969310
vt 0.121220 0.983697
vt 0.114199 0.991186
vt 0.012472 0.991186
vt 0.121487 0.991186
vt 0.014299 0.991186
vt 0.115178 0.990469
vt 0.010101 0.991186
vt 0.933051 0.007685
vt 0.722771 0.031822
vt 0.118397 0.991186
vt 0.121220 0.988057
vt 0.120438 0.981839
vt 0.120438 0.974780
vt 0.115211 0.974780
vt 0.115211 0.981839
vt 0.121175 0.981103
vt 0.121175 0.975517
vt 0.120473 0.982950
vt 0.115165 0.982950
vt 0.115165 0.987309
vt 0.120473 0.987309
vt 0.117677 0.990467
vt 0.117677 0.985356
vt 0.113479 0.985356
vt 0.113479 0.990467
vt 0.121207 0.986872
vt 0.115922 0.986872
vt 0.115922 0.991213
vt 0.121207 0.991213
vt 0.009381 0.985356
vt 0.009381 0.990467
vt 0.013579 0.990467
vt 0.013579 0.985356
vt 0.121487 0.990467
vt 0.121487 0.985356
vt 0.012472 0.985356
vt 0.012472 0.990467
vt 0.121207 0.965407
vt 0.115922 0.965407
vt 0.120473 0.968563
vt 0.115165 0.968563
vt 0.027709 0.975863
vt 0.561140 0.975863
vt 0.771420 1.000000
vt 0.027709 1.000000
vt 1.000000 0.973762
vt 0.789720 0.949624
vt 0.115178 0.966151
vt 0.115178 0.986127
vt 0.533430 0.972424
vt -0.000000 0.972424
vt 0.114199 0.991186
vt 0.012472 0.991186
vt 0.121487 0.991186
vt 0.014299 0.991186
vt 0.115178 0.990469
vt 0.010101 0.991186
vt 0.722771 0.968178
vt 0.933051 0.992315
vt 0.118397 0.991186
vt 0.121220 0.988057
vt 0.121220 0.983697
vn 0.000000 -1.000000 0.000000
vn 0.000000 -1.000000 0.000000
vn 0.000000 -1.000000 0.000000
vn 0.000000 -1.000000 0.000000
vn 0.000000 -0.707098 0.707116
vn 0.000000 -0.707098 0.707116
vn 0.000000 -0.707098 0.707116
vn 0.000000 -0.707098 0.707116
vn -0.995393 -0.095878 0.000000
vn -0.707106 -0.707108 0.000000
vn -0.995393 -0.095878 0.000000
vn -0.707106 -0.707108 0.000000
vn -0.707106 -0.707108 0.000000
vn -0.016525 -0.999864 0.000000
vn -0.707106 -0.707108 0.000000
vn -0.016525 -0.999864 0.000000
vn 0.997581 0.069516 0.000000
vn 0.707107 0.707107 0.000000
vn 0.997581 0.069516 0.000000
vn 0.707107 0.707107 0.000000
vn 0.707107 0.707107 0.000000
vn 0.015508 0.999880 0.000000
vn 0.707107 0.707107 0.000000
vn 0.015508 0.999880 0.000000
vn 0.015508 0.999880 0.000000
vn 0.015508 0.999880 0.000000
vn 0.000000 1.000000 0.000000
vn 0.000000 1.000000 0.000000
vn -0.016525 -0.999864 0.000000
vn -0.016525 -0.999864 0.000000
vn 0.000000 -1.000000 0.000000
vn 0.000000 -1.000000 0.000000
vn 0.997581 0.069516 0.000000
vn 1.000000 0.000000 0.000000
vn 0.997581 0.069516 0.000000
vn 1.000000 0.000000 0.000000
vn -0.995393 -0.095878 0.000000
vn -0.995393 -0.095878 0.000000
vn -1.000000 0.000000 0.000000
vn -1.000000 0.000000 0.000000
vn 0.000000 0.000000 1.000000
vn 0.000000 0.000000 1.000000
vn 0.000000 0.000000 1.000000
vn 0.000000 0.000000 1.000000
vn 0.000000 0.000000 1.000000
vn 0.000000 0.000000 1.000000
vn 0.000000 0.000000 1.000000
vn 0.000000 0.000000 1.000000
vn 0.707104 0.000000 0.707109
vn 0.663415 0.080484 0.743910
vn 0.707104 0.000000 0.707109
vn 0.691255 0.030696 0.721959
vn -0.707096 0.000000 0.707118
vn -0.707096 0.000000 0.707118
vn -0.685163 -0.041993 0.727178
vn -0.651140 -0.101039 0.752202
vn -0.021813 -0.695941 0.717767
vn 0.000000 -0.707098 0.707115
vn -0.006757 -0.703697 0.710468
vn 0.000000 -0.707098 0.707115
vn 0.000000 0.707105 0.707109
vn 0.006379 0.703893 0.710277
vn 0.000000 0.707105 0.707109
vn 0.020667 0.696543 0.717217
vn 0.408236 0.408242 0.816506
vn 0.408236 0.408242 0.816506
vn 0.663415 0.080484 0.743910
vn 0.691255 0.030696 0.721959
vn 0.408236 0.408242 0.816506
vn 0.020667 0.696543 0.717217
vn 0.408236 0.408242 0.816506
vn 0.006379 0.703893 0.710277
vn 0.000000 0.000000 1.000000
vn 0.000000 0.000000 1.000000
vn 0.000000 0.000000 1.000000
vn 0.000000 0.000000 1.000000
vn 0.000000 0.000000 1.000000
vn 0.000000 0.000000 1.000000
vn 0.000000 0.000000 1.000000
vn 0.000000 0.000000 1.000000
vn -0.006757 -0.703697 0.710468
vn -0.408242 -0.408247 0.816500
vn -0.021813 -0.695941 0.717767
vn -0.408242 -0.408247 0.816500
vn -0.685163 -0.041993 0.727178
vn -0.651140 -0.101039 0.752202
vn -0.408242 -0.408247 0.816500
vn -0.408242 -0.408247 0.816500
vn 0.000000 -1.000000 0.000000
vn 0.000000 -1.000000 0.000000
vn 0.000000 -1.000000 0.000000
vn 0.000000 -1.000000 0.000000
vn 0.000000 -0.707097 0.707117
vn 0.000000 -0.707097 0.707117
vn 0.000000 -0.707097 0.707117
vn 0.000000 -0.707097 0.707117
vn 0.995393 -0.095878 0.000000
vn 0.995393 -0.095878 0.000000
vn 0.707106 -0.707108 0.000000
vn 0.707106 -0.707108 0.000000
vn 0.707106 -0.707108 0.000000
vn 0.707106 -0.707108 0.000000
vn 0.016525 -0.999864 0.000000
vn 0.016525 -0.999864 0.000000
vn -0.997581 0.069516 0.000000
vn -0.997581 0.069516 0.000000
vn -0.707107 0.707107 0.000000
vn -0.707107 0.707107 0.000000
vn -0.707107 0.707107 0.000000
vn -0.707107 0.707107 0.000000
vn -0.015508 0.999880 0.000000
vn -0.015508 0.999880 0.000000
vn -0.015508 0.999880 0.000000
vn 0.000000 1.000000 0.000000
vn -0.015508 0.999880 0.000000
vn 0.000000 1.000000 0.000000
vn 0.016525 -0.999864 0.000000
vn 0.000000 -1.000000 0.000000
vn 0.016525 -0.999864 0.000000
vn 0.000000 -1.000000 0.000000
vn -0.997581 0.069516 0.000000
vn -0.997581 0.069516 0.000000
vn -1.000000 0.000000 0.000000
vn -1.000000 0.000000 0.000000
vn 0.995393 -0.095878 0.000000
vn 1.000000 0.000000 0.000000
vn 0.995393 -0.095878 0.000000
vn 1.000000 0.000000 0.000000
vn 0.000000 0.000000 1.000000
vn 0.000000 0.000000 1.000000
vn 0.000000 0.000000 1.000000
vn 0.000000 0.000000 1.000000
vn 0.000000 0.000000 1.000000
vn 0.000000 0.000000 1.000000
vn 0.000000 0.000000 1.000000
vn 0.000000 0.000000 1.000000
vn -0.707107 0.000000 0.707106
vn -0.707107 0.000000 0.707106
vn -0.663419 0.080485 0.743906
vn -0.691259 0.030697 0.721955
vn 0.651138 -0.101039 0.752204
vn 0.707091 0.000000 0.707123
vn 0.685159 -0.041993 0.727182
vn 0.707091 0.000000 0.707123
vn 0.021813 -0.695939 0.717770
vn 0.006757 -0.703694 0.710471
vn 0.000000 -0.707098 0.707115
vn 0.000000 -0.707098 0.707115
vn 0.000000 0.707105 0.707109
vn 0.000000 0.707105 0.707109
vn -0.006379 0.703893 0.710277
vn -0.020667 0.696543 0.717217
vn -0.691259 0.030697 0.721955
vn -0.408240 0.408241 0.816504
vn -0.663419 0.080485 0.743906
vn -0.408240 0.408241 0.816504
vn -0.408240 0.408241 0.816504
vn -0.408240 0.408241 0.816504
vn -0.020667 0.696543 0.717217
vn -0.006379 0.703893 0.710277
vn 0.000000 0.000000 1.000000
vn -0.000001 0.000000 1.000000
vn 0.000000 0.000000 1.000000
vn -0.000001 0.000000 1.000000
vn -0.000001 0.000000 1.000000
vn -0.000001 0.000000 1.000000
vn 0.000000 0.000000 1.000000
vn 0.000000 0.000000 1.000000
vn 0.006757 -0.703694 0.710471
vn 0.021813 -0.695939 0.717770
vn 0.408242 -0.408246 0.816501
vn 0.408243 -0.408245 0.816501
vn 0.408243 -0.408245 0.816501
vn 0.651138 -0.101039 0.752204
vn 0.408242 -0.408246 0.816501
vn 0.685159 -0.041993 0.727182
s 1
g Tele:polySurface3PC_Scene
usemtl Tele:lambert3SG
f 3/1/1 4/2/2 7/4/3
f 7/4/3 4/2/2 8/3/4
s 2
f 3/1/5 7/4/6 9/6/7
f 9/6/7 7/4/6 10/5/8
s 3
f 15/7/9 14/8/10 16/10/11
f 16/10/11 14/8/10 17/9/12
s 4
f 14/11/13 13/12/14 17/14/15
f 17/14/15 13/12/14 18/13/16
s 5
f 21/15/17 20/16/18 22/18/19
f 22/18/19 20/16/18 23/17/20
s 6
f 20/19/21 19/20/22 23/22/23
f 23/22/23 19/20/22 24/21/24
s 7
f 24/21/25 19/20/26 6/24/27
f 6/24/27 19/20/26 5/23/28
s 8
f 18/13/29 13/12/30 2/26/31
f 2/26/31 13/12/30 1/25/32
s 9
f 22/18/33 7/27/34 21/15/35
f 21/15/35 7/27/34 8/28/36
s 10
f 15/7/37 16/10/38 3/30/39
f 3/30/39 16/10/38 4/29/40
s 11
f 9/31/41 10/32/42 28/34/43
f 28/34/43 10/32/42 25/33/44
s 12
f 11/36/45 30/37/46 12/35/47
f 12/35/47 30/37/46 27/38/48
s 13
f 7/27/49 22/18/50 10/40/51
f 10/40/51 22/18/50 25/39/52
s 14
f 3/30/53 9/41/54 15/7/55
f 15/7/55 9/41/54 28/42/56
s 15
f 30/43/57 11/44/58 13/12/59
f 13/12/59 11/44/58 1/25/60
s 16
f 12/45/61 27/46/62 6/24/63
f 6/24/63 27/46/62 24/21/64
s 17
f 23/17/65 26/47/66 22/18/67
f 22/18/67 26/47/66 25/39/68
s 18
f 23/22/69 24/21/70 26/48/71
f 26/48/71 24/21/70 27/46/72
s 19
f 26/49/73 29/50/74 25/33/75
f 25/33/75 29/50/74 28/34/76
s 20
f 26/49/77 27/38/78 29/50/79
f 29/50/79 27/38/78 30/37/80
s 21
f 13/12/81 14/11/82 30/43/83
f 30/43/83 14/11/82 29/51/84
s 22
f 15/7/85 28/42/86 14/8/87
f 14/8/87 28/42/86 29/52/88
s 23
f 31/53/89 33/54/90 32/56/91
f 32/56/91 33/54/90 34/55/92
s 24
usemtl Tele:PC_SceneSG
f 31/53/93 35/57/94 33/54/95
f 33/54/95 35/57/94 36/58/96
s 25
usemtl Tele:lambert3SG
f 39/59/97 40/60/98 38/62/99
f 38/62/99 40/60/98 41/61/100
s 26
f 38/63/101 41/64/102 37/66/103
f 37/66/103 41/64/102 42/65/104
s 27
f 45/67/105 46/68/106 44/70/107
f 44/70/107 46/68/106 47/69/108
s 28
f 44/71/109 47/72/110 43/74/111
f 43/74/111 47/72/110 48/73/112
s 29
f 48/73/113 6/75/114 43/74/115
f 43/74/115 6/75/114 5/76/116
s 30
f 42/65/117 2/77/118 37/66/119
f 37/66/119 2/77/118 1/78/120
s 31
f 46/68/121 45/67/122 33/80/123
f 33/80/123 45/67/122 34/79/124
s 32
f 39/59/125 31/81/126 40/60/127
f 40/60/127 31/81/126 32/82/128
s 33
f 35/83/129 52/84/130 36/86/131
f 36/86/131 52/84/130 49/85/132
s 34
f 51/87/133 54/88/134 12/35/135
f 12/35/135 54/88/134 11/36/136
s 35
f 33/80/137 36/89/138 46/68/139
f 46/68/139 36/89/138 49/90/140
s 36
usemtl Tele:PC_SceneSG
f 52/84/141 35/83/142 39/91/143
f 39/91/143 35/83/142 31/92/144
s 37
usemtl Tele:lambert3SG
f 54/93/145 37/66/146 11/94/147
f 11/94/147 37/66/146 1/78/148
s 38
f 12/95/149 6/75/150 51/96/151
f 51/96/151 6/75/150 48/73/152
s 39
f 49/90/153 50/97/154 46/68/155
f 46/68/155 50/97/154 47/69/156
s 40
f 47/72/157 50/98/158 48/73/159
f 48/73/159 50/98/158 51/96/160
s 41
f 52/84/161 53/99/162 49/85/163
f 49/85/163 53/99/162 50/100/164
s 42
f 50/100/165 53/99/166 51/87/167
f 51/87/167 53/99/166 54/88/168
s 43
f 37/66/169 54/93/170 38/63/171
f 38/63/171 54/93/170 53/101/172
s 44
usemtl Tele:PC_SceneSG
f 53/102/173 52/103/174 38/62/175
f 38/62/175 52/103/174 39/59/176
g default
v 2.972177 2.733328 -6.857977
v 2.972177 2.733328 -7.000002
v 2.422177 2.183327 -6.857977
v 2.422177 2.183327 -7.000002
v 3.163951 2.733328 -7.000002
v 3.163951 2.733328 -6.857977
v 2.422177 1.991553 -6.857977
v 2.422177 1.991553 -7.000002
v 2.442177 2.163327 -6.837977
v 2.442177 2.011553 -6.837977
v 2.992177 2.713328 -6.837977
v 3.143951 2.713328 -6.837977
v 2.972177 2.348311 -6.857977
v 2.923854 2.231649 -6.857977
v 2.807193 2.183327 -6.857977
v 2.807193 2.183327 -7.000002
v 2.923854 2.231649 -7.000002
v 2.972177 2.348311 -7.000002
v 3.163951 2.156537 -7.000002
v 3.115629 2.039876 -7.000002
v 2.998968 1.991553 -7.000002
v 2.998968 1.991553 -6.857977
v 3.115629 2.039876 -6.857977
v 3.163951 2.156537 -6.857977
v 2.978968 2.011553 -6.837977
v 3.095629 2.059876 -6.837977
v 3.143951 2.176537 -6.837977
v 2.827193 2.163327 -6.837977
v 2.943854 2.211649 -6.837977
v 2.992177 2.328311 -6.837977
vt 0.027289 0.974868
vt 0.023324 0.974868
vt 0.023324 0.969513
vt 0.027289 0.969513
vt 0.023324 0.974868
vt 0.027289 0.974868
vt 0.027289 0.969513
vt 0.023324 0.969513
vt 0.022765 0.970071
vt 0.022765 0.974309
vt 0.022765 0.974309
vt 0.022765 0.970071
vt 0.031933 0.963476
vt 0.035190 0.963476
vt 0.035190 0.967442
vt 0.031933 0.967442
vt 0.017693 0.968083
vt 0.017693 0.971340
vt 0.021659 0.971340
vt 0.021659 0.968083
vt 0.029234 0.958680
vt 0.032491 0.958680
vt 0.032491 0.954715
vt 0.029234 0.954715
vt 0.012897 0.958249
vt 0.012897 0.961619
vt 0.008796 0.961619
vt 0.008796 0.958249
vt 0.012897 0.978274
vt 0.008796 0.978274
vt 0.017693 0.982090
vt 0.021659 0.982090
vt 0.013130 0.954715
vt 0.013130 0.958680
vt 0.021183 0.967442
vt 0.021183 0.963476
vt 0.032491 0.962918
vt 0.032491 0.958680
vt 0.017504 0.958680
vt 0.021741 0.962918
vt 0.012897 0.978274
vt 0.017135 0.978274
vt 0.017135 0.967525
vt 0.012897 0.963287
vt 0.028676 0.954157
vt 0.013688 0.954157
vt 0.021741 0.962918
vt 0.032491 0.962918
vt 0.017135 0.970782
vt 0.017135 0.981532
vt 0.008218 0.977697
vt 0.008218 0.962196
vt 0.031933 0.954157
vt 0.008218 0.958827
vt 0.014246 0.960029
vt 0.018484 0.964267
vt 0.017135 0.967525
vt 0.035749 0.962918
vn 0.000000 1.000000 0.000000
vn 0.000000 1.000000 0.000000
vn 0.000000 1.000000 0.000000
vn 0.000000 1.000000 0.000000
vn -1.000000 0.000000 0.000000
vn -1.000000 0.000000 0.000000
vn -1.000000 0.000000 0.000000
vn -1.000000 0.000000 0.000000
vn -0.707098 0.000000 0.707116
vn -0.707098 0.000000 0.707116
vn -0.707098 0.000000 0.707116
vn -0.707098 0.000000 0.707116
vn 0.000000 0.707102 0.707111
vn 0.000000 0.707102 0.707111
vn 0.000000 0.707102 0.707111
vn 0.000000 0.707102 0.707111
vn -0.095878 0.995393 0.000000
vn -0.707108 0.707106 0.000000
vn -0.095878 0.995393 0.000000
vn -0.707108 0.707106 0.000000
vn -0.707108 0.707106 0.000000
vn -0.995393 0.095878 0.000000
vn -0.707108 0.707106 0.000000
vn -0.995393 0.095878 0.000000
vn 0.069515 -0.997581 0.000000
vn 0.707107 -0.707107 0.000000
vn 0.069515 -0.997581 0.000000
vn 0.707107 -0.707107 0.000000
vn 0.707107 -0.707107 0.000000
vn 0.997581 -0.069515 0.000000
vn 0.707107 -0.707107 0.000000
vn 0.997581 -0.069515 0.000000
vn 0.997581 -0.069515 0.000000
vn 0.997581 -0.069515 0.000000
vn 1.000000 0.000000 0.000000
vn 1.000000 0.000000 0.000000
vn -0.995393 0.095878 0.000000
vn -0.995393 0.095878 0.000000
vn -1.000000 0.000000 0.000000
vn -1.000000 0.000000 0.000000
vn 0.069515 -0.997581 0.000000
vn 0.000000 -1.000000 0.000000
vn 0.069515 -0.997581 0.000000
vn 0.000000 -1.000000 0.000000
vn -0.095878 0.995393 0.000000
vn -0.095878 0.995393 0.000000
vn 0.000000 1.000000 0.000000
vn 0.000000 1.000000 0.000000
vn 0.000000 0.000000 1.000000
vn 0.000000 0.000000 1.000000
vn 0.000001 0.000000 1.000000
vn 0.000002 0.000000 1.000000
vn 0.000000 0.000000 1.000000
vn 0.000000 0.000000 1.000000
vn 0.000000 0.000000 1.000000
vn 0.000000 0.000000 1.000000
vn 0.000000 -0.707096 0.707118
vn 0.080484 -0.663410 0.743915
vn 0.000000 -0.707096 0.707118
vn 0.030696 -0.691248 0.721966
vn 0.000000 0.707099 0.707115
vn 0.000000 0.707099 0.707115
vn -0.041992 0.685166 0.727175
vn -0.101037 0.651144 0.752199
vn -0.651148 0.101038 0.752195
vn -0.707106 0.000000 0.707108
vn -0.685172 0.041992 0.727170
vn -0.707106 0.000000 0.707108
vn 0.707096 0.000000 0.707118
vn 0.691248 -0.030696 0.721965
vn 0.707096 0.000000 0.707118
vn 0.663411 -0.080484 0.743914
vn 0.408243 -0.408244 0.816502
vn 0.408244 -0.408243 0.816501
vn 0.080484 -0.663410 0.743915
vn 0.030696 -0.691248 0.721966
vn 0.408243 -0.408244 0.816502
vn 0.663411 -0.080484 0.743914
vn 0.408244 -0.408243 0.816501
vn 0.691248 -0.030696 0.721965
vn 0.000002 0.000000 1.000000
vn 0.000002 0.000000 1.000000
vn 0.000002 0.000000 1.000000
vn 0.000001 0.000000 1.000000
vn 0.000002 0.000000 1.000000
vn 0.000000 0.000000 1.000000
vn 0.000002 0.000000 1.000000
vn 0.000000 0.000000 1.000000
vn -0.685172 0.041992 0.727170
vn -0.408242 0.408242 0.816503
vn -0.651148 0.101038 0.752195
vn -0.408242 0.408242 0.816503
vn -0.041992 0.685166 0.727175
vn -0.101037 0.651144 0.752199
vn -0.408242 0.408242 0.816503
vn -0.408242 0.408242 0.816503
s 1
g Tele:PC_ScenepolySurface9
usemtl Tele:lambert3SG
f 56/104/177 55/105/178 59/107/179
f 59/107/179 55/105/178 60/106/180
s 2
f 57/108/181 58/109/182 61/111/183
f 61/111/183 58/109/182 62/110/184
s 3
f 57/108/185 61/111/186 63/113/187
f 63/113/187 61/111/186 64/112/188
s 4
f 60/106/189 55/105/190 66/115/191
f 66/115/191 55/105/190 65/114/192
s 5
f 69/116/193 68/117/194 70/119/195
f 70/119/195 68/117/194 71/118/196
s 6
f 68/120/197 67/121/198 71/123/199
f 71/123/199 67/121/198 72/122/200
s 7
f 75/124/201 74/125/202 76/127/203
f 76/127/203 74/125/202 77/126/204
s 8
f 74/128/205 73/129/206 77/131/207
f 77/131/207 73/129/206 78/130/208
s 9
f 78/130/209 73/129/210 60/133/211
f 60/133/211 73/129/210 59/132/212
s 10
f 72/122/213 67/121/214 56/135/215
f 56/135/215 67/121/214 55/134/216
s 11
f 76/127/217 61/136/218 75/124/219
f 75/124/219 61/136/218 62/137/220
s 12
f 69/116/221 70/119/222 57/139/223
f 57/139/223 70/119/222 58/138/224
s 13
f 63/140/225 64/141/226 82/143/227
f 82/143/227 64/141/226 79/142/228
s 14
f 65/145/229 84/146/230 66/144/231
f 66/144/231 84/146/230 81/147/232
s 15
f 61/136/233 76/127/234 64/149/235
f 64/149/235 76/127/234 79/148/236
s 16
f 57/139/237 63/150/238 69/116/239
f 69/116/239 63/150/238 82/151/240
s 17
f 84/152/241 65/153/242 67/121/243
f 67/121/243 65/153/242 55/134/244
s 18
f 66/154/245 81/155/246 60/133/247
f 60/133/247 81/155/246 78/130/248
s 19
f 77/126/249 80/156/250 76/127/251
f 76/127/251 80/156/250 79/148/252
s 20
f 77/131/253 78/130/254 80/157/255
f 80/157/255 78/130/254 81/155/256
s 21
f 80/158/257 83/159/258 79/142/259
f 79/142/259 83/159/258 82/143/260
s 22
f 80/158/261 81/147/262 83/159/263
f 83/159/263 81/147/262 84/146/264
s 23
f 67/121/265 68/120/266 84/152/267
f 84/152/267 68/120/266 83/160/268
s 24
f 69/116/269 82/151/270 68/117/271
f 68/117/271 82/151/270 83/161/272
g default
v 3.073411 2.062946 -6.868720
v 3.073411 2.062951 -6.944289
v 3.073411 5.308160 -6.868720
v 3.073411 5.308166 -6.944289
v -3.073432 5.308160 -6.868720
v -3.075088 5.308165 -6.944289
v -3.073432 2.062946 -6.868720
v -3.075088 2.062950 -6.944289
vt 0.323654 0.985873
vt 0.323654 0.960959
vt 0.324234 0.960959
vt 0.324234 0.985873
vt 0.276465 0.985873
vt 0.323654 0.986453
vt 0.276452 0.986453
vt 0.276465 0.960959
vt 0.275884 0.985873
vt 0.275884 0.960959
vt 0.323654 0.960379
vt 0.276452 0.960379
vt 0.008155 0.043691
vt 0.991845 0.043691
vt 0.991845 0.956312
vt 0.008155 0.956312
vn 1.000000 0.000000 0.000000
vn 1.000000 0.000000 0.000000
vn 1.000000 0.000000 0.000000
vn 1.000000 0.000000 0.000000
vn -0.000000 1.000000 -0.000001
vn -0.000000 1.000000 -0.000001
vn -0.000000 1.000000 -0.000001
vn -0.000000 1.000000 -0.000001
vn -0.999760 0.000000 0.021906
vn -0.999760 0.000000 0.021906
vn -0.999760 0.000000 0.021906
vn -0.999760 0.000000 0.021906
vn 0.000000 -1.000000 0.000010
vn 0.000000 -1.000000 0.000010
vn 0.000000 -1.000000 0.000010
vn 0.000000 -1.000000 0.000010
vn 0.000000 0.000000 1.000000
vn 0.000000 0.000000 1.000000
vn 0.000000 0.000000 1.000000
vn 0.000000 0.000000 1.000000
s 1
g Tele:PC_ScenepolySurface7
usemtl Tele:lambert3SG
f 87/162/273 85/163/274 88/165/275
f 88/165/275 85/163/274 86/164/276
s 2
usemtl Tele:PC_SceneSG
f 89/166/277 87/162/278 90/168/279
f 90/168/279 87/162/278 88/167/280
s 3
usemtl Tele:lambert3SG
f 91/169/281 89/166/282 92/171/283
f 92/171/283 89/166/282 90/170/284
s 4
f 86/172/285 85/163/286 92/173/287
f 92/173/287 85/163/286 91/169/288
s 5
usemtl Tele:lambert2SG
f 91/174/289 85/175/290 89/177/291
f 89/177/291 85/175/290 87/176/292
g default
v -2.972177 2.733328 -6.857977
v -2.972177 2.733328 -7.000002
v -2.422177 2.183327 -6.857977
v -2.422177 2.183327 -7.000002
v -3.163951 2.733328 -7.000002
v -3.163951 2.733328 -6.857977
v -2.422177 1.991553 -6.857977
v -2.422177 1.991553 -7.000002
v -2.442177 2.163327 -6.837977
v -2.442177 2.011553 -6.837977
v -2.992177 2.713328 -6.837977
v -3.143951 2.713328 -6.837977
v -2.972177 2.348311 -6.857977
v -2.923854 2.231649 -6.857977
v -2.807193 2.183327 -6.857977
v -2.807193 2.183327 -7.000002
v -2.923854 2.231649 -7.000002
v -2.972177 2.348311 -7.000002
v -3.163951 2.156537 -7.000002
v -3.115629 2.039876 -7.000002
v -2.998968 1.991553 -7.000002
v -2.998968 1.991553 -6.857977
v -3.115629 2.039876 -6.857977
v -3.163951 2.156537 -6.857977
v -2.978968 2.011553 -6.837977
v -3.095629 2.059876 -6.837977
v -3.143951 2.176537 -6.837977
v -2.827193 2.163327 -6.837977
v -2.943854 2.211649 -6.837977
v -2.992177 2.328311 -6.837977
vt 0.027289 0.969513
vt 0.027289 0.974868
vt 0.023324 0.974868
vt 0.023324 0.969513
vt 0.023324 0.969513
vt 0.023324 0.974868
vt 0.027289 0.974868
vt 0.027289 0.969513
vt 0.022765 0.970071
vt 0.022765 0.974309
vt 0.022765 0.974309
vt 0.022765 0.970071
vt 0.029234 0.954715
vt 0.029234 0.958680
vt 0.032491 0.958680
vt 0.032491 0.954715
vt 0.008796 0.958249
vt 0.012897 0.958249
vt 0.012897 0.961619
vt 0.008796 0.961619
vt 0.031933 0.967442
vt 0.031933 0.963476
vt 0.035190 0.963476
vt 0.035190 0.967442
vt 0.021659 0.968083
vt 0.017693 0.968083
vt 0.017693 0.971340
vt 0.021659 0.971340
vt 0.017693 0.982090
vt 0.021659 0.982090
vt 0.012897 0.978274
vt 0.008796 0.978274
vt 0.021183 0.967442
vt 0.021183 0.963476
vt 0.013130 0.954715
vt 0.013130 0.958680
vt 0.032491 0.958680
vt 0.017504 0.958680
vt 0.021741 0.962918
vt 0.032491 0.962918
vt 0.017135 0.978274
vt 0.017135 0.967525
vt 0.012897 0.963287
vt 0.012897 0.978274
vt 0.021741 0.962918
vt 0.032491 0.962918
vt 0.028676 0.954157
vt 0.013688 0.954157
vt 0.008218 0.962196
vt 0.008218 0.977697
vt 0.017135 0.981532
vt 0.017135 0.970782
vt 0.035749 0.962918
vt 0.017135 0.967525
vt 0.014246 0.960029
vt 0.018484 0.964267
vt 0.008218 0.958827
vt 0.031933 0.954157
vn 0.000000 1.000000 0.000000
vn 0.000000 1.000000 0.000000
vn 0.000000 1.000000 0.000000
vn 0.000000 1.000000 0.000000
vn 1.000000 0.000000 0.000000
vn 1.000000 0.000000 0.000000
vn 1.000000 0.000000 0.000000
vn 1.000000 0.000000 0.000000
vn 0.707096 0.000000 0.707117
vn 0.707097 0.000000 0.707117
vn 0.707096 0.000000 0.707117
vn 0.707097 0.000000 0.707117
vn 0.000000 0.707103 0.707110
vn 0.000000 0.707103 0.707110
vn 0.000000 0.707103 0.707110
vn 0.000000 0.707103 0.707110
vn 0.095878 0.995393 0.000000
vn 0.095878 0.995393 0.000000
vn 0.707108 0.707106 0.000000
vn 0.707108 0.707106 0.000000
vn 0.707108 0.707106 0.000000
vn 0.707108 0.707106 0.000000
vn 0.995393 0.095878 0.000000
vn 0.995393 0.095878 0.000000
vn -0.069515 -0.997581 0.000000
vn -0.069515 -0.997581 0.000000
vn -0.707107 -0.707107 0.000000
vn -0.707107 -0.707107 0.000000
vn -0.707107 -0.707107 0.000000
vn -0.707107 -0.707107 0.000000
vn -0.997581 -0.069515 0.000000
vn -0.997581 -0.069515 0.000000
vn -0.997581 -0.069515 0.000000
vn -1.000000 0.000000 0.000000
vn -0.997581 -0.069515 0.000000
vn -1.000000 0.000000 0.000000
vn 0.995393 0.095878 0.000000
vn 1.000000 0.000000 0.000000
vn 0.995393 0.095878 0.000000
vn 1.000000 0.000000 0.000000
vn -0.069515 -0.997581 0.000000
vn -0.069515 -0.997581 0.000000
vn 0.000000 -1.000000 0.000000
vn 0.000000 -1.000000 0.000000
vn 0.095878 0.995393 0.000000
vn 0.000000 1.000000 0.000000
vn 0.095878 0.995393 0.000000
vn 0.000000 1.000000 0.000000
vn 0.000000 0.000000 1.000000
vn -0.000001 0.000000 1.000000
vn 0.000000 0.000000 1.000000
vn -0.000002 0.000000 1.000000
vn -0.000002 0.000000 1.000000
vn -0.000003 0.000000 1.000000
vn -0.000003 0.000000 1.000000
vn -0.000003 0.000000 1.000000
vn 0.000000 -0.707094 0.707119
vn 0.000000 -0.707094 0.707119
vn -0.080488 -0.663409 0.743916
vn -0.030698 -0.691246 0.721967
vn 0.101039 0.651144 0.752199
vn 0.000000 0.707098 0.707115
vn 0.041993 0.685166 0.727175
vn 0.000000 0.707098 0.707115
vn 0.651144 0.101038 0.752199
vn 0.685168 0.041993 0.727174
vn 0.707101 0.000000 0.707113
vn 0.707101 0.000000 0.707113
vn -0.707099 0.000000 0.707114
vn -0.707099 0.000000 0.707114
vn -0.691251 -0.030696 0.721962
vn -0.663413 -0.080485 0.743912
vn -0.030698 -0.691246 0.721967
vn -0.408247 -0.408242 0.816500
vn -0.080488 -0.663409 0.743916
vn -0.408246 -0.408243 0.816500
vn -0.408246 -0.408243 0.816500
vn -0.408247 -0.408242 0.816500
vn -0.663413 -0.080485 0.743912
vn -0.691251 -0.030696 0.721962
vn -0.000001 0.000000 1.000000
vn -0.000002 0.000000 1.000000
vn -0.000002 0.000000 1.000000
vn -0.000002 0.000000 1.000000
vn -0.000002 0.000000 1.000000
vn -0.000002 0.000000 1.000000
vn -0.000002 0.000000 1.000000
vn -0.000003 0.000000 1.000000
vn 0.685168 0.041993 0.727174
vn 0.651144 0.101038 0.752199
vn 0.408242 0.408242 0.816503
vn 0.408242 0.408242 0.816503
vn 0.408242 0.408242 0.816503
vn 0.101039 0.651144 0.752199
vn 0.408242 0.408242 0.816503
vn 0.041993 0.685166 0.727175
s 1
g Tele:PC_ScenepolySurface5
usemtl Tele:lambert3SG
f 94/178/293 97/179/294 93/181/295
f 93/181/295 97/179/294 98/180/296
s 2
f 95/182/297 99/183/298 96/185/299
f 96/185/299 99/183/298 100/184/300
s 3
f 95/182/301 101/186/302 99/183/303
f 99/183/303 101/186/302 102/187/304
s 4
f 98/180/305 104/188/306 93/181/307
f 93/181/307 104/188/306 103/189/308
s 5
f 107/190/309 108/191/310 106/193/311
f 106/193/311 108/191/310 109/192/312
s 6
f 106/194/313 109/195/314 105/197/315
f 105/197/315 109/195/314 110/196/316
s 7
f 113/198/317 114/199/318 112/201/319
f 112/201/319 114/199/318 115/200/320
s 8
f 112/202/321 115/203/322 111/205/323
f 111/205/323 115/203/322 116/204/324
s 9
f 116/204/325 98/206/326 111/205/327
f 111/205/327 98/206/326 97/207/328
s 10
f 110/196/329 94/208/330 105/197/331
f 105/197/331 94/208/330 93/209/332
s 11
f 114/199/333 113/198/334 99/211/335
f 99/211/335 113/198/334 100/210/336
s 12
f 107/190/337 95/212/338 108/191/339
f 108/191/339 95/212/338 96/213/340
s 13
f 101/214/341 120/215/342 102/217/343
f 102/217/343 120/215/342 117/216/344
s 14
f 119/219/345 122/220/346 104/218/347
f 104/218/347 122/220/346 103/221/348
s 15
f 99/211/349 102/222/350 114/199/351
f 114/199/351 102/222/350 117/223/352
s 16
f 120/224/353 101/225/354 107/190/355
f 107/190/355 101/225/354 95/212/356
s 17
f 122/226/357 105/197/358 103/227/359
f 103/227/359 105/197/358 93/209/360
s 18
f 104/228/361 98/206/362 119/229/363
f 119/229/363 98/206/362 116/204/364
s 19
f 117/223/365 118/230/366 114/199/367
f 114/199/367 118/230/366 115/200/368
s 20
f 115/203/369 118/231/370 116/204/371
f 116/204/371 118/231/370 119/229/372
s 21
f 120/215/373 121/232/374 117/216/375
f 117/216/375 121/232/374 118/233/376
s 22
f 118/233/377 121/232/378 119/219/379
f 119/219/379 121/232/378 122/220/380
s 23
f 105/197/381 122/226/382 106/194/383
f 106/194/383 122/226/382 121/234/384
s 24
f 121/235/385 120/224/386 106/193/387
f 106/193/387 120/224/386 107/190/388
g default
v 0.000000 5.187788 -6.857977
v 0.000000 5.187788 -7.000002
v 2.972178 4.637789 -6.857977
v 2.972178 4.637789 -7.000002
v 0.000000 5.379563 -7.000002
v 0.000000 5.379563 -6.857977
v 3.163951 4.637789 -6.857977
v 3.163951 4.637789 -7.000002
v 2.992177 4.657789 -6.837977
v 3.143951 4.657789 -6.837977
v 0.000000 5.207788 -6.837977
v 0.000000 5.359563 -6.837977
v 2.807194 5.187788 -6.857977
v 2.923855 5.139466 -6.857977
v 2.972178 5.022805 -6.857977
v 2.972178 5.022805 -7.000002
v 2.923855 5.139466 -7.000002
v 2.807194 5.187788 -7.000002
v 2.998968 5.379563 -7.000002
v 3.115629 5.331241 -7.000002
v 3.163951 5.214580 -7.000002
v 3.163951 5.214580 -6.857977
v 3.115629 5.331241 -6.857977
v 2.998968 5.379563 -6.857977
v 3.143951 5.194580 -6.837977
v 3.095629 5.311241 -6.837977
v 2.978968 5.359563 -6.837977
v 2.992177 5.042805 -6.837977
v 2.943855 5.159466 -6.837977
v 2.827194 5.207788 -6.837977
v -2.972178 4.637789 -6.857977
v -2.972178 4.637789 -7.000002
v -3.163951 4.637789 -6.857977
v -3.163951 4.637789 -7.000002
v -2.992177 4.657789 -6.837977
v -3.143951 4.657789 -6.837977
v -2.807194 5.187788 -6.857977
v -2.923855 5.139466 -6.857977
v -2.972178 5.022805 -6.857977
v -2.972178 5.022805 -7.000002
v -2.923855 5.139466 -7.000002
v -2.807194 5.187788 -7.000002
v -2.998968 5.379563 -7.000002
v -3.115629 5.331241 -7.000002
v -3.163951 5.214580 -7.000002
v -3.163951 5.214580 -6.857977
v -3.115629 5.331241 -6.857977
v -2.998968 5.379563 -6.857977
v -3.143951 5.194580 -6.837977
v -3.095629 5.311241 -6.837977
v -2.978968 5.359563 -6.837977
v -2.992177 5.042805 -6.837977
v -2.943855 5.159466 -6.837977
v -2.827194 5.207788 -6.837977
vt 0.120438 0.981839
vt 0.115211 0.981839
vt 0.115211 0.974780
vt 0.120438 0.974780
vt 0.121175 0.975517
vt 0.121175 0.981103
vt 0.120473 0.982950
vt 0.120473 0.987309
vt 0.115165 0.987309
vt 0.115165 0.982950
vt 0.117677 0.990467
vt 0.113479 0.990467
vt 0.113479 0.985356
vt 0.117677 0.985356
vt 0.121207 0.986872
vt 0.121207 0.991213
vt 0.115922 0.991213
vt 0.115922 0.986872
vt 0.009381 0.985356
vt 0.013579 0.985356
vt 0.013579 0.990467
vt 0.009381 0.990467
vt 0.121487 0.985356
vt 0.121487 0.990467
vt 0.012472 0.990467
vt 0.012472 0.985356
vt 0.115922 0.965407
vt 0.121207 0.965407
vt 0.115165 0.968563
vt 0.120473 0.968563
vt 0.027709 0.024137
vt 0.027709 -0.000000
vt 0.771420 -0.000000
vt 0.561140 0.024137
vt 1.000000 0.500000
vt 0.789720 0.500000
vt 0.789720 0.050376
vt 1.000000 0.026238
vt 0.115178 0.986127
vt 0.115178 0.966151
vt 0.121220 0.969310
vt 0.121220 0.983697
vt 0.114199 0.991186
vt 0.012472 0.991186
vt 0.121487 0.991186
vt 0.014299 0.991186
vt 0.115178 0.990469
vt 0.010101 0.991186
vt 0.933051 0.007685
vt 0.722771 0.031822
vt 0.118397 0.991186
vt 0.121220 0.988057
vt 0.120438 0.981839
vt 0.120438 0.974780
vt 0.115211 0.974780
vt 0.115211 0.981839
vt 0.121175 0.981103
vt 0.121175 0.975517
vt 0.120473 0.982950
vt 0.115165 0.982950
vt 0.115165 0.987309
vt 0.120473 0.987309
vt 0.117677 0.990467
vt 0.117677 0.985356
vt 0.113479 0.985356
vt 0.113479 0.990467
vt 0.121207 0.986872
vt 0.115922 0.986872
vt 0.115922 0.991213
vt 0.121207 0.991213
vt 0.009381 0.985356
vt 0.009381 0.990467
vt 0.013579 0.990467
vt 0.013579 0.985356
vt 0.121487 0.990467
vt 0.121487 0.985356
vt 0.012472 0.985356
vt 0.012472 0.990467
vt 0.121207 0.965407
vt 0.115922 0.965407
vt 0.120473 0.968563
vt 0.115165 0.968563
vt 0.027709 0.975863
vt 0.561140 0.975863
vt 0.771420 1.000000
vt 0.027709 1.000000
vt 1.000000 0.973762
vt 0.789720 0.949624
vt 0.115178 0.966151
vt 0.115178 0.986127
vt 0.533430 0.972424
vt -0.000000 0.972424
vt 0.114199 0.991186
vt 0.012472 0.991186
vt 0.121487 0.991186
vt 0.014299 0.991186
vt 0.115178 0.990469
vt 0.010101 0.991186
vt 0.722771 0.968178
vt 0.933051 0.992315
vt 0.118397 0.991186
vt 0.121220 0.988057
vt 0.121220 0.983697
vn 0.000000 -1.000000 0.000000
vn 0.000000 -1.000000 0.000000
vn 0.000000 -1.000000 0.000000
vn 0.000000 -1.000000 0.000000
vn 0.000000 -0.707098 0.707116
vn 0.000000 -0.707098 0.707116
vn 0.000000 -0.707098 0.707116
vn 0.000000 -0.707098 0.707116
vn -0.995393 -0.095878 0.000000
vn -0.707106 -0.707108 0.000000
vn -0.995393 -0.095878 0.000000
vn -0.707106 -0.707108 0.000000
vn -0.707106 -0.707108 0.000000
vn -0.016525 -0.999864 0.000000
vn -0.707106 -0.707108 0.000000
vn -0.016525 -0.999864 0.000000
vn 0.997581 0.069516 0.000000
vn 0.707107 0.707107 0.000000
vn 0.997581 0.069516 0.000000
vn 0.707107 0.707107 0.000000
vn 0.707107 0.707107 0.000000
vn 0.015508 0.999880 0.000000
vn 0.707107 0.707107 0.000000
vn 0.015508 0.999880 0.000000
vn 0.015508 0.999880 0.000000
vn 0.015508 0.999880 0.000000
vn 0.000000 1.000000 0.000000
vn 0.000000 1.000000 0.000000
vn -0.016525 -0.999864 0.000000
vn -0.016525 -0.999864 0.000000
vn 0.000000 -1.000000 0.000000
vn 0.000000 -1.000000 0.000000
vn 0.997581 0.069516 0.000000
vn 1.000000 0.000000 0.000000
vn 0.997581 0.069516 0.000000
vn 1.000000 0.000000 0.000000
vn -0.995393 -0.095878 0.000000
vn -0.995393 -0.095878 0.000000
vn -1.000000 0.000000 0.000000
vn -1.000000 0.000000 0.000000
vn 0.000000 0.000000 1.000000
vn 0.000000 0.000000 1.000000
vn 0.000000 0.000000 1.000000
vn 0.000000 0.000000 1.000000
vn 0.000000 0.000000 1.000000
vn 0.000000 0.000000 1.000000
vn 0.000000 0.000000 1.000000
vn 0.000000 0.000000 1.000000
vn 0.707104 0.000000 0.707109
vn 0.663415 0.080484 0.743910
vn 0.707104 0.000000 0.707109
vn 0.691255 0.030696 0.721959
vn -0.707096 0.000000 0.707118
vn -0.707096 0.000000 0.707118
vn -0.685163 -0.041993 0.727178
vn -0.651140 -0.101039 0.752202
vn -0.021813 -0.695941 0.717767
vn 0.000000 -0.707098 0.707115
vn -0.006757 -0.703697 0.710468
vn 0.000000 -0.707098 0.707115
vn 0.000000 0.707105 0.707109
vn 0.006379 0.703893 0.710277
vn 0.000000 0.707105 0.707109
vn 0.020667 0.696543 0.717217
vn 0.408236 0.408242 0.816506
vn 0.408236 0.408242 0.816506
vn 0.663415 0.080484 0.743910
vn 0.691255 0.030696 0.721959
vn 0.408236 0.408242 0.816506
vn 0.020667 0.696543 0.717217
vn 0.408236 0.408242 0.816506
vn 0.006379 0.703893 0.710277
vn 0.000000 0.000000 1.000000
vn 0.000000 0.000000 1.000000
vn 0.000000 0.000000 1.000000
vn 0.000000 0.000000 1.000000
vn 0.000000 0.000000 1.000000
vn 0.000000 0.000000 1.000000
vn 0.000000 0.000000 1.000000
vn 0.000000 0.000000 1.000000
vn -0.006757 -0.703697 0.710468
vn -0.408242 -0.408247 0.816500
vn -0.021813 -0.695941 0.717767
vn -0.408242 -0.408247 0.816500
vn -0.685163 -0.041993 0.727178
vn -0.651140 -0.101039 0.752202
vn -0.408242 -0.408247 0.816500
vn -0.408242 -0.408247 0.816500
vn 0.000000 -1.000000 0.000000
vn 0.000000 -1.000000 0.000000
vn 0.000000 -1.000000 0.000000
vn 0.000000 -1.000000 0.000000
vn 0.000000 -0.707097 0.707117
vn 0.000000 -0.707097 0.707117
vn 0.000000 -0.707097 0.707117
vn 0.000000 -0.707097 0.707117
vn 0.995393 -0.095878 0.000000
vn 0.995393 -0.095878 0.000000
vn 0.707106 -0.707108 0.000000
vn 0.707106 -0.707108 0.000000
vn 0.707106 -0.707108 0.000000
vn 0.707106 -0.707108 0.000000
vn 0.016525 -0.999864 0.000000
vn 0.016525 -0.999864 0.000000
vn -0.997581 0.069516 0.000000
vn -0.997581 0.069516 0.000000
vn -0.707107 0.707107 0.000000
vn -0.707107 0.707107 0.000000
vn -0.707107 0.707107 0.000000
vn -0.707107 0.707107 0.000000
vn -0.015508 0.999880 0.000000
vn -0.015508 0.999880 0.000000
vn -0.015508 0.999880 0.000000
vn 0.000000 1.000000 0.000000
vn -0.015508 0.999880 0.000000
vn 0.000000 1.000000 0.000000
vn 0.016525 -0.999864 0.000000
vn 0.000000 -1.000000 0.000000
vn 0.016525 -0.999864 0.000000
vn 0.000000 -1.000000 0.000000
vn -0.997581 0.069516 0.000000
vn -0.997581 0.069516 0.000000
vn -1.000000 0.000000 0.000000
vn -1.000000 0.000000 0.000000
vn 0.995393 -0.095878 0.000000
vn 1.000000 0.000000 0.000000
vn 0.995393 -0.095878 0.000000
vn 1.000000 0.000000 0.000000
vn 0.000000 0.000000 1.000000
vn 0.000000 0.000000 1.000000
vn 0.000000 0.000000 1.000000
vn 0.000000 0.000000 1.000000
vn 0.000000 0.000000 1.000000
vn 0.000000 0.000000 1.000000
vn 0.000000 0.000000 1.000000
vn 0.000000 0.000000 1.000000
vn -0.707107 0.000000 0.707106
vn -0.707107 0.000000 0.707106
vn -0.663419 0.080485 0.743906
vn -0.691259 0.030697 0.721955
vn 0.651138 -0.101039 0.752204
vn 0.707091 0.000000 0.707123
vn 0.685159 -0.041993 0.727182
vn 0.707091 0.000000 0.707123
vn 0.021813 -0.695939 0.717770
vn 0.006757 -0.703694 0.710471
vn 0.000000 -0.707098 0.707115
vn 0.000000 -0.707098 0.707115
vn 0.000000 0.707105 0.707109
vn 0.000000 0.707105 0.707109
vn -0.006379 0.703893 0.710277
vn -0.020667 0.696543 0.717217
vn -0.691259 0.030697 0.721955
vn -0.408240 0.408241 0.816504
vn -0.663419 0.080485 0.743906
vn -0.408240 0.408241 0.816504
vn -0.408240 0.408241 0.816504
vn -0.408240 0.408241 0.816504
vn -0.020667 0.696543 0.717217
vn -0.006379 0.703893 0.710277
vn 0.000000 0.000000 1.000000
vn -0.000001 0.000000 1.000000
vn 0.000000 0.000000 1.000000
vn -0.000001 0.000000 1.000000
vn -0.000001 0.000000 1.000000
vn -0.000001 0.000000 1.000000
vn 0.000000 0.000000 1.000000
vn 0.000000 0.000000 1.000000
vn 0.006757 -0.703694 0.710471
vn 0.021813 -0.695939 0.717770
vn 0.408242 -0.408246 0.816501
vn 0.408243 -0.408245 0.816501
vn 0.408243 -0.408245 0.816501
vn 0.651138 -0.101039 0.752204
vn 0.408242 -0.408246 0.816501
vn 0.685159 -0.041993 0.727182
s 1
g Tele:polySurface3PC_Scene
f 125/236/389 126/237/390 129/239/391
f 129/239/391 126/237/390 130/238/392
s 2
f 125/236/393 129/239/394 131/241/395
f 131/241/395 129/239/394 132/240/396
s 3
f 137/242/397 136/243/398 138/245/399
f 138/245/399 136/243/398 139/244/400
s 4
f 136/246/401 135/247/402 139/249/403
f 139/249/403 135/247/402 140/248/404
s 5
f 143/250/405 142/251/406 144/253/407
f 144/253/407 142/251/406 145/252/408
s 6
f 142/254/409 141/255/410 145/257/411
f 145/257/411 141/255/410 146/256/412
s 7
f 146/256/413 141/255/414 128/259/415
f 128/259/415 141/255/414 127/258/416
s 8
f 140/248/417 135/247/418 124/261/419
f 124/261/419 135/247/418 123/260/420
s 9
f 144/253/421 129/262/422 143/250/423
f 143/250/423 129/262/422 130/263/424
s 10
f 137/242/425 138/245/426 125/265/427
f 125/265/427 138/245/426 126/264/428
s 11
f 131/266/429 132/267/430 150/269/431
f 150/269/431 132/267/430 147/268/432
s 12
f 133/271/433 152/272/434 134/270/435
f 134/270/435 152/272/434 149/273/436
s 13
f 129/262/437 144/253/438 132/275/439
f 132/275/439 144/253/438 147/274/440
s 14
f 125/265/441 131/276/442 137/242/443
f 137/242/443 131/276/442 150/277/444
s 15
f 152/278/445 133/279/446 135/247/447
f 135/247/447 133/279/446 123/260/448
s 16
f 134/280/449 149/281/450 128/259/451
f 128/259/451 149/281/450 146/256/452
s 17
f 145/252/453 148/282/454 144/253/455
f 144/253/455 148/282/454 147/274/456
s 18
f 145/257/457 146/256/458 148/283/459
f 148/283/459 146/256/458 149/281/460
s 19
f 148/284/461 151/285/462 147/268/463
f 147/268/463 151/285/462 150/269/464
s 20
f 148/284/465 149/273/466 151/285/467
f 151/285/467 149/273/466 152/272/468
s 21
f 135/247/469 136/246/470 152/278/471
f 152/278/471 136/246/470 151/286/472
s 22
f 137/242/473 150/277/474 136/243/475
f 136/243/475 150/277/474 151/287/476
s 23
f 153/288/477 155/289/478 154/291/479
f 154/291/479 155/289/478 156/290/480
s 24
f 153/288/481 157/292/482 155/289/483
f 155/289/483 157/292/482 158/293/484
s 25
f 161/294/485 162/295/486 160/297/487
f 160/297/487 162/295/486 163/296/488
s 26
f 160/298/489 163/299/490 159/301/491
f 159/301/491 163/299/490 164/300/492
s 27
f 167/302/493 168/303/494 166/305/495
f 166/305/495 168/303/494 169/304/496
s 28
f 166/306/497 169/307/498 165/309/499
f 165/309/499 169/307/498 170/308/500
s 29
f 170/308/501 128/310/502 165/309/503
f 165/309/503 128/310/502 127/311/504
s 30
f 164/300/505 124/312/506 159/301/507
f 159/301/507 124/312/506 123/313/508
s 31
f 168/303/509 167/302/510 155/315/511
f 155/315/511 167/302/510 156/314/512
s 32
f 161/294/513 153/316/514 162/295/515
f 162/295/515 153/316/514 154/317/516
s 33
f 157/318/517 174/319/518 158/321/519
f 158/321/519 174/319/518 171/320/520
s 34
f 173/322/521 176/323/522 134/270/523
f 134/270/523 176/323/522 133/271/524
s 35
f 155/315/525 158/324/526 168/303/527
f 168/303/527 158/324/526 171/325/528
s 36
f 174/319/529 157/318/530 161/326/531
f 161/326/531 157/318/530 153/327/532
s 37
f 176/328/533 159/301/534 133/329/535
f 133/329/535 159/301/534 123/313/536
s 38
f 134/330/537 128/310/538 173/331/539
f 173/331/539 128/310/538 170/308/540
s 39
f 171/325/541 172/332/542 168/303/543
f 168/303/543 172/332/542 169/304/544
s 40
f 169/307/545 172/333/546 170/308/547
f 170/308/547 172/333/546 173/331/548
s 41
f 174/319/549 175/334/550 171/320/551
f 171/320/551 175/334/550 172/335/552
s 42
f 172/335/553 175/334/554 173/322/555
f 173/322/555 175/334/554 176/323/556
s 43
f 159/301/557 176/328/558 160/298/559
f 160/298/559 176/328/558 175/336/560
s 44
f 175/337/561 174/338/562 160/297/563
f 160/297/563 174/338/562 161/294/564
g default
v 2.972177 2.733328 -6.857977
v 2.972177 2.733328 -7.000002
v 2.422177 2.183327 -6.857977
v 2.422177 2.183327 -7.000002
v 3.163951 2.733328 -7.000002
v 3.163951 2.733328 -6.857977
v 2.422177 1.991553 -6.857977
v 2.422177 1.991553 -7.000002
v 2.442177 2.163327 -6.837977
v 2.442177 2.011553 -6.837977
v 2.992177 2.713328 -6.837977
v 3.143951 2.713328 -6.837977
v 2.972177 2.348311 -6.857977
v 2.923854 2.231649 -6.857977
v 2.807193 2.183327 -6.857977
v 2.807193 2.183327 -7.000002
v 2.923854 2.231649 -7.000002
v 2.972177 2.348311 -7.000002
v 3.163951 2.156537 -7.000002
v 3.115629 2.039876 -7.000002
v 2.998968 1.991553 -7.000002
v 2.998968 1.991553 -6.857977
v 3.115629 2.039876 -6.857977
v 3.163951 2.156537 -6.857977
v 2.978968 2.011553 -6.837977
v 3.095629 2.059876 -6.837977
v 3.143951 2.176537 -6.837977
v 2.827193 2.163327 -6.837977
v 2.943854 2.211649 -6.837977
v 2.992177 2.328311 -6.837977
vt 0.027289 0.974868
vt 0.023324 0.974868
vt 0.023324 0.969513
vt 0.027289 0.969513
vt 0.023324 0.974868
vt 0.027289 0.974868
vt 0.027289 0.969513
vt 0.023324 0.969513
vt 0.022765 0.970071
vt 0.022765 0.974309
vt 0.022765 0.974309
vt 0.022765 0.970071
vt 0.031933 0.963476
vt 0.035190 0.963476
vt 0.035190 0.967442
vt 0.031933 0.967442
vt 0.017693 0.968083
vt 0.017693 0.971340
vt 0.021659 0.971340
vt 0.021659 0.968083
vt 0.029234 0.958680
vt 0.032491 0.958680
vt 0.032491 0.954715
vt 0.029234 0.954715
vt 0.012897 0.958249
vt 0.012897 0.961619
vt 0.008796 0.961619
vt 0.008796 0.958249
vt 0.012897 0.978274
vt 0.008796 0.978274
vt 0.017693 0.982090
vt 0.021659 0.982090
vt 0.013130 0.954715
vt 0.013130 0.958680
vt 0.021183 0.967442
vt 0.021183 0.963476
vt 0.032491 0.962918
vt 0.032491 0.958680
vt 0.017504 0.958680
vt 0.021741 0.962918
vt 0.012897 0.978274
vt 0.017135 0.978274
vt 0.017135 0.967525
vt 0.012897 0.963287
vt 0.028676 0.954157
vt 0.013688 0.954157
vt 0.021741 0.962918
vt 0.032491 0.962918
vt 0.017135 0.970782
vt 0.017135 0.981532
vt 0.008218 0.977697
vt 0.008218 0.962196
vt 0.031933 0.954157
vt 0.008218 0.958827
vt 0.014246 0.960029
vt 0.018484 0.964267
vt 0.017135 0.967525
vt 0.035749 0.962918
vn 0.000000 1.000000 0.000000
vn 0.000000 1.000000 0.000000
vn 0.000000 1.000000 0.000000
vn 0.000000 1.000000 0.000000
vn -1.000000 0.000000 0.000000
vn -1.000000 0.000000 0.000000
vn -1.000000 0.000000 0.000000
vn -1.000000 0.000000 0.000000
vn -0.707098 0.000000 0.707116
vn -0.707098 0.000000 0.707116
vn -0.707098 0.000000 0.707116
vn -0.707098 0.000000 0.707116
vn 0.000000 0.707102 0.707111
vn 0.000000 0.707102 0.707111
vn 0.000000 0.707102 0.707111
vn 0.000000 0.707102 0.707111
vn -0.095878 0.995393 0.000000
vn -0.707108 0.707106 0.000000
vn -0.095878 0.995393 0.000000
vn -0.707108 0.707106 0.000000
vn -0.707108 0.707106 0.000000
vn -0.995393 0.095878 0.000000
vn -0.707108 0.707106 0.000000
vn -0.995393 0.095878 0.000000
vn 0.069515 -0.997581 0.000000
vn 0.707107 -0.707107 0.000000
vn 0.069515 -0.997581 0.000000
vn 0.707107 -0.707107 0.000000
vn 0.707107 -0.707107 0.000000
vn 0.997581 -0.069515 0.000000
vn 0.707107 -0.707107 0.000000
vn 0.997581 -0.069515 0.000000
vn 0.997581 -0.069515 0.000000
vn 0.997581 -0.069515 0.000000
vn 1.000000 0.000000 0.000000
vn 1.000000 0.000000 0.000000
vn -0.995393 0.095878 0.000000
vn -0.995393 0.095878 0.000000
vn -1.000000 0.000000 0.000000
vn -1.000000 0.000000 0.000000
vn 0.069515 -0.997581 0.000000
vn 0.000000 -1.000000 0.000000
vn 0.069515 -0.997581 0.000000
vn 0.000000 -1.000000 0.000000
vn -0.095878 0.995393 0.000000
vn -0.095878 0.995393 0.000000
vn 0.000000 1.000000 0.000000
vn 0.000000 1.000000 0.000000
vn 0.000000 0.000000 1.000000
vn 0.000000 0.000000 1.000000
vn 0.000001 0.000000 1.000000
vn 0.000002 0.000000 1.000000
vn 0.000000 0.000000 1.000000
vn 0.000000 0.000000 1.000000
vn 0.000000 0.000000 1.000000
vn 0.000000 0.000000 1.000000
vn 0.000000 -0.707096 0.707118
vn 0.080484 -0.663410 0.743915
vn 0.000000 -0.707096 0.707118
vn 0.030696 -0.691248 0.721966
vn 0.000000 0.707099 0.707115
vn 0.000000 0.707099 0.707115
vn -0.041992 0.685166 0.727175
vn -0.101037 0.651144 0.752199
vn -0.651148 0.101038 0.752195
vn -0.707106 0.000000 0.707108
vn -0.685172 0.041992 0.727170
vn -0.707106 0.000000 0.707108
vn 0.707096 0.000000 0.707118
vn 0.691248 -0.030696 0.721965
vn 0.707096 0.000000 0.707118
vn 0.663411 -0.080484 0.743914
vn 0.408243 -0.408244 0.816502
vn 0.408244 -0.408243 0.816501
vn 0.080484 -0.663410 0.743915
vn 0.030696 -0.691248 0.721966
vn 0.408243 -0.408244 0.816502
vn 0.663411 -0.080484 0.743914
vn 0.408244 -0.408243 0.816501
vn 0.691248 -0.030696 0.721965
vn 0.000002 0.000000 1.000000
vn 0.000002 0.000000 1.000000
vn 0.000002 0.000000 1.000000
vn 0.000001 0.000000 1.000000
vn 0.000002 0.000000 1.000000
vn 0.000000 0.000000 1.000000
vn 0.000002 0.000000 1.000000
vn 0.000000 0.000000 1.000000
vn -0.685172 0.041992 0.727170
vn -0.408242 0.408242 0.816503
vn -0.651148 0.101038 0.752195
vn -0.408242 0.408242 0.816503
vn -0.041992 0.685166 0.727175
vn -0.101037 0.651144 0.752199
vn -0.408242 0.408242 0.816503
vn -0.408242 0.408242 0.816503
s 1
g Tele:PC_ScenepolySurface9
f 178/339/565 177/340/566 181/342/567
f 181/342/567 177/340/566 182/341/568
s 2
f 179/343/569 180/344/570 183/346/571
f 183/346/571 180/344/570 184/345/572
s 3
f 179/343/573 183/346/574 185/348/575
f 185/348/575 183/346/574 186/347/576
s 4
f 182/341/577 177/340/578 188/350/579
f 188/350/579 177/340/578 187/349/580
s 5
f 191/351/581 190/352/582 192/354/583
f 192/354/583 190/352/582 193/353/584
s 6
f 190/355/585 189/356/586 193/358/587
f 193/358/587 189/356/586 194/357/588
s 7
f 197/359/589 196/360/590 198/362/591
f 198/362/591 196/360/590 199/361/592
s 8
f 196/363/593 195/364/594 199/366/595
f 199/366/595 195/364/594 200/365/596
s 9
f 200/365/597 195/364/598 182/368/599
f 182/368/599 195/364/598 181/367/600
s 10
f 194/357/601 189/356/602 178/370/603
f 178/370/603 189/356/602 177/369/604
s 11
f 198/362/605 183/371/606 197/359/607
f 197/359/607 183/371/606 184/372/608
s 12
f 191/351/609 192/354/610 179/374/611
f 179/374/611 192/354/610 180/373/612
s 13
f 185/375/613 186/376/614 204/378/615
f 204/378/615 186/376/614 201/377/616
s 14
f 187/380/617 206/381/618 188/379/619
f 188/379/619 206/381/618 203/382/620
s 15
f 183/371/621 198/362/622 186/384/623
f 186/384/623 198/362/622 201/383/624
s 16
f 179/374/625 185/385/626 191/351/627
f 191/351/627 185/385/626 204/386/628
s 17
f 206/387/629 187/388/630 189/356/631
f 189/356/631 187/388/630 177/369/632
s 18
f 188/389/633 203/390/634 182/368/635
f 182/368/635 203/390/634 200/365/636
s 19
f 199/361/637 202/391/638 198/362/639
f 198/362/639 202/391/638 201/383/640
s 20
f 199/366/641 200/365/642 202/392/643
f 202/392/643 200/365/642 203/390/644
s 21
f 202/393/645 205/394/646 201/377/647
f 201/377/647 205/394/646 204/378/648
s 22
f 202/393/649 203/382/650 205/394/651
f 205/394/651 203/382/650 206/381/652
s 23
f 189/356/653 190/355/654 206/387/655
f 206/387/655 190/355/654 205/395/656
s 24
f 191/351/657 204/386/658 190/352/659
f 190/352/659 204/386/658 205/396/660
g default
v 3.073411 2.062946 -6.868720
v 3.073411 2.062951 -6.944289
v 3.073411 5.308160 -6.868720
v 3.073411 5.308166 -6.944289
v -3.073432 5.308160 -6.868720
v -3.075088 5.308165 -6.944289
v -3.073432 2.062946 -6.868720
v -3.075088 2.062950 -6.944289
vt 0.323654 0.985873
vt 0.323654 0.960959
vt 0.324234 0.960959
vt 0.324234 0.985873
vt 0.276465 0.985873
vt 0.323654 0.986453
vt 0.276452 0.986453
vt 0.276465 0.960959
vt 0.275884 0.985873
vt 0.275884 0.960959
vt 0.323654 0.960379
vt 0.276452 0.960379
vt 0.008155 0.043691
vt 0.991845 0.043691
vt 0.991845 0.956312
vt 0.008155 0.956312
vn 1.000000 0.000000 0.000000
vn 1.000000 0.000000 0.000000
vn 1.000000 0.000000 0.000000
vn 1.000000 0.000000 0.000000
vn -0.000000 1.000000 -0.000001
vn -0.000000 1.000000 -0.000001
vn -0.000000 1.000000 -0.000001
vn -0.000000 1.000000 -0.000001
vn -0.999760 0.000000 0.021906
vn -0.999760 0.000000 0.021906
vn -0.999760 0.000000 0.021906
vn -0.999760 0.000000 0.021906
vn 0.000000 -1.000000 0.000010
vn 0.000000 -1.000000 0.000010
vn 0.000000 -1.000000 0.000010
vn 0.000000 -1.000000 0.000010
vn 0.000000 0.000000 1.000000
vn 0.000000 0.000000 1.000000
vn 0.000000 0.000000 1.000000
vn 0.000000 0.000000 1.000000
s 1
g Tele:PC_ScenepolySurface7
f 209/397/661 207/398/662 210/400/663
f 210/400/663 207/398/662 208/399/664
s 2
f 211/401/665 209/397/666 212/403/667
f 212/403/667 209/397/666 210/402/668
s 3
f 213/404/669 211/401/670 214/406/671
f 214/406/671 211/401/670 212/405/672
s 4
f 208/407/673 207/398/674 214/408/675
f 214/408/675 207/398/674 213/404/676
s 5
f 213/409/677 207/410/678 211/412/679
f 211/412/679 207/410/678 209/411/680
g default
v -2.972177 2.733328 -6.857977
v -2.972177 2.733328 -7.000002
v -2.422177 2.183327 -6.857977
v -2.422177 2.183327 -7.000002
v -3.163951 2.733328 -7.000002
v -3.163951 2.733328 -6.857977
v -2.422177 1.991553 -6.857977
v -2.422177 1.991553 -7.000002
v -2.442177 2.163327 -6.837977
v -2.442177 2.011553 -6.837977
v -2.992177 2.713328 -6.837977
v -3.143951 2.713328 -6.837977
v -2.972177 2.348311 -6.857977
v -2.923854 2.231649 -6.857977
v -2.807193 2.183327 -6.857977
v -2.807193 2.183327 -7.000002
v -2.923854 2.231649 -7.000002
v -2.972177 2.348311 -7.000002
v -3.163951 2.156537 -7.000002
v -3.115629 2.039876 -7.000002
v -2.998968 1.991553 -7.000002
v -2.998968 1.991553 -6.857977
v -3.115629 2.039876 -6.857977
v -3.163951 2.156537 -6.857977
v -2.978968 2.011553 -6.837977
v -3.095629 2.059876 -6.837977
v -3.143951 2.176537 -6.837977
v -2.827193 2.163327 -6.837977
v -2.943854 2.211649 -6.837977
v -2.992177 2.328311 -6.837977
vt 0.027289 0.969513
vt 0.027289 0.974868
vt 0.023324 0.974868
vt 0.023324 0.969513
vt 0.023324 0.969513
vt 0.023324 0.974868
vt 0.027289 0.974868
vt 0.027289 0.969513
vt 0.022765 0.970071
vt 0.022765 0.974309
vt 0.022765 0.974309
vt 0.022765 0.970071
vt 0.029234 0.954715
vt 0.029234 0.958680
vt 0.032491 0.958680
vt 0.032491 0.954715
vt 0.008796 0.958249
vt 0.012897 0.958249
vt 0.012897 0.961619
vt 0.008796 0.961619
vt 0.031933 0.967442
vt 0.031933 0.963476
vt 0.035190 0.963476
vt 0.035190 0.967442
vt 0.021659 0.968083
vt 0.017693 0.968083
vt 0.017693 0.971340
vt 0.021659 0.971340
vt 0.017693 0.982090
vt 0.021659 0.982090
vt 0.012897 0.978274
vt 0.008796 0.978274
vt 0.021183 0.967442
vt 0.021183 0.963476
vt 0.013130 0.954715
vt 0.013130 0.958680
vt 0.032491 0.958680
vt 0.017504 0.958680
vt 0.021741 0.962918
vt 0.032491 0.962918
vt 0.017135 0.978274
vt 0.017135 0.967525
vt 0.012897 0.963287
vt 0.012897 0.978274
vt 0.021741 0.962918
vt 0.032491 0.962918
vt 0.028676 0.954157
vt 0.013688 0.954157
vt 0.008218 0.962196
vt 0.008218 0.977697
vt 0.017135 0.981532
vt 0.017135 0.970782
vt 0.035749 0.962918
vt 0.017135 0.967525
vt 0.014246 0.960029
vt 0.018484 0.964267
vt 0.008218 0.958827
vt 0.031933 0.954157
vn 0.000000 1.000000 0.000000
vn 0.000000 1.000000 0.000000
vn 0.000000 1.000000 0.000000
vn 0.000000 1.000000 0.000000
vn 1.000000 0.000000 0.000000
vn 1.000000 0.000000 0.000000
vn 1.000000 0.000000 0.000000
vn 1.000000 0.000000 0.000000
vn 0.707096 0.000000 0.707117
vn 0.707097 0.000000 0.707117
vn 0.707096 0.000000 0.707117
vn 0.707097 0.000000 0.707117
vn 0.000000 0.707103 0.707110
vn 0.000000 0.707103 0.707110
vn 0.000000 0.707103 0.707110
vn 0.000000 0.707103 0.707110
vn 0.095878 0.995393 0.000000
vn 0.095878 0.995393 0.000000
vn 0.707108 0.707106 0.000000
vn 0.707108 0.707106 0.000000
vn 0.707108 0.707106 0.000000
vn 0.707108 0.707106 0.000000
vn 0.995393 0.095878 0.000000
vn 0.995393 0.095878 0.000000
vn -0.069515 -0.997581 0.000000
vn -0.069515 -0.997581 0.000000
vn -0.707107 -0.707107 0.000000
vn -0.707107 -0.707107 0.000000
vn -0.707107 -0.707107 0.000000
vn -0.707107 -0.707107 0.000000
vn -0.997581 -0.069515 0.000000
vn -0.997581 -0.069515 0.000000
vn -0.997581 -0.069515 0.000000
vn -1.000000 0.000000 0.000000
vn -0.997581 -0.069515 0.000000
vn -1.000000 0.000000 0.000000
vn 0.995393 0.095878 0.000000
vn 1.000000 0.000000 0.000000
vn 0.995393 0.095878 0.000000
vn 1.000000 0.000000 0.000000
vn -0.069515 -0.997581 0.000000
vn -0.069515 -0.997581 0.000000
vn 0.000000 -1.000000 0.000000
vn 0.000000 -1.000000 0.000000
vn 0.095878 0.995393 0.000000
vn 0.000000 1.000000 0.000000
vn 0.095878 0.995393 0.000000
vn 0.000000 1.000000 0.000000
vn 0.000000 0.000000 1.000000
vn -0.000001 0.000000 1.000000
vn 0.000000 0.000000 1.000000
vn -0.000002 0.000000 1.000000
vn -0.000002 0.000000 1.000000
vn -0.000003 0.000000 1.000000
vn -0.000003 0.000000 1.000000
vn -0.000003 0.000000 1.000000
vn 0.000000 -0.707094 0.707119
vn 0.000000 -0.707094 0.707119
vn -0.080488 -0.663409 0.743916
vn -0.030698 -0.691246 0.721967
vn 0.101039 0.651144 0.752199
vn 0.000000 0.707098 0.707115
vn 0.041993 0.685166 0.727175
vn 0.000000 0.707098 0.707115
vn 0.651144 0.101038 0.752199
vn 0.685168 0.041993 0.727174
vn 0.707101 0.000000 0.707113
vn 0.707101 0.000000 0.707113
vn -0.707099 0.000000 0.707114
vn -0.707099 0.000000 0.707114
vn -0.691251 -0.030696 0.721962
vn -0.663413 -0.080485 0.743912
vn -0.030698 -0.691246 0.721967
vn -0.408247 -0.408242 0.816500
vn -0.080488 -0.663409 0.743916
vn -0.408246 -0.408243 0.816500
vn -0.408246 -0.408243 0.816500
vn -0.408247 -0.408242 0.816500
vn -0.663413 -0.080485 0.743912
vn -0.691251 -0.030696 0.721962
vn -0.000001 0.000000 1.000000
vn -0.000002 0.000000 1.000000
vn -0.000002 0.000000 1.000000
vn -0.000002 0.000000 1.000000
vn -0.000002 0.000000 1.000000
vn -0.000002 0.000000 1.000000
vn -0.000002 0.000000 1.000000
vn -0.000003 0.000000 1.000000
vn 0.685168 0.041993 0.727174
vn 0.651144 0.101038 0.752199
vn 0.408242 0.408242 0.816503
vn 0.408242 0.408242 0.816503
vn 0.408242 0.408242 0.816503
vn 0.101039 0.651144 0.752199
vn 0.408242 0.408242 0.816503
vn 0.041993 0.685166 0.727175
s 1
g Tele:PC_ScenepolySurface5
f 216/413/681 219/414/682 215/416/683
f 215/416/683 219/414/682 220/415/684
s 2
f 217/417/685 221/418/686 218/420/687
f 218/420/687 221/418/686 222/419/688
s 3
f 217/417/689 223/421/690 221/418/691
f 221/418/691 223/421/690 224/422/692
s 4
f 220/415/693 226/423/694 215/416/695
f 215/416/695 226/423/694 225/424/696
s 5
f 229/425/697 230/426/698 228/428/699
f 228/428/699 230/426/698 231/427/700
s 6
f 228/429/701 231/430/702 227/432/703
f 227/432/703 231/430/702 232/431/704
s 7
f 235/433/705 236/434/706 234/436/707
f 234/436/707 236/434/706 237/435/708
s 8
f 234/437/709 237/438/710 233/440/711
f 233/440/711 237/438/710 238/439/712
s 9
f 238/439/713 220/441/714 233/440/715
f 233/440/715 220/441/714 219/442/716
s 10
f 232/431/717 216/443/718 227/432/719
f 227/432/719 216/443/718 215/444/720
s 11
f 236/434/721 235/433/722 221/446/723
f 221/446/723 235/433/722 222/445/724
s 12
f 229/425/725 217/447/726 230/426/727
f 230/426/727 217/447/726 218/448/728
s 13
f 223/449/729 242/450/730 224/452/731
f 224/452/731 242/450/730 239/451/732
s 14
f 241/454/733 244/455/734 226/453/735
f 226/453/735 244/455/734 225/456/736
s 15
f 221/446/737 224/457/738 236/434/739
f 236/434/739 224/457/738 239/458/740
s 16
f 242/459/741 223/460/742 229/425/743
f 229/425/743 223/460/742 217/447/744
s 17
f 244/461/745 227/432/746 225/462/747
f 225/462/747 227/432/746 215/444/748
s 18
f 226/463/749 220/441/750 241/464/751
f 241/464/751 220/441/750 238/439/752
s 19
f 239/458/753 240/465/754 236/434/755
f 236/434/755 240/465/754 237/435/756
s 20
f 237/438/757 240/466/758 238/439/759
f 238/439/759 240/466/758 241/464/760
s 21
f 242/450/761 243/467/762 239/451/763
f 239/451/763 243/467/762 240/468/764
s 22
f 240/468/765 243/467/766 241/454/767
f 241/454/767 243/467/766 244/455/768
s 23
f 227/432/769 244/461/770 228/429/771
f 228/429/771 244/461/770 243/469/772
s 24
f 243/470/773 242/459/774 228/428/775
f 228/428/775 242/459/774 229/425/776
