# This file uses centimeters as units for non-parametric coordinates.

mtllib Tele.mtl
g default
v 0.000000 5.187788 -6.857977
v 0.000000 5.187788 -7.000002
v 2.972178 4.637789 -6.857977
v 2.972178 4.637789 -7.000002
v -0.000000 5.379563 -7.000002
v 0.000000 5.379563 -6.857977
v 3.163951 4.637789 -6.857977
v 3.163951 4.637789 -7.000002
v 2.992177 4.657789 -6.837977
v 3.143951 4.657789 -6.837977
v 0.000000 5.207788 -6.837977
v 0.000000 5.359563 -6.837977
v 2.807194 5.187788 -6.857977
v 2.923855 5.139466 -6.857977
v 2.972178 5.022805 -6.857977
v 2.972178 5.022805 -7.000002
v 2.923855 5.139466 -7.000002
v 2.807194 5.187788 -7.000002
v 2.998968 5.379563 -7.000002
v 3.115629 5.331241 -7.000002
v 3.163951 5.214580 -7.000002
v 3.163951 5.214580 -6.857977
v 3.115629 5.331241 -6.857977
v 2.998968 5.379563 -6.857977
v 3.143951 5.194580 -6.837977
v 3.095629 5.311241 -6.837977
v 2.978968 5.359563 -6.837977
v 2.992177 5.042805 -6.837977
v 2.943855 5.159466 -6.837977
v 2.827194 5.207788 -6.837977
v -2.972178 4.637789 -6.857977
v -2.972178 4.637789 -7.000002
v -3.163951 4.637789 -6.857977
v -3.163951 4.637789 -7.000002
v -2.992177 4.657789 -6.837977
v -3.143951 4.657789 -6.837977
v -2.807194 5.187788 -6.857977
v -2.923855 5.139466 -6.857977
v -2.972178 5.022805 -6.857977
v -2.972178 5.022805 -7.000002
v -2.923855 5.139466 -7.000002
v -2.807194 5.187788 -7.000002
v -2.998968 5.379563 -7.000002
v -3.115629 5.331241 -7.000002
v -3.163951 5.214580 -7.000002
v -3.163951 5.214580 -6.857977
v -3.115629 5.331241 -6.857977
v -2.998968 5.379563 -6.857977
v -3.143951 5.194580 -6.837977
v -3.095629 5.311241 -6.837977
v -2.978968 5.359563 -6.837977
v -2.992177 5.042805 -6.837977
v -2.943855 5.159466 -6.837977
v -2.827194 5.207788 -6.837977
vt 0.120438 0.981839
vt 0.115211 0.981839
vt 0.115211 0.974780
vt 0.120438 0.974780
vt 0.121175 0.975517
vt 0.121175 0.981103
vt 0.120473 0.982950
vt 0.120473 0.987309
vt 0.115165 0.987309
vt 0.115165 0.982950
vt 0.117677 0.990467
vt 0.113479 0.990467
vt 0.113479 0.985356
vt 0.117677 0.985356
vt 0.121207 0.986872
vt 0.121207 0.991213
vt 0.115922 0.991213
vt 0.115922 0.986872
vt 0.009381 0.985356
vt 0.013579 0.985356
vt 0.013579 0.990467
vt 0.009381 0.990467
vt 0.121487 0.985356
vt 0.121487 0.990467
vt 0.012472 0.990467
vt 0.012472 0.985356
vt 0.115922 0.965407
vt 0.121207 0.965407
vt 0.115165 0.968563
vt 0.120473 0.968563
vt 0.027709 0.024137
vt 0.027709 -0.000000
vt 0.771420 -0.000000
vt 0.561140 0.024137
vt 1.000000 0.500000
vt 0.789720 0.500000
vt 0.789720 0.050376
vt 1.000000 0.026238
vt 0.115178 0.986127
vt 0.115178 0.966151
vt 0.121220 0.969310
vt 0.121220 0.983697
vt 0.114199 0.991186
vt 0.012472 0.991186
vt 0.121487 0.991186
vt 0.014299 0.991186
vt 0.115178 0.990469
vt 0.010101 0.991186
vt 0.933051 0.007685
vt 0.722771 0.031822
vt 0.118397 0.991186
vt 0.121220 0.988057
vt 0.120438 0.981839
vt 0.120438 0.974780
vt 0.115211 0.974780
vt 0.115211 0.981839
vt 0.121175 0.981103
vt 0.121175 0.975517
vt 0.120473 0.982950
vt 0.115165 0.982950
vt 0.115165 0.987309
vt 0.120473 0.987309
vt 0.117677 0.990467
vt 0.117677 0.985356
vt 0.113479 0.985356
vt 0.113479 0.990467
vt 0.121207 0.986872
vt 0.115922 0.986872
vt 0.115922 0.991213
vt 0.121207 0.991213
vt 0.009381 0.985356
vt 0.009381 0.990467
vt 0.013579 0.990467
vt 0.013579 0.985356
vt 0.121487 0.990467
vt 0.121487 0.985356
vt 0.012472 0.985356
vt 0.012472 0.990467
vt 0.121207 0.965407
vt 0.115922 0.965407
vt 0.120473 0.968563
vt 0.115165 0.968563
vt 0.027709 0.975863
vt 0.561140 0.975863
vt 0.771420 1.000000
vt 0.027709 1.000000
vt 1.000000 0.973762
vt 0.789720 0.949624
vt 0.533430 0.972424
vt -0.000000 0.972424
vt 0.115178 0.966151
vt 0.115178 0.986127
vt 0.121220 0.983697
vt 0.722771 0.968178
vt 0.114199 0.991186
vt 0.012472 0.991186
vt 0.121487 0.991186
vt 0.014299 0.991186
vt 0.115178 0.990469
vt 0.010101 0.991186
vt 0.933051 0.992315
vt 0.121220 0.988057
vt 0.118397 0.991186
vn 0.000000 -1.000000 0.000000
vn 0.000000 -1.000000 0.000000
vn 0.000000 -1.000000 0.000000
vn 0.000000 -1.000000 0.000000
vn 0.000000 -0.707098 0.707116
vn 0.000000 -0.707098 0.707116
vn 0.000000 -0.707098 0.707116
vn 0.000000 -0.707098 0.707116
vn -0.995393 -0.095878 0.000000
vn -0.707106 -0.707108 0.000000
vn -0.707106 -0.707108 0.000000
vn -0.995393 -0.095878 0.000000
vn -0.707106 -0.707108 0.000000
vn -0.016525 -0.999864 0.000000
vn -0.016525 -0.999864 0.000000
vn -0.707106 -0.707108 0.000000
vn 0.997581 0.069516 0.000000
vn 0.707107 0.707107 0.000000
vn 0.707107 0.707107 0.000000
vn 0.997581 0.069516 0.000000
vn 0.707107 0.707107 0.000000
vn 0.015508 0.999880 0.000000
vn 0.015508 0.999880 0.000000
vn 0.707107 0.707107 0.000000
vn 0.015508 0.999880 0.000000
vn 0.015508 0.999880 0.000000
vn 0.000000 1.000000 0.000000
vn 0.000000 1.000000 0.000000
vn -0.016525 -0.999864 0.000000
vn -0.016525 -0.999864 0.000000
vn 0.000000 -1.000000 0.000000
vn 0.000000 -1.000000 0.000000
vn 0.997581 0.069516 0.000000
vn 1.000000 0.000000 0.000000
vn 1.000000 0.000000 0.000000
vn 0.997581 0.069516 0.000000
vn -0.995393 -0.095878 0.000000
vn -0.995393 -0.095878 0.000000
vn -1.000000 0.000000 0.000000
vn -1.000000 0.000000 0.000000
vn 0.000000 0.000000 1.000000
vn 0.000000 0.000000 1.000000
vn 0.000000 0.000000 1.000000
vn 0.000000 0.000000 1.000000
vn 0.000000 0.000000 1.000000
vn 0.000000 0.000000 1.000000
vn 0.000000 0.000000 1.000000
vn 0.000000 0.000000 1.000000
vn 0.707104 0.000000 0.707109
vn 0.663415 0.080484 0.743910
vn 0.691255 0.030696 0.721959
vn 0.707104 0.000000 0.707109
vn -0.685163 -0.041993 0.727178
vn -0.707096 0.000000 0.707118
vn -0.707096 0.000000 0.707118
vn -0.651140 -0.101039 0.752202
vn -0.021813 -0.695941 0.717767
vn 0.000000 -0.707098 0.707115
vn 0.000000 -0.707098 0.707115
vn -0.006757 -0.703697 0.710468
vn 0.000000 0.707105 0.707109
vn 0.006379 0.703893 0.710277
vn 0.020667 0.696543 0.717217
vn 0.000000 0.707105 0.707109
vn 0.663415 0.080484 0.743910
vn 0.408236 0.408242 0.816506
vn 0.408236 0.408242 0.816506
vn 0.691255 0.030696 0.721959
vn 0.408236 0.408242 0.816506
vn 0.020667 0.696543 0.717217
vn 0.006379 0.703893 0.710277
vn 0.408236 0.408242 0.816506
vn 0.000000 0.000000 1.000000
vn 0.000000 0.000000 1.000000
vn 0.000000 0.000000 1.000000
vn 0.000000 0.000000 1.000000
vn 0.000000 0.000000 1.000000
vn 0.000000 0.000000 1.000000
vn 0.000000 0.000000 1.000000
vn 0.000000 0.000000 1.000000
vn -0.006757 -0.703697 0.710468
vn -0.408242 -0.408247 0.816500
vn -0.408242 -0.408247 0.816500
vn -0.021813 -0.695941 0.717767
vn -0.408242 -0.408247 0.816500
vn -0.685163 -0.041993 0.727178
vn -0.651140 -0.101039 0.752202
vn -0.408242 -0.408247 0.816500
vn 0.000000 -1.000000 0.000000
vn 0.000000 -1.000000 0.000000
vn 0.000000 -1.000000 0.000000
vn 0.000000 -1.000000 0.000000
vn 0.000000 -0.707097 0.707117
vn 0.000000 -0.707097 0.707117
vn 0.000000 -0.707097 0.707117
vn 0.000000 -0.707097 0.707117
vn 0.995393 -0.095878 0.000000
vn 0.995393 -0.095878 0.000000
vn 0.707106 -0.707108 0.000000
vn 0.707106 -0.707108 0.000000
vn 0.707106 -0.707108 0.000000
vn 0.707106 -0.707108 0.000000
vn 0.016525 -0.999864 0.000000
vn 0.016525 -0.999864 0.000000
vn -0.997581 0.069516 0.000000
vn -0.997581 0.069516 0.000000
vn -0.707107 0.707107 0.000000
vn -0.707107 0.707107 0.000000
vn -0.707107 0.707107 0.000000
vn -0.707107 0.707107 0.000000
vn -0.015508 0.999880 0.000000
vn -0.015508 0.999880 0.000000
vn -0.015508 0.999880 0.000000
vn 0.000000 1.000000 0.000000
vn 0.000000 1.000000 0.000000
vn -0.015508 0.999880 0.000000
vn 0.016525 -0.999864 0.000000
vn 0.000000 -1.000000 0.000000
vn 0.000000 -1.000000 0.000000
vn 0.016525 -0.999864 0.000000
vn -0.997581 0.069516 0.000000
vn -0.997581 0.069516 0.000000
vn -1.000000 0.000000 0.000000
vn -1.000000 0.000000 0.000000
vn 0.995393 -0.095878 0.000000
vn 1.000000 0.000000 0.000000
vn 1.000000 0.000000 0.000000
vn 0.995393 -0.095878 0.000000
vn 0.000000 0.000000 1.000000
vn 0.000000 0.000000 1.000000
vn 0.000000 0.000000 1.000000
vn 0.000000 0.000000 1.000000
vn 0.000000 0.000000 1.000000
vn -0.000000 0.000000 1.000000
vn -0.000000 0.000000 1.000000
vn 0.000000 0.000000 1.000000
vn -0.707107 0.000000 0.707106
vn -0.707107 0.000000 0.707106
vn -0.691259 0.030697 0.721955
vn -0.663419 0.080485 0.743906
vn 0.685159 -0.041993 0.727182
vn 0.651138 -0.101039 0.752204
vn 0.707091 0.000000 0.707123
vn 0.707091 0.000000 0.707123
vn 0.021813 -0.695939 0.717770
vn 0.006757 -0.703694 0.710471
vn 0.000000 -0.707098 0.707115
vn 0.000000 -0.707098 0.707115
vn 0.000000 0.707105 0.707109
vn 0.000000 0.707105 0.707109
vn -0.020667 0.696543 0.717217
vn -0.006379 0.703893 0.710277
vn -0.663419 0.080485 0.743906
vn -0.691259 0.030697 0.721955
vn -0.408240 0.408241 0.816504
vn -0.408240 0.408241 0.816504
vn -0.408240 0.408241 0.816504
vn -0.408240 0.408241 0.816504
vn -0.006379 0.703893 0.710277
vn -0.020667 0.696543 0.717217
vn 0.000000 0.000000 1.000000
vn 0.000000 0.000000 1.000000
vn -0.000001 0.000000 1.000000
vn -0.000001 0.000000 1.000000
vn -0.000001 0.000000 1.000000
vn -0.000001 0.000000 1.000000
vn -0.000000 0.000000 1.000000
vn -0.000000 0.000000 1.000000
vn 0.006757 -0.703694 0.710471
vn 0.021813 -0.695939 0.717770
vn 0.408243 -0.408245 0.816501
vn 0.408242 -0.408246 0.816501
vn 0.408242 -0.408246 0.816501
vn 0.408243 -0.408245 0.816501
vn 0.651138 -0.101039 0.752204
vn 0.685159 -0.041993 0.727182
s off
g polySurface3 PC_Scene
usemtl lambert3SG
f 3/1/1 4/2/2 8/3/3 7/4/4
f 3/1/5 7/4/6 10/5/7 9/6/8
f 15/7/9 14/8/10 17/9/11 16/10/12
f 14/11/13 13/12/14 18/13/15 17/14/16
f 21/15/17 20/16/18 23/17/19 22/18/20
f 20/19/21 19/20/22 24/21/23 23/22/24
f 24/21/25 19/20/26 5/23/27 6/24/28
f 18/13/29 13/12/30 1/25/31 2/26/32
f 22/18/33 7/27/34 8/28/35 21/15/36
f 15/7/37 16/10/38 4/29/39 3/30/40
f 9/31/41 10/32/42 25/33/43 28/34/44
f 12/35/45 11/36/46 30/37/47 27/38/48
f 7/27/49 22/18/50 25/39/51 10/40/52
f 15/7/53 3/30/54 9/41/55 28/42/56
f 30/43/57 11/44/58 1/25/59 13/12/60
f 12/45/61 27/46/62 24/21/63 6/24/64
f 22/18/65 23/17/66 26/47/67 25/39/68
f 23/22/69 24/21/70 27/46/71 26/48/72
f 25/33/73 26/49/74 29/50/75 28/34/76
f 26/49/77 27/38/78 30/37/79 29/50/80
f 13/12/81 14/11/82 29/51/83 30/43/84
f 14/8/85 15/7/86 28/42/87 29/52/88
f 31/53/89 33/54/90 34/55/91 32/56/92
usemtl PC_SceneSG
f 31/53/93 35/57/94 36/58/95 33/54/96
usemtl lambert3SG
f 39/59/97 40/60/98 41/61/99 38/62/100
f 38/63/101 41/64/102 42/65/103 37/66/104
f 45/67/105 46/68/106 47/69/107 44/70/108
f 44/71/109 47/72/110 48/73/111 43/74/112
f 48/73/113 6/75/114 5/76/115 43/74/116
f 42/65/117 2/77/118 1/78/119 37/66/120
f 46/68/121 45/67/122 34/79/123 33/80/124
f 39/59/125 31/81/126 32/82/127 40/60/128
f 35/83/129 52/84/130 49/85/131 36/86/132
f 12/35/133 51/87/134 54/88/135 11/36/136
f 33/80/137 36/91/138 49/92/139 46/68/140
usemtl PC_SceneSG
f 39/89/141 52/84/142 35/83/143 31/90/144
usemtl lambert3SG
f 54/95/145 37/66/146 1/78/147 11/96/148
f 12/97/149 6/75/150 48/73/151 51/98/152
f 46/68/153 49/92/154 50/99/155 47/69/156
f 47/72/157 50/100/158 51/98/159 48/73/160
f 49/85/161 52/84/162 53/94/163 50/101/164
f 50/101/165 53/94/166 54/88/167 51/87/168
f 37/66/169 54/95/170 53/103/171 38/63/172
usemtl PC_SceneSG
f 38/62/173 53/102/174 52/93/175 39/59/176
g default
v -2.972177 2.733328 -6.857977
v -2.972177 2.733328 -7.000002
v -2.422177 2.183327 -6.857977
v -2.422177 2.183327 -7.000002
v -3.163951 2.733328 -7.000002
v -3.163951 2.733328 -6.857977
v -2.422177 1.991553 -6.857977
v -2.422177 1.991553 -7.000002
v -2.442177 2.163327 -6.837977
v -2.442177 2.011553 -6.837977
v -2.992177 2.713328 -6.837977
v -3.143951 2.713328 -6.837977
v -2.972177 2.348311 -6.857977
v -2.923854 2.231649 -6.857977
v -2.807193 2.183327 -6.857977
v -2.807193 2.183327 -7.000002
v -2.923854 2.231649 -7.000002
v -2.972177 2.348311 -7.000002
v -3.163951 2.156537 -7.000002
v -3.115629 2.039876 -7.000002
v -2.998968 1.991553 -7.000002
v -2.998968 1.991553 -6.857977
v -3.115629 2.039876 -6.857977
v -3.163951 2.156537 -6.857977
v -2.978968 2.011553 -6.837977
v -3.095629 2.059876 -6.837977
v -3.143951 2.176537 -6.837977
v -2.827193 2.163327 -6.837977
v -2.943854 2.211649 -6.837977
v -2.992177 2.328311 -6.837977
vt 0.027289 0.969513
vt 0.027289 0.974868
vt 0.023324 0.974868
vt 0.023324 0.969513
vt 0.023324 0.969513
vt 0.023324 0.974868
vt 0.027289 0.974868
vt 0.027289 0.969513
vt 0.022765 0.970071
vt 0.022765 0.974309
vt 0.022765 0.974309
vt 0.022765 0.970071
vt 0.029234 0.954715
vt 0.029234 0.958680
vt 0.032491 0.958680
vt 0.032491 0.954715
vt 0.008796 0.958249
vt 0.012897 0.958249
vt 0.012897 0.961619
vt 0.008796 0.961619
vt 0.031933 0.967442
vt 0.031933 0.963476
vt 0.035190 0.963476
vt 0.035190 0.967442
vt 0.021659 0.968083
vt 0.017693 0.968083
vt 0.017693 0.971340
vt 0.021659 0.971340
vt 0.017693 0.982090
vt 0.021659 0.982090
vt 0.012897 0.978274
vt 0.008796 0.978274
vt 0.021183 0.967442
vt 0.021183 0.963476
vt 0.013130 0.954715
vt 0.013130 0.958680
vt 0.032491 0.958680
vt 0.017504 0.958680
vt 0.021741 0.962918
vt 0.032491 0.962918
vt 0.017135 0.978274
vt 0.017135 0.967525
vt 0.012897 0.963287
vt 0.012897 0.978274
vt 0.021741 0.962918
vt 0.032491 0.962918
vt 0.028676 0.954157
vt 0.013688 0.954157
vt 0.008218 0.962196
vt 0.008218 0.977697
vt 0.017135 0.981532
vt 0.017135 0.970782
vt 0.035749 0.962918
vt 0.017135 0.967525
vt 0.014246 0.960029
vt 0.018484 0.964267
vt 0.008218 0.958827
vt 0.031933 0.954157
vn 0.000000 1.000000 0.000000
vn 0.000000 1.000000 0.000000
vn 0.000000 1.000000 0.000000
vn 0.000000 1.000000 0.000000
vn 1.000000 0.000000 0.000000
vn 1.000000 0.000000 0.000000
vn 1.000000 0.000000 0.000000
vn 1.000000 0.000000 0.000000
vn 0.707096 0.000000 0.707117
vn 0.707097 0.000000 0.707117
vn 0.707097 0.000000 0.707117
vn 0.707096 0.000000 0.707117
vn 0.000000 0.707103 0.707110
vn 0.000000 0.707103 0.707110
vn 0.000000 0.707103 0.707110
vn 0.000000 0.707103 0.707110
vn 0.095878 0.995393 0.000000
vn 0.095878 0.995393 0.000000
vn 0.707108 0.707106 0.000000
vn 0.707108 0.707106 0.000000
vn 0.707108 0.707106 0.000000
vn 0.707108 0.707106 0.000000
vn 0.995393 0.095878 0.000000
vn 0.995393 0.095878 0.000000
vn -0.069515 -0.997581 0.000000
vn -0.069515 -0.997581 0.000000
vn -0.707107 -0.707107 0.000000
vn -0.707107 -0.707107 0.000000
vn -0.707107 -0.707107 0.000000
vn -0.707107 -0.707107 0.000000
vn -0.997581 -0.069515 0.000000
vn -0.997581 -0.069515 0.000000
vn -0.997581 -0.069515 0.000000
vn -1.000000 0.000000 0.000000
vn -1.000000 0.000000 0.000000
vn -0.997581 -0.069515 0.000000
vn 0.995393 0.095878 0.000000
vn 1.000000 0.000000 0.000000
vn 1.000000 0.000000 0.000000
vn 0.995393 0.095878 0.000000
vn -0.069515 -0.997581 0.000000
vn -0.069515 -0.997581 0.000000
vn 0.000000 -1.000000 0.000000
vn 0.000000 -1.000000 0.000000
vn 0.095878 0.995393 0.000000
vn 0.000000 1.000000 0.000000
vn 0.000000 1.000000 0.000000
vn 0.095878 0.995393 0.000000
vn 0.000000 0.000000 1.000000
vn -0.000001 0.000000 1.000000
vn -0.000002 0.000000 1.000000
vn 0.000000 0.000000 1.000000
vn -0.000003 0.000000 1.000000
vn -0.000002 0.000000 1.000000
vn -0.000003 0.000000 1.000000
vn -0.000003 0.000000 1.000000
vn 0.000000 -0.707094 0.707119
vn 0.000000 -0.707094 0.707119
vn -0.030698 -0.691246 0.721967
vn -0.080488 -0.663409 0.743916
vn 0.041993 0.685166 0.727175
vn 0.101039 0.651144 0.752199
vn 0.000000 0.707098 0.707115
vn 0.000000 0.707098 0.707115
vn 0.651144 0.101038 0.752199
vn 0.685168 0.041993 0.727174
vn 0.707101 0.000000 0.707113
vn 0.707101 0.000000 0.707113
vn -0.707099 0.000000 0.707114
vn -0.707099 0.000000 0.707114
vn -0.663413 -0.080485 0.743912
vn -0.691251 -0.030696 0.721962
vn -0.080488 -0.663409 0.743916
vn -0.030698 -0.691246 0.721967
vn -0.408247 -0.408242 0.816500
vn -0.408246 -0.408243 0.816500
vn -0.408246 -0.408243 0.816500
vn -0.408247 -0.408242 0.816500
vn -0.691251 -0.030696 0.721962
vn -0.663413 -0.080485 0.743912
vn -0.000002 0.000000 1.000000
vn -0.000001 0.000000 1.000000
vn -0.000002 0.000000 1.000000
vn -0.000002 0.000000 1.000000
vn -0.000002 0.000000 1.000000
vn -0.000002 0.000000 1.000000
vn -0.000003 0.000000 1.000000
vn -0.000002 0.000000 1.000000
vn 0.685168 0.041993 0.727174
vn 0.651144 0.101038 0.752199
vn 0.408242 0.408242 0.816503
vn 0.408242 0.408242 0.816503
vn 0.408242 0.408242 0.816503
vn 0.408242 0.408242 0.816503
vn 0.101039 0.651144 0.752199
vn 0.041993 0.685166 0.727175
s off
g PC_Scene polySurface5
usemtl lambert3SG
f 56/104/177 59/105/178 60/106/179 55/107/180
f 57/108/181 61/109/182 62/110/183 58/111/184
f 57/108/185 63/112/186 64/113/187 61/109/188
f 60/106/189 66/114/190 65/115/191 55/107/192
f 69/116/193 70/117/194 71/118/195 68/119/196
f 68/120/197 71/121/198 72/122/199 67/123/200
f 75/124/201 76/125/202 77/126/203 74/127/204
f 74/128/205 77/129/206 78/130/207 73/131/208
f 78/130/209 60/132/210 59/133/211 73/131/212
f 72/122/213 56/134/214 55/135/215 67/123/216
f 76/125/217 75/124/218 62/136/219 61/137/220
f 69/116/221 57/138/222 58/139/223 70/117/224
f 63/140/225 82/141/226 79/142/227 64/143/228
f 66/144/229 81/145/230 84/146/231 65/147/232
f 61/137/233 64/148/234 79/149/235 76/125/236
f 69/116/237 82/150/238 63/151/239 57/138/240
f 84/152/241 67/123/242 55/135/243 65/153/244
f 66/154/245 60/132/246 78/130/247 81/155/248
f 76/125/249 79/149/250 80/156/251 77/126/252
f 77/129/253 80/157/254 81/155/255 78/130/256
f 79/142/257 82/141/258 83/158/259 80/159/260
f 80/159/261 83/158/262 84/146/263 81/145/264
f 67/123/265 84/152/266 83/160/267 68/120/268
f 68/119/269 83/161/270 82/150/271 69/116/272
g default
v 3.073411 2.062946 -6.868720
v 3.073411 2.062951 -6.944289
v 3.073411 5.308160 -6.868720
v 3.073411 5.308166 -6.944289
v -3.073432 5.308160 -6.868720
v -3.075088 5.308165 -6.944289
v -3.073432 2.062946 -6.868720
v -3.075088 2.062950 -6.944289
vt 0.323654 0.985873
vt 0.323654 0.960959
vt 0.324234 0.960959
vt 0.324234 0.985873
vt 0.276465 0.985873
vt 0.323654 0.986453
vt 0.276452 0.986453
vt 0.276465 0.960959
vt 0.275884 0.985873
vt 0.275884 0.960959
vt 0.323654 0.960379
vt 0.276452 0.960379
vt 0.008155 0.043691
vt 0.991845 0.043691
vt 0.991845 0.956312
vt 0.008155 0.956312
vn 1.000000 0.000000 0.000000
vn 1.000000 0.000000 0.000000
vn 1.000000 0.000000 0.000000
vn 1.000000 0.000000 0.000000
vn -0.000000 1.000000 -0.000001
vn -0.000000 1.000000 -0.000001
vn -0.000000 1.000000 -0.000001
vn -0.000000 1.000000 -0.000001
vn -0.999760 0.000000 0.021906
vn -0.999760 0.000000 0.021906
vn -0.999760 0.000000 0.021906
vn -0.999760 0.000000 0.021906
vn 0.000000 -1.000000 0.000010
vn 0.000000 -1.000000 0.000010
vn 0.000000 -1.000000 0.000010
vn 0.000000 -1.000000 0.000010
vn 0.000000 0.000000 1.000000
vn 0.000000 0.000000 1.000000
vn 0.000000 0.000000 1.000000
vn 0.000000 0.000000 1.000000
s off
g PC_Scene polySurface7
usemtl lambert3SG
f 87/162/273 85/163/274 86/164/275 88/165/276
usemtl PC_SceneSG
f 89/166/277 87/162/278 88/167/279 90/168/280
usemtl lambert3SG
f 91/169/281 89/166/282 90/170/283 92/171/284
f 86/172/285 85/163/286 91/169/287 92/173/288
usemtl lambert2SG
f 91/174/289 85/175/290 87/176/291 89/177/292
g default
v 2.972177 2.733328 -6.857977
v 2.972177 2.733328 -7.000002
v 2.422177 2.183327 -6.857977
v 2.422177 2.183327 -7.000002
v 3.163951 2.733328 -7.000002
v 3.163951 2.733328 -6.857977
v 2.422177 1.991553 -6.857977
v 2.422177 1.991553 -7.000002
v 2.442177 2.163327 -6.837977
v 2.442177 2.011553 -6.837977
v 2.992177 2.713328 -6.837977
v 3.143951 2.713328 -6.837977
v 2.972177 2.348311 -6.857977
v 2.923854 2.231649 -6.857977
v 2.807193 2.183327 -6.857977
v 2.807193 2.183327 -7.000002
v 2.923854 2.231649 -7.000002
v 2.972177 2.348311 -7.000002
v 3.163951 2.156537 -7.000002
v 3.115629 2.039876 -7.000002
v 2.998968 1.991553 -7.000002
v 2.998968 1.991553 -6.857977
v 3.115629 2.039876 -6.857977
v 3.163951 2.156537 -6.857977
v 2.978968 2.011553 -6.837977
v 3.095629 2.059876 -6.837977
v 3.143951 2.176537 -6.837977
v 2.827193 2.163327 -6.837977
v 2.943854 2.211649 -6.837977
v 2.992177 2.328311 -6.837977
vt 0.027289 0.974868
vt 0.023324 0.974868
vt 0.023324 0.969513
vt 0.027289 0.969513
vt 0.023324 0.974868
vt 0.027289 0.974868
vt 0.027289 0.969513
vt 0.023324 0.969513
vt 0.022765 0.970071
vt 0.022765 0.974309
vt 0.022765 0.974309
vt 0.022765 0.970071
vt 0.031933 0.963476
vt 0.035190 0.963476
vt 0.035190 0.967442
vt 0.031933 0.967442
vt 0.017693 0.968083
vt 0.017693 0.971340
vt 0.021659 0.971340
vt 0.021659 0.968083
vt 0.029234 0.958680
vt 0.032491 0.958680
vt 0.032491 0.954715
vt 0.029234 0.954715
vt 0.012897 0.958249
vt 0.012897 0.961619
vt 0.008796 0.961619
vt 0.008796 0.958249
vt 0.012897 0.978274
vt 0.008796 0.978274
vt 0.017693 0.982090
vt 0.021659 0.982090
vt 0.013130 0.954715
vt 0.013130 0.958680
vt 0.021183 0.967442
vt 0.021183 0.963476
vt 0.032491 0.962918
vt 0.032491 0.958680
vt 0.017504 0.958680
vt 0.021741 0.962918
vt 0.012897 0.978274
vt 0.017135 0.978274
vt 0.017135 0.967525
vt 0.012897 0.963287
vt 0.028676 0.954157
vt 0.013688 0.954157
vt 0.021741 0.962918
vt 0.032491 0.962918
vt 0.017135 0.970782
vt 0.017135 0.981532
vt 0.008218 0.977697
vt 0.008218 0.962196
vt 0.031933 0.954157
vt 0.008218 0.958827
vt 0.014246 0.960029
vt 0.018484 0.964267
vt 0.017135 0.967525
vt 0.035749 0.962918
vn 0.000000 1.000000 0.000000
vn 0.000000 1.000000 0.000000
vn 0.000000 1.000000 0.000000
vn 0.000000 1.000000 0.000000
vn -1.000000 0.000000 0.000000
vn -1.000000 0.000000 0.000000
vn -1.000000 0.000000 0.000000
vn -1.000000 0.000000 0.000000
vn -0.707098 0.000000 0.707116
vn -0.707098 0.000000 0.707116
vn -0.707098 0.000000 0.707116
vn -0.707098 0.000000 0.707116
vn 0.000000 0.707102 0.707111
vn 0.000000 0.707102 0.707111
vn 0.000000 0.707102 0.707111
vn 0.000000 0.707102 0.707111
vn -0.095878 0.995393 0.000000
vn -0.707108 0.707106 0.000000
vn -0.707108 0.707106 0.000000
vn -0.095878 0.995393 0.000000
vn -0.707108 0.707106 0.000000
vn -0.995393 0.095878 0.000000
vn -0.995393 0.095878 0.000000
vn -0.707108 0.707106 0.000000
vn 0.069515 -0.997581 0.000000
vn 0.707107 -0.707107 0.000000
vn 0.707107 -0.707107 0.000000
vn 0.069515 -0.997581 0.000000
vn 0.707107 -0.707107 0.000000
vn 0.997581 -0.069515 0.000000
vn 0.997581 -0.069515 0.000000
vn 0.707107 -0.707107 0.000000
vn 0.997581 -0.069515 0.000000
vn 0.997581 -0.069515 0.000000
vn 1.000000 0.000000 0.000000
vn 1.000000 0.000000 0.000000
vn -0.995393 0.095878 0.000000
vn -0.995393 0.095878 0.000000
vn -1.000000 0.000000 0.000000
vn -1.000000 0.000000 0.000000
vn 0.069515 -0.997581 0.000000
vn 0.000000 -1.000000 0.000000
vn 0.000000 -1.000000 0.000000
vn 0.069515 -0.997581 0.000000
vn -0.095878 0.995393 0.000000
vn -0.095878 0.995393 0.000000
vn 0.000000 1.000000 0.000000
vn 0.000000 1.000000 0.000000
vn 0.000000 0.000000 1.000000
vn 0.000000 0.000000 1.000000
vn 0.000002 0.000000 1.000000
vn 0.000001 0.000000 1.000000
vn 0.000000 0.000000 1.000000
vn 0.000000 0.000000 1.000000
vn 0.000000 0.000000 1.000000
vn 0.000000 0.000000 1.000000
vn 0.000000 -0.707096 0.707118
vn 0.080484 -0.663410 0.743915
vn 0.030696 -0.691248 0.721966
vn 0.000000 -0.707096 0.707118
vn -0.041992 0.685166 0.727175
vn 0.000000 0.707099 0.707115
vn 0.000000 0.707099 0.707115
vn -0.101037 0.651144 0.752199
vn -0.651148 0.101038 0.752195
vn -0.707106 0.000000 0.707108
vn -0.707106 0.000000 0.707108
vn -0.685172 0.041992 0.727170
vn 0.707096 0.000000 0.707118
vn 0.691248 -0.030696 0.721965
vn 0.663411 -0.080484 0.743914
vn 0.707096 0.000000 0.707118
vn 0.080484 -0.663410 0.743915
vn 0.408243 -0.408244 0.816502
vn 0.408244 -0.408243 0.816501
vn 0.030696 -0.691248 0.721966
vn 0.408243 -0.408244 0.816502
vn 0.663411 -0.080484 0.743914
vn 0.691248 -0.030696 0.721965
vn 0.408244 -0.408243 0.816501
vn 0.000002 0.000000 1.000000
vn 0.000002 0.000000 1.000000
vn 0.000002 0.000000 1.000000
vn 0.000001 0.000000 1.000000
vn 0.000002 0.000000 1.000000
vn 0.000000 0.000000 1.000000
vn 0.000000 0.000000 1.000000
vn 0.000002 0.000000 1.000000
vn -0.685172 0.041992 0.727170
vn -0.408242 0.408242 0.816503
vn -0.408242 0.408242 0.816503
vn -0.651148 0.101038 0.752195
vn -0.408242 0.408242 0.816503
vn -0.041992 0.685166 0.727175
vn -0.101037 0.651144 0.752199
vn -0.408242 0.408242 0.816503
s off
g PC_Scene polySurface9
usemtl lambert3SG
f 94/178/293 93/179/294 98/180/295 97/181/296
f 95/182/297 96/183/298 100/184/299 99/185/300
f 95/182/301 99/185/302 102/186/303 101/187/304
f 98/180/305 93/179/306 103/188/307 104/189/308
f 107/190/309 106/191/310 109/192/311 108/193/312
f 106/194/313 105/195/314 110/196/315 109/197/316
f 113/198/317 112/199/318 115/200/319 114/201/320
f 112/202/321 111/203/322 116/204/323 115/205/324
f 116/204/325 111/203/326 97/206/327 98/207/328
f 110/196/329 105/195/330 93/208/331 94/209/332
f 114/201/333 99/210/334 100/211/335 113/198/336
f 107/190/337 108/193/338 96/212/339 95/213/340
f 101/214/341 102/215/342 117/216/343 120/217/344
f 104/218/345 103/219/346 122/220/347 119/221/348
f 99/210/349 114/201/350 117/222/351 102/223/352
f 107/190/353 95/213/354 101/224/355 120/225/356
f 122/226/357 103/227/358 93/208/359 105/195/360
f 104/228/361 119/229/362 116/204/363 98/207/364
f 114/201/365 115/200/366 118/230/367 117/222/368
f 115/205/369 116/204/370 119/229/371 118/231/372
f 117/216/373 118/232/374 121/233/375 120/217/376
f 118/232/377 119/221/378 122/220/379 121/233/380
f 105/195/381 106/194/382 121/234/383 122/226/384
f 106/191/385 107/190/386 120/225/387 121/235/388
